<?xml version="1.0" standalone="no"?>
<!DOCTYPE svg PUBLIC "-//W3C//DTD SVG 1.1//EN" "http://www.w3.org/Graphics/SVG/1.1/DTD/svg11.dtd" >
<svg xmlns="http://www.w3.org/2000/svg">
<metadata>
Created by FontPrep 20130207 at Tue Aug  2 15:13:13 2016
 By Tina Muller
Copyright (c) 2015 by LatinoTypeTeam. All rights reserved.
</metadata>
<defs>
<font id="1b726a2ed3f4685197def627bca0d44c" horiz-adv-x='1024' >
  <font-face 
    font-family="Branding-BoldItalic"
    font-weight="700"
    font-style="italic"
    font-stretch="normal"
    units-per-em="2048"
    panose-1="0 0 8 0 0 0 0 0 0 0"
    ascent="1577"
    descent="-471"
    x-height="969"
    cap-height="1325"
    bbox="-1276 -504 2742.05 1831"
    underline-thickness="102"
    underline-position="-102"
    slope="-10"
    unicode-range="U+0020-FB02"
  />
<missing-glyph horiz-adv-x="792" 
d="M389 184l-344 346l344 344l346 -344z" />
    <glyph glyph-name="fi" unicode="fi" horiz-adv-x="1181" 
d="M823 -12q-78 0 -153 12l133 758l-295 2l-131 -760q-61 -12 -153 -12t-154 12l133 760h-115q0 27 2 39q0 76 35 170h117q98 397 499 397q172 0 303 -74q-8 -59 -46 -124t-78 -93q-76 43 -181 43q-164 0 -194 -149h602l-172 -969q-74 -12 -152 -12z" />
    <glyph glyph-name="fl" unicode="fl" horiz-adv-x="1331" 
d="M987 -29q-301 0 -244 328l144 803q-65 10 -139 10q-159 0 -195 -162h164v-43q0 -100 -45 -205h-164l-125 -702q-57 -12 -149 -12t-154 12l125 702h-119q-4 23 0 54q0 90 31 166q10 27 12 30h121q47 206 194 310t384 104t397 -78l-172 -962q-12 -76 45 -76q32 -1 67 26
q90 -76 84 -221q-104 -84 -262 -84z" />
    <glyph glyph-name=".notdef" horiz-adv-x="792" 
d="M389 184l-344 346l344 344l346 -344z" />
    <glyph glyph-name=".null" 
 />
    <glyph glyph-name="nonmarkingreturn" horiz-adv-x="681" 
 />
    <glyph glyph-name="space" unicode=" " horiz-adv-x="405" 
 />
    <glyph glyph-name="exclam" unicode="!" horiz-adv-x="534" 
d="M190 -57q-70 0 -118 49t-49 119q0 71 48 119q49 48 119 48t119 -48q49 -50 49 -120t-49 -118q-49 -49 -119 -49zM241 395q-44 0 -89 11q27 547 88 901q162 63 317 0q-68 -369 -229 -899q-43 -13 -87 -13z" />
    <glyph glyph-name="quotedbl" unicode="&#x22;" horiz-adv-x="679" 
d="M556 893q-26 0 -77 6l25 449q49 20 120 20t119 -18l-135 -449q-26 -8 -52 -8zM258 893q-26 0 -76 6l25 449q49 20 120 20t119 -18l-135 -449q-27 -8 -53 -8z" />
    <glyph glyph-name="numbersign" unicode="#" horiz-adv-x="1290" 
d="M723 457l104 245h-237l-105 -245h238zM1303 1260l-138 -322h125q-12 -123 -98 -236h-127l-104 -245h131q-14 -131 -99 -236h-133l-135 -317q-135 -25 -238 0l136 317h-238l-135 -317q-135 -25 -238 0l135 317h-147q8 143 100 236h148l104 245h-153q10 141 100 236h152
l137 322q127 18 237 0l-137 -322h240l137 322q123 18 238 0z" />
    <glyph glyph-name="dollar" unicode="$" horiz-adv-x="1075" 
d="M418 919q0 -43 58 -69t142 -50t168 -58t143 -105q58 -72 58 -176q0 -176 -113 -284t-309 -130l-28 -162q-68 -14 -124 -14t-122 14l28 168q-209 31 -317 125q33 150 156 219q125 -104 385 -104q166 0 166 113q0 38 -42 66t-143 49t-237 85q-63 31 -106 95q-42 65 -42 157
q1 156 105 259t284 134l29 166q136 26 248 0l-29 -162q203 -27 291 -110q-33 -158 -147 -223q-143 90 -340 90q-74 0 -118 -25t-44 -68z" />
    <glyph glyph-name="percent" unicode="%" horiz-adv-x="1521" 
d="M1090 123q66 0 100 49t35 123q0 131 -111 131q-66 0 -102 -49t-37 -123q0 -131 115 -131zM1078 -41q-146 0 -220 75q-74 76 -74 216t96 240t243 100q146 0 220 -76t74 -216t-96 -239q-97 -100 -243 -100zM436 856q66 0 102 49t35 123q0 131 -112 131q-66 0 -103 -49
t-36 -123q-1 -131 114 -131zM764 1032q0 -140 -96 -240t-242 -100t-221 75q-74 75 -74 215t96 240q97 99 243 99t220 -75q74 -74 74 -214zM90 -96l1133 1425q109 23 204 0l-1132 -1425q-111 -14 -205 0z" />
    <glyph glyph-name="ampersand" unicode="&#x26;" horiz-adv-x="1234" 
d="M373 373q0 -63 40 -99q39 -36 123 -37q84 0 150 23l53 307h-147q-219 -4 -219 -194zM1229 714q0 -64 -47 -147h-168l-80 -475q-176 -123 -455 -123q-186 0 -314 81t-128 255q0 289 272 395q-109 80 -109 245t136 282q134 117 362 117t336 -109q-16 -68 -62 -128t-106 -95
q-88 61 -181 61t-141 -43t-48 -115q0 -115 153 -114h572q8 -23 8 -87z" />
    <glyph glyph-name="quotesingle" unicode="'" horiz-adv-x="382" 
d="M258 893q-26 0 -76 6l25 449q49 20 120 20t119 -18l-135 -449q-27 -8 -53 -8z" />
    <glyph glyph-name="parenleft" unicode="(" horiz-adv-x="571" 
d="M37 218q0 643 434 1218q113 -10 172 -99q-338 -561 -338 -1175q0 -248 64 -479q-29 -37 -99 -61t-120 -19q-113 283 -113 615z" />
    <glyph glyph-name="parenright" unicode=")" horiz-adv-x="569" 
d="M252 874q0 254 -66 480q29 38 100 62t120 20q110 -288 110 -618q-1 -640 -432 -1217q-123 8 -180 92q348 565 348 1181z" />
    <glyph glyph-name="asterisk" unicode="*" horiz-adv-x="774" 
d="M610 1135v-15l168 -71q-16 -125 -129 -179l-119 140q-8 -4 -14 -4l-14 -185q-123 -23 -211 70l96 158q-4 8 -8 10l-182 -43q-59 109 0 223l184 -45l6 10l-98 162q88 90 211 70l14 -189q6 0 14 -4l121 141q113 -51 131 -178z" />
    <glyph glyph-name="plus" unicode="+" horiz-adv-x="974" 
d="M909 594q6 -102 -35 -201h-319l-59 -338q-102 -27 -197 0l59 338h-319q-6 98 37 201h317l60 338q102 23 196 0l-59 -338h319z" />
    <glyph glyph-name="comma" unicode="," horiz-adv-x="456" 
d="M41 90q0 78 -10 117q57 23 139 19t127 -29q6 -25 6 -62q0 -129 -81 -264t-183 -221q-37 2 -72 24t-47 54q41 59 63 98t40 112q18 74 18 152z" />
    <glyph glyph-name="hyphen" unicode="-" horiz-adv-x="733" 
d="M90 486q0 62 39 139h492q2 -16 2 -79t-37 -136h-492q-4 14 -4 76z" />
    <glyph glyph-name="period" unicode="." horiz-adv-x="516" 
d="M201 -35q-78 0 -132 55q-55 54 -55 132t54 133t133 55q78 0 132 -54t54 -132t-54 -134t-132 -55z" />
    <glyph glyph-name="slash" unicode="/" horiz-adv-x="1150" 
d="M4 -389q-57 0 -119 10l1104 1743q66 10 121 10t131 -10l-1104 -1743q-76 -10 -133 -10z" />
    <glyph glyph-name="zero" unicode="0" horiz-adv-x="1292" 
d="M608 233q94 1 161 61t97 156q53 167 56 343q0 289 -197 288q-98 0 -167 -59q-70 -58 -100 -154q-53 -167 -55 -342q0 -293 205 -293zM1239 819q-1 -503 -303 -734q-154 -118 -382 -118q-228 -1 -350 145q-120 146 -120 387t77 433t231 312q154 118 382 118
q226 0 346 -148t119 -395z" />
    <glyph glyph-name="one" unicode="1" horiz-adv-x="817" 
d="M679 1352q77 0 126 -13l-238 -1339q-75 -12 -153 -12t-152 12l176 991l-237 -96q-102 84 -92 254q53 23 195 88t220 90t155 25z" />
    <glyph glyph-name="two" unicode="2" horiz-adv-x="1130" 
d="M31 55q0 139 127 248q284 242 394 343q110 100 148 158t37 125q0 67 -42 105t-115 37q-115 0 -271 -133q-143 41 -180 192q190 231 487 232q203 0 326 -100t123 -276t-129 -330q-129 -153 -397 -351l-60 -37l66 6l467 2q12 -61 -2 -139t-47 -137h-928q-4 25 -4 55z" />
    <glyph glyph-name="three" unicode="3" horiz-adv-x="1103" 
d="M1010 492q0 -260 -169 -394t-413 -135q-160 0 -270 46t-160 106q47 154 158 233q127 -104 282 -104q117 0 184 59t66 154q0 197 -239 196h-132q-2 4 -2 19q0 47 54 106l258 275h-457q-10 150 47 274h879q0 -131 -88 -221l-260 -264q106 -23 184 -112t78 -238z" />
    <glyph glyph-name="four" unicode="4" horiz-adv-x="1140" 
d="M1081 508q0 -33 -2 -43q0 -104 -39 -227h-157l-41 -238q-72 -12 -144 -12t-145 12l41 238h-571q-49 170 61 362l477 772q147 -8 258 -127l-409 -663q-25 -41 -25 -74h258l55 317q165 25 289 0l-55 -317h149z" />
    <glyph glyph-name="five" unicode="5" horiz-adv-x="1093" 
d="M440 -35q-162 0 -270 41t-158 92q14 70 58 138q43 68 98 106q109 -102 287 -102q117 0 173 57t56 152q0 158 -182 157q-76 0 -217 -28t-168 2l123 747h827q0 -147 -47 -272h-551l-37 -215q82 31 164 30q205 0 308 -95t104 -267q0 -250 -154 -396t-414 -147z" />
    <glyph glyph-name="six" unicode="6" horiz-adv-x="1134" 
d="M557 221q86 1 144 57q59 56 59 150t-45 136t-139 42t-205 -71q-2 -20 -2 -66q0 -248 188 -248zM718 850q154 0 248 -92t95 -273q0 -236 -155 -379t-376 -143t-344 125t-123 333t78 381q145 321 512 487q168 77 355 102q70 -76 36 -277q-465 -59 -610 -342q130 78 284 78z
" />
    <glyph glyph-name="seven" unicode="7" horiz-adv-x="1017" 
d="M1100 1327q16 -139 -78 -291l-694 -1079q-156 16 -242 129l621 965h-574q-2 137 49 276h918z" />
    <glyph glyph-name="eight" unicode="8" horiz-adv-x="1155" 
d="M524 195q213 0 213 159q0 60 -44 98q-43 38 -115 72t-91 45q-141 -106 -141 -223q0 -76 48 -114t130 -37zM827 1008q1 58 -43 90t-123 32t-129 -39q-49 -40 -49 -100q0 -92 160 -166q8 -4 47 -22q137 98 137 205zM460 -35q-174 0 -300 76t-127 238q0 238 264 415
q-115 104 -115 267t138 282t353 119q213 0 329 -86t116 -223q0 -220 -223 -363q149 -116 149 -270t-82 -260t-205 -150t-297 -45z" />
    <glyph glyph-name="nine" unicode="9" horiz-adv-x="1142" 
d="M410 885q0 -91 49 -139t134 -48t191 58q2 23 2 65q0 266 -180 266q-86 2 -141 -55t-55 -147zM632 1362q230 0 346 -136q118 -136 118 -374q0 -453 -240 -673t-723 -218q-16 39 -16 108t30 154q125 1 209 13q210 29 308 138q55 62 86 158q-109 -86 -274 -86t-266 104
t-101 294q0 233 146 376q147 142 377 142z" />
    <glyph glyph-name="colon" unicode=":" horiz-adv-x="567" 
d="M210 -43q-79 0 -135 55t-57 135q0 81 56 137t136 56q79 0 135 -56t56 -136t-56 -136q-56 -55 -135 -55zM324 600q-80 0 -137 56q-56 56 -56 136t56 135q57 56 137 56t136 -56t56 -135q0 -80 -56 -136t-136 -56z" />
    <glyph glyph-name="semicolon" unicode=";" horiz-adv-x="555" 
d="M90 84q0 76 -12 121q59 20 141 18t129 -26q4 -33 4 -62q0 -129 -82 -263t-184 -222q-37 2 -71 24t-44 52q41 59 62 97q21 37 39 111t18 150zM307 600q-80 0 -136 56t-56 136t56 135q56 56 136 56t136 -56q57 -56 57 -135q0 -80 -56 -136t-137 -56z" />
    <glyph glyph-name="less" unicode="&#x3c;" horiz-adv-x="1124" 
d="M1063 709l-719 -205l-80 -19l74 -22l645 -238q-25 -137 -123 -239l-821 346l-2 57q0 115 29 190q6 17 10 27t16 37l938 324q58 -106 33 -258z" />
    <glyph glyph-name="equal" unicode="=" horiz-adv-x="1077" 
d="M51 195q0 80 37 176h834v-25q0 -82 -35 -176h-834q-2 2 -2 25zM125 578v24q0 86 35 176h833v-24q0 -82 -35 -176h-833z" />
    <glyph glyph-name="greater" unicode="&#x3e;" horiz-adv-x="1124" 
d="M1061 592q0 -123 -57 -264l-943 -342q-66 102 -38 239l729 242l77 20l-71 17l-645 205q27 147 125 258l823 -324v-51z" />
    <glyph glyph-name="question" unicode="?" horiz-adv-x="911" 
d="M360 -57q-70 0 -118 49t-49 119q0 71 49 119q48 48 118 48t119 -48q49 -50 49 -120t-49 -118q-49 -49 -119 -49zM384 354q-54 0 -101 8q-1 106 33 184t81 123q47 44 96 81q115 89 115 188q0 63 -39 99t-119 36t-163 -65q-123 70 -125 209q154 121 364 120q170 0 279 -89
t108 -244q0 -109 -42 -190t-103 -130q-62 -49 -124 -92q-152 -105 -167 -227q-39 -11 -93 -11z" />
    <glyph glyph-name="at" unicode="@" horiz-adv-x="1773" 
d="M924 745q-94 0 -152 -64q-58 -65 -59 -157q0 -92 37 -134q38 -42 100 -42t115 43l59 338q-53 16 -100 16zM973 1346q333 0 533 -174t200 -476q0 -260 -116 -435t-343 -175q-94 0 -143 30t-92 93q-104 -78 -246 -78t-227 89q-86 89 -86 247q0 217 146 357q147 140 361 140
t343 -83l-82 -465q-18 -111 77 -111q68 0 116 78q48 77 48 275t-127 331t-389 133t-450 -174t-189 -481q0 -242 127 -373t334 -131q117 0 227 43q25 -31 40 -92t5 -115q-131 -59 -297 -59q-303 0 -492 188t-190 492q0 213 76 391q143 335 495 471q163 64 341 64z" />
    <glyph glyph-name="A" unicode="A" horiz-adv-x="1232" 
d="M461 504h284l-49 313l-16 119l-57 -119zM47.5 -8q-88.5 0 -147.5 22l696 1301q63 12 155.5 12t153.5 -12l232 -1301q-176 -38 -312 -14l-41 260h-450l-135 -260q-63 -8 -151.5 -8z" />
    <glyph glyph-name="B" unicode="B" horiz-adv-x="1163" 
d="M494 209q264 0 264 201q0 135 -189 135h-137l-59 -332q78 -4 121 -4zM813 965q0 123 -172 122q-31 0 -113 -4l-53 -299h125q213 1 213 181zM446 -37q-227 0 -415 37l227 1292q190 41 406 41q457 0 456 -309q1 -258 -243 -354q193 -70 192.5 -268t-149 -318.5
t-474.5 -120.5z" />
    <glyph glyph-name="C" unicode="C" horiz-adv-x="1163" 
d="M636 -33q-265 0 -414.5 153.5t-149.5 405.5q0 369 218 602.5t548 233.5q250 0 385 -127q-25 -70 -81.5 -137.5t-125.5 -102.5q-88 76 -219 76q-166 0 -277.5 -138t-111.5 -364q0 -145 75.5 -230t208.5 -85q84 0 136.5 21.5t111.5 64.5q127 -76 131 -242
q-170 -131 -435 -131z" />
    <glyph glyph-name="D" unicode="D" horiz-adv-x="1333" 
d="M512 260q221 0 329.5 136t108.5 315.5t-81 261.5t-236 82q-70 0 -109 -2l-139 -789q82 -4 127 -4zM653 1341q311 0 474 -147t163 -414q0 -369 -223 -587t-621 -218q-233 0 -413 27l231 1307q168 32 389 32z" />
    <glyph glyph-name="E" unicode="E" horiz-adv-x="1071" 
d="M1049 1042h-529l-41 -241h469q8 -156 -45 -258h-469l-47 -271h545q10 -162 -49 -272h-850l231 1315h834q17 -148 -49 -273z" />
    <glyph glyph-name="F" unicode="F" horiz-adv-x="1026" 
d="M182.5 -14q-63.5 0 -149.5 14l231 1315h823q2 -92 -7 -143.5t-42 -133.5h-518l-53 -305h461q4 -86 -6.5 -140t-40.5 -130h-461l-82 -463q-92 -14 -155.5 -14z" />
    <glyph glyph-name="G" unicode="G" horiz-adv-x="1271" 
d="M676 489q0 147 51 281h496l-125 -698q-202 -106 -464 -106t-412 147t-150 405q0 375 225 609.5t588 234.5q236 0 370 -113q-55 -178 -194 -256q-92 76 -238 76q-188 0 -301.5 -141.5t-113.5 -368.5q0 -143 72.5 -225t207.5 -82q74 0 146 14l38 223h-196z" />
    <glyph glyph-name="H" unicode="H" horiz-adv-x="1345" 
d="M1190 1325q76 0 156 -12l-232 -1313q-74 -12 -150.5 -12t-156.5 12l90 514h-469l-90 -514q-76 -12 -151 -12t-154 12l231 1313q74 12 150 12t155 -12l-92 -518h469l92 518q76 12 152 12z" />
    <glyph glyph-name="I" unicode="I" horiz-adv-x="569" 
d="M188 -12q-76 0 -155 12l231 1313q59 12 150.5 12t154.5 -12l-231 -1313q-74 -12 -150 -12z" />
    <glyph glyph-name="J" unicode="J" horiz-adv-x="811" 
d="M194.5 -55q-191.5 0 -266.5 86q4 72 40 143.5t85 110.5q57 -53 154 -54q117 0 141 140l166 942q74 12 151 12t154 -12l-172 -981q-33 -188 -147 -287.5t-305.5 -99.5z" />
    <glyph glyph-name="K" unicode="K" horiz-adv-x="1249" 
d="M188 -12q-76 0 -155 12l231 1313q74 12 150 12t155 -12l-90 -514q156 113 269.5 229.5t246.5 290.5q70 6 168.5 6t184.5 -12q-268 -367 -613 -643q135 -262 484 -654q-94 -23 -210 -22.5t-173 6.5q-205 225 -342 492q-66 -43 -78 -52l-78 -440q-74 -12 -150 -12z" />
    <glyph glyph-name="L" unicode="L" horiz-adv-x="966" 
d="M419.5 1329q63.5 0 149.5 -14l-182 -1041h494q4 -164 -50 -274h-798l231 1315q92 14 155.5 14z" />
    <glyph glyph-name="M" unicode="M" horiz-adv-x="1572" 
d="M1422 1325q79 0 151 -14l-232 -1311q-76 -12 -138 -12t-142 12l110 623l43 196l-73 -153l-299 -551q-132 -22 -256 0l-113 553l-22 143l-27 -188l-109 -623q-78 -12 -140 -12t-142 12l231 1309q66 16 151 16t171 -12l168 -821l10 -82l33 82l450 821q96 12 175 12z" />
    <glyph glyph-name="N" unicode="N" horiz-adv-x="1357" 
d="M1208 1325q70 0 150 -12l-232 -1307q-145 -27 -297 -16l-329 758l-27 71l-10 -98l-127 -721q-80 -12 -148.5 -12t-154.5 12l229 1303q123 39 297 20l328 -776l24 -70l13 105l129 731q85 12 155 12z" />
    <glyph glyph-name="O" unicode="O" horiz-adv-x="1413" 
d="M676 252q172 0 266 138t94 366q0 150 -67.5 231.5t-198.5 81.5q-172 0 -266 -138t-94 -366q0 -147 68.5 -230t197.5 -83zM639 -37q-258 0 -410.5 151.5t-152.5 415.5q0 371 204.5 599.5t526.5 228.5q258 0 411.5 -151.5t153.5 -415.5q0 -373 -204.5 -600.5t-528.5 -227.5
z" />
    <glyph glyph-name="P" unicode="P" horiz-adv-x="1169" 
d="M588 662q143 0 212.5 72.5t69.5 183.5q0 172 -219 172q-43 0 -121 -5l-73 -419q82 -4 131 -4zM684 1350q506 0 506 -379q0 -268 -178 -421t-469 -153q-47 0 -133 4l-72 -401q-58 -12 -150 -12t-155 12l229 1305q209 45 422 45z" />
    <glyph glyph-name="Q" unicode="Q" horiz-adv-x="1413" 
d="M410 565q0 -147 68.5 -230t197.5 -83q172 0 266 138t94 366q0 150 -67.5 231.5t-198.5 81.5q-172 0 -266 -138.5t-94 -365.5zM76 530q0 371 204.5 599.5t526.5 228.5q258 0 411.5 -151.5t153.5 -407.5t-94 -443.5t-260 -289.5q160 -90 254 -297q-88 -106 -275 -117
q-57 154 -142 232.5t-228 78.5q-254 4 -402.5 154.5t-148.5 412.5z" />
    <glyph glyph-name="R" unicode="R" horiz-adv-x="1206" 
d="M620.5 711q108.5 0 167 59t58.5 158q0 152 -187 151q-43 0 -133 -4l-63 -362q49 -2 157.5 -2zM688 1337q477 0 477 -353q0 -173 -95 -299t-257 -183q143 -276 311 -488q-90 -25 -198.5 -24.5t-130.5 2.5q-174 242 -273 467q-70 0 -104 2l-82 -461q-59 -12 -151.5 -12
t-153.5 12l227 1294q209 43 430 43z" />
    <glyph glyph-name="S" unicode="S" horiz-adv-x="1103" 
d="M463 -33q-330 0 -490 156q20 78 68.5 143.5t112.5 100.5q57 -51 150 -85t198 -34q199 0 198 131q0 53 -56 87t-137 59.5t-161 61.5t-136 115.5t-56 200.5q0 199 148.5 323t391.5 124q158 0 268.5 -40t167.5 -96q-18 -74 -64 -141t-112 -102q-125 94 -310.5 94
t-184.5 -113q0 -72 147 -115q148 -43 260 -113q60 -38 101 -113.5t41 -180.5q0 -211 -148.5 -337t-396.5 -126z" />
    <glyph glyph-name="T" unicode="T" horiz-adv-x="1085" 
d="M441 -14q-81 0 -150 14l184 1042h-352q0 160 49 273h1006q4 -156 -48 -273h-350l-184 -1042q-74 -14 -155 -14z" />
    <glyph glyph-name="U" unicode="U" horiz-adv-x="1320" 
d="M592.5 -37q-246.5 0 -370.5 107.5t-124 308.5q0 61 15 151l137 783q78 12 153.5 12t151.5 -12l-135 -776q-8 -57 -8 -91q0 -94 51 -147t153 -53q231 0 281 284l137 783q76 12 149.5 12t151.5 -12l-139 -785q-47 -274 -202 -419.5t-401.5 -145.5z" />
    <glyph glyph-name="V" unicode="V" horiz-adv-x="1241" 
d="M1108 1327q178 0 233 -22q-193 -694 -677 -1301q-66 -12 -159 -12t-165 12q-180 621 -197 1301q102 23 205 23t131 -5q0 -543 88 -1047q324 518 459 1047q45 4 82 4z" />
    <glyph glyph-name="W" unicode="W" horiz-adv-x="1892" 
d="M1755 1327q174 0 232 -22q-131 -401 -267.5 -719t-318.5 -582q-74 -14 -163 -14t-169 14q-61 289 -72 688q0 12 -1 44t-1 50l-20 -75q-102 -354 -344 -707q-90 -14 -163 -14t-177 14q-141 553 -137 1301q188 39 338 18q-29 -541 34 -1053q289 561 383 1010q74 14 158 14
t154 -14q14 -618 67 -1008q246 479 387 1051q45 4 80 4z" />
    <glyph glyph-name="X" unicode="X" horiz-adv-x="1228" 
d="M935.5 -10q-95.5 0 -159.5 8l-188 440l-334 -440q-63 -8 -166 -8t-186 18l530 664l-285 637q125 23 205 22.5t162 -8.5l174 -444l305 444q82 8 156.5 8t191.5 -20l-505 -656l299 -647q-104 -18 -199.5 -18z" />
    <glyph glyph-name="Y" unicode="Y" horiz-adv-x="1210" 
d="M507.5 -12q-75.5 0 -155.5 12l88 500l-317 809q123 20 213 20t145 -8l142 -438l26 -97l62 97l305 438q59 8 141.5 8t188.5 -20l-603 -826l-86 -483q-74 -12 -149.5 -12z" />
    <glyph glyph-name="Z" unicode="Z" horiz-adv-x="1150" 
d="M-29 43q0 98 99 215l612 729l51 57l-579 -2q-8 127 49 273h991q4 -16 4 -39q0 -102 -98 -219l-600 -715l-70 -70h610q2 -137 -47 -272h-1018q-4 10 -4 43z" />
    <glyph glyph-name="bracketleft" unicode="[" horiz-adv-x="632" 
d="M692 1219h-190l-248 -1401h190q6 -104 -38 -219h-437l324 1839h438q3 -38 -9 -110t-30 -109z" />
    <glyph glyph-name="backslash" unicode="\" horiz-adv-x="1122" 
d="M795 -389q-57 0 -129 10l-490 1722q146 19 252 0l490 -1722q-66 -10 -123 -10z" />
    <glyph glyph-name="bracketright" unicode="]" horiz-adv-x="634" 
d="M211 1438h438l-325 -1839h-437q-5 37 7 109t30 110h191l247 1401h-190q-4 110 39 219z" />
    <glyph glyph-name="asciicircum" unicode="^" horiz-adv-x="1202" 
d="M313 596q-129 35 -209 135l519 684q139 25 274 0l287 -717q-121 -70 -269 -100l-204 520z" />
    <glyph glyph-name="underscore" unicode="_" horiz-adv-x="868" 
d="M-131 -205q0 74 41 148h833v-47q0 -80 -36 -154h-834q-4 25 -4 53z" />
    <glyph glyph-name="grave" unicode="`" horiz-adv-x="602" 
d="M659 1055l-403 225q49 156 182 223l312 -336q-32 -73 -91 -112z" />
    <glyph glyph-name="a" unicode="a" horiz-adv-x="1120" 
d="M489 225q117 0 183 119l65 377q-53 16 -112 16q-119 0 -199 -91t-80 -243q0 -88 37.5 -133t105.5 -45zM658.5 999q263.5 0 418.5 -96l-162 -915q-106 -18 -210 0l-13 106q-131 -129 -301 -129t-264 104.5t-94 286.5q0 287 181 465t444.5 178z" />
    <glyph glyph-name="b" unicode="b" horiz-adv-x="1128" 
d="M475 223q127 0 202 86t75 223q0 94 -49.5 150.5t-132.5 56.5t-134 -16l-84 -479q57 -21 123 -21zM621 999q201 0 321.5 -107.5t120.5 -305.5q0 -285 -178 -452t-475 -167q-242 0 -396 88l226 1286q63 13 154 13t151 -13l-64 -358q66 16 140 16z" />
    <glyph glyph-name="c" unicode="c" horiz-adv-x="931" 
d="M482 -35q-208 0 -325.5 110.5t-117.5 305.5q0 281 157.5 453t403.5 172q211 0 320 -113q-18 -59 -65.5 -115.5t-102.5 -87.5q-57 57 -165 58q-109 0 -173 -92q-64 -94 -64 -208q0 -228 180 -227q92 0 170 74q121 -57 138 -195q-148 -135 -356 -135z" />
    <glyph glyph-name="d" unicode="d" horiz-adv-x="1126" 
d="M346 459.5q0 -117.5 56.5 -176t154.5 -58.5q49 0 102 13l86 485q-49 16 -110 16q-125 0 -207 -81t-82 -198.5zM1010 1354q76 0 149 -13l-227 -1288q-180 -88 -414.5 -88t-358.5 111.5t-124 318.5q0 270 181 437t439 167q78 0 136 -12l63 354q80 13 156 13z" />
    <glyph glyph-name="e" unicode="e" horiz-adv-x="1044" 
d="M569 772q-152 0 -202 -194q74 -18 172 -23q72 0 111.5 30.5t39.5 80t-32 78t-89 28.5zM519.5 -35q-236.5 0 -357.5 109.5t-121 322.5q0 264 154.5 433t394.5 169q186 0 291.5 -84t105.5 -234.5t-125 -227t-303 -76.5q-111 0 -211 26q0 -111 49 -157.5t166 -46.5t246 98
q109 -61 113 -193q-166 -139 -402.5 -139z" />
    <glyph glyph-name="f" unicode="f" horiz-adv-x="722" 
d="M709 1366q125 0 239 -57q-10 -61 -46 -126t-75 -98q-47 31 -125 31q-121 0 -143 -133l-6 -31h199q8 -125 -43 -250h-199l-125 -702q-59 -12 -151 -12t-154 12l125 705h-119q-10 143 43 247h121q39 209 148.5 311.5t310.5 102.5z" />
    <glyph glyph-name="g" unicode="g" horiz-adv-x="1116" 
d="M530.5 262q77.5 0 126.5 21l78 444q-55 23 -117 23q-106 0 -185 -79t-79 -212q0 -94 49.5 -145.5t127 -51.5zM659 1006q256 0 414 -103l-147 -844q-41 -236 -194.5 -354.5t-373.5 -118.5q-309 0 -438 183q20 61 73.5 114.5t125.5 75.5q90 -131 258 -131q201 0 231 176
l6 33q-76 -20 -153 -21q-184 0 -302 106.5t-118 291.5q0 276 181 434t437 158z" />
    <glyph glyph-name="h" unicode="h" horiz-adv-x="1120" 
d="M664 1006q211 0 306 -107.5t64 -277.5l-108 -621q-80 -12 -155 -12t-153 12l97 541q35 188 -129 188q-88 0 -150 -35l-2 2l-123 -696q-74 -12 -151.5 -12t-153.5 12l236 1341q174 27 305 0l-66 -366q97 31 183 31z" />
    <glyph glyph-name="i" unicode="i" horiz-adv-x="518" 
d="M160 -12q-78 0 -154 12l172 973q78 12 153 12t152 -12l-172 -973q-73 -12 -151 -12zM381 1096q-76 0 -129 53t-53 129t53 130t129 54t129 -54t53 -130t-53 -129t-129 -53z" />
    <glyph glyph-name="j" unicode="j" horiz-adv-x="540" 
d="M-69 -408q-173 0 -261 78q2 61 39 123t86 92q43 -39 101 -39q104 0 129 140l172 985q61 12 152 12t155 -12l-172 -973q-35 -207 -131.5 -306.5t-269.5 -99.5zM397.5 1096q-75.5 0 -129 53t-53.5 129t53.5 130t129 54t129 -53t53.5 -130t-53.5 -130t-129 -53z" />
    <glyph glyph-name="k" unicode="k" horiz-adv-x="1130" 
d="M1073 717q0 -242 -242 -365l170 -340q-94 -25 -199.5 -24.5t-154.5 6.5l-141 305q-27 57 -17 117q266 37 267 196q0 121 -181 121q-66 0 -139 -18l-127 -715q-74 -12 -150.5 -12t-152.5 12l236 1341q159 25 305 0l-64 -358q98 20 193 21q188 0 292.5 -75t104.5 -212z" />
    <glyph glyph-name="l" unicode="l" horiz-adv-x="628" 
d="M308 -29q-266 0 -267 207q0 63 12 121l185 1042q66 12 158.5 12.5t146.5 -12.5l-181 -1015q-4 -20 -4 -31q0 -45 48 -45q27 0 51 22q92 -78 88 -225q-97 -76 -237 -76z" />
    <glyph glyph-name="m" unicode="m" horiz-adv-x="1714" 
d="M1266.5 1006q179.5 0 272.5 -82t93 -228q0 -49 -8 -90l-106 -606q-80 -12 -156 -12t-152 12l97 543q6 31 6 55q0 133 -135 133q-78 0 -148 -37q0 -47 -8 -88l-107 -606q-80 -12 -156.5 -12t-150.5 12l97 541q4 20 4 55q0 133 -138 133q-82 0 -139 -20l-123 -709
q-76 -12 -153.5 -12t-151.5 12l160 903q195 102 483 103q188 0 285 -78q155 78 334.5 78z" />
    <glyph glyph-name="n" unicode="n" horiz-adv-x="1120" 
d="M601.5 1006q234.5 0 335.5 -86t101 -236q0 -51 -8 -94l-104 -590q-80 -12 -156 -12t-149 12l94 541q6 29 6 57q0 131 -141 131q-92 0 -148 -22l-123 -707q-80 -12 -155.5 -12t-149.5 12l158 903q205 103 439.5 103z" />
    <glyph glyph-name="o" unicode="o" horiz-adv-x="1114" 
d="M527 219q93 0 150.5 94.5t57.5 233.5q0 205 -166 205q-104 0 -161.5 -93.5t-58.5 -209t42 -173t136 -57.5zM496 -35q-213 0 -334 116t-121 314q0 276 151.5 444.5t381 168.5t349 -116t119.5 -319q0 -274 -149 -441t-397 -167z" />
    <glyph glyph-name="p" unicode="p" horiz-adv-x="1128" 
d="M501.5 229q102.5 0 174.5 83q72 84 72 198q0 224 -199 223q-57 0 -117 -16l-82 -471q49 -17 151.5 -17zM579.5 999q225.5 0 353.5 -110.5t128 -317.5q0 -276 -160 -441t-426 -165q-96 0 -170 19l-63 -361q-78 -12 -155 -12t-150 12l225 1280q192 96 417.5 96z" />
    <glyph glyph-name="q" unicode="q" horiz-adv-x="1128" 
d="M529 231q81 0 137 23l82 461q-55 20 -117 20q-123 0 -203 -81t-80 -220q0 -94 50 -148.5t131 -54.5zM668 999q274 0 417 -96l-227 -1280q-76 -12 -153.5 -12t-151.5 12l63 359q-57 -14 -141 -15q-197 0 -318.5 108.5t-121.5 304.5t92 340t233.5 211.5t307.5 67.5z" />
    <glyph glyph-name="r" unicode="r" horiz-adv-x="735" 
d="M547 1008q164 0 241 -39q-16 -150 -110 -254q-53 16 -122 16t-124 -31l-123 -700q-80 -12 -155.5 -12t-149.5 12l158 903q164 105 385 105z" />
    <glyph glyph-name="s" unicode="s" horiz-adv-x="954" 
d="M360 -35q-141 0 -244.5 38t-152.5 87q43 141 150 203q133 -98 278 -98t146 81q0 37 -45.5 60.5t-110 41t-129 44.5t-109.5 87t-45 150q2 156 134.5 248t324.5 92q256 0 381 -94q-41 -141 -139 -211q-109 74 -269 74q-121 0 -120 -72q0 -31 45 -51t109.5 -38.5t129 -45
t109.5 -87t45 -148.5q0 -164 -125 -262.5t-363 -98.5z" />
    <glyph glyph-name="t" unicode="t" horiz-adv-x="876" 
d="M870 956v-43q0 -86 -45 -206h-299l-57 -330q-8 -41 -8 -60q0 -88 98 -88q61 0 123 50q47 -29 78 -87.5t31 -117.5q-137 -104 -334 -105q-141 0 -225.5 63.5t-84.5 203.5q0 49 9 92l67 379h-168q0 125 43 249h168l45 256q170 25 305 0l-45 -256h299z" />
    <glyph glyph-name="u" unicode="u" horiz-adv-x="1110" 
d="M928 975q76 0 149 -12l-159 -910q-186 -88 -472 -88q-393 0 -393 316q0 55 13 118l98 564q80 12 156.5 12t150.5 -12l-94 -535q-8 -41 -8 -90q0 -107 145 -107q59 0 133 19l125 713q80 12 156 12z" />
    <glyph glyph-name="v" unicode="v" horiz-adv-x="1050" 
d="M1030 844q0 -223 -135 -444.5t-350 -399.5q-84 -14 -170 -14t-158 14q-123 434 -131 954q90 23 190.5 23t145.5 -6q-10 -342 24 -670l7 -74q8 18 28 52q115 150 171.5 282.5t56.5 286.5q0 59 -17 121q51 12 147.5 12t174.5 -18q16 -39 16 -119z" />
    <glyph glyph-name="w" unicode="w" horiz-adv-x="1619" 
d="M1597 842q0 -219 -121.5 -442.5t-318.5 -399.5q-84 -14 -162 -14t-137 14q-61 152 -98 297q-90 -145 -236 -297q-74 -14 -148.5 -14t-131.5 14q-152 422 -158 954q90 23 188 23t146 -6q-10 -365 35 -668q0 -12 8 -80q6 14 26 45q188 283 197 557q-4 82 -4 129
q90 23 188 23t146 -6q-12 -403 28 -668q6 -68 7 -78q8 16 28 45q78 106 139.5 267t61.5 313q0 76 -18 121q49 6 141 6t178 -14q16 -33 16 -121z" />
    <glyph glyph-name="x" unicode="x" horiz-adv-x="1048" 
d="M784.5 -12q-124.5 0 -182.5 8l-137 274l-217 -274q-66 -10 -173.5 -8t-162.5 16l430 492l-256 456q70 27 184.5 27t153.5 -6l135 -275l209 275q78 10 182.5 3.5t147.5 -24.5l-418 -483l266 -465q-37 -16 -161.5 -16z" />
    <glyph glyph-name="y" unicode="y" horiz-adv-x="1112" 
d="M923.5 975q92.5 0 151.5 -12l-166 -957q-37 -201 -181 -310.5t-368 -109.5q-154 0 -270.5 46t-173.5 116q43 135 170 195q111 -117 276 -117q207 0 242 201l8 47q-98 -31 -178 -31q-432 0 -358 414l90 506q63 12 154 12t151 -12l-80 -459q-18 -102 8.5 -149.5
t115.5 -47.5t144 37l111 619q61 12 153.5 12z" />
    <glyph glyph-name="z" unicode="z" horiz-adv-x="960" 
d="M581.5 213q96.5 0 204.5 53q88 -88 84 -229q-156 -68 -322.5 -68t-316.5 72l-53 -61q-201 0 -201 114q0 53 66 123l406 445l67 61h-418q-18 125 43 246h770q2 -8 2 -37q0 -127 -84 -217l-419 -473q75 -29 171.5 -29z" />
    <glyph glyph-name="braceleft" unicode="{" horiz-adv-x="720" 
d="M655 1438h164q0 -111 -39 -219h-67q-121 0 -140 -99l-65 -377q-23 -147 -156 -225q102 -76 76 -225l-68 -377q-8 -51 17 -75t88 -23h67q4 -111 -38 -219h-164q-141 0 -195 88q-53 88 -29 229l62 348q25 131 -98 131h-68q-6 31 -6 74q0 100 51 186h98q92 0 113 117l61 348
q25 142 109 230t227 88z" />
    <glyph glyph-name="bar" unicode="|" horiz-adv-x="475" 
d="M70 -391q-58 0 -99 16l322 1819q100 29 201 0l-322 -1819q-44 -16 -102 -16z" />
    <glyph glyph-name="braceright" unicode="}" horiz-adv-x="722" 
d="M711 588q0 -94 -52 -193h-67q-63 1 -98 -31t-48 -100l-61 -348q-25 -141 -109 -229t-227 -88h-164q0 111 39 219h70q119 0 137 98l66 377q27 150 155 225q-102 76 -76 225l68 377q10 51 -15 75q-26 24 -89 24h-68q-4 111 39 219h164q141 0 194 -88t29 -230l-61 -348
q-20 -117 69 -117h99q6 -20 6 -67z" />
    <glyph glyph-name="asciitilde" unicode="~" horiz-adv-x="1099" 
d="M374 639q87 0 181 -37t131 -37q80 0 127 90q129 -4 199 -84q-43 -113 -135 -179q-93 -66 -181 -66t-182 36t-127 37q-74 0 -133 -94q-129 4 -199 82q49 119 141 185t178 67z" />
    <glyph glyph-name="uni00A0" unicode="&#xa0;" horiz-adv-x="405" 
 />
    <glyph glyph-name="exclamdown" unicode="&#xa1;" horiz-adv-x="520" 
d="M107 -352q-81 0 -160 28q61 344 229 899q101 26 176 3q-27 -547 -88 -900q-76 -30 -157 -30zM305 702q-70 0 -119 50t-49 118q0 70 49 119t119 49t119 -49t49 -119t-49 -119t-119 -49z" />
    <glyph glyph-name="cent" unicode="&#xa2;" horiz-adv-x="999" 
d="M385 594q0 -219 190 -219q94 0 177 71q117 -57 133 -192q-123 -106 -289 -125l-33 -190q-55 -15 -126 -15t-122 15l37 208q-133 39 -206 137t-72 246q0 234 125 394t325 198l37 205q68 14 127 14t121 -14l-37 -209q133 -27 201 -100q-43 -125 -172 -199q-61 62 -172 62
t-177 -87t-67 -200z" />
    <glyph glyph-name="sterling" unicode="&#xa3;" horiz-adv-x="1136" 
d="M1014 281q0 -153 -51 -281h-928q2 109 65 209q33 59 67 123t54 198h-141q-12 109 33 211h127q2 39 2 125q0 218 133 358t356 140q158 0 254 -50t164 -145q-61 -127 -207 -184q-65 86 -192 86q-92 0 -154 -61t-61 -164v-105h260q16 -109 -31 -211h-238q-10 -92 -51 -200
l-18 -49h557z" />
    <glyph glyph-name="currency" unicode="&#xa4;" horiz-adv-x="1327" 
d="M673 420q93 0 151 66t58 169t-52 157q-54 54 -145 54t-151 -66t-60 -170q0 -105 52 -158q54 -52 147 -52zM660 127q-132 0 -228 45l-113 -117q-131 66 -194 187l106 110q-55 98 -55 251t76 282l-109 104q55 119 189 193l106 -105q120 80 256 80t234 -49l104 111
q141 -72 195 -187l-101 -104q54 -102 54 -250t-76 -281l106 -104q-59 -121 -190 -191l-105 103q-123 -78 -255 -78z" />
    <glyph glyph-name="yen" unicode="&#xa5;" horiz-adv-x="1284" 
d="M1053 655v-20q0 -57 -27 -123h-246l-20 -111h248v-20q0 -53 -25 -123h-248l-45 -258q-74 -12 -150 -12t-157 12l45 258h-246v21q0 55 25 122h248l18 111h-246v20q0 59 25 123h199l-279 648q116 23 194 23t164 -9l138 -395l28 -86l58 86l286 395q58 8 138 8t186 -20
l-504 -650h193z" />
    <glyph glyph-name="brokenbar" unicode="&#xa6;" horiz-adv-x="473" 
d="M68 -391q-58 0 -97 16l129 737q106 31 201 0l-131 -737q-44 -16 -102 -16zM156 680l135 764q106 31 201 0l-136 -764q-100 -41 -200 0z" />
    <glyph glyph-name="section" unicode="&#xa7;" horiz-adv-x="1206" 
d="M489 -270q-289 0 -446 174q23 78 83 139t140 86q96 -113 230 -113t218 78q85 78 86 198t-81 218l-152 182q74 135 219 187l164 -195q143 -156 144 -373q-2 -253 -178 -417t-427 -164zM713 1370q291 0 446 -174q-25 -78 -85 -138t-138 -85q-96 111 -246 110
q-117 -1 -202 -77t-87 -195t82 -221l152 -182q-80 -136 -219 -185l-166 193q-143 166 -144 375q2 251 180 415t427 164z" />
    <glyph glyph-name="dieresis" unicode="&#xa8;" horiz-adv-x="829" 
d="M862.5 1112q-63.5 0 -108.5 45t-45 110t45 108.5t108.5 43.5t108.5 -45t45 -108.5t-45 -108.5t-108.5 -45zM413.5 1112q-63.5 0 -108.5 45t-45 110t44 108.5t108 43.5t108.5 -45t44.5 -108.5t-44 -108.5t-107.5 -45z" />
    <glyph glyph-name="copyright" unicode="&#xa9;" horiz-adv-x="1533" 
d="M753 221q-163 0 -266 95q-102 95 -102 264q0 211 133 341t328 130q84 0 154 -28t104 -65q-41 -102 -141 -161q-51 55 -141 55t-148 -69t-58 -167t44 -149t119 -51t163 57q78 -43 88 -162q-114 -90 -277 -90zM262 569q0 -225 134 -361t362 -136t384 174t154 448
q0 220 -134 358t-364 138t-384 -171q-152 -171 -152 -450zM719 -96q-287 0 -460 177t-173 462q0 356 212 586t540 231q286 0 460 -180t175 -461q0 -355 -212 -585t-542 -230z" />
    <glyph glyph-name="ordfeminine" unicode="&#xaa;" horiz-adv-x="776" 
d="M360 897q0 -57 72 -57q35 0 76 12l20 113q-35 14 -71 14q-97 0 -97 -82zM532 1376q295 0 244 -289l-57 -331h-6q-169 -64 -313 -64q-279 -1 -277 178q0 114 89 178t230 60q63 0 109 -14l4 22q13 86 -92 84q-98 0 -187 -57q-68 45 -65 137q139 96 321 96z" />
    <glyph glyph-name="guillemotleft" unicode="&#xab;" horiz-adv-x="931" 
d="M659 152l-247 364l354 369q90 -12 121 -76l-197 -289l94 -295q-39 -57 -125 -73zM295 152l-248 364l356 369q90 -14 119 -76l-196 -289l96 -295q-41 -57 -127 -73z" />
    <glyph glyph-name="registered" unicode="&#xae;" horiz-adv-x="1533" 
d="M836 899q133 0 133 113q0 86 -119 86q-35 0 -109 -4l-32 -191q43 -4 127 -4zM864 1266q299 0 299 -232q0 -213 -196 -280l120 -312q-51 -10 -111 -10t-81 2l-115 295q-33 0 -102 4l-51 -295q-25 -6 -87 -6t-106 6l141 799q131 29 289 29zM794 285q228 0 384 174t155 446
q0 221 -134 359q-135 138 -365 139q-230 0 -382 -171t-153 -450q0 -225 133 -361q134 -136 362 -136zM874 1573q289 0 462 -180t173 -461q0 -356 -212 -586t-541 -229q-287 0 -460 177t-173 462q-1 356 211 586t540 231z" />
    <glyph glyph-name="macron" unicode="&#xaf;" horiz-adv-x="731" 
d="M248 1206q0 86 43 172h618v-45q0 -92 -41 -184h-616q-4 14 -4 57z" />
    <glyph glyph-name="degree" unicode="&#xb0;" horiz-adv-x="700" 
d="M448 1016q50 0 84 35t35 85q0 50 -35 85q-34 35 -84 35t-86 -35q-34 -35 -34 -85t35 -85t85 -35zM446 844q-122 0 -206 86t-84 207t86 205t206 85q120 0 204 -85q85 -86 85 -206t-85 -206t-206 -86z" />
    <glyph glyph-name="plusminus" unicode="&#xb1;" horiz-adv-x="1034" 
d="M23 129h835q6 -92 -35 -199h-835q-6 97 35 199zM965 731q4 -104 -37 -201h-320l-47 -274q-102 -27 -196 0l47 274h-318q-6 102 35 201h320l47 273q102 23 196 0l-47 -273h320z" />
    <glyph glyph-name="acute" unicode="&#xb4;" horiz-adv-x="593" 
d="M315 1055q-63 41 -84 114l351 340q129 -70 172 -229z" />
    <glyph glyph-name="paragraph" unicode="&#xb6;" horiz-adv-x="1263" 
d="M366 -401q-79 0 -141 18l115 649q169 29 278 0l-114 -649q-59 -18 -138 -18zM633 659q113 0 213 7l74 411q-100 13 -226 13t-199 -66t-73 -174q0 -191 211 -191zM792 -397q-68 0 -130 12l139 784q-109 -6 -215 -6q-227 0 -356 110q-128 110 -128 306q0 248 173 394
t469 146t491 -51l-8 -30l-289 -1653q-78 -12 -146 -12z" />
    <glyph glyph-name="periodcentered" unicode="&#xb7;" horiz-adv-x="483" 
d="M260 532q-68 0 -115 48t-47 114q0 68 47 115t115 47t115 -47t47 -115t-47 -115t-115 -47z" />
    <glyph glyph-name="cedilla" unicode="&#xb8;" horiz-adv-x="507" 
d="M430 -211q0 -125 -89 -181.5t-218 -56.5t-182 54q16 90 88 141q37 -27 84 -27q84 0 84 68q0 55 -115 59l92 177h164l-49 -99q141 -27 141 -135z" />
    <glyph glyph-name="ordmasculine" unicode="&#xba;" horiz-adv-x="817" 
d="M473 879q61 0 97 55t36 141q0 117 -98 117q-61 0 -98 -55t-37 -142q0 -116 100 -116zM456 692q-154 0 -237 77q-82 77 -82 210q0 180 117 289q118 108 272 108t234 -74t80 -210q0 -182 -115 -291t-269 -109z" />
    <glyph glyph-name="guillemotright" unicode="&#xbb;" horiz-adv-x="944" 
d="M526 152q-92 12 -123 73l197 291l-94 295q41 61 125 74l248 -367zM154 152q-92 12 -125 73l198 291l-96 295q41 61 127 74l246 -367z" />
    <glyph glyph-name="onequarter" unicode="&#xbc;" horiz-adv-x="1597" 
d="M1489 295q0 -99 -35 -191h-88l-18 -108q-48 -8 -106 -8t-107 8l18 108h-354q-45 94 35 226l307 493q115 -6 192 -73l-241 -402q-16 -25 -21 -53h117l29 170q77 8 113 8t102 -8l-31 -170h88zM358 1100l-153 -60q-57 70 -43 177q174 72 269 102t192 6l-140 -786
q-123 -19 -223 0zM1237 1382q115 18 225 0l-1179 -1478q-127 -25 -228 0z" />
    <glyph glyph-name="onehalf" unicode="&#xbd;" horiz-adv-x="1591" 
d="M842 29q0 86 78 153q120 108 160 141q39 34 98 88q77 70 77 129q0 60 -64 60t-134 -74q-106 29 -139 117q123 156 311 156q119 1 193 -57t75 -158q0 -100 -70 -188t-206 -191l-50 -25l68 6l223 2q16 -82 -32 -188h-586q-2 6 -2 29zM358 1100l-153 -60q-55 68 -41 177
q172 72 267 102t192 6l-140 -786q-123 -19 -223 0zM1233 1382q115 18 227 0l-1181 -1478q-127 -23 -228 0z" />
    <glyph glyph-name="threequarters" unicode="&#xbe;" horiz-adv-x="1675" 
d="M1330 -12q-60 0 -107 8l18 108h-354q-45 94 35 226l307 493q109 -2 194 -61l-241 -414q-16 -25 -21 -53h115l29 170q79 8 113 8t100 -8l-29 -170h88q-8 -109 -35 -191h-88l-18 -108q-46 -8 -106 -8zM727 844q0 -162 -109 -248q-110 -86 -276 -86t-254 98q33 100 121 154
q69 -64 143 -64q142 -1 142 115q0 94 -119 94h-76q-2 4 -2 26t33 54l129 152h-279q-4 111 33 188h569q-8 -88 -61 -139l-143 -154q59 -12 104 -60t45 -130zM1333 1382q113 18 228 0l-1182 -1478q-125 -25 -227 0z" />
    <glyph glyph-name="questiondown" unicode="&#xbf;" horiz-adv-x="901" 
d="M374 -352q-190 0 -300 89t-109 245q0 110 42 190q43 80 103 129t122 92q154 107 171 228q43 8 99 8t108 -6q0 -103 -35 -181t-83 -122t-100 -81q-120 -91 -120 -190q0 -137 148 -137q90 0 174 63q119 -63 125 -206q-155 -121 -345 -121zM518 705q-70 0 -119 49
q-49 48 -49 118t49 119t119 49t119 -49t49 -119t-49 -118t-119 -49z" />
    <glyph glyph-name="Agrave" unicode="&#xc0;" horiz-adv-x="1232" 
d="M461 504h284l-49 313l-16 119l-57 -119zM47.5 -8q-88.5 0 -147.5 22l696 1301q63 12 155.5 12t153.5 -12l232 -1301q-176 -38 -312 -14l-41 260h-450l-135 -260q-63 -8 -151.5 -8zM1034 1505q-23 -86 -78 -133l-456 184q35 170 159 242z" />
    <glyph glyph-name="Aacute" unicode="&#xc1;" horiz-adv-x="1232" 
d="M461 504h284l-49 313l-16 119l-57 -119zM47.5 -8q-88.5 0 -147.5 22l696 1301q63 12 155.5 12t153.5 -12l232 -1301q-176 -38 -312 -14l-41 260h-450l-135 -260q-63 -8 -151.5 -8zM573 1370q-53 51 -69 131l424 297q117 -88 127 -250z" />
    <glyph glyph-name="Acircumflex" unicode="&#xc2;" horiz-adv-x="1232" 
d="M461 504h284l-49 313l-16 119l-57 -119zM47.5 -8q-88.5 0 -147.5 22l696 1301q63 12 155.5 12t153.5 -12l232 -1301q-176 -38 -312 -14l-41 260h-450l-135 -260q-63 -8 -151.5 -8zM510 1405q-74 45 -88 139l305 211q88 18 168 0l235 -211q-33 -94 -116 -139l-228 149z
" />
    <glyph glyph-name="Atilde" unicode="&#xc3;" horiz-adv-x="1232" 
d="M461 504h284l-49 313l-16 119l-57 -119zM752 1327q92 0 153 -12l232 -1301q-176 -38 -312 -14l-41 260h-450l-135 -260q-63 -8 -151.5 -8t-147.5 22l696 1301q64 12 156 12zM928 1430q-66 0 -151 36.5t-122 36.5q-80 0 -104 -88q-133 0 -193 72q27 117 112 184.5
t173.5 67.5t174 -38t112.5 -38q75 0 100 90q131 0 199 -61q-29 -127 -111 -194.5t-190 -67.5z" />
    <glyph glyph-name="Adieresis" unicode="&#xc4;" horiz-adv-x="1232" 
d="M461 504h284l-49 313l-16 119l-57 -119zM752 1327q92 0 153 -12l232 -1301q-176 -38 -312 -14l-41 260h-450l-135 -260q-63 -8 -151.5 -8t-147.5 22l696 1301q64 12 156 12zM1011.5 1442q-63.5 0 -108.5 45t-45 109t45 109.5t108.5 45.5t108.5 -45t45 -110t-45 -109.5
t-108.5 -44.5zM555 1442q-63 0 -108.5 45t-45.5 109t45.5 109.5t108.5 45.5t109.5 -45t46.5 -110t-46.5 -109.5t-109.5 -44.5z" />
    <glyph glyph-name="Aring" unicode="&#xc5;" horiz-adv-x="1232" 
d="M461 504h284l-49 313l-16 119l-57 -119zM47.5 -8q-88.5 0 -147.5 22l696 1301q63 12 155.5 12t153.5 -12l232 -1301q-176 -38 -312 -14l-41 260h-450l-135 -260q-63 -8 -151.5 -8zM872 1602q0 84 -78 84q-38 0 -60.5 -28t-22.5 -67q-1 -82 79 -82q38 0 60 27t22 66z
M783.5 1362q-107.5 0 -171 55.5t-63.5 162t73.5 179t176 72.5t168 -54.5t65.5 -162t-70.5 -180t-178 -72.5z" />
    <glyph glyph-name="AE" unicode="&#xc6;" horiz-adv-x="1755" 
d="M682 680h211l51 285l27 120l-82 -120zM34.5 -8q-87.5 0 -155.5 22l938 1303l965 -2q2 -90 -6 -142.5t-41 -130.5h-473l-56 -309h416q6 -72 -3 -120t-36 -115h-418l-41 -226h494q8 -154 -49 -272h-797l80 446h-340l-324 -446q-66 -8 -153.5 -8z" />
    <glyph glyph-name="Ccedilla" unicode="&#xc7;" horiz-adv-x="1163" 
d="M797 1071q-166 0 -277.5 -138t-111.5 -364q0 -145 75.5 -230t208.5 -85q84 0 136.5 21.5t111.5 64.5q127 -76 131 -242q-145 -111 -358 -129l-23 -45q141 -27 141 -135q0 -125 -89 -181q-90 -56 -218 -56.5t-182 53.5q16 90 88 141q37 -27 84 -27q84 0 84 68
q0 55 -115 59l66 125q-227 27 -352 176.5t-125 378.5q0 369 218 602.5t548 233.5q250 0 385 -127q-25 -70 -81.5 -137.5t-125.5 -102.5q-88 76 -219 76z" />
    <glyph glyph-name="Egrave" unicode="&#xc8;" horiz-adv-x="1071" 
d="M1049 1042h-529l-41 -241h469q8 -156 -45 -258h-469l-47 -271h545q10 -162 -49 -272h-850l231 1315h834q17 -148 -49 -273zM975 1505q-23 -86 -78 -133l-457 184q35 170 160 242z" />
    <glyph glyph-name="Eacute" unicode="&#xc9;" horiz-adv-x="1071" 
d="M1049 1042h-529l-41 -241h469q8 -156 -45 -258h-469l-47 -271h545q10 -162 -49 -272h-850l231 1315h834q17 -148 -49 -273zM512 1370q-53 51 -70 131l424 297q117 -88 127 -250z" />
    <glyph glyph-name="Ecircumflex" unicode="&#xca;" horiz-adv-x="1071" 
d="M1049 1042h-529l-41 -241h469q8 -156 -45 -258h-469l-47 -271h545q10 -162 -49 -272h-850l231 1315h834q17 -148 -49 -273zM451 1405q-74 45 -89 139l306 211q88 18 168 0l235 -211q-33 -94 -117 -139l-227 149z" />
    <glyph glyph-name="Edieresis" unicode="&#xcb;" horiz-adv-x="1071" 
d="M264 1315h834q16 -147 -49 -273h-529l-41 -241h469q8 -156 -45 -258h-469l-47 -271h545q10 -162 -49 -272h-850zM952.5 1442q-63.5 0 -108.5 45t-45 109t45 109.5t108.5 45.5t108.5 -45t45 -110t-45 -109.5t-108.5 -44.5zM497.5 1442q-64.5 0 -110 45t-45.5 109t45 109.5
t108.5 45.5t109.5 -45t46 -110t-44.5 -109.5t-109 -44.5z" />
    <glyph glyph-name="Igrave" unicode="&#xcc;" horiz-adv-x="569" 
d="M188 -12q-76 0 -155 12l231 1313q59 12 150.5 12t154.5 -12l-231 -1313q-74 -12 -150 -12zM623 1372l-457 184q35 170 160 242l374 -293q-22 -86 -77 -133z" />
    <glyph glyph-name="Iacute" unicode="&#xcd;" horiz-adv-x="569" 
d="M188 -12q-76 0 -155 12l231 1313q59 12 150.5 12t154.5 -12l-231 -1313q-74 -12 -150 -12zM240 1370q-53 51 -70 131l424 297q117 -88 127 -250z" />
    <glyph glyph-name="Icircumflex" unicode="&#xce;" horiz-adv-x="569" 
d="M188 -12q-76 0 -155 12l231 1313q59 12 150.5 12t154.5 -12l-231 -1313q-74 -12 -150 -12zM559 1755l219 -246q-33 -80 -114 -114l-209 157l-240 -157q-70 35 -88 112l287 248q73 14 145 0z" />
    <glyph glyph-name="Idieresis" unicode="&#xcf;" horiz-adv-x="569" 
d="M188 -12q-76 0 -155 12l231 1313q59 12 150.5 12t154.5 -12l-231 -1313q-74 -12 -150 -12zM653.5 1442q-64.5 0 -109 45t-44.5 109t46 109.5t109.5 45.5t108.5 -45t45 -108.5t-45.5 -109.5t-110 -46zM245.5 1442q-63.5 0 -108.5 45t-45 109t45 109.5t108.5 45.5
t108.5 -45t45 -110t-45 -109.5t-108.5 -44.5z" />
    <glyph glyph-name="Eth" unicode="&#xd0;" horiz-adv-x="1333" 
d="M512 260q221 0 329.5 136t108.5 315.5t-81 261.5t-236 82q-70 0 -109 -2l-55 -312h166q8 -98 -25 -184h-174l-51 -293q82 -4 127 -4zM653 1341q311 0 474 -147t163 -414q0 -369 -223 -587t-621 -218q-233 0 -413 27l98 555h-147q-16 88 24 184h156l100 568q168 32 389 32
z" />
    <glyph glyph-name="Ntilde" unicode="&#xd1;" horiz-adv-x="1357" 
d="M1208 1325q70 0 150 -12l-232 -1307q-145 -27 -297 -16l-329 758l-27 71l-10 -98l-127 -721q-80 -12 -148.5 -12t-154.5 12l229 1303q123 39 297 20l328 -776l24 -70l13 105l129 731q85 12 155 12zM709 1739q88 0 174 -38t112 -38q76 0 101 90q131 0 198 -61
q-29 -127 -110.5 -194.5t-190.5 -67.5q-66 0 -150.5 36.5t-121.5 36.5q-80 0 -105 -88q-133 0 -192 72q27 117 112 184.5t173 67.5z" />
    <glyph glyph-name="Ograve" unicode="&#xd2;" horiz-adv-x="1413" 
d="M676 252q172 0 266 138t94 366q0 150 -67.5 231.5t-198.5 81.5q-172 0 -266 -138t-94 -366q0 -147 68.5 -230t197.5 -83zM639 -37q-258 0 -410.5 151.5t-152.5 415.5q0 371 204.5 599.5t526.5 228.5q258 0 411.5 -151.5t153.5 -415.5q0 -373 -204.5 -600.5t-528.5 -227.5
zM1001 1372l-456 184q35 170 160 242l374 -293q-23 -86 -78 -133z" />
    <glyph glyph-name="Oacute" unicode="&#xd3;" horiz-adv-x="1413" 
d="M676 252q172 0 266 138t94 366q0 150 -67.5 231.5t-198.5 81.5q-172 0 -266 -138t-94 -366q0 -147 68.5 -230t197.5 -83zM639 -37q-258 0 -410.5 151.5t-152.5 415.5q0 371 204.5 599.5t526.5 228.5q258 0 411.5 -151.5t153.5 -415.5q0 -373 -204.5 -600.5t-528.5 -227.5
zM616 1370q-53 51 -69 131l424 297q117 -88 127 -250z" />
    <glyph glyph-name="Ocircumflex" unicode="&#xd4;" horiz-adv-x="1413" 
d="M676 252q172 0 266 138t94 366q0 150 -67.5 231.5t-198.5 81.5q-172 0 -266 -138t-94 -366q0 -147 68.5 -230t197.5 -83zM639 -37q-258 0 -410.5 151.5t-152.5 415.5q0 371 204.5 599.5t526.5 228.5q258 0 411.5 -151.5t153.5 -415.5q0 -373 -204.5 -600.5t-528.5 -227.5
zM940 1755l236 -211q-33 -94 -117 -139l-228 149l-276 -149q-74 45 -88 139l305 211q88 18 168 0z" />
    <glyph glyph-name="Otilde" unicode="&#xd5;" horiz-adv-x="1413" 
d="M676 252q172 0 266 138t94 366q0 150 -67.5 231.5t-198.5 81.5q-172 0 -266 -138t-94 -366q0 -147 68.5 -230t197.5 -83zM639 -37q-258 0 -410.5 151.5t-152.5 415.5q0 371 204.5 599.5t526.5 228.5q258 0 411.5 -151.5t153.5 -415.5q0 -373 -204.5 -600.5t-528.5 -227.5
zM686.5 1739q88.5 0 174 -38t112.5 -38q76 0 100 90q131 0 199 -61q-29 -127 -111 -194.5t-190 -67.5q-66 0 -151 36.5t-122 36.5q-79 0 -104 -88q-133 0 -193 72q27 117 112 184.5t173.5 67.5z" />
    <glyph glyph-name="Odieresis" unicode="&#xd6;" horiz-adv-x="1413" 
d="M676 252q172 0 266 138t94 366q0 150 -67.5 231.5t-198.5 81.5q-172 0 -266 -138t-94 -366q0 -147 68.5 -230t197.5 -83zM639 -37q-258 0 -410.5 151.5t-152.5 415.5q0 371 204.5 599.5t526.5 228.5q258 0 411.5 -151.5t153.5 -415.5q0 -373 -204.5 -600.5t-528.5 -227.5
zM1056.5 1442q-63.5 0 -108.5 45t-45 109t45 109.5t108.5 45.5t108.5 -45t45 -110t-45 -109.5t-108.5 -44.5zM600.5 1442q-63.5 0 -109 45t-45.5 109t45.5 109.5t109 45.5t109.5 -45t46 -110t-46 -109.5t-109.5 -44.5z" />
    <glyph glyph-name="multiply" unicode="&#xd7;" horiz-adv-x="894" 
d="M846 735l-275 -243l189 -244q-70 -90 -164 -142l-186 242l-273 -242q-78 57 -112 142l274 244l-188 243q68 86 163 142l187 -240l270 242q76 -54 115 -144z" />
    <glyph glyph-name="Oslash" unicode="&#xd8;" horiz-adv-x="1413" 
d="M676 252q172 0 266 138t94 366q0 86 -20 147l-432 -637q37 -14 92 -14zM410 565q0 -90 24 -153l438 641q-49 16 -102 16q-172 0 -266 -138.5t-94 -365.5zM639 -37q-123 0 -233 39l-148 -217q-125 12 -170 117l143 211q-156 150 -155 417q0 371 204.5 599.5t526.5 228.5
q135 0 244 -43l139 207q119 -16 168 -113l-137 -203q152 -156 151 -415q0 -373 -204.5 -600.5t-528.5 -227.5z" />
    <glyph glyph-name="Ugrave" unicode="&#xd9;" horiz-adv-x="1320" 
d="M592.5 -37q-246.5 0 -370.5 107.5t-124 308.5q0 61 15 151l137 783q78 12 153.5 12t151.5 -12l-135 -776q-8 -57 -8 -91q0 -94 51 -147t153 -53q231 0 281 284l137 783q76 12 149.5 12t151.5 -12l-139 -785q-47 -274 -202 -419.5t-401.5 -145.5zM1004 1372l-457 184
q35 170 160 242l374 -293q-22 -86 -77 -133z" />
    <glyph glyph-name="Uacute" unicode="&#xda;" horiz-adv-x="1320" 
d="M592.5 -37q-246.5 0 -370.5 107.5t-124 308.5q0 61 15 151l137 783q78 12 153.5 12t151.5 -12l-135 -776q-8 -57 -8 -91q0 -94 51 -147t153 -53q231 0 281 284l137 783q76 12 149.5 12t151.5 -12l-139 -785q-47 -274 -202 -419.5t-401.5 -145.5zM618 1370q-53 51 -69 131
l424 297q117 -88 127 -250z" />
    <glyph glyph-name="Ucircumflex" unicode="&#xdb;" horiz-adv-x="1320" 
d="M592.5 -37q-246.5 0 -370.5 107.5t-124 308.5q0 61 15 151l137 783q78 12 153.5 12t151.5 -12l-135 -776q-8 -57 -8 -91q0 -94 51 -147t153 -53q231 0 281 284l137 783q76 12 149.5 12t151.5 -12l-139 -785q-47 -274 -202 -419.5t-401.5 -145.5zM942 1755l236 -211
q-33 -94 -117 -139l-227 149l-277 -149q-74 45 -88 139l305 211q88 18 168 0z" />
    <glyph glyph-name="Udieresis" unicode="&#xdc;" horiz-adv-x="1320" 
d="M592.5 -37q-246.5 0 -370.5 107.5t-124 308.5q0 61 15 151l137 783q78 12 153.5 12t151.5 -12l-135 -776q-8 -57 -8 -91q0 -94 51 -147t153 -53q231 0 281 284l137 783q76 12 149.5 12t151.5 -12l-139 -785q-47 -274 -202 -419.5t-401.5 -145.5zM1056.5 1442
q-63.5 0 -108.5 45t-45 109t45 109.5t108.5 45.5t108.5 -45t45 -110t-45 -109.5t-108.5 -44.5zM600.5 1442q-63.5 0 -109 45t-45.5 109t45.5 109.5t109 45.5t109.5 -45t46 -110t-46 -109.5t-109.5 -44.5z" />
    <glyph glyph-name="Yacute" unicode="&#xdd;" horiz-adv-x="1210" 
d="M507.5 -12q-75.5 0 -155.5 12l88 500l-317 809q123 20 213 20t145 -8l142 -438l26 -97l62 97l305 438q59 8 141.5 8t188.5 -20l-603 -826l-86 -483q-74 -12 -149.5 -12zM551 1370q-53 51 -70 131l424 297q117 -88 127 -250z" />
    <glyph glyph-name="Thorn" unicode="&#xde;" horiz-adv-x="1116" 
d="M526 457q131 0 191.5 69.5t60.5 167.5q0 160 -184 160q-45 0 -105 -6l-67 -387q34 -4 104 -4zM625 1112q244 0 359.5 -96t115.5 -271q0 -252 -175 -402t-444 -150q-33 0 -106 4l-35 -197q-74 -12 -151 -12t-156 12l231 1313q76 12 152 12t155 -12l-36 -205q61 4 90 4z
" />
    <glyph glyph-name="germandbls" unicode="&#xdf;" horiz-adv-x="1241" 
d="M555 279q95 -80 195 -80t100 76q0 38 -47 77t-103 67t-104 85q-47 57 -47 137t36 139t86 90t100 57q122 63 122 146q0 106 -148 107q-104 0 -174 -62t-88 -168l-170 -950q-75 -12 -151 -12t-156 12l164 926q45 260 201 384t373 124q218 0 340 -92t122 -244
q0 -153 -87 -222t-151 -92q-62 -24 -88 -47t-26 -53q0 -48 151 -136q56 -34 103 -102t47 -153q0 -143 -108 -236q-109 -92 -310 -92q-119 0 -208 37t-128 82q37 137 154 195z" />
    <glyph glyph-name="agrave" unicode="&#xe0;" horiz-adv-x="1120" 
d="M489 225q117 0 183 119l65 377q-53 16 -112 16q-119 0 -199 -91t-80 -243q0 -88 37.5 -133t105.5 -45zM658.5 999q263.5 0 418.5 -96l-162 -915q-106 -18 -210 0l-13 106q-131 -129 -301 -129t-264 104.5t-94 286.5q0 287 181 465t444.5 178zM932 1167q-31 -74 -90 -112
l-404 225q49 156 183 223z" />
    <glyph glyph-name="aacute" unicode="&#xe1;" horiz-adv-x="1120" 
d="M489 225q117 0 183 119l65 377q-53 16 -112 16q-119 0 -199 -91t-80 -243q0 -88 37.5 -133t105.5 -45zM658.5 999q263.5 0 418.5 -96l-162 -915q-106 -18 -210 0l-13 106q-131 -129 -301 -129t-264 104.5t-94 286.5q0 287 181 465t444.5 178zM547 1055q-63 41 -84 114
l350 340q129 -70 172 -229z" />
    <glyph glyph-name="acircumflex" unicode="&#xe2;" horiz-adv-x="1120" 
d="M489 225q117 0 183 119l65 377q-53 16 -112 16q-119 0 -199 -91t-80 -243q0 -88 37.5 -133t105.5 -45zM658.5 999q263.5 0 418.5 -96l-162 -915q-106 -18 -210 0l-13 106q-131 -129 -301 -129t-264 104.5t-94 286.5q0 287 181 465t444.5 178zM451 1069q-84 35 -97 119
l310 289q70 14 141 0l237 -287q-33 -84 -124 -123l-203 178z" />
    <glyph glyph-name="atilde" unicode="&#xe3;" horiz-adv-x="1120" 
d="M489 225q117 0 183 119l65 377q-53 16 -112 16q-119 0 -199 -91t-80 -243q0 -88 37.5 -133t105.5 -45zM33 356q0 287 181 465t444.5 178t418.5 -96l-162 -915q-106 -18 -210 0l-13 106q-131 -129 -301 -129t-264 104.5t-94 286.5zM838 1362q63 0 98 88q129 0 197 -74
q-35 -117 -108 -181.5t-158 -65.5t-158.5 37t-110.5 38q-73 0 -106 -94q-51 0 -110.5 20.5t-84.5 55.5q37 119 109.5 185.5t158.5 67.5t164 -38t109 -39z" />
    <glyph glyph-name="adieresis" unicode="&#xe4;" horiz-adv-x="1120" 
d="M489 225q117 0 183 119l65 377q-53 16 -112 16q-119 0 -199 -91t-80 -243q0 -88 37.5 -133t105.5 -45zM33 356q0 287 181 465q180 178 444 178t419 -96l-162 -915q-106 -18 -210 0l-13 106q-131 -129 -301 -129t-264 104.5t-94 286.5zM937.5 1112q-63.5 0 -108.5 45
t-45 110t44 108.5t108 43.5t110 -45t46 -108.5t-45.5 -108.5t-109 -45zM489.5 1112q-63.5 0 -108.5 45t-45 110t45 108.5t108.5 43.5t107.5 -45t44 -108.5t-44 -108.5t-107.5 -45z" />
    <glyph glyph-name="aring" unicode="&#xe5;" horiz-adv-x="1120" 
d="M489 225q117 0 183 119l65 377q-53 16 -112 16q-119 0 -199 -91t-80 -243q0 -88 37.5 -133t105.5 -45zM658.5 999q263.5 0 418.5 -96l-162 -915q-106 -18 -210 0l-13 106q-131 -129 -301 -129t-264 104.5t-94 286.5q0 287 181 465t444.5 178zM718 1366q-38 0 -60.5 -26.5
t-22.5 -64.5t21.5 -59.5t54.5 -21.5q86 0 86 94q0 35 -20.5 56.5t-58.5 21.5zM706.5 1042q-106.5 0 -170 57.5t-63.5 164t74 179.5t177 73t167.5 -56.5t64.5 -164t-71.5 -180.5t-178 -73z" />
    <glyph glyph-name="ae" unicode="&#xe6;" horiz-adv-x="1689" 
d="M465 225q80 0 148.5 63.5t95.5 192.5q14 113 67 215q-76 41 -155 41q-111 0 -193 -91t-82 -240q0 -181 119 -181zM1202 563q143 0 144 107q0 41 -29 66.5t-94.5 25.5t-118.5 -48t-76 -130q82 -21 174 -21zM373 -35q-158 0 -249 101.5t-91 285.5q0 287 181 467t443 180
q199 0 334 -79q127 80 291 79.5t261 -81t97 -205.5q0 -340 -462 -340q-92 0 -168 16q0 -174 217 -174q80 0 225 84q111 -76 96 -209q-168 -125 -405 -125q-276 0 -387 201q-143 -201 -383 -201z" />
    <glyph glyph-name="ccedilla" unicode="&#xe7;" horiz-adv-x="931" 
d="M641 -211q0 -125 -89 -181.5t-218 -56.5t-182 54q16 90 88 141q37 -27 84 -27q84 0 84 68q0 55 -115 59l67 129q-152 29 -236.5 135.5t-84.5 270.5q0 281 157.5 453t403.5 172q211 0 320 -113q-18 -59 -65.5 -115.5t-102.5 -87.5q-57 57 -165 58q-109 0 -173 -92
q-64 -94 -64 -208q0 -228 180 -227q92 0 170 74q122 -58 138 -195q-131 -121 -318 -133l-20 -43q141 -27 141 -135z" />
    <glyph glyph-name="egrave" unicode="&#xe8;" horiz-adv-x="1044" 
d="M569 772q-152 0 -202 -194q74 -18 172 -23q72 0 111.5 30.5t39.5 80t-32 78t-89 28.5zM519.5 -35q-236.5 0 -357.5 109.5t-121 322.5q0 264 154.5 433t394.5 169q186 0 291.5 -84t105.5 -234.5t-125 -227t-303 -76.5q-111 0 -211 26q0 -111 49 -157.5t166 -46.5t246 98
q109 -61 113 -193q-166 -139 -402.5 -139zM846 1167q-31 -74 -90 -112l-404 225q49 156 183 223z" />
    <glyph glyph-name="eacute" unicode="&#xe9;" horiz-adv-x="1044" 
d="M569 772q-152 0 -202 -194q74 -18 172 -23q72 0 111.5 30.5t39.5 80t-32 78t-89 28.5zM519.5 -35q-236.5 0 -357.5 109.5t-121 322.5q0 264 154.5 433t394.5 169q186 0 291.5 -84t105.5 -234.5t-125 -227t-303 -76.5q-111 0 -211 26q0 -111 49 -157.5t166 -46.5t246 98
q109 -61 113 -193q-166 -139 -402.5 -139zM461 1055q-63 41 -84 114l350 340q129 -70 172 -229z" />
    <glyph glyph-name="ecircumflex" unicode="&#xea;" horiz-adv-x="1044" 
d="M569 772q-152 0 -202 -194q74 -18 172 -23q72 0 111.5 30.5t39.5 80t-32 78t-89 28.5zM519.5 -35q-236.5 0 -357.5 109.5t-121 322.5q0 264 154.5 433t394.5 169q186 0 291.5 -84t105.5 -234.5t-125 -227t-303 -76.5q-111 0 -211 26q0 -111 49 -157.5t166 -46.5t246 98
q109 -61 113 -193q-166 -139 -402.5 -139zM365 1069q-84 35 -97 119l310 289q70 14 141 0l237 -287q-33 -84 -125 -123l-202 178z" />
    <glyph glyph-name="edieresis" unicode="&#xeb;" horiz-adv-x="1044" 
d="M690 665.5q0 49.5 -31.5 78t-89.5 28.5q-151 1 -202 -194q74 -18 172 -23q72 0 111.5 30.5t39.5 80zM987 680.5q0 -150.5 -125 -227t-303 -76.5q-111 0 -211 26q0 -111 49 -157.5t166 -46.5t246 98q109 -61 113 -193q-166 -139 -402.5 -139t-357.5 109.5t-121 322.5
q0 264 154.5 433t394.5 169q186 0 291.5 -84t105.5 -234.5zM851.5 1112q-63.5 0 -108.5 45t-45 110t44 108.5t108.5 43.5t110 -45t45.5 -108.5t-45.5 -108.5t-109 -45zM403.5 1112q-63.5 0 -108.5 45t-45 110t45 108.5t108.5 43.5t107.5 -45t44 -108.5t-44 -108.5
t-107.5 -45z" />
    <glyph glyph-name="igrave" unicode="&#xec;" horiz-adv-x="518" 
d="M160 -12q-78 0 -154 12l172 973q78 12 153 12t152 -12l-172 -973q-73 -12 -151 -12zM512 1055l-403 225q49 156 182 223l311 -336q-31 -73 -90 -112z" />
    <glyph glyph-name="iacute" unicode="&#xed;" horiz-adv-x="518" 
d="M160 -12q-78 0 -154 12l172 973q78 12 153 12t152 -12l-172 -973q-73 -12 -151 -12zM217 1055q-63 41 -84 114l350 340q129 -70 172 -229z" />
    <glyph glyph-name="icircumflex" unicode="&#xee;" horiz-adv-x="518" 
d="M160 -12q-78 0 -154 12l172 973q78 12 153 12t152 -12l-172 -973q-73 -12 -151 -12zM477 1477l215 -291q-31 -76 -125 -117l-182 164l-231 -164q-78 41 -97 115l291 293q63 16 129 0z" />
    <glyph glyph-name="idieresis" unicode="&#xef;" horiz-adv-x="518" 
d="M160 -12q-78 0 -154 12l172 973q78 12 153 12t152 -12l-172 -973q-73 -12 -151 -12zM569.5 1112q-63.5 0 -107.5 45t-44 108.5t44 108.5t108.5 45t108.5 -44t44 -108t-45 -109.5t-108.5 -45.5zM174.5 1112q-63.5 0 -107.5 45t-44 108.5t44 108.5t107.5 45t108.5 -44
t45 -108t-45 -109.5t-108.5 -45.5z" />
    <glyph glyph-name="eth" unicode="&#xf0;" horiz-adv-x="1071" 
d="M696 465q0 192 -169 192q-85 1 -140 -67t-55 -169q0 -202 178 -202q88 0 137 74t49 172zM991 540q0 -274 -137 -424q-136 -150 -362 -151q-226 0 -342 108q-116 107 -117 321q0 214 148 354t362 141q59 0 114 -19q-53 94 -129 156l-125 -102q-33 14 -63 53t-39 76l78 63
q-61 27 -119 41q10 176 105 254q139 -35 247 -102l131 108q82 -47 103 -129l-101 -84q83 -79 140 -190q106 -200 106 -474z" />
    <glyph glyph-name="ntilde" unicode="&#xf1;" horiz-adv-x="1120" 
d="M601.5 1006q234.5 0 335.5 -86t101 -236q0 -51 -8 -94l-104 -590q-80 -12 -156 -12t-149 12l94 541q6 29 6 57q0 131 -141 131q-92 0 -148 -22l-123 -707q-80 -12 -155.5 -12t-149.5 12l158 903q205 103 439.5 103zM782 1362q63 0 99 88q129 0 196 -74
q-35 -117 -107.5 -181.5t-157.5 -65.5t-158.5 37t-110.5 38q-74 0 -107 -94q-51 0 -110.5 20.5t-83.5 55.5q37 119 109.5 185.5t158.5 67.5t164 -38t108 -39z" />
    <glyph glyph-name="ograve" unicode="&#xf2;" horiz-adv-x="1114" 
d="M527 219q93 0 150.5 94.5t57.5 233.5q0 205 -166 205q-104 0 -161.5 -93.5t-58.5 -209t42 -173t136 -57.5zM496 -35q-213 0 -334 116t-121 314q0 276 151.5 444.5t381 168.5t349 -116t119.5 -319q0 -274 -149 -441t-397 -167zM762 1055l-404 225q49 156 183 223l311 -336
q-31 -73 -90 -112z" />
    <glyph glyph-name="oacute" unicode="&#xf3;" horiz-adv-x="1114" 
d="M527 219q93 0 150.5 94.5t57.5 233.5q0 205 -166 205q-104 0 -161.5 -93.5t-58.5 -209t42 -173t136 -57.5zM496 -35q-213 0 -334 116t-121 314q0 276 151.5 444.5t381 168.5t349 -116t119.5 -319q0 -274 -149 -441t-397 -167zM467 1055q-63 41 -84 114l350 340
q129 -70 172 -229z" />
    <glyph glyph-name="ocircumflex" unicode="&#xf4;" horiz-adv-x="1114" 
d="M527 219q93 0 150.5 94.5t57.5 233.5q0 205 -166 205q-104 0 -161.5 -93.5t-58.5 -209t42 -173t136 -57.5zM496 -35q-213 0 -334 116t-121 314q0 276 151.5 444.5t381 168.5t349 -116t119.5 -319q0 -274 -149 -441t-397 -167zM725 1477l238 -287q-33 -84 -125 -123
l-203 178l-264 -176q-84 35 -97 119l310 289q71 14 141 0z" />
    <glyph glyph-name="otilde" unicode="&#xf5;" horiz-adv-x="1114" 
d="M527 219q93 0 150.5 94.5t57.5 233.5q0 205 -166 205q-104 0 -161.5 -93.5t-58.5 -209t42 -173t136 -57.5zM496 -35q-213 0 -334 116t-121 314q0 276 151.5 444.5t381 168.5t349 -116t119.5 -319q0 -274 -149 -441t-397 -167zM758 1362q63 0 98 88q129 0 197 -74
q-35 -117 -108 -181.5t-158 -65.5t-158.5 37t-110.5 38q-73 0 -106 -94q-51 0 -110.5 20.5t-84.5 55.5q37 119 109.5 185.5t159 67.5t164 -38t108.5 -39z" />
    <glyph glyph-name="odieresis" unicode="&#xf6;" horiz-adv-x="1114" 
d="M527 219q93 0 150.5 94.5t57.5 233.5q0 205 -166 205q-104 0 -161.5 -93.5t-58.5 -209t42 -173t136 -57.5zM496 -35q-213 0 -334 116t-121 314q0 276 151.5 444.5t381 168.5t349 -116t119.5 -319q0 -274 -149 -441t-397 -167zM858.5 1112q-63.5 0 -108.5 45t-45 110
t45 108.5t108.5 43.5t108.5 -45t45 -108.5t-45 -108.5t-108.5 -45zM409.5 1112q-63.5 0 -108.5 45t-45 110t44 108.5t108.5 43.5t108.5 -45t44 -108.5t-44 -108.5t-107.5 -45z" />
    <glyph glyph-name="divide" unicode="&#xf7;" horiz-adv-x="970" 
d="M427 4q-69 0 -117 47t-48 116t48 117t117 48t117 -48t48 -117t-48 -116t-117 -47zM47 397v33q0 70 33 152h817v-33q0 -70 -33 -152h-817zM529 649q-69 0 -117 48t-47 117q0 69 48 117q49 48 117 48t116 -48t48 -117t-48 -117t-117 -48z" />
    <glyph glyph-name="oslash" unicode="&#xf8;" horiz-adv-x="1114" 
d="M518 219q102 0 159.5 94.5t57.5 233.5q0 51 -12 90l-270 -406q28 -12 65 -12zM348 430q0 -57 14 -98l275 407q-27 12 -68 13q-104 0 -161.5 -93.5t-59.5 -228.5zM1042 573q0 -274 -149.5 -441t-396.5 -167q-106 0 -199 33l-100 -150q-76 10 -105 84l88 131
q-139 117 -139 332q0 276 151.5 444.5t397.5 168.5q113 0 205 -35l98 145q74 -14 102 -76l-90 -135q137 -113 137 -334z" />
    <glyph glyph-name="ugrave" unicode="&#xf9;" horiz-adv-x="1110" 
d="M928 975q76 0 149 -12l-159 -910q-186 -88 -472 -88q-393 0 -393 316q0 55 13 118l98 564q80 12 156.5 12t150.5 -12l-94 -535q-8 -41 -8 -90q0 -107 145 -107q59 0 133 19l125 713q80 12 156 12zM877 1167q-31 -74 -91 -112l-403 225q49 156 182 223z" />
    <glyph glyph-name="uacute" unicode="&#xfa;" horiz-adv-x="1110" 
d="M928 975q76 0 149 -12l-159 -910q-186 -88 -472 -88q-393 0 -393 316q0 55 13 118l98 564q80 12 156.5 12t150.5 -12l-94 -535q-8 -41 -8 -90q0 -107 145 -107q59 0 133 19l125 713q80 12 156 12zM492 1055q-63 41 -84 114l350 340q129 -70 172 -229z" />
    <glyph glyph-name="ucircumflex" unicode="&#xfb;" horiz-adv-x="1110" 
d="M928 975q76 0 149 -12l-159 -910q-186 -88 -472 -88q-393 0 -393 316q0 55 13 118l98 564q80 12 156.5 12t150.5 -12l-94 -535q-8 -41 -8 -90q0 -107 145 -107q59 0 133 19l125 713q80 12 156 12zM397 1069q-84 35 -96 119l309 289q70 14 142 0l237 -287
q-33 -84 -125 -123l-202 178z" />
    <glyph glyph-name="udieresis" unicode="&#xfc;" horiz-adv-x="1110" 
d="M928 975q76 0 149 -12l-159 -910q-186 -88 -472 -88q-393 0 -393 316q0 55 13 118l98 564q80 12 156.5 12t150.5 -12l-94 -535q-8 -41 -8 -90q0 -107 145 -107q59 0 133 19l125 713q80 12 156 12zM882.5 1112q-63.5 0 -108.5 45t-45 110t45 108.5t108.5 43.5t108.5 -45
t45 -108.5t-45 -108.5t-108.5 -45zM434.5 1112q-63.5 0 -108.5 45t-45 110t44 108.5t108 43.5t108.5 -45t44.5 -108.5t-44 -108.5t-107.5 -45z" />
    <glyph glyph-name="yacute" unicode="&#xfd;" horiz-adv-x="1112" 
d="M923.5 975q92.5 0 151.5 -12l-166 -957q-37 -201 -181 -310.5t-368 -109.5q-154 0 -270.5 46t-173.5 116q43 135 170 195q111 -117 276 -117q207 0 242 201l8 47q-98 -31 -178 -31q-432 0 -358 414l90 506q63 12 154 12t151 -12l-80 -459q-18 -102 8.5 -149.5
t115.5 -47.5t144 37l111 619q61 12 153.5 12zM481 1055q-63 41 -84 114l351 340q129 -70 172 -229z" />
    <glyph glyph-name="thorn" unicode="&#xfe;" horiz-adv-x="1140" 
d="M512.5 231q102.5 0 175 82t72.5 195.5t-54.5 167t-134.5 53.5t-137 -18l-80 -459q56 -21 158.5 -21zM598 999q217 0 345 -109.5t128 -320.5q0 -274 -158.5 -439t-427.5 -165q-104 0 -178 21l-63 -363q-80 -12 -156 -12t-149 12l303 1718q152 25 303 0l-62 -348
q56 6 115 6z" />
    <glyph glyph-name="ydieresis" unicode="&#xff;" horiz-adv-x="1112" 
d="M923.5 975q92.5 0 151.5 -12l-166 -957q-37 -201 -181 -310.5t-368 -109.5q-154 0 -270.5 46t-173.5 116q43 135 170 195q111 -117 276 -117q207 0 242 201l8 47q-98 -31 -178 -31q-432 0 -358 414l90 506q63 12 154 12t151 -12l-80 -459q-18 -102 8.5 -149.5
t115.5 -47.5t144 37l111 619q61 12 153.5 12zM872.5 1112q-63.5 0 -108.5 45t-45 110t44 108.5t108 43.5t109.5 -45t45.5 -108.5t-45 -108.5t-108.5 -45zM423.5 1112q-63.5 0 -108.5 45t-45 110t45 108.5t108.5 43.5t107.5 -45t44 -108.5t-44 -108.5t-107.5 -45z" />
    <glyph glyph-name="Amacron" unicode="&#x100;" horiz-adv-x="1232" 
d="M461 504h284l-49 313l-16 119l-57 -119zM47.5 -8q-88.5 0 -147.5 22l696 1301q63 12 155.5 12t153.5 -12l232 -1301q-176 -38 -312 -14l-41 260h-450l-135 -260q-63 -8 -151.5 -8zM1087 1481h-622q-20 98 37 207h620q10 -113 -35 -207z" />
    <glyph glyph-name="amacron" unicode="&#x101;" horiz-adv-x="1120" 
d="M489 225q117 0 183 119l65 377q-53 16 -112 16q-119 0 -199 -91t-80 -243q0 -88 37.5 -133t105.5 -45zM658.5 999q263.5 0 418.5 -96l-162 -915q-106 -18 -210 0l-13 106q-131 -129 -301 -129t-264 104.5t-94 286.5q0 287 181 465t444.5 178zM383 1206q0 86 43 172h618
v-45q1 -92 -40 -184h-617q-4 14 -4 57z" />
    <glyph glyph-name="Abreve" unicode="&#x102;" horiz-adv-x="1232" 
d="M461 504h284l-49 313l-16 119l-57 -119zM752 1327q92 0 153 -12l232 -1301q-176 -38 -312 -14l-41 260h-450l-135 -260q-63 -8 -151.5 -8t-147.5 22l696 1301q64 12 156 12zM752 1399q-166 0 -252 100t-60 236q76 33 183 22q6 -76 51 -111.5t105 -35.5t116.5 36.5
t81.5 110.5q102 12 168 -22q-23 -137 -125 -236.5t-268 -99.5z" />
    <glyph glyph-name="abreve" unicode="&#x103;" horiz-adv-x="1120" 
d="M489 225q117 0 183 119l65 377q-53 16 -112 16q-119 0 -199 -91t-80 -243q0 -88 37.5 -133t105.5 -45zM658.5 999q263.5 0 418.5 -96l-162 -915q-106 -18 -210 0l-13 106q-131 -129 -301 -129t-264 104.5t-94 286.5q0 287 181 465t444.5 178zM675 1081q-169 0 -249 102.5
t-64 237.5q80 35 183 25q6 -76 51 -115t111.5 -39t118 40t71.5 114q111 14 178 -25q-14 -131 -122.5 -235.5t-277.5 -104.5z" />
    <glyph glyph-name="Aogonek" unicode="&#x104;" horiz-adv-x="1232" 
d="M461 504h284l-49 313l-16 119l-57 -119zM879 -162q0 -57 70 -57q34 0 89 39q82 -41 82 -148q-113 -104 -270 -104q-96 0 -150.5 46t-54.5 128t53.5 148.5t126.5 109.5l-41 260h-450l-135 -260q-63 -8 -151.5 -8t-147.5 22l696 1301q63 12 155.5 12t153.5 -12l232 -1301
q-258 -74 -258 -176z" />
    <glyph glyph-name="aogonek" unicode="&#x105;" horiz-adv-x="1120" 
d="M489 225q117 0 183 119l65 377q-53 16 -112 16q-119 0 -199 -91t-80 -243q0 -88 37.5 -133t105.5 -45zM760 -432q-92 0 -148.5 46t-56.5 122q0 121 150 252l-13 106q-131 -129 -301 -129t-264 104.5t-94 286.5q0 287 181 465t444.5 178t418.5 -96l-162 -915
q-127 -70 -127 -138.5t66 -68.5q39 0 90 35q76 -51 80 -148q-109 -100 -264 -100z" />
    <glyph glyph-name="Cacute" unicode="&#x106;" horiz-adv-x="1163" 
d="M636 -33q-265 0 -414.5 153.5t-149.5 405.5q0 369 218 602.5t548 233.5q250 0 385 -127q-25 -70 -81.5 -137.5t-125.5 -102.5q-88 76 -219 76q-166 0 -277.5 -138t-111.5 -364q0 -145 75.5 -230t208.5 -85q84 0 136.5 21.5t111.5 64.5q127 -76 131 -242
q-170 -131 -435 -131zM627 1370q-53 51 -70 131l424 297q117 -88 127 -250z" />
    <glyph glyph-name="cacute" unicode="&#x107;" horiz-adv-x="931" 
d="M482 -35q-208 0 -325.5 110.5t-117.5 305.5q0 281 157.5 453t403.5 172q211 0 320 -113q-18 -59 -65.5 -115.5t-102.5 -87.5q-57 57 -165 58q-109 0 -173 -92q-64 -94 -64 -208q0 -228 180 -227q92 0 170 74q121 -57 138 -195q-148 -135 -356 -135zM455 1055
q-63 41 -84 114l350 340q129 -70 172 -229z" />
    <glyph glyph-name="Cdotaccent" unicode="&#x10a;" horiz-adv-x="1163" 
d="M636 -33q-265 0 -414.5 153.5t-149.5 405.5q0 369 218 602.5t548 233.5q250 0 385 -127q-25 -70 -81.5 -137.5t-125.5 -102.5q-88 76 -219 76q-166 0 -277.5 -138t-111.5 -364q0 -145 75.5 -230t208.5 -85q84 0 136.5 21.5t111.5 64.5q127 -76 131 -242
q-170 -131 -435 -131zM847 1415q-75 0 -127 52.5t-52 127t52 127t127 52.5t128 -52.5t53 -127.5t-53 -127t-128 -52z" />
    <glyph glyph-name="cdotaccent" unicode="&#x10b;" horiz-adv-x="931" 
d="M482 -35q-208 0 -325.5 110.5t-117.5 305.5q0 281 157.5 453t403.5 172q211 0 320 -113q-18 -59 -65.5 -115.5t-102.5 -87.5q-57 57 -165 58q-109 0 -173 -92q-64 -94 -64 -208q0 -228 180 -227q92 0 170 74q121 -57 138 -195q-148 -135 -356 -135zM618.5 1096
q-75.5 0 -129 53t-53.5 129t53.5 130t129 54t129 -54t53.5 -130t-53.5 -129t-129 -53z" />
    <glyph glyph-name="Ccaron" unicode="&#x10c;" horiz-adv-x="1163" 
d="M636 -33q-265 0 -414.5 153.5t-149.5 405.5q0 369 218 602.5t548 233.5q250 0 385 -127q-25 -70 -81.5 -137.5t-125.5 -102.5q-88 76 -219 76q-166 0 -277.5 -138t-111.5 -364q0 -145 75.5 -230t208.5 -85q84 0 136.5 21.5t111.5 64.5q127 -76 131 -242
q-170 -131 -435 -131zM721 1425l-236 209q29 96 115 142l229 -152l275 154q78 -51 88 -142l-303 -211q-88 -20 -168 0z" />
    <glyph glyph-name="ccaron" unicode="&#x10d;" horiz-adv-x="931" 
d="M482 -35q-208 0 -325.5 110.5t-117.5 305.5q0 281 157.5 453t403.5 172q211 0 320 -113q-18 -59 -65.5 -115.5t-102.5 -87.5q-57 57 -165 58q-109 0 -173 -92q-64 -94 -64 -208q0 -228 180 -227q92 0 170 74q121 -57 138 -195q-148 -135 -356 -135zM510 1077l-236 279
q35 86 125 125l203 -172l262 170q82 -35 94 -119l-307 -283q-69 -12 -141 0z" />
    <glyph glyph-name="Dcaron" unicode="&#x10e;" horiz-adv-x="1333" 
d="M512 260q221 0 329.5 136t108.5 315.5t-81 261.5t-236 82q-70 0 -109 -2l-139 -789q82 -4 127 -4zM653 1341q311 0 474 -147t163 -414q0 -369 -223 -587t-621 -218q-233 0 -413 27l231 1307q168 32 389 32zM795 1425q-88 -20 -168 0l-236 209q29 96 115 142l229 -152
l275 154q78 -51 88 -142z" />
    <glyph glyph-name="dcaron" unicode="&#x10f;" horiz-adv-x="1136" 
d="M346 459.5q0 -117.5 56.5 -176t154.5 -58.5q49 0 102 13l86 485q-49 16 -110 16q-125 0 -207 -81t-82 -198.5zM517.5 -35q-234.5 0 -358.5 111.5t-124 318.5q0 270 181 437t439 167q78 0 136 -12l63 354q166 25 305 0l-227 -1288q-180 -88 -414.5 -88zM1425 1470
q74 0 115 -26v-33q0 -125 -63.5 -235.5t-149.5 -180.5q-80 4 -100 62q74 143 73 293q0 61 -8 92q59 28 133 28z" />
    <glyph glyph-name="Dcroat" unicode="&#x110;" horiz-adv-x="1333" 
d="M512 260q221 0 329.5 136t108.5 315.5t-81 261.5t-236 82q-70 0 -109 -2l-55 -312h166q8 -98 -25 -184h-174l-51 -293q82 -4 127 -4zM653 1341q311 0 474 -147t163 -414q0 -369 -223 -587t-621 -218q-233 0 -413 27l98 555h-147q-16 88 24 184h156l100 568q168 32 389 32
z" />
    <glyph glyph-name="dcroat" unicode="&#x111;" horiz-adv-x="1126" 
d="M346 459.5q0 -117.5 56.5 -176t154.5 -58.5q49 0 102 13l86 485q-49 16 -110 16q-125 0 -207 -81t-82 -198.5zM517.5 -35q-234.5 0 -358.5 111.5t-124 318.5q0 270 181 437t439 167q78 0 136 -12l18 98h-176q-16 84 24 172h183l14 84q166 25 305 0l-14 -84h139
q8 -92 -24 -172h-146l-182 -1032q-180 -88 -414.5 -88z" />
    <glyph glyph-name="Emacron" unicode="&#x112;" horiz-adv-x="1071" 
d="M1049 1042h-529l-41 -241h469q8 -156 -45 -258h-469l-47 -271h545q10 -162 -49 -272h-850l231 1315h834q17 -148 -49 -273zM1028 1481h-622q-20 98 36 207h621q10 -113 -35 -207z" />
    <glyph glyph-name="emacron" unicode="&#x113;" horiz-adv-x="1044" 
d="M569 772q-152 0 -202 -194q74 -18 172 -23q72 0 111.5 30.5t39.5 80t-32 78t-89 28.5zM519.5 -35q-236.5 0 -357.5 109.5t-121 322.5q0 264 154.5 433t394.5 169q186 0 291.5 -84t105.5 -234.5t-125 -227t-303 -76.5q-111 0 -211 26q0 -111 49 -157.5t166 -46.5t246 98
q109 -61 113 -193q-166 -139 -402.5 -139zM297 1206q0 86 43 172h618v-45q1 -92 -40 -184h-617q-4 14 -4 57z" />
    <glyph glyph-name="Edotaccent" unicode="&#x116;" horiz-adv-x="1071" 
d="M1049 1042h-529l-41 -241h469q8 -156 -45 -258h-469l-47 -271h545q10 -162 -49 -272h-850l231 1315h834q17 -148 -49 -273zM734 1415q-75 0 -127 52.5t-52 127t52 127t127 52.5t128 -52.5t53 -127.5t-53 -127t-128 -52z" />
    <glyph glyph-name="edotaccent" unicode="&#x117;" horiz-adv-x="1044" 
d="M569 772q-152 0 -202 -194q74 -18 172 -23q72 0 111.5 30.5t39.5 80t-32 78t-89 28.5zM519.5 -35q-236.5 0 -357.5 109.5t-121 322.5q0 264 154.5 433t394.5 169q186 0 291.5 -84t105.5 -234.5t-125 -227t-303 -76.5q-111 0 -211 26q0 -111 49 -157.5t166 -46.5t246 98
q109 -61 113 -193q-166 -139 -402.5 -139zM624.5 1096q-75.5 0 -129 53t-53.5 129t53.5 130t129 54t129 -54t53.5 -130t-53.5 -129t-129 -53z" />
    <glyph glyph-name="Eogonek" unicode="&#x118;" horiz-adv-x="1071" 
d="M713 -160q0 -59 63 -59q43 0 94 39q37 -20 60.5 -62.5t15.5 -91.5q-102 -98 -254 -98q-94 0 -152.5 46t-58.5 123t59.5 149.5t149.5 113.5h-657l231 1315h834q17 -148 -49 -273h-529l-41 -241h469q8 -156 -45 -258h-469l-47 -271h545q10 -162 -49 -272
q-170 -74 -170 -160z" />
    <glyph glyph-name="eogonek" unicode="&#x119;" horiz-adv-x="1044" 
d="M569 772q-152 0 -202 -194q74 -18 172 -23q72 0 111.5 30.5t39.5 80t-32 78t-89 28.5zM653 -154q0 -66 68 -65q33 0 80 35q78 -43 90 -148q-96 -100 -250 -100q-96 0 -158.5 47t-62.5 125q0 119 115 225h-33q-219 0 -340 109.5t-121 322.5q0 264 154.5 433t394.5 169
q186 0 291.5 -84t105.5 -234.5t-125 -227t-303 -76.5q-111 0 -211 26q0 -111 49 -157.5t166 -46.5t246 98q109 -61 113 -193q-44 -36 -105 -67q-164 -109 -164 -191z" />
    <glyph glyph-name="Ecaron" unicode="&#x11a;" horiz-adv-x="1071" 
d="M1049 1042h-529l-41 -241h469q8 -156 -45 -258h-469l-47 -271h545q10 -162 -49 -272h-850l231 1315h834q17 -148 -49 -273zM774 1425q-88 -20 -168 0l-235 209q29 96 114 142l230 -152l274 154q78 -51 88 -142z" />
    <glyph glyph-name="ecaron" unicode="&#x11b;" horiz-adv-x="1044" 
d="M569 772q-152 0 -202 -194q74 -18 172 -23q72 0 111.5 30.5t39.5 80t-32 78t-89 28.5zM519.5 -35q-236.5 0 -357.5 109.5t-121 322.5q0 264 154.5 433t394.5 169q186 0 291.5 -84t105.5 -234.5t-125 -227t-303 -76.5q-111 0 -211 26q0 -111 49 -157.5t166 -46.5t246 98
q109 -61 113 -193q-166 -139 -402.5 -139zM657 1077q-72 -12 -141 0l-235 279q35 86 125 125l202 -172l262 170q82 -35 95 -119z" />
    <glyph glyph-name="Gbreve" unicode="&#x11e;" horiz-adv-x="1271" 
d="M676 489q0 147 51 281h496l-125 -698q-201 -106 -463.5 -106.5t-412.5 147t-150 405.5q0 375 225 609.5t588 234.5q236 0 370 -113q-55 -178 -194 -256q-92 76 -238 76q-188 0 -301.5 -141.5t-113.5 -368.5q0 -143 72.5 -225t207.5 -82q74 0 146 14l38 223h-196z
M819 1399q-166 0 -252 100t-59 236q76 33 182 22q6 -76 51 -111.5t105.5 -35.5t117 36.5t80.5 110.5q102 12 168 -22q-23 -137 -125 -236.5t-268 -99.5z" />
    <glyph glyph-name="gbreve" unicode="&#x11f;" horiz-adv-x="1116" 
d="M530.5 262q77.5 0 126.5 21l78 444q-55 23 -117 23q-106 0 -185 -79t-79 -212q0 -94 49.5 -145.5t127 -51.5zM659 1006q256 0 414 -103l-147 -844q-41 -236 -194.5 -354.5t-373.5 -118.5q-309 0 -438 183q20 61 73.5 114.5t125.5 75.5q90 -131 258 -131q201 0 231 176
l6 33q-76 -20 -153 -21q-184 0 -302 106.5t-118 291.5q0 276 181 434t437 158zM650 1081q-169 0 -248.5 102.5t-63.5 237.5q80 35 182 25q6 -76 51 -115t112 -39t118 40t71 114q111 14 179 -25q-14 -131 -123 -235.5t-278 -104.5z" />
    <glyph glyph-name="Gdotaccent" unicode="&#x120;" horiz-adv-x="1271" 
d="M676 489q0 147 51 281h496l-125 -698q-201 -106 -463.5 -106.5t-412.5 147t-150 405.5q0 375 225 609.5t588 234.5q236 0 370 -113q-55 -178 -194 -256q-92 76 -238 76q-188 0 -301.5 -141.5t-113.5 -368.5q0 -143 72.5 -225t207.5 -82q74 0 146 14l38 223h-196z
M859 1415q-75 0 -127 52.5t-52 127t52 127t127 52.5t128 -52.5t53 -127.5t-53 -127t-128 -52z" />
    <glyph glyph-name="gdotaccent" unicode="&#x121;" horiz-adv-x="1116" 
d="M530.5 262q77.5 0 126.5 21l78 444q-55 23 -117 23q-106 0 -185 -79t-79 -212q0 -94 49.5 -145.5t127 -51.5zM659 1006q256 0 414 -103l-147 -844q-41 -236 -194.5 -354.5t-373.5 -118.5q-309 0 -438 183q20 61 73.5 114.5t125.5 75.5q90 -131 258 -131q201 0 231 176
l6 33q-76 -20 -153 -21q-184 0 -302 106.5t-118 291.5q0 276 181 434t437 158zM686 1096q-76 0 -129 53t-53 129t53 130t129 54t129 -54t53 -130t-53 -129t-129 -53z" />
    <glyph glyph-name="Gcommaaccent" unicode="&#x122;" horiz-adv-x="1271" 
d="M524 -172q0 31 -4 72q61 25 129 24.5t111 -22.5q0 -31 -6 -52q-12 -109 -66.5 -202.5t-134.5 -151.5q-82 4 -111 74q82 135 82 258zM676 489q0 147 51 281h496l-125 -698q-201 -106 -463.5 -106.5t-412.5 147t-150 405.5q0 375 225 609.5t588 234.5q236 0 370 -113
q-55 -178 -194 -256q-92 76 -238 76q-188 0 -301.5 -141.5t-113.5 -368.5q0 -143 72.5 -225t207.5 -82q74 0 146 14l38 223h-196z" />
    <glyph glyph-name="gcommaaccent" unicode="&#x123;" horiz-adv-x="1116" 
d="M530.5 262q77.5 0 126.5 21l78 444q-55 23 -117 23q-106 0 -185 -79t-79 -212q0 -94 49.5 -145.5t127 -51.5zM659 1006q256 0 414 -103l-147 -844q-41 -236 -194.5 -354.5t-373.5 -118.5q-309 0 -438 183q20 61 73.5 114.5t125.5 75.5q90 -131 258 -131q201 0 231 176
l6 33q-76 -20 -153 -21q-184 0 -302 106.5t-118 291.5q0 276 181 434t437 158zM633 1040q-68 0 -111 23q0 31 6 51q12 109 66.5 203t134.5 151q82 -4 111 -73q-82 -135 -82 -258q0 -31 4 -72q-61 -25 -129 -25z" />
    <glyph glyph-name="Hbar" unicode="&#x126;" horiz-adv-x="1345" 
d="M946 795l21 106h-469l-21 -106h469zM1460 1023.5q0 -53.5 -35 -122.5h-151l-160 -901q-74 -12 -150.5 -12t-156.5 12l90 514h-469l-90 -514q-76 -12 -151 -12t-154 12l160 901h-140q-6 18 -6 68.5t41 120.5h137l39 223q74 12 150 12t155 -12l-39 -223h469l39 223
q76 12 152 12t156 -12l-39 -223h151q2 -13 2 -66.5z" />
    <glyph glyph-name="hbar" unicode="&#x127;" horiz-adv-x="1120" 
d="M664 1006q211 0 306 -107.5t64 -277.5l-108 -621q-80 -12 -155 -12t-153 12l97 541q35 188 -129 188q-88 0 -150 -35l-2 2l-123 -696q-74 -12 -151.5 -12t-153.5 12l191 1085h-119q-16 84 24 172h125l15 84q174 27 305 0l-15 -84h197q8 -92 -24 -172h-203l-21 -110
q97 31 183 31z" />
    <glyph glyph-name="Itilde" unicode="&#x128;" horiz-adv-x="569" 
d="M188 -12q-76 0 -155 12l231 1313q59 12 150.5 12t154.5 -12l-231 -1313q-74 -12 -150 -12zM317.5 1739q73.5 0 150.5 -38t101 -38q68 0 103 90q125 0 192 -72q-39 -115 -117.5 -183t-153.5 -68t-148.5 36.5t-94.5 36.5q-71 0 -106 -88q-51 0 -108.5 18.5t-82.5 53.5
q37 117 114 184.5t150.5 67.5z" />
    <glyph glyph-name="itilde" unicode="&#x129;" horiz-adv-x="518" 
d="M160 -12q-78 0 -154 12l172 973q78 12 153 12t152 -12l-172 -973q-73 -12 -151 -12zM248.5 1444q66.5 0 130 -36t92.5 -36q66 0 92 82q121 0 193 -72q-31 -115 -103.5 -181t-137 -66t-127 33.5t-95.5 33.5q-65 0 -100 -86q-51 0 -109.5 18.5t-81.5 51.5
q33 119 106.5 188.5t140 69.5z" />
    <glyph glyph-name="Imacron" unicode="&#x12a;" horiz-adv-x="569" 
d="M188 -12q-76 0 -155 12l231 1313q59 12 150.5 12t154.5 -12l-231 -1313q-74 -12 -150 -12zM168 1481q-18 92 31 207h540q10 -109 -30 -207h-541z" />
    <glyph glyph-name="imacron" unicode="&#x12b;" horiz-adv-x="518" 
d="M160 -12q-78 0 -154 12l172 973q78 12 153 12t152 -12l-172 -973q-73 -12 -151 -12zM109 1226.5q0 63.5 34 151.5h494q2 -10 2 -71.5t-35 -157.5h-493q-2 14 -2 77.5z" />
    <glyph glyph-name="Iogonek" unicode="&#x12e;" horiz-adv-x="569" 
d="M98 -432q-96 0 -156.5 49t-60.5 131q0 139 152 252l231 1313q59 12 150.5 12t154.5 -12l-231 -1313q-135 -27 -179 -68t-44 -80q0 -71 61 -71q39 0 98 37q82 -45 88 -152q-111 -98 -264 -98z" />
    <glyph glyph-name="iogonek" unicode="&#x12f;" horiz-adv-x="518" 
d="M90 -158q0 -61 66 -61q35 0 94 37q82 -45 88 -152q-111 -98 -264 -98q-96 0 -155.5 49t-59.5 133q0 135 147 250l172 973q78 12 153 12t152 -12l-172 -973q-221 -47 -221 -158zM381 1462q76 0 129 -54t53 -130t-53 -129t-129 -53t-129 53t-53 130t53 130t129 53z" />
    <glyph glyph-name="Idotaccent" unicode="&#x130;" horiz-adv-x="569" 
d="M188 -12q-76 0 -155 12l231 1313q59 12 150.5 12t154.5 -12l-231 -1313q-74 -12 -150 -12zM460 1415q-75 0 -127 52.5t-52 127t52 127t127 52.5t128 -52.5t53 -127.5t-53 -127t-128 -52z" />
    <glyph glyph-name="dotlessi" unicode="&#x131;" horiz-adv-x="518" 
d="M160 -12q-78 0 -154 12l172 973q78 12 153 12t152 -12l-172 -973q-73 -12 -151 -12z" />
    <glyph glyph-name="IJ" unicode="&#x132;" horiz-adv-x="1173" 
d="M532 -55q-96 -1 -170 31t-110 77q18 78 70 145t116 101q47 -68 131 -68q117 0 142 140l168 942q75 12 151 12t154 -12l-164 -936q-37 -199 -163 -315t-325 -117zM241 365q-75 0 -155 12l164 936q61 12 152 12t155 -12l-164 -936q-77 -12 -152 -12z" />
    <glyph glyph-name="ij" unicode="&#x133;" horiz-adv-x="1058" 
d="M449 -408q-173 0 -261 78q2 61 39 123t86 92q43 -39 101 -39q104 0 129 140l172 985q61 12 152 12t155 -12l-172 -973q-35 -207 -131.5 -306.5t-269.5 -99.5zM160 -12q-78 0 -154 12l172 973q78 12 153 12t152 -12l-172 -973q-73 -12 -151 -12zM915.5 1096
q-75.5 0 -129 53t-53.5 129t53.5 130t129 54t129 -53t53.5 -130t-53.5 -130t-129 -53zM381 1096q-76 0 -129 53t-53 129t53 130t129 54t129 -54t53 -130t-53 -129t-129 -53z" />
    <glyph glyph-name="Kcommaaccent" unicode="&#x136;" horiz-adv-x="1249" 
d="M414 -172q0 31 -4 72q61 25 129 24.5t110 -22.5q0 -31 -6 -52q-12 -109 -66.5 -202.5t-134.5 -151.5q-82 4 -110 74q82 135 82 258zM188 -12q-76 0 -155 12l231 1313q74 12 150 12t155 -12l-90 -514q156 113 269.5 229.5t246.5 290.5q70 6 168.5 6t184.5 -12
q-268 -367 -613 -643q135 -262 484 -654q-94 -23 -210 -22.5t-173 6.5q-205 225 -342 492q-66 -43 -78 -52l-78 -440q-74 -12 -150 -12z" />
    <glyph glyph-name="kcommaaccent" unicode="&#x137;" horiz-adv-x="1130" 
d="M317 -100q61 25 129 24.5t111 -22.5q0 -31 -6 -52q-12 -109 -66.5 -202.5t-134.5 -151.5q-82 4 -110 74q82 135 82 258q-1 31 -5 72zM1073 717q0 -242 -242 -365l170 -340q-94 -25 -199.5 -24.5t-154.5 6.5l-141 305q-27 57 -17 117q266 37 267 196q0 121 -181 121
q-66 0 -139 -18l-127 -715q-74 -12 -150.5 -12t-152.5 12l236 1341q159 25 305 0l-64 -358q98 20 193 21q188 0 292.5 -75t104.5 -212z" />
    <glyph glyph-name="kgreenlandic" unicode="&#x138;" horiz-adv-x="1079" 
d="M159.5 -12q-77.5 0 -153.5 12l170 963q74 12 150 12t155 -12l-61 -349q215 145 354 351q49 6 157.5 5.5t192.5 -14.5q-209 -281 -448 -469l321 -477q-70 -25 -194.5 -24.5t-173.5 6.5l-215 325l-52 -26l-51 -291q-74 -12 -151.5 -12z" />
    <glyph glyph-name="Lacute" unicode="&#x139;" horiz-adv-x="966" 
d="M419.5 1329q63.5 0 149.5 -14l-182 -1041h494q4 -164 -50 -274h-798l231 1315q92 14 155.5 14zM279 1370q-53 51 -70 131l424 297q117 -88 127 -250z" />
    <glyph glyph-name="lacute" unicode="&#x13a;" horiz-adv-x="628" 
d="M308 -29q-266 0 -267 207q0 63 12 121l185 1042q66 12 158.5 12.5t146.5 -12.5l-181 -1015q-4 -20 -4 -31q0 -45 48 -45q27 0 51 22q92 -78 88 -225q-97 -76 -237 -76zM215 1370q-53 51 -70 131l424 297q117 -88 127 -250z" />
    <glyph glyph-name="Lcommaaccent" unicode="&#x13b;" horiz-adv-x="966" 
d="M338 -172q0 31 -4 72q61 25 129 24.5t110 -22.5q0 -31 -6 -52q-12 -109 -66.5 -202.5t-133.5 -151.5q-82 4 -111 74q82 135 82 258zM419.5 1329q63.5 0 149.5 -14l-182 -1041h494q4 -164 -50 -274h-798l231 1315q92 14 155.5 14z" />
    <glyph glyph-name="lcommaaccent" unicode="&#x13c;" horiz-adv-x="628" 
d="M135 -172q0 31 -4 72q61 25 129 24.5t111 -22.5q0 -31 -6 -52q-12 -109 -66.5 -203t-134.5 -151q-82 4 -111 74q82 135 82 258zM308 -29q-266 0 -267 207q0 63 12 121l185 1042q66 12 158.5 12.5t146.5 -12.5l-181 -1015q-4 -20 -4 -31q0 -45 48 -45q27 0 51 22
q92 -78 88 -225q-97 -76 -237 -76z" />
    <glyph glyph-name="Lcaron" unicode="&#x13d;" horiz-adv-x="966" 
d="M419.5 1329q63.5 0 149.5 -14l-182 -1041h494q4 -164 -50 -274h-798l231 1315q92 14 155.5 14zM891 1470q74 0 115 -26v-33q0 -125 -63.5 -235.5t-149.5 -180.5q-80 4 -101 62q74 143 74 293q0 61 -8 92q59 28 133 28z" />
    <glyph glyph-name="lcaron" unicode="&#x13e;" horiz-adv-x="628" 
d="M308 -29q-266 0 -267 207q0 63 12 121l185 1042q66 12 158.5 12.5t146.5 -12.5l-181 -1015q-4 -20 -4 -31q0 -45 48 -45q27 0 51 22q92 -78 88 -225q-97 -76 -237 -76zM672 1350q0 61 -8 92q59 29 133 28.5t114 -26.5v-33q0 -125 -63.5 -235.5t-149.5 -180.5
q-80 4 -100 62q74 143 74 293z" />
    <glyph glyph-name="Ldot" unicode="&#x13f;" horiz-adv-x="978" 
d="M782.5 864q67.5 0 114.5 -47t47 -114t-47 -114.5t-114.5 -47.5t-114.5 48t-47 114.5t47 113.5t114.5 47zM419.5 1329q63.5 0 149.5 -14l-182 -1041h494q4 -164 -50 -274h-798l231 1315q92 14 155.5 14z" />
    <glyph glyph-name="ldot" unicode="&#x140;" horiz-adv-x="716" 
d="M620.5 535q-67.5 0 -114.5 47t-47 114.5t47 114.5t114.5 47t114.5 -47t47 -114.5t-47 -114.5t-114.5 -47zM308 -29q-266 0 -267 207q0 63 12 121l185 1042q66 12 158.5 12.5t146.5 -12.5l-181 -1015q-4 -20 -4 -31q0 -45 48 -45q27 0 51 22q92 -78 88 -225
q-97 -76 -237 -76z" />
    <glyph glyph-name="Lslash" unicode="&#x141;" horiz-adv-x="966" 
d="M419.5 1329q63.5 0 149.5 -14l-75 -436l110 55q80 -68 74 -164l-223 -113l-68 -383h494q4 -164 -50 -274h-798l86 492l-88 -46q-41 25 -63.5 72t-14.5 90l205 103l106 604q92 14 155.5 14z" />
    <glyph glyph-name="lslash" unicode="&#x142;" horiz-adv-x="628" 
d="M358 295q0 -45 48 -45q27 0 51 22q92 -78 88 -225q-97 -76 -237 -76q-266 0 -267 207q0 63 12 121l45 258l-96 -47q-37 25 -57.5 68t-14.5 84l205 100l103 579q66 12 158.5 12.5t146.5 -12.5l-74 -413l88 43q74 -66 68 -158l-193 -94l-70 -393q-4 -20 -4 -31z" />
    <glyph glyph-name="Nacute" unicode="&#x143;" horiz-adv-x="1357" 
d="M1208 1325q70 0 150 -12l-232 -1307q-145 -27 -297 -16l-329 758l-27 71l-10 -98l-127 -721q-80 -12 -148.5 -12t-154.5 12l229 1303q123 39 297 20l328 -776l24 -70l13 105l129 731q85 12 155 12zM639 1370q-53 51 -70 131l424 297q117 -88 127 -250z" />
    <glyph glyph-name="nacute" unicode="&#x144;" horiz-adv-x="1120" 
d="M601.5 1006q234.5 0 335.5 -86t101 -236q0 -51 -8 -94l-104 -590q-80 -12 -156 -12t-149 12l94 541q6 29 6 57q0 131 -141 131q-92 0 -148 -22l-123 -707q-80 -12 -155.5 -12t-149.5 12l158 903q205 103 439.5 103zM492 1055q-63 41 -84 114l350 340q129 -70 172 -229z
" />
    <glyph glyph-name="Ncommaaccent" unicode="&#x145;" horiz-adv-x="1357" 
d="M459 -172q0 31 -4 72q61 25 129 24.5t110 -22.5q0 -31 -6 -52q-12 -109 -66.5 -202.5t-134.5 -151.5q-82 4 -110 74q82 135 82 258zM1208 1325q70 0 150 -12l-232 -1307q-145 -27 -297 -16l-329 758l-27 71l-10 -98l-127 -721q-80 -12 -148.5 -12t-154.5 12l229 1303
q123 39 297 20l328 -776l24 -70l13 105l129 731q85 12 155 12z" />
    <glyph glyph-name="ncommaaccent" unicode="&#x146;" horiz-adv-x="1120" 
d="M336 -172q0 31 -4 72q61 25 129 24.5t110 -22.5q0 -31 -6 -52q-12 -109 -66.5 -202.5t-133.5 -151.5q-82 4 -111 74q82 135 82 258zM601.5 1006q234.5 0 335.5 -86t101 -236q0 -51 -8 -94l-104 -590q-80 -12 -156 -12t-149 12l94 541q6 29 6 57q0 131 -141 131
q-92 0 -148 -22l-123 -707q-80 -12 -155.5 -12t-149.5 12l158 903q205 103 439.5 103z" />
    <glyph glyph-name="Ncaron" unicode="&#x147;" horiz-adv-x="1357" 
d="M1208 1325q70 0 150 -12l-232 -1307q-145 -27 -297 -16l-329 758l-27 71l-10 -98l-127 -721q-80 -12 -148.5 -12t-154.5 12l229 1303q123 39 297 20l328 -776l24 -70l13 105l129 731q85 12 155 12zM901 1425q-88 -20 -168 0l-235 209q29 96 114 142l230 -152l274 154
q78 -51 88 -142z" />
    <glyph glyph-name="ncaron" unicode="&#x148;" horiz-adv-x="1120" 
d="M601.5 1006q234.5 0 335.5 -86t101 -236q0 -51 -8 -94l-104 -590q-80 -12 -156 -12t-149 12l94 541q6 29 6 57q0 131 -141 131q-92 0 -148 -22l-123 -707q-80 -12 -155.5 -12t-149.5 12l158 903q205 103 439.5 103zM690 1077q-72 -12 -141 0l-236 279q35 86 125 125
l203 -172l262 170q82 -35 94 -119z" />
    <glyph glyph-name="napostrophe" unicode="&#x149;" horiz-adv-x="1253" 
d="M734.5 1006q234.5 0 335.5 -86t101 -236q0 -29 -8 -94l-104 -590q-80 -12 -158 -12t-147 12l94 541q4 18 4 57q0 131 -139 131q-94 0 -150 -22l-123 -707q-76 -12 -153.5 -12t-151.5 12l160 903q205 103 439.5 103zM449 1343q0 -133 -77 -256.5t-177 -197.5
q-33 2 -63 19.5t-38 45.5q111 158 111 328q0 70 -12 111q66 29 141 28.5t110 -16.5q5 -25 5 -62z" />
    <glyph glyph-name="Eng" unicode="&#x14a;" horiz-adv-x="1357" 
d="M635 -446q-100 0 -177 30.5t-110 75.5q14 78 66.5 145.5t120.5 98.5q49 -68 127 -68q123 0 149 144l6 36l-317 732l-27 71l-10 -98l-127 -721q-80 -12 -148.5 -12t-154.5 12l229 1303q123 39 297 20l328 -776l24 -70l13 105l129 731q86 12 155.5 12t149.5 -12l-232 -1307
l-8 -2l-4 -20q-35 -197 -162 -313.5t-317 -116.5z" />
    <glyph glyph-name="eng" unicode="&#x14b;" horiz-adv-x="1120" 
d="M601.5 1006q234.5 0 335.5 -86t101 -236q0 -51 -8 -94l-110 -631q-33 -188 -161 -292.5t-295 -104.5t-253 92q12 59 56 116.5t104 90.5q39 -47 104 -47q115 0 141 168l99 559q6 29 6 59q0 129 -141 129q-92 0 -148 -22l-123 -707q-80 -12 -155.5 -12t-149.5 12l158 903
q205 103 439.5 103z" />
    <glyph glyph-name="Omacron" unicode="&#x14c;" horiz-adv-x="1413" 
d="M676 252q172 0 266 138t94 366q0 150 -67.5 231.5t-198.5 81.5q-172 0 -266 -138t-94 -366q0 -147 68.5 -230t197.5 -83zM639 -37q-258 0 -410.5 151.5t-152.5 415.5q0 371 204.5 599.5t526.5 228.5q258 0 411.5 -151.5t153.5 -415.5q0 -373 -204.5 -600.5t-528.5 -227.5
zM510 1481q-20 98 37 207h620q10 -113 -34 -207h-623z" />
    <glyph glyph-name="omacron" unicode="&#x14d;" horiz-adv-x="1114" 
d="M527 219q93 0 150.5 94.5t57.5 233.5q0 205 -166 205q-104 0 -161.5 -93.5t-58.5 -209t42 -173t136 -57.5zM496 -35q-213 0 -334 116t-121 314q0 276 151.5 444.5t381 168.5t349 -116t119.5 -319q0 -274 -149 -441t-397 -167zM303 1206q0 86 43 172h619v-45
q0 -92 -41 -184h-617q-4 14 -4 57z" />
    <glyph glyph-name="Ohungarumlaut" unicode="&#x150;" horiz-adv-x="1413" 
d="M676 252q172 0 266 138t94 366q0 150 -67.5 231.5t-198.5 81.5q-172 0 -266 -138t-94 -366q0 -147 68.5 -230t197.5 -83zM639 -37q-258 0 -410.5 151.5t-152.5 415.5q0 371 204.5 599.5t526.5 228.5q258 0 411.5 -151.5t153.5 -415.5q0 -373 -204.5 -600.5t-528.5 -227.5
zM922 1368q-68 20 -101 84l250 346q131 -12 166 -143zM535 1370q-70 20 -99 86l252 342q131 -12 164 -145z" />
    <glyph glyph-name="ohungarumlaut" unicode="&#x151;" horiz-adv-x="1114" 
d="M527 219q93 0 150.5 94.5t57.5 233.5q0 205 -166 205q-104 0 -161.5 -93.5t-58.5 -209t42 -173t136 -57.5zM496 -35q-213 0 -334 116t-121 314q0 276 151.5 444.5t381 168.5t349 -116t119.5 -319q0 -274 -149 -441t-397 -167zM696 1057q-68 27 -100 100l256 346
q127 -33 166 -166zM350 1055q-70 29 -104 96l248 354q129 -29 172 -159z" />
    <glyph glyph-name="OE" unicode="&#x152;" horiz-adv-x="1718" 
d="M408 573q0 -139 70.5 -221t197.5 -82q51 0 106 11l136 757q-41 8 -103 9q-184 0 -295.5 -129.5t-111.5 -344.5zM1599 758q0 -125 -49 -223h-415l-48 -261h494v-47q0 -111 -36 -197q-9 -22 -11 -30h-725q-100 -18 -197 -18q-246 0 -393 149.5t-147 403.5q0 354 227 578
t567 224q94 1 203 -22h678v-47q-1 -100 -23 -160q-4 -12 -14 -36.5t-12 -31.5h-473l-43 -235h415z" />
    <glyph glyph-name="oe" unicode="&#x153;" horiz-adv-x="1712" 
d="M555 750q-88 0 -144.5 -81t-60.5 -203q-8 -246 164 -245q92 0 146.5 81t58.5 202.5t-36 183.5t-128 62zM1233 762q-139 0 -189 -180q80 -18 158 -19q147 0 148 111q0 35 -31 61.5t-86 26.5zM1203.5 -35q-244.5 0 -365.5 146q-133 -143 -345 -143.5t-332 119.5t-120 331
q0 262 153.5 425t383 163t337.5 -160q143 154 361 153q178 0 272 -80.5t94 -235.5t-131 -232.5t-348 -77.5q-63 0 -137 14q8 -180 193 -180q135 0 266 96q119 -72 102 -203q-139 -135 -383.5 -135z" />
    <glyph glyph-name="Racute" unicode="&#x154;" horiz-adv-x="1206" 
d="M620.5 711q108.5 0 167 59t58.5 158q0 152 -187 151q-43 0 -133 -4l-63 -362q49 -2 157.5 -2zM688 1337q477 0 477 -353q0 -173 -95 -299t-257 -183q143 -276 311 -488q-90 -25 -198.5 -24.5t-130.5 2.5q-174 242 -273 467q-70 0 -104 2l-82 -461q-59 -12 -151.5 -12
t-153.5 12l227 1294q209 43 430 43zM524 1370q-53 51 -69 131l424 297q117 -88 127 -250z" />
    <glyph glyph-name="racute" unicode="&#x155;" horiz-adv-x="735" 
d="M556 731q-69 0 -124 -31l-123 -700q-80 -12 -155.5 -12t-149.5 12l158 903q164 104 385 105q164 0 241 -39q-16 -150 -110 -254q-53 16 -122 16zM373 1055q-63 41 -84 114l350 340q129 -70 172 -229z" />
    <glyph glyph-name="Rcommaaccent" unicode="&#x156;" horiz-adv-x="1206" 
d="M414 -172q0 31 -4 72q61 25 129 24.5t110 -22.5q0 -31 -6 -52q-12 -109 -66.5 -202.5t-134.5 -151.5q-82 4 -110 74q82 135 82 258zM620.5 711q108.5 0 167 59t58.5 158q0 152 -187 151q-43 0 -133 -4l-63 -362q49 -2 157.5 -2zM688 1337q477 0 477 -353q0 -173 -95 -299
t-257 -183q143 -276 311 -488q-90 -25 -198.5 -24.5t-130.5 2.5q-174 242 -273 467q-70 0 -104 2l-82 -461q-59 -12 -151.5 -12t-153.5 12l227 1294q209 43 430 43z" />
    <glyph glyph-name="rcommaaccent" unicode="&#x157;" horiz-adv-x="735" 
d="M33 -172q0 31 -4 72q61 25 129 24.5t110 -22.5q0 -31 -6 -52q-12 -109 -66.5 -202.5t-134.5 -151.5q-82 4 -110 74q82 135 82 258zM547 1008q164 0 241 -39q-16 -150 -110 -254q-53 16 -122 16t-124 -31l-123 -700q-80 -12 -155.5 -12t-149.5 12l158 903q164 105 385 105
z" />
    <glyph glyph-name="Rcaron" unicode="&#x158;" horiz-adv-x="1206" 
d="M620.5 711q108.5 0 167 59t58.5 158q0 152 -187 151q-43 0 -133 -4l-63 -362q49 -2 157.5 -2zM688 1337q477 0 477 -353q0 -173 -95 -299t-257 -183q143 -276 311 -488q-90 -25 -198.5 -24.5t-130.5 2.5q-174 242 -273 467q-70 0 -104 2l-82 -461q-59 -12 -151.5 -12
t-153.5 12l227 1294q209 43 430 43zM786 1425q-88 -20 -168 0l-235 209q29 96 115 142l229 -152l274 154q78 -51 89 -142z" />
    <glyph glyph-name="rcaron" unicode="&#x159;" horiz-adv-x="735" 
d="M556 731q-69 0 -124 -31l-123 -700q-80 -12 -155.5 -12t-149.5 12l158 903q164 104 385 105q164 0 241 -39q-16 -150 -110 -254q-53 16 -122 16zM571 1077q-72 -12 -141 0l-235 279q35 86 124 125l203 -172l262 170q82 -35 95 -119z" />
    <glyph glyph-name="Sacute" unicode="&#x15a;" horiz-adv-x="1103" 
d="M463 -33q-330 0 -490 156q20 78 68.5 143.5t112.5 100.5q57 -51 150 -85t198 -34q199 0 198 131q0 53 -56 87t-137 59.5t-161 61.5t-136 115.5t-56 200.5q0 199 148.5 323t391.5 124q158 0 268.5 -40t167.5 -96q-18 -74 -64 -141t-112 -102q-125 94 -310.5 94
t-184.5 -113q0 -72 147 -115q148 -43 260 -113q60 -38 101 -113.5t41 -180.5q0 -211 -148.5 -337t-396.5 -126zM543 1370q-53 51 -70 131l424 297q117 -88 127 -250z" />
    <glyph glyph-name="sacute" unicode="&#x15b;" horiz-adv-x="954" 
d="M360 -35q-141 0 -244.5 38t-152.5 87q43 141 150 203q133 -98 278 -98t146 81q0 37 -45.5 60.5t-110 41t-129 44.5t-109.5 87t-45 150q2 156 134.5 248t324.5 92q256 0 381 -94q-41 -141 -139 -211q-109 74 -269 74q-121 0 -120 -72q0 -31 45 -51t109.5 -38.5t129 -45
t109.5 -87t45 -148.5q0 -164 -125 -262.5t-363 -98.5zM457 1055q-63 41 -84 114l350 340q129 -70 172 -229z" />
    <glyph glyph-name="Scedilla" unicode="&#x15e;" horiz-adv-x="1103" 
d="M643.5 1065q-185.5 0 -184.5 -113q0 -72 147 -114q148 -42 260 -114q60 -38 101 -113.5t41 -180.5q0 -195 -127 -317.5t-346 -143.5l-23 -45q141 -27 141 -135q0 -125 -89 -181.5t-218 -56.5t-182 54q16 90 88 141q37 -27 84 -27q84 0 84 68q0 55 -115 59l66 125
q-262 20 -398 152q20 78 68.5 143.5t112.5 100.5q57 -51 150 -85t198 -34q199 0 198 131q0 53 -56 87t-137 59.5t-161 61.5t-136 115.5t-56 200.5q0 199 148.5 323t391.5 124q158 0 268.5 -40t167.5 -96q-18 -74 -64 -141t-112 -102q-125 94 -310.5 94z" />
    <glyph glyph-name="scedilla" unicode="&#x15f;" horiz-adv-x="954" 
d="M410 696q0 -31 45 -51t109.5 -38.5t129 -45t109.5 -87t45 -148.5q0 -147 -101.5 -242.5t-297.5 -114.5l-23 -45q141 -27 141 -135q0 -125 -89 -181.5t-218 -56.5t-182 54q16 90 88 141q37 -27 84 -27q84 0 84 68q0 55 -115 59l64 123q-217 18 -320 121q43 141 150 203
q133 -98 278 -98t146 81q0 37 -45.5 60.5t-110 41t-129 44.5t-109.5 87t-45 150q2 156 134.5 248t324.5 92q256 0 381 -94q-41 -141 -139 -211q-109 74 -269 74q-120 0 -120 -72z" />
    <glyph glyph-name="Scaron" unicode="&#x160;" horiz-adv-x="1103" 
d="M463 -33q-330 0 -490 156q20 78 68.5 143.5t112.5 100.5q57 -51 150 -85t198 -34q199 0 198 131q0 53 -56 87t-137 59.5t-161 61.5t-136 115.5t-56 200.5q0 199 148.5 323t391.5 124q158 0 268.5 -40t167.5 -96q-18 -74 -64 -141t-112 -102q-125 94 -310.5 94
t-184.5 -113q0 -72 147 -115q148 -43 260 -113q60 -38 101 -113.5t41 -180.5q0 -211 -148.5 -337t-396.5 -126zM637 1425l-236 209q29 96 115 142l229 -152l275 154q78 -51 88 -142l-303 -211q-88 -20 -168 0z" />
    <glyph glyph-name="scaron" unicode="&#x161;" horiz-adv-x="954" 
d="M360 -35q-141 0 -244.5 38t-152.5 87q43 141 150 203q133 -98 278 -98t146 81q0 37 -45.5 60.5t-110 41t-129 44.5t-109.5 87t-45 150q2 156 134.5 248t324.5 92q256 0 381 -94q-41 -141 -139 -211q-109 74 -269 74q-121 0 -120 -72q0 -31 45 -51t109.5 -38.5t129 -45
t109.5 -87t45 -148.5q0 -164 -125 -262.5t-363 -98.5zM512 1077l-236 279q35 86 125 125l203 -172l262 170q82 -35 95 -119l-308 -283q-71 -12 -141 0z" />
    <glyph glyph-name="uni0162" unicode="&#x162;" horiz-adv-x="1085" 
d="M637 -211q0 -125 -89 -181.5t-218 -56.5t-183 54q16 90 89 141q37 -27 83 -27q84 0 84 68q0 55 -114 59l73 144q-23 2 -71 10l184 1042h-352q0 160 49 273h1006q4 -156 -48 -273h-350l-184 -1042q-45 -8 -68 -10l-32 -66q141 -27 141 -135z" />
    <glyph glyph-name="uni0163" unicode="&#x163;" horiz-adv-x="876" 
d="M870 956v-43q0 -86 -45 -206h-299l-57 -330q-8 -41 -8 -60q0 -88 98 -88q61 0 123 50q47 -29 78 -87.5t31 -117.5q-115 -86 -269 -101l-24 -49q141 -27 141 -135q0 -125 -89 -181.5t-218 -56.5t-182 54q16 90 88 141q37 -27 84 -27q84 0 84 68q0 55 -115 59l69 131
q-213 41 -213 259q0 49 9 92l67 379h-168q0 125 43 249h168l45 256q170 25 305 0l-45 -256h299z" />
    <glyph glyph-name="Tcaron" unicode="&#x164;" horiz-adv-x="1085" 
d="M441 -14q-81 0 -150 14l184 1042h-352q0 160 49 273h1006q4 -156 -48 -273h-350l-184 -1042q-74 -14 -155 -14zM762 1425q-88 -20 -168 0l-236 209q29 96 115 142l229 -152l275 154q78 -51 88 -142z" />
    <glyph glyph-name="tcaron" unicode="&#x165;" horiz-adv-x="876" 
d="M870 956v-43q0 -86 -45 -206h-299l-57 -330q-8 -41 -8 -60q0 -88 98 -88q61 0 123 50q47 -29 78 -87.5t31 -117.5q-137 -104 -334 -105q-141 0 -225.5 63.5t-84.5 203.5q0 49 9 92l67 379h-168q0 125 43 249h168l45 256q82 12 157.5 12t147.5 -12l-45 -256h299zM944 1470
q74 0 115 -26v-33q0 -125 -63.5 -235.5t-149.5 -180.5q-80 4 -101 62q74 143 74 293q0 61 -8 92q59 28 133 28z" />
    <glyph glyph-name="Tbar" unicode="&#x166;" horiz-adv-x="1085" 
d="M441 -14q-81 0 -150 14l90 508h-160q-16 88 25 184h168l61 350h-352q0 160 49 273h1006q3 -156 -48 -273h-350l-63 -350h155q8 -98 -24 -184h-162l-90 -508q-74 -14 -155 -14z" />
    <glyph glyph-name="tbar" unicode="&#x167;" horiz-adv-x="876" 
d="M870 956v-43q0 -86 -45 -206h-299l-20 -123h188q8 -92 -24 -172h-195l-6 -35q-8 -41 -8 -60q0 -88 98 -88q61 0 123 50q47 -29 78 -87.5t31 -117.5q-137 -104 -334 -105q-141 0 -225.5 63.5t-84.5 203.5q0 49 9 92l14 84h-127q-16 84 25 172h133l22 123h-168
q0 125 43 249h168l45 256q170 25 305 0l-45 -256h299z" />
    <glyph glyph-name="Utilde" unicode="&#x168;" horiz-adv-x="1320" 
d="M592.5 -37q-246.5 0 -370.5 107.5t-124 308.5q0 61 15 151l137 783q78 12 153.5 12t151.5 -12l-135 -776q-8 -57 -8 -91q0 -94 51 -147t153 -53q231 0 281 284l137 783q76 12 149.5 12t151.5 -12l-139 -785q-47 -274 -202 -419.5t-401.5 -145.5zM688.5 1739
q88.5 0 174 -38t112.5 -38q76 0 100 90q131 0 199 -61q-29 -127 -111 -194.5t-190 -67.5q-66 0 -151 36.5t-122 36.5q-79 0 -104 -88q-133 0 -193 72q27 117 112 184.5t173.5 67.5z" />
    <glyph glyph-name="utilde" unicode="&#x169;" horiz-adv-x="1110" 
d="M928 975q76 0 149 -12l-159 -910q-186 -88 -472 -88q-393 0 -393 316q0 55 13 118l98 564q80 12 156.5 12t150.5 -12l-94 -535q-8 -41 -8 -90q0 -107 145 -107q59 0 133 19l125 713q80 12 156 12zM782 1362q63 0 99 88q129 0 196 -74q-35 -117 -107.5 -181.5
t-157.5 -65.5t-158.5 37t-110.5 38q-74 0 -107 -94q-51 0 -110.5 20.5t-83.5 55.5q37 119 109.5 185.5t158.5 67.5t164 -38t108 -39z" />
    <glyph glyph-name="Umacron" unicode="&#x16a;" horiz-adv-x="1320" 
d="M592.5 -37q-246.5 0 -370.5 107.5t-124 308.5q0 61 15 151l137 783q78 12 153.5 12t151.5 -12l-135 -776q-8 -57 -8 -91q0 -94 51 -147t153 -53q231 0 281 284l137 783q76 12 149.5 12t151.5 -12l-139 -785q-47 -274 -202 -419.5t-401.5 -145.5zM512 1481q-20 98 37 207
h620q10 -113 -34 -207h-623z" />
    <glyph glyph-name="umacron" unicode="&#x16b;" horiz-adv-x="1110" 
d="M928 975q76 0 149 -12l-159 -910q-186 -88 -472 -88q-393 0 -393 316q0 55 13 118l98 564q80 12 156.5 12t150.5 -12l-94 -535q-8 -41 -8 -90q0 -107 145 -107q59 0 133 19l125 713q80 12 156 12zM328 1206q0 86 43 172h618v-45q0 -92 -41 -184h-616q-4 14 -4 57z" />
    <glyph glyph-name="Uring" unicode="&#x16e;" horiz-adv-x="1320" 
d="M592.5 -37q-246.5 0 -370.5 107.5t-124 308.5q0 61 15 151l137 783q78 12 153.5 12t151.5 -12l-135 -776q-8 -57 -8 -91q0 -94 51 -147t153 -53q231 0 281 284l137 783q76 12 149.5 12t151.5 -12l-139 -785q-47 -274 -202 -419.5t-401.5 -145.5zM756 1591q0 -82 80 -82
q39 0 60.5 27t21.5 66t-20.5 61.5t-58.5 22.5t-60.5 -28t-22.5 -67zM828.5 1362q-107.5 0 -171 55.5t-63.5 162t73.5 179t176 72.5t168 -54.5t65.5 -162t-70.5 -180t-178 -72.5z" />
    <glyph glyph-name="uring" unicode="&#x16f;" horiz-adv-x="1110" 
d="M928 975q76 0 149 -12l-159 -910q-186 -88 -472 -88q-393 0 -393 316q0 55 13 118l98 564q80 12 156.5 12t150.5 -12l-94 -535q-8 -41 -8 -90q0 -107 145 -107q59 0 133 19l125 713q80 12 156 12zM663 1366q-38 0 -60.5 -26.5t-22.5 -64.5t21.5 -59.5t53.5 -21.5
q86 0 86 94q0 35 -20 56.5t-58 21.5zM651.5 1042q-106.5 0 -170 57.5t-63.5 164t73.5 179.5t177 73t168 -56.5t64.5 -164t-71.5 -180.5t-178 -73z" />
    <glyph glyph-name="Uhungarumlaut" unicode="&#x170;" horiz-adv-x="1320" 
d="M592.5 -37q-246.5 0 -370.5 107.5t-124 308.5q0 61 15 151l137 783q78 12 153.5 12t151.5 -12l-135 -776q-8 -57 -8 -91q0 -94 51 -147t153 -53q231 0 281 284l137 783q76 12 149.5 12t151.5 -12l-139 -785q-47 -274 -202 -419.5t-401.5 -145.5zM922 1368q-68 20 -101 84
l250 346q131 -12 166 -143zM535 1370q-70 20 -99 86l252 342q131 -12 164 -145z" />
    <glyph glyph-name="uhungarumlaut" unicode="&#x171;" horiz-adv-x="1110" 
d="M928 975q76 0 149 -12l-159 -910q-186 -88 -472 -88q-393 0 -393 316q0 55 13 118l98 564q80 12 156.5 12t150.5 -12l-94 -535q-8 -41 -8 -90q0 -107 145 -107q59 0 133 19l125 713q80 12 156 12zM721 1057q-68 27 -100 100l256 346q127 -33 165 -166zM375 1055
q-70 29 -105 96l248 354q129 -29 172 -159z" />
    <glyph glyph-name="Uogonek" unicode="&#x172;" horiz-adv-x="1320" 
d="M1183.5 1325q73.5 0 151.5 -12l-139 -785q-59 -352 -295 -487q-170 -111 -170 -195q0 -66 68 -65q33 0 80 35q78 -43 90 -148q-96 -100 -250 -100q-96 0 -158.5 47t-62.5 125q0 115 112 223h-35q-229 0 -353 107.5t-124 308.5q0 61 15 151l137 783q78 12 153.5 12
t151.5 -12l-135 -776q-8 -57 -8 -91q0 -94 51 -147t153 -53q231 0 281 284l137 783q76 12 149.5 12z" />
    <glyph glyph-name="uogonek" unicode="&#x173;" horiz-adv-x="1110" 
d="M713 -432q-96 0 -158.5 47t-62.5 125q0 121 122 235q-86 -10 -168 -10q-393 0 -393 316q0 55 13 118l98 564q80 12 156.5 12t150.5 -12l-94 -535q-8 -41 -8 -90q0 -107 145 -107q59 0 133 19l125 713q80 12 156 12t149 -12l-159 -910l-5 -2l-4 -2q-184 -113 -184 -203
q0 -66 68 -65q32 0 79 35q78 -43 91 -148q-96 -100 -250 -100z" />
    <glyph glyph-name="Wcircumflex" unicode="&#x174;" horiz-adv-x="1892" 
d="M1755 1327q174 0 232 -22q-131 -401 -267.5 -719t-318.5 -582q-74 -14 -163 -14t-169 14q-61 289 -72 688q0 12 -1 44t-1 50l-20 -75q-102 -354 -344 -707q-90 -14 -163 -14t-177 14q-141 553 -137 1301q188 39 338 18q-29 -541 34 -1053q289 561 383 1010q74 14 158 14
t154 -14q14 -618 67 -1008q246 479 387 1051q45 4 80 4zM836 1405q-74 45 -88 139l305 211q88 18 168 0l235 -211q-33 -94 -117 -139l-227 149z" />
    <glyph glyph-name="wcircumflex" unicode="&#x175;" horiz-adv-x="1619" 
d="M1597 842q0 -219 -121.5 -442.5t-318.5 -399.5q-84 -14 -162 -14t-137 14q-61 152 -98 297q-90 -145 -236 -297q-74 -14 -148.5 -14t-131.5 14q-152 422 -158 954q90 23 188 23t146 -6q-10 -365 35 -668q0 -12 8 -80q6 14 26 45q188 283 197 557q-4 82 -4 129
q90 23 188 23t146 -6q-12 -403 28 -668q6 -68 7 -78q8 16 28 45q78 106 139.5 267t61.5 313q0 76 -18 121q49 6 141 6t178 -14q16 -33 16 -121zM645 1069q-84 35 -96 119l309 289q72 14 141 0l238 -287q-33 -84 -125 -123l-203 178z" />
    <glyph glyph-name="Ycircumflex" unicode="&#x176;" horiz-adv-x="1210" 
d="M507.5 -12q-75.5 0 -155.5 12l88 500l-317 809q123 20 213 20t145 -8l142 -438l26 -97l62 97l305 438q59 8 141.5 8t188.5 -20l-603 -826l-86 -483q-74 -12 -149.5 -12zM489 1405q-74 45 -88 139l306 211q88 18 167 0l236 -211q-33 -94 -117 -139l-227 149z" />
    <glyph glyph-name="ycircumflex" unicode="&#x177;" horiz-adv-x="1112" 
d="M923.5 975q92.5 0 151.5 -12l-166 -957q-37 -201 -181 -310.5t-368 -109.5q-154 0 -270.5 46t-173.5 116q43 135 170 195q111 -117 276 -117q207 0 242 201l8 47q-98 -31 -178 -31q-432 0 -358 414l90 506q63 12 154 12t151 -12l-80 -459q-18 -102 8.5 -149.5
t115.5 -47.5t144 37l111 619q61 12 153.5 12zM385 1069q-84 35 -96 119l309 289q70 14 141 0l238 -287q-33 -84 -125 -123l-203 178z" />
    <glyph glyph-name="Ydieresis" unicode="&#x178;" horiz-adv-x="1210" 
d="M507.5 -12q-75.5 0 -155.5 12l88 500l-317 809q123 20 213 20t145 -8l142 -438l26 -97l62 97l305 438q59 8 141.5 8t188.5 -20l-603 -826l-86 -483q-74 -12 -149.5 -12zM989.5 1442q-63.5 0 -108.5 45t-45 109t45 109.5t108.5 45.5t108.5 -45t45 -110t-45 -109.5
t-108.5 -44.5zM533.5 1442q-64.5 0 -109.5 45t-45 109t45 109.5t108.5 45.5t109.5 -45t46 -110t-45 -109.5t-109.5 -44.5z" />
    <glyph glyph-name="Zacute" unicode="&#x179;" horiz-adv-x="1150" 
d="M-29 43q0 98 99 215l612 729l51 57l-579 -2q-8 127 49 273h991q4 -16 4 -39q0 -102 -98 -219l-600 -715l-70 -70h610q2 -137 -47 -272h-1018q-4 10 -4 43zM508 1370q-53 51 -70 131l424 297q117 -88 127 -250z" />
    <glyph glyph-name="zacute" unicode="&#x17a;" horiz-adv-x="960" 
d="M581.5 213q96.5 0 204.5 53q88 -88 84 -229q-156 -68 -322.5 -68t-316.5 72l-53 -61q-201 0 -201 114q0 53 66 123l406 445l67 61h-418q-18 125 43 246h770q2 -8 2 -37q0 -127 -84 -217l-419 -473q75 -29 171.5 -29zM408 1055q-63 41 -84 114l350 340q129 -70 172 -229z
" />
    <glyph glyph-name="Zdotaccent" unicode="&#x17b;" horiz-adv-x="1150" 
d="M-29 43q0 98 99 215l612 729l51 57l-579 -2q-8 127 49 273h991q4 -16 4 -39q0 -102 -98 -219l-600 -715l-70 -70h610q2 -137 -47 -272h-1018q-4 10 -4 43zM730 1415q-75 0 -127 52.5t-52 127t52 127t127 52.5t128 -52.5t53 -127.5t-53 -127t-128 -52z" />
    <glyph glyph-name="zdotaccent" unicode="&#x17c;" horiz-adv-x="960" 
d="M581.5 213q96.5 0 204.5 53q88 -88 84 -229q-156 -68 -322.5 -68t-316.5 72l-53 -61q-201 0 -201 114q0 53 66 123l406 445l67 61h-418q-18 125 43 246h770q2 -8 2 -37q0 -127 -84 -217l-419 -473q75 -29 171.5 -29zM573.5 1096q-75.5 0 -129 53t-53.5 129t53.5 130
t129 54t129 -54t53.5 -130t-53.5 -129t-129 -53z" />
    <glyph glyph-name="Zcaron" unicode="&#x17d;" horiz-adv-x="1150" 
d="M-29 43q0 98 99 215l612 729l51 57l-579 -2q-8 127 49 273h991q4 -16 4 -39q0 -102 -98 -219l-600 -715l-70 -70h610q2 -137 -47 -272h-1018q-4 10 -4 43zM770 1425q-88 -20 -168 0l-235 209q29 96 114 142l230 -152l274 154q78 -51 88 -142z" />
    <glyph glyph-name="zcaron" unicode="&#x17e;" horiz-adv-x="960" 
d="M913 932q0 -127 -84 -217l-419 -473q76 -29 172 -29t204 53q88 -88 84 -229q-156 -68 -322 -68t-317 72l-53 -61q-201 0 -201 114q0 53 66 123l406 445l67 61h-418q-18 125 43 246h770q2 -8 2 -37zM606 1077q-70 -12 -141 0l-236 279q35 86 125 125l203 -172l262 170
q82 -35 94 -119z" />
    <glyph glyph-name="uni01EA" unicode="&#x1ea;" horiz-adv-x="1413" 
d="M410 565q0 -147 68.5 -230t197.5 -83q172 0 266 138t94 366q0 150 -67.5 231.5t-198.5 81.5q-172 0 -266 -138.5t-94 -365.5zM782 -150q0 -70 68 -69q33 0 80 35q78 -43 90 -148q-96 -100 -250 -100q-96 0 -158.5 47t-62.5 125q0 113 110 223h-20q-258 0 -410.5 151.5
t-152.5 415.5q0 371 204.5 599.5t526.5 228.5q258 0 411.5 -151.5t153.5 -427t-125 -480.5t-338 -287q-127 -92 -127 -162z" />
    <glyph glyph-name="uni01EB" unicode="&#x1eb;" horiz-adv-x="1114" 
d="M527 219q93 0 150.5 94.5t57.5 233.5q0 205 -166 205q-104 0 -161.5 -93.5t-58.5 -209t42 -173t136 -57.5zM580 -153.5q0 -65.5 67 -65.5q33 0 80 35q78 -43 90 -148q-96 -100 -250 -100q-96 0 -158.5 47t-62.5 125q0 119 115 225q-199 10 -309.5 125t-110.5 305
q0 276 151.5 444.5t381 168.5t349 -116t119.5 -326t-95 -362.5t-263 -207.5q-104 -84 -104 -149.5z" />
    <glyph glyph-name="AEacute" unicode="&#x1fc;" horiz-adv-x="1755" 
d="M682 680h211l51 285l27 120l-82 -120zM34.5 -8q-87.5 0 -155.5 22l938 1303l965 -2q2 -90 -6 -142.5t-41 -130.5h-473l-56 -309h416q6 -72 -3 -120t-36 -115h-418l-41 -226h494q8 -154 -49 -272h-797l80 446h-340l-324 -446q-66 -8 -153.5 -8zM995 1370q-53 51 -69 131
l424 297q117 -88 127 -250z" />
    <glyph glyph-name="aeacute" unicode="&#x1fd;" horiz-adv-x="1689" 
d="M465 225q80 0 148.5 63.5t95.5 192.5q14 113 67 215q-76 41 -155 41q-111 0 -193 -91t-82 -240q0 -181 119 -181zM1202 563q143 0 144 107q0 41 -29 66.5t-94.5 25.5t-118.5 -48t-76 -130q82 -21 174 -21zM373 -35q-158 0 -249 101.5t-91 285.5q0 287 181 467t443 180
q199 0 334 -79q127 80 291 79.5t261 -81t97 -205.5q0 -340 -462 -340q-92 0 -168 16q0 -174 217 -174q80 0 225 84q111 -76 96 -209q-168 -125 -405 -125q-276 0 -387 201q-143 -201 -383 -201zM813 1055q-63 41 -84 114l350 340q129 -70 172 -229z" />
    <glyph glyph-name="Oslashacute" unicode="&#x1fe;" horiz-adv-x="1413" 
d="M676 252q172 0 266 138t94 366q0 86 -20 147l-432 -637q37 -14 92 -14zM410 565q0 -90 24 -153l438 641q-49 16 -102 16q-172 0 -266 -138.5t-94 -365.5zM639 -37q-123 0 -233 39l-148 -217q-125 12 -170 117l143 211q-156 150 -155 417q0 371 204.5 599.5t526.5 228.5
q135 0 244 -43l139 207q119 -16 168 -113l-137 -203q152 -156 151 -415q0 -373 -204.5 -600.5t-528.5 -227.5zM584 1370q-53 51 -70 131l424 297q117 -88 127 -250z" />
    <glyph glyph-name="oslashacute" unicode="&#x1ff;" horiz-adv-x="1114" 
d="M518 219q102 0 159.5 94.5t57.5 233.5q0 51 -12 90l-270 -406q28 -12 65 -12zM348 430q0 -57 14 -98l275 407q-27 12 -68 13q-104 0 -161.5 -93.5t-59.5 -228.5zM1042 573q0 -274 -149.5 -441t-396.5 -167q-106 0 -199 33l-100 -150q-76 10 -105 84l88 131
q-139 117 -139 332q0 276 151.5 444.5t397.5 168.5q113 0 205 -35l98 145q74 -14 102 -76l-90 -135q137 -113 137 -334zM426 1055q-63 41 -84 114l350 340q129 -70 172 -229z" />
    <glyph glyph-name="Scommaaccent" unicode="&#x218;" horiz-adv-x="1103" 
d="M332 -172q0 31 -4 72q61 25 129 24.5t110 -22.5q0 -31 -6 -52q-12 -109 -66.5 -203t-134.5 -151q-82 4 -110 74q82 135 82 258zM463 -33q-330 0 -490 156q20 78 68.5 143.5t112.5 100.5q57 -51 150 -85t198 -34q199 0 198 131q0 53 -56 87t-137 59.5t-161 61.5
t-136 115.5t-56 200.5q0 199 148.5 323t391.5 124q158 0 268.5 -40t167.5 -96q-18 -74 -64 -141t-112 -102q-125 94 -310.5 94t-184.5 -113q0 -72 147 -115q148 -43 260 -113q60 -38 101 -113.5t41 -180.5q0 -211 -148.5 -337t-396.5 -126z" />
    <glyph glyph-name="scommaaccent" unicode="&#x219;" horiz-adv-x="954" 
d="M246 -172q0 31 -4 72q61 25 129 24.5t110 -22.5q0 -31 -6 -52q-12 -109 -66.5 -203t-134.5 -151q-82 4 -110 74q82 135 82 258zM360 -35q-141 0 -244.5 38t-152.5 87q43 141 150 203q133 -98 278 -98t146 81q0 37 -45.5 60.5t-110 41t-129 44.5t-109.5 87t-45 150
q2 156 134.5 248t324.5 92q256 0 381 -94q-41 -141 -139 -211q-109 74 -269 74q-121 0 -120 -72q0 -31 45 -51t109.5 -38.5t129 -45t109.5 -87t45 -148.5q0 -164 -125 -262.5t-363 -98.5z" />
    <glyph glyph-name="uni021A" unicode="&#x21a;" horiz-adv-x="1085" 
d="M315 -172q0 31 -4 72q61 25 129 24.5t111 -22.5q0 -31 -6 -52q-12 -109 -66.5 -202.5t-134.5 -151.5q-82 4 -111 74q82 135 82 258zM441 -14q-81 0 -150 14l184 1042h-352q0 160 49 273h1006q4 -156 -48 -273h-350l-184 -1042q-74 -14 -155 -14z" />
    <glyph glyph-name="uni021B" unicode="&#x21b;" horiz-adv-x="876" 
d="M313 -100q61 25 129 24.5t111 -22.5q0 -31 -6 -52q-12 -109 -66.5 -202.5t-134.5 -151.5q-82 4 -110 74q82 135 81 258q0 31 -4 72zM870 956v-43q0 -86 -45 -206h-299l-57 -330q-8 -41 -8 -60q0 -88 98 -88q61 0 123 50q47 -29 78 -87.5t31 -117.5q-137 -104 -334 -105
q-141 0 -225.5 63.5t-84.5 203.5q0 49 9 92l67 379h-168q0 125 43 249h168l45 256q170 25 305 0l-45 -256h299z" />
    <glyph glyph-name="circumflex" unicode="&#x2c6;" horiz-adv-x="786" 
d="M711 1477l237 -287q-33 -84 -125 -123l-202 178l-265 -176q-84 35 -96 119l309 289q70 14 142 0z" />
    <glyph glyph-name="caron" unicode="&#x2c7;" horiz-adv-x="776" 
d="M518 1077l-235 279q35 86 125 125l202 -172l262 170q82 -35 95 -119l-308 -283q-69 -12 -141 0z" />
    <glyph glyph-name="breve" unicode="&#x2d8;" horiz-adv-x="825" 
d="M622 1081q-169 0 -249 102.5t-64 237.5q80 35 183 25q6 -76 51 -115t111.5 -39t117.5 40t72 114q111 14 178 -25q-14 -131 -122.5 -235.5t-277.5 -104.5z" />
    <glyph glyph-name="dotaccent" unicode="&#x2d9;" horiz-adv-x="548" 
d="M495.5 1096q-75.5 0 -129 53t-53.5 129t53.5 130t129 54t129 -54t53.5 -130t-53.5 -129t-129 -53z" />
    <glyph glyph-name="ring" unicode="&#x2da;" horiz-adv-x="550" 
d="M498 1194q86 0 86 94q0 35 -20.5 56.5t-58.5 21.5t-60.5 -26.5t-22.5 -64.5t21.5 -59.5t54.5 -21.5zM493.5 1042q-106.5 0 -170 57.5t-63.5 164t74 179.5t177 73t167.5 -56.5t64.5 -164t-71.5 -180.5t-178 -73z" />
    <glyph glyph-name="ogonek" unicode="&#x2db;" horiz-adv-x="540" 
d="M201 -432q-96 0 -159 47q-62 47 -62 133t67 167q68 81 158 138h198q-190 -117 -190 -207q0 -66 68 -65q33 0 79 35q78 -43 91 -148q-96 -100 -250 -100z" />
    <glyph glyph-name="tilde" unicode="&#x2dc;" horiz-adv-x="872" 
d="M784 1362q63 0 99 88q129 0 196 -74q-35 -117 -107.5 -181.5t-157.5 -65.5t-158.5 37t-110.5 38q-74 0 -107 -94q-51 0 -110.5 20.5t-83.5 55.5q37 119 109.5 185.5t158.5 67.5t164 -38t108 -39z" />
    <glyph glyph-name="hungarumlaut" unicode="&#x2dd;" horiz-adv-x="759" 
d="M666 1057q-68 27 -101 100l256 346q127 -33 166 -166zM319 1055q-70 29 -104 96l248 354q129 -29 172 -159z" />
    <glyph glyph-name="gravecomb" unicode="&#x300;" 
d="M57 1055l-403 225q49 156 182 223l311 -336q-31 -73 -90 -112z" />
    <glyph glyph-name="acutecomb" unicode="&#x301;" 
d="M-258 1055q-63 41 -84 114l350 340q129 -70 172 -229z" />
    <glyph glyph-name="uni0302" unicode="&#x302;" 
d="M-80 1477l238 -287q-33 -84 -125 -123l-203 178l-264 -176q-84 35 -96 119l309 289q69 14 141 0z" />
    <glyph glyph-name="tildecomb" unicode="&#x303;" 
d="M-90 1362q63 0 98 88q129 0 197 -74q-35 -117 -107.5 -181.5t-158 -65.5t-159 37t-110.5 38q-73 0 -106 -94q-51 0 -110.5 20.5t-84.5 55.5q37 119 109.5 185.5t159 67.5t164 -38t108.5 -39z" />
    <glyph glyph-name="uni0304" unicode="&#x304;" 
d="M-479 1206q0 86 43 172h618v-45q0 -92 -41 -184h-616q-4 14 -4 57z" />
    <glyph glyph-name="uni0306" unicode="&#x306;" 
d="M-204 1081q-169 0 -248.5 102.5t-63.5 237.5q80 35 182 25q6 -76 51 -115t112 -39t118 40t71 114q111 14 179 -25q-14 -131 -123 -235.5t-278 -104.5z" />
    <glyph glyph-name="uni0307" unicode="&#x307;" 
d="M-51 1096q-76 0 -129 53t-53 129t53 130t129 54t129 -54t53 -130t-53 -129t-129 -53z" />
    <glyph glyph-name="uni0308" unicode="&#x308;" 
d="M32.5 1112q-63.5 0 -108.5 45t-45 110t44 109q45 44 109 43.5t109 -45.5t45 -108.5t-45 -108.5t-108.5 -45zM-415.5 1112q-63.5 0 -108.5 45t-45 110t45 108.5t108.5 43.5t107.5 -45t44 -108.5t-44 -108.5t-107.5 -45z" />
    <glyph glyph-name="uni030A" unicode="&#x30a;" 
d="M-41 1194q86 0 86 94q0 35 -20.5 56.5t-58.5 21.5t-60.5 -26.5t-22.5 -64.5t21.5 -59.5t54.5 -21.5zM-44.5 1042q-106.5 0 -170.5 57.5t-64 164t74 179.5t177 73t168 -56.5t65 -164t-71.5 -180.5t-178 -73z" />
    <glyph glyph-name="uni030B" unicode="&#x30b;" 
d="M-147 1057q-68 27 -101 100l256 346q127 -33 166 -166zM-494 1055q-70 29 -104 96l248 354q129 -29 172 -159z" />
    <glyph glyph-name="uni030C" unicode="&#x30c;" 
d="M-272 1077l-236 279q35 86 125 125l203 -172l262 170q82 -35 94 -119l-307 -283q-69 -12 -141 0z" />
    <glyph glyph-name="uni0326" unicode="&#x326;" 
d="M-336 -172q0 31 -4 72q61 25 129 24.5t111 -22.5q0 -31 -6 -52q-12 -109 -66.5 -203t-134.5 -151q-82 4 -111 74q82 135 82 258z" />
    <glyph glyph-name="uni0327" unicode="&#x327;" 
d="M-407.5 -449q-128.5 0 -182.5 54q16 90 88 141q37 -27 84 -27q84 0 84 68q0 55 -115 59l93 177h163l-49 -99q141 -27 142 -135q0 -125 -89.5 -181.5t-218 -56.5z" />
    <glyph glyph-name="uni0328" unicode="&#x328;" 
d="M-352 -432q-96 0 -158.5 47t-62.5 133t67.5 167t157.5 138h198q-190 -117 -190 -207q0 -66 68 -65q33 0 79 35q78 -43 91 -148q-96 -100 -250 -100z" />
    <glyph glyph-name="uni0335" unicode="&#x335;" 
d="M-535 864q-16 84 25 172h627q8 -92 -25 -172h-627z" />
    <glyph glyph-name="uni0336" unicode="&#x336;" 
d="M-1276 943q0 51 41 120h1370q2 -12 2 -65.5t-35 -123.5h-1372q-6 18 -6 69z" />
    <glyph glyph-name="uni0337" unicode="&#x337;" 
d="M-506 528q-37 25 -57.5 68t-14.5 84l627 309q74 -66 68 -158z" />
    <glyph glyph-name="uni0338" unicode="&#x338;" 
d="M-858 -156q-76 10 -105 84l801 1186q74 -14 103 -76z" />
    <glyph glyph-name="Wgrave" unicode="&#x1e80;" horiz-adv-x="1892" 
d="M1755 1327q174 0 232 -22q-131 -401 -267.5 -719t-318.5 -582q-74 -14 -163 -14t-169 14q-61 289 -72 688q0 12 -1 44t-1 50l-20 -75q-102 -354 -344 -707q-90 -14 -163 -14t-177 14q-141 553 -137 1301q188 39 338 18q-29 -541 34 -1053q289 561 383 1010q74 14 158 14
t154 -14q14 -618 67 -1008q246 479 387 1051q45 4 80 4zM1360 1505q-23 -86 -78 -133l-457 184q35 170 160 242z" />
    <glyph glyph-name="wgrave" unicode="&#x1e81;" horiz-adv-x="1619" 
d="M1597 842q0 -219 -121.5 -442.5t-318.5 -399.5q-84 -14 -162 -14t-137 14q-61 152 -98 297q-90 -145 -236 -297q-74 -14 -148.5 -14t-131.5 14q-152 422 -158 954q90 23 188 23t146 -6q-10 -365 35 -668q0 -12 8 -80q6 14 26 45q188 283 197 557q-4 82 -4 129
q90 23 188 23t146 -6q-12 -403 28 -668q6 -68 7 -78q8 16 28 45q78 106 139.5 267t61.5 313q0 76 -18 121q49 6 141 6t178 -14q16 -33 16 -121zM1126 1167q-31 -74 -90 -112l-403 225q49 156 182 223z" />
    <glyph glyph-name="Wacute" unicode="&#x1e82;" horiz-adv-x="1892" 
d="M1755 1327q174 0 232 -22q-131 -401 -267.5 -719t-318.5 -582q-74 -14 -163 -14t-169 14q-61 289 -72 688q0 12 -1 44t-1 50l-20 -75q-102 -354 -344 -707q-90 -14 -163 -14t-177 14q-141 553 -137 1301q188 39 338 18q-29 -541 34 -1053q289 561 383 1010q74 14 158 14
t154 -14q14 -618 67 -1008q246 479 387 1051q45 4 80 4zM897 1370q-53 51 -70 131l424 297q117 -88 127 -250z" />
    <glyph glyph-name="wacute" unicode="&#x1e83;" horiz-adv-x="1619" 
d="M1597 842q0 -219 -121.5 -442.5t-318.5 -399.5q-84 -14 -162 -14t-137 14q-61 152 -98 297q-90 -145 -236 -297q-74 -14 -148.5 -14t-131.5 14q-152 422 -158 954q90 23 188 23t146 -6q-10 -365 35 -668q0 -12 8 -80q6 14 26 45q188 283 197 557q-4 82 -4 129
q90 23 188 23t146 -6q-12 -403 28 -668q6 -68 7 -78q8 16 28 45q78 106 139.5 267t61.5 313q0 76 -18 121q49 6 141 6t178 -14q16 -33 16 -121zM741 1055q-63 41 -84 114l351 340q129 -70 172 -229z" />
    <glyph glyph-name="Wdieresis" unicode="&#x1e84;" horiz-adv-x="1892" 
d="M1755 1327q174 0 232 -22q-131 -401 -267.5 -719t-318.5 -582q-74 -14 -163 -14t-169 14q-61 289 -72 688q0 12 -1 44t-1 50l-20 -75q-102 -354 -344 -707q-90 -14 -163 -14t-177 14q-141 553 -137 1301q188 39 338 18q-29 -541 34 -1053q289 561 383 1010q74 14 158 14
t154 -14q14 -618 67 -1008q246 479 387 1051q45 4 80 4zM1335.5 1442q-63.5 0 -108.5 45t-45 109t45 109.5t108.5 45.5t108.5 -45t45 -110t-45 -109.5t-108.5 -44.5zM878.5 1442q-63.5 0 -108.5 45t-45 109t45 109.5t108.5 45.5t109.5 -45t46 -110t-46 -109.5t-109.5 -44.5z
" />
    <glyph glyph-name="wdieresis" unicode="&#x1e85;" horiz-adv-x="1619" 
d="M1597 842q0 -219 -121.5 -442.5t-318.5 -399.5q-84 -14 -162 -14t-137 14q-61 152 -98 297q-90 -145 -236 -297q-74 -14 -148.5 -14t-131.5 14q-152 422 -158 954q90 23 188 23t146 -6q-10 -365 35 -668q0 -12 8 -80q6 14 26 45q188 283 197 557q-4 82 -4 129
q90 23 188 23t146 -6q-12 -403 28 -668q6 -68 7 -78q8 16 28 45q78 106 139.5 267t61.5 313q0 76 -18 121q49 6 141 6t178 -14q16 -33 16 -121zM1132.5 1112q-63.5 0 -108.5 45t-45 110t45 108.5t108.5 43.5t108.5 -45t45 -108.5t-45 -108.5t-108.5 -45zM684.5 1112
q-63.5 0 -109 45t-45.5 110t44 108.5t108.5 43.5t109 -45t44.5 -108.5t-44 -108.5t-107.5 -45z" />
    <glyph glyph-name="uni1E9E" unicode="&#x1e9e;" horiz-adv-x="1347" 
d="M1268 434q0 -211 -140.5 -339t-341.5 -128q-119 0 -212 40t-128 91q41 158 191 244q82 -98 197 -98q53 0 85.5 34.5t32.5 93t-108 140.5q-57 45 -88 72.5t-62.5 83t-31.5 116.5q0 168 155 260q-70 -8 -139.5 -8t-129 -52t-77.5 -159l-143 -825q-74 -12 -151 -12t-157 12
l154 868q35 199 175 323t343 124h555v-35q0 -117 -51 -250q-199 -8 -199 -145q0 -53 73 -113.5t104.5 -94.5t62.5 -99.5t31 -143.5z" />
    <glyph glyph-name="Ygrave" unicode="&#x1ef2;" horiz-adv-x="1210" 
d="M507.5 -12q-75.5 0 -155.5 12l88 500l-317 809q123 20 213 20t145 -8l142 -438l26 -97l62 97l305 438q59 8 141.5 8t188.5 -20l-603 -826l-86 -483q-74 -12 -149.5 -12zM1012 1505q-23 -86 -78 -133l-457 184q35 170 160 242z" />
    <glyph glyph-name="ygrave" unicode="&#x1ef3;" horiz-adv-x="1112" 
d="M923.5 975q92.5 0 151.5 -12l-166 -957q-37 -201 -181 -310.5t-368 -109.5q-154 0 -270.5 46t-173.5 116q43 135 170 195q111 -117 276 -117q207 0 242 201l8 47q-98 -31 -178 -31q-432 0 -358 414l90 506q63 12 154 12t151 -12l-80 -459q-18 -102 8.5 -149.5
t115.5 -47.5t144 37l111 619q61 12 153.5 12zM866 1167q-31 -74 -90 -112l-403 225q49 156 182 223z" />
    <glyph glyph-name="uni1EF8" unicode="&#x1ef8;" horiz-adv-x="1210" 
d="M507.5 -12q-75.5 0 -155.5 12l88 500l-317 809q123 20 213 20t145 -8l142 -438l26 -97l62 97l305 438q59 8 141.5 8t188.5 -20l-603 -826l-86 -483q-74 -12 -149.5 -12zM620.5 1739q88.5 0 174.5 -38t112 -38q76 0 101 90q131 0 198 -61q-29 -127 -110.5 -194.5
t-190.5 -67.5q-66 0 -150.5 36.5t-121.5 36.5q-80 0 -105 -88q-133 0 -192 72q27 117 111.5 184.5t173 67.5z" />
    <glyph glyph-name="uni1EF9" unicode="&#x1ef9;" horiz-adv-x="1112" 
d="M923.5 975q92.5 0 151.5 -12l-166 -957q-37 -201 -181 -310.5t-368 -109.5q-154 0 -270.5 46t-173.5 116q43 135 170 195q111 -117 276 -117q207 0 242 201l8 47q-98 -31 -178 -31q-432 0 -358 414l90 506q63 12 154 12t151 -12l-80 -459q-18 -102 8.5 -149.5
t115.5 -47.5t144 37l111 619q61 12 153.5 12zM772 1362q63 0 98 88q129 0 197 -74q-35 -117 -107.5 -181.5t-157.5 -65.5t-159 37t-111 38q-73 0 -106 -94q-51 0 -110.5 20.5t-84.5 55.5q37 119 110 185.5t159 67.5t163.5 -38t108.5 -39z" />
    <glyph glyph-name="endash" unicode="&#x2013;" horiz-adv-x="1099" 
d="M90 490q0 56 41 124h858v-45q0 -78 -37 -155h-856q-6 20 -6 76z" />
    <glyph glyph-name="emdash" unicode="&#x2014;" horiz-adv-x="2070" 
d="M90 490q0 56 41 124h1829l2 -45q0 -70 -37 -155h-1829q-6 20 -6 76z" />
    <glyph glyph-name="quoteleft" unicode="&#x2018;" horiz-adv-x="434" 
d="M262 889q-76 0 -110 16q-4 25 -5 62q0 133 78 257t178 197q33 -2 62 -19t37 -46q-111 -158 -111 -328q0 -70 12 -110q-65 -29 -141 -29z" />
    <glyph glyph-name="quoteright" unicode="&#x2019;" horiz-adv-x="421" 
d="M246 1282q0 70 -13 111q63 29 140 29t112 -17q4 -25 4 -62q0 -133 -78 -257t-178 -197q-33 2 -61 19t-37 46q111 158 111 328z" />
    <glyph glyph-name="quotesinglbase" unicode="&#x201a;" horiz-adv-x="438" 
d="M45 115q0 57 -12 110q66 31 138 31t112 -16q6 -23 6 -62q0 -134 -78 -258t-178 -196q-33 2 -63 19t-38 46q113 162 113 326z" />
    <glyph glyph-name="quotedblleft" unicode="&#x201c;" horiz-adv-x="778" 
d="M608 889q-76 0 -110 16q-4 25 -4 62q0 133 77 257q78 124 179 197q34 -2 62 -19t36 -46q-111 -160 -111 -328q0 -70 13 -110q-66 -29 -142 -29zM264 889q-78 0 -110 16q-4 12 -4 62q0 131 76 257q77 126 177 197q33 -2 63 -19t38 -46q-113 -156 -113 -328q0 -70 12 -110
q-61 -29 -139 -29z" />
    <glyph glyph-name="quotedblright" unicode="&#x201d;" horiz-adv-x="770" 
d="M592 1280q0 68 -12 109q66 29 140 29t111 -15q4 -29 5 -64q0 -131 -78 -257t-178 -197q-31 2 -61 20t-38 45q111 156 111 330zM246 1280q0 68 -13 109q63 29 139 29t113 -15q4 -14 4 -64q0 -131 -78 -257t-178 -197q-31 2 -61 20t-37 45q111 160 111 330z" />
    <glyph glyph-name="quotedblbase" unicode="&#x201e;" horiz-adv-x="784" 
d="M518 256q72 0 111 -16q4 -14 4 -64q0 -130 -77 -256t-177 -196q-33 2 -63 19t-37 46q113 156 112 330q0 57 -12 106q67 31 139 31zM45 117q0 59 -12 108q66 31 137 31t115 -16q4 -29 4 -64q0 -132 -78 -256t-178 -196q-33 2 -63 19t-38 46q113 162 113 328z" />
    <glyph glyph-name="dagger" unicode="&#x2020;" horiz-adv-x="1015" 
d="M1022 1096q0 -96 -51 -228l-275 23l-217 -1233q-59 -16 -131 -16t-131 16l217 1235l-280 -25v45q0 98 49 234l272 -25l64 359q63 12 133 12t129 -12l-64 -357l283 23q2 -10 2 -51z" />
    <glyph glyph-name="daggerdbl" unicode="&#x2021;" horiz-adv-x="1015" 
d="M1026 1096q0 -92 -49 -228l-275 23l-114 -649l282 22l2 -49q0 -96 -51 -227l-274 22l-62 -352q-59 -16 -131 -16t-131 16l62 354l-281 -24v45q0 111 49 231l273 -22l114 651l-280 -25v45q0 109 49 234l272 -25l64 359q63 12 134 12t128 -12l-64 -357l283 23v-51z" />
    <glyph glyph-name="bullet" unicode="&#x2022;" horiz-adv-x="731" 
d="M360 295q-102 0 -174 72t-72 173t72 173q72 71 174 71t175 -71q71 -72 71 -173t-72 -173t-174 -72z" />
    <glyph glyph-name="ellipsis" unicode="&#x2026;" horiz-adv-x="1230" 
d="M938 -35q-66 0 -112 46t-46 112q0 65 46 111t112 46t112 -46t46 -112t-46 -111q-46 -46 -112 -46zM556 -35q-64 0 -112 46q-47 46 -47 112q0 65 46 111t112 46t112 -46t46 -112t-46 -111q-47 -46 -111 -46zM168 -35q-66 0 -112 46t-46 112q0 65 46 111t112 46t112 -46
t46 -112t-46 -111q-46 -46 -112 -46z" />
    <glyph glyph-name="perthousand" unicode="&#x2030;" horiz-adv-x="2242" 
d="M1804 123q70 0 107 51t37 127q0 125 -107 125q-71 0 -107 -51t-36 -127q0 -125 106 -125zM973 248q1 -125 117 -125q62 0 98 51q37 51 37 127q0 125 -107 125q-70 0 -108 -52t-37 -126zM1798 -41q-146 0 -218 75q-73 75 -73 213q1 138 97 240q96 103 242 103t219 -75
t73 -213t-97 -241q-97 -102 -243 -102zM1074 -41q-146 0 -219 75t-73 213t98 240q98 103 244 103t218 -75t73 -213q0 -138 -97 -241q-98 -102 -244 -102zM424 819q68 0 104 51t37 125q0 125 -106 125q-70 0 -107 -51t-37 -127q0 -123 109 -123zM756 997q0 -137 -97 -241
t-243 -103q-146 0 -218 75q-73 76 -73 214t97 240q96 102 242 102t219 -75t73 -212zM104 -96l1119 1407q106 23 198 0l-1118 -1407q-105 -18 -199 0z" />
    <glyph glyph-name="guilsinglleft" unicode="&#x2039;" horiz-adv-x="569" 
d="M295 152l-248 364l356 369q90 -14 119 -76l-196 -289l96 -295q-41 -57 -127 -73z" />
    <glyph glyph-name="guilsinglright" unicode="&#x203a;" horiz-adv-x="569" 
d="M145 152q-86 12 -116 73l198 291l-96 295q41 61 127 74l246 -367z" />
    <glyph glyph-name="fraction" unicode="&#x2044;" horiz-adv-x="1130" 
d="M-111 -96l1182 1478q117 18 225 0l-1179 -1478q-124 -23 -228 0z" />
    <glyph glyph-name="Euro" unicode="&#x20ac;" horiz-adv-x="1273" 
d="M829 598q0 -73 -26 -143h-230q41 -205 228 -205q115 0 205 76q123 -84 122 -238q-158 -119 -388 -119t-358 126t-146 360h-193v22q0 55 25 121h165q4 70 15 125h-109v20q0 57 25 123h119q78 227 249 362q172 134 405 134t366 -123q-27 -73 -79 -139t-120 -99
q-76 76 -199 76q-203 0 -291 -211h310v-22q0 -55 -25 -121h-324q-8 -57 -12 -125h266z" />
    <glyph glyph-name="trademark" unicode="&#x2122;" horiz-adv-x="1576" 
d="M774 1366q0 -100 -35 -195h-176l-94 -542q-49 -8 -107 -8t-106 8l96 542h-176v21q0 104 35 174h563zM1463 1370q60 0 128 -6l-131 -735q-59 -6 -101 -6t-97 6l45 250l41 145l-174 -322q-43 -8 -82 -8t-80 8l-56 242l-12 66l-10 -131l-45 -250q-49 -6 -94 -6t-105 6
l129 733q57 10 121 10t107 -8l90 -367l4 -51l22 51l205 367q35 6 95 6z" />
    <glyph glyph-name="minus" unicode="&#x2212;" horiz-adv-x="1079" 
d="M90 450q0 54 37 138h834v-37q0 -80 -35 -162h-834q-2 7 -2 61z" />
    <glyph glyph-name="approxequal" unicode="&#x2248;" horiz-adv-x="1021" 
d="M631 322q60 0 137 88q33 -8 66 -40t43 -75q-57 -84 -133 -132t-150 -48q-72 0 -168 42t-137 42q-78 0 -144 -84q-35 12 -67 43t-41 67q119 180 280 181q68 0 161 -42t153 -42zM382 799q73 0 166 -42q92 -42 152 -42t138 88q34 -8 66 -39t42 -74q-121 -182 -287 -182
q-71 0 -165 42t-136 42q-77 0 -143 -84q-35 12 -68 44t-41 69q53 82 128 130t148 48z" />
    <glyph glyph-name="notequal" unicode="&#x2260;" horiz-adv-x="1077" 
d="M993 778v-24q0 -82 -35 -176h-268l-149 -201h381q2 -1 2 -51t-37 -150h-496l-184 -246q-76 16 -107 82l123 164h-170v25q0 78 35 176h287l149 201h-399v24q0 86 35 176h516l160 213q72 -16 106 -78l-100 -135h151z" />
    <glyph glyph-name="dotlessj" unicode="&#xf6be;" horiz-adv-x="540" 
d="M-69 -408q-173 0 -261 78q2 60 39 122t86 93q43 -39 101 -39q104 0 129 140l172 985q61 12 152 12t155 -12l-172 -973q-36 -206 -132 -306t-269 -100z" />
    <glyph glyph-name="uniF8FF" unicode="&#xf8ff;" horiz-adv-x="2822" 
d="M2236 31q8 0 9 8q0 4 -9 4h-12l-2 -12h14zM2222 23v-19h-8v47h20q18 0 21 -12q2 -16 -14 -16l12 -19h-12l-9 19h-10zM2198 18q6 -29 34 -28q41 0 36 37t-34 36q-42 0 -36 -45zM2187 18q-4 25 9 40q13 16 45 16t36 -32q8 -62 -45 -62q-41 -1 -45 38zM1403 147q35 0 56 28
t15 62t-36 33q-59 0 -43 -90q2 -23 8 -33zM1925 223h78q6 55 -33 56q-45 0 -45 -56zM1982 -10q-233 0 -266 198q-23 138 43 224t203 86q186 -1 219 -187q8 -61 -6 -123h-242q23 -36 94 -36t111 24l-2 -153q-47 -33 -154 -33zM1532 498q57 0 96 -44t51 -124q27 -162 -40 -251
t-228 -89v-80h-231q6 348 30 577h152q14 -86 10 -155q35 166 160 166zM830 -102q-94 0 -148 34l4 170q41 -33 135 -32q41 0 74 15t33 42q-35 -23 -97 -23q-172 0 -172 170v27h-106l4 -133q8 -8 31 -8t33 10l-3 -150q-39 -31 -133 -30q-137 0 -153 108q-4 27 6 203h-35l4 164
l228 59l-3 -37h345l-5 -243q0 -55 29 -56q33 0 33 56l4 243h203q6 -43 8 -51q42 -221 -9 -384q-34 -109 -164 -141q-52 -13 -146 -13zM2501 821q-53 0 -41 -71q6 -43 39 -43q25 0 37 21t7 57t-42 36zM823 821q-55 0 -43 -71q6 -43 41 -43q56 0 47 75q-6 39 -45 39zM2494 543
q-199 0 -229 196q-24 95 22 203q19 47 76 79t146 32q196 0 227 -193q22 -145 -36 -231t-206 -86zM2005 553q0 94 4 142t1 78t-25 30q-33 0 -37 -60l2 -190h-221q4 352 28 489h156q10 -113 8 -155q4 43 27 85q42 79 128 80q86 2 118 -50t32 -166l2 -283h-223zM743 543
q-145 0 -172 172q-25 156 40 247t225 91q240 0 235 -240l-4 -260h-162l-12 125q-29 -135 -150 -135zM1384 713q24 0 33 10l-4 -152q-25 -31 -133 -30q-137 0 -156 108q-3 46 3 124q7 77 8 81h-43l4 162l231 61l2 -35h346q18 -141 11 -489h-230q2 186 12 301h-118l2 -133
q8 -8 32 -8zM532 553h-231q4 315 29 643h194q12 -465 8 -643zM1578 1321q50 0 82 -30t40 -83t-28 -96t-86 -43t-83 31t-41 83t29 95t87 43z" />
    <glyph glyph-name="A.ss01" horiz-adv-x="1228" 
d="M438 514h330q-25 197 -61 389l-19 74l-43 -76q-119 -203 -207 -387zM60.5 -8q-86.5 0 -146.5 22q297 709 682 1301q63 12 155.5 12t151.5 -12q164 -600 217 -1301q-176 -38 -309 -14q-6 131 -18 260h-471q-74 -172 -109 -260q-66 -8 -152.5 -8z" />
    <glyph glyph-name="Aacute.ss01" horiz-adv-x="1228" 
d="M438 514h330q-25 197 -61 389l-19 74l-43 -76q-119 -203 -207 -387zM60.5 -8q-86.5 0 -146.5 22q297 709 682 1301q63 12 155.5 12t151.5 -12q164 -600 217 -1301q-176 -38 -309 -14q-6 131 -18 260h-471q-74 -172 -109 -260q-66 -8 -152.5 -8zM569 1370q-53 51 -69 131
l424 297q117 -88 127 -250z" />
    <glyph glyph-name="Abreve.ss01" horiz-adv-x="1228" 
d="M438 514h330q-25 197 -61 389l-19 74l-43 -76q-119 -203 -207 -387zM752 1327q92 0 151 -12q164 -600 217 -1301q-176 -38 -309 -14q-6 131 -18 260h-471q-74 -172 -109 -260q-66 -8 -152.5 -8t-146.5 22q297 709 682 1301q64 12 156 12zM748 1399q-166 0 -252 100
t-60 236q76 33 182 22q6 -76 51.5 -111.5t105.5 -35.5t116.5 36.5t81.5 110.5q102 12 168 -22q-23 -137 -125 -236.5t-268 -99.5z" />
    <glyph glyph-name="Acircumflex.ss01" horiz-adv-x="1228" 
d="M438 514h330q-25 197 -61 389l-19 74l-43 -76q-119 -203 -207 -387zM752 1327q92 0 151 -12q164 -600 217 -1301q-176 -38 -309 -14q-6 131 -18 260h-471q-74 -172 -109 -260q-66 -8 -152.5 -8t-146.5 22q297 709 682 1301q64 12 156 12zM506 1405q-74 45 -88 139
l305 211q88 18 168 0l235 -211q-33 -94 -116 -139l-228 149z" />
    <glyph glyph-name="Adieresis.ss01" horiz-adv-x="1228" 
d="M438 514h330q-25 197 -61 389l-19 74l-43 -76q-119 -203 -207 -387zM752 1327q92 0 151 -12q164 -600 217 -1301q-176 -38 -309 -14q-6 131 -18 260h-471q-74 -172 -109 -260q-66 -8 -152.5 -8t-146.5 22q297 709 682 1301q64 12 156 12zM1007.5 1442q-63.5 0 -108.5 45
t-45 109t45 109.5t108.5 45.5t108.5 -45t45 -110t-45 -109.5t-108.5 -44.5zM550.5 1442q-63.5 0 -108.5 45t-45 109t45 109.5t108.5 45.5t110 -45t46.5 -110t-46.5 -109.5t-110 -44.5z" />
    <glyph glyph-name="Agrave.ss01" horiz-adv-x="1228" 
d="M438 514h330q-25 197 -61 389l-19 74l-43 -76q-119 -203 -207 -387zM60.5 -8q-86.5 0 -146.5 22q297 709 682 1301q63 12 155.5 12t151.5 -12q164 -600 217 -1301q-176 -38 -309 -14q-6 131 -18 260h-471q-74 -172 -109 -260q-66 -8 -152.5 -8zM1030 1505
q-23 -86 -78 -133l-456 184q35 170 159 242z" />
    <glyph glyph-name="Amacron.ss01" horiz-adv-x="1228" 
d="M438 514h330q-25 197 -61 389l-19 74l-43 -76q-119 -203 -207 -387zM60.5 -8q-86.5 0 -146.5 22q297 709 682 1301q63 12 155.5 12t151.5 -12q164 -600 217 -1301q-176 -38 -309 -14q-6 131 -18 260h-471q-74 -172 -109 -260q-66 -8 -152.5 -8zM1083 1481h-622
q-20 98 37 207h620q10 -113 -35 -207z" />
    <glyph glyph-name="Aogonek.ss01" horiz-adv-x="1228" 
d="M438 514h330q-25 197 -61 389l-19 74l-43 -76q-119 -203 -207 -387zM836 -432q-94 0 -150.5 45t-56.5 125t54 148.5t128 113.5q-6 131 -18 260h-471q-74 -172 -109 -260q-66 -8 -152.5 -8t-146.5 22q297 709 682 1301q63 12 155.5 12t151.5 -12q164 -600 217 -1301
q-258 -74 -258 -176q0 -57 66 -57q35 0 98 41q78 -45 82 -148q-111 -106 -272 -106z" />
    <glyph glyph-name="Aring.ss01" horiz-adv-x="1228" 
d="M438 514h330q-25 197 -61 389l-19 74l-43 -76q-119 -203 -207 -387zM60.5 -8q-86.5 0 -146.5 22q297 709 682 1301q63 12 155.5 12t151.5 -12q164 -600 217 -1301q-176 -38 -309 -14q-6 131 -18 260h-471q-74 -172 -109 -260q-66 -8 -152.5 -8zM868 1602q0 84 -78 84
q-38 0 -60.5 -28t-22.5 -67q-1 -82 79 -82q38 0 60 27t22 66zM779.5 1362q-107.5 0 -171 55.5t-63.5 162t73.5 179t176 72.5t168 -54.5t65.5 -162t-70.5 -180t-178 -72.5z" />
    <glyph glyph-name="Atilde.ss01" horiz-adv-x="1228" 
d="M438 514h330q-25 197 -61 389l-19 74l-43 -76q-119 -203 -207 -387zM752 1327q92 0 151 -12q164 -600 217 -1301q-176 -38 -309 -14q-6 131 -18 260h-471q-74 -172 -109 -260q-66 -8 -152.5 -8t-146.5 22q297 709 682 1301q64 12 156 12zM924 1430q-66 0 -151 36.5
t-122 36.5q-80 0 -104 -88q-133 0 -193 72q27 117 112 184.5t173 67.5t174 -38t113 -38q75 0 100 90q131 0 199 -61q-29 -127 -111 -194.5t-190 -67.5z" />
    <glyph glyph-name="E.ss01" horiz-adv-x="999" 
d="M678.5 1075q-98.5 0 -148 -44t-49.5 -120q0 -113 183 -112h106q8 -33 8 -68q0 -84 -49 -166h-113q-256 -2 -256 -188q0 -61 44.5 -98t127.5 -37q137 0 265 88q102 -61 106 -230q-172 -129 -448 -129q-180 0 -304 80t-124 238.5t74.5 258t199.5 148.5q-115 82 -115 230
q0 182 137.5 302t368 120t350.5 -103q-35 -143 -165 -229q-100 59 -198.5 59z" />
    <glyph glyph-name="Eacute.ss01" horiz-adv-x="999" 
d="M678.5 1075q-98.5 0 -148 -44t-49.5 -120q0 -113 183 -112h106q8 -33 8 -68q0 -84 -49 -166h-113q-256 -2 -256 -188q0 -61 44.5 -98t127.5 -37q137 0 265 88q102 -61 106 -230q-172 -129 -448 -129q-180 0 -304 80t-124 238.5t74.5 258t199.5 148.5q-115 82 -115 230
q0 182 137.5 302t368 120t350.5 -103q-35 -143 -165 -229q-100 59 -198.5 59zM502 1370q-53 51 -70 131l424 297q117 -88 127 -250z" />
    <glyph glyph-name="Ecaron.ss01" horiz-adv-x="999" 
d="M186 926q0 182 138 302t368 120t350 -103q-35 -143 -165 -229q-101 59 -199 59t-147.5 -44t-49.5 -120q0 -113 183 -112h106q8 -33 8 -68q0 -84 -49 -166h-113q-256 -2 -256 -188q0 -61 44.5 -98t127.5 -37q137 0 265 88q102 -61 106 -230q-172 -129 -448 -129
q-180 0 -304 80q-124 81 -124 239t74.5 257.5t199.5 148.5q-115 83 -115 230zM764 1425q-88 -20 -168 0l-236 209q29 96 115 142l230 -152l274 154q78 -51 88 -142z" />
    <glyph glyph-name="Ecircumflex.ss01" horiz-adv-x="999" 
d="M186 926q0 182 138 302t368 120t350 -103q-35 -143 -165 -229q-101 59 -199 59t-147.5 -44t-49.5 -120q0 -113 183 -112h106q8 -33 8 -68q0 -84 -49 -166h-113q-256 -2 -256 -188q0 -61 44.5 -98t127.5 -37q137 0 265 88q102 -61 106 -230q-172 -129 -448 -129
q-180 0 -304 80q-124 81 -124 239t74.5 257.5t199.5 148.5q-115 83 -115 230zM440 1405q-74 45 -88 139l305 211q88 18 168 0l236 -211q-33 -94 -117 -139l-227 149z" />
    <glyph glyph-name="Edieresis.ss01" horiz-adv-x="999" 
d="M186 926q0 182 137.5 302t368 120t350.5 -103q-35 -143 -165 -229q-100 59 -198.5 59t-148 -44t-49.5 -120q0 -113 183 -112h106q8 -33 8 -68q0 -84 -49 -166h-113q-256 -2 -256 -188q0 -61 44.5 -98t127.5 -37q137 0 265 88q102 -61 106 -230q-172 -129 -448 -129
q-180 0 -304 80t-124 238.5t74.5 258t199.5 148.5q-115 83 -115 230zM940.5 1751q63.5 0 108.5 -45t45 -110t-45 -109.5t-108.5 -44.5t-109 45t-45.5 109t45.5 109.5t109 45.5zM484.5 1442q-64.5 0 -109.5 45t-45 109t45 109.5t108.5 45.5t109.5 -45t46 -110t-45 -109.5
t-109.5 -44.5z" />
    <glyph glyph-name="Edotaccent.ss01" horiz-adv-x="999" 
d="M678.5 1075q-98.5 0 -148 -44t-49.5 -120q0 -113 183 -112h106q8 -33 8 -68q0 -84 -49 -166h-113q-256 -2 -256 -188q0 -61 44.5 -98t127.5 -37q137 0 265 88q102 -61 106 -230q-172 -129 -448 -129q-180 0 -304 80t-124 238.5t74.5 258t199.5 148.5q-115 82 -115 230
q0 182 137.5 302t368 120t350.5 -103q-35 -143 -165 -229q-100 59 -198.5 59zM722 1415q-75 0 -127 52.5t-52 127t52 127t127 52.5t128 -52.5t53 -127.5t-53 -127t-128 -52z" />
    <glyph glyph-name="Egrave.ss01" horiz-adv-x="999" 
d="M678.5 1075q-98.5 0 -148 -44t-49.5 -120q0 -113 183 -112h106q8 -33 8 -68q0 -84 -49 -166h-113q-256 -2 -256 -188q0 -61 44.5 -98t127.5 -37q137 0 265 88q102 -61 106 -230q-172 -129 -448 -129q-180 0 -304 80t-124 238.5t74.5 258t199.5 148.5q-115 82 -115 230
q0 182 137.5 302t368 120t350.5 -103q-35 -143 -165 -229q-100 59 -198.5 59zM963 1505q-23 -86 -78 -133l-457 184q35 170 160 242z" />
    <glyph glyph-name="Emacron.ss01" horiz-adv-x="999" 
d="M186 926q0 182 138 302t368 120t350 -103q-35 -143 -165 -229q-101 59 -199 59t-147.5 -44t-49.5 -120q0 -113 183 -112h106q8 -33 8 -68q0 -84 -49 -166h-113q-256 -2 -256 -188q0 -61 44.5 -98t127.5 -37q137 0 265 88q102 -61 106 -230q-172 -129 -448 -129
q-180 0 -304 80q-124 81 -124 239t74.5 257.5t199.5 148.5q-115 83 -115 230zM1016 1481h-623q-20 98 37 207h621q10 -113 -35 -207z" />
    <glyph glyph-name="Eogonek.ss01" horiz-adv-x="999" 
d="M678.5 1075q-98.5 0 -148 -44t-49.5 -120q0 -113 183 -112h106q8 -33 8 -68q0 -84 -49 -166h-113q-256 -2 -256 -188q0 -61 44.5 -98t127.5 -37q137 0 265 88q102 -61 106 -230q-47 -33 -88 -53q-180 -113 -180 -201q0 -66 67 -65q33 0 80 35q78 -43 90 -148
q-96 -100 -249 -100q-96 0 -159 47t-63 125q0 117 121 233q-20 -2 -67 -2q-180 0 -304 80t-124 238.5t74.5 258t199.5 148.5q-115 82 -115 230q0 182 137.5 302t368 120t350.5 -103q-35 -143 -165 -229q-100 59 -198.5 59z" />
    <glyph glyph-name="Q.ss02" horiz-adv-x="1413" 
d="M676 252q25 0 35 2l-66 131q92 88 234 119l59 -119q98 135 98 371q0 150 -67.5 231.5t-198.5 81.5q-172 0 -266 -138t-94 -366q0 -147 68.5 -230t197.5 -83zM1372 791q0 -223 -76.5 -398.5t-214.5 -283.5l93 -183q-82 -98 -236 -121l-94 185q-102 -27 -205 -27
q-258 0 -410.5 151.5t-152.5 415.5q0 371 204.5 599.5t526.5 228.5q258 0 411.5 -151.5t153.5 -415.5z" />
    <glyph glyph-name="a.ss01" horiz-adv-x="1165" 
d="M346 416q0 -92 43 -141.5t124 -49.5t149 60l77 436q-59 16 -110 16q-123 0 -203 -84.5t-80 -236.5zM33 367q0 281 182 456.5t444.5 175.5t419.5 -90l-106 -594q-16 -90 76 -120q-12 -141 -103 -228q-164 12 -231 101q-131 -102 -303 -102.5t-275.5 107t-103.5 294.5z" />
    <glyph glyph-name="a.ss02" horiz-adv-x="1069" 
d="M403 178q150 0 195 187l6 34h-117q-92 0 -139 -33.5t-47 -85t27.5 -77t74.5 -25.5zM889 256q0 -43 78 -63q-16 -147 -109 -228q-109 2 -166 28.5t-84 98.5h-6q-127 -129 -319 -129q-125 0 -208 67.5t-83 190.5q0 168 131 261t354 96h158l6 28q4 25 4 37q0 104 -150 104.5
t-268 -85.5q-98 70 -100 192q61 53 176 99t256 46q393 0 393 -313q0 -51 -12 -113l-47 -278q-4 -21 -4 -39z" />
    <glyph glyph-name="a.ss03" horiz-adv-x="1032" 
d="M307 281q0 -100 139 -101q59 0 136 21l32 182q-59 20 -145 20q-162 1 -162 -122zM539 999q231 0 340.5 -106.5t68.5 -325.5l-90 -514q-230 -86 -442 -86q-420 0 -420 283q0 164 131 256t334 88q109 -4 184 -27l6 31q12 68 -28.5 109t-162.5 41t-231 -70q-98 68 -96 211
q55 39 165 74.5t241 35.5z" />
    <glyph glyph-name="aacute.ss01" horiz-adv-x="1165" 
d="M346 416q0 -92 43 -141.5t124 -49.5t149 60l77 436q-59 16 -110 16q-123 0 -203 -84.5t-80 -236.5zM33 367q0 281 182 456.5t444.5 175.5t419.5 -90l-106 -594q-16 -90 76 -120q-12 -141 -103 -228q-164 12 -231 101q-131 -102 -303 -102.5t-275.5 107t-103.5 294.5z
M539 1055q-63 41 -84 114l350 340q129 -70 172 -229z" />
    <glyph glyph-name="aacute.ss02" horiz-adv-x="1069" 
d="M403 178q150 0 195 187l6 34h-117q-92 0 -139 -33.5t-47 -85t27.5 -77t74.5 -25.5zM889 256q0 -43 78 -63q-16 -147 -109 -228q-109 2 -166 28.5t-84 98.5h-6q-127 -129 -319 -129q-125 0 -208 67.5t-83 190.5q0 168 131 261t354 96h158l6 28q4 25 4 37q0 104 -150 104.5
t-268 -85.5q-98 70 -100 192q61 53 176 99t256 46q393 0 393 -313q0 -51 -12 -113l-47 -278q-4 -21 -4 -39zM414 1055q-63 41 -84 114l350 340q129 -70 172 -229z" />
    <glyph glyph-name="aacute.ss03" horiz-adv-x="1032" 
d="M307 281q0 -100 139 -101q59 0 136 21l32 182q-59 20 -145 20q-162 1 -162 -122zM539 999q231 0 340.5 -106.5t68.5 -325.5l-90 -514q-230 -86 -442 -86q-420 0 -420 283q0 164 131 256t334 88q109 -4 184 -27l6 31q12 68 -28.5 109t-162.5 41t-231 -70q-98 68 -96 211
q55 39 165 74.5t241 35.5zM432 1055q-63 41 -84 114l350 340q129 -70 172 -229z" />
    <glyph glyph-name="abreve.ss01" horiz-adv-x="1165" 
d="M346 416q0 -92 43 -141.5t124 -49.5t149 60l77 436q-59 16 -110 16q-123 0 -203 -84.5t-80 -236.5zM33 367q0 281 182 456.5t444.5 175.5t419.5 -90l-106 -594q-16 -90 76 -120q-12 -141 -103 -228q-164 12 -231 101q-131 -102 -303 -102.5t-275.5 107t-103.5 294.5z
M667 1081q-169 0 -249 102.5t-64 237.5q80 35 183 25q6 -76 51 -115t111.5 -39t117.5 40t72 114q111 14 178 -25q-14 -131 -122.5 -235.5t-277.5 -104.5z" />
    <glyph glyph-name="abreve.ss02" horiz-adv-x="1069" 
d="M403 178q150 0 195 187l6 34h-117q-92 0 -139 -33.5t-47 -85t27.5 -77t74.5 -25.5zM889 256q0 -43 78 -63q-16 -147 -109 -228q-109 2 -166 28.5t-84 98.5h-6q-127 -129 -319 -129q-125 0 -208 67.5t-83 190.5q0 168 131 261t354 96h158l6 28q4 25 4 37q0 104 -150 104.5
t-268 -85.5q-98 70 -100 192q61 53 176 99t256 46q393 0 393 -313q0 -51 -12 -113l-47 -278q-4 -21 -4 -39zM542 1081q-169 0 -249 102.5t-64 237.5q80 35 183 25q6 -76 51 -115t111.5 -39t117.5 40t72 114q111 14 178 -25q-14 -131 -122.5 -235.5t-277.5 -104.5z" />
    <glyph glyph-name="abreve.ss03" horiz-adv-x="1032" 
d="M307 281q0 -100 139 -101q59 0 136 21l32 182q-59 20 -145 20q-162 1 -162 -122zM539 999q231 0 340.5 -106.5t68.5 -325.5l-90 -514q-230 -86 -442 -86q-420 0 -420 283q0 164 131 256t334 88q109 -4 184 -27l6 31q12 68 -28.5 109t-162.5 41t-231 -70q-98 68 -96 211
q55 39 165 74.5t241 35.5zM562 1081q-169 0 -249 102.5t-63 237.5q80 35 182 25q6 -76 51 -115t112 -39t118 40t71 114q111 14 179 -25q-14 -131 -123 -235.5t-278 -104.5z" />
    <glyph glyph-name="acircumflex.ss01" horiz-adv-x="1165" 
d="M346 416q0 -92 43 -141.5t124 -49.5t149 60l77 436q-59 16 -110 16q-123 0 -203 -84.5t-80 -236.5zM33 367q0 281 182 456.5t444.5 175.5t419.5 -90l-106 -594q-16 -90 76 -120q-12 -141 -103 -228q-164 12 -231 101q-131 -102 -303 -102.5t-275.5 107t-103.5 294.5z
M442 1069q-84 35 -96 119l309 289q70 14 142 0l237 -287q-33 -84 -125 -123l-202 178z" />
    <glyph glyph-name="acircumflex.ss02" horiz-adv-x="1069" 
d="M403 178q150 0 195 187l6 34h-117q-92 0 -139 -33.5t-47 -85t27.5 -77t74.5 -25.5zM889 256q0 -43 78 -63q-16 -147 -109 -228q-109 2 -166 28.5t-84 98.5h-6q-127 -129 -319 -129q-125 0 -208 67.5t-83 190.5q0 168 131 261t354 96h158l6 28q4 25 4 37q0 104 -150 104.5
t-268 -85.5q-98 70 -100 192q61 53 176 99t256 46q393 0 393 -313q0 -51 -12 -113l-47 -278q-4 -21 -4 -39zM317 1069q-84 35 -96 119l309 289q72 14 142 0l237 -287q-33 -84 -125 -123l-202 178z" />
    <glyph glyph-name="acircumflex.ss03" horiz-adv-x="1032" 
d="M307 281q0 -100 139 -101q59 0 136 21l32 182q-59 20 -145 20q-162 1 -162 -122zM539 999q231 0 340.5 -106.5t68.5 -325.5l-90 -514q-230 -86 -442 -86q-420 0 -420 283q0 164 131 256t334 88q109 -4 184 -27l6 31q12 68 -28.5 109t-162.5 41t-231 -70q-98 68 -96 211
q55 39 165 74.5t241 35.5zM338 1069q-84 35 -96 119l309 289q72 14 141 0l238 -287q-33 -84 -125 -123l-203 178z" />
    <glyph glyph-name="adieresis.ss01" horiz-adv-x="1165" 
d="M346 416q0 -92 43 -141.5t124 -49.5t149 60l77 436q-59 16 -110 16q-123 0 -203 -84.5t-80 -236.5zM33 367q0 281 182 456.5t444 175.5t420 -90l-106 -594q-16 -90 76 -120q-12 -141 -103 -228q-164 12 -231 101q-131 -102 -303 -102.5t-275.5 107t-103.5 294.5z
M929.5 1112q-63.5 0 -108.5 45t-45 110t44 108.5t108.5 43.5t109.5 -45t45 -108.5t-45 -108.5t-108.5 -45zM481.5 1112q-63.5 0 -108.5 45t-45 110t45 108.5t108.5 43.5t107.5 -45t44 -108.5t-44 -108.5t-107.5 -45z" />
    <glyph glyph-name="adieresis.ss02" horiz-adv-x="1069" 
d="M403 178q150 0 195 187l6 34h-117q-92 0 -139 -33.5t-47 -85t27.5 -77t74.5 -25.5zM889 256q0 -43 78 -63q-16 -147 -109 -228q-109 2 -166 28.5t-84 98.5h-6q-127 -129 -319 -129q-125 0 -208 67.5t-83 190.5q0 168 131 261t354 96h158l6 28q4 25 4 37q0 104 -150 104.5
t-268 -85.5q-98 70 -100 192q61 53 176 99t256 46q393 0 393 -313q0 -51 -12 -113l-47 -278q-4 -21 -4 -39zM804.5 1112q-63.5 0 -108.5 45t-45 110t45 108.5t108.5 43.5t108.5 -45t45 -108.5t-45 -108.5t-108.5 -45zM356.5 1112q-63.5 0 -108.5 45t-45 110t44 108.5
t108 43.5t108.5 -45t44.5 -108.5t-44 -108.5t-107.5 -45z" />
    <glyph glyph-name="adieresis.ss03" horiz-adv-x="1032" 
d="M307 281q0 -100 139 -101q59 0 136 21l32 182q-59 20 -145 20q-162 1 -162 -122zM539 999q231 0 340.5 -106.5t68.5 -325.5l-90 -514q-230 -86 -442 -86q-420 0 -420 283q0 164 131 256t334 88q109 -4 184 -27l6 31q12 68 -28.5 109t-162.5 41t-231 -70q-98 68 -96 211
q55 39 165 74.5t241 35.5zM823.5 1112q-63.5 0 -108.5 45t-45 110t44 108.5t108 43.5t109.5 -45t45.5 -108.5t-45 -108.5t-108.5 -45zM374.5 1112q-63.5 0 -108.5 45t-45 110t45 108.5t108.5 43.5t107.5 -45t44 -108.5t-44 -108.5t-107.5 -45z" />
    <glyph glyph-name="agrave.ss01" horiz-adv-x="1165" 
d="M346 416q0 -92 43 -141.5t124 -49.5t149 60l77 436q-59 16 -110 16q-123 0 -203 -84.5t-80 -236.5zM33 367q0 281 182 456.5t444.5 175.5t419.5 -90l-106 -594q-16 -90 76 -120q-12 -141 -103 -228q-164 12 -231 101q-131 -102 -303 -102.5t-275.5 107t-103.5 294.5z
M924 1167q-31 -74 -90 -112l-404 225q49 156 182 223z" />
    <glyph glyph-name="agrave.ss02" horiz-adv-x="1069" 
d="M403 178q150 0 195 187l6 34h-117q-92 0 -139 -33.5t-47 -85t27.5 -77t74.5 -25.5zM889 256q0 -43 78 -63q-16 -147 -109 -228q-109 2 -166 28.5t-84 98.5h-6q-127 -129 -319 -129q-125 0 -208 67.5t-83 190.5q0 168 131 261t354 96h158l6 28q4 25 4 37q0 104 -150 104.5
t-268 -85.5q-98 70 -100 192q61 53 176 99t256 46q393 0 393 -313q0 -51 -12 -113l-47 -278q-4 -21 -4 -39zM799 1167q-31 -74 -90 -112l-404 225q49 156 182 223z" />
    <glyph glyph-name="agrave.ss03" horiz-adv-x="1032" 
d="M307 281q0 -100 139 -101q59 0 136 21l32 182q-59 20 -145 20q-162 1 -162 -122zM539 999q231 0 340.5 -106.5t68.5 -325.5l-90 -514q-230 -86 -442 -86q-420 0 -420 283q0 164 131 256t334 88q109 -4 184 -27l6 31q12 68 -28.5 109t-162.5 41t-231 -70q-98 68 -96 211
q55 39 165 74.5t241 35.5zM817 1167q-31 -74 -90 -112l-403 225q49 156 182 223z" />
    <glyph glyph-name="amacron.ss01" horiz-adv-x="1165" 
d="M346 416q0 -92 43 -141.5t124 -49.5t149 60l77 436q-59 16 -110 16q-123 0 -203 -84.5t-80 -236.5zM33 367q0 281 182 456.5t444.5 175.5t419.5 -90l-106 -594q-16 -90 76 -120q-12 -141 -103 -228q-164 12 -231 101q-131 -102 -303 -102.5t-275.5 107t-103.5 294.5z
M375 1206q0 86 43 172h618v-45q0 -92 -41 -184h-616q-4 14 -4 57z" />
    <glyph glyph-name="amacron.ss02" horiz-adv-x="1069" 
d="M403 178q150 0 195 187l6 34h-117q-92 0 -139 -33.5t-47 -85t27.5 -77t74.5 -25.5zM889 256q0 -43 78 -63q-16 -147 -109 -228q-109 2 -166 28.5t-84 98.5h-6q-127 -129 -319 -129q-125 0 -208 67.5t-83 190.5q0 168 131 261t354 96h158l6 28q4 25 4 37q0 104 -150 104.5
t-268 -85.5q-98 70 -100 192q61 53 176 99t256 46q393 0 393 -313q0 -51 -12 -113l-47 -278q-4 -21 -4 -39zM250 1206q0 86 43 172h618v-45q0 -92 -41 -184h-616q-4 14 -4 57z" />
    <glyph glyph-name="amacron.ss03" horiz-adv-x="1032" 
d="M307 281q0 -100 139 -101q59 0 136 21l32 182q-59 20 -145 20q-162 1 -162 -122zM539 999q231 0 340.5 -106.5t68.5 -325.5l-90 -514q-230 -86 -442 -86q-420 0 -420 283q0 164 131 256t334 88q109 -4 184 -27l6 31q12 68 -28.5 109t-162.5 41t-231 -70q-98 68 -96 211
q55 39 165 74.5t241 35.5zM270 1206q0 86 43 172h619v-45q0 -92 -41 -184h-617q-4 14 -4 57z" />
    <glyph glyph-name="aogonek.ss01" horiz-adv-x="1167" 
d="M346 414q0 -92 43 -140t123 -49q80 0 152 58l77 438q-51 16 -112 16q-123 1 -203 -85t-80 -238zM791 -164q0 -55 61 -55q39 0 102 41q35 -23 58 -65t16 -89q-109 -100 -264 -100q-90 0 -148 46q-57 46 -57 122q0 168 223 278q-45 25 -69 58q-137 -106 -309 -106t-271 106
q-100 106 -100 293q0 281 182 457q183 176 445 177q262 0 419 -90l-106 -596q-10 -53 10 -77t68 -41q-23 -150 -82 -226q-80 -8 -129 -49t-49 -84z" />
    <glyph glyph-name="aogonek.ss02" horiz-adv-x="1073" 
d="M403 178q152 0 197 193l4 28h-117q-92 1 -139 -33t-47 -86q-1 -52 27 -76q28 -26 75 -26zM688 -432q-92 0 -148 46t-57 122q0 160 207 266q-59 33 -67 107h-5q-135 -145 -335 -146q-125 0 -208 68t-83 190q0 168 131 261t354 96h158l6 28q25 142 -135 142q-84 0 -159 -27
t-120 -59q-98 70 -100 192q61 53 178 99t258 46q215 0 317 -103t60 -323l-47 -278q-14 -76 74 -94q-10 -143 -72 -232q-80 -8 -130 -46t-50 -85q0 -57 61 -57q43 0 84 37q37 -18 64 -60t26 -90q-104 -100 -262 -100z" />
    <glyph glyph-name="aogonek.ss03" horiz-adv-x="1032" 
d="M307 281q0 -100 139 -101q59 0 136 21l32 182q-59 20 -145 20q-162 1 -162 -122zM397 -33q-401 1 -401 295q0 152 131 244t334 88q109 -4 184 -27l6 31q12 68 -28.5 109t-162.5 41t-231 -70q-98 68 -96 211q55 39 165 74.5t241 35.5q231 0 340.5 -106.5t68.5 -325.5
l-90 -514h-2l-4 -2q-186 -117 -186 -205q0 -66 67 -65q33 0 80 35q78 -43 90 -148q-96 -100 -250 -100q-96 0 -158.5 47t-62.5 125q0 123 127 237q-88 -10 -162 -10z" />
    <glyph glyph-name="aring.ss01" horiz-adv-x="1165" 
d="M346 416q0 -92 43 -141.5t124 -49.5t149 60l77 436q-59 16 -110 16q-123 0 -203 -84.5t-80 -236.5zM33 367q0 281 182 456.5t444.5 175.5t419.5 -90l-106 -594q-16 -90 76 -120q-12 -141 -103 -228q-164 12 -231 101q-131 -102 -303 -102.5t-275.5 107t-103.5 294.5z
M710 1366q-38 0 -60.5 -26.5t-22.5 -64.5t21.5 -59.5t53.5 -21.5q86 0 86 94q0 35 -20 56.5t-58 21.5zM698.5 1042q-106.5 0 -170 57.5t-63.5 164t73.5 179.5t177 73t168 -56.5t64.5 -164t-71.5 -180.5t-178 -73z" />
    <glyph glyph-name="aring.ss02" horiz-adv-x="1069" 
d="M403 178q150 0 195 187l6 34h-117q-92 0 -139 -33.5t-47 -85t27.5 -77t74.5 -25.5zM889 256q0 -43 78 -63q-16 -147 -109 -228q-109 2 -166 28.5t-84 98.5h-6q-127 -129 -319 -129q-125 0 -208 67.5t-83 190.5q0 168 131 261t354 96h158l6 28q4 25 4 37q0 104 -150 104.5
t-268 -85.5q-98 70 -100 192q61 53 176 99t256 46q393 0 393 -313q0 -51 -12 -113l-47 -278q-4 -21 -4 -39zM585 1366q-38 0 -60.5 -26.5t-22.5 -64.5t21.5 -59.5t54.5 -21.5q86 0 86 94q0 35 -20.5 56.5t-58.5 21.5zM573.5 1042q-106.5 0 -170 57.5t-63.5 164t73.5 179.5
t177 73t168 -56.5t64.5 -164t-71.5 -180.5t-178 -73z" />
    <glyph glyph-name="aring.ss03" horiz-adv-x="1032" 
d="M307 281q0 -100 139 -101q59 0 136 21l32 182q-59 20 -145 20q-162 1 -162 -122zM539 999q231 0 340.5 -106.5t68.5 -325.5l-90 -514q-230 -86 -442 -86q-420 0 -420 283q0 164 131 256t334 88q109 -4 184 -27l6 31q12 68 -28.5 109t-162.5 41t-231 -70q-98 68 -96 211
q55 39 165 74.5t241 35.5zM603 1366q-38 0 -60.5 -26.5t-22.5 -64.5t21.5 -59.5t54.5 -21.5q86 0 86 94q0 35 -20.5 56.5t-58.5 21.5zM592.5 1042q-106.5 0 -170.5 57.5t-64 164t74 179.5t177 73t168 -56.5t65 -164t-71.5 -180.5t-178 -73z" />
    <glyph glyph-name="atilde.ss01" horiz-adv-x="1165" 
d="M346 416q0 -92 43 -141.5t124 -49.5t149 60l77 436q-59 16 -110 16q-123 0 -203 -84.5t-80 -236.5zM33 367q0 281 182 456.5t444 175.5t420 -90l-106 -594q-16 -90 76 -120q-12 -141 -103 -228q-164 12 -231 101q-131 -102 -303 -102.5t-275.5 107t-103.5 294.5z
M829 1362q63 0 99 88q129 0 196 -74q-35 -117 -107.5 -181.5t-157.5 -65.5t-158.5 37t-110.5 38q-74 0 -107 -94q-51 0 -110.5 20.5t-83.5 55.5q37 119 109.5 185.5t158.5 67.5t164 -38t108 -39z" />
    <glyph glyph-name="atilde.ss02" horiz-adv-x="1069" 
d="M403 178q150 0 195 187l6 34h-117q-92 0 -139 -33.5t-47 -85t27.5 -77t74.5 -25.5zM889 256q0 -43 78 -63q-16 -147 -109 -228q-109 2 -166 28.5t-84 98.5h-6q-127 -129 -319 -129q-125 0 -208 67.5t-83 190.5q0 168 131 261t354 96h158l6 28q4 25 4 37q0 104 -150 104.5
t-268 -85.5q-98 70 -100 192q61 53 176 99t256 46q393 0 393 -313q0 -51 -12 -113l-47 -278q-4 -21 -4 -39zM705 1362q63 0 98 88q129 0 196 -74q-35 -117 -107.5 -181.5t-157.5 -65.5t-158.5 37t-110.5 38q-74 0 -107 -94q-51 0 -110.5 20.5t-83.5 55.5q37 119 109.5 185.5
t158.5 67.5t164 -38t109 -39z" />
    <glyph glyph-name="atilde.ss03" horiz-adv-x="1032" 
d="M307 281q0 -100 139 -101q59 0 136 21l32 182q-59 20 -145 20q-162 1 -162 -122zM539 999q231 0 340.5 -106.5t68.5 -325.5l-90 -514q-230 -86 -442 -86q-420 0 -420 283q0 164 131 256t334 88q109 -4 184 -27l6 31q12 68 -28.5 109t-162.5 41t-231 -70q-98 68 -96 211
q55 39 165 74.5t241 35.5zM723 1362q63 0 98 88q129 0 197 -74q-35 -117 -107.5 -181.5t-158 -65.5t-159 37t-110.5 38q-73 0 -106 -94q-51 0 -110.5 20.5t-84.5 55.5q37 119 110 185.5t159 67.5t163.5 -38t108.5 -39z" />
    <glyph glyph-name="b.ss01" horiz-adv-x="1124" 
d="M475 229q117 0 196 89.5t79 238.5q0 90 -38 137t-104 47q-123 0 -186 -114l-68 -383q55 -15 121 -15zM723.5 999q149.5 0 244.5 -103t95 -288q0 -287 -178 -465t-440.5 -178t-430.5 88l226 1288q61 12 153 12.5t156 -12.5l-74 -411q99 69 248.5 69z" />
    <glyph glyph-name="d.ss01" horiz-adv-x="1122" 
d="M346 408q0 -90 39 -136.5t104 -46.5q111 0 179 99l69 389q-49 25 -119 24q-119 0 -195.5 -86.5t-76.5 -242.5zM998 1354q77 0 157 -13l-242 -1351q-57 -10 -112 -10t-103 10l-4 108q-131 -133 -300 -133t-265 104.5t-96 284.5q0 289 176 467t448 178q78 0 129 -8l62 350
q73 13 150 13z" />
    <glyph glyph-name="dcaron.ss01" horiz-adv-x="1122" 
d="M346 408q0 -90 39 -136.5t104 -46.5q111 0 179 99l69 389q-49 25 -119 24q-119 0 -195.5 -86.5t-76.5 -242.5zM801 -20q-55 0 -103 10l-4 108q-131 -133 -300 -133t-265 104.5t-96 284.5q0 289 176 467t448 178q78 0 129 -8l62 350q154 25 307 0l-242 -1351
q-57 -10 -112 -10zM1429 1470q74 0 115 -26v-33q0 -125 -63.5 -235.5t-149.5 -180.5q-80 4 -100 62q74 143 74 293q0 61 -9 92q59 28 133 28z" />
    <glyph glyph-name="dcroat.ss01" horiz-adv-x="1122" 
d="M346 408q0 -90 39 -136.5t104 -46.5q111 0 179 99l69 389q-49 25 -119 24q-119 0 -195.5 -86.5t-76.5 -242.5zM801 -20q-55 0 -103 10l-4 108q-131 -133 -300 -133t-265 104.5t-96 284.5q0 289 176 467t448 178q78 0 129 -8l17 94h-162q-16 84 25 172h168l14 84
q154 25 307 0l-14 -84h151q8 -92 -24 -172h-158l-197 -1095q-57 -10 -112 -10z" />
    <glyph glyph-name="e.ss02" horiz-adv-x="1060" 
d="M713 646q0 44 -34 83t-101 39q-152 0 -205 -184h334q6 18 6 62zM997 616q0 -113 -32 -206h-613q4 -104 56.5 -151.5t165 -47.5t237.5 82q45 -33 73.5 -91.5t28.5 -117.5q-182 -119 -405 -119t-344 116t-121 325q0 283 158.5 438t396.5 155q195 0 297 -104.5t102 -278.5z
" />
    <glyph glyph-name="e.ss03" horiz-adv-x="1036" 
d="M684 678q0 84 -123 84q-62 0 -115.5 -47t-80.5 -131h210q109 0 109 94zM991 699q0 -139 -98 -218.5t-283 -81.5l-262 -2q18 -182 211 -182q115 0 244 78q47 -33 69.5 -94.5t24.5 -122.5q-174 -111 -393.5 -111t-342 115t-122.5 319q0 268 161.5 435t407.5 165
q180 0 281.5 -80.5t101.5 -219.5z" />
    <glyph glyph-name="eacute.ss02" horiz-adv-x="1060" 
d="M713 646q0 44 -34 83t-101 39q-152 0 -205 -184h334q6 18 6 62zM997 616q0 -113 -32 -206h-613q4 -104 56.5 -151.5t165 -47.5t237.5 82q45 -33 73.5 -91.5t28.5 -117.5q-182 -119 -405 -119t-344 116t-121 325q0 283 158.5 438t396.5 155q195 0 297 -104.5t102 -278.5z
M465 1055q-63 41 -84 114l350 340q129 -70 172 -229z" />
    <glyph glyph-name="eacute.ss03" horiz-adv-x="1036" 
d="M684 678q0 84 -123 84q-62 0 -115.5 -47t-80.5 -131h210q109 0 109 94zM991 699q0 -139 -98 -218.5t-283 -81.5l-262 -2q18 -182 211 -182q115 0 244 78q47 -33 69.5 -94.5t24.5 -122.5q-174 -111 -393.5 -111t-342 115t-122.5 319q0 268 161.5 435t407.5 165
q180 0 281.5 -80.5t101.5 -219.5zM449 1055q-63 41 -84 114l350 340q129 -70 172 -229z" />
    <glyph glyph-name="ecaron.ss02" horiz-adv-x="1060" 
d="M713 646q0 44 -34 83t-101 39q-152 0 -205 -184h334q6 18 6 62zM997 616q0 -113 -32 -206h-613q4 -104 56.5 -151.5t165 -47.5t237.5 82q45 -33 73.5 -91.5t28.5 -117.5q-182 -119 -405 -119t-344 116t-121 325q0 283 158.5 438t396.5 155q195 0 297 -104.5t102 -278.5z
M664 1077q-70 -12 -142 0l-235 279q35 86 125 125l202 -172l263 170q82 -35 94 -119z" />
    <glyph glyph-name="ecaron.ss03" horiz-adv-x="1036" 
d="M684 678q0 84 -123 84q-62 0 -115.5 -47t-80.5 -131h210q109 0 109 94zM991 699q0 -139 -98 -218.5t-283 -81.5l-262 -2q18 -182 211 -182q115 0 244 78q47 -33 69.5 -94.5t24.5 -122.5q-174 -111 -393.5 -111t-342 115t-122.5 319q0 268 161.5 435t407.5 165
q180 0 281.5 -80.5t101.5 -219.5zM647 1077q-70 -12 -141 0l-236 279q35 86 125 125l203 -172l262 170q82 -35 94 -119z" />
    <glyph glyph-name="ecircumflex.ss02" horiz-adv-x="1060" 
d="M713 646q0 44 -34 83t-101 39q-152 0 -205 -184h334q6 18 6 62zM997 616q0 -113 -32 -206h-613q4 -104 56.5 -151.5t165 -47.5t237.5 82q45 -33 73.5 -91.5t28.5 -117.5q-182 -119 -405 -119t-344 116t-121 325q0 283 158.5 438t396.5 155q195 0 297 -104.5t102 -278.5z
M369 1069q-84 35 -97 119l310 289q70 14 141 0l238 -287q-33 -84 -125 -123l-203 178z" />
    <glyph glyph-name="ecircumflex.ss03" horiz-adv-x="1036" 
d="M684 678q0 84 -123 84q-62 0 -115.5 -47t-80.5 -131h210q109 0 109 94zM991 699q0 -139 -98 -218.5t-283 -81.5l-262 -2q18 -182 211 -182q115 0 244 78q47 -33 69.5 -94.5t24.5 -122.5q-174 -111 -393.5 -111t-342 115t-122.5 319q0 268 161.5 435t407.5 165
q180 0 281.5 -80.5t101.5 -219.5zM354 1069q-84 35 -96 119l309 289q72 14 142 0l237 -287q-33 -84 -125 -123l-203 178z" />
    <glyph glyph-name="edieresis.ss02" horiz-adv-x="1060" 
d="M713 646q0 44 -34 83t-101 39q-152 0 -205 -184h334q6 18 6 62zM598 999q195 0 297 -104t102 -279q0 -113 -32 -206h-613q4 -104 56.5 -151.5t165 -47.5t237.5 82q45 -33 73.5 -91.5t28.5 -117.5q-182 -119 -405 -119t-344 116t-121 325q0 283 158.5 438t396.5 155z
M856.5 1112q-63.5 0 -109 45t-45.5 110t44.5 108.5t108.5 43.5t109.5 -45t45.5 -108.5t-45 -108.5t-108.5 -45zM407.5 1112q-63.5 0 -108.5 45t-45 110t45 108.5t108.5 43.5t107.5 -45t44 -108.5t-44 -108.5t-107.5 -45z" />
    <glyph glyph-name="edieresis.ss03" horiz-adv-x="1036" 
d="M684 678q0 84 -123 84q-62 0 -116 -47t-80 -131h210q109 0 109 94zM991 699q0 -139 -98 -218.5t-283 -81.5l-262 -2q18 -182 211 -182q115 0 244 78q47 -33 69.5 -94.5t24.5 -122.5q-174 -111 -393.5 -111t-342 115t-122.5 319q0 268 161.5 435t407.5 165
q180 0 281.5 -80.5t101.5 -219.5zM839.5 1112q-63.5 0 -108.5 45t-45 110t44 108.5t108.5 43.5t109.5 -45t45 -108.5t-45 -108.5t-108.5 -45zM391.5 1112q-63.5 0 -108.5 45t-45 110t45 108.5t108.5 43.5t107.5 -45t44 -108.5t-44 -108.5t-107.5 -45z" />
    <glyph glyph-name="edotaccent.ss02" horiz-adv-x="1060" 
d="M713 646q0 44 -34 83t-101 39q-152 0 -205 -184h334q6 18 6 62zM997 616q0 -113 -32 -206h-613q4 -104 56.5 -151.5t165 -47.5t237.5 82q45 -33 73.5 -91.5t28.5 -117.5q-182 -119 -405 -119t-344 116t-121 325q0 283 158.5 438t396.5 155q195 0 297 -104.5t102 -278.5z
M631 1096q-76 0 -129 53t-53 129t53 130t129 54t129 -54t53 -130t-53 -129t-129 -53z" />
    <glyph glyph-name="edotaccent.ss03" horiz-adv-x="1036" 
d="M684 678q0 84 -123 84q-62 0 -115.5 -47t-80.5 -131h210q109 0 109 94zM991 699q0 -139 -98 -218.5t-283 -81.5l-262 -2q18 -182 211 -182q115 0 244 78q47 -33 69.5 -94.5t24.5 -122.5q-174 -111 -393.5 -111t-342 115t-122.5 319q0 268 161.5 435t407.5 165
q180 0 281.5 -80.5t101.5 -219.5zM614.5 1096q-75.5 0 -129 53t-53.5 129t53.5 130t129 54t129 -54t53.5 -130t-53.5 -129t-129 -53z" />
    <glyph glyph-name="egrave.ss02" horiz-adv-x="1060" 
d="M713 646q0 44 -34 83t-101 39q-152 0 -205 -184h334q6 18 6 62zM997 616q0 -113 -32 -206h-613q4 -104 56.5 -151.5t165 -47.5t237.5 82q45 -33 73.5 -91.5t28.5 -117.5q-182 -119 -405 -119t-344 116t-121 325q0 283 158.5 438t396.5 155q195 0 297 -104.5t102 -278.5z
M850 1167q-31 -74 -90 -112l-404 225q49 156 183 223z" />
    <glyph glyph-name="egrave.ss03" horiz-adv-x="1036" 
d="M684 678q0 84 -123 84q-62 0 -115.5 -47t-80.5 -131h210q109 0 109 94zM991 699q0 -139 -98 -218.5t-283 -81.5l-262 -2q18 -182 211 -182q115 0 244 78q47 -33 69.5 -94.5t24.5 -122.5q-174 -111 -393.5 -111t-342 115t-122.5 319q0 268 161.5 435t407.5 165
q180 0 281.5 -80.5t101.5 -219.5zM834 1167q-31 -74 -91 -112l-403 225q49 156 182 223z" />
    <glyph glyph-name="emacron.ss02" horiz-adv-x="1060" 
d="M713 646q0 44 -34 83t-101 39q-152 0 -205 -184h334q6 18 6 62zM997 616q0 -113 -32 -206h-613q4 -104 56.5 -151.5t165 -47.5t237.5 82q45 -33 73.5 -91.5t28.5 -117.5q-182 -119 -405 -119t-344 116t-121 325q0 283 158.5 438t396.5 155q195 0 297 -104.5t102 -278.5z
M301 1206q0 86 43 172h619v-45q0 -92 -41 -184h-617q-4 14 -4 57z" />
    <glyph glyph-name="emacron.ss03" horiz-adv-x="1036" 
d="M684 678q0 84 -123 84q-62 0 -115.5 -47t-80.5 -131h210q109 0 109 94zM991 699q0 -139 -98 -218.5t-283 -81.5l-262 -2q18 -182 211 -182q115 0 244 78q47 -33 69.5 -94.5t24.5 -122.5q-174 -111 -393.5 -111t-342 115t-122.5 319q0 268 161.5 435t407.5 165
q180 0 281.5 -80.5t101.5 -219.5zM287 1206q0 86 43 172h618v-45q0 -92 -41 -184h-616q-4 14 -4 57z" />
    <glyph glyph-name="eogonek.ss02" horiz-adv-x="1060" 
d="M713 646q0 44 -34 83t-101 39q-152 0 -205 -184h334q6 18 6 62zM997 616q0 -113 -32 -206h-613q4 -104 56.5 -151.5t165 -47.5t237.5 82q45 -33 73.5 -91.5t28.5 -117.5q-37 -25 -86 -49q-162 -102 -161 -189q0 -66 67 -65q33 0 80 35q78 -43 90 -148q-96 -100 -250 -100
q-96 0 -158.5 47t-62.5 125q0 117 115 227q-14 -2 -45 -2q-217 0 -338 116t-121 325q0 283 158.5 438t396.5 155q195 0 297 -104.5t102 -278.5z" />
    <glyph glyph-name="eogonek.ss03" horiz-adv-x="1036" 
d="M684 678q0 84 -123 84q-62 0 -115.5 -47t-80.5 -131h210q109 0 109 94zM991 699q0 -139 -98 -218.5t-283 -81.5l-262 -2q18 -182 211 -182q115 0 244 78q47 -33 69.5 -94.5t24.5 -122.5q-70 -45 -137 -68q-123 -88 -123 -158t68 -69q33 0 79 35q78 -43 90 -148
q-96 -100 -249 -100q-96 0 -159 47t-63 125q0 117 113 225h-27q-205 0 -327.5 115t-122.5 319q0 268 161.5 435t407.5 165q180 0 281.5 -80.5t101.5 -219.5z" />
    <glyph glyph-name="f.ss01" horiz-adv-x="722" 
d="M709 1366q139 0 239 -61q-10 -61 -46 -125t-73 -95q-51 31 -127 31q-121 0 -143 -133l-6 -31h199q8 -125 -43 -250h-197l-117 -690q-39 -223 -143.5 -329.5t-312.5 -106.5q-141 0 -244 64q10 61 45 123.5t72 93.5q55 -33 127 -33q119 0 143 135l125 746h-137
q-10 123 43 247h137q39 209 147.5 311.5t311.5 102.5z" />
    <glyph glyph-name="g.ss01" horiz-adv-x="1101" 
d="M375 -199q88 0 145.5 54.5t75.5 148.5l12 68q-57 -12 -94 -15q-250 -33 -250 -163q0 -93 111 -93zM610 750q-111 0 -181.5 -70t-70.5 -199q0 -84 46.5 -132t120 -48t126.5 18l72 414q-50 17 -113 17zM342 -414q-160 0 -261 61.5t-101 180.5q0 188 233 289
q-168 98 -168 323q0 256 176 411t430 154.5t408 -102.5h2l-154 -858q-39 -223 -193.5 -341t-371.5 -118z" />
    <glyph glyph-name="g.ss02" horiz-adv-x="1046" 
d="M360 590q0 -125 148 -125q74 0 122 50t48 117.5t-19 129.5h-90q-96 0 -152.5 -49t-56.5 -123zM481 240q-66 0 -112 8q-12 -25 -13 -45q0 -31 54.5 -46.5t132.5 -26.5t154.5 -32.5t131 -82t54.5 -158.5q0 -145 -121 -232.5t-407.5 -87.5t-438.5 109q29 139 137 200
q109 -90 315 -90t205 74q0 51 -182 73q-76 9 -151.5 27.5t-129 69.5t-53.5 133q0 109 113 186q-109 82 -109 242q0 201 147.5 316.5t385.5 115.5h129q55 0 92 23.5t98 101.5q138 -29 195 -133q-82 -143 -186 -190q35 -72 34 -162q0 -182 -132 -287.5t-343 -105.5z" />
    <glyph glyph-name="g.ss03" horiz-adv-x="1075" 
d="M346 543q0 -170 158 -170q98 0 143 61.5t45 157.5q0 172 -155 172q-82 0 -136.5 -57.5t-54.5 -163.5zM377 -420q-328 0 -455 207q25 61 81 111.5t132 72.5q94 -139 262 -139q104 0 159.5 58.5t55.5 136.5t-63 123q-41 -4 -68 -5q-211 0 -322.5 101.5t-111.5 271.5
q0 231 149.5 354t391.5 123h117q143 0 223 127q137 -39 192 -145q-61 -127 -217 -182q63 -82 64 -195q0 -203 -131 -330q70 -82 69 -198q0 -225 -147.5 -358.5t-380.5 -133.5z" />
    <glyph glyph-name="g.ss04" horiz-adv-x="1073" 
d="M371 588q1 -123 147 -123q74 0 122 50t48 117.5t-18 129.5h-92q-94 0 -150.5 -48t-56.5 -126zM967 633q0 -182 -132.5 -287.5t-342.5 -105.5h-86q-53 0 -81 -27t-28 -61q0 -72 78 -72h538v-43q0 -96 -45 -207h-557q-139 0 -221 55.5t-82 173.5q0 174 166 265
q-102 82 -102 237q0 205 149.5 318.5t388.5 113.5h123q55 0 92 23.5t99 101.5q137 -29 192 -133q-78 -141 -184 -190q35 -72 35 -162z" />
    <glyph glyph-name="gbreve.ss01" horiz-adv-x="1101" 
d="M375 -199q88 0 145.5 54.5t75.5 148.5l12 68q-57 -12 -94 -15q-250 -33 -250 -163q0 -93 111 -93zM610 750q-111 0 -181.5 -70t-70.5 -199q0 -84 46.5 -132t120 -48t126.5 18l72 414q-50 17 -113 17zM342 -414q-160 0 -261 61.5t-101 180.5q0 188 233 289
q-168 98 -168 323q0 256 176 411t430 154.5t408 -102.5h2l-154 -858q-39 -223 -193.5 -341t-371.5 -118zM644 1081q-169 0 -249 102.5t-63 237.5q80 35 182 25q6 -76 51 -115t112 -39t118 40t71 114q111 14 178 -25q-14 -131 -122.5 -235.5t-277.5 -104.5z" />
    <glyph glyph-name="gbreve.ss02" horiz-adv-x="1046" 
d="M360 590q0 -125 148 -125q74 0 122 50t48 117.5t-19 129.5h-90q-96 0 -152.5 -49t-56.5 -123zM481 240q-66 0 -112 8q-12 -25 -13 -45q0 -31 54.5 -46.5t132.5 -26.5t154.5 -32.5t131 -82t54.5 -158.5q0 -145 -121 -232.5t-407.5 -87.5t-438.5 109q29 139 137 200
q109 -90 315 -90t205 74q0 51 -182 73q-76 9 -151.5 27.5t-129 69.5t-53.5 133q0 109 113 186q-109 82 -109 242q0 201 147.5 316.5t385.5 115.5h129q55 0 92 23.5t98 101.5q138 -29 195 -133q-82 -143 -186 -190q35 -72 34 -162q0 -182 -132 -287.5t-343 -105.5zM558 1081
q-169 0 -249 102.5t-63 237.5q80 35 182 25q6 -76 51 -115t112 -39t118 40t71 114q111 14 178 -25q-14 -131 -122.5 -235.5t-277.5 -104.5z" />
    <glyph glyph-name="gbreve.ss03" horiz-adv-x="1075" 
d="M346 543q0 -170 158 -170q98 0 143 61.5t45 157.5q0 172 -155 172q-82 0 -136.5 -57.5t-54.5 -163.5zM377 -420q-328 0 -455 207q25 61 81 111.5t132 72.5q94 -139 262 -139q104 0 159.5 58.5t55.5 136.5t-63 123q-41 -4 -68 -5q-211 0 -322.5 101.5t-111.5 271.5
q0 231 149.5 354t391.5 123h117q143 0 223 127q137 -39 192 -145q-61 -127 -217 -182q63 -82 64 -195q0 -203 -131 -330q70 -82 69 -198q0 -225 -147.5 -358.5t-380.5 -133.5zM546 1081q-169 0 -249 102.5t-64 237.5q80 35 183 25q6 -76 51 -115t111.5 -39t118 40t71.5 114
q111 14 178 -25q-14 -131 -122.5 -235.5t-277.5 -104.5z" />
    <glyph glyph-name="gbreve.ss04" horiz-adv-x="1073" 
d="M371 588q1 -123 147 -123q74 0 122 50t48 117.5t-18 129.5h-92q-94 0 -150.5 -48t-56.5 -126zM967 633q0 -182 -132.5 -287.5t-342.5 -105.5h-86q-53 0 -81 -27t-28 -61q0 -72 78 -72h538v-43q0 -96 -45 -207h-557q-139 0 -221 55.5t-82 173.5q0 174 166 265
q-102 82 -102 237q0 205 149.5 318.5t388.5 113.5h123q55 0 92 23.5t99 101.5q137 -29 192 -133q-78 -141 -184 -190q35 -72 35 -162zM583 1081q-169 0 -249 102.5t-64 237.5q80 35 183 25q6 -76 51 -115t111.5 -39t117.5 40t72 114q111 14 178 -25q-14 -131 -122.5 -235.5
t-277.5 -104.5z" />
    <glyph glyph-name="gcommaaccent.ss01" horiz-adv-x="1101" 
d="M375 -199q88 0 145.5 54.5t75.5 148.5l12 68q-57 -12 -94 -15q-250 -33 -250 -163q0 -93 111 -93zM610 750q-111 0 -181.5 -70t-70.5 -199q0 -84 46.5 -132t120 -48t126.5 18l72 414q-50 17 -113 17zM342 -414q-160 0 -261 61.5t-101 180.5q0 188 233 289
q-168 98 -168 323q0 256 176 411t430 154.5t408 -102.5h2l-154 -858q-39 -223 -193.5 -341t-371.5 -118zM627 1040q-68 0 -111 23q0 31 6 51q12 109 66.5 203t134.5 151q82 -4 111 -73q-82 -135 -82 -258q0 -31 4 -72q-61 -25 -129 -25z" />
    <glyph glyph-name="gcommaaccent.ss02" horiz-adv-x="1046" 
d="M360 590q0 -125 148 -125q74 0 122 50t48 117.5t-19 129.5h-90q-96 0 -152.5 -49t-56.5 -123zM481 240q-66 0 -112 8q-12 -25 -13 -45q0 -31 54.5 -46.5t132.5 -26.5t154.5 -32.5t131 -82t54.5 -158.5q0 -145 -121 -232.5t-407.5 -87.5t-438.5 109q29 139 137 200
q109 -90 315 -90t205 74q0 51 -182 73q-76 9 -151.5 27.5t-129 69.5t-53.5 133q0 109 113 186q-109 82 -109 242q0 201 147.5 316.5t385.5 115.5h129q55 0 92 23.5t98 101.5q138 -29 195 -133q-82 -143 -186 -190q35 -72 34 -162q0 -182 -132 -287.5t-343 -105.5zM541 1040
q-68 0 -111 23q0 31 6 51q12 109 66.5 203t134.5 151q82 -4 111 -73q-82 -135 -82 -258q0 -31 4 -72q-61 -25 -129 -25z" />
    <glyph glyph-name="gcommaaccent.ss03" horiz-adv-x="1075" 
d="M346 543q0 -170 158 -170q98 0 143 61.5t45 157.5q0 172 -155 172q-82 0 -136.5 -57.5t-54.5 -163.5zM377 -420q-328 0 -455 207q25 61 81 111.5t132 72.5q94 -139 262 -139q104 0 159.5 58.5t55.5 136.5t-63 123q-41 -4 -68 -5q-211 0 -322.5 101.5t-111.5 271.5
q0 231 149.5 354t391.5 123h117q143 0 223 127q137 -39 192 -145q-61 -127 -217 -182q63 -82 64 -195q0 -203 -131 -330q70 -82 69 -198q0 -225 -147.5 -358.5t-380.5 -133.5zM528 1040q-68 0 -110 23q0 31 6 51q12 109 66.5 203t134.5 151q82 -4 110 -73q-82 -135 -82 -258
q0 -31 4 -72q-61 -25 -129 -25z" />
    <glyph glyph-name="gcommaaccent.ss04" horiz-adv-x="1073" 
d="M371 588q1 -123 147 -123q74 0 122 50t48 117.5t-18 129.5h-92q-94 0 -150.5 -48t-56.5 -126zM967 633q0 -182 -132.5 -287.5t-342.5 -105.5h-86q-53 0 -81 -27t-28 -61q0 -72 78 -72h538v-43q0 -96 -45 -207h-557q-139 0 -221 55.5t-82 173.5q0 174 166 265
q-102 82 -102 237q0 205 149.5 318.5t388.5 113.5h123q55 0 92 23.5t99 101.5q137 -29 192 -133q-78 -141 -184 -190q35 -72 35 -162zM565 1040q-68 0 -110 23q0 31 6 51q12 109 66.5 203t134.5 151q82 -4 110 -73q-82 -135 -82 -258q0 -31 4 -72q-61 -25 -129 -25z" />
    <glyph glyph-name="gdotaccent.ss01" horiz-adv-x="1101" 
d="M375 -199q88 0 145.5 54.5t75.5 148.5l12 68q-57 -12 -94 -15q-250 -33 -250 -163q0 -93 111 -93zM610 750q-111 0 -181.5 -70t-70.5 -199q0 -84 46.5 -132t120 -48t126.5 18l72 414q-50 17 -113 17zM342 -414q-160 0 -261 61.5t-101 180.5q0 188 233 289
q-168 98 -168 323q0 256 176 411t430 154.5t408 -102.5h2l-154 -858q-39 -223 -193.5 -341t-371.5 -118zM682 1096q-76 0 -129 53t-53 129t53 130t129 54t129 -54t53 -130t-53 -129t-129 -53z" />
    <glyph glyph-name="gdotaccent.ss02" horiz-adv-x="1046" 
d="M360 590q0 -125 148 -125q74 0 122 50t48 117.5t-19 129.5h-90q-96 0 -152.5 -49t-56.5 -123zM481 240q-66 0 -112 8q-12 -25 -13 -45q0 -31 54.5 -46.5t132.5 -26.5t154.5 -32.5t131 -82t54.5 -158.5q0 -145 -121 -232.5t-407.5 -87.5t-438.5 109q29 139 137 200
q109 -90 315 -90t205 74q0 51 -182 73q-76 9 -151.5 27.5t-129 69.5t-53.5 133q0 109 113 186q-109 82 -109 242q0 201 147.5 316.5t385.5 115.5h129q55 0 92 23.5t98 101.5q138 -29 195 -133q-82 -143 -186 -190q35 -72 34 -162q0 -182 -132 -287.5t-343 -105.5zM594 1096
q-76 0 -129 53t-53 129t53 130t129 54t129 -54t53 -130t-53 -129t-129 -53z" />
    <glyph glyph-name="gdotaccent.ss03" horiz-adv-x="1075" 
d="M346 543q0 -170 158 -170q98 0 143 61.5t45 157.5q0 172 -155 172q-82 0 -136.5 -57.5t-54.5 -163.5zM377 -420q-328 0 -455 207q25 61 81 111.5t132 72.5q94 -139 262 -139q104 0 159.5 58.5t55.5 136.5t-63 123q-41 -4 -68 -5q-211 0 -322.5 101.5t-111.5 271.5
q0 231 149.5 354t391.5 123h117q143 0 223 127q137 -39 192 -145q-61 -127 -217 -182q63 -82 64 -195q0 -203 -131 -330q70 -82 69 -198q0 -225 -147.5 -358.5t-380.5 -133.5zM583.5 1096q-75.5 0 -129 53t-53.5 129t53.5 130t129 54t129 -54t53.5 -130t-53.5 -129t-129 -53
z" />
    <glyph glyph-name="gdotaccent.ss04" horiz-adv-x="1073" 
d="M371 588q1 -123 147 -123q74 0 122 50t48 117.5t-18 129.5h-92q-94 0 -150.5 -48t-56.5 -126zM967 633q0 -182 -132.5 -287.5t-342.5 -105.5h-86q-53 0 -81 -27t-28 -61q0 -72 78 -72h538v-43q0 -96 -45 -207h-557q-139 0 -221 55.5t-82 173.5q0 174 166 265
q-102 82 -102 237q0 205 149.5 318.5t388.5 113.5h123q55 0 92 23.5t99 101.5q137 -29 192 -133q-78 -141 -184 -190q35 -72 35 -162zM618.5 1096q-75.5 0 -129 53t-53.5 129t53.5 130t129 54t129 -54t53.5 -130t-53.5 -129t-129 -53z" />
    <glyph glyph-name="k.ss01" horiz-adv-x="1132" 
d="M1079 725q0 -248 -241 -373l168 -342q-74 -25 -192 -24.5t-167 6.5l-139 307q-27 59 -27 117q281 27 281 205q0 47 -31 75.5t-84 28.5q-92 0 -161.5 -63.5t-86.5 -161.5l-88 -500q-74 -12 -151.5 -12t-153.5 12l236 1341q159 25 305 0l-78 -442q137 98 286.5 98
t236.5 -71.5t87 -200.5z" />
    <glyph glyph-name="k.ss02" horiz-adv-x="1087" 
d="M159.5 -12q-77.5 0 -153.5 12l236 1341q159 25 305 0l-129 -737q205 131 354 361q51 6 157.5 5.5t190.5 -14.5q-207 -289 -428 -471l320 -475q-70 -25 -202 -24.5t-181 6.5l-207 317q-41 -20 -62 -28l-49 -281q-74 -12 -151.5 -12z" />
    <glyph glyph-name="kcommaaccent.ss01" horiz-adv-x="1132" 
d="M348 -172q0 31 -4 72q61 25 129 24.5t111 -22.5q0 -31 -6 -52q-12 -109 -66.5 -202.5t-134.5 -151.5q-82 4 -111 74q82 135 82 258zM1079 725q0 -248 -241 -373l168 -342q-74 -25 -192 -24.5t-167 6.5l-139 307q-27 59 -27 117q281 27 281 205q0 47 -31 75.5t-84 28.5
q-92 0 -161.5 -63.5t-86.5 -161.5l-88 -500q-74 -12 -151.5 -12t-153.5 12l236 1341q159 25 305 0l-78 -442q137 98 286.5 98t236.5 -71.5t87 -200.5z" />
    <glyph glyph-name="kcommaaccent.ss02" horiz-adv-x="1087" 
d="M305 -172q0 31 -4 72q61 25 129 24.5t111 -22.5q0 -31 -6 -52q-12 -109 -66.5 -202.5t-134.5 -151.5q-82 4 -111 74q82 135 82 258zM159.5 -12q-77.5 0 -153.5 12l236 1341q159 25 305 0l-129 -737q205 131 354 361q51 6 157.5 5.5t190.5 -14.5q-207 -289 -428 -471
l320 -475q-70 -25 -202 -24.5t-181 6.5l-207 317q-41 -20 -62 -28l-49 -281q-74 -12 -151.5 -12z" />
    <glyph glyph-name="l.ss02" horiz-adv-x="522" 
d="M164 -12q-78 0 -156 12l236 1341q157 25 309 0l-238 -1341q-73 -12 -151 -12z" />
    <glyph glyph-name="lacute.ss02" horiz-adv-x="522" 
d="M164 -12q-78 0 -156 12l236 1341q157 25 309 0l-238 -1341q-73 -12 -151 -12zM223 1370q-53 51 -69 131l424 297q117 -88 127 -250z" />
    <glyph glyph-name="lcaron.ss02" horiz-adv-x="522" 
d="M164 -12q-78 0 -156 12l236 1341q157 25 309 0l-238 -1341q-73 -12 -151 -12zM672 1350q0 61 -8 92q59 29 133 28.5t114 -26.5v-33q0 -125 -63.5 -235.5t-149.5 -180.5q-80 4 -100 62q74 143 74 293z" />
    <glyph glyph-name="lcommaaccent.ss02" horiz-adv-x="522" 
d="M31 -172q0 31 -4 72q61 25 129 24.5t110 -22.5q0 -31 -6 -52q-12 -109 -66.5 -203t-134.5 -151q-82 4 -110 74q82 135 82 258zM164 -12q-78 0 -156 12l236 1341q157 25 309 0l-238 -1341q-73 -12 -151 -12z" />
    <glyph glyph-name="ldot.ss02" horiz-adv-x="763" 
d="M652 520q-67 0 -115 48t-48 115t48.5 115t115 48t113.5 -48t47 -115t-47 -115t-114 -48zM164 -12q-78 0 -156 12l236 1341q157 25 309 0l-238 -1341q-73 -12 -151 -12z" />
    <glyph glyph-name="lslash.ss02" horiz-adv-x="522" 
d="M163.5 -12q-77.5 0 -155.5 12l96 549l-96 -47q-37 25 -57.5 67.5t-13.5 83.5l204 101l103 587q157 25 309 0l-74 -419l84 41q74 -66 68 -158l-189 -92l-127 -713q-74 -12 -151.5 -12z" />
    <glyph glyph-name="p.ss01" horiz-adv-x="1122" 
d="M471 229q123 0 200 87t77 241q0 90 -40 137t-108 47q-113 0 -174 -94l-70 -397q49 -21 115 -21zM696 999q170 0 267.5 -104t97.5 -287q0 -289 -176 -466t-451 -177q-76 0 -127 8l-61 -350q-74 -12 -151 -12t-156 12l239 1350q57 10 114 10t101 -10l4 -105
q129 131 299 131z" />
    <glyph glyph-name="q.ss01" horiz-adv-x="1124" 
d="M487 225q125 0 189 115l67 381q-55 14 -120 14q-119 0 -198 -88t-79 -237q0 -90 37.5 -137.5t103.5 -47.5zM655 999q263 0 426 -96l-225 -1280q-74 -12 -152 -12t-155 12l74 412q-98 -70 -248 -70t-246 104.5t-96 286.5q0 287 179.5 465t442.5 178z" />
    <glyph glyph-name="v.ss01" horiz-adv-x="1093" 
d="M342.5 -35q-157.5 0 -229.5 60.5t-72 164.5q0 61 12 111l117 662q80 12 155.5 12t151.5 -12l-108 -611q-6 -27 -7 -51q0 -70 70 -70q51 0 125 72t133.5 206t59.5 255.5t-27 198.5q80 12 159 12t154 -12q25 -59 25 -175t-47 -260.5t-134 -272.5t-233.5 -209t-304 -81z" />
    <glyph glyph-name="v.ss02" horiz-adv-x="1056" 
d="M896 977q99 0 181 -23q-69 -301 -185 -523t-323 -431q-79 -14 -159 -14t-146 14q-94 213 -133 429t-53 525q98 23 194 23t138 -8q-16 -367 61 -682q4 -16 4 -29q6 12 19 29q92 121 152 273t95 411q56 6 155 6z" />
    <glyph glyph-name="w.ss02" horiz-adv-x="1517" 
d="M1369 977q87 0 177 -23q-84 -307 -187.5 -525t-279.5 -429q-72 -14 -151.5 -14t-143.5 14q-51 193 -53 418q-80 -231 -217 -418q-72 -14 -149.5 -14t-143.5 14q-76 225 -103.5 442t-29.5 512q100 23 188.5 23t139.5 -6q-23 -444 12 -686q2 -16 2 -45l19 45
q141 264 229 673q47 10 143 10.5t142 -10.5q-23 -467 6 -675q2 -14 2 -43q2 10 20 41q63 96 130 283.5t110 406.5q51 6 138 6z" />
    <glyph glyph-name="wacute.ss02" horiz-adv-x="1517" 
d="M1369 977q87 0 177 -23q-84 -307 -187.5 -525t-279.5 -429q-72 -14 -151.5 -14t-143.5 14q-51 193 -53 418q-80 -231 -217 -418q-72 -14 -149.5 -14t-143.5 14q-76 225 -103.5 442t-29.5 512q100 23 188.5 23t139.5 -6q-23 -444 12 -686q2 -16 2 -45l19 45
q141 264 229 673q47 10 143 10.5t142 -10.5q-23 -467 6 -675q2 -14 2 -43q2 10 20 41q63 96 130 283.5t110 406.5q51 6 138 6zM682 1055q-63 41 -84 114l350 340q129 -70 172 -229z" />
    <glyph glyph-name="wcircumflex.ss02" horiz-adv-x="1517" 
d="M1369 977q87 0 177 -23q-84 -307 -187.5 -525t-279.5 -429q-72 -14 -151.5 -14t-143.5 14q-51 193 -53 418q-80 -231 -217 -418q-72 -14 -149.5 -14t-143.5 14q-76 225 -103.5 442t-29.5 512q100 23 188.5 23t139.5 -6q-23 -444 12 -686q2 -16 2 -45l19 45
q141 264 229 673q47 10 143 10.5t142 -10.5q-23 -467 6 -675q2 -14 2 -43q2 10 20 41q63 96 130 283.5t110 406.5q51 6 138 6zM586 1069q-84 35 -97 119l310 289q70 14 141 0l238 -287q-33 -84 -125 -123l-203 178z" />
    <glyph glyph-name="wdieresis.ss02" horiz-adv-x="1517" 
d="M1369 977q87 0 177 -23q-84 -307 -187.5 -525t-279.5 -429q-72 -14 -151.5 -14t-143.5 14q-51 193 -53 418q-80 -231 -217 -418q-72 -14 -149.5 -14t-143.5 14q-76 225 -103.5 442t-29.5 512q100 23 188.5 23t139.5 -6q-23 -444 12 -686q2 -16 2 -45l19 45
q141 264 229 673q47 10 143 10.5t142 -10.5q-23 -467 6 -675q2 -14 2 -43q2 10 20 41q63 96 130 283.5t110 406.5q51 6 138 6zM1073.5 1112q-63.5 0 -108.5 45t-45 110t44 108.5t108 43.5t109.5 -45t45.5 -108.5t-45 -108.5t-108.5 -45zM624.5 1112q-63.5 0 -108.5 45
t-45 110t45 108.5t108.5 43.5t107.5 -45t44 -108.5t-44 -108.5t-107.5 -45z" />
    <glyph glyph-name="wgrave.ss02" horiz-adv-x="1517" 
d="M1369 977q87 0 177 -23q-84 -307 -187.5 -525t-279.5 -429q-72 -14 -151.5 -14t-143.5 14q-51 193 -53 418q-80 -231 -217 -418q-72 -14 -149.5 -14t-143.5 14q-76 225 -103.5 442t-29.5 512q100 23 188.5 23t139.5 -6q-23 -444 12 -686q2 -16 2 -45l19 45
q141 264 229 673q47 10 143 10.5t142 -10.5q-23 -467 6 -675q2 -14 2 -43q2 10 20 41q63 96 130 283.5t110 406.5q51 6 138 6zM1067 1167q-31 -74 -90 -112l-404 225q49 156 183 223z" />
    <glyph glyph-name="y.ss01" horiz-adv-x="1101" 
d="M377 -201q180 0 215 205l10 62q-57 -8 -88 -11q-131 -20 -187.5 -60t-56.5 -106q1 -90 107 -90zM916 975q91 0 151 -12l-162 -918q-41 -223 -196.5 -342t-374.5 -119q-162 0 -257 62.5t-95 183.5q0 186 223 281q-96 37 -131 109.5t-15 197.5l97 545q63 12 154 12t151 -12
l-80 -453q-18 -102 10.5 -149.5t118.5 -47.5t143 37l109 613q63 12 154 12z" />
    <glyph glyph-name="y.ss02" horiz-adv-x="1087" 
d="M90 762q0 121 10 192q90 23 182.5 23t147.5 -6q-12 -145 -12 -230q0 -268 104 -524q209 229 217 541q2 109 -20 211q43 8 137 8t176 -16q20 -72 21 -162q0 -387 -291 -713t-772 -532q-94 63 -99 233q242 119 398 229q-199 350 -199 746z" />
    <glyph glyph-name="yacute.ss01" horiz-adv-x="1101" 
d="M377 -201q180 0 215 205l10 62q-57 -8 -88 -11q-131 -20 -187.5 -60t-56.5 -106q1 -90 107 -90zM916 975q91 0 151 -12l-162 -918q-41 -223 -196.5 -342t-374.5 -119q-162 0 -257 62.5t-95 183.5q0 186 223 281q-96 37 -131 109.5t-15 197.5l97 545q63 12 154 12t151 -12
l-80 -453q-18 -102 10.5 -149.5t118.5 -47.5t143 37l109 613q63 12 154 12zM489 1055q-63 41 -83 114l350 340q129 -70 172 -229z" />
    <glyph glyph-name="yacute.ss02" horiz-adv-x="1087" 
d="M90 762q0 121 10 192q90 23 182.5 23t147.5 -6q-12 -145 -12 -230q0 -268 104 -524q209 229 217 541q2 109 -20 211q43 8 137 8t176 -16q20 -72 21 -162q0 -387 -291 -713t-772 -532q-94 63 -99 233q242 119 398 229q-199 350 -199 746zM410 1055q-63 41 -84 114l350 340
q129 -70 172 -229z" />
    <glyph glyph-name="ycircumflex.ss01" horiz-adv-x="1101" 
d="M377 -201q180 0 215 205l10 62q-57 -8 -88 -11q-131 -20 -187.5 -60t-56.5 -106q1 -90 107 -90zM916 975q91 0 151 -12l-162 -918q-41 -223 -196.5 -342t-374.5 -119q-162 0 -257 62.5t-95 183.5q0 186 223 281q-96 37 -131 109.5t-15 197.5l97 545q63 12 154 12t151 -12
l-80 -453q-18 -102 10.5 -149.5t118.5 -47.5t143 37l109 613q63 12 154 12zM393 1069q-84 35 -96 119l309 289q70 14 142 0l237 -287q-33 -84 -125 -123l-203 178z" />
    <glyph glyph-name="ycircumflex.ss02" horiz-adv-x="1087" 
d="M90 762q0 121 10 192q90 23 182.5 23t147.5 -6q-12 -145 -12 -230q0 -268 104 -524q209 229 217 541q2 109 -20 211q43 8 137 8t176 -16q20 -72 21 -162q0 -387 -291 -713t-772 -532q-94 63 -99 233q242 119 398 229q-199 350 -199 746zM315 1069q-84 35 -96 119l309 289
q70 14 142 0l237 -287q-33 -84 -125 -123l-202 178z" />
    <glyph glyph-name="ydieresis.ss01" horiz-adv-x="1101" 
d="M377 -201q180 0 215 205l10 62q-57 -8 -88 -11q-131 -20 -187.5 -60t-56.5 -106q1 -90 107 -90zM916 975q91 0 151 -12l-162 -918q-41 -223 -196.5 -342t-374.5 -119q-162 0 -257 62.5t-95 183.5q0 186 223 281q-96 37 -131 109.5t-15 197.5l97 545q63 12 154 12t151 -12
l-80 -453q-18 -102 10.5 -149.5t118.5 -47.5t143 37l109 613q63 12 154 12zM880.5 1112q-63.5 0 -108.5 45t-45 110t44 108.5t108.5 43.5t109.5 -45t45 -108.5t-45 -108.5t-108.5 -45zM432.5 1112q-63.5 0 -108.5 45t-45 110t45 108.5t108.5 43.5t107.5 -45t44 -108.5
t-44 -108.5t-107.5 -45z" />
    <glyph glyph-name="ydieresis.ss02" horiz-adv-x="1087" 
d="M90 762q0 121 10 192q90 23 182.5 23t147.5 -6q-12 -145 -12 -230q0 -268 104 -524q209 229 217 541q2 109 -20 211q43 8 137 8t176 -16q20 -72 21 -162q0 -387 -291 -713t-772 -532q-94 63 -99 233q242 119 398 229q-199 350 -199 746zM800.5 1112q-63.5 0 -108.5 45
t-45 110t45 108.5t108.5 43.5t108.5 -45t45 -108.5t-45 -108.5t-108.5 -45zM352.5 1112q-63.5 0 -108.5 45t-45 110t44 108.5t108 43.5t108.5 -45t44.5 -108.5t-44 -108.5t-107.5 -45z" />
    <glyph glyph-name="ygrave.ss01" horiz-adv-x="1101" 
d="M377 -201q180 0 215 205l10 62q-57 -8 -88 -11q-131 -20 -187.5 -60t-56.5 -106q1 -90 107 -90zM916 975q91 0 151 -12l-162 -918q-41 -223 -196.5 -342t-374.5 -119q-162 0 -257 62.5t-95 183.5q0 186 223 281q-96 37 -131 109.5t-15 197.5l97 545q63 12 154 12t151 -12
l-80 -453q-18 -102 10.5 -149.5t118.5 -47.5t143 37l109 613q63 12 154 12zM874 1167q-31 -74 -90 -112l-403 225q49 156 182 223z" />
    <glyph glyph-name="ygrave.ss02" horiz-adv-x="1087" 
d="M90 762q0 121 10 192q90 23 182.5 23t147.5 -6q-12 -145 -12 -230q0 -268 104 -524q209 229 217 541q2 109 -20 211q43 8 137 8t176 -16q20 -72 21 -162q0 -387 -291 -713t-772 -532q-94 63 -99 233q242 119 398 229q-199 350 -199 746zM795 1167q-31 -74 -90 -112
l-404 225q49 156 182 223z" />
    <glyph glyph-name="fi.ss01" horiz-adv-x="1185" 
d="M82 725q0 104 39 211h119q92 430 501 430q184 0 310 -84q-13 -62 -53 -126t-78 -89q-74 51 -175 51q-168 0 -198 -164l-4 -18l600 -2l-164 -934q-74 -12 -152 -12t-153 12l127 723l-295 2l-133 -750q-41 -203 -147 -301t-300 -98q-145 0 -245 62q8 59 44 122t74 97
q51 -33 125 -33q121 0 144 135l135 766h-121z" />
    <glyph glyph-name="fl.ss01" horiz-adv-x="1327" 
d="M983 -29q-301 0 -244 328l144 803q-68 10 -119 10q-178 0 -211 -162h164v-43q0 -96 -43 -205h-166l-127 -727q-39 -201 -148 -300t-307 -99q-139 0 -239 62q10 61 45 123t73 96q55 -33 123 -33t102 32t46 103l129 743h-119v54q0 90 31 166q10 27 12 30h121
q47 202 193 308t377 106t401 -78l-170 -962q-16 -76 43 -76q32 -1 67 26q90 -76 86 -221q-109 -84 -264 -84z" />
    <glyph glyph-name="three.001" horiz-adv-x="1069" 
d="M1028 492q0 -262 -169 -396t-423 -133q-158 0 -268 53t-160 121q55 145 187 225q119 -119 270 -118q113 0 177 59t65 154q0 197 -240 196h-131q-2 4 -2 19q0 47 53 106l244 275h-457q-8 154 47 274h875q0 -123 -88 -221l-238 -260q104 -23 181 -114t77 -240z" />
    <glyph glyph-name="zero.osf" horiz-adv-x="1239" 
d="M588 233q139 0 200 112t62 261q0 248 -199 248q-97 0 -161 -61q-109 -104 -107 -318q0 -242 205 -242zM549 -33q-240 0 -363 130t-123 349q0 291 168 490t453 199q242 -1 364 -135t121 -357q-1 -283 -169 -479t-451 -197z" />
    <glyph glyph-name="one.osf" horiz-adv-x="753" 
d="M618 1126q48 0 97 -12l-197 -1114q-76 -12 -154 -12t-151 12l135 766l-168 -72q-109 74 -104 246q80 37 159 72q79 34 121 52t60 26q20 8 48 17t46 12t38 5q22 2 70 2z" />
    <glyph glyph-name="two.osf" horiz-adv-x="1050" 
d="M924 193q0 -102 -52 -193h-872q-2 12 -2 70t38 118q38 59 136 129q324 233 398 301t73 140q0 44 -29 68t-77 24q-109 0 -254 -131q-141 41 -177 178q78 104 200 171t284 67t268 -85q104 -85 104 -253t-124 -293q-64 -62 -120 -104t-149 -99l-106 -55l110 14h345
q6 -23 6 -67z" />
    <glyph glyph-name="three.osf" horiz-adv-x="1019" 
d="M885 223q0 -119 -48 -211t-128 -145q-162 -107 -365 -107q-287 0 -414 158q70 168 211 229q57 -63 105 -89t128 -26q81 0 134 47q53 46 53 123q0 78 -47 112t-160 34q-12 55 0 123t43 111q229 0 230 163q0 51 -33 81t-90 30q-119 0 -234 -90q-125 49 -149 184
q162 182 428 183q183 0 287 -82t104 -222q0 -233 -207 -348q152 -78 152 -258z" />
    <glyph glyph-name="four.osf" horiz-adv-x="1144" 
d="M311 281h271l65 374l17 76zM-47 100q0 96 96 215l647 787q74 12 166 12t148 -12l-146 -821h178q2 -119 -47 -248h-174l-45 -256q-146 -25 -282 0l45 256h-578q-8 25 -8 67z" />
    <glyph glyph-name="five.osf" horiz-adv-x="1046" 
d="M385 -240q-159 0 -271 42t-163 94q63 162 182 235q88 -94 258 -94q109 0 162 44t53 122q0 109 -112 143t-414 31l127 727h786v-39q0 -106 -47 -234h-512l-33 -190q267 -8 395 -96t128 -300q0 -213 -144 -349t-395 -136z" />
    <glyph glyph-name="six.osf" horiz-adv-x="1101" 
d="M538 221q85 0 142 53t57 146q0 168 -166 168q-113 0 -211 -76q-4 -49 -4 -78q0 -102 48 -158q49 -55 134 -55zM706 842q148 0 239 -94t91 -269q0 -229 -152 -373q-153 -143 -375 -143t-340 119q-118 118 -118 320t79 370t211 290t300 206t348 114q80 -78 45 -276
q-434 -70 -594 -334q118 70 266 70z" />
    <glyph glyph-name="seven.osf" horiz-adv-x="991" 
d="M1038 1059q0 -111 -86 -246l-690 -1067q-76 8 -144 40t-95 77l634 968h-557q-2 6 -2 37q0 100 49 234h887q4 -20 4 -43z" />
    <glyph glyph-name="eight.osf" horiz-adv-x="1081" 
d="M338 319q0 -61 40 -93t112 -33q73 1 125 41q53 40 53 108t-38 106q-38 40 -122 87l-16 10q-154 -104 -154 -226zM624 1135q-72 0 -119 -40q-46 -40 -46 -106q0 -90 145 -170q2 0 2 -2q86 45 126 90t40 105t-38 91q-38 32 -110 32zM977 418q0 -156 -78 -260
q-146 -195 -455 -195q-182 0 -299 73t-116 226q0 233 276 406q-143 117 -143 268q0 188 136 309t372 121q182 0 288 -82t107 -229q-2 -228 -254 -357q166 -124 166 -280z" />
    <glyph glyph-name="nine.osf" horiz-adv-x="1110" 
d="M542 498q94 0 179 51v61q0 119 -46 186q-46 66 -128 68t-134 -51t-53 -143q0 -172 182 -172zM579 1135q217 -1 335 -135t118 -365q0 -870 -942 -875q-45 104 14 267q276 8 411 75q134 68 179 242q-61 -53 -126 -77t-162 -23q-154 0 -250 100t-96 302t150 346
q152 144 369 143z" />
    <glyph glyph-name="zero.tf" horiz-adv-x="1167" 
d="M801 838q0 240 -148 241q-113 0 -183 -180t-68 -423q0 -243 147 -245q115 -1 183 183t69 424zM512 -33q-424 0 -424 506q0 385 162 635t446 250q214 0 316 -136t102 -376q0 -381 -160 -630t-442 -249z" />
    <glyph glyph-name="one.tf" horiz-adv-x="1167" 
d="M1008 264q6 -76 -4 -129t-41 -135h-867q-2 141 47 264h297l127 729l-288 -116q-37 25 -57 99t-9 154l475 203q55 13 138 13t108 -13l-189 -1069h263z" />
    <glyph glyph-name="two.tf" horiz-adv-x="1167" 
d="M614 1069q-101 0 -186 -61q-29 -20 -80 -64q-143 45 -172 203q203 211 492 211q180 0 290 -89t111 -253q0 -202 -133 -367q-72 -88 -151 -163t-210 -179l-53 -37l58 9l438 2q23 -141 -51 -281h-930l-2 41q0 145 135 262q54 47 240 212t259 249t72 180q0 55 -35 90
q-36 35 -92 35z" />
    <glyph glyph-name="three.tf" horiz-adv-x="1167" 
d="M453 -37q-156 0 -265 44t-159 102q61 156 184 239q101 -104 233 -104t198 62t67 167q0 180 -222 180h-131q-2 4 -2 23q0 70 97 172l200 209h-442v65q0 102 49 205h868q0 -123 -100 -229l-237 -250q100 -18 173 -104t72 -228q0 -270 -168 -412t-415 -141z" />
    <glyph glyph-name="four.tf" horiz-adv-x="1167" 
d="M708 -12q-72 0 -147 12l47 268h-545q-31 82 -16 161q14 79 78 202l391 739q164 -8 285 -74l-348 -673q-29 -53 -33 -82h237l50 278q75 12 149 12t137 -12l-49 -278h143l-2 -43q-2 -109 -49 -230h-139l-47 -268q-70 -12 -142 -12z" />
    <glyph glyph-name="five.tf" horiz-adv-x="1167" 
d="M475 -35q-155 0 -263 38t-159 85q66 168 185 248q109 -90 262 -90q109 0 167 56t58 142q0 158 -164 158q-70 0 -176 -24t-144 -23q-38 0 -71 12l121 760h805v-37q0 -111 -47 -235h-519l-34 -201q61 20 151 20q189 0 285 -96t96 -272q0 -252 -146 -396t-407 -145z" />
    <glyph glyph-name="six.tf" horiz-adv-x="1167" 
d="M573 221q81 1 133 57t52 158q0 162 -158 162q-90 0 -194 -66q-4 -61 -5 -98q0 -102 45 -158t127 -55zM744 852q150 0 239 -92q90 -92 90 -264q0 -248 -153 -391q-154 -142 -382 -142t-342 120t-114 327t79 383q145 324 508 493q165 78 345 105q35 -37 47 -117t-2 -162
q-133 -24 -235 -56t-200 -106q-99 -74 -153 -180q123 82 273 82z" />
    <glyph glyph-name="seven.tf" horiz-adv-x="1167" 
d="M199 1030q0 149 51 285h928q2 -10 2 -47q0 -113 -86 -244l-674 -1083q-80 8 -151 44t-97 87l602 958h-575z" />
    <glyph glyph-name="eight.tf" horiz-adv-x="1167" 
d="M547 195q70 -1 117 39t47 108t-36 108t-114 87l-37 24q-129 -106 -129 -231q0 -135 152 -135zM799 1016q0 54 -35 84t-95 30t-102 -35q-41 -36 -41 -88q0 -51 35 -93t121 -105q117 100 117 207zM1010 406q0 -207 -138 -324t-353 -117q-443 0 -441 314q0 233 268 407
q-123 112 -123 274t132 282t335 120t304 -84t102 -231q0 -209 -236 -365q150 -127 150 -276z" />
    <glyph glyph-name="nine.tf" horiz-adv-x="1167" 
d="M624 705q82 0 167 38q4 70 4 109q0 238 -172 242q-78 2 -130 -54q-53 -56 -53 -148q0 -91 51 -139t133 -48zM654 1362q218 0 333 -130t115 -360q0 -430 -230 -670t-729 -241q-41 111 15 264q252 3 391 65t199 220q-111 -63 -234 -64q-176 0 -277 106t-102 294
q1 228 151 372t368 144z" />
    <glyph glyph-name="currency.osf" horiz-adv-x="1320" 
d="M860 546q0 102 -52 158t-142 56t-152 -66t-61 -168q0 -104 52 -160t143 -56t152 66q60 67 60 170zM1161 572q0 -144 -84 -279l119 -115q-55 -121 -188 -192l-119 116q-135 -82 -261 -82t-218 43l-107 -108q-133 66 -194 184l100 105q-55 100 -55 248t79 280l-118 117
q55 119 188 192l119 -116q132 84 264 84t221 -45l97 100q63 -31 115 -81t79 -105l-92 -97q55 -105 55 -249z" />
    <glyph glyph-name="dollar.osf" horiz-adv-x="1013" 
d="M137 328q133 -109 311 -109t179 104q1 53 -53 77t-130 38t-152 39t-128 89q-53 64 -53 186q0 120 99 216t273 122l35 204q132 29 246 0l-37 -207q172 -27 248 -102q-33 -158 -146 -225q-102 88 -273 88t-171 -90q0 -34 53 -54t130 -37t154 -46t130 -101t53 -200
t-100 -228q-100 -98 -270 -119l-37 -211q-55 -12 -125 -12t-123 12l39 220q-188 29 -295 116q37 166 143 230z" />
    <glyph glyph-name="sterling.osf" horiz-adv-x="1030" 
d="M657 856q-61 0 -104 -40t-43 -106t-2 -92h235q18 -96 -28 -182h-221q-12 -70 -26 -119q-15 -48 -15 -61h448q16 -117 -45 -256h-797q0 106 54 230q53 124 69 206h-127q-16 92 29 182h121q2 31 2 101q0 182 127 300t313 118q252 0 365 -162q-70 -141 -221 -197
q-44 78 -134 78z" />
    <glyph glyph-name="yen.osf" horiz-adv-x="1198" 
d="M975 553v-23q0 -55 -25 -120h-227l-16 -93h227v-20q0 -55 -25 -123h-227l-31 -174q-75 -12 -151 -12t-156 12l31 174h-228v21q0 53 25 122h229l17 93h-230v18q0 51 27 125h162l-242 545q209 40 365 12l123 -365l12 -40l24 40l263 365q153 28 327 -12l-424 -545h150z" />
    <glyph glyph-name="ampersand.ss01" horiz-adv-x="1759" 
d="M695 219q177 0 295 76t149 215q-360 -59 -709 -191q89 -100 265 -100zM545 762q-84 0 -130 -62t-50 -176q160 61 325 111q-41 127 -145 127zM679 -37q-306 0 -460 136q-153 137 -153 379t141 386t373 144q164 0 263 -79t128 -224q78 18 164 30q-20 123 -121 277
q119 92 295 88q96 -154 125 -326q136 13 335 17q23 -119 -12 -236q-152 2 -315 -10q-31 -274 -244 -428t-519 -154z" />
    <glyph glyph-name="caroncomb.alt" 
d="M209 1411q0 -125 -64.5 -235.5t-150.5 -180.5q-80 4 -100 62q74 143 73 293q0 61 -8 92q63 29 136 28.5t114 -26.5v-33z" />
    <glyph glyph-name="gravecomb.case" 
d="M135 1372l-457 184q35 170 160 242l375 -293q-23 -86 -78 -133z" />
    <glyph glyph-name="acutecomb.case" 
d="M-266 1370q-53 51 -70 131l424 297q117 -88 127 -250z" />
    <glyph glyph-name="tildecomb.case" 
d="M-309 1739q88 0 174 -38t112 -38q76 0 101 90q131 0 198 -61q-29 -127 -110.5 -194.5t-190.5 -67.5q-66 0 -150.5 36.5t-121.5 36.5q-79 0 -104 -88q-133 0 -193 72q27 117 112 184.5t173 67.5z" />
    <glyph glyph-name="acute.case" horiz-adv-x="638" 
d="M358 1370q-53 51 -69 131l424 297q117 -88 127 -250z" />
    <glyph glyph-name="breve.case" horiz-adv-x="837" 
d="M680 1399q-166 0 -252 100t-59 236q76 33 182 22q6 -76 51 -111.5t105.5 -35.5t117 36.5t80.5 110.5q102 12 168 -22q-23 -137 -125 -236.5t-268 -99.5z" />
    <glyph glyph-name="caron.case" horiz-adv-x="813" 
d="M567 1425l-235 209q29 96 114 142l230 -152l274 154q78 -51 88 -142l-303 -211q-88 -20 -168 0z" />
    <glyph glyph-name="circumflex.case" horiz-adv-x="811" 
d="M766 1755l235 -211q-33 -94 -116 -139l-228 149l-276 -149q-74 45 -88 139l305 211q88 18 168 0z" />
    <glyph glyph-name="dieresis.case" horiz-adv-x="872" 
d="M923.5 1442q-63.5 0 -108.5 45t-45 109t45 109.5t108.5 45.5t108.5 -45t45 -110t-45 -109.5t-108.5 -44.5zM468.5 1442q-64.5 0 -110 45t-45.5 109t45 109.5t108.5 45.5t110 -45t46.5 -110t-45 -109.5t-109.5 -44.5z" />
    <glyph glyph-name="dotaccent.case" horiz-adv-x="532" 
d="M517 1415q-75 0 -127 52.5t-52 127t52 127t127 52.5t128 -52.5t53 -127.5t-53 -127t-128 -52z" />
    <glyph glyph-name="grave.case" horiz-adv-x="643" 
d="M758 1372l-457 184q35 170 160 242l375 -293q-23 -86 -78 -133z" />
    <glyph glyph-name="hungarumlaut.case" horiz-adv-x="856" 
d="M772 1368q-68 20 -100 84l250 346q131 -12 165 -143zM385 1370q-70 20 -98 86l252 342q131 -12 163 -145z" />
    <glyph glyph-name="macron.case" horiz-adv-x="753" 
d="M313 1481q-20 98 37 207h621q10 -113 -35 -207h-623z" />
    <glyph glyph-name="ring.case" horiz-adv-x="571" 
d="M475 1591q0 -82 80 -82q39 0 60.5 27t21.5 66t-20.5 61.5t-58.5 22.5t-60.5 -28t-22.5 -67zM548.5 1362q-107.5 0 -171.5 55.5t-64 162t74 179t176 72.5t168 -54.5t66 -162t-70.5 -180t-178 -72.5z" />
    <glyph glyph-name="tilde.case" horiz-adv-x="907" 
d="M569.5 1739q88.5 0 174 -38t112.5 -38q76 0 100 90q131 0 199 -61q-29 -127 -110.5 -194.5t-190.5 -67.5q-66 0 -151 36.5t-121 36.5q-80 0 -105 -88q-133 0 -192 72q27 117 111.5 184.5t173 67.5z" />
    <glyph glyph-name="IJacute" horiz-adv-x="1138" 
d="M478 -147q-190 0 -283 108q18 77 70 145t118 101q51 -70 127 -70q119 0 143 142l183 1034q76 12 152 12t157 -12l-182 -1028q-35 -197 -165 -315t-320 -117zM231 299q-76 0 -155 12l176 1002q60 12 152 12t155 -12l-178 -1002q-74 -12 -150 -12zM844 1356q-49 43 -53 119
l438 315q113 -78 100 -244zM274 1356q-53 43 -53 119l438 315q113 -78 101 -244z" />
    <glyph glyph-name="ijacute" horiz-adv-x="1058" 
d="M395 -408q-172 0 -252 86q11 58 57 116t103 89q39 -43 100 -43q115 0 146 164l170 967q59 12 151 12t154 -12l-170 -957q-35 -202 -161 -312t-298 -110zM160 -12q-78 0 -154 12l172 973q78 12 153 12t152 -12l-170 -973q-75 -12 -153 -12zM737 1057q-55 39 -63 112
l407 338q117 -70 121 -233zM211 1057q-55 39 -64 112l406 338q117 -68 121 -233z" />
    <glyph glyph-name="slashlong" horiz-adv-x="1150" 
d="M295 -156q-76 10 -105 84l801 1186q74 -14 103 -76z" />
    <glyph glyph-name="slashshort" horiz-adv-x="729" 
d="M223 528q-37 25 -57 68t-14 84l626 309q74 -66 68 -158z" />
    <glyph glyph-name="stroke" horiz-adv-x="751" 
d="M215 864q-16 84 25 172h626q8 -92 -24 -172h-627z" />
    <glyph glyph-name="caronalt" horiz-adv-x="354" 
d="M322 1350q0 59 -7 92q57 28 131 28t115 -26v-33q1 -125 -63 -235t-150 -181q-80 4 -100 62q74 143 74 293z" />
    <glyph glyph-name="slashlong.case" horiz-adv-x="1480" 
d="M358 -205q-127 12 -172 117l1102 1620q121 -16 170 -113z" />
    <glyph glyph-name="slashshort.case" horiz-adv-x="778" 
d="M238 514q-41 25 -64 72t-14 90l651 325q80 -68 74 -163z" />
    <glyph glyph-name="i.loclTRK" horiz-adv-x="518" 
d="M160 -12q-78 0 -154 12l172 973q78 12 153 12t152 -12l-172 -973q-73 -12 -151 -12zM381 1096q-76 0 -129 53t-53 129t53 130t129 54t129 -54t53 -130t-53 -129t-129 -53z" />
    <glyph glyph-name="uni1EF9.ss01" horiz-adv-x="1101" 
d="M377 -201q180 0 215 205l10 62q-57 -8 -88 -11q-131 -20 -187.5 -60t-56.5 -106q1 -90 107 -90zM916 975q91 0 151 -12l-162 -918q-41 -223 -196.5 -342t-374.5 -119q-162 0 -257 62.5t-95 183.5q0 186 223 281q-96 37 -131 109.5t-15 197.5l97 545q63 12 154 12t151 -12
l-80 -453q-18 -102 10.5 -149.5t118.5 -47.5t143 37l109 613q63 12 154 12zM780 1362q63 0 99 88q129 0 196 -74q-35 -117 -107.5 -181.5t-157.5 -65.5t-158.5 37t-110.5 38q-74 0 -107 -94q-51 0 -110.5 20.5t-83.5 55.5q37 119 109.5 185.5t158.5 67.5t164 -38t108 -39z
" />
    <glyph glyph-name="uni1EF9.ss02" horiz-adv-x="1087" 
d="M90 762q0 121 10 192q90 23 182.5 23t147.5 -6q-12 -145 -12 -230q0 -268 104 -524q209 229 217 541q2 109 -20 211q43 8 137 8t176 -16q20 -72 21 -162q0 -387 -291 -713t-772 -532q-94 63 -99 233q242 119 398 229q-199 350 -199 746zM700 1362q63 0 99 88
q129 0 196 -74q-35 -117 -107.5 -181.5t-157.5 -65.5t-158.5 37t-110.5 38q-74 0 -107 -94q-51 0 -110.5 20.5t-83.5 55.5q37 119 109.5 185.5t158.5 67.5t164 -38t108 -39z" />
    <glyph glyph-name="cent.osf" horiz-adv-x="999" 
d="M429 -176q-71 0 -122 14l37 209q-131 37 -205 136t-73 247q0 236 124 394t326 198l37 205q55 14 127 14t121 -14l-37 -209q131 -27 201 -98q-43 -127 -170 -201q-65 61 -175 61t-177 -87t-66 -220q0 -90 48 -144q48 -55 142 -55t176 72q117 -57 134 -192
q-121 -106 -287 -125l-35 -191q-55 -14 -126 -14z" />
    <glyph glyph-name="Euro.osf" horiz-adv-x="1091" 
d="M752 854q-137 0 -209 -117h202q0 -70 -24 -143h-232q-6 -27 -10 -84h191q6 -61 -25 -143h-158q35 -125 170 -125q106 0 185 57q94 -74 96 -238q-137 -96 -337 -96q-199 -1 -311 103t-124 299h-141q0 76 24 143h119q4 45 12 84h-80q-2 74 25 143h96q72 184 223 288
q152 103 349 103q111 0 191 -30t118 -70q-59 -143 -191 -225q-59 51 -159 51z" />
    <glyph glyph-name="uni0308.case" 
d="M75.5 1442q-63.5 0 -108.5 45t-45 109t45 109.5t108.5 45.5t108.5 -45t45 -110t-45 -109.5t-108.5 -44.5zM-379.5 1442q-64.5 0 -110 45t-45.5 109t45.5 109.5t109 45.5t109.5 -45t46 -110t-45 -109.5t-109.5 -44.5z" />
    <glyph glyph-name="uni0307.case" 
d="M-11 1415q-75 0 -127 52.5t-52 127t52 127t127 52.5t128 -52.5t53 -127.5t-53 -127t-128 -52z" />
    <glyph glyph-name="uni030B.case" 
d="M-66 1368q-68 20 -100 84l250 346q131 -12 166 -143zM-453 1370q-70 20 -98 86l252 342q131 -12 164 -145z" />
    <glyph glyph-name="uni0302.case" 
d="M-29 1755l236 -211q-33 -94 -117 -139l-227 149l-277 -149q-74 45 -88 139l305 211q88 18 168 0z" />
    <glyph glyph-name="uni030C.case" 
d="M-227 1425l-236 209q29 96 115 142l229 -152l275 154q78 -51 88 -142l-303 -211q-88 -20 -168 0z" />
    <glyph glyph-name="uni0306.case" 
d="M-149 1399q-166 0 -252 100t-60 236q76 33 182 22q6 -76 51.5 -111.5t105.5 -35.5t116.5 36.5t81.5 110.5q102 12 168 -22q-23 -137 -125 -236.5t-268 -99.5z" />
    <glyph glyph-name="uni030A.case" 
d="M-63 1591q0 -82 79 -82q39 0 60.5 27t21.5 66t-20.5 61.5t-58 22.5t-60 -28t-22.5 -67zM9.5 1362q-107.5 0 -171 55.5t-63.5 162t73.5 179t176 72.5t168 -54.5t65.5 -162t-70.5 -180t-178 -72.5z" />
    <glyph glyph-name="uni0304.case" 
d="M-416 1481q-20 98 37 207h621q10 -113 -35 -207h-623z" />
    <glyph glyph-name="uni0337.case" 
d="M-518 514q-41 25 -63.5 72t-14.5 90l651 325q80 -68 74 -163z" />
    <glyph glyph-name="uni0338.case" 
d="M-1059 -205q-125 12 -170 117l1102 1620q119 -16 168 -113z" />
    </font>
</defs>
</svg>
