<?xml version="1.0" standalone="no"?>
<!DOCTYPE svg PUBLIC "-//W3C//DTD SVG 1.1//EN" "http://www.w3.org/Graphics/SVG/1.1/DTD/svg11.dtd" >
<svg xmlns="http://www.w3.org/2000/svg">
<metadata>
Created by FontPrep 20130207 at Tue Aug  2 15:13:23 2016
 By Tina Muller
Copyright (c) 2015 by LatinoTypeTeam. All rights reserved.
</metadata>
<defs>
<font id="e05ab97ff6c36223ec9ef5aa71b29ae5" horiz-adv-x='1024' >
  <font-face 
    font-family="Branding-ThinItalic"
    font-weight="250"
    font-style="italic"
    font-stretch="normal"
    units-per-em="2048"
    panose-1="0 0 3 0 0 0 0 0 0 0"
    ascent="1577"
    descent="-471"
    x-height="950"
    cap-height="1319"
    bbox="-1051 -428 2742.05 1690"
    underline-thickness="102"
    underline-position="-102"
    slope="-10"
    unicode-range="U+0020-FB02"
  />
<missing-glyph horiz-adv-x="868" 
d="M428 184l-344 346l344 344l346 -344z" />
    <glyph glyph-name="fi" unicode="fi" horiz-adv-x="1026" 
d="M698 1348q168 0 260 -99q-6 -16 -32 -30q-48 45 -98 67t-136 21q-322 0 -379 -328l-4 -23h602l-168 -956q-8 -4 -20 -4t-21 4l162 922h-561l-149 -922q-8 -4 -20 -4t-21 4l151 922h-147v14q0 8 6 20h147l2 17q64 375 426 375z" />
    <glyph glyph-name="fl" unicode="fl" horiz-adv-x="1136" 
d="M674 1307q-121 0 -222 -81t-135 -270h316q2 -2 2 -14t-8 -20h-316l-161 -922q-8 -4 -20 -4t-21 4l163 922h-147v14q0 8 6 20h148v5q35 203 151 295t266 92t234 -56l-185 -1104q-14 -78 20 -120q33 -42 107 -43q74 0 156 61q20 -14 21 -31q-1 -2 -13 -10t-20 -14
q-60 -45 -149 -45t-133 54t-27 153l180 1071q-92 43 -213 43z" />
    <glyph glyph-name=".notdef" horiz-adv-x="868" 
d="M428 184l-344 346l344 344l346 -344z" />
    <glyph glyph-name=".null" 
 />
    <glyph glyph-name="nonmarkingreturn" horiz-adv-x="681" 
 />
    <glyph glyph-name="space" unicode=" " horiz-adv-x="532" 
 />
    <glyph glyph-name="exclam" unicode="!" horiz-adv-x="442" 
d="M131 -16q-23 0 -38 16t-15 38t16 38t38 16t37 -16t15 -38t-15 -38t-38 -16zM174 305q-8 0 -12 2q76 473 172 1016q12 4 20 4t21 -4q-78 -449 -189 -1016q-4 -2 -12 -2z" />
    <glyph glyph-name="quotedbl" unicode="&#x22;" horiz-adv-x="575" 
d="M465 944q-10 0 -14 4l59 398q10 4 28 4t27 -4l-84 -400q-6 -2 -16 -2zM241 944q-3 0 -16 4l60 398q16 6 29 6t26 -6l-84 -398q-12 -4 -15 -4z" />
    <glyph glyph-name="numbersign" unicode="#" horiz-adv-x="1255" 
d="M756 360l172 431h-426l-172 -431h426zM1008 360q0 -20 -15 -36h-211l-168 -420q-23 -6 -41 0l168 420h-426l-168 -420q-23 -6 -41 0l168 420h-247q0 18 14 36h248l172 431h-209q4 25 16 36h209l172 433q20 6 39 0l-172 -433h428l172 433q20 6 39 0l-172 -433h252
q0 -16 -16 -36h-250l-172 -431h211z" />
    <glyph glyph-name="dollar" unicode="$" horiz-adv-x="933" 
d="M762 406q0 121 -62 171t-182 78l-94 -532q172 4 255 83t83 200zM231 932q0 -121 81 -165q65 -37 173 -62l86 491q-154 -4 -247 -74t-93 -190zM805 414q0 -150 -98 -238t-289 -92l-33 -180q-8 -4 -20 -4t-21 4l33 180q-223 6 -332 123q6 25 33 35q102 -111 305 -119
l96 541q-75 16 -111 28t-86 40q-96 54 -96 194q0 141 112 224t282 87l30 174q8 4 20 4t21 -4l-30 -174q156 -6 272 -92q-12 -27 -29 -35q-113 80 -252 86l-88 -500q209 -44 258 -157q23 -51 23 -125z" />
    <glyph glyph-name="percent" unicode="%" horiz-adv-x="1454" 
d="M1048 31q102 0 172 79q69 79 68 216q0 88 -50 144t-154 56t-175 -80q-72 -80 -71 -215q0 -86 54 -143t156 -57zM1042 -8q-123 0 -184 66t-61 171q0 156 84 246t205 90q121 1 182 -67t61 -170q0 -158 -82 -247t-205 -89zM404 760q104 0 172 79t67 216q0 88 -50 144
q-49 56 -153 56q-104 1 -176 -79t-71 -213q0 -87 54 -145q53 -58 157 -58zM397 721q-123 -1 -184 67t-61 173q0 153 84 243t205 90t182 -68t61 -169q0 -156 -82 -246t-205 -90zM143 -96l1117 1411q27 8 49 0l-1119 -1411q-31 -6 -47 0z" />
    <glyph glyph-name="ampersand" unicode="&#x26;" horiz-adv-x="1181" 
d="M123 291q0 -125 90 -198t252 -73t295 58l108 606h-280q-215 -2 -340 -117t-125 -276zM596 723h549v-12q0 -18 -8 -27h-228l-112 -631q-168 -71 -342 -71t-274 81q-99 82 -99 222q0 176 113 282t268 135q-100 18 -159 84q-58 66 -58 170q0 168 120 270t298 103
q178 0 268 -104q-10 -18 -33 -29q-82 94 -242 94t-264 -93t-104 -219q0 -255 307 -255z" />
    <glyph glyph-name="quotesingle" unicode="'" horiz-adv-x="350" 
d="M241 944q-3 0 -16 4l60 398q16 6 29 6t26 -6l-84 -398q-12 -4 -15 -4z" />
    <glyph glyph-name="parenleft" unicode="(" horiz-adv-x="475" 
d="M90 186q0 655 408 1217q23 -4 26 -21q-180 -258 -285 -569t-105 -608t89 -549q-12 -14 -35 -12q-98 258 -98 542z" />
    <glyph glyph-name="parenright" unicode=")" horiz-adv-x="473" 
d="M-35 -358q-20 2 -28 20q182 254 287 566q106 312 106 610t-90 551q12 14 34 12q96 -256 97 -543q0 -653 -406 -1216z" />
    <glyph glyph-name="asterisk" unicode="*" horiz-adv-x="677" 
d="M424 1067h-4l-31 -164q-33 -2 -55 19l69 149q-23 10 -24 31l-164 -23q-12 31 0 60l162 -21q4 23 24 33l-71 147q25 20 55 19l33 -160h6q14 0 29 -10l116 115q29 -20 35 -48l-139 -81q4 -11 4 -23t-6 -20l143 -78q-10 -31 -35 -47l-120 112q-14 -10 -27 -10z" />
    <glyph glyph-name="plus" unicode="+" horiz-adv-x="935" 
d="M823 492q0 -18 -8 -17h-342l-63 -360q-2 -6 -20 -4t-17 6l63 358h-342q-12 18 6 37h342l64 360q0 10 31 5l6 -5l-64 -360h342q2 -2 2 -20z" />
    <glyph glyph-name="comma" unicode="," horiz-adv-x="370" 
d="M96 110q0 66 -6 83q31 10 57 -5q2 -4 3 -34q0 -119 -56 -233t-114 -169q-14 0 -15 17q61 66 96 171q35 104 35 170z" />
    <glyph glyph-name="hyphen" unicode="-" horiz-adv-x="743" 
d="M582 520q0 -14 -9 -22h-423q-10 21 6 37h424q2 -1 2 -15z" />
    <glyph glyph-name="period" unicode="." horiz-adv-x="395" 
d="M127 -16q-23 0 -38 16t-15 38t16 38t38 16t37 -16t15 -38t-15 -38t-38 -16z" />
    <glyph glyph-name="slash" unicode="/" horiz-adv-x="944" 
d="M-81 -367q-15 0 -21 2l1083 1733q9 2 23 2t20 -2l-1083 -1733q-7 -2 -22 -2z" />
    <glyph glyph-name="zero" unicode="0" horiz-adv-x="1165" 
d="M526 23q137 0 237 71q170 124 230 465q25 143 25 311q0 442 -340 443q-164 0 -280 -125q-218 -235 -218 -719q0 -446 346 -446zM686 1354q373 0 373 -494q-1 -526 -229 -754q-124 -124 -314 -124t-284 129q-93 129 -93 367q1 238 63 436t188 319t296 121z" />
    <glyph glyph-name="one" unicode="1" horiz-adv-x="641" 
d="M543 1329q14 0 22 -4l-233 -1325q-8 -4 -20 -4t-21 4l227 1282l-362 -186q-16 14 -13 37q117 59 251 127q135 68 149 69z" />
    <glyph glyph-name="two" unicode="2" horiz-adv-x="1032" 
d="M43 23q0 35 41 65q471 373 633 552t162 359q0 150 -86 227t-230 77q-207 0 -354 -173q-20 6 -25 25q74 86 162 136t234 50t243 -83q98 -83 99 -252q0 -72 -14 -132q-26 -110 -136 -237q-109 -127 -385 -353q-100 -83 -278 -227l-23 -18l25 2h778q6 -18 -6 -41h-836
q-4 12 -4 23z" />
    <glyph glyph-name="three" unicode="3" horiz-adv-x="1011" 
d="M956 1315q0 -41 -41 -78l-462 -434q188 0 308 -94t120 -273q-1 -217 -135 -336t-332 -118q-252 0 -377 133q8 20 31 32q66 -63 144 -94t210 -30q182 -1 300 107t118 287t-112 264t-308 85h-31q6 30 23 47l485 461h-688q-4 21 6 41h741z" />
    <glyph glyph-name="four" unicode="4" horiz-adv-x="995" 
d="M920 444v-12q0 -10 -7 -26h-172l-69 -406q-12 -4 -18 -4t-21 4l69 406h-653q-20 47 23 106l606 846q20 0 33 -21l-602 -837q-25 -31 -19 -56h619l55 320q16 4 21 4t18 -4l-55 -320h172z" />
    <glyph glyph-name="five" unicode="5" horiz-adv-x="999" 
d="M864 451q0 -223 -141 -351t-354 -129q-213 0 -326 107q10 25 31 33q92 -101 294 -101t329 117q126 117 126 303t-86 265t-262 79q-88 0 -171 -29t-95 -29t-19 5l105 594h655q0 -29 -6 -41h-614l-92 -516q127 57 243 57q383 0 383 -364z" />
    <glyph glyph-name="six" unicode="6" horiz-adv-x="1046" 
d="M551 725q-215 0 -393 -209q-8 -82 -8 -129q0 -176 88 -277q88 -102 254 -102t272 111t106 280t-91 247t-228 79zM913 400q1 -190 -121 -311q-122 -120 -306 -120t-281 112q-99 113 -99 309t79 368t208 286q270 239 588 281q6 -12 2 -41q-168 -20 -332 -103t-301 -243
t-180 -363q166 188 389 189q152 0 253 -87t101 -277z" />
    <glyph glyph-name="seven" unicode="7" horiz-adv-x="937" 
d="M1018 1313q2 -16 -29 -74l-817 -1262q-29 4 -37 21l826 1274h-797q-2 27 8 41h846z" />
    <glyph glyph-name="eight" unicode="8" horiz-adv-x="1052" 
d="M442 20q168 0 285 90t117 271q0 115 -73 183t-206 114l-69 24q-139 -38 -258 -158t-119 -272q-1 -252 323 -252zM944 1059q0 111 -78 177t-226 67t-248 -89q-99 -90 -99 -212q-1 -122 67 -179t218 -108q10 -2 29 -10t30 -11q307 145 307 365zM883 381q0 -199 -130 -300
t-317 -101q-358 0 -358 292q0 158 113 279q114 121 262 170q-104 47 -154 107q-49 60 -49 155q0 154 112 258q113 105 282 105t256 -77t87 -206t-92 -229t-217 -158q205 -96 205 -295z" />
    <glyph glyph-name="nine" unicode="9" horiz-adv-x="1054" 
d="M561 561q170 0 352 150q8 63 9 153q0 205 -92 323t-253 118q-159 0 -269 -108t-110 -292t97 -264q96 -80 266 -80zM158 901q0 199 120 321t301 121q179 0 281 -128t103 -345q-1 -450 -227 -674t-597 -225v4q-2 7 -2 17t10 20q303 0 506 161t254 486q-182 -137 -359 -137
t-284 90q-106 90 -106 289z" />
    <glyph glyph-name="colon" unicode=":" horiz-adv-x="419" 
d="M130 43q-22 0 -38 15q-16 14 -16 36t16 38t38 18q22 0 38 -16t16 -38q0 -23 -16 -38t-38 -15zM256 764q-22 0 -39 15q-16 15 -16 37t16 38t38 16t38 -15t16 -38t-16 -38q-15 -15 -37 -15z" />
    <glyph glyph-name="semicolon" unicode=";" horiz-adv-x="487" 
d="M244 154q0 -119 -56 -233t-114 -169q-14 0 -15 17q61 66 97 171q34 104 34 170t-6 83q31 10 58 -5q2 -4 2 -34zM264 678q-23 0 -39 16t-16 38t17 38q18 16 38 16t36 -16t17 -38q0 -22 -15 -38t-38 -16z" />
    <glyph glyph-name="less" unicode="&#x3c;" horiz-adv-x="1071" 
d="M72 481q0 10 6 25l911 385q14 -8 10 -37l-858 -367l-39 -10l35 -12l715 -361q-6 -27 -25 -36l-757 378q-2 6 0 16t2 19z" />
    <glyph glyph-name="equal" unicode="=" horiz-adv-x="964" 
d="M117 301v10q0 14 8 29h639v-10q0 -16 -6 -29h-641zM172 612v11q0 18 8 28h639v-8q0 -14 -8 -31h-639z" />
    <glyph glyph-name="greater" unicode="&#x3e;" horiz-adv-x="1069" 
d="M973 494q0 -27 -12 -48l-891 -378q-14 12 -13 36l844 361l39 12l-35 10l-731 367q9 29 25 37l774 -385v-12z" />
    <glyph glyph-name="question" unicode="?" horiz-adv-x="786" 
d="M260 -16q-22 0 -39 16q-16 16 -16 36t16 38t38 18t38 -16t16 -39t-16 -38q-15 -15 -37 -15zM290 330q-11 0 -16 2q10 96 49 170q38 74 86 114t103 84q55 43 101 79q106 83 106 237q0 114 -73 180t-204 66t-235 -78q-20 10 -21 26q117 92 262 92q146 0 230 -75
q84 -76 84 -211q0 -82 -31 -148t-77 -106q-96 -83 -207 -169q-50 -40 -89 -109t-49 -152q-8 -2 -19 -2z" />
    <glyph glyph-name="at" unicode="@" horiz-adv-x="1591" 
d="M717 242q197 0 305 204l65 367q-84 70 -190 70q-153 0 -265 -115t-112 -295q0 -104 54 -168q55 -63 143 -63zM936 1286q278 0 428 -158t149 -440q0 -198 -98 -360t-246 -162q-88 0 -129 53t-30 148q-111 -166 -303 -166q-98 1 -164 69t-66 193q0 207 127 333t303 126
q113 0 226 -84l-78 -447q-15 -86 15 -137t106 -51q126 0 210 148t84 335q0 270 -139 414t-383 145q-244 0 -426 -118t-277 -307q-95 -190 -95 -422t138 -384t390 -151q170 0 319 63q12 -12 11 -37q-158 -68 -336 -67q-266 0 -416 164t-150 410t105 445q103 201 295 323
t430 122z" />
    <glyph glyph-name="A" unicode="A" horiz-adv-x="1126" 
d="M256 477h590l-152 723l-10 64l-33 -66zM956 -4h-8l-94 442h-618l-242 -440h-10q-23 0 -33 4l721 1313q6 2 18.5 2t18.5 -2l282 -1313q-14 -6 -35 -6z" />
    <glyph glyph-name="B" unicode="B" horiz-adv-x="1122" 
d="M451 14q227 0 353 102.5t126 258.5q0 279 -355 278h-309l-108 -620q141 -19 293 -19zM971 1040q0 248 -336 248q-156 0 -260 -16l-101 -580h246q209 0 330 98t121 250zM973 385q0 -188 -140.5 -299t-366 -111t-355.5 25l229 1303q129 25 308 24.5t273.5 -73t94.5 -207.5
t-83 -233.5t-245 -133.5q285 -37 285 -295z" />
    <glyph glyph-name="C" unicode="C" horiz-adv-x="1185" 
d="M632 -20q-245 0 -372 146t-127 398q0 350 190.5 583.5t501.5 233.5q238 0 379 -145q-12 -16 -30 -27q-131 131 -355 131q-295 0 -469 -222t-174 -552q0 -238 117 -372t351.5 -134t377.5 134q20 -6 22 -29q-167 -145 -412 -145z" />
    <glyph glyph-name="D" unicode="D" horiz-adv-x="1331" 
d="M440 23q348 0 550 218t202 523q0 256 -145.5 392t-417.5 136q-150 0 -254 -18l-215 -1233q135 -18 280 -18zM635 1333q289 0 444.5 -147.5t155.5 -415.5q-1 -308 -199 -540q-96 -112 -252.5 -180t-342 -68t-330.5 18l229 1307q156 26 295 26z" />
    <glyph glyph-name="E" unicode="E" horiz-adv-x="1042" 
d="M1049 1276h-674l-101 -569h615q4 -23 -6 -39h-615l-110 -629h702q4 -20 -8 -39h-741l231 1315h713q6 -21 -6 -39z" />
    <glyph glyph-name="F" unicode="F" horiz-adv-x="987" 
d="M129.5 -4q-6.5 0 -18.5 4l231 1315h721q4 -21 -8 -39h-680l-107 -612h609q2 -23 -9 -39h-606l-110 -625q-16 -4 -22.5 -4z" />
    <glyph glyph-name="G" unicode="G" horiz-adv-x="1265" 
d="M838 1341q233 0 370 -163q-8 -14 -30 -27q-66 76 -147 112.5t-200 36.5q-301 0 -477 -219t-176 -563q0 -230 112 -364t340 -134t382 84l80 463h-357q-6 25 8 39h398l-94 -524q-186 -102 -426 -102t-363 145t-123 391q0 360 192 592.5t511 232.5z" />
    <glyph glyph-name="H" unicode="H" horiz-adv-x="1341" 
d="M1245 1319q12 0 21 -4l-234 -1315q-8 -4 -20.5 -4t-20.5 4l117 662h-840l-116 -662q-12 -4 -22.5 -4t-18.5 4l231 1315q8 4 20.5 4t20.5 -4l-109 -617h842l109 617q8 4 20 4z" />
    <glyph glyph-name="I" unicode="I" horiz-adv-x="458" 
d="M131 -4q-12 0 -20 4l231 1315q12 4 22.5 4t18.5 -4l-231 -1315q-9 -4 -21 -4z" />
    <glyph glyph-name="J" unicode="J" horiz-adv-x="706" 
d="M133 -33q-117 0 -188 76q6 20 28 33q74 -68 168 -68t175 66.5t106 212.5l182 1028q8 4 20 4t19 -4l-180 -1022q-58 -326 -330 -326z" />
    <glyph glyph-name="K" unicode="K" horiz-adv-x="1085" 
d="M911 -4h-8q-309 412 -448 672q-109 -66 -205 -109l-98 -559q-8 -4 -20.5 -4t-20.5 4l231 1315q8 4 20.5 4t20.5 -4l-125 -713q256 125 451.5 289t404.5 424q8 2 22.5 2t20.5 -2q-305 -399 -672 -629q190 -334 467 -686q-25 -4 -41 -4z" />
    <glyph glyph-name="L" unicode="L" horiz-adv-x="921" 
d="M364 1319q6 0 19 -4l-225 -1280h651q4 -10 -6 -39h-692l231 1319q16 4 22 4z" />
    <glyph glyph-name="M" unicode="M" horiz-adv-x="1536" 
d="M1427 1317q23 0 33 -4l-231 -1313q-8 -4 -20.5 -4t-20.5 4l209 1178l8 36l-682 -1087q-6 -2 -18.5 -2t-16.5 2l-313 1067l-8 33l-215 -1227q-12 -4 -22.5 -4t-18.5 4l231 1313q12 6 35 6h4l319 -1083l13 -50l710 1131h4z" />
    <glyph glyph-name="N" unicode="N" horiz-adv-x="1331" 
d="M1235 1323q12 0 20 -4l-231 -1315q-12 -6 -41 -6l-596 1214l-16 35l-219 -1247q-8 -4 -20.5 -4t-20.5 4l231 1313q25 10 41 6l602 -1233l8 -20l221 1253q9 4 21 4z" />
    <glyph glyph-name="O" unicode="O" horiz-adv-x="1382" 
d="M643 20q274 0 434 212t160 565q0 229 -122 366t-347 137q-260 0 -425 -220t-165 -554q0 -236 119 -371t346 -135zM635 -20q-242 0 -371 147t-129 395q0 360 181.5 589.5t459.5 229.5q240 0 372 -150.5t132 -393.5q0 -375 -176 -596t-469 -221z" />
    <glyph glyph-name="P" unicode="P" horiz-adv-x="1079" 
d="M508 541q262 0 385 119.5t123 310.5q0 154 -93.5 239.5t-260 85.5t-287.5 -32l-123 -699q78 -24 256 -24zM661.5 1337q188.5 0 293 -92t104.5 -264q0 -217 -136.5 -349t-420.5 -132q-170 0 -258 22l-92 -522q-8 -4 -20.5 -4t-20.5 4l227 1290q135 47 323.5 47z" />
    <glyph glyph-name="Q" unicode="Q" horiz-adv-x="1382" 
d="M178 526q0 -236 119 -371t346 -135q274 0 434 212t160 565q0 229 -122 366t-347 137q-260 0 -425 -220t-165 -554zM135 522q0 360 181.5 589.5t459.5 229.5q240 0 372 -150.5t132 -393.5q0 -326 -135.5 -538t-366.5 -263q256 -59 361 -324q-16 -10 -35 -10
q-131 317 -494 318q-229 8 -352 154.5t-123 387.5z" />
    <glyph glyph-name="R" unicode="R" horiz-adv-x="1093" 
d="M510 596q227 0 350 117.5t123 302.5q0 119 -87 199.5t-238.5 80.5t-282.5 -32l-115 -652q84 -16 250 -16zM1024 1016q0 -195 -113.5 -312.5t-310.5 -140.5q174 -348 352 -561q-16 -4 -32 -4h-13q-172 209 -350 561q-16 -2 -118.5 -2t-186.5 12l-100 -569q-12 -4 -22.5 -4
t-18.5 4l227 1294q150 43 326 43t268 -89t92 -232z" />
    <glyph glyph-name="S" unicode="S" horiz-adv-x="1019" 
d="M420 -27q-270 0 -397 156q6 23 30 31q115 -145 375 -146q186 0 294.5 93.5t108.5 238.5q0 92 -46 156.5t-113.5 94.5t-148.5 62.5t-148.5 63.5t-113.5 96.5t-46 161.5q0 166 118 261t312 95q240 0 348 -133q-12 -23 -32 -30q-117 123 -324 122q-172 0 -275.5 -85
t-103.5 -230q0 -100 63.5 -162.5t153.5 -95.5t180 -67.5t153.5 -110.5t63.5 -195q0 -162 -123.5 -269.5t-328.5 -107.5z" />
    <glyph glyph-name="T" unicode="T" horiz-adv-x="1034" 
d="M414 -4q-6 0 -19 4l226 1278h-463q-6 18 6 37h971q4 -18 -9 -37h-464l-226 -1278q-16 -4 -22 -4z" />
    <glyph glyph-name="U" unicode="U" horiz-adv-x="1310" 
d="M569 -20q-197 0 -297 103t-100 286q0 72 14 141l142 805q8 4 20 4t21 -4l-142 -805q-14 -82 -14 -135q0 -166 89 -260.5t273 -94.5q223 0 337 128t157 362l141 805q8 4 20.5 4t20.5 -4l-141 -805q-97 -530 -541 -530z" />
    <glyph glyph-name="V" unicode="V" horiz-adv-x="1144" 
d="M451 -8q-16 0 -25 4q-113 307 -166 621.5t-80 697.5q8 4 21.5 4t21.5 -4q51 -772 236 -1286q264 274 422.5 591.5t251.5 694.5q30 6 41 0q-96 -389 -255 -709.5t-444 -609.5q-8 -4 -24 -4z" />
    <glyph glyph-name="W" unicode="W" horiz-adv-x="1798" 
d="M1145 -8q-16 0 -25 4q-115 512 -116 1040v121q-29 -96 -35 -119q-178 -573 -555 -1042q-8 -4 -28.5 -4t-25.5 4q-133 506 -151 1321l4 2h23l16 -2q10 -758 141 -1299q434 561 608 1262q4 2 21 2l16 -2q-16 -573 109 -1255q477 582 659 1292l23 2h14l4 -2
q-186 -725 -678 -1321q-8 -4 -24 -4z" />
    <glyph glyph-name="X" unicode="X" horiz-adv-x="1077" 
d="M887 -2h-8l-324 637l-559 -637h-23q-8 0 -28 4l587 670l-319 645q25 4 39 4h8l305 -623l535 623h6q23 0 43 -4l-561 -655l338 -660q-25 -4 -39 -4z" />
    <glyph glyph-name="Y" unicode="Y" horiz-adv-x="1071" 
d="M440.5 -4q-12.5 0 -20.5 4l100 569l-352 748q20 4 35 4h6l330 -705l8 -16l8 16l557 705h14q13 0 33 -4l-600 -756l-98 -561q-8 -4 -20.5 -4z" />
    <glyph glyph-name="Z" unicode="Z" horiz-adv-x="1060" 
d="M-20 22.5q0 18.5 12 30.5l1063 1223h-852q-6 20 6 39h893q2 -4 2 -23t-14 -37l-1061 -1216h880q2 -16 -6 -39h-919q-4 4 -4 22.5z" />
    <glyph glyph-name="bracketleft" unicode="[" horiz-adv-x="505" 
d="M578 1366h-189l-299 -1696h189q4 -20 -9 -39h-229l313 1774h230q6 -21 -6 -39z" />
    <glyph glyph-name="backslash" unicode="\" horiz-adv-x="899" 
d="M671 -367q-15 0 -22 2l-473 1647q8 2 22 2t21 -2l473 -1647q-6 -2 -21 -2z" />
    <glyph glyph-name="bracketright" unicode="]" horiz-adv-x="501" 
d="M219 1405h230l-314 -1774h-229q-4 20 6 39h190l299 1696h-188q-6 21 6 39z" />
    <glyph glyph-name="asciicircum" unicode="^" horiz-adv-x="980" 
d="M186 733q-20 2 -26 19l471 630q25 2 47 0l256 -637q-12 -8 -31 -12l-252 617z" />
    <glyph glyph-name="underscore" unicode="_" horiz-adv-x="823" 
d="M711 -68v-10q0 -14 -6 -24h-818l-2 14q0 12 9 20h817z" />
    <glyph glyph-name="grave" unicode="`" horiz-adv-x="411" 
d="M541 1098l-252 250q12 23 33 32l239 -260q-4 -12 -20 -22z" />
    <glyph glyph-name="a" unicode="a" horiz-adv-x="1062" 
d="M393.5 23q110.5 0 216 65.5t189.5 196.5l104 596q-86 61 -250 61q-205 0 -363.5 -160.5t-158.5 -433.5q0 -156 76 -240.5t186.5 -84.5zM395 -18q-129 0 -219 91t-90 280.5t87 339t215 220t289.5 70.5t270.5 -80h2l-159 -903q-20 -6 -43 0l34 190l4 21
q-158 -229 -391 -229z" />
    <glyph glyph-name="b" unicode="b" horiz-adv-x="1071" 
d="M410 23q213 0 356 156.5t143 404.5q0 168 -97 263t-261 95t-279 -57l-141 -807q99 -55 279 -55zM568 983q169 0 276.5 -104.5t107.5 -288.5q0 -270 -157.5 -439t-376 -169t-332.5 73l227 1291q12 4 24.5 4t16.5 -4l-73 -420q118 57 287 57z" />
    <glyph glyph-name="c" unicode="c" horiz-adv-x="944" 
d="M475 -18q-176 0 -277.5 107.5t-101.5 297.5q0 276 146.5 436t359.5 160q178 0 283 -100q-6 -23 -27 -33q-59 51 -117.5 72.5t-146.5 21.5q-207 0 -331 -156.5t-124 -400.5q0 -166 89 -265t252 -99t290 106q20 -12 23 -33q-142 -114 -318 -114z" />
    <glyph glyph-name="d" unicode="d" horiz-adv-x="1071" 
d="M655 942q-227 0 -373.5 -155.5t-146.5 -405.5q0 -168 96.5 -263t260 -95t278.5 51l143 813q-98 55 -258 55zM1016 1354q12 0 20 -4l-229 -1295q-135 -74 -317 -73.5t-291 104.5t-109 289q0 272 162 440t412 168q156 0 258 -53l73 420q9 4 21 4z" />
    <glyph glyph-name="e" unicode="e" horiz-adv-x="970" 
d="M604 944q-164 0 -293 -118.5t-164 -319.5q121 -41 254 -41q225 0 333 79t108 197q0 84 -61.5 143.5t-176.5 59.5zM403 424q-147 0 -262 41q-4 -53 -4 -82q0 -168 89 -265.5t253 -97.5t295 119q18 -8 21 -28q-143 -129 -321 -129t-280 103t-102 290q0 279 152.5 443.5
t365.5 164.5q129 0 204 -66.5t75 -164.5q0 -145 -120 -236.5t-366 -91.5z" />
    <glyph glyph-name="f" unicode="f" horiz-adv-x="585" 
d="M608 1348q117 0 180 -45q-6 -23 -22 -35q-72 39 -168 39t-175 -68t-101 -211l-13 -72h309q6 -16 -6 -34h-307l-149 -922q-12 -4 -22.5 -4t-18.5 4l149 922h-153q-4 20 6 34h153l11 66q27 174 118.5 250t208.5 76z" />
    <glyph glyph-name="g" unicode="g" horiz-adv-x="1067" 
d="M470.5 45q153.5 0 309.5 105l129 729q-92 63 -266 63q-209 0 -357.5 -150.5t-148.5 -406.5q0 -158 90 -249t243.5 -91zM638 983q214 0 314 -80l-157 -899q-33 -182 -145.5 -286.5t-287.5 -104.5q-231 0 -362 147q10 25 33 31q115 -139 336 -139q141 0 248.5 95t136.5 257
l18 100q-160 -100 -317.5 -100t-260 98.5t-102.5 274.5q0 287 166 446.5t380 159.5z" />
    <glyph glyph-name="h" unicode="h" horiz-adv-x="1089" 
d="M624.5 983q188.5 0 262.5 -102.5t41 -278.5l-107 -602q-12 -4 -24 -4t-17 4l107 602q61 340 -285 340q-178 0 -321 -59h-2l-154 -883q-12 -4 -22.5 -4t-18.5 4l235 1346q12 4 24.5 4t16.5 -4l-73 -422q149 59 337.5 59z" />
    <glyph glyph-name="i" unicode="i" horiz-adv-x="411" 
d="M106.5 -4q-12.5 0 -20.5 4l170 958q23 11 41 0l-170 -958q-8 -4 -20.5 -4zM323.5 1198q-20.5 0 -36 15.5t-15.5 36t15.5 35.5t36 15t36 -15t15.5 -35.5t-15.5 -36t-36 -15.5z" />
    <glyph glyph-name="j" unicode="j" horiz-adv-x="440" 
d="M-148 -397q-100 0 -190 69q10 25 29 35q78 -63 164 -63t157.5 66.5t96.5 211.5l174 1030q4 4 17 4t22 -4l-175 -1030q-29 -168 -112 -243.5t-183 -75.5zM348.5 1192q-20.5 0 -36 15.5t-15.5 36t15.5 35.5t36 15t35.5 -15t15 -37t-15 -36t-35.5 -14z" />
    <glyph glyph-name="k" unicode="k" horiz-adv-x="983" 
d="M862 720q0 222 -298 222q-152 0 -283 -59l-156 -883q-12 -4 -22.5 -4t-18.5 4l238 1346q8 4 20 4t20 -4l-73 -422q119 59 281.5 59t248.5 -66.5t86 -177.5q0 -260 -360 -346l252 -393q-12 -4 -28.5 -4t-25.5 2l-239 373q-12 16 -12 49q180 47 275 118.5t95 181.5z" />
    <glyph glyph-name="l" unicode="l" horiz-adv-x="544" 
d="M111 141q0 33 4 52l202 1157q4 4 17.5 4t21.5 -4l-202 -1162q-4 -29 -4 -43q0 -121 126 -120q82 0 160 61q20 -14 21 -31q-2 -2 -13.5 -10t-19.5 -14q-60 -45 -143 -45t-126.5 40t-43.5 115z" />
    <glyph glyph-name="m" unicode="m" horiz-adv-x="1642" 
d="M1176 983q317 0 317 -268q0 -63 -8 -113l-115 -602q-12 -4 -24 -4t-17 4l111 588q10 43 10 133t-62.5 155.5t-199.5 65.5q-184 0 -330 -117q36 -89 12 -223l-106 -602q-12 -4 -24.5 -4t-16.5 4l102 588q10 57 11 104q0 250 -277 250q-164 0 -287 -59l-155 -883
q-12 -4 -22.5 -4t-18.5 4l157 903q147 80 342 80t267 -123q164 123 334 123z" />
    <glyph glyph-name="n" unicode="n" horiz-adv-x="1081" 
d="M585.5 983q188.5 0 266.5 -73.5t78 -202.5q0 -43 -10 -105l-107 -602q-12 -4 -24 -4t-17 4l107 602q8 43 8 96q0 244 -293 244q-184 0 -322 -61l-155 -881q-12 -4 -22.5 -4t-18.5 4l157 903q164 80 352.5 80z" />
    <glyph glyph-name="o" unicode="o" horiz-adv-x="1081" 
d="M477 23q203 0 319.5 161.5t116.5 380.5q0 170 -80.5 273.5t-244.5 103.5q-211 0 -330 -164t-119 -381q0 -172 87 -273t251 -101zM471 -18q-176 0 -276.5 109.5t-100.5 297.5q0 246 137.5 420t362.5 174q176 0 270 -110.5t94 -299.5q0 -244 -133 -417.5t-354 -173.5z" />
    <glyph glyph-name="p" unicode="p" horiz-adv-x="1071" 
d="M433.5 23q195.5 0 335.5 151.5t140 425.5q0 162 -94 252t-280 90q-137 0 -261 -61l-139 -795q103 -63 298.5 -63zM565.5 983q178.5 0 282.5 -99.5t104 -277.5q0 -297 -153.5 -460.5t-382.5 -163.5q-176 0 -291 57l-74 -424q-12 -4 -22.5 -4t-18.5 4l226 1288
q151 80 329.5 80z" />
    <glyph glyph-name="q" unicode="q" horiz-adv-x="1071" 
d="M488 23q173 0 294 110l133 750q-100 59 -295.5 59t-339 -156.5t-143.5 -404.5q0 -168 89 -263t262 -95zM630 983q220 0 328 -80l-227 -1288q-8 -4 -20.5 -4t-20.5 4l84 467q-127 -100 -302 -100t-277.5 104t-102.5 289q0 270 159 439t379 169z" />
    <glyph glyph-name="r" unicode="r" horiz-adv-x="702" 
d="M582 983q106 0 163 -20q-2 -23 -16 -39q-53 18 -164 18q-178 0 -293 -61l-155 -881q-8 -4 -20.5 -4t-20.5 4l157 903q156 80 349 80z" />
    <glyph glyph-name="s" unicode="s" horiz-adv-x="858" 
d="M352 -14q-207 0 -327 112q8 20 28 31q113 -104 305 -104q135 0 217 65.5t82 162.5t-52 145t-125.5 69.5t-148.5 44.5t-127 76q-52 52 -52 152t93 171.5t221 71.5t206 -29.5t114 -66.5q-8 -20 -26 -33q-109 88 -279 88q-125 0 -206.5 -60.5t-81.5 -145.5t52 -130
t126.5 -64.5t149.5 -43t127 -80t52 -152.5q0 -129 -97 -204.5t-251 -75.5z" />
    <glyph glyph-name="t" unicode="t" horiz-adv-x="724" 
d="M242 169q0 -71 47 -108.5t134 -37.5t191 63q18 -12 19 -33q-123 -72 -220 -71.5t-154.5 46.5t-57.5 123.5t8 120.5l115 650h-234v10q0 12 6 24h234l47 265q8 4 20.5 4t20.5 -4l-47 -265h370l2 -10q0 -12 -8 -24h-370l-111 -627q-12 -55 -12 -126z" />
    <glyph glyph-name="u" unicode="u" horiz-adv-x="1069" 
d="M944 952q12 0 21 -4l-158 -891q-168 -80 -371 -80q-313 0 -313 275q0 41 10 98l105 598q12 4 23 4t20 -4l-105 -594q-10 -55 -10 -94q0 -242 278 -242q170 0 326 66l154 864q8 4 20 4z" />
    <glyph glyph-name="v" unicode="v" horiz-adv-x="956" 
d="M883 774q0 -168 -174 -410.5t-375 -367.5q-12 -4 -26.5 -4t-22.5 4q-49 145 -95.5 442t-48.5 510q10 2 22.5 2t18.5 -2h2q0 -205 43 -493.5t78 -401.5q2 -4 5 -14t5 -14q8 6 23 20q195 135 349.5 358.5t154.5 372.5q0 102 -37 182l20 3h2q15 -1 25 -3q31 -76 31 -184z
" />
    <glyph glyph-name="w" unicode="w" horiz-adv-x="1484" 
d="M1407 778q0 -176 -153.5 -420.5t-309.5 -361.5q-12 -4 -26 -4t-23 4q-88 242 -139 674q-39 -188 -160 -381t-244 -293q-12 -4 -26 -4t-23 4q-55 145 -109.5 442t-56.5 510q10 2 22.5 2t18.5 -2h2q2 -207 52.5 -495.5t91.5 -399.5q2 -4 5 -14t5 -14q8 6 22 20
q147 139 266 368.5t119 401.5q-6 72 -6 133q10 2 22.5 2t18.5 -2h2q-2 -217 45 -496.5t92 -398.5q2 -4 5.5 -14t5.5 -14q8 6 22 20q162 143 290 360.5t128 374.5q0 102 -37 183l21 2h4q12 0 22 -2q31 -68 31 -185z" />
    <glyph glyph-name="x" unicode="x" horiz-adv-x="892" 
d="M150 950q12 8 43 8l247 -438l396 445q25 -1 45 -9l-418 -471l285 -481q-12 -8 -43 -8l-275 461l-430 -463q-29 0 -43 6l453 494z" />
    <glyph glyph-name="y" unicode="y" horiz-adv-x="1073" 
d="M944 952q12 0 17 -4l-166 -944q-35 -190 -144.5 -290.5t-290.5 -100.5q-227 0 -325 127q10 25 33 29q94 -117 299 -117q162 0 260 91t127 261l22 125q-152 -94 -339 -94q-359 0 -296 373l97 540q8 4 20 4t21 -4l-97 -540q-59 -332 271 -332q166 0 329 96l138 776
q12 4 24 4z" />
    <glyph glyph-name="z" unicode="z" horiz-adv-x="944" 
d="M862 936q0 -12 -20 -33l-709 -778q135 -106 324.5 -106.5t345.5 71.5q14 -12 14 -33q-152 -76 -357.5 -75.5t-357.5 112.5l-96 -106q-23 0 -22.5 16t32.5 49l764 840l23 20h-664q-4 16 6 37h715q2 -2 2 -14z" />
    <glyph glyph-name="braceleft" unicode="{" horiz-adv-x="550" 
d="M557 1366q-67 0 -105 -49t-57 -156l-71 -409q-37 -203 -154 -226q111 -18 74 -225l-76 -426q-16 -98 6 -143t86 -45h68q6 -18 -6 -39h-68q-84 0 -114 63t-11 164l74 426q37 205 -84 205h-49q-2 4 -2 14t8 27h49q63 0 101 49t57 156l71 409q18 106 72 175t137 69h68
q4 -20 -6 -39h-68z" />
    <glyph glyph-name="bar" unicode="|" horiz-adv-x="448" 
d="M45 -348l303 1728q25 12 41 0l-303 -1728q-25 -12 -41 0z" />
    <glyph glyph-name="braceright" unicode="}" horiz-adv-x="550" 
d="M473 532q0 -10 -10 -26h-47q-64 0 -102 -49t-56 -156l-76 -426q-18 -103 -69 -165t-136 -62h-67q-8 18 6 39h68q66 0 104 45t53 143l76 426q37 207 152 225q-109 18 -72 226l72 409q37 205 -88 205h-68q-6 20 6 39h68q85 0 113 -68t10 -176l-72 -409q-37 -205 84 -205h49
q2 -5 2 -15z" />
    <glyph glyph-name="asciitilde" unicode="~" horiz-adv-x="1028" 
d="M346 502q66 0 164 -46t143 -46q119 0 172 92q23 0 35 -13q-70 -119 -215 -118q-57 0 -155 46t-152 46q-117 0 -172 -92q-23 0 -35 12q70 119 215 119z" />
    <glyph glyph-name="uni00A0" unicode="&#xa0;" horiz-adv-x="532" 
 />
    <glyph glyph-name="exclamdown" unicode="&#xa1;" horiz-adv-x="413" 
d="M46 -358q-7 0 -19 4q106 598 188 1016q4 2 12 2t13 -2q-92 -584 -170 -1016q-17 -4 -24 -4zM319 932q-1 -23 -17 -38t-38 -15t-37 16q-16 16 -16 38t17 38q18 16 38 16t36 -16t17 -39z" />
    <glyph glyph-name="cent" unicode="&#xa2;" horiz-adv-x="970" 
d="M176 545q0 -154 77 -243t210 -105l151 870q-190 -15 -314 -157t-124 -365zM664 1108q176 0 280 -104q-8 -18 -31 -29q-94 94 -258 94h-4l-149 -876h18q154 0 291 102q20 -12 20 -33q-160 -109 -317 -108h-18l-37 -209q-5 -2 -19 -2t-20 2l37 211q-147 16 -237 113
q-89 97 -89 270q0 260 143 406t347 161l38 223q7 2 19 2t18 -2l-39 -221h7z" />
    <glyph glyph-name="sterling" unicode="&#xa3;" horiz-adv-x="1052" 
d="M274 883q0 219 119 339t309 121q190 0 289 -114q-10 -25 -30 -33q-97 106 -271 106t-273 -114t-99 -272t-7 -263h389q2 -20 -6 -39h-387q-12 -136 -40 -246t-47 -153t-68 -139q-10 -31 -11 -35h756l2 -14q0 -10 -10 -27h-801q0 49 49 131t83 191t46 292h-151q-2 14 6 39
h147q6 100 6 230z" />
    <glyph glyph-name="currency" unicode="&#xa4;" horiz-adv-x="1214" 
d="M588 207q208 0 324 137t116 346q0 168 -102 265t-264 98q-203 1 -326 -139t-123 -328q-1 -188 103 -283q104 -96 272 -96zM566 166q-186 0 -298 125l-133 -117q-16 6 -22 27l133 116q-74 100 -74 248q0 238 156 393l-84 101q10 20 30 26l84 -98q133 107 319 107t296 -127
l135 116q16 -10 22 -26l-135 -117q72 -104 72 -246q0 -258 -162 -407l82 -97q-12 -20 -31 -28l-82 98q-122 -94 -308 -94z" />
    <glyph glyph-name="yen" unicode="&#xa5;" horiz-adv-x="1067" 
d="M819 375q0 -8 -8 -29h-293l-61 -346q-9 -4 -21 -4t-20 4l61 346h-295q-2 4 -2 13t8 26h295l33 195h-293q-2 2 -2 10t8 28h271l-312 687q20 4 39 4h9l303 -674l6 -17l10 17l528 674h15q16 0 32 -4l-540 -687h268l2 -12q0 -10 -8 -26h-293l-33 -195h291q2 -2 2 -10z" />
    <glyph glyph-name="brokenbar" unicode="&#xa6;" horiz-adv-x="448" 
d="M45 -348l123 704q23 10 41 0l-123 -704q-25 -12 -41 0zM225 676l123 704q25 12 41 0l-123 -704q-23 -10 -41 0z" />
    <glyph glyph-name="section" unicode="&#xa7;" horiz-adv-x="1028" 
d="M356 -213q-88 0 -160 26q-72 25 -99 47q-28 22 -77 64q6 20 29 33q45 -43 72 -63t93 -44t148 -24q193 0 326 136t133 337q0 119 -88 227l-233 287q6 20 32 29l236 -283q94 -115 94 -260q0 -213 -148 -363t-358 -149zM170 831q0 213 148 363t358 149q88 1 160 -25t98 -45
t78 -67q-10 -20 -31 -32q-47 43 -72 63t-91 44t-148 24q-193 -1 -327 -137t-134 -337q0 -117 90 -227l233 -287q-9 -20 -32 -28l-236 282q-94 109 -94 260z" />
    <glyph glyph-name="dieresis" unicode="&#xa8;" horiz-adv-x="634" 
d="M738 1186q-19 0 -34.5 15.5t-15.5 34.5t15.5 34.5t34.5 15.5t34.5 -15.5t15.5 -34.5t-15.5 -34.5t-34.5 -15.5zM337.5 1186q-20.5 0 -35.5 15.5t-15 34.5t15 34.5t35.5 15.5t35 -15.5t14.5 -34.5t-14.5 -34.5t-35 -15.5z" />
    <glyph glyph-name="copyright" unicode="&#xa9;" horiz-adv-x="1495" 
d="M459 588q0 -308 272 -306q135 0 242 103q20 -14 20 -35q-66 -56 -126 -82t-150 -26q-139 0 -220 86t-81 239q0 201 120 324t277 123t244 -82q-8 -25 -31 -35q-72 76 -222 76t-247 -117q-98 -118 -98 -268zM690 2q291 0 474 200t184 531q0 227 -138 378t-366 151
q-300 0 -486 -203t-186 -529q0 -228 139 -378t379 -150zM684 -37q-254 0 -404 159t-149 402q0 342 201 559t518 217q246 0 391 -158t145 -403q0 -352 -196 -564t-506 -212z" />
    <glyph glyph-name="ordfeminine" unicode="&#xaa;" horiz-adv-x="741" 
d="M215 886q1 -152 189 -153q100 0 186 39l43 238q-80 55 -188 55t-169 -54q-61 -53 -61 -125zM482 1362q249 0 210 -225l-67 -385q-102 -54 -222 -54t-175 46q-54 46 -54 122q0 113 80 174q80 62 192 62t193 -53l14 77q18 102 -28 151q-47 48 -147 48t-185 -68
q-18 8 -19 27q88 78 208 78z" />
    <glyph glyph-name="guillemotleft" unicode="&#xab;" horiz-adv-x="755" 
d="M526 246l-184 278l285 287q14 -6 16 -20l-242 -265l152 -258q-7 -14 -27 -22zM281 246l-185 278l285 287q14 -6 16 -20l-241 -265l151 -258q-6 -14 -26 -22z" />
    <glyph glyph-name="registered" unicode="&#xae;" horiz-adv-x="1492" 
d="M1051 1026q-1 86 -55 134t-153 48t-167 -18l-62 -350q59 -25 183 -22q124 2 189 62t65 146zM856 1249q110 0 174 -55q64 -56 64 -150t-54 -160t-151 -91l121 -334q-25 -4 -33 -4h-12l-123 327q-42 -4 -100 -4t-136 19l-59 -334q-13 -4 -21 -4t-20 4l131 737l4 19
q105 30 215 30zM727 209q289 0 472 200t183 531q0 229 -137 379t-366 149q-299 0 -485 -202q-185 -203 -185 -529q0 -229 139 -379t379 -149zM887 1507q246 -1 391 -159t145 -402q1 -352 -195 -564t-507 -212q-254 0 -404 159t-149 402q0 344 200 560t519 216z" />
    <glyph glyph-name="macron" unicode="&#xaf;" horiz-adv-x="606" 
d="M272 1184q-4 0 -4 10t11 25h483q2 -3 2 -15t-8 -20h-484z" />
    <glyph glyph-name="degree" unicode="&#xb0;" horiz-adv-x="679" 
d="M440 971q76 0 131 55t56 131t-55 131t-132 55t-131 -55t-55 -131t55 -131t131 -55zM440 932q-94 0 -160 66t-65 159q0 94 66 160q65 65 159 65t160 -66t66 -159t-66 -159t-160 -66z" />
    <glyph glyph-name="plusminus" unicode="&#xb1;" horiz-adv-x="1019" 
d="M786 46q0 -18 -8 -17h-723q-8 23 6 37h723q2 -2 2 -20zM883 597q0 -17 -9 -17h-339l-64 -359q-20 -10 -37 -2l64 361h-344q-12 18 6 36h344l63 361q1 4 19 4t18 -4l-63 -361h340q2 -2 2 -19z" />
    <glyph glyph-name="acute" unicode="&#xb4;" horiz-adv-x="409" 
d="M260 1096q-14 8 -16 24l334 260q20 -10 22 -34z" />
    <glyph glyph-name="paragraph" unicode="&#xb6;" horiz-adv-x="1054" 
d="M506 299q10 0 18 -4l-112 -643q-12 -4 -22 -4t-19 4l112 643q13 4 23 4zM166 844q0 -146 95 -230t269 -84t275 31l121 690q-123 35 -258 35q-244 0 -373 -124t-129 -318zM664 -352q-8 0 -21 4l154 866q-109 -29 -256 -29q-205 -1 -311 93t-107 260q0 219 145 352t406 133
q162 0 297 -47l-287 -1628q-12 -4 -20 -4z" />
    <glyph glyph-name="periodcentered" unicode="&#xb7;" horiz-adv-x="421" 
d="M228 621q-22 0 -38 15q-16 14 -16 36t16 38t38 17q22 0 38 -15t16 -38t-16 -38t-38 -15z" />
    <glyph glyph-name="cedilla" unicode="&#xb8;" horiz-adv-x="399" 
d="M305 -237.5q0 -69.5 -69.5 -109.5t-152.5 -40t-108 12q4 25 17 37q27 -10 96.5 -10t121.5 29.5t52 83t-32.5 72t-131.5 36.5l49 127h41l-36 -98q80 -14 116.5 -42t36.5 -97.5z" />
    <glyph glyph-name="ordmasculine" unicode="&#xba;" horiz-adv-x="829" 
d="M756 1054q0 268 -243 269q-124 0 -201 -93q-76 -94 -76 -224t59 -200t183 -69q124 0 201 93q77 92 77 224zM795 1056q1 -150 -93 -252q-94 -104 -230 -104t-206 78t-69 209q0 168 94 271q94 104 229 104t205 -78t70 -228z" />
    <glyph glyph-name="guillemotright" unicode="&#xbb;" horiz-adv-x="753" 
d="M362 246q-16 10 -18 22l242 254l-148 269q10 14 25 20l182 -287zM117 246q-16 10 -19 22l242 254l-147 269q10 16 24 20l182 -287z" />
    <glyph glyph-name="onequarter" unicode="&#xbc;" horiz-adv-x="1409" 
d="M1284 236v-5q0 -18 -8 -36h-102l-33 -195q-7 -2 -21 -2t-20 2l35 195h-369q-12 49 16 88l353 503q29 0 41 -16l-342 -481q-25 -31 -23 -53h330l43 237q6 2 18 2t21 -2l-41 -237h102zM283 537q-16 0 -21 2l127 729l-199 -103q-16 16 -16 35q230 111 246 113t18 0
l-135 -774q-4 -2 -20 -2zM1251 1352q25 6 49 0l-1189 -1450q-31 -6 -50 0z" />
    <glyph glyph-name="onehalf" unicode="&#xbd;" horiz-adv-x="1439" 
d="M1282 41q0 -23 -6 -41h-498v4q-2 6 -2 16t25 31q317 283 390 365t73 160t-48 120t-118 41q-123 0 -197 -82q-23 4 -22 23q88 100 227 100q84 0 142 -50t58 -152t-128 -236q-57 -57 -328 -291l-16 -12l28 4h420zM283 537q-16 0 -21 2l127 729l-199 -103q-16 16 -16 35
q230 111 246 113t18 0l-135 -774q-4 -2 -20 -2zM1251 1352q27 6 49 0l-1189 -1450q-20 -6 -50 0z" />
    <glyph glyph-name="threequarters" unicode="&#xbe;" horiz-adv-x="1466" 
d="M1337 236v-7q0 -10 -8 -34h-102l-35 -195q-8 -2 -20 -2t-19 2l33 195h-367q-12 49 17 88l354 503q23 0 39 -16l-342 -481q-25 -35 -23 -53h330l41 237q9 2 21 2t20 -2l-43 -237h104zM635 831q0 -137 -90 -209t-205 -71q-154 0 -225 86q8 16 30 29q29 -29 45 -40
q49 -34 152 -34q102 0 176 62t74 167q0 180 -223 180h-37v5q-2 4 -2 12t20 29l246 227h-395q-2 23 6 41h463q4 -25 -21 -45l-256 -230q242 0 242 -209zM1380 1352q25 6 50 0l-1190 -1450q-27 -6 -50 0z" />
    <glyph glyph-name="questiondown" unicode="&#xbf;" horiz-adv-x="776" 
d="M35 -61q-1 -113 71 -179t205 -66t234 79q20 -8 20 -27q-121 -92 -265 -92t-228 75t-82 212q4 176 147 284q61 47 125 95t116 126t66 181l23 2q2 0 6 -1t6 -1q-12 -113 -62 -196q-51 -83 -113 -131t-124 -93q-146 -106 -145 -268zM465 864q-23 0 -39 16t-16 36q0 22 16 38
t39 16t38 -16t15 -38t-15 -36q-15 -16 -38 -16z" />
    <glyph glyph-name="Agrave" unicode="&#xc0;" horiz-adv-x="1126" 
d="M256 477h590l-152 723l-10 64l-33 -66zM956 -4h-8l-94 442h-618l-242 -440h-10q-23 0 -33 4l721 1313q6 2 18.5 2t18.5 -2l282 -1313q-14 -6 -35 -6zM874 1442q-2 -14 -16 -29l-299 193q6 25 25 34z" />
    <glyph glyph-name="Aacute" unicode="&#xc1;" horiz-adv-x="1126" 
d="M256 477h590l-152 723l-10 64l-33 -66zM956 -4h-8l-94 442h-618l-242 -440h-10q-23 0 -33 4l721 1313q6 2 18.5 2t18.5 -2l282 -1313q-14 -6 -35 -6zM901 1602l-366 -193q-10 10 -13 29l361 198q14 -5 18 -34z" />
    <glyph glyph-name="Acircumflex" unicode="&#xc2;" horiz-adv-x="1126" 
d="M256 477h590l-152 723l-10 64l-33 -66zM956 -4h-8l-94 442h-618l-242 -440h-10q-23 0 -33 4l721 1313q6 2 18.5 2t18.5 -2l282 -1313q-14 -6 -35 -6zM467 1382q-16 8 -18 23l268 233q20 6 41 0l184 -233q-6 -12 -24 -21l-187 215z" />
    <glyph glyph-name="Atilde" unicode="&#xc3;" horiz-adv-x="1126" 
d="M256 477h590l-152 723l-10 64l-33 -66zM690 1317q12 0 19 -2l282 -1313q-14 -6 -35 -6h-8l-94 442h-618l-242 -440h-10q-23 0 -33 4l721 1313q6 2 18 2zM590.5 1593q62.5 0 147.5 -48t132 -48q78 0 117 96q20 0 33 -12q-53 -123 -156 -123q-59 0 -143 48t-131 48
q-82 0 -160 -100q-20 4 -29 19q51 68 89 94t100.5 26z" />
    <glyph glyph-name="Adieresis" unicode="&#xc4;" horiz-adv-x="1126" 
d="M256 477h590l-152 723l-10 64l-33 -66zM956 -4h-8l-94 442h-618l-242 -440h-10q-23 0 -33 4l721 1313q6 2 18.5 2t18.5 -2l282 -1313q-14 -6 -35 -6zM917.5 1491q-20.5 0 -36 15.5t-15.5 34.5t15.5 34.5t36 15.5t35 -15t14.5 -36t-14.5 -35t-35 -14zM516.5 1491
q-20.5 0 -35 15.5t-14.5 34.5t14.5 34.5t35 15.5t35.5 -15t15 -36t-15 -35t-35.5 -14z" />
    <glyph glyph-name="Aring" unicode="&#xc5;" horiz-adv-x="1126" 
d="M256 477h590l-152 723l-10 64l-33 -66zM956 -4h-8l-94 442h-618l-242 -440h-10q-23 0 -33 4l721 1313q6 2 18.5 2t18.5 -2l282 -1313q-14 -6 -35 -6zM586 1502q0 -126 119 -126q60 0 99.5 42t39.5 118q0 115 -115 115q-57 0 -100 -44.5t-43 -104.5zM699 1337
q-75 0 -113.5 42t-38.5 118t57.5 134.5t130 58.5t111.5 -42t39 -122t-55.5 -134.5t-130.5 -54.5z" />
    <glyph glyph-name="AE" unicode="&#xc6;" horiz-adv-x="1521" 
d="M795 616l112 633l2 21l-489 -654h375zM-53 -4q-23 0 -33 4l987 1315h633q4 -23 -6 -39h-576l-114 -660h516q2 -23 -8 -38h-517l-94 -539h604q4 -20 -8 -39h-645l102 578h-397l-436 -582h-8z" />
    <glyph glyph-name="Ccedilla" unicode="&#xc7;" horiz-adv-x="1185" 
d="M825 1341q238 0 379 -145q-12 -16 -30 -27q-131 131 -355 131q-295 0 -469 -222t-174 -552q0 -238 117 -372t351 -134t378 134q20 -6 22 -29q-166 -143 -413 -145l-29 -78q80 -14 117 -42t37 -98t-70 -109.5t-153 -39.5t-107 12q4 25 16 37q27 -10 97 -10t122 30
q52 28 52 82t-33 72.5t-131 36.5l41 107q-221 10 -339 155.5t-118 388.5q0 350 190.5 583.5t501.5 233.5z" />
    <glyph glyph-name="Egrave" unicode="&#xc8;" horiz-adv-x="1042" 
d="M1049 1276h-674l-101 -569h615q4 -23 -6 -39h-615l-110 -629h702q4 -20 -8 -39h-741l231 1315h713q6 -21 -6 -39zM895 1442q-2 -14 -16 -29l-299 193q6 25 24 34z" />
    <glyph glyph-name="Eacute" unicode="&#xc9;" horiz-adv-x="1042" 
d="M1049 1276h-674l-101 -569h615q4 -23 -6 -39h-615l-110 -629h702q4 -20 -8 -39h-741l231 1315h713q6 -21 -6 -39zM922 1602l-367 -193q-10 10 -12 29l360 198q15 -5 19 -34z" />
    <glyph glyph-name="Ecircumflex" unicode="&#xca;" horiz-adv-x="1042" 
d="M1049 1276h-674l-101 -569h615q4 -23 -6 -39h-615l-110 -629h702q4 -20 -8 -39h-741l231 1315h713q6 -21 -6 -39zM487 1382q-16 8 -18 23l268 233q20 6 41 0l185 -233q-6 -12 -25 -21l-186 215z" />
    <glyph glyph-name="Edieresis" unicode="&#xcb;" horiz-adv-x="1042" 
d="M1049 1276h-674l-101 -569h615q4 -23 -6 -39h-615l-110 -629h702q4 -20 -8 -39h-741l231 1315h713q6 -21 -6 -39zM938 1491q-20 0 -35.5 15.5t-15.5 34.5t15.5 34.5t35.5 15.5t34.5 -15t14.5 -36t-14.5 -35t-34.5 -14zM536.5 1491q-20.5 0 -35 15.5t-14.5 34.5t14.5 34.5
t35 15.5t36 -15t15.5 -36t-15.5 -35t-36 -14z" />
    <glyph glyph-name="Igrave" unicode="&#xcc;" horiz-adv-x="458" 
d="M131 -4q-12 0 -20 4l231 1315q12 4 22.5 4t18.5 -4l-231 -1315q-9 -4 -21 -4zM545 1413l-299 193q6 25 24 34l291 -198q-2 -15 -16 -29z" />
    <glyph glyph-name="Iacute" unicode="&#xcd;" horiz-adv-x="458" 
d="M131 -4q-12 0 -20 4l231 1315q12 4 22.5 4t18.5 -4l-231 -1315q-9 -4 -21 -4zM221 1409q-10 10 -12 29l360 198q14 -6 19 -34z" />
    <glyph glyph-name="Icircumflex" unicode="&#xce;" horiz-adv-x="458" 
d="M131 -4q-12 0 -20 4l231 1315q12 4 22.5 4t18.5 -4l-231 -1315q-9 -4 -21 -4zM442 1640l148 -235q-6 -12 -25 -21l-145 215l-223 -217q-16 6 -23 21l236 237q16 4 32 0z" />
    <glyph glyph-name="Idieresis" unicode="&#xcf;" horiz-adv-x="458" 
d="M131 -4q-12 0 -20 4l231 1315q12 4 22.5 4t18.5 -4l-231 -1315q-9 -4 -21 -4zM564.5 1491q-21.5 0 -36 15.5t-14.5 34.5t14.5 34.5t35 15.5t35.5 -15t15 -36t-14 -35t-35.5 -14zM246.5 1491q-20.5 0 -36 15.5t-15.5 34.5t15 34.5t34.5 15.5t35 -15t15.5 -36t-14 -35
t-34.5 -14z" />
    <glyph glyph-name="Eth" unicode="&#xd0;" horiz-adv-x="1331" 
d="M440 23q348 0 550 218t202 523q0 256 -145.5 392t-417.5 136q-150 0 -254 -18l-105 -600h203q6 -18 -6 -31h-203l-104 -602q135 -18 280 -18zM635 1333q289 0 444.5 -147.5t155.5 -415.5q-1 -308 -199 -540q-96 -112 -252.5 -180t-342 -68t-330.5 18l112 643h-182
q-4 18 6 31h182l111 633q156 26 295 26z" />
    <glyph glyph-name="Ntilde" unicode="&#xd1;" horiz-adv-x="1331" 
d="M1235 1323q12 0 20 -4l-231 -1315q-12 -6 -41 -6l-596 1214l-16 35l-219 -1247q-8 -4 -20.5 -4t-20.5 4l231 1313q25 10 41 6l602 -1233l8 -20l221 1253q9 4 21 4zM715.5 1593q62.5 0 147.5 -48t132 -48q78 0 117 96q20 0 33 -12q-53 -123 -156 -123q-59 0 -143 48
t-131 48q-82 0 -160 -100q-20 4 -29 19q51 68 89 94t100.5 26z" />
    <glyph glyph-name="Ograve" unicode="&#xd2;" horiz-adv-x="1382" 
d="M643 20q274 0 434 212t160 565q0 229 -122 366t-347 137q-260 0 -425 -220t-165 -554q0 -236 119 -371t346 -135zM635 -20q-242 0 -371 147t-129 395q0 360 181.5 589.5t459.5 229.5q240 0 372 -150.5t132 -393.5q0 -375 -176 -596t-469 -221zM952 1413l-299 193
q6 25 25 34l291 -198q-3 -15 -17 -29z" />
    <glyph glyph-name="Oacute" unicode="&#xd3;" horiz-adv-x="1382" 
d="M643 20q274 0 434 212t160 565q0 229 -122 366t-347 137q-260 0 -425 -220t-165 -554q0 -236 119 -371t346 -135zM635 -20q-242 0 -371 147t-129 395q0 360 181.5 589.5t459.5 229.5q240 0 372 -150.5t132 -393.5q0 -375 -176 -596t-469 -221zM629 1409q-10 10 -13 29
l361 198q14 -6 18 -34z" />
    <glyph glyph-name="Ocircumflex" unicode="&#xd4;" horiz-adv-x="1382" 
d="M643 20q274 0 434 212t160 565q0 229 -122 366t-347 137q-260 0 -425 -220t-165 -554q0 -236 119 -371t346 -135zM635 -20q-242 0 -371 147t-129 395q0 360 181.5 589.5t459.5 229.5q240 0 372 -150.5t132 -393.5q0 -375 -176 -596t-469 -221zM852 1638l184 -233
q-6 -12 -24 -21l-187 215l-264 -217q-16 8 -18 23l268 233q21 6 41 0z" />
    <glyph glyph-name="Otilde" unicode="&#xd5;" horiz-adv-x="1382" 
d="M643 20q274 0 434 212t160 565q0 229 -122 366t-347 137q-260 0 -425 -220t-165 -554q0 -236 119 -371t346 -135zM635 -20q-242 0 -371 147t-129 395q0 360 181.5 589.5t459.5 229.5q240 0 372 -150.5t132 -393.5q0 -375 -176 -596t-469 -221zM685 1593q62 0 147.5 -48
t132.5 -48q78 0 116 96q20 0 33 -12q-53 -123 -156 -123q-59 0 -143 48t-131 48q-82 0 -160 -100q-20 4 -28 19q51 68 89 94t100 26z" />
    <glyph glyph-name="Odieresis" unicode="&#xd6;" horiz-adv-x="1382" 
d="M643 20q274 0 434 212t160 565q0 229 -122 366t-347 137q-260 0 -425 -220t-165 -554q0 -236 119 -371t346 -135zM635 -20q-242 0 -371 147t-129 395q0 360 181.5 589.5t459.5 229.5q240 0 372 -150.5t132 -393.5q0 -375 -176 -596t-469 -221zM1011.5 1491
q-20.5 0 -35.5 15.5t-15 34.5t15 34.5t35.5 15.5t35 -15t14.5 -36t-14.5 -35t-35 -14zM610.5 1491q-20.5 0 -35 15.5t-14.5 34.5t14.5 34.5t35 15.5t36 -15t15.5 -36t-15.5 -35t-36 -14z" />
    <glyph glyph-name="multiply" unicode="&#xd7;" horiz-adv-x="851" 
d="M727 737l-289 -256l199 -254q-10 -20 -31 -26l-198 254l-287 -254q-20 8 -21 26l287 254l-199 256q12 16 31 27l199 -254l287 254q16 -9 22 -27z" />
    <glyph glyph-name="Oslash" unicode="&#xd8;" horiz-adv-x="1382" 
d="M643 20q274 0 434 212t160 565q0 250 -137 383l-735 -1084q110 -76 278 -76zM178 526q0 -274 158 -407l737 1085q-119 96 -305 96q-260 0 -425 -220t-165 -554zM1280 797q0 -375 -176 -596t-469 -221q-174 0 -295 79l-94 -139q-18 4 -29 23l94 139q-176 141 -176 440
q0 360 181.5 589.5t459.5 229.5q195 0 322 -102l104 156q23 -4 29 -21l-107 -157q156 -150 156 -420z" />
    <glyph glyph-name="Ugrave" unicode="&#xd9;" horiz-adv-x="1310" 
d="M569 -20q-197 0 -297 103t-100 286q0 72 14 141l142 805q8 4 20 4t21 -4l-142 -805q-14 -82 -14 -135q0 -166 89 -260.5t273 -94.5q223 0 337 128t157 362l141 805q8 4 20.5 4t20.5 -4l-141 -805q-97 -530 -541 -530zM965 1413l-299 193q6 25 24 34l291 -198
q-2 -15 -16 -29z" />
    <glyph glyph-name="Uacute" unicode="&#xda;" horiz-adv-x="1310" 
d="M569 -20q-197 0 -297 103t-100 286q0 72 14 141l142 805q8 4 20 4t21 -4l-142 -805q-14 -82 -14 -135q0 -166 89 -260.5t273 -94.5q223 0 337 128t157 362l141 805q8 4 20.5 4t20.5 -4l-141 -805q-97 -530 -541 -530zM641 1409q-10 10 -12 29l360 198q14 -6 19 -34z" />
    <glyph glyph-name="Ucircumflex" unicode="&#xdb;" horiz-adv-x="1310" 
d="M569 -20q-197 0 -297 103t-100 286q0 72 14 141l142 805q8 4 20 4t21 -4l-142 -805q-14 -82 -14 -135q0 -166 89 -260.5t273 -94.5q223 0 337 128t157 362l141 805q8 4 20.5 4t20.5 -4l-141 -805q-97 -530 -541 -530zM864 1638l185 -233q-6 -12 -25 -21l-186 215
l-265 -217q-16 8 -18 23l268 233q21 6 41 0z" />
    <glyph glyph-name="Udieresis" unicode="&#xdc;" horiz-adv-x="1310" 
d="M569 -20q-197 0 -297 103t-100 286q0 72 14 141l142 805q8 4 20 4t21 -4l-142 -805q-14 -82 -14 -135q0 -166 89 -260.5t273 -94.5q223 0 337 128t157 362l141 805q8 4 20.5 4t20.5 -4l-141 -805q-97 -530 -541 -530zM1024 1491q-20 0 -35.5 15.5t-15.5 34.5t15.5 34.5
t35.5 15.5t34.5 -15t14.5 -36t-14.5 -35t-34.5 -14zM622.5 1491q-20.5 0 -35 15.5t-14.5 34.5t14.5 34.5t35 15.5t36 -15t15.5 -36t-15.5 -35t-36 -14z" />
    <glyph glyph-name="Yacute" unicode="&#xdd;" horiz-adv-x="1071" 
d="M440.5 -4q-12.5 0 -20.5 4l100 569l-352 748q20 4 35 4h6l330 -705l8 -16l8 16l557 705h14q13 0 33 -4l-600 -756l-98 -561q-8 -4 -20.5 -4zM877 1602l-367 -193q-10 10 -12 29l360 198q15 -5 19 -34z" />
    <glyph glyph-name="Thorn" unicode="&#xde;" horiz-adv-x="1046" 
d="M498.5 324q205.5 0 323.5 111.5t118 293.5q0 143 -90 226t-270 83q-131 0 -250 -34l-117 -654q80 -26 285.5 -26zM588 1079q195 0 295 -90t100 -250q0 -205 -136 -330.5t-378 -125.5q-172 0 -262 24l-55 -307q-8 -4 -20.5 -4t-20.5 4l233 1319q8 4 20.5 4t20.5 -4
l-49 -275q123 35 252 35z" />
    <glyph glyph-name="germandbls" unicode="&#xdf;" horiz-adv-x="1075" 
d="M942 220q0 -98 -85 -166t-239 -68t-245 104q6 25 30 33q87 -98 221 -98t204 57t71 134q0 77 -39 128t-95 84q-55 33 -111 66q-134 79 -134 184q0 136 156 205q66 29 132 59t110 84q45 55 45 141q0 85 -67 141q-68 56 -214 56t-249 -96t-130 -254l-178 -1014
q-13 -4 -23 -4t-18 4l178 1014q31 180 151 285q119 105 275 105t237 -66q81 -67 81 -158q0 -166 -115 -234q-84 -50 -213 -105q-49 -22 -82 -64t-33 -102q-1 -61 59 -111t131 -82t130 -98t59 -164z" />
    <glyph glyph-name="agrave" unicode="&#xe0;" horiz-adv-x="1062" 
d="M393.5 23q110.5 0 216 65.5t189.5 196.5l104 596q-86 61 -250 61q-205 0 -363.5 -160.5t-158.5 -433.5q0 -156 76 -240.5t186.5 -84.5zM395 -18q-129 0 -219 91t-90 280.5t87 339t215 220t289.5 70.5t270.5 -80h2l-159 -903q-20 -6 -43 0l34 190l4 21
q-158 -229 -391 -229zM813 1120q-4 -12 -20 -22l-252 250q12 23 32 32z" />
    <glyph glyph-name="aacute" unicode="&#xe1;" horiz-adv-x="1062" 
d="M393.5 23q110.5 0 216 65.5t189.5 196.5l104 596q-86 61 -250 61q-205 0 -363.5 -160.5t-158.5 -433.5q0 -156 76 -240.5t186.5 -84.5zM395 -18q-129 0 -219 91t-90 280.5t87 339t215 220t289.5 70.5t270.5 -80h2l-159 -903q-20 -6 -43 0l34 190l4 21
q-158 -229 -391 -229zM512 1096q-14 8 -16 24l333 260q20 -10 23 -34z" />
    <glyph glyph-name="acircumflex" unicode="&#xe2;" horiz-adv-x="1062" 
d="M393.5 23q110.5 0 216 65.5t189.5 196.5l104 596q-86 61 -250 61q-205 0 -363.5 -160.5t-158.5 -433.5q0 -156 76 -240.5t186.5 -84.5zM395 -18q-129 0 -219 91t-90 280.5t87 339t215 220t289.5 70.5t270.5 -80h2l-159 -903q-20 -6 -43 0l34 190l4 21
q-158 -229 -391 -229zM426 1096q-16 8 -18 24l276 266q18 6 37 0l184 -266q-6 -12 -24 -20l-181 248z" />
    <glyph glyph-name="atilde" unicode="&#xe3;" horiz-adv-x="1062" 
d="M393.5 23q110.5 0 216 65.5t189.5 196.5l104 596q-86 61 -250 61q-205 0 -363.5 -160.5t-158.5 -433.5q0 -156 76 -240.5t186.5 -84.5zM677.5 983q161.5 0 270.5 -80h2l-159 -903q-20 -6 -43 0l34 190l4 21q-158 -229 -391 -229q-129 0 -219 91t-90 280.5t87 339t215 220
t289.5 70.5zM564 1305q60 0 139 -46.5t122 -46.5q76 0 117 93q25 0 33 -13q-55 -119 -156 -118q-55 0 -133 46t-121 46q-83 -1 -157 -97q-20 4 -29 19q49 63 87 90t98 27z" />
    <glyph glyph-name="adieresis" unicode="&#xe4;" horiz-adv-x="1062" 
d="M393.5 23q110.5 0 216 65.5t189.5 196.5l104 596q-86 61 -250 61q-205 0 -363.5 -160.5t-158.5 -433.5q0 -156 76 -240.5t186.5 -84.5zM395 -18q-129 0 -219 91t-90 280.5t87 339t215 220t289.5 70.5t270.5 -80h2l-159 -903q-20 -6 -43 0l34 190l4 21
q-158 -229 -391 -229zM876.5 1186q-20.5 0 -36 15.5t-15.5 34.5t15.5 34.5t34.5 15.5t35 -15.5t16 -34.5t-14.5 -34.5t-35 -15.5zM475.5 1186q-20.5 0 -36 15.5t-15.5 34.5t15.5 34.5t36 15.5t34.5 -15.5t14 -34.5t-14 -34.5t-34.5 -15.5z" />
    <glyph glyph-name="aring" unicode="&#xe5;" horiz-adv-x="1062" 
d="M393.5 23q110.5 0 216 65.5t189.5 196.5l104 596q-86 61 -250 61q-205 0 -363.5 -160.5t-158.5 -433.5q0 -156 76 -240.5t186.5 -84.5zM395 -18q-129 0 -219 91t-90 280.5t87 339t215 220t289.5 70.5t270.5 -80h2l-159 -903q-20 -6 -43 0l34 190l4 21
q-158 -229 -391 -229zM686 1368q-57 0 -99 -44t-42 -104q0 -126 117 -126q63 0 102 43t39 116q0 115 -117 115zM657 1055q-153 1 -153 161q0 76 57 133.5t131 57.5t113 -42t39 -121t-55.5 -134t-131.5 -55z" />
    <glyph glyph-name="ae" unicode="&#xe6;" horiz-adv-x="1611" 
d="M344 23q135 0 267 136t169 315t123 304q-102 164 -302 164t-337 -189.5t-137 -445.5q0 -139 60.5 -211.5t156.5 -72.5zM1053 465q201 0 317.5 71.5t116.5 206.5q0 90 -60.5 145.5t-166.5 55.5t-228 -84q-66 -45 -122 -142t-89 -233q117 -20 232 -20zM805 360
q0 -172 81 -256t220 -84q72 0 135.5 20.5t95 40t76.5 54.5q18 -8 21 -33q-55 -38 -93 -60q-105 -60 -253 -60t-233 90t-87 266q-68 -162 -184.5 -259t-235 -97t-192.5 78.5t-74 242.5q0 276 152.5 478t364.5 202t331 -168q147 168 336 168q121 0 192.5 -62.5t71.5 -177.5
q0 -160 -125 -239.5t-340 -79.5q-111 0 -250 22v-6q-10 -30 -10 -80z" />
    <glyph glyph-name="ccedilla" unicode="&#xe7;" horiz-adv-x="944" 
d="M602 983q178 0 283 -100q-6 -23 -27 -33q-59 51 -117.5 72.5t-146.5 21.5q-207 0 -331 -156.5t-124 -400.5q0 -166 89 -265t252 -99t290 106q20 -12 23 -33q-139 -113 -312 -114l-30 -80q80 -14 116.5 -42t36.5 -98t-69.5 -109.5t-152.5 -39.5t-108 12q4 25 17 37
q27 -10 97 -10t122 30q52 28 51.5 82t-33 72.5t-131.5 36.5l43 111q-162 10 -253 115.5t-91 287.5q0 276 146.5 436t359.5 160z" />
    <glyph glyph-name="egrave" unicode="&#xe8;" horiz-adv-x="970" 
d="M604 944q-164 0 -293 -118.5t-164 -319.5q121 -41 254 -41q225 0 333 79t108 197q0 84 -61.5 143.5t-176.5 59.5zM403 424q-147 0 -262 41q-4 -53 -4 -82q0 -168 89 -265.5t253 -97.5t295 119q18 -8 21 -28q-143 -129 -321 -129t-280 103t-102 290q0 279 152.5 443.5
t365.5 164.5q129 0 204 -66.5t75 -164.5q0 -145 -120 -236.5t-366 -91.5zM752 1120q-4 -12 -21 -22l-252 250q12 23 33 32z" />
    <glyph glyph-name="eacute" unicode="&#xe9;" horiz-adv-x="970" 
d="M604 944q-164 0 -293 -118.5t-164 -319.5q121 -41 254 -41q225 0 333 79t108 197q0 84 -61.5 143.5t-176.5 59.5zM403 424q-147 0 -262 41q-4 -53 -4 -82q0 -168 89 -265.5t253 -97.5t295 119q18 -8 21 -28q-143 -129 -321 -129t-280 103t-102 290q0 279 152.5 443.5
t365.5 164.5q129 0 204 -66.5t75 -164.5q0 -145 -120 -236.5t-366 -91.5zM451 1096q-14 8 -17 24l334 260q20 -10 23 -34z" />
    <glyph glyph-name="ecircumflex" unicode="&#xea;" horiz-adv-x="970" 
d="M604 944q-164 0 -293 -118.5t-164 -319.5q121 -41 254 -41q225 0 333 79t108 197q0 84 -61.5 143.5t-176.5 59.5zM403 424q-147 0 -262 41q-4 -53 -4 -82q0 -168 89 -265.5t253 -97.5t295 119q18 -8 21 -28q-143 -129 -321 -129t-280 103t-102 290q0 279 152.5 443.5
t365.5 164.5q129 0 204 -66.5t75 -164.5q0 -145 -120 -236.5t-366 -91.5zM365 1096q-16 8 -19 24l277 266q18 6 36 0l185 -266q-6 -12 -25 -20l-180 248z" />
    <glyph glyph-name="edieresis" unicode="&#xeb;" horiz-adv-x="970" 
d="M604 944q-164 0 -293 -118.5t-164 -319.5q121 -41 254 -41q225 0 333 79t108 197q0 84 -61.5 143.5t-176.5 59.5zM403 424q-147 0 -262 41q-4 -53 -4 -82q0 -168 89 -265.5t253 -97.5t295 119q18 -8 21 -28q-143 -129 -320.5 -129t-280 103t-102.5 290q0 279 152.5 443.5
t365.5 164.5q129 0 204 -66.5t75 -164.5q0 -145 -120 -236.5t-366 -91.5zM815.5 1186q-20.5 0 -36 15.5t-15.5 34.5t15.5 34.5t34.5 15.5t34.5 -15.5t15.5 -34.5t-14 -34.5t-34.5 -15.5zM413.5 1186q-20.5 0 -36 15.5t-15.5 34.5t15.5 34.5t36 15.5t35 -15.5t14.5 -34.5
t-14.5 -34.5t-35 -15.5z" />
    <glyph glyph-name="igrave" unicode="&#xec;" horiz-adv-x="411" 
d="M106.5 -4q-12.5 0 -20.5 4l170 958q23 11 41 0l-170 -958q-8 -4 -20.5 -4zM440 1098l-252 250q12 23 33 32l240 -260q-5 -12 -21 -22z" />
    <glyph glyph-name="iacute" unicode="&#xed;" horiz-adv-x="411" 
d="M106.5 -4q-12.5 0 -20.5 4l170 958q23 11 41 0l-170 -958q-8 -4 -20.5 -4zM160 1096q-14 8 -17 24l334 260q20 -10 23 -34z" />
    <glyph glyph-name="icircumflex" unicode="&#xee;" horiz-adv-x="411" 
d="M106.5 -4q-12.5 0 -20.5 4l170 958q23 11 41 0l-170 -958q-8 -4 -20.5 -4zM346 1386l166 -270q-10 -14 -27 -18l-161 250l-248 -252q-10 4 -21 20l256 270q17 4 35 0z" />
    <glyph glyph-name="idieresis" unicode="&#xef;" horiz-adv-x="411" 
d="M106.5 -4q-12.5 0 -20.5 4l170 958q23 11 41 0l-170 -958q-8 -4 -20.5 -4zM471.5 1186q-20.5 0 -35 15.5t-14.5 34.5t14.5 34.5t35 15.5t35.5 -15.5t15 -34.5t-15 -34.5t-35.5 -15.5zM153 1186q-19 0 -35 15.5t-16 34.5t15.5 34.5t35 15.5t35 -15.5t15.5 -34.5
t-15.5 -34.5t-34.5 -15.5z" />
    <glyph glyph-name="eth" unicode="&#xf0;" horiz-adv-x="1054" 
d="M133 362q0 -154 84 -246t258 -93q174 0 290 136t116 347q0 145 -89 239q-89 95 -256 95t-285 -134t-118 -344zM920 489q0 -219 -130 -363t-337 -144q-170 0 -268 98q-97 98 -97 266q0 242 137 388t332 147q107 1 191 -51t129 -144q-20 209 -97 340q-49 80 -118 139
l-213 -139q-14 6 -15 29l203 131q-88 66 -207 104q4 25 16 37q125 -43 222 -121l184 121q14 -10 14 -27l-176 -114q72 -66 121 -152q109 -195 109 -545z" />
    <glyph glyph-name="ntilde" unicode="&#xf1;" horiz-adv-x="1081" 
d="M585.5 983q188.5 0 266.5 -73.5t78 -202.5q0 -43 -10 -105l-107 -602q-12 -4 -24 -4t-17 4l107 602q8 43 8 96q0 244 -293 244q-184 0 -322 -61l-155 -881q-12 -4 -22.5 -4t-18.5 4l157 903q164 80 352.5 80zM529.5 1305q60.5 0 139.5 -46.5t122 -46.5q76 0 116 93
q23 0 33 -13q-55 -119 -156 -118q-55 0 -133 46t-121 46q-83 -1 -157 -97q-20 4 -29 19q49 63 87 90t98.5 27z" />
    <glyph glyph-name="ograve" unicode="&#xf2;" horiz-adv-x="1081" 
d="M477 23q203 0 319.5 161.5t116.5 380.5q0 170 -80.5 273.5t-244.5 103.5q-211 0 -330 -164t-119 -381q0 -172 87 -273t251 -101zM471 -18q-176 0 -276.5 109.5t-100.5 297.5q0 246 137.5 420t362.5 174q176 0 270 -110.5t94 -299.5q0 -244 -133 -417.5t-354 -173.5z
M735 1098l-252 250q12 23 33 32l240 -260q-5 -12 -21 -22z" />
    <glyph glyph-name="oacute" unicode="&#xf3;" horiz-adv-x="1081" 
d="M477 23q203 0 319.5 161.5t116.5 380.5q0 170 -80.5 273.5t-244.5 103.5q-211 0 -330 -164t-119 -381q0 -172 87 -273t251 -101zM471 -18q-176 0 -276.5 109.5t-100.5 297.5q0 246 137.5 420t362.5 174q176 0 270 -110.5t94 -299.5q0 -244 -133 -417.5t-354 -173.5z
M455 1096q-14 8 -17 24l334 260q20 -10 23 -34z" />
    <glyph glyph-name="ocircumflex" unicode="&#xf4;" horiz-adv-x="1081" 
d="M477 23q203 0 319.5 161.5t116.5 380.5q0 170 -80.5 273.5t-244.5 103.5q-211 0 -330 -164t-119 -381q0 -172 87 -273t251 -101zM471 -18q-176 0 -276.5 109.5t-100.5 297.5q0 246 137.5 420t362.5 174q176 0 270 -110.5t94 -299.5q0 -244 -133 -417.5t-354 -173.5z
M664 1386l184 -266q-6 -12 -25 -20l-180 248l-274 -252q-16 8 -19 24l277 266q19 6 37 0z" />
    <glyph glyph-name="otilde" unicode="&#xf5;" horiz-adv-x="1081" 
d="M477 23q203 0 319.5 161.5t116.5 380.5q0 170 -80.5 273.5t-244.5 103.5q-211 0 -330 -164t-119 -381q0 -172 87 -273t251 -101zM471 -18q-176 0 -276.5 109.5t-100.5 297.5q0 246 137.5 420t362.5 174q176 0 270 -110.5t94 -299.5q0 -244 -133 -417.5t-354 -173.5z
M506.5 1305q60.5 0 139.5 -46.5t122 -46.5q76 0 117 93q23 0 33 -13q-55 -119 -156 -118q-55 0 -133 46t-121 46q-84 -1 -158 -97q-20 4 -28 19q49 63 86.5 90t98 27z" />
    <glyph glyph-name="odieresis" unicode="&#xf6;" horiz-adv-x="1081" 
d="M477 23q203 0 319.5 161.5t116.5 380.5q0 170 -80.5 273.5t-244.5 103.5q-211 0 -330 -164t-119 -381q0 -172 87 -273t251 -101zM471 -18q-176 0 -276.5 109.5t-100.5 297.5q0 246 137.5 420t362.5 174q176 0 270 -110.5t94 -299.5q0 -244 -133 -417.5t-354 -173.5z
M819.5 1186q-20.5 0 -36 15.5t-15.5 34.5t15.5 34.5t34.5 15.5t34.5 -15.5t15.5 -34.5t-14 -34.5t-34.5 -15.5zM417.5 1186q-20.5 0 -35.5 15.5t-15 34.5t15 34.5t35.5 15.5t35 -15.5t14.5 -34.5t-14.5 -34.5t-35 -15.5z" />
    <glyph glyph-name="divide" unicode="&#xf7;" horiz-adv-x="1044" 
d="M456 125q-22 0 -38 15q-16 14 -16 36t16 38t38 17q22 0 38 -15t16 -38t-16 -38t-38 -15zM145 463q-2 0 -2 18q6 18 9 19h720q2 0 2 -19q-4 -18 -8 -18h-721zM563 733q-23 -1 -38 15t-15 37t15 37t38 18q23 0 38 -16t15 -38q0 -23 -15 -38t-38 -15z" />
    <glyph glyph-name="oslash" unicode="&#xf8;" horiz-adv-x="1081" 
d="M477 23q203 0 319.5 161.5t116.5 376.5t-114 311l-512 -798q75 -51 190 -51zM139 404q0 -210 117 -310l514 801q-72 47 -182 47q-211 0 -330 -164t-119 -374zM958 565.5q0 -236.5 -133 -410t-354 -173.5q-121 0 -209 53l-117 -180q-29 4 -32 18l118 184
q-137 109 -137 343.5t137.5 408.5t362.5 174q115 0 201 -51l110 172q25 0 33 -17l-115 -176q135 -109 135 -345.5z" />
    <glyph glyph-name="ugrave" unicode="&#xf9;" horiz-adv-x="1069" 
d="M944 952q12 0 21 -4l-158 -891q-168 -80 -371 -80q-313 0 -313 275q0 41 10 98l105 598q12 4 23 4t20 -4l-105 -594q-10 -55 -10 -94q0 -242 278 -242q170 0 326 66l154 864q8 4 20 4zM780 1120q-4 -12 -20 -22l-252 250q12 23 33 32z" />
    <glyph glyph-name="uacute" unicode="&#xfa;" horiz-adv-x="1069" 
d="M944 952q12 0 21 -4l-158 -891q-168 -80 -371 -80q-313 0 -313 275q0 41 10 98l105 598q12 4 23 4t20 -4l-105 -594q-10 -55 -10 -94q0 -242 278 -242q170 0 326 66l154 864q8 4 20 4zM479 1096q-14 8 -16 24l334 260q20 -10 22 -34z" />
    <glyph glyph-name="ucircumflex" unicode="&#xfb;" horiz-adv-x="1069" 
d="M944 952q12 0 21 -4l-158 -891q-168 -80 -371 -80q-313 0 -313 275q0 41 10 98l105 598q12 4 23 4t20 -4l-105 -594q-10 -55 -10 -94q0 -242 278 -242q170 0 326 66l154 864q8 4 20 4zM393 1096q-16 8 -18 24l276 266q18 6 37 0l184 -266q-6 -12 -24 -20l-180 248z" />
    <glyph glyph-name="udieresis" unicode="&#xfc;" horiz-adv-x="1069" 
d="M944 952q12 0 21 -4l-158 -891q-168 -80 -371 -80q-313 0 -313 275q0 41 10 98l105 598q12 4 23 4t20 -4l-105 -594q-10 -55 -10 -94q0 -242 278 -242q170 0 326 66l154 864q8 4 20 4zM844.5 1186q-20.5 0 -36 15.5t-15.5 34.5t15 34.5t34.5 15.5t35 -15.5t15.5 -34.5
t-14 -34.5t-34.5 -15.5zM442.5 1186q-20.5 0 -36 15.5t-15.5 34.5t15.5 34.5t36 15.5t35 -15.5t14.5 -34.5t-14.5 -34.5t-35 -15.5z" />
    <glyph glyph-name="yacute" unicode="&#xfd;" horiz-adv-x="1073" 
d="M944 952q12 0 17 -4l-166 -944q-35 -190 -144.5 -290.5t-290.5 -100.5q-227 0 -325 127q10 25 33 29q94 -117 299 -117q162 0 260 91t127 261l22 125q-152 -94 -339 -94q-359 0 -296 373l97 540q8 4 20 4t21 -4l-97 -540q-59 -332 271 -332q166 0 329 96l138 776
q12 4 24 4zM483 1096q-14 8 -16 24l334 260q20 -10 22 -34z" />
    <glyph glyph-name="thorn" unicode="&#xfe;" horiz-adv-x="1077" 
d="M442.5 23q194.5 0 333.5 152.5t139 428.5q0 160 -94 249t-258.5 89t-281.5 -63l-142 -793q109 -63 303.5 -63zM555 983q195 0 299 -98.5t104 -274.5q0 -299 -153.5 -463.5t-382.5 -164.5q-176 0 -291 57l-74 -424q-12 -4 -22 -4t-19 4l226 1286v2h2l78 447q8 4 20 4
t20 -4l-73 -424q133 57 266 57z" />
    <glyph glyph-name="ydieresis" unicode="&#xff;" horiz-adv-x="1073" 
d="M944 952q12 0 17 -4l-166 -944q-35 -190 -144.5 -290.5t-290.5 -100.5q-227 0 -325 127q10 25 33 29q94 -117 299 -117q162 0 260 91t127 261l22 125q-152 -94 -339 -94q-359 0 -296 373l97 540q8 4 20 4t21 -4l-97 -540q-59 -332 271 -332q166 0 329 96l138 776
q12 4 24 4zM848.5 1186q-20.5 0 -36 15.5t-15.5 34.5t15 34.5t34.5 15.5t35 -15.5t15.5 -34.5t-14 -34.5t-34.5 -15.5zM446.5 1186q-20.5 0 -36 15.5t-15.5 34.5t15.5 34.5t36 15.5t35 -15.5t14.5 -34.5t-14.5 -34.5t-35 -15.5z" />
    <glyph glyph-name="Amacron" unicode="&#x100;" horiz-adv-x="1126" 
d="M256 477h590l-152 723l-10 64l-33 -66zM956 -4h-8l-94 442h-618l-242 -440h-10q-23 0 -33 4l721 1313q6 2 18.5 2t18.5 -2l282 -1313q-14 -6 -35 -6zM465 1495q-12 4 6 35h485q10 -18 -6 -35h-485z" />
    <glyph glyph-name="amacron" unicode="&#x101;" horiz-adv-x="1062" 
d="M393.5 23q110.5 0 216 65.5t189.5 196.5l104 596q-86 61 -250 61q-205 0 -363.5 -160.5t-158.5 -433.5q0 -156 76 -240.5t186.5 -84.5zM395 -18q-129 0 -219 91t-90 280.5t87 339t215 220t289.5 70.5t270.5 -80h2l-159 -903q-20 -6 -43 0l34 190l4 21
q-158 -229 -391 -229zM424 1184q-4 0 -4 10t10 25h483q2 -4 2 -15.5t-8 -19.5h-483z" />
    <glyph glyph-name="Abreve" unicode="&#x102;" horiz-adv-x="1126" 
d="M256 477h590l-152 723l-10 64l-33 -66zM956 -4h-8l-94 442h-618l-242 -440h-10q-23 0 -33 4l721 1313q6 2 18.5 2t18.5 -2l282 -1313q-14 -6 -35 -6zM709 1430q-94 0 -155.5 56t-61.5 156q16 6 32 7q4 -86 56.5 -133.5t130.5 -47.5t141 46.5t94 132.5q18 0 31 -7
q-31 -102 -102.5 -156t-165.5 -54z" />
    <glyph glyph-name="abreve" unicode="&#x103;" horiz-adv-x="1062" 
d="M393.5 23q110.5 0 216 65.5t189.5 196.5l104 596q-86 61 -250 61q-205 0 -363.5 -160.5t-158.5 -433.5q0 -156 76 -240.5t186.5 -84.5zM395 -18q-129 0 -219 91t-90 280.5t87 339t215 220t289.5 70.5t270.5 -80h2l-159 -903q-20 -6 -43 0l34 190l4 21
q-158 -229 -391 -229zM641 1112q-94 0 -154.5 60.5t-54.5 175.5q18 4 35 2q-2 -98 49 -148.5t128 -50.5t146.5 51t96.5 148q14 0 28 -7q-29 -115 -104.5 -173t-169.5 -58z" />
    <glyph glyph-name="Aogonek" unicode="&#x104;" horiz-adv-x="1126" 
d="M256 477h590l-152 723l-10 64l-33 -66zM895 -356q-121 0 -121 110q0 115 172 242h2l-94 442h-618l-242 -440h-10q-23 0 -33 4l721 1313q6 2 18 2t19 -2l282 -1313q-174 -123 -174 -240q1 -80 97 -82q48 0 102 39q14 -10 12 -28q-72 -47 -133 -47z" />
    <glyph glyph-name="aogonek" unicode="&#x105;" horiz-adv-x="1062" 
d="M393.5 23q110.5 0 216 65.5t189.5 196.5l104 596q-86 61 -250 61q-205 0 -363.5 -160.5t-158.5 -433.5q0 -156 76 -240.5t186.5 -84.5zM707 -356q-121 0 -121 110q0 121 162 246l34 190l4 21q-158 -229 -391 -229q-129 0 -219 91t-90 280.5t87 339t215 220t289.5 70.5
t270.5 -80h2l-159 -903q-162 -125 -162 -238q0 -80 96 -82q47 0 102 39q16 -10 13 -28q-72 -47 -133 -47z" />
    <glyph glyph-name="Cacute" unicode="&#x106;" horiz-adv-x="1185" 
d="M632 -20q-245 0 -372 146t-127 398q0 350 190.5 583.5t501.5 233.5q238 0 379 -145q-12 -16 -30 -27q-131 131 -355 131q-295 0 -469 -222t-174 -552q0 -238 117 -372t351.5 -134t377.5 134q20 -6 22 -29q-167 -145 -412 -145zM664 1409q-10 10 -13 29l361 198
q14 -6 18 -34z" />
    <glyph glyph-name="cacute" unicode="&#x107;" horiz-adv-x="944" 
d="M475 -18q-176 0 -277.5 107.5t-101.5 297.5q0 276 146.5 436t359.5 160q178 0 283 -100q-6 -23 -27 -33q-59 51 -117.5 72.5t-146.5 21.5q-207 0 -331 -156.5t-124 -400.5q0 -166 89 -265t252 -99t290 106q20 -12 23 -33q-142 -114 -318 -114zM481 1096q-14 8 -16 24
l334 260q20 -10 22 -34z" />
    <glyph glyph-name="Cdotaccent" unicode="&#x10a;" horiz-adv-x="1185" 
d="M632 -20q-245 0 -372 146t-127 398q0 350 190.5 583.5t501.5 233.5q238 0 379 -145q-12 -16 -30 -27q-131 131 -355 131q-295 0 -469 -222t-174 -552q0 -238 117 -372t351.5 -134t377.5 134q20 -6 22 -29q-167 -145 -412 -145zM841.5 1493q-22.5 0 -38 15.5t-15.5 36.5
t16.5 37.5t38.5 16.5t37 -16t15 -38t-15.5 -37t-38 -15z" />
    <glyph glyph-name="cdotaccent" unicode="&#x10b;" horiz-adv-x="944" 
d="M475 -18q-176 0 -277.5 107.5t-101.5 297.5q0 276 146.5 436t359.5 160q178 0 283 -100q-6 -23 -27 -33q-59 51 -117.5 72.5t-146.5 21.5q-207 0 -331 -156.5t-124 -400.5q0 -166 89 -265t252 -99t290 106q20 -12 23 -33q-142 -114 -318 -114zM646.5 1198
q-21.5 0 -37 15.5t-15.5 36t15.5 35.5t36 15t35.5 -15t15 -35.5t-14 -36t-35.5 -15.5z" />
    <glyph glyph-name="Ccaron" unicode="&#x10c;" horiz-adv-x="1185" 
d="M632 -20q-245 0 -372 146t-127 398q0 350 190.5 583.5t501.5 233.5q238 0 379 -145q-12 -16 -30 -27q-131 131 -355 131q-295 0 -469 -222t-174 -552q0 -238 117 -372t351.5 -134t377.5 134q20 -6 22 -29q-167 -145 -412 -145zM791 1389l-185 233q6 12 25 20l186 -215
l264 218q16 -8 19 -23l-269 -233q-20 -6 -40 0z" />
    <glyph glyph-name="ccaron" unicode="&#x10d;" horiz-adv-x="944" 
d="M475 -18q-176 0 -277.5 107.5t-101.5 297.5q0 276 146.5 436t359.5 160q178 0 283 -100q-6 -23 -27 -33q-59 51 -117.5 72.5t-146.5 21.5q-207 0 -331 -156.5t-124 -400.5q0 -166 89 -265t252 -99t290 106q20 -12 23 -33q-142 -114 -318 -114zM602 1100l-190 264
q6 12 24 20l187 -247l268 252q16 -8 18 -25l-270 -264q-19 -6 -37 0z" />
    <glyph glyph-name="Dcaron" unicode="&#x10e;" horiz-adv-x="1331" 
d="M440 23q348 0 550 218t202 523q0 256 -145.5 392t-417.5 136q-150 0 -254 -18l-215 -1233q135 -18 280 -18zM635 1333q289 0 444.5 -147.5t155.5 -415.5q-1 -308 -199 -540q-96 -112 -252.5 -180t-342 -68t-330.5 18l229 1307q156 26 295 26zM729 1389q-20 -6 -41 0
l-184 233q6 12 24 20l187 -215l264 218q16 -8 18 -23z" />
    <glyph glyph-name="dcaron" unicode="&#x10f;" horiz-adv-x="1071" 
d="M655 942q-227 0 -373.5 -155.5t-146.5 -405.5q0 -168 96.5 -263t260 -95t278.5 51l143 813q-98 55 -258 55zM1015.5 1354q12.5 0 20.5 -4l-229 -1295q-135 -74 -317 -73.5t-291 104.5t-109 289q0 272 162 440t412 168q156 0 258 -53l73 420q8 4 20.5 4zM1255 1368
q0 53 -4 78q12 6 26.5 6t22.5 -4q2 -4 2.5 -69.5t-38.5 -155.5t-80 -133q-16 0 -17 12q39 51 63.5 132t24.5 134z" />
    <glyph glyph-name="Dcroat" unicode="&#x110;" horiz-adv-x="1331" 
d="M440 23q348 0 550 218t202 523q0 256 -145.5 392t-417.5 136q-150 0 -254 -18l-105 -600h203q6 -18 -6 -31h-203l-104 -602q135 -18 280 -18zM635 1333q289 0 444.5 -147.5t155.5 -415.5q-1 -308 -199 -540q-96 -112 -252.5 -180t-342 -68t-330.5 18l112 643h-182
q-4 18 6 31h182l111 633q156 26 295 26z" />
    <glyph glyph-name="dcroat" unicode="&#x111;" horiz-adv-x="1071" 
d="M655 942q-227 0 -373.5 -155.5t-146.5 -405.5q0 -168 96.5 -263t260 -95t278.5 51l143 813q-98 55 -258 55zM90 375q0 272 162 440t412 168q156 0 258 -53l41 239h-201q-4 18 6 31h201l26 150q8 4 20.5 4t20.5 -4l-26 -150h184q6 -18 -6 -31h-184l-197 -1114
q-135 -74 -317 -73.5t-291 104.5t-109 289z" />
    <glyph glyph-name="Emacron" unicode="&#x112;" horiz-adv-x="1042" 
d="M1049 1276h-674l-101 -569h615q4 -23 -6 -39h-615l-110 -629h702q4 -20 -8 -39h-741l231 1315h713q6 -21 -6 -39zM485 1495q-14 5 7 35h485q10 -18 -6 -35h-486z" />
    <glyph glyph-name="emacron" unicode="&#x113;" horiz-adv-x="970" 
d="M604 944q-164 0 -293 -118.5t-164 -319.5q121 -41 254 -41q225 0 333 79t108 197q0 84 -61.5 143.5t-176.5 59.5zM403 424q-147 0 -262 41q-4 -53 -4 -82q0 -168 89 -265.5t253 -97.5t295 119q18 -8 21 -28q-143 -129 -321 -129t-280 103t-102 290q0 279 152.5 443.5
t365.5 164.5q129 0 204 -66.5t75 -164.5q0 -145 -120 -236.5t-366 -91.5zM362 1184q-4 0 -4 10t11 25h483q2 -3 2 -15t-8 -20h-484z" />
    <glyph glyph-name="Edotaccent" unicode="&#x116;" horiz-adv-x="1042" 
d="M1049 1276h-674l-101 -569h615q4 -23 -6 -39h-615l-110 -629h702q4 -20 -8 -39h-741l231 1315h713q6 -21 -6 -39zM733.5 1493q-22.5 0 -38 15.5t-15.5 36.5t16 37t38 16.5t37 -15.5t15 -38t-15 -37t-37.5 -15z" />
    <glyph glyph-name="edotaccent" unicode="&#x117;" horiz-adv-x="970" 
d="M604 944q-164 0 -293 -118.5t-164 -319.5q121 -41 254 -41q225 0 333 79t108 197q0 84 -61.5 143.5t-176.5 59.5zM403 424q-147 0 -262 41q-4 -53 -4 -82q0 -168 89 -265.5t253 -97.5t295 119q18 -8 21 -28q-143 -129 -321 -129t-280 103t-102 290q0 279 152.5 443.5
t365.5 164.5q129 0 204 -66.5t75 -164.5q0 -145 -120 -236.5t-366 -91.5zM614.5 1198q-20.5 0 -36 15.5t-15.5 36t15.5 35.5t36 15t36 -15t15.5 -35.5t-15.5 -36t-36 -15.5z" />
    <glyph glyph-name="Eogonek" unicode="&#x118;" horiz-adv-x="1042" 
d="M672 -238q0 -81 98 -81q49 0 100 38q14 -12 13 -30q-76 -45 -133 -45q-119 0 -119 110q0 119 180 246h-700l231 1315h713q6 -21 -6 -39h-674l-101 -569h615q4 -23 -6 -39h-615l-110 -629h702q4 -20 -8 -39q-180 -127 -180 -238z" />
    <glyph glyph-name="eogonek" unicode="&#x119;" horiz-adv-x="970" 
d="M604 944q-164 0 -293 -118.5t-164 -319.5q121 -41 254 -41q225 0 333 79t108 197q0 84 -61.5 143.5t-176.5 59.5zM457 -238q0 -81 98 -81q49 0 96 36q16 -6 17 -26q-63 -47 -133 -47q-121 0 -121 118q0 111 166 232q-51 -12 -115 -12q-168 0 -270.5 103t-102.5 290
q0 279 152.5 443.5t365.5 164.5q129 0 204 -66.5t75 -164.5q0 -145 -120 -236.5t-366 -91.5q-147 0 -262 41q-4 -53 -4 -82q0 -168 89 -265.5t253 -97.5t295 119q18 -8 21 -28q-35 -31 -52.5 -42.5t-17.5 -13t-45 -24.5q-223 -137 -223 -269z" />
    <glyph glyph-name="Ecaron" unicode="&#x11a;" horiz-adv-x="1042" 
d="M1049 1276h-674l-101 -569h615q4 -23 -6 -39h-615l-110 -629h702q4 -20 -8 -39h-741l231 1315h713q6 -21 -6 -39zM723 1389q-20 -6 -41 0l-184 233q6 12 24 20l187 -215l264 218q16 -8 18 -23z" />
    <glyph glyph-name="ecaron" unicode="&#x11b;" horiz-adv-x="970" 
d="M604 944q-164 0 -293 -118.5t-164 -319.5q121 -41 254 -41q225 0 333 79t108 197q0 84 -61.5 143.5t-176.5 59.5zM403 424q-147 0 -262 41q-4 -53 -4 -82q0 -168 89 -265.5t253 -97.5t295 119q18 -8 21 -28q-143 -129 -321 -129t-280 103t-102 290q0 279 152.5 443.5
t365.5 164.5q129 0 204 -66.5t75 -164.5q0 -145 -120 -236.5t-366 -91.5zM608 1100q-18 -6 -37 0l-190 264q6 12 25 20l186 -247l268 252q16 -8 19 -25z" />
    <glyph glyph-name="Gbreve" unicode="&#x11e;" horiz-adv-x="1265" 
d="M838 1341q233 0 370 -163q-8 -14 -30 -27q-66 76 -147 112.5t-200 36.5q-301 0 -477 -219t-176 -563q0 -231 112.5 -364.5t340 -133.5t381.5 84l80 463h-357q-6 25 8 39h398l-94 -524q-186 -102 -426 -102t-363 145t-123 391q0 360 192 592.5t511 232.5zM821 1430
q-94 0 -155.5 56t-61.5 156q14 6 33 7q4 -86 56 -133.5t130 -47.5t141.5 46.5t94.5 132.5q18 0 31 -7q-31 -102 -103 -156t-166 -54z" />
    <glyph glyph-name="gbreve" unicode="&#x11f;" horiz-adv-x="1067" 
d="M470.5 45q153.5 0 309.5 105l129 729q-92 63 -266 63q-209 0 -357.5 -150.5t-148.5 -406.5q0 -158 90 -249t243.5 -91zM638 983q214 0 314 -80l-157 -899q-33 -182 -145.5 -286.5t-287.5 -104.5q-231 0 -362 147q10 25 33 31q115 -139 336 -139q141 0 248.5 95t136.5 257
l18 100q-160 -100 -317.5 -100t-260 98.5t-102.5 274.5q0 287 166 446.5t380 159.5zM639 1112q-94 0 -154.5 60.5t-54.5 175.5q18 4 35 2q-2 -98 49 -148.5t128 -50.5t146.5 51t96.5 148q12 0 28 -7q-29 -115 -104.5 -173t-169.5 -58z" />
    <glyph glyph-name="Gdotaccent" unicode="&#x120;" horiz-adv-x="1265" 
d="M838 1341q233 0 370 -163q-8 -14 -30 -27q-66 76 -147 112.5t-200 36.5q-301 0 -477 -219t-176 -563q0 -230 112 -364t340 -134t382 84l80 463h-357q-6 25 8 39h398l-94 -524q-186 -102 -426 -102t-363 145t-123 391q0 360 192 592.5t511 232.5zM825.5 1493
q-22.5 0 -38 15.5t-15.5 36.5t16 37t38 16.5t37.5 -15.5t15.5 -38t-15.5 -37t-38 -15z" />
    <glyph glyph-name="gdotaccent" unicode="&#x121;" horiz-adv-x="1067" 
d="M470.5 45q153.5 0 309.5 105l129 729q-92 63 -266 63q-209 0 -357.5 -150.5t-148.5 -406.5q0 -158 90 -249t243.5 -91zM638 983q214 0 314 -80l-157 -899q-33 -182 -145.5 -286.5t-287.5 -104.5q-231 0 -362 147q10 25 33 31q115 -139 336 -139q141 0 248.5 95t136.5 257
l18 100q-160 -100 -317.5 -100t-260 98.5t-102.5 274.5q0 287 166 446.5t380 159.5zM675.5 1198q-21.5 0 -37 15.5t-15.5 36t15 35.5t35.5 15t36 -15t15.5 -35.5t-14 -36t-35.5 -15.5z" />
    <glyph glyph-name="Gcommaaccent" unicode="&#x122;" horiz-adv-x="1265" 
d="M638 -86q11 0 24 -4q4 -12 4 -47q0 -90 -42 -167t-96 -124q-12 4 -12 16q49 49 77 123t28 117t-5 80q11 6 22 6zM838 1341q233 0 370 -163q-8 -14 -30 -27q-66 76 -147 112.5t-200 36.5q-301 0 -477 -219t-176 -563q0 -231 112.5 -364.5t340 -133.5t381.5 84l80 463h-357
q-6 25 8 39h398l-94 -524q-186 -102 -426 -102t-363 145t-123 391q0 360 192 592.5t511 232.5z" />
    <glyph glyph-name="gcommaaccent" unicode="&#x123;" horiz-adv-x="1067" 
d="M470.5 45q153.5 0 309.5 105l129 729q-92 63 -266 63q-209 0 -357.5 -150.5t-148.5 -406.5q0 -158 90 -249t243.5 -91zM638 983q214 0 314 -80l-157 -899q-33 -182 -145.5 -286.5t-287.5 -104.5q-231 0 -362 147q10 25 33 31q115 -139 336 -139q141 0 248.5 95t136.5 257
l18 100q-160 -100 -317.5 -100t-260 98.5t-102.5 274.5q0 287 166 446.5t380 159.5zM622 1044q-12 0 -24 5q-4 12 -4 47q0 90 42 166.5t95 123.5q12 -4 12 -16q-49 -49 -76.5 -122.5t-27.5 -117t4 -79.5q-9 -7 -21 -7z" />
    <glyph glyph-name="Hbar" unicode="&#x126;" horiz-adv-x="1341" 
d="M1116 698l43 242h-842l-43 -242h842zM1327 961q0 -12 -8 -21h-119l-168 -940q-8 -4 -20.5 -4t-20.5 4l117 662h-840l-116 -662q-12 -4 -22.5 -4t-18.5 4l165 940h-104l-2 14q0 12 8 21h105l59 340q8 4 20.5 4t20.5 -4l-59 -340h841l60 340q8 4 20 4t21 -4l-60 -340h119
q2 -2 2 -14z" />
    <glyph glyph-name="hbar" unicode="&#x127;" horiz-adv-x="1089" 
d="M624.5 983q188.5 0 262.5 -102.5t41 -278.5l-107 -602q-12 -4 -24 -4t-17 4l107 602q61 340 -285 340q-178 0 -321 -59h-2l-154 -883q-12 -4 -22.5 -4t-18.5 4l205 1169h-180q-4 18 6 31h180l24 146q12 4 24.5 4t16.5 -4l-24 -146h205q6 -18 -6 -31h-205l-43 -245
q149 59 337.5 59z" />
    <glyph glyph-name="Itilde" unicode="&#x128;" horiz-adv-x="458" 
d="M131 -4q-12 0 -20 4l231 1315q12 4 22.5 4t18.5 -4l-231 -1315q-9 -4 -21 -4zM305 1593q51 0 102.5 -49t92.5 -49q80 0 123 96q25 0 32 -12q-61 -121 -157 -121q-57 0 -110.5 49t-92.5 49q-78 0 -117 -96q-25 0 -33 13q53 120 160 120z" />
    <glyph glyph-name="itilde" unicode="&#x129;" horiz-adv-x="411" 
d="M106.5 -4q-12.5 0 -20.5 4l170 958q23 11 41 0l-170 -958q-8 -4 -20.5 -4zM240 1305q35 0 88 -46.5t84 -46.5q61 0 96 93q20 0 33 -13q-49 -119 -131 -118q-37 0 -90.5 46t-81.5 46q-66 0 -101 -92q-20 0 -33 12q49 119 136 119z" />
    <glyph glyph-name="Imacron" unicode="&#x12a;" horiz-adv-x="458" 
d="M131 -4q-12 0 -20 4l231 1315q12 4 22.5 4t18.5 -4l-231 -1315q-9 -4 -21 -4zM203 1495q-2 0 -2 11.5t8 23.5h362q8 -18 -4 -35h-364z" />
    <glyph glyph-name="imacron" unicode="&#x12b;" horiz-adv-x="411" 
d="M106.5 -4q-12.5 0 -20.5 4l170 958q23 11 41 0l-170 -958q-8 -4 -20.5 -4zM111 1184q-2 0 -2 8t6 27h389v-11q0 -16 -6 -24h-387z" />
    <glyph glyph-name="Iogonek" unicode="&#x12e;" horiz-adv-x="458" 
d="M70 -356q-121 0 -121 110q0 121 162 246l231 1315q12 4 22.5 4t18.5 -4l-231 -1315q-160 -125 -160 -238q0 -80 96 -82q47 0 102 39q14 -10 13 -28q-72 -47 -133 -47z" />
    <glyph glyph-name="iogonek" unicode="&#x12f;" horiz-adv-x="411" 
d="M-35 -238q0 -81 99 -81q48 0 100 38q16 -8 12 -28q-72 -47 -133 -47q-119 0 -119 110q0 121 162 246l170 958q23 11 41 0l-170 -958q-162 -127 -162 -238zM323.5 1300q20.5 0 36 -15t15.5 -35.5t-15.5 -36t-36 -15.5t-36 15.5t-15.5 36t15.5 35.5t36 15z" />
    <glyph glyph-name="Idotaccent" unicode="&#x130;" horiz-adv-x="458" 
d="M131 -4q-12 0 -20 4l231 1315q12 4 22.5 4t18.5 -4l-231 -1315q-9 -4 -21 -4zM399.5 1493q-22.5 0 -38 15.5t-15.5 36.5t16 37t38 16.5t37.5 -15.5t15.5 -38t-15.5 -37t-38 -15z" />
    <glyph glyph-name="dotlessi" unicode="&#x131;" horiz-adv-x="411" 
d="M106.5 -4q-12.5 0 -20.5 4l170 958q23 11 41 0l-170 -958q-8 -4 -20.5 -4z" />
    <glyph glyph-name="IJ" unicode="&#x132;" horiz-adv-x="995" 
d="M428 -33q-123 0 -195 76q10 23 29 33q74 -68 172 -68q227 0 277 279l182 1028q8 4 19 4t20 -4l-180 -1022q-58 -326 -324 -326zM168 287q-12 0 -21 4l183 1024q12 4 22 4t19 -4l-183 -1024q-8 -4 -20 -4z" />
    <glyph glyph-name="ij" unicode="&#x133;" horiz-adv-x="851" 
d="M264 -397q-100 0 -190 69q10 25 28 35q78 -63 164 -63t158 66.5t96 211.5l174 1030q4 4 17.5 4t21.5 -4l-174 -1030q-29 -168 -112 -243.5t-183 -75.5zM106.5 -4q-12.5 0 -20.5 4l170 958q23 11 41 0l-170 -958q-8 -4 -20.5 -4zM761.5 1192q-21.5 0 -37 15.5t-15.5 36
t15 35.5t35.5 15t36 -15t15.5 -37t-14 -36t-35.5 -14zM323.5 1198q-20.5 0 -36 15.5t-15.5 36t15.5 35.5t36 15t36 -15t15.5 -35.5t-15.5 -36t-36 -15.5z" />
    <glyph glyph-name="Kcommaaccent" unicode="&#x136;" horiz-adv-x="1085" 
d="M467 -86q12 0 25 -4q4 -12 4 -47q0 -90 -42 -167t-96 -124q-12 4 -12 16q49 49 77 123t28 117t-5 80q9 6 21 6zM911 -4h-8q-309 412 -448 672q-109 -66 -205 -109l-98 -559q-8 -4 -20.5 -4t-20.5 4l231 1315q8 4 20.5 4t20.5 -4l-125 -713q256 125 451.5 289t404.5 424
q8 2 22.5 2t20.5 -2q-305 -399 -672 -629q190 -334 467 -686q-25 -4 -41 -4z" />
    <glyph glyph-name="kcommaaccent" unicode="&#x137;" horiz-adv-x="983" 
d="M384 -86q11 0 24 -4q4 -12 4 -47q0 -90 -42 -167t-96 -124q-12 4 -12 16q49 49 77 123t28 117t-5 80q11 6 22 6zM862 720q0 222 -298 222q-152 0 -283 -59l-156 -883q-12 -4 -22.5 -4t-18.5 4l238 1346q8 4 20 4t20 -4l-73 -422q119 59 281.5 59t248.5 -66.5t86 -177.5
q0 -260 -360 -346l252 -393q-12 -4 -28.5 -4t-25.5 2l-239 373q-12 16 -12 49q180 47 275 118.5t95 181.5z" />
    <glyph glyph-name="kgreenlandic" unicode="&#x138;" horiz-adv-x="897" 
d="M753 -2q-15 0 -22 2l-381 477q-90 -49 -153 -69l-72 -408q-12 -4 -22.5 -4t-18.5 4l168 952q8 4 20.5 4t20.5 -4l-88 -501q164 66 350 212t279 289l20 2h14l9 -2q-74 -121 -208 -243.5t-280 -208.5l395 -498q-16 -4 -31 -4z" />
    <glyph glyph-name="Lacute" unicode="&#x139;" horiz-adv-x="921" 
d="M364 1319q6 0 19 -4l-225 -1280h651q4 -10 -6 -39h-692l231 1319q16 4 22 4zM643 1602l-367 -193q-10 10 -12 29l361 198q14 -5 18 -34z" />
    <glyph glyph-name="lacute" unicode="&#x13a;" horiz-adv-x="544" 
d="M111 141q0 33 4 52l202 1157q4 4 17.5 4t21.5 -4l-202 -1162q-4 -29 -4 -43q0 -121 126 -120q82 0 160 61q20 -14 21 -31q-2 -2 -13.5 -10t-19.5 -14q-60 -45 -143 -45t-126.5 40t-43.5 115zM223 1409q-10 10 -12 29l360 198q14 -6 19 -34z" />
    <glyph glyph-name="Lcommaaccent" unicode="&#x13b;" horiz-adv-x="921" 
d="M474 -86q11 0 24 -4q4 -12 4 -47q0 -90 -42 -167t-95 -124q-12 4 -13 16q49 49 77 123t28 117t-4 80q10 6 21 6zM364 1319q6 0 19 -4l-225 -1280h651q4 -10 -6 -39h-692l231 1319q16 4 22 4z" />
    <glyph glyph-name="lcommaaccent" unicode="&#x13c;" horiz-adv-x="544" 
d="M229 -172q0 43 -4 80q8 6 20.5 6t24.5 -4q4 -12 4 -47q0 -90 -42 -167t-95 -124q-12 4 -12 16q49 49 76.5 123t27.5 117zM111 141q0 33 4 52l202 1157q4 4 17.5 4t21.5 -4l-202 -1162q-4 -29 -4 -43q0 -121 126 -120q82 0 160 61q20 -14 21 -31q-2 -2 -13.5 -10
t-19.5 -14q-60 -45 -143 -45t-126.5 40t-43.5 115z" />
    <glyph glyph-name="Lcaron" unicode="&#x13d;" horiz-adv-x="921" 
d="M364 1319q6 0 19 -4l-225 -1280h651q4 -10 -6 -39h-692l231 1319q16 4 22 4zM729 1368q0 53 -4 78q12 6 26.5 6t22.5 -4q2 -4 2 -39q0 -96 -39 -186t-80 -133q-16 0 -16 12q39 51 63.5 132t24.5 134z" />
    <glyph glyph-name="lcaron" unicode="&#x13e;" horiz-adv-x="544" 
d="M111 141q0 33 4 52l202 1157q4 4 17.5 4t21.5 -4l-202 -1162q-4 -29 -4 -43q0 -121 126 -120q82 0 160 61q20 -14 21 -31q-2 -2 -13.5 -10t-19.5 -14q-60 -45 -143 -45t-126.5 40t-43.5 115zM596 1368q0 53 -4 78q12 6 26.5 6t22.5 -4q2 -4 2 -39q0 -96 -39 -186
t-80 -133q-16 0 -16 12q39 51 63.5 132t24.5 134z" />
    <glyph glyph-name="Ldot" unicode="&#x13f;" horiz-adv-x="923" 
d="M718.5 621q-22.5 0 -38.5 15t-16 36.5t16 38t38.5 16.5t38 -15.5t15.5 -38t-15.5 -37.5t-38 -15zM364 1319q6 0 19 -4l-225 -1280h651q4 -10 -6 -39h-692l231 1319q16 4 22 4z" />
    <glyph glyph-name="ldot" unicode="&#x140;" horiz-adv-x="503" 
d="M464.5 621q-22.5 0 -37.5 15t-15 37.5t15 38t37.5 15.5t38 -15.5t15.5 -38t-15.5 -37.5t-38 -15zM111 141q0 33 4 52l202 1157q4 4 17.5 4t21.5 -4l-202 -1162q-4 -29 -4 -43q0 -121 126 -120q82 0 160 61q20 -14 21 -31q-2 -2 -13.5 -10t-19.5 -14q-60 -45 -143 -45
t-126.5 40t-43.5 115z" />
    <glyph glyph-name="Lslash" unicode="&#x141;" horiz-adv-x="921" 
d="M364 1319q6 0 19 -4l-113 -639l213 104q16 -8 13 -28l-232 -113l-106 -604h651q4 -10 -6 -39h-692l108 620l-164 -79q-16 8 -12 28l182 90l117 660q16 4 22 4z" />
    <glyph glyph-name="lslash" unicode="&#x142;" horiz-adv-x="544" 
d="M111 141q0 33 4 52l84 481l-154 -78q-14 12 -12 29l172 86l112 639q4 4 17.5 4t21.5 -4l-108 -617l149 74q16 -8 13 -29l-168 -84l-88 -506q-4 -29 -4 -43q0 -121 126 -120q82 0 160 61q20 -14 21 -31q-2 -2 -13.5 -10t-19.5 -14q-60 -45 -143 -45t-126.5 40t-43.5 115z
" />
    <glyph glyph-name="Nacute" unicode="&#x143;" horiz-adv-x="1331" 
d="M1235 1323q12 0 20 -4l-231 -1315q-12 -6 -41 -6l-596 1214l-16 35l-219 -1247q-8 -4 -20.5 -4t-20.5 4l231 1313q25 10 41 6l602 -1233l8 -20l221 1253q9 4 21 4zM1026 1602l-367 -193q-10 10 -12 29l361 198q14 -5 18 -34z" />
    <glyph glyph-name="nacute" unicode="&#x144;" horiz-adv-x="1081" 
d="M585.5 983q188.5 0 266.5 -73.5t78 -202.5q0 -43 -10 -105l-107 -602q-12 -4 -24 -4t-17 4l107 602q8 43 8 96q0 244 -293 244q-184 0 -322 -61l-155 -881q-12 -4 -22.5 -4t-18.5 4l157 903q164 80 352.5 80zM477 1096q-14 8 -16 24l334 260q20 -10 22 -34z" />
    <glyph glyph-name="Ncommaaccent" unicode="&#x145;" horiz-adv-x="1331" 
d="M568 -86q11 0 24 -4q4 -12 4 -47q0 -90 -42 -167t-95 -124q-12 4 -13 16q49 49 77 123t28 117t-4 80q10 6 21 6zM1235 1323q12 0 20 -4l-231 -1315q-12 -6 -41 -6l-596 1214l-16 35l-219 -1247q-8 -4 -20.5 -4t-20.5 4l231 1313q25 10 41 6l602 -1233l8 -20l221 1253
q9 4 21 4z" />
    <glyph glyph-name="ncommaaccent" unicode="&#x146;" horiz-adv-x="1081" 
d="M437 -86q11 0 24 -4q4 -12 4 -47q0 -90 -42 -167t-95 -124q-12 4 -13 16q49 49 77 123t28 117t-4 80q10 6 21 6zM585.5 983q188.5 0 266.5 -73.5t78 -202.5q0 -43 -10 -105l-107 -602q-12 -4 -24 -4t-17 4l107 602q8 43 8 96q0 244 -293 244q-184 0 -322 -61l-155 -881
q-12 -4 -22.5 -4t-18.5 4l157 903q164 80 352.5 80z" />
    <glyph glyph-name="Ncaron" unicode="&#x147;" horiz-adv-x="1331" 
d="M1235 1323q12 0 20 -4l-231 -1315q-12 -6 -41 -6l-596 1214l-16 35l-219 -1247q-8 -4 -20.5 -4t-20.5 4l231 1313q25 10 41 6l602 -1233l8 -20l221 1253q9 4 21 4zM827 1389q-20 -6 -41 0l-184 233q6 12 25 20l186 -215l264 218q16 -8 19 -23z" />
    <glyph glyph-name="ncaron" unicode="&#x148;" horiz-adv-x="1081" 
d="M585.5 983q188.5 0 266.5 -73.5t78 -202.5q0 -43 -10 -105l-107 -602q-12 -4 -24 -4t-17 4l107 602q8 43 8 96q0 244 -293 244q-184 0 -322 -61l-155 -881q-12 -4 -22.5 -4t-18.5 4l157 903q164 80 352.5 80zM635 1100q-18 -6 -37 0l-190 264q6 12 24 20l186 -247
l269 252q16 -8 18 -25z" />
    <glyph glyph-name="napostrophe" unicode="&#x149;" horiz-adv-x="1105" 
d="M610.5 983q188.5 0 266 -73.5t77.5 -202.5q0 -43 -10 -105l-106 -602q-12 -4 -24.5 -4t-16.5 4l106 602q8 43 8 96q0 244 -293 244q-184 0 -321 -61l-156 -881q-12 -4 -22 -4t-19 4l158 903q164 80 352.5 80zM281 1284q0 57 -5 78q12 4 25.5 4t20.5 -2q2 -6 2 -49
q0 -98 -43.5 -183.5t-98.5 -132.5q-12 4 -12 17q55 53 83 132t28 136z" />
    <glyph glyph-name="Eng" unicode="&#x14a;" horiz-adv-x="1331" 
d="M692 -401q-137 0 -203 75q8 20 33 31q70 -66 180.5 -65.5t175 62.5t91.5 216l14 80l-596 1214l-16 35l-219 -1247q-8 -4 -20.5 -4t-20.5 4l231 1313q25 10 41 6l602 -1233l8 -20l221 1253q8 4 20.5 4t20.5 -4l-231 -1315h-2l-16 -92q-29 -168 -103 -240.5t-211 -72.5z
" />
    <glyph glyph-name="eng" unicode="&#x14b;" horiz-adv-x="1079" 
d="M585.5 983q188.5 0 266.5 -73.5t78 -202.5q0 -43 -10 -105l-121 -674q-57 -326 -303 -325q-123 0 -185 82q6 16 31 26q31 -37 61.5 -52t108.5 -15t149.5 66.5t96.5 211.5l121 680q8 43 8 96q0 244 -293 244q-184 0 -322 -61l-155 -881q-12 -4 -22.5 -4t-18.5 4l157 903
q164 80 352.5 80z" />
    <glyph glyph-name="Omacron" unicode="&#x14c;" horiz-adv-x="1382" 
d="M643 20q274 0 434 212t160 565q0 229 -122 366t-347 137q-260 0 -425 -220t-165 -554q0 -236 119 -371t346 -135zM635 -20q-242 0 -371 147t-129 395q0 360 181.5 589.5t459.5 229.5q240 0 372 -150.5t132 -393.5q0 -375 -176 -596t-469 -221zM559 1495q-12 4 6 35h486
q10 -18 -7 -35h-485z" />
    <glyph glyph-name="omacron" unicode="&#x14d;" horiz-adv-x="1081" 
d="M477 23q203 0 319.5 161.5t116.5 380.5q0 170 -80.5 273.5t-244.5 103.5q-211 0 -330 -164t-119 -381q0 -172 87 -273t251 -101zM471 -18q-176 0 -276.5 109.5t-100.5 297.5q0 246 137.5 420t362.5 174q176 0 270 -110.5t94 -299.5q0 -244 -133 -417.5t-354 -173.5z
M367 1184q-5 0 -5 10t11 25h483q2 -3 2 -15t-8 -20h-483z" />
    <glyph glyph-name="Ohungarumlaut" unicode="&#x150;" horiz-adv-x="1382" 
d="M643 20q274 0 434 212t160 565q0 229 -122 366t-347 137q-260 0 -425 -220t-165 -554q0 -236 119 -371t346 -135zM635 -20q-242 0 -371 147t-129 395q0 360 181.5 589.5t459.5 229.5q240 0 372 -150.5t132 -393.5q0 -375 -176 -596t-469 -221zM831 1374q-16 8 -18 23
l264 289q20 -8 29 -31zM528 1374q-16 8 -18 23l264 289q20 -8 29 -31z" />
    <glyph glyph-name="ohungarumlaut" unicode="&#x151;" horiz-adv-x="1081" 
d="M477 23q203 0 319.5 161.5t116.5 380.5q0 170 -80.5 273.5t-244.5 103.5q-211 0 -330 -164t-119 -381q0 -172 87 -273t251 -101zM471 -18q-176 0 -276.5 109.5t-100.5 297.5q0 246 137.5 420t362.5 174q176 0 270 -110.5t94 -299.5q0 -244 -133 -417.5t-354 -173.5z
M635 1065q-16 4 -21 18l258 322q20 -4 33 -27zM348 1065q-14 4 -20 18l260 322q23 -6 30 -27z" />
    <glyph glyph-name="OE" unicode="&#x152;" horiz-adv-x="1665" 
d="M178 505q0 -212 112.5 -345t321.5 -133q102 0 166 14l217 1233q-94 16 -207 16q-188 0 -329.5 -112.5t-211 -286.5t-69.5 -386zM1513 692.5q0 -10.5 -8 -24.5h-573l-111 -629h662v-12q0 -16 -8 -27h-699q-82 -14 -170 -14q-225 0 -349 144t-124 378q0 346 182.5 584.5
t481.5 238.5q111 0 209 -16h671q2 -4 2 -16.5t-8 -22.5h-633l-100 -569h573q2 -4 2 -14.5z" />
    <glyph glyph-name="oe" unicode="&#x153;" horiz-adv-x="1748" 
d="M483 23q190 0 296 152.5t106 395.5q0 168 -83 269.5t-241 101.5q-197 0 -307.5 -152.5t-110.5 -377.5q0 -389 340 -389zM1351.5 944q-137.5 0 -260 -118.5t-155.5 -319.5q121 -41 254 -41q217 0 322.5 76.5t105.5 191.5q0 88 -64.5 149.5t-202 61.5zM1192 426
q-147 0 -262 39q-4 -53 -4 -82q0 -168 86 -265.5t247.5 -97.5t292.5 119q18 -8 21 -28q-143 -129 -330 -129q-145 0 -240.5 84t-113.5 239q-51 -152 -156.5 -237.5t-255.5 -85.5q-193 0 -286 109.5t-93 311.5q0 256 129 418t340 162q154 0 249 -95t112 -251q57 164 179 255
t262 91t218 -67.5t78 -172.5q0 -141 -116.5 -229t-356.5 -88z" />
    <glyph glyph-name="Racute" unicode="&#x154;" horiz-adv-x="1093" 
d="M510 596q227 0 350 117.5t123 302.5q0 119 -87 199.5t-238.5 80.5t-282.5 -32l-115 -652q84 -16 250 -16zM1024 1016q0 -195 -113.5 -312.5t-310.5 -140.5q174 -348 352 -561q-16 -4 -32 -4h-13q-172 209 -350 561q-16 -2 -118.5 -2t-186.5 12l-100 -569q-12 -4 -22.5 -4
t-18.5 4l227 1294q150 43 326 43t268 -89t92 -232zM891 1602l-367 -193q-10 10 -12 29l360 198q15 -5 19 -34z" />
    <glyph glyph-name="racute" unicode="&#x155;" horiz-adv-x="702" 
d="M582 983q106 0 163 -20q-2 -23 -16 -39q-53 18 -164 18q-178 0 -293 -61l-155 -881q-8 -4 -20.5 -4t-20.5 4l157 903q156 80 349 80zM395 1096q-14 8 -16 24l334 260q20 -10 22 -34z" />
    <glyph glyph-name="Rcommaaccent" unicode="&#x156;" horiz-adv-x="1093" 
d="M475 -86q12 0 25 -4q4 -12 4 -47q0 -90 -42 -167t-95 -124q-12 4 -13 16q49 49 77 123t28 117t-4 80q8 6 20 6zM510 596q227 0 350 117.5t123 302.5q0 119 -87 199.5t-238.5 80.5t-282.5 -32l-115 -652q84 -16 250 -16zM1024 1016q0 -195 -113.5 -312.5t-310.5 -140.5
q174 -348 352 -561q-16 -4 -32 -4h-13q-172 209 -350 561q-16 -2 -118.5 -2t-186.5 12l-100 -569q-12 -4 -22.5 -4t-18.5 4l227 1294q150 43 326 43t268 -89t92 -232z" />
    <glyph glyph-name="rcommaaccent" unicode="&#x157;" horiz-adv-x="702" 
d="M97 -86q11 0 24 -4q4 -12 4 -47q0 -90 -42 -167t-95 -124q-12 4 -13 16q49 49 77 123t28 117t-4 80q10 6 21 6zM582 983q106 0 163 -20q-2 -23 -16 -39q-53 18 -164 18q-178 0 -293 -61l-155 -881q-8 -4 -20.5 -4t-20.5 4l157 903q156 80 349 80z" />
    <glyph glyph-name="Rcaron" unicode="&#x158;" horiz-adv-x="1093" 
d="M510 596q227 0 350 117.5t123 302.5q0 119 -87 199.5t-238.5 80.5t-282.5 -32l-115 -652q84 -16 250 -16zM1024 1016q0 -195 -113.5 -312.5t-310.5 -140.5q174 -348 352 -561q-16 -4 -32 -4h-13q-172 209 -350 561q-16 -2 -118.5 -2t-186.5 12l-100 -569q-12 -4 -22.5 -4
t-18.5 4l227 1294q150 43 326 43t268 -89t92 -232zM692 1389q-20 -6 -41 0l-184 233q6 12 25 20l186 -215l264 218q16 -8 19 -23z" />
    <glyph glyph-name="rcaron" unicode="&#x159;" horiz-adv-x="702" 
d="M582 983q106 0 163 -20q-2 -23 -16 -39q-53 18 -164 18q-178 0 -293 -61l-155 -881q-8 -4 -20.5 -4t-20.5 4l157 903q156 80 349 80zM553 1100q-18 -6 -37 0l-190 264q6 12 24 20l187 -247l268 252q16 -8 18 -25z" />
    <glyph glyph-name="Sacute" unicode="&#x15a;" horiz-adv-x="1019" 
d="M420 -27q-270 0 -397 156q6 23 30 31q115 -145 375 -146q186 0 294.5 93.5t108.5 238.5q0 92 -46 156.5t-113.5 94.5t-148.5 62.5t-148.5 63.5t-113.5 96.5t-46 161.5q0 166 118 261t312 95q240 0 348 -133q-12 -23 -32 -30q-117 123 -324 122q-172 0 -275.5 -85
t-103.5 -230q0 -100 63.5 -162.5t153.5 -95.5t180 -67.5t153.5 -110.5t63.5 -195q0 -162 -123.5 -269.5t-328.5 -107.5zM512 1409q-10 10 -12 29l360 198q14 -6 19 -34z" />
    <glyph glyph-name="sacute" unicode="&#x15b;" horiz-adv-x="858" 
d="M352 -14q-207 0 -327 112q8 20 28 31q113 -104 305 -104q135 0 217 65.5t82 162.5t-52 145t-125.5 69.5t-148.5 44.5t-127 76q-52 52 -52 152t93 171.5t221 71.5t206 -29.5t114 -66.5q-8 -20 -26 -33q-109 88 -279 88q-125 0 -206.5 -60.5t-81.5 -145.5t52 -130
t126.5 -64.5t149.5 -43t127 -80t52 -152.5q0 -129 -97 -204.5t-251 -75.5zM371 1096q-14 8 -17 24l334 260q20 -10 23 -34z" />
    <glyph glyph-name="Scedilla" unicode="&#x15e;" horiz-adv-x="1019" 
d="M645 1337q240 0 348 -133q-12 -23 -32 -30q-117 123 -324 122q-172 0 -275.5 -85t-103.5 -230q0 -100 63.5 -162.5t153.5 -95.5t180 -67.5t153.5 -110.5t63.5 -195q0 -160 -122.5 -267.5t-323.5 -109.5l-27 -71q80 -14 117 -42t37 -98t-69.5 -109.5t-152.5 -39.5t-108 12
q4 25 17 37q26 -10 96 -10t122 30q52 28 52 82t-33 72.5t-131 36.5l39 100q-242 10 -362 156q6 23 30 31q115 -145 375 -146q186 0 294.5 93.5t108.5 238.5q0 92 -46 156.5t-113.5 94.5t-148.5 62.5t-148.5 63.5t-113.5 96.5t-46 161.5q0 166 117.5 261t312.5 95z" />
    <glyph glyph-name="scedilla" unicode="&#x15f;" horiz-adv-x="858" 
d="M465 983q128 0 206.5 -29.5t114.5 -66.5q-8 -20 -26 -33q-109 88 -279 88q-125 0 -206.5 -60.5t-81.5 -145.5t52 -130t126.5 -64.5t149.5 -43t127 -80t52 -152.5q0 -129 -96 -204.5t-250 -75.5l-30 -84q80 -14 116.5 -42t36.5 -97.5t-69.5 -109.5t-152.5 -40t-108 12
q4 25 17 37q27 -10 96.5 -10t121.5 29.5t52 83t-32.5 72t-131.5 36.5l43 113q-178 10 -288 112q8 20 28 31q113 -104 305 -104q135 0 217 65.5t82 162.5t-52 145t-125.5 69.5t-148.5 44.5t-127 76t-52 152.5t92.5 171t220.5 71.5z" />
    <glyph glyph-name="Scaron" unicode="&#x160;" horiz-adv-x="1019" 
d="M420 -27q-270 0 -397 156q6 23 30 31q115 -145 375 -146q186 0 294.5 93.5t108.5 238.5q0 92 -46 156.5t-113.5 94.5t-148.5 62.5t-148.5 63.5t-113.5 96.5t-46 161.5q0 166 118 261t312 95q240 0 348 -133q-12 -23 -32 -30q-117 123 -324 122q-172 0 -275.5 -85
t-103.5 -230q0 -100 63.5 -162.5t153.5 -95.5t180 -67.5t153.5 -110.5t63.5 -195q0 -162 -123.5 -269.5t-328.5 -107.5zM639 1389l-184 233q6 12 24 20l187 -215l264 218q16 -8 18 -23l-268 -233q-21 -6 -41 0z" />
    <glyph glyph-name="scaron" unicode="&#x161;" horiz-adv-x="858" 
d="M352 -14q-207 0 -327 112q8 20 28 31q113 -104 305 -104q135 0 217 65.5t82 162.5t-52 145t-125.5 69.5t-148.5 44.5t-127 76q-52 52 -52 152t93 171.5t221 71.5t206 -29.5t114 -66.5q-8 -20 -26 -33q-109 88 -279 88q-125 0 -206.5 -60.5t-81.5 -145.5t52 -130
t126.5 -64.5t149.5 -43t127 -80t52 -152.5q0 -129 -97 -204.5t-251 -75.5zM492 1100l-191 264q6 12 25 20l186 -247l268 252q16 -8 19 -25l-271 -264q-18 -6 -36 0z" />
    <glyph glyph-name="uni0162" unicode="&#x162;" horiz-adv-x="1034" 
d="M553 -237.5q0 -69.5 -69.5 -109.5t-152.5 -40t-108 12q4 25 17 37q27 -10 96.5 -10t121.5 29.5t52 83t-33 72t-131 36.5l49 127l226 1278h-463q-6 18 6 37h971q4 -18 -9 -37h-464l-226 -1278l-37 -98q80 -14 117 -42t37 -97.5z" />
    <glyph glyph-name="uni0163" unicode="&#x163;" horiz-adv-x="724" 
d="M242 169q0 -71 47 -108.5t134 -37.5t191 63q18 -12 19 -33q-123 -72 -227 -71h-13l-31 -80q80 -14 117 -42t37 -97.5t-69.5 -109.5t-152.5 -40t-108 12q4 25 17 37q27 -10 96.5 -10t121.5 29.5t52 83t-32.5 72t-131.5 36.5l43 113q-152 29 -151 180q0 63 8 106l115 650
h-234v10q0 12 6 24h234l47 265q8 4 20.5 4t20.5 -4l-47 -265h370l2 -10q0 -12 -8 -24h-370l-111 -627q-12 -55 -12 -126z" />
    <glyph glyph-name="Tcaron" unicode="&#x164;" horiz-adv-x="1034" 
d="M414 -4q-6 0 -19 4l226 1278h-463q-6 18 6 37h971q4 -18 -9 -37h-464l-226 -1278q-16 -4 -22 -4zM674 1389q-20 -6 -41 0l-184 233q6 12 24 20l186 -215l265 218q16 -8 18 -23z" />
    <glyph glyph-name="tcaron" unicode="&#x165;" horiz-adv-x="724" 
d="M242 169q0 -71 47 -108.5t134 -37.5t191 63q18 -12 19 -33q-123 -72 -220 -71.5t-154.5 46.5t-57.5 123.5t8 120.5l115 650h-234v10q0 12 6 24h234l47 265q8 4 20.5 4t20.5 -4l-47 -265h370l2 -10q0 -12 -8 -24h-370l-111 -627q-12 -55 -12 -126zM719 1368q0 53 -4 78
q12 6 26 6t23 -4q2 -4 2 -39q0 -96 -39 -186t-80 -133q-16 0 -16 12q39 51 63.5 132t24.5 134z" />
    <glyph glyph-name="Tbar" unicode="&#x166;" horiz-adv-x="1034" 
d="M414 -4q-6 0 -19 4l113 643h-197q-4 18 6 31h197l107 604h-463q-6 18 6 37h971q3 -19 -9 -37h-464l-107 -604h188q6 -18 -6 -31h-188l-113 -643q-16 -4 -22 -4z" />
    <glyph glyph-name="tbar" unicode="&#x167;" horiz-adv-x="724" 
d="M242 169q0 -71 47 -108.5t134 -37.5t191 63q18 -12 19 -33q-123 -72 -220 -71.5t-154.5 46.5t-57.5 123.5t8 120.5l45 252h-176q-4 18 6 31h174l66 367h-234v10q0 12 6 24h234l47 265q8 4 20.5 4t20.5 -4l-47 -265h370l2 -10q0 -12 -8 -24h-370l-66 -367h211
q6 -18 -6 -31h-209l-41 -229q-12 -55 -12 -126z" />
    <glyph glyph-name="Utilde" unicode="&#x168;" horiz-adv-x="1310" 
d="M569 -20q-197 0 -297 103t-100 286q0 72 14 141l142 805q8 4 20 4t21 -4l-142 -805q-14 -82 -14 -135q0 -166 89 -260.5t273 -94.5q223 0 337 128t157 362l141 805q8 4 20.5 4t20.5 -4l-141 -805q-97 -530 -541 -530zM697 1593q62 0 147.5 -48t132.5 -48q78 0 117 96
q20 0 32 -12q-53 -123 -155 -123q-59 0 -143.5 48t-131.5 48q-81 0 -159 -100q-20 4 -29 19q51 68 89 94t100 26z" />
    <glyph glyph-name="utilde" unicode="&#x169;" horiz-adv-x="1069" 
d="M944 952q12 0 21 -4l-158 -891q-168 -80 -371 -80q-313 0 -313 275q0 41 10 98l105 598q12 4 23 4t20 -4l-105 -594q-10 -55 -10 -94q0 -242 278 -242q170 0 326 66l154 864q8 4 20 4zM531.5 1305q60.5 0 139.5 -46.5t122 -46.5q76 0 116 93q23 0 33 -13
q-55 -119 -156 -118q-55 0 -133 46t-121 46q-83 -1 -157 -97q-20 4 -29 19q49 63 87 90t98.5 27z" />
    <glyph glyph-name="Umacron" unicode="&#x16a;" horiz-adv-x="1310" 
d="M569 -20q-197 0 -297 103t-100 286q0 72 14 141l142 805q8 4 20 4t21 -4l-142 -805q-14 -82 -14 -135q0 -166 89 -260.5t273 -94.5q223 0 337 128t157 362l141 805q8 4 20.5 4t20.5 -4l-141 -805q-97 -530 -541 -530zM571 1495q-14 5 7 35h485q10 -18 -6 -35h-486z" />
    <glyph glyph-name="umacron" unicode="&#x16b;" horiz-adv-x="1069" 
d="M944 952q12 0 21 -4l-158 -891q-168 -80 -371 -80q-313 0 -313 275q0 41 10 98l105 598q12 4 23 4t20 -4l-105 -594q-10 -55 -10 -94q0 -242 278 -242q170 0 326 66l154 864q8 4 20 4zM391 1184q-4 0 -4 10t10 25h484q2 -3 2 -15t-9 -20h-483z" />
    <glyph glyph-name="Uring" unicode="&#x16e;" horiz-adv-x="1310" 
d="M569 -20q-197 0 -297 103t-100 286q0 72 14 141l142 805q8 4 20 4t21 -4l-142 -805q-14 -82 -14 -135q0 -166 89 -260.5t273 -94.5q223 0 337 128t157 362l141 805q8 4 20.5 4t20.5 -4l-141 -805q-97 -530 -541 -530zM692 1502q0 -126 120 -126q60 0 99 42t39 118
q0 115 -114 115q-57 0 -100.5 -44.5t-43.5 -104.5zM806 1337q-75 0 -114 42t-39 118t57.5 134.5t130.5 58.5t111.5 -42t38.5 -122t-55 -134.5t-130 -54.5z" />
    <glyph glyph-name="uring" unicode="&#x16f;" horiz-adv-x="1069" 
d="M944 952q12 0 21 -4l-158 -891q-168 -80 -371 -80q-313 0 -313 275q0 41 10 98l105 598q12 4 23 4t20 -4l-105 -594q-10 -55 -10 -94q0 -242 278 -242q170 0 326 66l154 864q8 4 20 4zM653 1368q-57 0 -99 -44t-42 -104q0 -126 117 -126q63 0 102 43t39 116
q0 115 -117 115zM625 1055q-76 0 -115 42t-39 118.5t57.5 134t131.5 57.5t112.5 -42t38.5 -121t-55 -134t-131 -55z" />
    <glyph glyph-name="Uhungarumlaut" unicode="&#x170;" horiz-adv-x="1310" 
d="M569 -20q-197 0 -297 103t-100 286q0 72 14 141l142 805q8 4 20 4t21 -4l-142 -805q-14 -82 -14 -135q0 -166 89 -260.5t273 -94.5q223 0 337 128t157 362l141 805q8 4 20.5 4t20.5 -4l-141 -805q-97 -530 -541 -530zM844 1374q-16 8 -19 23l265 289q20 -8 28 -31z
M541 1374q-16 8 -19 23l264 289q20 -8 29 -31z" />
    <glyph glyph-name="uhungarumlaut" unicode="&#x171;" horiz-adv-x="1069" 
d="M944 952q12 0 21 -4l-158 -891q-168 -80 -371 -80q-313 0 -313 275q0 41 10 98l105 598q12 4 23 4t20 -4l-105 -594q-10 -55 -10 -94q0 -242 278 -242q170 0 326 66l154 864q8 4 20 4zM659 1065q-16 4 -20 18l258 322q20 -4 33 -27zM373 1065q-14 4 -21 18l260 322
q23 -6 31 -27z" />
    <glyph glyph-name="Uogonek" unicode="&#x172;" horiz-adv-x="1310" 
d="M588 -238q0 -81 98 -81q49 0 96 36q16 -6 17 -26q-63 -47 -133 -47q-121 0 -121 115.5t168 236.5q-70 -16 -144 -16q-197 0 -297 103t-100 286q0 72 14 141l142 805q8 4 20 4t21 -4l-142 -805q-14 -82 -14 -135q0 -166 89 -260.5t273 -94.5q223 0 337 128t157 362
l141 805q9 4 21 4t20 -4l-141 -805q-68 -375 -305 -483q-217 -135 -217 -265z" />
    <glyph glyph-name="uogonek" unicode="&#x173;" horiz-adv-x="1069" 
d="M537 -238q0 -81 98 -81q49 0 96 36q16 -6 17 -26q-63 -47 -134 -47q-121 0 -120 118q0 121 190 248q-121 -33 -248 -33q-313 0 -313 275q0 41 10 98l105 598q12 4 23 4t20 -4l-105 -594q-10 -55 -10 -94q0 -242 278 -242q170 0 326 66l154 864q8 4 20 4t21 -4l-158 -891
q-119 -66 -194.5 -144.5t-75.5 -150.5z" />
    <glyph glyph-name="Wcircumflex" unicode="&#x174;" horiz-adv-x="1798" 
d="M1145 -8q-16 0 -25 4q-115 512 -116 1040v121q-29 -96 -35 -119q-178 -573 -555 -1042q-8 -4 -28.5 -4t-25.5 4q-133 506 -151 1321l4 2h23l16 -2q10 -758 141 -1299q434 561 608 1262q4 2 21 2l16 -2q-16 -573 109 -1255q477 582 659 1292l23 2h14l4 -2
q-186 -725 -678 -1321q-8 -4 -24 -4zM801 1382q-16 8 -19 23l269 233q20 6 41 0l184 -233q-6 -12 -25 -21l-186 215z" />
    <glyph glyph-name="wcircumflex" unicode="&#x175;" horiz-adv-x="1484" 
d="M1407 778q0 -176 -153.5 -420.5t-309.5 -361.5q-12 -4 -26 -4t-23 4q-88 242 -139 674q-39 -188 -160 -381t-244 -293q-12 -4 -26 -4t-23 4q-55 145 -109.5 442t-56.5 510q10 2 22.5 2t18.5 -2h2q2 -207 52.5 -495.5t91.5 -399.5q2 -4 5 -14t5 -14q8 6 22 20
q147 139 266 368.5t119 401.5q-6 72 -6 133q10 2 22.5 2t18.5 -2h2q-2 -217 45 -496.5t92 -398.5q2 -4 5.5 -14t5.5 -14q8 6 22 20q162 143 290 360.5t128 374.5q0 102 -37 183l21 2h4q12 0 22 -2q31 -68 31 -185zM516 1096q-16 8 -18 24l276 266q18 6 37 0l184 -266
q-6 -12 -24 -20l-180 248z" />
    <glyph glyph-name="Ycircumflex" unicode="&#x176;" horiz-adv-x="1071" 
d="M440.5 -4q-12.5 0 -20.5 4l100 569l-352 748q20 4 35 4h6l330 -705l8 -16l8 16l557 705h14q13 0 33 -4l-600 -756l-98 -561q-8 -4 -20.5 -4zM442 1382q-16 8 -18 23l268 233q20 6 41 0l185 -233q-6 -12 -25 -21l-186 215z" />
    <glyph glyph-name="ycircumflex" unicode="&#x177;" horiz-adv-x="1073" 
d="M944 952q12 0 17 -4l-166 -944q-35 -190 -144.5 -290.5t-290.5 -100.5q-227 0 -325 127q10 25 33 29q94 -117 299 -117q162 0 260 91t127 261l22 125q-152 -94 -339 -94q-359 0 -296 373l97 540q8 4 20 4t21 -4l-97 -540q-59 -332 271 -332q166 0 329 96l138 776
q12 4 24 4zM397 1096q-16 8 -18 24l276 266q18 6 37 0l185 -266q-6 -12 -25 -20l-180 248z" />
    <glyph glyph-name="Ydieresis" unicode="&#x178;" horiz-adv-x="1071" 
d="M440.5 -4q-12.5 0 -20.5 4l100 569l-352 748q20 4 35 4h6l330 -705l8 -16l8 16l557 705h14q13 0 33 -4l-600 -756l-98 -561q-8 -4 -20.5 -4zM892.5 1491q-20.5 0 -35.5 15.5t-15 34.5t15 34.5t35.5 15.5t35 -15t14.5 -36t-14.5 -35t-35 -14zM491.5 1491q-20.5 0 -35 15.5
t-14.5 34.5t14.5 34.5t35 15.5t36 -15t15.5 -36t-15.5 -35t-36 -14z" />
    <glyph glyph-name="Zacute" unicode="&#x179;" horiz-adv-x="1060" 
d="M-20 22.5q0 18.5 12 30.5l1063 1223h-852q-6 20 6 39h893q2 -4 2 -23t-14 -37l-1061 -1216h880q2 -16 -6 -39h-919q-4 4 -4 22.5zM887 1602l-367 -193q-10 10 -12 29l360 198q15 -5 19 -34z" />
    <glyph glyph-name="zacute" unicode="&#x17a;" horiz-adv-x="944" 
d="M862 936q0 -12 -20 -33l-709 -778q135 -106 324.5 -106.5t345.5 71.5q14 -12 14 -33q-152 -76 -357.5 -75.5t-357.5 112.5l-96 -106q-23 0 -22.5 16t32.5 49l764 840l23 20h-664q-4 16 6 37h715q2 -2 2 -14zM369 1096q-14 8 -17 24l334 260q20 -10 23 -34z" />
    <glyph glyph-name="Zdotaccent" unicode="&#x17b;" horiz-adv-x="1060" 
d="M-20 22.5q0 18.5 12 30.5l1063 1223h-852q-6 20 6 39h893q2 -4 2 -23t-14 -37l-1061 -1216h880q2 -16 -6 -39h-919q-4 4 -4 22.5zM698.5 1493q-22.5 0 -38 15.5t-15.5 36.5t16.5 37.5t38 16.5t37 -16t15.5 -38t-15.5 -37t-38 -15z" />
    <glyph glyph-name="zdotaccent" unicode="&#x17c;" horiz-adv-x="944" 
d="M862 936q0 -12 -20 -33l-709 -778q135 -106 324.5 -106.5t345.5 71.5q14 -12 14 -33q-152 -76 -357.5 -75.5t-357.5 112.5l-96 -106q-23 0 -22.5 16t32.5 49l764 840l23 20h-664q-4 16 6 37h715q2 -2 2 -14zM532.5 1198q-20.5 0 -36 15.5t-15.5 36t15.5 35.5t36 15
t36 -15t15.5 -35.5t-15.5 -36t-36 -15.5z" />
    <glyph glyph-name="Zcaron" unicode="&#x17d;" horiz-adv-x="1060" 
d="M-20 22.5q0 18.5 12 30.5l1063 1223h-852q-6 20 6 39h893q2 -4 2 -23t-14 -37l-1061 -1216h880q2 -16 -6 -39h-919q-4 4 -4 22.5zM688 1389q-20 -6 -41 0l-184 233q6 12 24 20l187 -215l264 218q16 -8 18 -23z" />
    <glyph glyph-name="zcaron" unicode="&#x17e;" horiz-adv-x="944" 
d="M862 936q0 -12 -20 -33l-709 -778q135 -106 324.5 -106.5t345.5 71.5q14 -12 14 -33q-152 -76 -357.5 -75.5t-357.5 112.5l-96 -106q-23 0 -22.5 16t32.5 49l764 840l23 20h-664q-4 16 6 37h715q2 -2 2 -14zM526 1100q-18 -6 -37 0l-190 264q6 12 25 20l186 -247l268 252
q16 -8 19 -25z" />
    <glyph glyph-name="uni01EA" unicode="&#x1ea;" horiz-adv-x="1382" 
d="M178 526q0 -236 119 -371t346 -135q274 0 434 212t160 565q0 229 -122 366t-347 137q-260 0 -425 -220t-165 -554zM647 -238q0 -81 98 -81q49 0 97 36q16 -6 16 -26q-63 -47 -133 -47q-121 0 -121 118q0 111 164 232q-57 -14 -133 -14q-242 0 -371 147t-129 395
q0 360 181.5 589.5t459.5 229.5q240 0 372 -150.5t132 -393.5q0 -301 -115.5 -506t-320.5 -277q-197 -129 -197 -252z" />
    <glyph glyph-name="uni01EB" unicode="&#x1eb;" horiz-adv-x="1081" 
d="M139 397q0 -172 87 -273t251 -101q203 0 319.5 161.5t116.5 380.5q0 170 -80.5 273.5t-244.5 103.5q-211 0 -330 -164t-119 -381zM546 -319q48 0 97 36q16 -6 16 -26q-63 -47 -133 -47q-121 0 -120 118q0 109 163 230q-55 -10 -98 -10q-176 0 -276.5 109.5t-100.5 297.5
q0 246 137.5 420t362.5 174q176 0 270 -110.5t94 -297t-81 -338t-220 -217.5q-209 -131 -208 -258q-1 -81 97 -81z" />
    <glyph glyph-name="AEacute" unicode="&#x1fc;" horiz-adv-x="1521" 
d="M795 616l112 633l2 21l-489 -654h375zM-53 -4q-23 0 -33 4l987 1315h633q4 -23 -6 -39h-576l-114 -660h516q2 -23 -8 -38h-517l-94 -539h604q4 -20 -8 -39h-645l102 578h-397l-436 -582h-8zM1337 1602l-366 -193q-10 10 -13 29l361 198q14 -5 18 -34z" />
    <glyph glyph-name="aeacute" unicode="&#x1fd;" horiz-adv-x="1611" 
d="M344 23q135 0 267 136t169 315t123 304q-102 164 -302 164t-337 -189.5t-137 -445.5q0 -139 60.5 -211.5t156.5 -72.5zM1053 465q201 0 317.5 71.5t116.5 206.5q0 90 -60.5 145.5t-166.5 55.5t-228 -84q-66 -45 -122 -142t-89 -233q117 -20 232 -20zM805 360
q0 -172 81 -256t220 -84q72 0 135.5 20.5t95 40t76.5 54.5q18 -8 21 -33q-55 -38 -93 -60q-105 -60 -253 -60t-233 90t-87 266q-68 -162 -184.5 -259t-235 -97t-192.5 78.5t-74 242.5q0 276 152.5 478t364.5 202t331 -168q147 168 336 168q121 0 192.5 -62.5t71.5 -177.5
q0 -160 -125 -239.5t-340 -79.5q-111 0 -250 22v-6q-10 -30 -10 -80zM823 1096q-14 8 -16 24l334 260q20 -10 22 -34z" />
    <glyph glyph-name="Oslashacute" unicode="&#x1fe;" horiz-adv-x="1382" 
d="M643 20q274 0 434 212t160 565q0 250 -137 383l-735 -1084q110 -76 278 -76zM178 526q0 -274 158 -407l737 1085q-119 96 -305 96q-260 0 -425 -220t-165 -554zM1280 797q0 -375 -176 -596t-469 -221q-174 0 -295 79l-94 -139q-18 4 -29 23l94 139q-176 141 -176 440
q0 360 181.5 589.5t459.5 229.5q195 0 322 -102l104 156q23 -4 29 -21l-107 -157q156 -150 156 -420zM963 1602l-367 -193q-10 10 -12 29l360 198q15 -5 19 -34z" />
    <glyph glyph-name="oslashacute" unicode="&#x1ff;" horiz-adv-x="1081" 
d="M477 23q203 0 319.5 161.5t116.5 376.5t-114 311l-512 -798q75 -51 190 -51zM139 404q0 -210 117 -310l514 801q-72 47 -182 47q-211 0 -330 -164t-119 -374zM958 565.5q0 -236.5 -133 -410t-354 -173.5q-121 0 -209 53l-117 -180q-29 4 -32 18l118 184
q-137 109 -137 343.5t137.5 408.5t362.5 174q115 0 201 -51l110 172q25 0 33 -17l-115 -176q135 -109 135 -345.5zM414 1096q-14 8 -17 24l334 260q20 -10 23 -34z" />
    <glyph glyph-name="Scommaaccent" unicode="&#x218;" horiz-adv-x="1019" 
d="M406 -172q0 43 -5 80q8 6 20.5 6t24.5 -4q4 -12 4.5 -74.5t-42 -139.5t-95.5 -124q-12 4 -12 16q49 49 77 123t28 117zM420 -27q-270 0 -397 156q6 23 30 31q115 -145 375 -146q186 0 294.5 93.5t108.5 238.5q0 92 -46 156.5t-113.5 94.5t-148.5 62.5t-148.5 63.5
t-113.5 96.5t-46 161.5q0 166 118 261t312 95q240 0 348 -133q-12 -23 -32 -30q-117 123 -324 122q-172 0 -275.5 -85t-103.5 -230q0 -100 63.5 -162.5t153.5 -95.5t180 -67.5t153.5 -110.5t63.5 -195q0 -162 -123.5 -269.5t-328.5 -107.5z" />
    <glyph glyph-name="scommaaccent" unicode="&#x219;" horiz-adv-x="858" 
d="M330 -172q0 43 -4 80q10 6 21 6t24 -4q4 -12 4 -47q0 -90 -42 -167t-95 -124q-12 4 -13 16q49 49 77 123t28 117zM352 -14q-207 0 -327 112q8 20 28 31q113 -104 305 -104q135 0 217 65.5t82 162.5t-52 145t-125.5 69.5t-148.5 44.5t-127 76t-52 152.5t93 171t220.5 71.5
t206 -29.5t114.5 -66.5q-8 -20 -26 -33q-109 88 -279 88q-125 0 -206.5 -60.5t-81.5 -145.5t52 -130t126.5 -64.5t149.5 -43t127 -80t52 -152.5q0 -129 -97 -204.5t-251 -75.5z" />
    <glyph glyph-name="uni021A" unicode="&#x21a;" horiz-adv-x="1034" 
d="M422 -86q12 0 24 -4q4 -12 4.5 -74.5t-41.5 -139.5t-96 -124q-12 4 -12 16q49 49 77 123t28 117t-5 80q9 6 21 6zM414 -4q-6 0 -19 4l226 1278h-463q-6 18 6 37h971q4 -18 -9 -37h-464l-226 -1278q-16 -4 -22 -4z" />
    <glyph glyph-name="uni021B" unicode="&#x21b;" horiz-adv-x="724" 
d="M384 -86q11 0 24 -4q4 -12 4 -47q0 -90 -42 -167t-96 -124q-12 4 -12 16q49 49 77 123t28 117t-5 80q11 6 22 6zM242 169q0 -71 47 -108.5t134 -37.5t191 63q18 -12 19 -33q-123 -72 -220 -71.5t-154.5 46.5t-57.5 123.5t8 120.5l115 650h-234v10q0 12 6 24h234l47 265
q8 4 20.5 4t20.5 -4l-47 -265h370l2 -10q0 -12 -8 -24h-370l-111 -627q-12 -55 -12 -126z" />
    <glyph glyph-name="circumflex" unicode="&#x2c6;" horiz-adv-x="581" 
d="M551 1386l184 -266q-6 -12 -24 -20l-181 248l-274 -252q-16 8 -18 24l276 266q19 6 37 0z" />
    <glyph glyph-name="caron" unicode="&#x2c7;" horiz-adv-x="579" 
d="M471 1100l-190 264q6 12 24 20l187 -247l268 252q16 -8 18 -25l-270 -264q-19 -6 -37 0z" />
    <glyph glyph-name="breve" unicode="&#x2d8;" horiz-adv-x="579" 
d="M493 1112q-94 0 -154 60.5t-54 175.5q18 4 34 2q-2 -98 49.5 -148.5t128.5 -50.5t146.5 51t95.5 148q14 0 29 -7q-29 -115 -105 -173t-170 -58z" />
    <glyph glyph-name="dotaccent" unicode="&#x2d9;" horiz-adv-x="237" 
d="M339.5 1198q-21.5 0 -37 15.5t-15.5 36t15 35.5t35.5 15t36 -15t15.5 -35.5t-14 -36t-35.5 -15.5z" />
    <glyph glyph-name="ring" unicode="&#x2da;" horiz-adv-x="448" 
d="M311 1220q0 -126 120 -126q60 0 99 43t39 116q0 115 -116 115q-57 0 -99.5 -44t-42.5 -104zM424 1055q-76 0 -115 42t-39 118.5t57.5 134t131.5 57.5t112.5 -42t38.5 -121t-55 -134t-131 -55z" />
    <glyph glyph-name="ogonek" unicode="&#x2db;" horiz-adv-x="389" 
d="M53 -238q1 -81 99 -81q48 0 96 36q16 -6 16 -26q-63 -47 -133 -47q-121 0 -121 118q0 76 78 156t191 139h45q-119 -67 -195 -145t-76 -150z" />
    <glyph glyph-name="tilde" unicode="&#x2dc;" horiz-adv-x="727" 
d="M461.5 1305q60.5 0 139.5 -46.5t122 -46.5q76 0 117 93q25 0 32 -13q-55 -119 -155 -118q-55 0 -133 46t-121 46q-84 -1 -158 -97q-20 4 -29 19q49 63 87 90t98.5 27z" />
    <glyph glyph-name="hungarumlaut" unicode="&#x2dd;" horiz-adv-x="610" 
d="M537 1065q-16 4 -21 18l258 322q20 -4 33 -27zM250 1065q-14 4 -21 18l260 322q23 -6 31 -27z" />
    <glyph glyph-name="gravecomb" unicode="&#x300;" 
d="M129 1098l-252 250q12 23 33 32l240 -260q-5 -12 -21 -22z" />
    <glyph glyph-name="acutecomb" unicode="&#x301;" 
d="M-152 1096q-14 8 -16 24l334 260q20 -10 22 -34z" />
    <glyph glyph-name="uni0302" unicode="&#x302;" 
d="M-29 1386l185 -266q-6 -12 -25 -20l-180 248l-275 -252q-16 8 -18 24l276 266q19 6 37 0z" />
    <glyph glyph-name="tildecomb" unicode="&#x303;" 
d="M-247 1305q60 0 139 -46.5t122 -46.5q76 0 117 93q25 0 33 -13q-55 -119 -156 -118q-55 0 -133 46t-121 46q-83 -1 -157 -97q-20 4 -29 19q49 63 87 90t98 27z" />
    <glyph glyph-name="uni0304" unicode="&#x304;" 
d="M-336 1184q-4 0 -4 10t10 25h484q2 -3 2 -15t-9 -20h-483z" />
    <glyph glyph-name="uni0306" unicode="&#x306;" 
d="M-86 1112q-94 0 -154.5 60.5t-54.5 175.5q18 4 35 2q-2 -98 49 -148.5t128 -50.5t146.5 51t96.5 148q12 0 28 -7q-29 -115 -104.5 -173t-169.5 -58z" />
    <glyph glyph-name="uni0307" unicode="&#x307;" 
d="M102.5 1198q-20.5 0 -36 15.5t-15.5 36t15.5 35.5t36 15t36 -15t15.5 -35.5t-15.5 -36t-36 -15.5z" />
    <glyph glyph-name="uni0308" unicode="&#x308;" 
d="M102.5 1186q-20.5 0 -36 15.5t-15.5 34.5t15.5 34.5t34.5 15.5t35 -15.5t16 -34.5t-14.5 -34.5t-35 -15.5zM-299 1186q-20 0 -35.5 15.5t-15.5 34.5t15.5 34.5t35.5 15.5t34.5 -15.5t14.5 -34.5t-14.5 -34.5t-34.5 -15.5z" />
    <glyph glyph-name="uni030A" unicode="&#x30a;" 
d="M-135 1220q0 -126 120 -126q60 0 99 43t39 116q0 115 -117 115q-57 0 -99 -44t-42 -104zM-23 1055q-153 1 -153 161q0 76 57.5 133.5t131 57.5t112.5 -42t39 -121t-55.5 -134t-131.5 -55z" />
    <glyph glyph-name="uni030B" unicode="&#x30b;" 
d="M-66 1065q-16 4 -20 18l258 322q20 -4 33 -27zM-352 1065q-14 4 -21 18l260 322q23 -6 31 -27z" />
    <glyph glyph-name="uni030C" unicode="&#x30c;" 
d="M-109 1100l-190 264q6 12 25 20l186 -247l268 252q16 -8 19 -25l-271 -264q-19 -6 -37 0z" />
    <glyph glyph-name="uni0326" unicode="&#x326;" 
d="M-113 -172q0 43 -4 80q10 6 21.5 6t23.5 -4q4 -12 4 -47q0 -90 -42 -167t-95 -124q-12 4 -12 16q49 49 76.5 123t27.5 117z" />
    <glyph glyph-name="uni0327" unicode="&#x327;" 
d="M-63 -237.5q0 -69.5 -70 -109.5t-153 -40t-107 12q4 25 16 37q27 -10 96.5 -10t122 29.5t52.5 83t-33 72t-131 36.5l49 127h41l-37 -98q80 -14 117 -42t37 -97.5z" />
    <glyph glyph-name="uni0328" unicode="&#x328;" 
d="M-362 -238q0 -81 98 -81q48 0 96 36q16 -6 16 -26q-63 -47 -133 -47q-121 0 -121 118q0 76 78 156t191 139h45q-119 -66 -194.5 -144.5t-75.5 -150.5z" />
    <glyph glyph-name="uni0335" unicode="&#x335;" 
d="M-317 946q-4 18 6 31h426q6 -18 -6 -31h-426z" />
    <glyph glyph-name="uni0336" unicode="&#x336;" 
d="M106 963q0 -12 -8 -21h-1147l-2 14q0 12 9 21h1146q2 -2 2 -14z" />
    <glyph glyph-name="uni0337" unicode="&#x337;" 
d="M-295 594q-14 12 -12 29l364 182q16 -8 13 -29z" />
    <glyph glyph-name="uni0338" unicode="&#x338;" 
d="M-905 -152q-29 4 -33 19l793 1231q25 0 32 -17z" />
    <glyph glyph-name="Wgrave" unicode="&#x1e80;" horiz-adv-x="1798" 
d="M1145 -8q-16 0 -25 4q-115 512 -116 1040v121q-29 -96 -35 -119q-178 -573 -555 -1042q-8 -4 -28.5 -4t-25.5 4q-133 506 -151 1321l4 2h23l16 -2q10 -758 141 -1299q434 561 608 1262q4 2 21 2l16 -2q-16 -573 109 -1255q477 582 659 1292l23 2h14l4 -2
q-186 -725 -678 -1321q-8 -4 -24 -4zM1208 1442q-2 -14 -16 -29l-299 193q6 25 25 34z" />
    <glyph glyph-name="wgrave" unicode="&#x1e81;" horiz-adv-x="1484" 
d="M1407 778q0 -176 -153.5 -420.5t-309.5 -361.5q-12 -4 -26 -4t-23 4q-88 242 -139 674q-39 -188 -160 -381t-244 -293q-12 -4 -26 -4t-23 4q-55 145 -109.5 442t-56.5 510q10 2 22.5 2t18.5 -2h2q2 -207 52.5 -495.5t91.5 -399.5q2 -4 5 -14t5 -14q8 6 22 20
q147 139 266 368.5t119 401.5q-6 72 -6 133q10 2 22.5 2t18.5 -2h2q-2 -217 45 -496.5t92 -398.5q2 -4 5.5 -14t5.5 -14q8 6 22 20q162 143 290 360.5t128 374.5q0 102 -37 183l21 2h4q12 0 22 -2q31 -68 31 -185zM903 1120q-4 -12 -20 -22l-252 250q12 23 33 32z" />
    <glyph glyph-name="Wacute" unicode="&#x1e82;" horiz-adv-x="1798" 
d="M1145 -8q-16 0 -25 4q-115 512 -116 1040v121q-29 -96 -35 -119q-178 -573 -555 -1042q-8 -4 -28.5 -4t-25.5 4q-133 506 -151 1321l4 2h23l16 -2q10 -758 141 -1299q434 561 608 1262q4 2 21 2l16 -2q-16 -573 109 -1255q477 582 659 1292l23 2h14l4 -2
q-186 -725 -678 -1321q-8 -4 -24 -4zM1235 1602l-367 -193q-10 10 -12 29l361 198q14 -5 18 -34z" />
    <glyph glyph-name="wacute" unicode="&#x1e83;" horiz-adv-x="1484" 
d="M1407 778q0 -176 -153.5 -420.5t-309.5 -361.5q-12 -4 -26 -4t-23 4q-88 242 -139 674q-39 -188 -160 -381t-244 -293q-12 -4 -26 -4t-23 4q-55 145 -109.5 442t-56.5 510q10 2 22.5 2t18.5 -2h2q2 -207 52.5 -495.5t91.5 -399.5q2 -4 5 -14t5 -14q8 6 22 20
q147 139 266 368.5t119 401.5q-6 72 -6 133q10 2 22.5 2t18.5 -2h2q-2 -217 45 -496.5t92 -398.5q2 -4 5.5 -14t5.5 -14q8 6 22 20q162 143 290 360.5t128 374.5q0 102 -37 183l21 2h4q12 0 22 -2q31 -68 31 -185zM602 1096q-14 8 -16 24l334 260q20 -10 22 -34z" />
    <glyph glyph-name="Wdieresis" unicode="&#x1e84;" horiz-adv-x="1798" 
d="M1145 -8q-16 0 -25 4q-115 512 -116 1040v121q-29 -96 -35 -119q-178 -573 -555 -1042q-8 -4 -28.5 -4t-25.5 4q-133 506 -151 1321l4 2h23l16 -2q10 -758 141 -1299q434 561 608 1262q4 2 21 2l16 -2q-16 -573 109 -1255q477 582 659 1292l23 2h14l4 -2
q-186 -725 -678 -1321q-8 -4 -24 -4zM1251.5 1491q-20.5 0 -36 15.5t-15.5 34.5t15.5 34.5t36 15.5t34.5 -15t14 -36t-14 -35t-34.5 -14zM851.5 1491q-21.5 0 -36 15.5t-14.5 34.5t14 34.5t34.5 15.5t36 -15t15.5 -36t-14 -35t-35.5 -14z" />
    <glyph glyph-name="wdieresis" unicode="&#x1e85;" horiz-adv-x="1484" 
d="M1407 778q0 -176 -153.5 -420.5t-309.5 -361.5q-12 -4 -26 -4t-23 4q-88 242 -139 674q-39 -188 -160 -381t-244 -293q-12 -4 -26 -4t-23 4q-55 145 -109.5 442t-56.5 510q10 2 22.5 2t18.5 -2h2q2 -207 52.5 -495.5t91.5 -399.5q2 -4 5 -14t5 -14q8 6 22 20
q147 139 266 368.5t119 401.5q-6 72 -6 133q10 2 22.5 2t18.5 -2h2q-2 -217 45 -496.5t92 -398.5q2 -4 5.5 -14t5.5 -14q8 6 22 20q162 143 290 360.5t128 374.5q0 102 -37 183l21 2h4q12 0 22 -2q31 -68 31 -185zM967.5 1186q-20.5 0 -36.5 15.5t-16 34.5t15.5 34.5
t35 15.5t35 -15.5t15.5 -34.5t-14 -34.5t-34.5 -15.5zM565.5 1186q-20.5 0 -36 15.5t-15.5 34.5t15.5 34.5t36 15.5t34.5 -15.5t14 -34.5t-14 -34.5t-34.5 -15.5z" />
    <glyph glyph-name="uni1E9E" unicode="&#x1e9e;" horiz-adv-x="1239" 
d="M715 926q0 -127 170 -242q119 -82 173 -155.5t54 -180.5q0 -170 -105.5 -267t-284.5 -97t-276 125q12 20 33 30q78 -117 247 -116.5t257 90.5t88 227q0 90 -47 158.5t-150.5 140t-151.5 133.5t-48 152q0 129 92 226t250 134q-168 -8 -266 -8q-178 0 -303 -99.5
t-154 -295.5l-156 -881q-12 -4 -22.5 -4t-18.5 4l156 885q33 213 174 321.5t330 108.5h387q8 -16 -6 -39q-203 -29 -312.5 -126t-109.5 -224z" />
    <glyph glyph-name="Ygrave" unicode="&#x1ef2;" horiz-adv-x="1071" 
d="M440.5 -4q-12.5 0 -20.5 4l100 569l-352 748q20 4 35 4h6l330 -705l8 -16l8 16l557 705h14q13 0 33 -4l-600 -756l-98 -561q-8 -4 -20.5 -4zM850 1442q-2 -14 -16 -29l-299 193q6 25 24 34z" />
    <glyph glyph-name="ygrave" unicode="&#x1ef3;" horiz-adv-x="1073" 
d="M944 952q12 0 17 -4l-166 -944q-35 -190 -144.5 -290.5t-290.5 -100.5q-227 0 -325 127q10 25 33 29q94 -117 299 -117q162 0 260 91t127 261l22 125q-152 -94 -339 -94q-359 0 -296 373l97 540q8 4 20 4t21 -4l-97 -540q-59 -332 271 -332q166 0 329 96l138 776
q12 4 24 4zM784 1120q-4 -12 -20 -22l-252 250q12 23 33 32z" />
    <glyph glyph-name="uni1EF8" unicode="&#x1ef8;" horiz-adv-x="1071" 
d="M440.5 -4q-12.5 0 -20.5 4l100 569l-352 748q20 4 35 4h6l330 -705l8 -16l8 16l557 705h14q13 0 33 -4l-600 -756l-98 -561q-8 -4 -20.5 -4zM566 1593q62 0 147.5 -48t132.5 -48q78 0 117 96q20 0 32 -12q-53 -123 -155 -123q-59 0 -143.5 48t-131.5 48q-81 0 -159 -100
q-20 4 -29 19q51 68 89 94t100 26z" />
    <glyph glyph-name="uni1EF9" unicode="&#x1ef9;" horiz-adv-x="1073" 
d="M944 952q12 0 17 -4l-166 -944q-35 -190 -144.5 -290.5t-290.5 -100.5q-227 0 -325 127q10 25 33 29q94 -117 299 -117q162 0 260 91t127 261l22 125q-152 -94 -339 -94q-359 0 -296 373l97 540q8 4 20 4t21 -4l-97 -540q-59 -332 271 -332q166 0 329 96l138 776
q12 4 24 4zM535.5 1305q60.5 0 139.5 -46.5t122 -46.5q76 0 116 93q25 0 33 -13q-55 -119 -155 -118q-55 0 -133 46t-121 46q-84 -1 -158 -97q-20 4 -29 19q49 63 87 90t98.5 27z" />
    <glyph glyph-name="endash" unicode="&#x2013;" horiz-adv-x="1132" 
d="M145 492v14q0 16 9 24h815q2 -2 2 -12t-8 -26h-818z" />
    <glyph glyph-name="emdash" unicode="&#x2014;" horiz-adv-x="2093" 
d="M147 494v14q0 12 7 24h1775q2 -2 2 -15t-8 -23h-1776z" />
    <glyph glyph-name="quoteleft" unicode="&#x2018;" horiz-adv-x="358" 
d="M251 999q-13 0 -20 5q-4 12 -4 47q0 98 44 183t100 132q8 -2 12 -14q-55 -55 -83 -134q-28 -78 -28 -136t4 -76q-12 -7 -25 -7z" />
    <glyph glyph-name="quoteright" unicode="&#x2019;" horiz-adv-x="362" 
d="M338 1366q14 0 20 -2q2 -6 2 -49q0 -97 -43 -183t-98 -133q-12 4 -12 17q55 53 83 132t28 126t-5 88q11 4 25 4z" />
    <glyph glyph-name="quotesinglbase" unicode="&#x201a;" horiz-adv-x="362" 
d="M110 176q12 0 25 -4l2 -49q0 -96 -44 -180t-97 -133q-12 4 -12 14q53 53 82 133q28 80 28 128t-4 85q8 6 20 6z" />
    <glyph glyph-name="quotedblleft" unicode="&#x201c;" horiz-adv-x="552" 
d="M445 999q-13 0 -19 5q-4 12 -4 47q0 98 44 182t97 133q12 -2 12 -14q-53 -55 -81 -134q-28 -78 -27 -136q0 -58 4 -76q-13 -7 -26 -7zM251 999q-13 0 -20 5q-4 12 -4 47q0 98 44 183t100 132q12 -4 12 -14q-55 -55 -83 -134q-28 -78 -28 -136t4 -76q-12 -7 -25 -7z" />
    <glyph glyph-name="quotedblright" unicode="&#x201d;" horiz-adv-x="557" 
d="M512 1274q0 47 -4 88q12 4 25 4t20 -2q2 -6 2 -49q0 -97 -43 -183t-98 -133q-12 4 -13 17q55 53 83 132t28 126zM338 1366q14 0 20 -2q4 -12 4 -49q0 -97 -44 -183t-99 -133q-12 4 -12 17q55 53 90 151t16 195q11 4 25 4z" />
    <glyph glyph-name="quotedblbase" unicode="&#x201e;" horiz-adv-x="555" 
d="M289 85q0 48 -4 85q10 6 21 6t24 -4l2 -49q0 -96 -44 -180t-98 -133q-12 2 -12 14q53 53 82 133t29 128zM110 176q12 0 25 -4l2 -49q0 -96 -44 -180t-97 -133q-12 2 -12 14q55 53 83 132q27 79 27 128t-4 86q8 6 20 6z" />
    <glyph glyph-name="dagger" unicode="&#x2020;" horiz-adv-x="995" 
d="M952 1007q0 -11 -8 -20l-350 4l-229 -1298q-7 -4 -19 -4t-20 4l229 1298l-352 -4q-2 4 -2 15t8 20l350 -4l80 450q6 4 20 4t19 -4l-80 -450l352 4q2 -4 2 -15z" />
    <glyph glyph-name="daggerdbl" unicode="&#x2021;" horiz-adv-x="995" 
d="M803 159q0 -11 -8 -20l-351 4l-79 -450q-7 -4 -19 -4t-20 4l80 450l-353 -4q-2 3 -2 15t8 20l351 -4l145 821l-352 -4q-2 4 -2 15t8 20l350 -4l80 450q6 4 20 4t19 -4l-80 -450l352 4q2 -4 2 -16t-8 -19l-350 4l-145 -821l352 4q2 -4 2 -15z" />
    <glyph glyph-name="bullet" unicode="&#x2022;" horiz-adv-x="702" 
d="M346 371q-66 0 -113 46q-47 45 -47 111t47 113t113 47t112 -47t46 -113t-46 -112t-112 -45z" />
    <glyph glyph-name="ellipsis" unicode="&#x2026;" horiz-adv-x="1013" 
d="M745 -16q-23 0 -39 16t-16 38t18 38t38 16q22 0 37 -16t15 -38t-14 -38q-16 -16 -39 -16zM432 -16q-22 0 -39 16q-16 16 -16 38t16 38t38 16t38 -16t16 -38t-16 -38q-15 -16 -37 -16zM127 -16q-23 0 -38 16t-15 38t16 38t38 16t37 -16t15 -38t-15 -38t-38 -16z" />
    <glyph glyph-name="perthousand" unicode="&#x2030;" horiz-adv-x="2082" 
d="M1684 31q102 0 170 79t69 216q0 88 -50 144q-49 56 -153 56t-176 -80t-71 -215q0 -86 54 -143q55 -57 157 -57zM1048 31q102 0 172 79q69 79 68 216q0 88 -50 144t-154 56t-175 -80q-72 -80 -71 -215q0 -86 54 -143t156 -57zM1677 -8q-123 0 -184 66t-61 171
q0 156 84 246t204 90t183 -67q61 -68 61 -170q0 -158 -82 -247t-205 -89zM1042 -8q-123 0 -184 66t-61 171q0 156 84 246t205 90q121 1 182 -67t61 -170q0 -158 -82 -247t-205 -89zM404 760q104 0 172 79t67 216q0 88 -50 144q-49 56 -153 56q-104 1 -176 -79t-71 -213
q0 -87 54 -145q53 -58 157 -58zM141 -96l1076 1356q25 10 47 0l-1074 -1356q-29 -6 -49 0zM397 721q-123 -1 -184 67t-61 173q0 153 84 243t205 90t182 -68t61 -169q0 -156 -82 -246t-205 -90z" />
    <glyph glyph-name="guilsinglleft" unicode="&#x2039;" horiz-adv-x="509" 
d="M281 246l-185 278l285 287q14 -6 16 -20l-241 -269l151 -254q-6 -14 -26 -22z" />
    <glyph glyph-name="guilsinglright" unicode="&#x203a;" horiz-adv-x="507" 
d="M117 246q-16 10 -19 22l242 254l-147 269q10 16 24 20l182 -287z" />
    <glyph glyph-name="fraction" unicode="&#x2044;" horiz-adv-x="1030" 
d="M-88 -98l1190 1450q25 6 47 0l-1190 -1450q-29 -6 -47 0z" />
    <glyph glyph-name="Euro" unicode="&#x20ac;" horiz-adv-x="1277" 
d="M920 1341q215 0 350 -131q-10 -23 -29 -32q-71 63 -143 93t-178 29q-205 0 -360 -126t-224 -345h465v-10q0 -12 -6 -28h-471q-35 -127 -37 -273h428v-10q0 -12 -6 -29h-422q6 -217 109 -338q104 -121 318 -121t376 138q20 -8 20 -31q-180 -147 -406 -147t-342 134
q-115 134 -118 365h-174v10q0 14 8 29h166q2 141 35 273h-123v10q0 18 8 28h127q74 238 244 375t385 137z" />
    <glyph glyph-name="trademark" unicode="&#x2122;" horiz-adv-x="1425" 
d="M336 627q-6 0 -19 4l119 672h-239q-2 4 -2 13t8 23h504l2 -12q-1 -8 -9 -24h-223l-119 -672q-16 -4 -22 -4zM1352 1341q23 0 32 -4l-122 -706q-12 -4 -22 -4t-19 4l102 577l8 41l-338 -565q-4 -2 -17 -2t-18 2l-155 526l-8 41l-107 -620q-12 -4 -22 -4t-19 4l125 706
q10 6 33 6h4l164 -548l12 -52l363 598h4z" />
    <glyph glyph-name="minus" unicode="&#x2212;" horiz-adv-x="1044" 
d="M145 463q-2 0 -2 18q6 18 9 19h720q2 0 2 -19q-4 -18 -8 -18h-721z" />
    <glyph glyph-name="approxequal" unicode="&#x2248;" horiz-adv-x="1030" 
d="M315 340q66 0 164 -46t144 -46q119 0 172 92q23 0 34 -12q-70 -119 -215 -119q-57 0 -154 46t-153 46q-117 0 -172 -92q-23 0 -35 12q70 119 215 119zM379 707q68 -1 165 -47t142 -46q121 0 174 93q23 0 35 -13q-70 -119 -215 -119q-56 1 -154 47t-153 46
q-121 -1 -172 -93q-27 0 -35 13q70 119 213 119z" />
    <glyph glyph-name="notequal" unicode="&#x2260;" horiz-adv-x="964" 
d="M819 651v-8q0 -14 -8 -31h-199l-198 -272h350v-10q0 -16 -6 -29h-373l-170 -235q-20 2 -27 18l158 217h-229v10q0 14 8 29h248l198 272h-399v11q0 18 8 28h418l195 269q6 0 15 -8t11 -13l-180 -248h180z" />
    <glyph glyph-name="dotlessj" unicode="&#xf6be;" horiz-adv-x="440" 
d="M-148 -397q-100 0 -190 69q10 25 29 35q78 -63 164 -63q85 0 157 66t97 212l174 1030q4 4 17 4t22 -4l-175 -1030q-29 -168 -111 -244q-84 -75 -184 -75z" />
    <glyph glyph-name="uniF8FF" unicode="&#xf8ff;" horiz-adv-x="2822" 
d="M2236 31q8 0 9 8q0 4 -9 4h-12v-12h12zM2214 4v47h22q16 0 19 -12q2 -16 -14 -16l12 -19h-12l-9 19h-8l-2 -19h-8zM2198 18q6 -29 34 -28q41 0 36 37t-34 36q-42 0 -36 -45zM2187 18q-4 25 9 40q13 16 45 16t36 -32q8 -62 -45 -62q-41 -1 -45 38zM1403 147q35 0 56 28
t15 62t-36 33q-59 0 -43 -90q2 -23 8 -33zM1925 223h78q6 55 -33 56q-45 0 -45 -56zM1982 -10q-233 0 -266 198q-23 138 43 224t203 86q186 -1 219 -187q8 -57 -6 -123h-242q23 -36 94 -36t111 24l-2 -153q-47 -33 -154 -33zM1532 498q57 0 96 -44t51 -124q27 -162 -40 -251
t-228 -89v-80h-231q6 348 30 577h152q14 -86 10 -155q35 166 160 166zM830 -102q-94 0 -148 34l4 170q41 -33 135 -32q41 0 74 15t33 42q-35 -23 -97 -23q-172 0 -172 170v27h-106l4 -133q8 -8 31 -8t33 10l-3 -150q-39 -31 -133 -30q-137 0 -153 108q-4 27 6 203h-35l4 164
l228 59l-3 -37h345l-5 -243q0 -55 29 -56q33 0 33 56l4 243h203q6 -43 8 -51q42 -221 -9 -384q-34 -109 -164 -141q-52 -13 -146 -13zM2501 821q-53 0 -41 -71q6 -43 39 -43q25 0 37 21t7 57t-42 36zM823 821q-55 0 -43 -71q6 -43 41 -43q56 0 47 75q-6 39 -45 39zM2494 543
q-199 0 -229 196q-24 95 22 203q19 47 76 79t146 32q196 0 227 -193q22 -145 -36 -231t-206 -86zM2005 553q0 94 4 142t1 78t-25 30q-33 0 -37 -60l2 -190h-221q4 352 28 489h156q10 -113 8 -155q4 43 27 85q42 79 128 80q86 2 118 -50t32 -166l2 -283h-223zM743 543
q-145 0 -172 172q-25 156 40 247t225 91q240 0 235 -240l-4 -260h-162l-12 125q-29 -135 -150 -135zM1384 713q24 0 33 10l-4 -152q-25 -31 -133 -30q-137 0 -156 108q-3 46 3 124q7 77 8 81h-43l4 162l231 61l2 -35h346q18 -141 11 -489h-230q2 186 12 301h-118l2 -133
q8 -8 32 -8zM532 553h-231q4 315 29 643h194q12 -465 8 -643zM1578 1321q50 0 82 -30t40 -83t-28 -96t-86 -43t-83 31t-41 83t29 95t87 43z" />
    <glyph glyph-name="A.ss01" horiz-adv-x="1114" 
d="M238 477h616q-63 424 -149 725l-15 51l-31 -51q-214 -330 -421 -725zM924 -4h-9q-25 227 -55 442h-643q-94 -180 -217 -440h-10q-20 0 -33 4q369 776 723 1313q6 2 18.5 2t18.5 -2q152 -526 241 -1313q-12 -6 -34 -6z" />
    <glyph glyph-name="Aacute.ss01" horiz-adv-x="1114" 
d="M238 477h616q-63 424 -149 725l-15 51l-31 -51q-214 -330 -421 -725zM924 -4h-9q-25 227 -55 442h-643q-94 -180 -217 -440h-10q-20 0 -33 4q369 776 723 1313q6 2 18.5 2t18.5 -2q152 -526 241 -1313q-12 -6 -34 -6zM903 1602l-366 -193q-10 10 -13 29l361 198
q14 -5 18 -34z" />
    <glyph glyph-name="Abreve.ss01" horiz-adv-x="1114" 
d="M238 477h616q-63 424 -149 725l-15 51l-31 -51q-214 -330 -421 -725zM698.5 1317q12.5 0 18.5 -2q152 -526 241 -1313q-12 -6 -34 -6h-9q-25 227 -55 442h-643q-94 -180 -217 -440h-10q-20 0 -33 4q369 776 723 1313q6 2 18.5 2zM711 1430q-94 0 -155.5 56t-61.5 156
q14 6 32 7q4 -86 56.5 -133.5t130.5 -47.5t141.5 46.5t93.5 132.5q18 0 31 -7q-31 -102 -102.5 -156t-165.5 -54z" />
    <glyph glyph-name="Acircumflex.ss01" horiz-adv-x="1114" 
d="M238 477h616q-63 424 -149 725l-15 51l-31 -51q-214 -330 -421 -725zM924 -4h-9q-25 227 -55 442h-643q-94 -180 -217 -440h-10q-20 0 -33 4q369 776 723 1313q6 2 18.5 2t18.5 -2q152 -526 241 -1313q-12 -6 -34 -6zM469 1382q-16 8 -18 23l268 233q20 6 41 0l184 -233
q-6 -12 -24 -21l-187 215z" />
    <glyph glyph-name="Adieresis.ss01" horiz-adv-x="1114" 
d="M238 477h616q-63 424 -149 725l-15 51l-31 -51q-214 -330 -421 -725zM698.5 1317q12.5 0 18.5 -2q152 -526 241 -1313q-12 -6 -34 -6h-9q-25 227 -55 442h-643q-94 -180 -217 -440h-10q-20 0 -33 4q369 776 723 1313q6 2 18.5 2zM919.5 1491q-20.5 0 -36 15.5t-15.5 34.5
t15.5 34.5t36 15.5t35 -15t14.5 -36t-14.5 -35t-35 -14zM519.5 1491q-21.5 0 -36 15.5t-14.5 34.5t14.5 34.5t35 15.5t35.5 -15t15 -36t-14 -35t-35.5 -14z" />
    <glyph glyph-name="Agrave.ss01" horiz-adv-x="1114" 
d="M238 477h616q-63 424 -149 725l-15 51l-31 -51q-214 -330 -421 -725zM924 -4h-9q-25 227 -55 442h-643q-94 -180 -217 -440h-10q-20 0 -33 4q369 776 723 1313q6 2 18.5 2t18.5 -2q152 -526 241 -1313q-12 -6 -34 -6zM877 1442q-2 -14 -17 -29l-299 193q6 25 25 34z" />
    <glyph glyph-name="Amacron.ss01" horiz-adv-x="1114" 
d="M238 477h616q-63 424 -149 725l-15 51l-31 -51q-214 -330 -421 -725zM698.5 1317q12.5 0 18.5 -2q152 -526 241 -1313q-12 -6 -34 -6h-9q-25 227 -55 442h-643q-94 -180 -217 -440h-10q-20 0 -33 4q369 776 723 1313q6 2 18.5 2zM467 1495q-12 4 6 35h485q10 -18 -6 -35
h-485z" />
    <glyph glyph-name="Aogonek.ss01" horiz-adv-x="1114" 
d="M238 477h616q-63 424 -149 725l-15 51l-31 -51q-214 -330 -421 -725zM881 -356q-119 0 -119 110q0 117 153 242q-25 227 -55 442h-643q-94 -180 -217 -440h-10q-20 0 -33 4q369 776 723 1313q6 2 18.5 2t18.5 -2q152 -526 241 -1313q-154 -123 -153 -240q0 -80 97 -82
q48 0 99 39q16 -8 13 -28q-70 -47 -133 -47z" />
    <glyph glyph-name="Aring.ss01" horiz-adv-x="1114" 
d="M238 477h616q-63 424 -149 725l-15 51l-31 -51q-214 -330 -421 -725zM924 -4h-9q-25 227 -55 442h-643q-94 -180 -217 -440h-10q-20 0 -33 4q369 776 723 1313q6 2 18.5 2t18.5 -2q152 -526 241 -1313q-12 -6 -34 -6zM731 1651q-57 0 -100 -45q-43 -44 -43 -104
q0 -126 117 -126q63 0 102 42t39 118q0 115 -115 115zM702 1337q-76 0 -114.5 42t-38.5 118t57.5 134.5t130 58.5t111.5 -42t39 -122t-54.5 -134.5t-130.5 -54.5z" />
    <glyph glyph-name="Atilde.ss01" horiz-adv-x="1114" 
d="M238 477h616q-63 424 -149 725l-15 51l-31 -51q-214 -330 -421 -725zM698.5 1317q12.5 0 18.5 -2q152 -526 241 -1313q-12 -6 -34 -6h-9q-25 227 -55 442h-643q-94 -180 -217 -440h-10q-20 0 -33 4q369 776 723 1313q6 2 18.5 2zM866 1458q-59 0 -143 48t-131 48
q-82 0 -160 -100q-20 4 -29 19q51 68 89 94t100.5 26t147.5 -48t132 -48q78 0 117 96q20 0 33 -12q-53 -123 -156 -123z" />
    <glyph glyph-name="E.ss01" horiz-adv-x="962" 
d="M676 1329q182 0 278 -86q-6 -16 -26 -31q-94 78 -259 78t-273.5 -91t-108.5 -236q0 -94 74.5 -167t232.5 -73h151q2 -2 2.5 -16t-8.5 -23h-151q-213 0 -339 -119t-126 -261q0 -277 326 -277q203 0 356 106q14 -10 18 -33q-166 -113 -383 -112q-172 0 -265 77.5t-93 236.5
t114.5 265.5t270.5 134.5q-100 23 -160.5 92.5t-60.5 168.5q0 168 124 267t306 99z" />
    <glyph glyph-name="Eacute.ss01" horiz-adv-x="962" 
d="M676 1329q182 0 278 -86q-6 -16 -26 -31q-94 78 -259 78t-273.5 -91t-108.5 -236q0 -94 74.5 -167t232.5 -73h151q2 -2 2.5 -16t-8.5 -23h-151q-213 0 -339 -119t-126 -261q0 -277 326 -277q203 0 356 106q14 -10 18 -33q-166 -113 -383 -112q-172 0 -265 77.5t-93 236.5
t114.5 265.5t270.5 134.5q-100 23 -160.5 92.5t-60.5 168.5q0 168 124 267t306 99zM879 1602l-367 -193q-10 10 -12 29l360 198q15 -5 19 -34z" />
    <glyph glyph-name="Ecaron.ss01" horiz-adv-x="962" 
d="M676 1329q182 0 278 -86q-6 -16 -26 -31q-94 78 -259 78t-273.5 -91t-108.5 -236q0 -94 74.5 -167t232.5 -73h151q2 -2 2.5 -16t-8.5 -23h-151q-213 0 -339 -119t-126 -261q0 -277 326 -277q203 0 356 106q14 -10 18 -33q-166 -113 -383 -112q-172 0 -265 77.5t-93 236.5
t114.5 265.5t270.5 134.5q-100 23 -160.5 92.5t-60.5 168.5q0 168 124 267t306 99zM680 1389q-20 -6 -41 0l-184 233q6 12 24 20l187 -215l264 218q16 -8 18 -23z" />
    <glyph glyph-name="Ecircumflex.ss01" horiz-adv-x="962" 
d="M676 1329q182 0 278 -86q-6 -16 -26 -31q-94 78 -259 78t-273.5 -91t-108.5 -236q0 -94 74.5 -167t232.5 -73h151q2 -2 2.5 -16t-8.5 -23h-151q-213 0 -339 -119t-126 -261q0 -277 326 -277q203 0 356 106q14 -10 18 -33q-166 -113 -383 -112q-172 0 -265 77.5t-93 236.5
t114.5 265.5t270.5 134.5q-100 23 -160.5 92.5t-60.5 168.5q0 168 124 267t306 99zM444 1382q-16 8 -18 23l268 233q20 6 41 0l185 -233q-6 -12 -25 -21l-186 215z" />
    <glyph glyph-name="Edieresis.ss01" horiz-adv-x="962" 
d="M676 1329q182 0 278 -86q-6 -16 -26 -31q-94 78 -259 78t-273.5 -91t-108.5 -236q0 -94 74.5 -167t232.5 -73h151q2 -2 2.5 -16t-8.5 -23h-151q-213 0 -339 -119t-126 -261q0 -277 326 -277q203 0 356 106q14 -10 18 -33q-166 -113 -383 -112q-172 0 -265 77.5t-93 236.5
t114.5 265.5t270.5 134.5q-100 23 -160.5 92.5t-60.5 168.5q0 168 124 267t306 99zM894.5 1491q-20.5 0 -35.5 15.5t-15 34.5t15 34.5t35.5 15.5t35 -15t14.5 -36t-14.5 -35t-35 -14zM495.5 1491q-21.5 0 -36.5 15.5t-15 34.5t14.5 34.5t35 15.5t36 -15t15.5 -36t-14 -35
t-35.5 -14z" />
    <glyph glyph-name="Edotaccent.ss01" horiz-adv-x="962" 
d="M676 1329q182 0 278 -86q-6 -16 -26 -31q-94 78 -259 78t-273.5 -91t-108.5 -236q0 -94 74.5 -167t232.5 -73h151q2 -2 2.5 -16t-8.5 -23h-151q-213 0 -339 -119t-126 -261q0 -277 326 -277q203 0 356 106q14 -10 18 -33q-166 -113 -383 -112q-172 0 -265 77.5t-93 236.5
t114.5 265.5t270.5 134.5q-100 23 -160.5 92.5t-60.5 168.5q0 168 124 267t306 99zM690.5 1493q-22.5 0 -38 15.5t-15.5 36.5t16.5 37.5t38 16.5t36.5 -16t15 -38t-15 -37t-37.5 -15z" />
    <glyph glyph-name="Egrave.ss01" horiz-adv-x="962" 
d="M676 1329q182 0 278 -86q-6 -16 -26 -31q-94 78 -259 78t-273.5 -91t-108.5 -236q0 -94 74.5 -167t232.5 -73h151q2 -2 2.5 -16t-8.5 -23h-151q-213 0 -339 -119t-126 -261q0 -277 326 -277q203 0 356 106q14 -10 18 -33q-166 -113 -383 -112q-172 0 -265 77.5t-93 236.5
t114.5 265.5t270.5 134.5q-100 23 -160.5 92.5t-60.5 168.5q0 168 124 267t306 99zM852 1442q-2 -14 -16 -29l-299 193q6 25 24 34z" />
    <glyph glyph-name="Emacron.ss01" horiz-adv-x="962" 
d="M676 1329q182 0 278 -86q-6 -16 -26 -31q-94 78 -259 78t-273.5 -91t-108.5 -236q0 -94 74.5 -167t232.5 -73h151q2 -2 2.5 -16t-8.5 -23h-151q-213 0 -339 -119t-126 -261q0 -277 326 -277q203 0 356 106q14 -10 18 -33q-166 -113 -383 -112q-172 0 -265 77.5t-93 236.5
t114.5 265.5t270.5 134.5q-100 23 -160.5 92.5t-60.5 168.5q0 168 124 267t306 99zM442 1495q-14 5 7 35h485q10 -18 -6 -35h-486z" />
    <glyph glyph-name="Eogonek.ss01" horiz-adv-x="962" 
d="M477 -238q0 -81 98 -81q49 0 97 36q16 -6 16 -26q-63 -47 -133 -47q-121 0 -121 118.5t189 247.5q-84 -23 -183 -22q-172 0 -265 77.5t-93 236.5t114.5 265.5t270.5 134.5q-100 23 -160.5 92.5t-60.5 168.5q0 168 124 267t306 99t278 -86q-6 -16 -26 -31q-94 78 -259 78
t-273.5 -91t-108.5 -236q0 -94 74.5 -167t232.5 -73h151q2 -2 2.5 -16t-8.5 -23h-151q-213 0 -339 -119t-126 -261q0 -277 326 -277q203 0 356 106q14 -10 18 -33q-47 -33 -96 -53q-113 -66 -181.5 -140.5t-68.5 -144.5z" />
    <glyph glyph-name="Q.ss02" horiz-adv-x="1382" 
d="M643 20q127 0 240 52l-125 198q14 18 30 23l127 -203q154 88 238 271.5t84 424t-122 377.5t-347 137q-260 0 -425 -220t-165 -554q0 -236 119 -371t346 -135zM1280 787q0 -254 -90 -445.5t-252 -286.5l123 -196q-14 -18 -31 -23l-127 203q-123 -59 -268 -59
q-242 0 -371 147t-129 395q0 360 181.5 589.5t459.5 229.5q240 0 372 -150t132 -404z" />
    <glyph glyph-name="a.ss01" horiz-adv-x="1091" 
d="M400 23q117 0 222 62t175 185l106 609q-92 63 -250 63q-205 0 -363.5 -159.5t-158.5 -430.5q0 -158 76 -243.5t193 -85.5zM395 -18q-129 0 -219 91t-90 280.5t87 339t215 220t283.5 70.5t276.5 -80h2l-123 -698q-25 -131 80 -178q-2 -18 -14 -35q-125 39 -111 188v13
q-145 -211 -387 -211z" />
    <glyph glyph-name="a.ss02" horiz-adv-x="978" 
d="M80 232q0 -212 250 -212q130 0 250.5 110t156.5 359h-284q-186 0 -279.5 -76.5t-93.5 -180.5zM719 122q0 -62 86 -91q-2 -20 -14 -37q-55 14 -83 44t-28 76t25 146q-61 -143 -167 -210.5t-231 -67.5t-198.5 62t-73.5 191t115.5 212t308.5 83h286l13 74q8 49 8 101
q0 238 -246 237q-158 0 -307 -102q-16 8 -16 28q156 115 329 115q129 0 206 -64.5t77 -201.5q0 -49 -8 -99l-23 -129h-2l-49 -284q-8 -55 -8 -83z" />
    <glyph glyph-name="a.ss03" horiz-adv-x="962" 
d="M88 260q0 -240 306 -240q158 0 286 66l68 389q-127 61 -300.5 61.5t-266.5 -80.5t-93 -196zM519 983q165 0 247 -84t51 -256l-102 -586q-141 -76 -322.5 -75.5t-266.5 73t-85 211t117.5 225.5t292.5 87t303 -60l20 115q27 158 -44 233.5t-217.5 75.5t-293.5 -102
q-20 8 -20 28q155 115 320 115z" />
    <glyph glyph-name="aacute.ss01" horiz-adv-x="1091" 
d="M400 23q117 0 222 62t175 185l106 609q-92 63 -250 63q-205 0 -363.5 -159.5t-158.5 -430.5q0 -158 76 -243.5t193 -85.5zM395 -18q-129 0 -219 91t-90 280.5t87 339t215 220t283.5 70.5t276.5 -80h2l-123 -698q-25 -131 80 -178q-2 -18 -14 -35q-125 39 -111 188v13
q-145 -211 -387 -211zM530 1096q-14 8 -16 24l334 260q20 -10 22 -34z" />
    <glyph glyph-name="aacute.ss02" horiz-adv-x="978" 
d="M80 232q0 -212 250 -212q130 0 250.5 110t156.5 359h-284q-186 0 -279.5 -76.5t-93.5 -180.5zM719 122q0 -62 86 -91q-2 -20 -14 -37q-55 14 -83 44t-28 76t25 146q-61 -143 -167 -210.5t-231 -67.5t-198.5 62t-73.5 191t115.5 212t308.5 83h286l13 74q8 49 8 101
q0 238 -246 237q-158 0 -307 -102q-16 8 -16 28q156 115 329 115q129 0 206 -64.5t77 -201.5q0 -49 -8 -99l-23 -129h-2l-49 -284q-8 -55 -8 -83zM377 1096q-14 8 -17 24l334 260q20 -10 23 -34z" />
    <glyph glyph-name="aacute.ss03" horiz-adv-x="962" 
d="M88 260q0 -240 306 -240q158 0 286 66l68 389q-127 61 -300.5 61.5t-266.5 -80.5t-93 -196zM519 983q165 0 247 -84t51 -256l-102 -586q-141 -76 -322.5 -75.5t-266.5 73t-85 211t117.5 225.5t292.5 87t303 -60l20 115q27 158 -44 233.5t-217.5 75.5t-293.5 -102
q-20 8 -20 28q155 115 320 115zM406 1096q-14 8 -17 24l334 260q20 -10 22 -34z" />
    <glyph glyph-name="abreve.ss01" horiz-adv-x="1091" 
d="M400 23q117 0 222 62t175 185l106 609q-92 63 -250 63q-205 0 -363.5 -159.5t-158.5 -430.5q0 -158 76 -243.5t193 -85.5zM395 -18q-129 0 -219 91t-90 280.5t87 339t215 220t283.5 70.5t276.5 -80h2l-123 -698q-25 -131 80 -178q-2 -18 -14 -35q-125 39 -111 188v13
q-145 -211 -387 -211zM659 1112q-94 0 -154.5 60.5t-53.5 175.5q18 4 34 2q-2 -98 49.5 -148.5t128.5 -50.5t146.5 51t95.5 148q12 0 29 -7q-29 -115 -105 -173t-170 -58z" />
    <glyph glyph-name="abreve.ss02" horiz-adv-x="978" 
d="M80 232q0 -212 250 -212q130 0 250.5 110t156.5 359h-284q-186 0 -279.5 -76.5t-93.5 -180.5zM719 122q0 -62 86 -91q-2 -20 -14 -37q-55 14 -83 44t-28 76t25 146q-61 -143 -167 -210.5t-231 -67.5t-198.5 62t-73.5 191t115.5 212t308.5 83h286l13 74q8 49 8 101
q0 238 -246 237q-158 0 -307 -102q-16 8 -16 28q156 115 329 115q129 0 206 -64.5t77 -201.5q0 -49 -8 -99l-23 -129h-2l-49 -284q-8 -55 -8 -83zM506 1112q-94 0 -154.5 60.5t-54.5 175.5q18 4 35 2q-2 -98 49 -148.5t128 -50.5t146.5 51t96.5 148q14 0 28 -7
q-29 -115 -104.5 -173t-169.5 -58z" />
    <glyph glyph-name="abreve.ss03" horiz-adv-x="962" 
d="M88 260q0 -240 306 -240q158 0 286 66l68 389q-127 61 -300.5 61.5t-266.5 -80.5t-93 -196zM519 983q165 0 247 -84t51 -256l-102 -586q-141 -76 -322.5 -75.5t-266.5 73t-85 211t117.5 225.5t292.5 87t303 -60l20 115q27 158 -44 233.5t-217.5 75.5t-293.5 -102
q-20 8 -20 28q155 115 320 115zM534 1112q-94 0 -154.5 60.5t-53.5 175.5q18 4 34 2q-2 -98 49.5 -148.5t128.5 -50.5t146.5 51t95.5 148q14 0 29 -7q-29 -115 -105 -173t-170 -58z" />
    <glyph glyph-name="acircumflex.ss01" horiz-adv-x="1091" 
d="M400 23q117 0 222 62t175 185l106 609q-92 63 -250 63q-205 0 -363.5 -159.5t-158.5 -430.5q0 -158 76 -243.5t193 -85.5zM395 -18q-129 0 -219 91t-90 280.5t87 339t215 220t283.5 70.5t276.5 -80h2l-123 -698q-25 -131 80 -178q-2 -18 -14 -35q-125 39 -111 188v13
q-145 -211 -387 -211zM444 1096q-16 8 -18 24l276 266q18 6 37 0l185 -266q-6 -12 -25 -20l-180 248z" />
    <glyph glyph-name="acircumflex.ss02" horiz-adv-x="978" 
d="M80 232q0 -212 250 -212q130 0 250.5 110t156.5 359h-284q-186 0 -279.5 -76.5t-93.5 -180.5zM719 122q0 -62 86 -91q-2 -20 -14 -37q-55 14 -83 44t-28 76t25 146q-61 -143 -167 -210.5t-231 -67.5t-198.5 62t-73.5 191t115.5 212t308.5 83h286l13 74q8 49 8 101
q0 238 -246 237q-158 0 -307 -102q-16 8 -16 28q156 115 329 115q129 0 206 -64.5t77 -201.5q0 -49 -8 -99l-23 -129h-2l-49 -284q-8 -55 -8 -83zM291 1096q-16 8 -19 24l277 266q18 6 37 0l184 -266q-6 -12 -25 -20l-180 248z" />
    <glyph glyph-name="acircumflex.ss03" horiz-adv-x="962" 
d="M88 260q0 -240 306 -240q158 0 286 66l68 389q-127 61 -300.5 61.5t-266.5 -80.5t-93 -196zM519 983q165 0 247 -84t51 -256l-102 -586q-141 -76 -322.5 -75.5t-266.5 73t-85 211t117.5 225.5t292.5 87t303 -60l20 115q27 158 -44 233.5t-217.5 75.5t-293.5 -102
q-20 8 -20 28q155 115 320 115zM319 1096q-16 8 -18 24l277 266q18 6 36 0l185 -266q-6 -12 -25 -20l-180 248z" />
    <glyph glyph-name="adieresis.ss01" horiz-adv-x="1091" 
d="M400 23q117 0 222 62t175 185l106 609q-92 63 -250 63q-205 0 -363.5 -159.5t-158.5 -430.5q0 -158 76 -243.5t193 -85.5zM395 -18q-129 0 -219 91t-90 280.5t87 339t215 220t283.5 70.5t276.5 -80h2l-123 -698q-25 -131 80 -178q-2 -18 -14 -35q-125 39 -111 188v13
q-145 -211 -387 -211zM894 1186q-19 0 -34.5 15.5t-15.5 34.5t15 34.5t34.5 15.5t35 -15.5t15.5 -34.5t-15.5 -34.5t-34.5 -15.5zM493.5 1186q-20.5 0 -36 15.5t-15.5 34.5t15.5 34.5t36 15.5t35 -15.5t14.5 -34.5t-14.5 -34.5t-35 -15.5z" />
    <glyph glyph-name="adieresis.ss02" horiz-adv-x="978" 
d="M80 232q0 -212 250 -212q130 0 250.5 110t156.5 359h-284q-186 0 -279.5 -76.5t-93.5 -180.5zM719 122q0 -62 86 -91q-2 -20 -14 -37q-55 14 -83 44t-28 76t25 146q-61 -143 -167 -210.5t-231 -67.5t-198.5 62t-73.5 191t115.5 212t308.5 83h286l13 74q8 49 8 101
q0 238 -246 237q-158 0 -307 -102q-16 8 -16 28q156 115 329 115q129 0 206 -64.5t77 -201.5q0 -49 -8 -99l-23 -129h-2l-49 -284q-8 -55 -8 -83zM741.5 1186q-20.5 0 -36 15.5t-15.5 34.5t15.5 34.5t34.5 15.5t35 -15.5t16 -34.5t-14.5 -34.5t-35 -15.5zM339.5 1186
q-20.5 0 -35.5 15.5t-15 34.5t15 34.5t35.5 15.5t35 -15.5t14.5 -34.5t-14.5 -34.5t-35 -15.5z" />
    <glyph glyph-name="adieresis.ss03" horiz-adv-x="962" 
d="M88 260q0 -240 306 -240q158 0 286 66l68 389q-127 61 -300.5 61.5t-266.5 -80.5t-93 -196zM519 983q165 0 247 -84t51 -256l-102 -586q-141 -76 -322.5 -75.5t-266.5 73t-85 211t117.5 225.5t292.5 87t303 -60l20 115q27 158 -44 233.5t-217.5 75.5t-293.5 -102
q-20 8 -20 28q155 115 320 115zM770.5 1186q-20.5 0 -36 15.5t-15.5 34.5t15.5 34.5t34.5 15.5t34.5 -15.5t15.5 -34.5t-14 -34.5t-34.5 -15.5zM368.5 1186q-20.5 0 -36 15.5t-15.5 34.5t15.5 34.5t36 15.5t35 -15.5t14.5 -34.5t-14.5 -34.5t-35 -15.5z" />
    <glyph glyph-name="agrave.ss01" horiz-adv-x="1091" 
d="M400 23q117 0 222 62t175 185l106 609q-92 63 -250 63q-205 0 -363.5 -159.5t-158.5 -430.5q0 -158 76 -243.5t193 -85.5zM395 -18q-129 0 -219 91t-90 280.5t87 339t215 220t283.5 70.5t276.5 -80h2l-123 -698q-25 -131 80 -178q-2 -18 -14 -35q-125 39 -111 188v13
q-145 -211 -387 -211zM831 1120q-4 -12 -20 -22l-252 250q12 23 33 32z" />
    <glyph glyph-name="agrave.ss02" horiz-adv-x="978" 
d="M80 232q0 -212 250 -212q130 0 250.5 110t156.5 359h-284q-186 0 -279.5 -76.5t-93.5 -180.5zM719 122q0 -62 86 -91q-2 -20 -14 -37q-55 14 -83 44t-28 76t25 146q-61 -143 -167 -210.5t-231 -67.5t-198.5 62t-73.5 191t115.5 212t308.5 83h286l13 74q8 49 8 101
q0 238 -246 237q-158 0 -307 -102q-16 8 -16 28q156 115 329 115q129 0 206 -64.5t77 -201.5q0 -49 -8 -99l-23 -129h-2l-49 -284q-8 -55 -8 -83zM678 1120q-4 -12 -21 -22l-251 250q12 23 32 32z" />
    <glyph glyph-name="agrave.ss03" horiz-adv-x="962" 
d="M88 260q0 -240 306 -240q158 0 286 66l68 389q-127 61 -300.5 61.5t-266.5 -80.5t-93 -196zM519 983q165 0 247 -84t51 -256l-102 -586q-141 -76 -322.5 -75.5t-266.5 73t-85 211t117.5 225.5t292.5 87t303 -60l20 115q27 158 -44 233.5t-217.5 75.5t-293.5 -102
q-20 8 -20 28q155 115 320 115zM707 1120q-4 -12 -21 -22l-252 250q12 23 33 32z" />
    <glyph glyph-name="amacron.ss01" horiz-adv-x="1091" 
d="M400 23q117 0 222 62t175 185l106 609q-92 63 -250 63q-205 0 -363.5 -159.5t-158.5 -430.5q0 -158 76 -243.5t193 -85.5zM395 -18q-129 0 -219 91t-90 280.5t87 339t215 220t283.5 70.5t276.5 -80h2l-123 -698q-25 -131 80 -178q-2 -18 -14 -35q-125 39 -111 188v13
q-145 -211 -387 -211zM442 1184q-4 0 -4 10t11 25h483q2 -4 2 -15.5t-8 -19.5h-484z" />
    <glyph glyph-name="amacron.ss02" horiz-adv-x="978" 
d="M80 232q0 -212 250 -212q130 0 250.5 110t156.5 359h-284q-186 0 -279.5 -76.5t-93.5 -180.5zM719 122q0 -62 86 -91q-2 -20 -14 -37q-55 14 -83 44t-28 76t25 146q-61 -143 -167 -210.5t-231 -67.5t-198.5 62t-73.5 191t115.5 212t308.5 83h286l13 74q8 49 8 101
q0 238 -246 237q-158 0 -307 -102q-16 8 -16 28q156 115 329 115q129 0 206 -64.5t77 -201.5q0 -49 -8 -99l-23 -129h-2l-49 -284q-8 -55 -8 -83zM289 1184q-4 0 -4 10t10 25h483q2 -4 2 -15.5t-8 -19.5h-483z" />
    <glyph glyph-name="amacron.ss03" horiz-adv-x="962" 
d="M88 260q0 -240 306 -240q158 0 286 66l68 389q-127 61 -300.5 61.5t-266.5 -80.5t-93 -196zM519 983q165 0 247 -84t51 -256l-102 -586q-141 -76 -322.5 -75.5t-266.5 73t-85 211t117.5 225.5t292.5 87t303 -60l20 115q27 158 -44 233.5t-217.5 75.5t-293.5 -102
q-20 8 -20 28q155 115 320 115zM317 1184q-4 0 -4 10t11 25h483q2 -4 2 -15.5t-8 -19.5h-484z" />
    <glyph glyph-name="aogonek.ss01" horiz-adv-x="1087" 
d="M131 352q0 -158 76 -244t193 -85q117 0 222 62t175 185l106 609q-92 63 -250 63q-205 0 -363 -160t-159 -430zM600 -238q0 -81 98 -81q48 0 101 38q16 -8 12 -28q-72 -47 -133 -47q-119 0 -119 110q0 74 72 142t211 118q-74 49 -58 174v7q-145 -213 -389 -213
q-129 0 -219 91t-90 281t87 338q87 150 215 220t284 71q156 0 276 -80h2l-123 -698q-25 -139 74 -174q-2 -20 -14 -37q-287 -98 -287 -232z" />
    <glyph glyph-name="aogonek.ss02" horiz-adv-x="978" 
d="M453 489q-186 0 -280 -76q-93 -77 -93 -181t60 -158t171 -54t231 84q60 43 109 125t72 193l12 67h-282zM598 -319q49 0 100 38q16 -8 13 -28q-72 -47 -133 -47q-119 0 -119 110q0 74 71 142q72 68 211 118q-74 49 -57 174l2 19l6 37q-63 -133 -171 -198
q-107 -64 -225 -64t-190 61t-72 191t117 213q116 83 308 83h286l13 74q56 338 -250 338q-146 0 -295 -102q-16 8 -16 28q157 115 319 115t240 -88t45 -277l-23 -129h-2l-49 -284q-25 -139 74 -174q-2 -20 -15 -37q-150 -44 -218 -106t-68 -126q0 -81 98 -81z" />
    <glyph glyph-name="aogonek.ss03" horiz-adv-x="962" 
d="M88 260q0 -240 306 -240q158 0 286 66l68 389q-127 61 -300.5 61.5t-266.5 -80.5t-93 -196zM444 -238q0 -81 98 -81q48 0 97 36q16 -6 16 -26q-63 -47 -133 -47q-121 0 -121 118.5t187 245.5q-100 -27 -238.5 -26.5t-223.5 73t-85 211t117.5 225.5t292.5 87t303 -60
l20 115q27 158 -44 233.5t-217.5 75.5t-293.5 -102q-20 8 -20 28q155 115 320 115t247 -84t51 -256l-102 -586q-119 -66 -195 -144.5t-76 -150.5z" />
    <glyph glyph-name="aring.ss01" horiz-adv-x="1091" 
d="M400 23q117 0 222 62t175 185l106 609q-92 63 -250 63q-205 0 -363.5 -159.5t-158.5 -430.5q0 -158 76 -243.5t193 -85.5zM395 -18q-129 0 -219 91t-90 280.5t87 339t215 220t283.5 70.5t276.5 -80h2l-123 -698q-25 -131 80 -178q-2 -18 -14 -35q-125 39 -111 188v13
q-145 -211 -387 -211zM705 1368q-57 0 -99.5 -44t-42.5 -104q0 -126 117 -126q63 0 102 43t39 116q1 115 -116 115zM676 1055q-76 0 -115 42t-39 118.5t57.5 134t131.5 57.5t112.5 -42t38.5 -121t-55 -134t-131 -55z" />
    <glyph glyph-name="aring.ss02" horiz-adv-x="978" 
d="M80 232q0 -212 250 -212q130 0 250.5 110t156.5 359h-284q-186 0 -279.5 -76.5t-93.5 -180.5zM719 122q0 -62 86 -91q-2 -20 -14 -37q-55 14 -83 44t-28 76t25 146q-61 -143 -167 -210.5t-231 -67.5t-198.5 62t-73.5 191t115.5 212t308.5 83h286l13 74q8 49 8 101
q0 238 -246 237q-158 0 -307 -102q-16 8 -16 28q156 115 329 115q129 0 206 -64.5t77 -201.5q0 -49 -8 -99l-23 -129h-2l-49 -284q-8 -55 -8 -83zM551 1368q-57 0 -99 -44t-42 -104q0 -126 116 -126q63 0 102.5 43t39.5 116q0 115 -117 115zM522 1055q-153 1 -153 161
q0 76 57 133.5t131 57.5t113 -42t39 -121t-55.5 -134t-131.5 -55z" />
    <glyph glyph-name="aring.ss03" horiz-adv-x="962" 
d="M88 260q0 -240 306 -240q158 0 286 66l68 389q-127 61 -300.5 61.5t-266.5 -80.5t-93 -196zM519 983q165 0 247 -84t51 -256l-102 -586q-141 -76 -322.5 -75.5t-266.5 73t-85 211t117.5 225.5t292.5 87t303 -60l20 115q27 158 -44 233.5t-217.5 75.5t-293.5 -102
q-20 8 -20 28q155 115 320 115zM580 1368q-57 0 -99.5 -44t-42.5 -104q0 -126 117 -126q63 0 102 43t39 116q1 115 -116 115zM551 1055q-76 0 -115 42t-39 118.5t57.5 134t131.5 57.5t112.5 -42t38.5 -121t-55 -134t-131 -55z" />
    <glyph glyph-name="atilde.ss01" horiz-adv-x="1091" 
d="M653 942q-205 0 -363.5 -159.5t-158.5 -430.5q0 -158 76 -243.5t193 -85.5t222 62t175 185l106 609q-92 63 -250 63zM395 -18q-129 0 -219 91t-90 280.5t87 339t215 220t283.5 70.5t276.5 -80h2l-123 -698q-25 -131 80 -178q-2 -18 -14 -35q-125 39 -111 188v13
q-145 -211 -387 -211zM582.5 1305q60.5 0 139.5 -46.5t122 -46.5q76 0 117 93q23 0 32 -13q-55 -119 -155 -118q-55 0 -133 46t-121 46q-84 -1 -158 -97q-20 4 -29 19q49 63 87 90t98.5 27z" />
    <glyph glyph-name="atilde.ss02" horiz-adv-x="978" 
d="M80 232q0 -212 250 -212q130 0 250.5 110t156.5 359h-284q-186 0 -279.5 -76.5t-93.5 -180.5zM719 123q0 -63 86 -92q-2 -20 -14 -37q-55 14 -83 44t-28 76t25 146q-61 -143 -167 -210.5t-231 -67.5t-198.5 62t-73.5 191t115.5 212t308.5 83h286l13 74q8 49 8 101
q0 238 -246 237q-158 0 -307 -102q-16 8 -16 28q156 115 329 115q129 0 206 -64.5t77 -201.5q0 -49 -8 -99l-23 -129h-2l-49 -284q-8 -53 -8 -82zM429 1305q60 0 139 -46.5t122 -46.5q76 0 117 93q25 0 33 -13q-55 -119 -156 -118q-55 0 -133 46t-121 46q-84 -1 -158 -97
q-20 4 -28 19q49 63 87 90t98 27z" />
    <glyph glyph-name="atilde.ss03" horiz-adv-x="962" 
d="M88 260q0 -240 306 -240q158 0 286 66l68 389q-127 61 -300.5 61.5t-266.5 -80.5t-93 -196zM519 983q165 0 247 -84t51 -256l-102 -586q-141 -76 -322.5 -75.5t-266.5 73t-85 211t117.5 225.5t292.5 87t303 -60l20 115q27 158 -44 233.5t-217.5 75.5t-293.5 -102
q-20 8 -20 28q155 115 320 115zM457.5 1305q60.5 0 139.5 -46.5t122 -46.5q76 0 117 93q23 0 32 -13q-55 -119 -155 -118q-55 0 -133 46t-121 46q-84 -1 -158 -97q-20 4 -29 19q49 63 87 90t98.5 27z" />
    <glyph glyph-name="b.ss01" horiz-adv-x="1067" 
d="M371 23q217 0 377.5 157.5t160.5 427.5q0 158 -79.5 246t-206.5 88q-217 0 -379 -219l-113 -643q101 -57 240 -57zM631 983q143 0 232 -96t89 -271q0 -295 -174 -464.5t-413 -169.5q-160 0 -279 73l227 1291q13 4 25 4t16 -4l-96 -551q152 188 373 188z" />
    <glyph glyph-name="d.ss01" horiz-adv-x="1069" 
d="M398 23q117 0 220 62t175 183l110 611q-92 63 -252 63q-203 0 -362.5 -159.5t-159.5 -430.5q0 -158 76 -243.5t193 -85.5zM1007.5 1354q12.5 0 20.5 -4l-240 -1350q-12 -4 -21 -4t-22 4l33 184q-145 -203 -381 -202q-131 0 -221 90t-90 280.5t87 340t215 220t273 70.5
t250 -55l76 422q8 4 20.5 4z" />
    <glyph glyph-name="dcaron.ss01" horiz-adv-x="1069" 
d="M398 23q117 0 220 62t175 183l110 611q-92 63 -252 63q-203 0 -362.5 -159.5t-159.5 -430.5q0 -158 76 -243.5t193 -85.5zM1007.5 1354q12.5 0 20.5 -4l-240 -1350q-12 -4 -21 -4t-22 4l33 184q-145 -203 -381 -202q-131 0 -221 90t-90 280.5t87 340t215 220t273 70.5
t250 -55l76 422q8 4 20.5 4zM1286 1409q0 -96 -39 -186t-80 -133q-16 0 -16 12q39 51 63.5 132t24.5 134t-4 78q12 6 26.5 6t22.5 -4q2 -4 2 -39z" />
    <glyph glyph-name="dcroat.ss01" horiz-adv-x="1069" 
d="M398 23q117 0 220 62t175 183l110 611q-92 63 -252 63q-203 0 -362.5 -159.5t-159.5 -430.5q0 -158 76 -243.5t193 -85.5zM767 -4q-9 0 -22 4l33 184q-145 -203 -381 -202q-131 0 -221 90t-90 280.5t87 340t215 220t273 70.5t250 -55l43 243h-194q-4 18 6 31h195l26 148
q8 4 20.5 4t20.5 -4l-27 -148h191q6 -18 -6 -31h-189l-209 -1171q-12 -4 -21 -4z" />
    <glyph glyph-name="e.ss02" horiz-adv-x="1019" 
d="M574.5 944q-142.5 0 -259 -104.5t-157.5 -284.5h719q6 49 6 80q0 156 -83 232.5t-225.5 76.5zM491 20q172 0 300 119q20 -6 26 -28q-139 -129 -326.5 -129t-291 106.5t-103.5 296.5q0 285 150.5 441.5t347.5 156.5q152 0 242 -89t90 -261q-1 -54 -11 -115h-765
q-10 -68 -11 -133q0 -172 90 -268.5t262 -96.5z" />
    <glyph glyph-name="e.ss03" horiz-adv-x="995" 
d="M579.5 944q-149.5 0 -272.5 -116.5t-155 -313.5h444q119 0 196.5 55.5t77.5 154.5t-70.5 159.5t-220 60.5zM592 475h-447q-6 -45 -6 -96q0 -170 96.5 -264.5t255 -94.5t287.5 117q20 -8 23 -33q-147 -123 -319.5 -122.5t-280 102.5t-107.5 295q0 272 145.5 438t362.5 166
q143 0 229.5 -69.5t86.5 -187.5t-91.5 -184.5t-234.5 -66.5z" />
    <glyph glyph-name="eacute.ss02" horiz-adv-x="1019" 
d="M574.5 944q-142.5 0 -259 -104.5t-157.5 -284.5h719q6 49 6 80q0 156 -83 232.5t-225.5 76.5zM491 20q172 0 300 119q20 -6 26 -28q-139 -129 -326.5 -129t-291 106.5t-103.5 296.5q0 285 150.5 441.5t347.5 156.5q152 0 242 -89t90 -261q-1 -54 -11 -115h-765
q-10 -68 -11 -133q0 -172 90 -268.5t262 -96.5zM446 1096q-14 8 -16 24l334 260q20 -10 22 -34z" />
    <glyph glyph-name="eacute.ss03" horiz-adv-x="995" 
d="M579.5 944q-149.5 0 -272.5 -116.5t-155 -313.5h444q119 0 196.5 55.5t77.5 154.5t-70.5 159.5t-220 60.5zM592 475h-447q-6 -45 -6 -96q0 -170 96.5 -264.5t255 -94.5t287.5 117q20 -8 23 -33q-147 -123 -319.5 -122.5t-280 102.5t-107.5 295q0 272 145.5 438t362.5 166
q143 0 229.5 -69.5t86.5 -187.5t-91.5 -184.5t-234.5 -66.5zM489 1096q-14 8 -16 24l334 260q20 -10 22 -34z" />
    <glyph glyph-name="ecaron.ss02" horiz-adv-x="1019" 
d="M574.5 944q-142.5 0 -259 -104.5t-157.5 -284.5h719q6 49 6 80q0 156 -83 232.5t-225.5 76.5zM491 20q172 0 300 119q20 -6 26 -28q-139 -129 -326.5 -129t-291 106.5t-103.5 296.5q0 285 150.5 441.5t347.5 156.5q152 0 242 -89t90 -261q-1 -54 -11 -115h-765
q-10 -68 -11 -133q0 -172 90 -268.5t262 -96.5zM604 1100q-18 -6 -37 0l-190 264q6 12 24 20l187 -247l268 252q16 -8 18 -25z" />
    <glyph glyph-name="ecaron.ss03" horiz-adv-x="995" 
d="M596 514q119 0 196.5 55.5t77.5 154.5q0 100 -70 160t-220 60t-273 -116.5t-155 -313.5h444zM602 983q143 0 229.5 -69.5t86.5 -187.5t-91.5 -184.5t-234.5 -66.5h-447q-6 -45 -6 -96q0 -170 96.5 -264.5t254.5 -94.5t288 117q20 -8 23 -33q-147 -123 -319.5 -122.5
t-280 102.5t-107.5 295q0 272 145.5 438t362.5 166zM647 1100q-18 -6 -37 0l-190 264q6 12 24 20l187 -247l268 252q16 -8 19 -25z" />
    <glyph glyph-name="ecircumflex.ss02" horiz-adv-x="1019" 
d="M574.5 944q-142.5 0 -259 -104.5t-157.5 -284.5h719q6 49 6 80q0 156 -83 232.5t-225.5 76.5zM491 20q172 0 300 119q20 -6 26 -28q-139 -129 -326.5 -129t-291 106.5t-103.5 296.5q0 285 150.5 441.5t347.5 156.5q152 0 242 -89t90 -261q-1 -54 -11 -115h-765
q-10 -68 -11 -133q0 -172 90 -268.5t262 -96.5zM360 1096q-16 8 -18 24l276 266q18 6 37 0l185 -266q-6 -12 -25 -20l-180 248z" />
    <glyph glyph-name="ecircumflex.ss03" horiz-adv-x="995" 
d="M579.5 944q-149.5 0 -272.5 -116.5t-155 -313.5h444q119 0 196.5 55.5t77.5 154.5t-70.5 159.5t-220 60.5zM592 475h-447q-6 -45 -6 -96q0 -170 96.5 -264.5t255 -94.5t287.5 117q20 -8 23 -33q-147 -123 -319.5 -122.5t-280 102.5t-107.5 295q0 272 145.5 438t362.5 166
q143 0 229.5 -69.5t86.5 -187.5t-91.5 -184.5t-234.5 -66.5zM403 1096q-16 8 -18 24l277 266q18 6 36 0l185 -266q-6 -12 -25 -20l-180 248z" />
    <glyph glyph-name="edieresis.ss02" horiz-adv-x="1019" 
d="M574.5 944q-142.5 0 -259 -104.5t-157.5 -284.5h719q6 49 6 80q0 156 -83 232.5t-225.5 76.5zM491 20q172 0 300 119q20 -6 26 -28q-139 -129 -326.5 -129t-291 106.5t-103.5 296.5q0 285 150.5 441.5t347.5 156.5q152 0 242 -89t90 -261q-1 -54 -11 -115h-765
q-10 -68 -11 -133q0 -172 90 -268.5t262 -96.5zM811.5 1186q-20.5 0 -36 15.5t-15.5 34.5t15.5 34.5t34.5 15.5t34.5 -15.5t15.5 -34.5t-14 -34.5t-34.5 -15.5zM409.5 1186q-20.5 0 -36 15.5t-15.5 34.5t15.5 34.5t36 15.5t35 -15.5t14.5 -34.5t-14.5 -34.5t-35 -15.5z" />
    <glyph glyph-name="edieresis.ss03" horiz-adv-x="995" 
d="M579.5 944q-149.5 0 -272.5 -116.5t-155 -313.5h444q119 0 196.5 55.5t77.5 154.5t-70.5 159.5t-220 60.5zM592 475h-447q-6 -45 -6 -96q0 -170 96.5 -264.5t255 -94.5t287.5 117q20 -8 23 -33q-147 -123 -319.5 -122.5t-280 102.5t-107.5 295q0 272 145.5 438t362.5 166
q143 0 229.5 -69.5t86.5 -187.5t-91.5 -184.5t-234.5 -66.5zM853 1186q-19 0 -34.5 15.5t-15.5 34.5t15.5 34.5t34.5 15.5t34.5 -15.5t15.5 -34.5t-15.5 -34.5t-34.5 -15.5zM452.5 1186q-20.5 0 -36 15.5t-15.5 34.5t15.5 34.5t36 15.5t35 -15.5t14.5 -34.5t-14.5 -34.5
t-35 -15.5z" />
    <glyph glyph-name="edotaccent.ss02" horiz-adv-x="1019" 
d="M574.5 944q-142.5 0 -259 -104.5t-157.5 -284.5h719q6 49 6 80q0 156 -83 232.5t-225.5 76.5zM491 20q172 0 300 119q20 -6 26 -28q-139 -129 -326.5 -129t-291 106.5t-103.5 296.5q0 285 150.5 441.5t347.5 156.5q152 0 242 -89t90 -261q-1 -54 -11 -115h-765
q-10 -68 -11 -133q0 -172 90 -268.5t262 -96.5zM610.5 1198q-20.5 0 -36 15.5t-15.5 36t15.5 35.5t36 15t36 -15t15.5 -35.5t-15.5 -36t-36 -15.5z" />
    <glyph glyph-name="edotaccent.ss03" horiz-adv-x="995" 
d="M579.5 944q-149.5 0 -272.5 -116.5t-155 -313.5h444q119 0 196.5 55.5t77.5 154.5t-70.5 159.5t-220 60.5zM592 475h-447q-6 -45 -6 -96q0 -170 96.5 -264.5t255 -94.5t287.5 117q20 -8 23 -33q-147 -123 -319.5 -122.5t-280 102.5t-107.5 295q0 272 145.5 438t362.5 166
q143 0 229.5 -69.5t86.5 -187.5t-91.5 -184.5t-234.5 -66.5zM654.5 1198q-21.5 0 -37 15.5t-15.5 36t15.5 35.5t36 15t36 -15t15.5 -35.5t-14.5 -36t-36 -15.5z" />
    <glyph glyph-name="egrave.ss02" horiz-adv-x="1019" 
d="M574.5 944q-142.5 0 -259 -104.5t-157.5 -284.5h719q6 49 6 80q0 156 -83 232.5t-225.5 76.5zM491 20q172 0 300 119q20 -6 26 -28q-139 -129 -326.5 -129t-291 106.5t-103.5 296.5q0 285 150.5 441.5t347.5 156.5q152 0 242 -89t90 -261q-1 -54 -11 -115h-765
q-10 -68 -11 -133q0 -172 90 -268.5t262 -96.5zM748 1120q-4 -12 -21 -22l-252 250q12 23 33 32z" />
    <glyph glyph-name="egrave.ss03" horiz-adv-x="995" 
d="M579.5 944q-149.5 0 -272.5 -116.5t-155 -313.5h444q119 0 196.5 55.5t77.5 154.5t-70.5 159.5t-220 60.5zM592 475h-447q-6 -45 -6 -96q0 -170 96.5 -264.5t255 -94.5t287.5 117q20 -8 23 -33q-147 -123 -319.5 -122.5t-280 102.5t-107.5 295q0 272 145.5 438t362.5 166
q143 0 229.5 -69.5t86.5 -187.5t-91.5 -184.5t-234.5 -66.5zM791 1120q-4 -12 -21 -22l-252 250q12 23 33 32z" />
    <glyph glyph-name="emacron.ss02" horiz-adv-x="1019" 
d="M574.5 944q-142.5 0 -259 -104.5t-157.5 -284.5h719q6 49 6 80q0 156 -83 232.5t-225.5 76.5zM491 20q172 0 300 119q20 -6 26 -28q-139 -129 -326.5 -129t-291 106.5t-103.5 296.5q0 285 150.5 441.5t347.5 156.5q152 0 242 -89t90 -261q-1 -54 -11 -115h-765
q-10 -68 -11 -133q0 -172 90 -268.5t262 -96.5zM358 1184q-4 0 -4 10t11 25h483q2 -4 2 -15.5t-8 -19.5h-484z" />
    <glyph glyph-name="emacron.ss03" horiz-adv-x="995" 
d="M579.5 944q-149.5 0 -272.5 -116.5t-155 -313.5h444q119 0 196.5 55.5t77.5 154.5t-70.5 159.5t-220 60.5zM592 475h-447q-6 -45 -6 -96q0 -170 96.5 -264.5t255 -94.5t287.5 117q20 -8 23 -33q-147 -123 -319.5 -122.5t-280 102.5t-107.5 295q0 272 145.5 438t362.5 166
q143 0 229.5 -69.5t86.5 -187.5t-91.5 -184.5t-234.5 -66.5zM401 1184q-4 0 -4 10t11 25h483q2 -4 2 -15.5t-8 -19.5h-484z" />
    <glyph glyph-name="eogonek.ss02" horiz-adv-x="1019" 
d="M574.5 944q-142.5 0 -259 -104.5t-157.5 -284.5h719q6 49 6 80q0 156 -83 232.5t-225.5 76.5zM477 -238q0 -81 98 -81q49 0 97 36q16 -6 16 -26q-63 -47 -133 -47q-121 0 -121 116.5t168 233.5q-57 -12 -123 -12q-176 0 -279.5 106.5t-103.5 296.5q0 285 150.5 441.5
t347.5 156.5q152 0 242 -89t90 -261q-1 -54 -11 -115h-765q-10 -68 -11 -133q0 -172 90 -268.5t262 -96.5t300 119q20 -6 26 -28q-61 -53 -121 -84q-219 -135 -219 -265z" />
    <glyph glyph-name="eogonek.ss03" horiz-adv-x="995" 
d="M579.5 944q-149.5 0 -272.5 -116.5t-155 -313.5h444q119 0 196.5 55.5t77.5 154.5t-70.5 159.5t-220 60.5zM449 -238q-1 -81 97 -81q48 0 97 36q16 -6 16 -26q-63 -47 -133 -47q-121 0 -120 118q0 111 157 226q-37 -6 -82 -6q-172 0 -279.5 102t-107.5 295
q0 272 145.5 438t362.5 166q143 0 229.5 -69.5t86.5 -187.5t-91.5 -184.5t-234.5 -66.5h-447q-6 -45 -6 -96q0 -170 96.5 -264.5t255 -94.5t287.5 117q20 -8 23 -33q-90 -76 -170 -100q-182 -127 -182 -242z" />
    <glyph glyph-name="f.ss01" horiz-adv-x="632" 
d="M646 1348q120 0 183 -45q-6 -23 -22 -35q-72 39 -164 39q-236 0 -278 -279l-13 -72h314q8 -16 -7 -34h-311l-160 -1000q-27 -166 -116.5 -245.5t-214.5 -79.5q-63 0 -111.5 16t-64.5 29q4 23 22 34q68 -39 162 -38q238 0 280 278l160 1006h-209q-4 20 6 34h209l11 66
q27 166 115.5 246t208.5 80z" />
    <glyph glyph-name="g.ss01" horiz-adv-x="1058" 
d="M317 -350q166 0 283 93t145 257l29 160q-106 -59 -201 -78q-276 -45 -383.5 -110.5t-107.5 -161.5q0 -74 61 -117t174 -43zM139 432q0 -150 94.5 -235.5t244.5 -85.5t302 94l119 676q-96 61 -256 61q-207 0 -355.5 -135t-148.5 -375zM647 983q184 0 297 -80l-158 -903
q-33 -180 -163.5 -284.5t-285.5 -104.5t-227 53q-72 52 -71.5 146t81.5 160.5t275 111.5q-137 23 -218 112t-81 230q0 260 161 409.5t390 149.5z" />
    <glyph glyph-name="g.ss02" horiz-adv-x="886" 
d="M154 616q0 -264 278 -264q137 0 229.5 91t92.5 244t-119 243h-133q-150 0 -249 -90t-99 -224zM416 311q-59 0 -115 17q-78 -66 -78 -120t49.5 -80t120 -40t142 -34.5t121 -70t49.5 -126.5q0 -121 -106.5 -187.5t-289.5 -66.5q-252 0 -370 102q8 25 30 37q113 -98 346 -98
q158 0 253.5 57t95.5 156q0 66 -50 107q-48 40 -120 58t-142 34q-170 40 -170 141q0 76 80 145q-150 74 -149 268q0 162 113.5 260.5t283.5 98.5h162q139 0 196 129q27 -7 35 -23q-76 -137 -211 -145q102 -90 102.5 -250t-103 -264.5t-275.5 -104.5z" />
    <glyph glyph-name="g.ss03" horiz-adv-x="989" 
d="M793 611q0 137 -71 228t-220.5 91t-255 -107.5t-105.5 -255t81 -222.5t223 -75t245 102t103 239zM778 16.5q0 -176.5 -126 -291t-312 -114.5q-264 0 -369 149q12 20 37 29q84 -135 332 -135q168 0 279.5 105.5t111.5 264t-127 238.5q-72 -33 -151 -33q-170 0 -261.5 87
t-91.5 252t120 283t292 118h205q94 0 150.5 22.5t99.5 81.5q20 -6 30 -24q-68 -78 -130 -98.5t-216 -20.5q182 -70 183 -307q0 -102 -50.5 -192.5t-136.5 -143.5q131 -94 131 -270.5z" />
    <glyph glyph-name="g.ss04" horiz-adv-x="964" 
d="M462.5 342q140.5 0 229 93t88.5 249t-98 246h-147q-158 0 -256.5 -91t-98.5 -245q0 -117 71 -184.5t211.5 -67.5zM821 679q0 -163 -100 -270.5t-279 -107.5h-100q-100 0 -158.5 -49t-58.5 -117q0 -135 176 -135h432q2 -2 2 -11t-6 -28h-434q-104 0 -158.5 46t-54.5 122
t49 131t158 72q-150 68 -150 251t113 284.5t291 101.5h178q94 0 150.5 22.5t99.5 81.5q20 -6 30 -24q-61 -72 -118.5 -95.5t-149.5 -23.5q88 -88 88 -251z" />
    <glyph glyph-name="gbreve.ss01" horiz-adv-x="1058" 
d="M317 -350q166 0 283 93t145 257l29 160q-106 -59 -201 -78q-276 -45 -383.5 -110.5t-107.5 -161.5q0 -74 61 -117t174 -43zM139 432q0 -150 94.5 -235.5t244.5 -85.5t302 94l119 676q-96 61 -256 61q-207 0 -355.5 -135t-148.5 -375zM647 983q184 0 297 -80l-158 -903
q-33 -180 -163.5 -284.5t-285.5 -104.5t-226.5 53t-71.5 146.5t81 160t275 111.5q-137 23 -218 112t-81 230q0 260 161 409.5t390 149.5zM624 1112q-94 0 -154 60.5t-54 175.5q18 4 35 2q-2 -98 49 -148.5t128 -50.5t146.5 51t95.5 148q14 0 29 -7q-29 -115 -105 -173
t-170 -58z" />
    <glyph glyph-name="gbreve.ss02" horiz-adv-x="886" 
d="M154 616q0 -264 278 -264q137 0 229.5 91t92.5 244t-119 243h-133q-150 0 -249 -90t-99 -224zM416 311q-59 0 -115 17q-78 -66 -78 -120t49.5 -80t120 -40t142 -34.5t121 -70t49.5 -126.5q0 -121 -106.5 -187.5t-289.5 -66.5q-252 0 -370 102q8 25 30 37q113 -98 346 -98
q158 0 253.5 57t95.5 156q0 66 -50 107q-48 40 -120 58t-142 34q-170 40 -170 141q0 76 80 145q-150 74 -149 268q0 162 113.5 260.5t283.5 98.5h162q139 0 196 129q27 -7 35 -23q-76 -137 -211 -145q102 -90 102.5 -250t-103 -264.5t-275.5 -104.5zM506 1112
q-94 0 -154.5 60.5t-54.5 175.5q18 4 35 2q-2 -98 49 -148.5t128 -50.5t146.5 51t96.5 148q14 0 28 -7q-29 -115 -104.5 -173t-169.5 -58z" />
    <glyph glyph-name="gbreve.ss03" horiz-adv-x="989" 
d="M793 611q0 137 -71 228t-220.5 91t-255 -107.5t-105.5 -255t81 -222.5t223 -75t245 102t103 239zM778 16.5q0 -176.5 -126 -291t-312 -114.5q-264 0 -369 149q12 20 37 29q84 -135 332 -135q168 0 279.5 105.5t111.5 264t-127 238.5q-72 -33 -151 -33q-170 0 -261.5 87
t-91.5 252t120 283t292 118h205q94 0 150.5 22.5t99.5 81.5q20 -6 30 -24q-68 -78 -130 -98.5t-216 -20.5q182 -70 183 -307q0 -102 -50.5 -192.5t-136.5 -143.5q131 -94 131 -270.5zM543 1112q-94 0 -154.5 60.5t-54.5 175.5q18 4 35 2q-2 -98 49 -148.5t128 -50.5
t146.5 51t95.5 148q14 0 29 -7q-29 -115 -104.5 -173t-169.5 -58z" />
    <glyph glyph-name="gbreve.ss04" horiz-adv-x="964" 
d="M462.5 342q140.5 0 229 93t88.5 249t-98 246h-147q-158 0 -256.5 -91t-98.5 -245q0 -117 71 -184.5t211.5 -67.5zM821 679q0 -163 -100 -270.5t-279 -107.5h-100q-100 0 -158.5 -49t-58.5 -117q0 -135 176 -135h432q2 -2 2 -11t-6 -28h-434q-104 0 -158.5 46t-54.5 122
t49 131t158 72q-150 68 -150 251t113 284.5t291 101.5h178q94 0 150.5 22.5t99.5 81.5q20 -6 30 -24q-61 -72 -118.5 -95.5t-149.5 -23.5q88 -88 88 -251zM557 1112q-94 0 -154.5 60.5t-54.5 175.5q18 4 35 2q-2 -98 49 -148.5t128 -50.5t146.5 51t96.5 148q12 0 28 -7
q-29 -115 -104.5 -173t-169.5 -58z" />
    <glyph glyph-name="gcommaaccent.ss01" horiz-adv-x="1058" 
d="M317 -350q166 0 283 93t145 257l29 160q-106 -59 -201 -78q-276 -45 -383.5 -110.5t-107.5 -161.5q0 -74 61 -117t174 -43zM139 432q0 -150 94.5 -235.5t244.5 -85.5t302 94l119 676q-96 61 -256 61q-207 0 -355.5 -135t-148.5 -375zM647 983q184 0 297 -80l-158 -903
q-33 -180 -163.5 -284.5t-285.5 -104.5t-226.5 53t-71.5 146.5t81 160t275 111.5q-137 23 -218 112t-81 230q0 260 161 409.5t390 149.5zM607 1044q-11 0 -23 5q-4 12 -4 47q0 90 42 166.5t95 123.5q12 -4 12 -16q-49 -49 -76.5 -122.5t-27.5 -117t4 -79.5q-11 -7 -22 -7z
" />
    <glyph glyph-name="gcommaaccent.ss02" horiz-adv-x="886" 
d="M154 616q0 -264 278 -264q137 0 229.5 91t92.5 244t-119 243h-133q-150 0 -249 -90t-99 -224zM416 311q-59 0 -115 17q-78 -66 -78 -120t49.5 -80t120 -40t142 -34.5t121 -70t49.5 -126.5q0 -121 -106.5 -187.5t-289.5 -66.5q-252 0 -370 102q8 25 30 37q113 -98 346 -98
q158 0 253.5 57t95.5 156q0 66 -50 107q-48 40 -120 58t-142 34q-170 40 -170 141q0 76 80 145q-150 74 -149 268q0 162 113.5 260.5t283.5 98.5h162q139 0 196 129q27 -7 35 -23q-76 -137 -211 -145q102 -90 102.5 -250t-103 -264.5t-275.5 -104.5zM488 1044q-11 0 -23 5
q-4 12 -4 47q0 90 42 166.5t95 123.5q12 -4 12 -16q-49 -49 -76.5 -122.5t-27.5 -117t4 -79.5q-11 -7 -22 -7z" />
    <glyph glyph-name="gcommaaccent.ss03" horiz-adv-x="989" 
d="M793 611q0 137 -71 228t-220.5 91t-255 -107.5t-105.5 -255t81 -222.5t223 -75t245 102t103 239zM778 16.5q0 -176.5 -126 -291t-312 -114.5q-264 0 -369 149q12 20 37 29q84 -135 332 -135q168 0 279.5 105.5t111.5 264t-127 238.5q-72 -33 -151 -33q-170 0 -261.5 87
t-91.5 252t120 283t292 118h205q94 0 150.5 22.5t99.5 81.5q20 -6 30 -24q-68 -78 -130 -98.5t-216 -20.5q182 -70 183 -307q0 -102 -50.5 -192.5t-136.5 -143.5q131 -94 131 -270.5zM525 1044q-11 0 -23 5q-4 12 -4 47q0 90 42 166.5t95 123.5q12 -4 12 -16
q-49 -49 -76.5 -122.5t-27.5 -117t4 -79.5q-11 -7 -22 -7z" />
    <glyph glyph-name="gcommaaccent.ss04" horiz-adv-x="964" 
d="M462.5 342q140.5 0 229 93t88.5 249t-98 246h-147q-158 0 -256.5 -91t-98.5 -245q0 -117 71 -184.5t211.5 -67.5zM821 679q0 -163 -100 -270.5t-279 -107.5h-100q-100 0 -158.5 -49t-58.5 -117q0 -135 176 -135h432q2 -2 2 -11t-6 -28h-434q-104 0 -158.5 46t-54.5 122
t49 131t158 72q-150 68 -150 251t113 284.5t291 101.5h178q94 0 150.5 22.5t99.5 81.5q20 -6 30 -24q-61 -72 -118.5 -95.5t-149.5 -23.5q88 -88 88 -251zM541 1044q-12 0 -25 5q-4 12 -4 47q0 90 42 166.5t95 123.5q12 -4 13 -16q-49 -49 -77 -122.5t-28 -117t4 -79.5
q-8 -7 -20 -7z" />
    <glyph glyph-name="gdotaccent.ss01" horiz-adv-x="1058" 
d="M317 -350q166 0 283 93t145 257l29 160q-106 -59 -201 -78q-276 -45 -383.5 -110.5t-107.5 -161.5q0 -74 61 -117t174 -43zM139 432q0 -150 94.5 -235.5t244.5 -85.5t302 94l119 676q-96 61 -256 61q-207 0 -355.5 -135t-148.5 -375zM647 983q184 0 297 -80l-158 -903
q-33 -180 -163.5 -284.5t-285.5 -104.5t-227 53q-72 52 -71.5 146t81.5 160.5t275 111.5q-137 23 -218 112t-81 230q0 260 161 409.5t390 149.5zM659.5 1198q-20.5 0 -36 15.5t-15.5 36t15.5 35.5t36 15t36 -15t15.5 -35.5t-15.5 -36t-36 -15.5z" />
    <glyph glyph-name="gdotaccent.ss02" horiz-adv-x="886" 
d="M154 616q0 -264 278 -264q137 0 229.5 91t92.5 244t-119 243h-133q-150 0 -249 -90t-99 -224zM416 311q-59 0 -115 17q-78 -66 -78 -120t49.5 -80t120 -40t142 -34.5t121 -70t49.5 -126.5q0 -121 -106.5 -187.5t-289.5 -66.5q-252 0 -370 102q8 25 30 37q113 -98 346 -98
q158 0 253.5 57t95.5 156q0 66 -50 107q-48 40 -120 58t-142 34q-170 40 -170 141q0 76 80 145q-150 74 -149 268q0 162 113.5 260.5t283.5 98.5h162q139 0 196 129q27 -7 35 -23q-76 -137 -211 -145q102 -90 102.5 -250t-103 -264.5t-275.5 -104.5zM540.5 1198
q-20.5 0 -36 15.5t-15.5 36t15.5 35.5t36 15t36 -15t15.5 -35.5t-15.5 -36t-36 -15.5z" />
    <glyph glyph-name="gdotaccent.ss03" horiz-adv-x="989" 
d="M793 611q0 137 -71 228t-220.5 91t-255 -107.5t-105.5 -255t81 -222.5t223 -75t245 102t103 239zM778 16.5q0 -176.5 -126 -291t-312 -114.5q-264 0 -369 149q12 20 37 29q84 -135 332 -135q168 0 279.5 105.5t111.5 264t-127 238.5q-72 -33 -151 -33q-170 0 -261.5 87
t-91.5 252t120 283t292 118h205q94 0 150.5 22.5t99.5 81.5q20 -6 30 -24q-68 -78 -130 -98.5t-216 -20.5q182 -70 183 -307q0 -102 -50.5 -192.5t-136.5 -143.5q131 -94 131 -270.5zM577.5 1198q-20.5 0 -36 15.5t-15.5 36t15.5 35.5t36 15t36 -15t15.5 -35.5t-15.5 -36
t-36 -15.5z" />
    <glyph glyph-name="gdotaccent.ss04" horiz-adv-x="964" 
d="M462.5 342q140.5 0 229 93t88.5 249t-98 246h-147q-158 0 -256.5 -91t-98.5 -245q0 -117 71 -184.5t211.5 -67.5zM821 679q0 -163 -100 -270.5t-279 -107.5h-100q-100 0 -158.5 -49t-58.5 -117q0 -135 176 -135h432q2 -2 2 -11t-6 -28h-434q-104 0 -158.5 46t-54.5 122
t49 131t158 72q-150 68 -150 251t113 284.5t291 101.5h178q94 0 150.5 22.5t99.5 81.5q20 -6 30 -24q-61 -72 -118.5 -95.5t-149.5 -23.5q88 -88 88 -251zM593.5 1198q-21.5 0 -37 15.5t-15.5 36t15 35.5t35.5 15t36 -15t15.5 -35.5t-14 -36t-35.5 -15.5z" />
    <glyph glyph-name="k.ss01" horiz-adv-x="983" 
d="M905 762q-1 -176 -117 -262q-91 -67 -243 -107l252 -393q-12 -4 -28.5 -4t-25.5 2l-239 373q-12 16 -12 49q182 45 276 116.5t94 208.5q0 88 -61.5 142.5t-163.5 54.5q-135 0 -264 -112t-154 -300l-94 -530q-12 -4 -22.5 -4t-18.5 4l238 1346q8 4 20 4t20 -4l-108 -613
q66 123 172 186.5t222 63.5t186.5 -64.5t70.5 -156.5z" />
    <glyph glyph-name="k.ss02" horiz-adv-x="909" 
d="M770.5 -2q-14.5 0 -22.5 2l-394 477q-70 -39 -157 -71l-72 -406q-12 -4 -22.5 -4t-18.5 4l238 1346q8 4 20 4t20 -4l-157 -897q162 63 346 210.5t280 292.5q9 2 19 2h18l9 -2q-82 -127 -212 -247.5t-274 -206.5l410 -496q-16 -4 -30.5 -4z" />
    <glyph glyph-name="kcommaaccent.ss01" horiz-adv-x="983" 
d="M373 -86q12 0 24 -4q4 -12 4 -47q0 -90 -42 -167t-95 -124q-12 4 -12 16q49 49 76.5 123t27.5 117t-4 80q9 6 21 6zM905 762q-1 -176 -117 -262q-91 -67 -243 -107l252 -393q-12 -4 -28.5 -4t-25.5 2l-239 373q-12 16 -12 49q182 45 276 116.5t94 208.5q0 88 -61.5 142.5
t-163.5 54.5q-135 0 -264 -112t-154 -300l-94 -530q-12 -4 -22.5 -4t-18.5 4l238 1346q8 4 20 4t20 -4l-108 -613q66 123 172 186.5t222 63.5t186.5 -64.5t70.5 -156.5z" />
    <glyph glyph-name="kcommaaccent.ss02" horiz-adv-x="909" 
d="M372 -86q11 0 23 -4q4 -12 4 -47q0 -90 -42 -167t-95 -124q-12 4 -12 16q49 49 76.5 123t27.5 117t-4 80q11 6 22 6zM770.5 -2q-14.5 0 -22.5 2l-394 477q-70 -39 -157 -71l-72 -406q-12 -4 -22.5 -4t-18.5 4l238 1346q8 4 20 4t20 -4l-157 -897q162 63 346 210.5
t280 292.5q9 2 19 2h18l9 -2q-82 -127 -212 -247.5t-274 -206.5l410 -496q-16 -4 -30.5 -4z" />
    <glyph glyph-name="l.ss02" horiz-adv-x="411" 
d="M108.5 -4q-12.5 0 -20.5 4l238 1350q12 4 22 4t19 -4l-238 -1350q-8 -4 -20.5 -4z" />
    <glyph glyph-name="lacute.ss02" horiz-adv-x="411" 
d="M108.5 -4q-12.5 0 -20.5 4l238 1350q12 4 22 4t19 -4l-238 -1350q-8 -4 -20.5 -4zM203 1409q-10 10 -13 29l361 198q14 -6 18 -34z" />
    <glyph glyph-name="lcaron.ss02" horiz-adv-x="411" 
d="M108.5 -4q-12.5 0 -20.5 4l238 1350q12 4 22 4t19 -4l-238 -1350q-8 -4 -20.5 -4zM561 1368q0 53 -4 78q12 6 26.5 6t22.5 -4q2 -4 2 -39q0 -96 -39 -186t-80 -133q-16 0 -16 12q39 51 63.5 132t24.5 134z" />
    <glyph glyph-name="lcommaaccent.ss02" horiz-adv-x="411" 
d="M90 -172q0 43 -4 80q8 6 20.5 6t24.5 -4q4 -12 4 -47q0 -90 -42 -167t-95 -124q-12 4 -12 16q49 49 76.5 123t27.5 117zM108.5 -4q-12.5 0 -20.5 4l238 1350q12 4 22 4t19 -4l-238 -1350q-8 -4 -20.5 -4z" />
    <glyph glyph-name="ldot.ss02" horiz-adv-x="464" 
d="M458.5 621q-22.5 0 -38.5 15q-16 14 -16.5 36t16 38.5t38.5 16.5t38 -15.5t16 -38t-15.5 -37.5t-38 -15zM108.5 -4q-12.5 0 -20.5 4l238 1350q12 4 22 4t19 -4l-238 -1350q-8 -4 -20.5 -4z" />
    <glyph glyph-name="lslash.ss02" horiz-adv-x="411" 
d="M108.5 -4q-12.5 0 -20.5 4l107 610l-146 -73q-14 12 -12 28l166 82l123 703q12 4 22 4t19 -4l-119 -680l153 78q16 -8 13 -29l-174 -86l-111 -633q-8 -4 -20.5 -4z" />
    <glyph glyph-name="p.ss01" horiz-adv-x="1071" 
d="M389 23q205 0 363.5 158.5t158.5 424.5q0 162 -74.5 249t-199.5 87q-240 0 -389 -242l-109 -612q90 -65 250 -65zM647 983q131 0 220 -91t89 -278q0 -291 -175 -461.5t-398 -170.5q-156 0 -252 57l-76 -424q-12 -4 -22 -4t-19 4l240 1343q23 8 41 0l-31 -176
q141 201 383 201z" />
    <glyph glyph-name="q.ss01" horiz-adv-x="1067" 
d="M418 16q217 0 377 215l114 648q-100 57 -239 57q-217 0 -378 -157.5t-161 -428.5q0 -158 80 -246t207 -88zM676 977q160 0 278 -74l-227 -1290q-12 -4 -22.5 -4t-18.5 4l96 551q-152 -188 -372 -189q-143 0 -232.5 96.5t-89.5 270.5q0 295 174 465t414 170z" />
    <glyph glyph-name="v.ss01" horiz-adv-x="1024" 
d="M261.5 -23q-76.5 0 -117 39t-40.5 111q0 25 2 37l134 784q12 4 23 4t20 -4l-131 -766q-2 -12 -2 -54t28.5 -76t90 -34t168 60.5t211 159t179 247t74.5 299.5q0 92 -37 174l21 3h2q14 0 24 -3q31 -70 31 -201t-74.5 -284.5t-183.5 -258.5t-227.5 -171t-195 -66z" />
    <glyph glyph-name="v.ss02" horiz-adv-x="940" 
d="M332 -8q-14 0 -23 4q-57 150 -110 436t-56 516q11 2 23 2t18 -2h2q2 -221 52 -501t92 -394q2 -4 5 -12t5 -12q8 8 9 10t4 4t5 4q135 115 319 409q183 294 210 492l20 2h2l19 -2q-27 -205 -213 -501t-357 -451q-12 -4 -26 -4z" />
    <glyph glyph-name="w.ss02" horiz-adv-x="1421" 
d="M886.5 -8q-16.5 0 -24.5 4q-41 156 -73.5 391.5t-38.5 443.5q-59 -217 -182.5 -452.5t-239.5 -382.5q-8 -4 -23.5 -4t-23.5 4q-49 147 -92.5 435t-53.5 517q10 2 23 2l16 -2q10 -217 52 -499.5t77 -395.5l6 -26q79 79 230 387.5t200 521.5q4 2 19.5 2t23.5 -2h2
q-2 -295 101 -883q6 -31 6 -33q20 20 31 33q92 94 233 378t197 517l20 2h12l9 -2q-57 -252 -203 -539.5t-279 -412.5q-8 -4 -24.5 -4z" />
    <glyph glyph-name="wacute.ss02" horiz-adv-x="1421" 
d="M886.5 -8q-16.5 0 -24.5 4q-41 156 -73.5 391.5t-38.5 443.5q-59 -217 -182.5 -452.5t-239.5 -382.5q-8 -4 -23.5 -4t-23.5 4q-49 147 -92.5 435t-53.5 517q10 2 23 2l16 -2q10 -217 52 -499.5t77 -395.5l6 -26q79 79 230 387.5t200 521.5q4 2 19.5 2t23.5 -2h2
q-2 -295 101 -883q6 -31 6 -33q20 20 31 33q92 94 233 378t197 517l20 2h12l9 -2q-57 -252 -203 -539.5t-279 -412.5q-8 -4 -24.5 -4zM629 1096q-14 8 -17 24l334 260q20 -10 23 -34z" />
    <glyph glyph-name="wcircumflex.ss02" horiz-adv-x="1421" 
d="M886.5 -8q-16.5 0 -24.5 4q-41 156 -73.5 391.5t-38.5 443.5q-59 -217 -182.5 -452.5t-239.5 -382.5q-8 -4 -23.5 -4t-23.5 4q-49 147 -92.5 435t-53.5 517q10 2 23 2l16 -2q10 -217 52 -499.5t77 -395.5l6 -26q79 79 230 387.5t200 521.5q4 2 19.5 2t23.5 -2h2
q-2 -295 101 -883q6 -31 6 -33q20 20 31 33q92 94 233 378t197 517l20 2h12l9 -2q-57 -252 -203 -539.5t-279 -412.5q-8 -4 -24.5 -4zM543 1096q-16 8 -19 24l277 266q18 6 37 0l184 -266q-6 -12 -25 -20l-180 248z" />
    <glyph glyph-name="wdieresis.ss02" horiz-adv-x="1421" 
d="M886.5 -8q-16.5 0 -24.5 4q-41 156 -73.5 391.5t-38.5 443.5q-59 -217 -182.5 -452.5t-239.5 -382.5q-8 -4 -23.5 -4t-23.5 4q-49 147 -92.5 435t-53.5 517q10 2 23 2l16 -2q10 -217 52 -499.5t77 -395.5l6 -26q79 79 230 387.5t200 521.5q4 2 19.5 2t23.5 -2h2
q-2 -295 101 -883q6 -31 6 -33q20 20 31 33q92 94 233 378t197 517l20 2h12l9 -2q-57 -252 -203 -539.5t-279 -412.5q-8 -4 -24.5 -4zM992 1186q-19 0 -34.5 15.5t-15.5 34.5t15.5 34.5t34.5 15.5t34.5 -15.5t15.5 -34.5t-15.5 -34.5t-34.5 -15.5zM591.5 1186
q-20.5 0 -35.5 15.5t-15 34.5t15 34.5t35.5 15.5t35 -15.5t14.5 -34.5t-14.5 -34.5t-35 -15.5z" />
    <glyph glyph-name="wgrave.ss02" horiz-adv-x="1421" 
d="M886.5 -8q-16.5 0 -24.5 4q-41 156 -73.5 391.5t-38.5 443.5q-59 -217 -182.5 -452.5t-239.5 -382.5q-8 -4 -23.5 -4t-23.5 4q-49 147 -92.5 435t-53.5 517q10 2 23 2l16 -2q10 -217 52 -499.5t77 -395.5l6 -26q79 79 230 387.5t200 521.5q4 2 19.5 2t23.5 -2h2
q-2 -295 101 -883q6 -31 6 -33q20 20 31 33q92 94 233 378t197 517l20 2h12l9 -2q-57 -252 -203 -539.5t-279 -412.5q-8 -4 -24.5 -4zM930 1120q-4 -12 -21 -22l-252 250q12 23 33 32z" />
    <glyph glyph-name="y.ss01" horiz-adv-x="1046" 
d="M324 -348q152 0 262 93t137 239l29 163q-102 -55 -211 -75q-422 -66 -422 -260q0 -78 57.5 -119t147.5 -41zM913.5 952q12.5 0 20.5 -4l-170 -964q-31 -168 -156 -269.5t-291 -101.5q-111 0 -176 51t-65 146q0 186 315 260q-336 12 -274 362l90 516q12 4 23 4t20 -4
l-88 -497q-61 -350 266 -351q184 0 332 97l133 751q8 4 20.5 4z" />
    <glyph glyph-name="y.ss02" horiz-adv-x="989" 
d="M180 881q0 -264 83 -513t202 -378q391 367 391 846q0 53 -18 110q8 4 20 4h19l8 -2q12 -61 12 -110q0 -373 -248 -705t-737 -539q-14 10 -16 35q315 133 536 330q-135 158 -215 416t-80 528q0 29 4 47h2l19 2l18 -2h4q-4 -25 -4 -69z" />
    <glyph glyph-name="yacute.ss01" horiz-adv-x="1046" 
d="M324 -348q152 0 262 93t137 239l29 163q-102 -55 -211 -75q-422 -66 -422 -260q0 -78 57.5 -119t147.5 -41zM913.5 952q12.5 0 20.5 -4l-170 -964q-31 -168 -156 -269.5t-291 -101.5q-111 0 -176 51t-65 146q0 186 315 260q-336 12 -274 362l90 516q12 4 23 4t20 -4
l-88 -497q-61 -350 266 -351q184 0 332 97l133 751q8 4 20.5 4zM438 1096q-14 8 -16 24l334 260q20 -10 22 -34z" />
    <glyph glyph-name="yacute.ss02" horiz-adv-x="989" 
d="M180 881q0 -264 83 -513t202 -378q391 367 391 846q0 53 -18 110q8 4 20 4h19l8 -2q12 -61 12 -110q0 -373 -248 -705t-737 -539q-14 10 -16 35q315 133 536 330q-135 158 -215 416t-80 528q0 29 4 47h2l19 2l18 -2h4q-4 -25 -4 -69zM379 1096q-14 8 -17 24l334 260
q20 -10 23 -34z" />
    <glyph glyph-name="ycircumflex.ss01" horiz-adv-x="1046" 
d="M324 -348q152 0 262 93t137 239l29 163q-102 -55 -211 -75q-422 -66 -422 -260q0 -78 57.5 -119t147.5 -41zM913.5 952q12.5 0 20.5 -4l-170 -964q-31 -168 -156 -269.5t-291 -101.5q-111 0 -176 51t-65 146q0 186 315 260q-336 12 -274 362l90 516q12 4 23 4t20 -4
l-88 -497q-61 -350 266 -351q184 0 332 97l133 751q8 4 20.5 4zM352 1096q-16 8 -18 24l276 266q18 6 37 0l184 -266q-6 -12 -24 -20l-180 248z" />
    <glyph glyph-name="ycircumflex.ss02" horiz-adv-x="989" 
d="M180 881q0 -264 83 -513t202 -378q391 367 391 846q0 53 -18 110q8 4 20 4h19l8 -2q12 -61 12 -110q0 -373 -248 -705t-737 -539q-14 10 -16 35q315 133 536 330q-135 158 -215 416t-80 528q0 29 4 47h2l19 2l18 -2h4q-4 -25 -4 -69zM293 1096q-16 8 -19 24l277 266
q18 6 37 0l184 -266q-6 -12 -24 -20l-181 248z" />
    <glyph glyph-name="ydieresis.ss01" horiz-adv-x="1046" 
d="M324 -348q152 0 262 93t137 239l29 163q-102 -55 -211 -75q-422 -66 -422 -260q0 -78 57.5 -119t147.5 -41zM913.5 952q12.5 0 20.5 -4l-170 -964q-31 -168 -156 -269.5t-291 -101.5q-111 0 -176 51t-65 146q0 186 315 260q-336 12 -274 362l90 516q12 4 23 4t20 -4
l-88 -497q-61 -350 266 -351q184 0 332 97l133 751q8 4 20.5 4zM803.5 1186q-20.5 0 -36 15.5t-15.5 34.5t15 34.5t34.5 15.5t35 -15.5t15.5 -34.5t-14 -34.5t-34.5 -15.5zM401.5 1186q-20.5 0 -36 15.5t-15.5 34.5t15.5 34.5t36 15.5t35 -15.5t14.5 -34.5t-14.5 -34.5
t-35 -15.5z" />
    <glyph glyph-name="ydieresis.ss02" horiz-adv-x="989" 
d="M180 881q0 -264 83 -513t202 -378q391 367 391 846q0 53 -18 110q8 4 20 4h19l8 -2q12 -61 12 -110q0 -373 -248 -705t-737 -539q-14 10 -16 35q315 133 536 330q-135 158 -215 416t-80 528q0 29 4 47h2l19 2l18 -2h4q-4 -25 -4 -69zM742 1186q-19 0 -34.5 15.5
t-15.5 34.5t15.5 34.5t34.5 15.5t35 -15.5t16 -34.5t-16 -34.5t-35 -15.5zM342 1186q-20 0 -35.5 15.5t-15.5 34.5t15.5 34.5t35.5 15.5t34.5 -15.5t14.5 -34.5t-14.5 -34.5t-34.5 -15.5z" />
    <glyph glyph-name="ygrave.ss01" horiz-adv-x="1046" 
d="M324 -348q152 0 262 93t137 239l29 163q-102 -55 -211 -75q-422 -66 -422 -260q0 -78 57.5 -119t147.5 -41zM913.5 952q12.5 0 20.5 -4l-170 -964q-31 -168 -156 -269.5t-291 -101.5q-111 0 -176 51t-65 146q0 186 315 260q-336 12 -274 362l90 516q12 4 23 4t20 -4
l-88 -497q-61 -350 266 -351q184 0 332 97l133 751q8 4 20.5 4zM739 1120q-4 -12 -20 -22l-252 250q12 23 33 32z" />
    <glyph glyph-name="ygrave.ss02" horiz-adv-x="989" 
d="M180 881q0 -264 83 -513t202 -378q391 367 391 846q0 53 -18 110q8 4 20 4h19l8 -2q12 -61 12 -110q0 -373 -248 -705t-737 -539q-14 10 -16 35q315 133 536 330q-135 158 -215 416t-80 528q0 29 4 47h2l19 2l18 -2h4q-4 -25 -4 -69zM680 1120q-4 -12 -21 -22l-251 250
q12 23 32 32z" />
    <glyph glyph-name="fi.ss01" horiz-adv-x="1026" 
d="M698 1348q168 0 260 -99q-6 -16 -32 -30q-48 45 -98 67t-136 21q-322 0 -379 -328l-4 -23h602l-168 -956q-8 -4 -20 -4t-21 4l162 922h-561l-160 -1000q-27 -166 -117 -246t-214 -79q-64 0 -112 16t-65 29q4 23 23 34q68 -39 162 -38q233 0 280 278l166 1006h-149v14
q0 8 6 20h149q64 392 426 392z" />
    <glyph glyph-name="fl.ss01" horiz-adv-x="1128" 
d="M666 1307q-122 0 -224 -81t-131 -259l-2 -11h316q2 -2 2 -14t-9 -20h-315l-162 -1000q-27 -166 -115 -246t-214 -79q-64 0 -112 16t-65 29q4 23 23 34q68 -39 162 -38q238 0 280 278l164 1006h-147v14q0 8 6 20h147v5q33 203 150 295q116 92 268 92t234 -56l-185 -1104
q-14 -78 20 -120q33 -42 107 -43q74 0 156 61q20 -14 20 -31q-2 -2 -13 -10t-19 -14q-60 -45 -149 -45t-133 54t-28 153l181 1071q-92 43 -213 43z" />
    <glyph glyph-name="three.001" horiz-adv-x="997" 
d="M948 1315q0 -41 -41 -78l-463 -434q190 0 310 -94t118 -273q0 -217 -134 -336t-332 -118q-252 0 -377 133q8 20 30 32q66 -63 144 -94t211 -30q182 -1 300 107t118 287t-112 264t-308 85h-31q6 30 22 47l486 461h-688q-4 21 6 41h741z" />
    <glyph glyph-name="zero.osf" horiz-adv-x="1181" 
d="M518 23q129 0 227 53q180 97 244 355q29 116 29 251q0 184 -87 290t-269 107q-242 0 -373 -190t-131 -471q0 -184 88 -290t272 -105zM512 -18q-199 0 -297 116t-98 318q0 303 149 504q150 201 404 200q195 0 292 -116t97 -318q0 -311 -138 -508q-139 -196 -409 -196z" />
    <glyph glyph-name="one.osf" horiz-adv-x="600" 
d="M470 1106q15 0 24 -4l-195 -1102q-8 -4 -20 -4t-21 4l188 1059l-315 -162q-12 12 -12 37q336 172 351 172z" />
    <glyph glyph-name="two.osf" horiz-adv-x="940" 
d="M16 23q0 37 43 65q439 304 585 450t147 300q0 118 -72 182t-207 63q-176 0 -309 -153q-18 6 -23 24q139 168 340 168q143 0 229 -73q85 -74 85 -211q0 -92 -42 -176t-163 -192t-285 -230t-258 -181l-29 -20l25 2h692l2 -12q0 -8 -8 -29h-748q-4 12 -4 23z" />
    <glyph glyph-name="three.osf" horiz-adv-x="946" 
d="M768 254q0 -188 -125 -301t-333 -113t-320 127q8 20 30 33q62 -66 130 -92t174 -27q180 1 292 103t111 262q0 120 -89 188t-265 68q-2 6 0 21t6 20q184 0 288 96q103 96 103 219q0 221 -238 221q-180 0 -323 -139q-18 6 -23 23q154 158 353 157q127 0 201 -66t73 -189
q0 -124 -89 -221t-228 -120q272 -35 272 -270z" />
    <glyph glyph-name="four.osf" horiz-adv-x="987" 
d="M55 199h586l141 805l4 20zM596 -166q-6 0 -18 4l57 322h-623q-4 8 -4 28t19 37l772 871q12 4 20 4t21 -4l-158 -897h152q2 -18 -9 -39h-149l-58 -322q-16 -4 -22 -4z" />
    <glyph glyph-name="five.osf" horiz-adv-x="940" 
d="M332 -162q-236 0 -322 107q12 23 33 30q70 -98 295 -98q162 0 274 93t113 257q0 195 -135 265t-428 69l92 526h600v-12q0 -14 -8 -28h-557l-80 -445q281 0 420 -82t139 -274t-125 -300t-311 -108z" />
    <glyph glyph-name="six.osf" horiz-adv-x="1005" 
d="M541 698q-211 0 -398 -217q-6 -51 -6 -106q0 -175 80 -271t238 -96q159 0 267 112t107 300q-1 138 -83 208t-205 70zM872 428q0 -207 -124 -333t-298 -126q-174 -1 -264 105t-90 301t85 373q153 319 504 494q153 77 298 93q6 -12 2 -41q-158 -14 -329 -105t-317 -266
t-187 -388q174 203 395 202q141 0 233 -77t92 -232z" />
    <glyph glyph-name="seven.osf" horiz-adv-x="907" 
d="M930 1085v-12q0 -29 -47 -96l-768 -1122q-27 8 -37 20l805 1169h-713q-2 4 -2 16t8 25h754z" />
    <glyph glyph-name="eight.osf" horiz-adv-x="974" 
d="M119 252q0 -112 84 -172t222 -60t243 79q104 79 104 223q0 86 -38 152t-86 102t-98 67t-52 33h-2q-377 -170 -377 -424zM848 1076q0 108 -71 170t-199 62t-216 -83q-86 -85 -86 -193t62 -179t170 -138q180 80 260 166t80 195zM422 -20q-160 0 -253 70t-93 194
q0 285 387 454q-109 72 -169 146t-60 194t100 216q100 98 246 98t228 -73q81 -73 81 -185q0 -250 -348 -402q69 -44 103 -68q172 -122 170 -293q-1 -171 -117 -261q-115 -90 -275 -90z" />
    <glyph glyph-name="nine.osf" horiz-adv-x="991" 
d="M520 1081q-154 1 -253 -113t-99 -271t80 -235t194 -77q221 0 381 152q10 78 11 153q0 391 -314 391zM125 699q1 179 115 300t287 121t260 -112t87 -320q0 -379 -210 -603t-578 -245q-4 20 4 37q299 18 488 174q188 156 239 434q-164 -139 -373 -139q-139 0 -229 87
t-90 266z" />
    <glyph glyph-name="zero.tf" horiz-adv-x="1085" 
d="M481 23q164 1 274 121q203 222 203 737q0 432 -311 432q-123 0 -219 -75t-154 -200q-117 -253 -114 -583q-1 -432 321 -432zM475 -18q-356 0 -356 475q0 532 238 772q124 125 296 125q346 0 346 -475q0 -409 -134 -653t-390 -244z" />
    <glyph glyph-name="one.tf" horiz-adv-x="1085" 
d="M750 1319q12 0 20 -4l-225 -1278h291q6 -25 -7 -37h-669q-4 16 6 37h338l219 1233l-387 -195q-16 14 -12 37l407 203q7 4 19 4z" />
    <glyph glyph-name="two.tf" horiz-adv-x="1085" 
d="M609 1315q-132 0 -214 -45t-159 -127q-18 6 -27 24q78 87 169 137q90 50 236 50t237 -88t91 -249t-129 -316t-561 -551q-80 -72 -117 -109h774q4 -20 -8 -41h-809q-4 12 -4 31t43 57l16 16l3 2h2l30 31h2l4 4l5 4q429 397 557 545t147 285l2 53q0 127 -79 207t-211 80z
" />
    <glyph glyph-name="three.tf" horiz-adv-x="1085" 
d="M403 -18q-214 0 -327 116q12 25 30 35q58 -55 130 -83t188 -27q182 -1 312 109t130 314q0 154 -109 236q-110 82 -315 82h-30q0 23 24 45l506 465h-686q-2 4 -2 12t8 29h735q0 -41 -41 -78l-477 -436q201 -4 315 -91t113 -257q0 -225 -145 -348t-359 -123z" />
    <glyph glyph-name="four.tf" horiz-adv-x="1085" 
d="M672 -4q-8 0 -21 4l72 399h-608q-16 49 22 107l584 852q20 0 37 -17l-584 -845q-25 -35 -18 -58h573l57 326q16 4 22 4t19 -4l-57 -326h170l2 -12q0 -6 -8 -27h-170l-72 -399q-12 -4 -20 -4z" />
    <glyph glyph-name="five.tf" horiz-adv-x="1085" 
d="M895 483q0 -231 -130 -371t-342 -141q-212 0 -329 107q10 23 33 33q93 -101 295 -101t317 125t115 338q0 141 -83 221t-234 80q-85 0 -175 -34t-102 -34t-18 5l106 604h647v-12q0 -16 -8 -29h-606l-92 -526q135 68 256 67q164 0 257 -87t93 -245z" />
    <glyph glyph-name="six.tf" horiz-adv-x="1085" 
d="M881 422q0 154 -86 230t-208 77q-122 -1 -230 -65t-175 -158q-12 -63 -12 -137q0 -173 84 -267t245 -94t271 109t111 305zM602 768q129 0 225 -85t97 -255q0 -215 -123 -337t-303 -122q-180 1 -274 105t-95 276q0 329 194 564q175 218 434 334q120 54 236 77q6 -12 2 -41
q-253 -49 -489 -243t-309 -468q70 87 173 141t232 54z" />
    <glyph glyph-name="seven.tf" horiz-adv-x="1085" 
d="M1085 1294q0 -17 -51 -90l-839 -1229q-27 4 -35 21l872 1276h-778v12q0 14 8 29h821q2 -2 2 -19z" />
    <glyph glyph-name="eight.tf" horiz-adv-x="1085" 
d="M158 297q0 -139 90 -208t241 -69q152 0 252 84t101 242q0 203 -260 326q-39 16 -103 51q-119 -49 -220 -168t-101 -258zM326 1011q0 -119 61 -177t205 -125l72 -37q114 58 194 160t80 223t-73 187t-207 67q-134 0 -233 -89q-99 -90 -99 -209zM482 -20q-169 0 -268 78
t-99 232q0 152 102 273t229 178q-84 49 -124 109t-39 149q0 150 113 251q114 102 266 102t236 -76q83 -76 83 -210t-84 -243t-203 -172q188 -123 188 -299t-115 -274q-116 -98 -285 -98z" />
    <glyph glyph-name="nine.tf" horiz-adv-x="1085" 
d="M541 586q205 0 379 151q8 66 8 154q0 190 -92 307t-244 117t-254 -111t-102 -284q0 -174 88 -254t217 -80zM599 1354q169 0 269 -126t101 -331q-1 -449 -227 -687t-586 -239q-4 20 8 41q263 0 469 148q106 76 180 211t100 317q-166 -141 -381 -141q-145 0 -241 90
q-96 89 -96 285t117 314q118 118 287 118z" />
    <glyph glyph-name="currency.osf" horiz-adv-x="1179" 
d="M174 475q0 -166 99 -271q99 -106 283 -106t309 122q124 122 124 345q0 167 -99 273q-98 106 -276 106t-309 -129t-131 -340zM1030 569q0 -250 -156 -391l89 -112q-14 -16 -33 -27l-88 113q-122 -94 -310 -94t-299 126l-133 -118q-18 10 -22 26l133 119q-76 106 -76 258
q0 238 158 385l-92 119q14 20 32 26l93 -116q131 102 297 102q201 0 311 -131l139 123q10 -10 23 -27l-142 -125q76 -106 76 -256z" />
    <glyph glyph-name="dollar.osf" horiz-adv-x="888" 
d="M711 308q-1 104 -59 152t-167 83l-84 -480q145 2 228 72q82 70 82 173zM528 1055q-147 0 -234 -66t-87 -172t79 -151q64 -38 169 -68l82 457h-9zM752 307q0 -127 -98 -204t-259 -78l-39 -218q-8 -4 -20 -4t-21 4l39 218q-219 12 -336 120q10 27 33 35q109 -104 309 -117
l86 490q-172 47 -225 102q-57 66 -57 156q0 129 104 207t269 78h6l39 219q8 4 21 4t18 -4l-39 -221q152 -8 258 -88q-12 -27 -31 -37q-106 76 -234 84l-81 -467q122 -40 190 -96t68 -183z" />
    <glyph glyph-name="sterling.osf" horiz-adv-x="968" 
d="M611 1108q175 0 290 -111q-10 -23 -33 -30q-96 100 -259 100t-253 -102t-84 -287q2 -61 -4 -127h414q2 -20 -6 -39h-412q-12 -98 -64 -238t-53 -233h654q6 -20 -6 -41h-695q0 125 55 273q54 148 66 239h-131q-4 18 6 39h129q4 70 4 115q-1 214 103 328t279 114z" />
    <glyph glyph-name="yen.osf" horiz-adv-x="1026" 
d="M795 456q0 -9 -9 -26h-270l-4 -4l-31 -172h275v-10q0 -14 -6 -29h-275l-39 -215q-8 -4 -20 -4t-21 4l39 215h-276v10q0 18 8 29h274l31 176h-274l-2 8q0 10 8 31h252l-287 612q20 4 39 4h8l281 -600l4 -12l487 612h14q14 0 31 -4l-485 -612h246q2 -4 2 -13z" />
    <glyph glyph-name="ampersand.ss01" horiz-adv-x="1675" 
d="M1260 625q0 43 -3 65q-600 -82 -1087 -270q25 -168 152 -283t342 -114q270 0 433 166t163 436zM553 942q-168 0 -279 -123t-110 -321q0 -27 2 -41q332 133 727 211q-39 122 -128 198t-212 76zM1298 625q0 -291 -180 -467t-443 -176t-409 150q-145 151 -145 369t127 350
t305 132q137 0 239 -83t144 -224q145 29 317 51q-20 172 -110 340q16 14 41 14q86 -160 108 -348q238 29 420 39q4 -18 0 -37q-201 -12 -416 -41q2 -23 2 -69z" />
    <glyph glyph-name="caroncomb.alt" 
d="M141 1368q0 53 -4 78q12 6 26.5 6t22.5 -4q2 -4 2 -39q0 -96 -38.5 -186t-79.5 -133q-16 0 -17 12q39 51 63.5 132t24.5 134z" />
    <glyph glyph-name="gravecomb.case" 
d="M182 1413l-299 193q6 25 25 34l291 -198q-3 -15 -17 -29z" />
    <glyph glyph-name="acutecomb.case" 
d="M-141 1409q-10 10 -13 29l361 198q14 -6 18 -34z" />
    <glyph glyph-name="tildecomb.case" 
d="M-214 1593q62 0 147 -48t133 -48q78 0 116 96q20 0 33 -12q-53 -123 -156 -123q-59 0 -143 48t-131 48q-82 0 -160 -100q-20 4 -28 19q51 68 89 94t100 26z" />
    <glyph glyph-name="acute.case" horiz-adv-x="487" 
d="M322 1409q-12 12 -15 29l361 198q18 -8 20 -34z" />
    <glyph glyph-name="breve.case" horiz-adv-x="610" 
d="M555 1430q-94 0 -155.5 56t-61.5 156q14 6 33 7q4 -86 56 -133.5t130 -47.5t141.5 46.5t94.5 132.5q18 0 30 -7q-31 -102 -102.5 -156t-165.5 -54z" />
    <glyph glyph-name="caron.case" horiz-adv-x="608" 
d="M508 1389l-184 233q6 12 24 20l187 -215l264 218q16 -8 18 -23l-268 -233q-21 -6 -41 0z" />
    <glyph glyph-name="circumflex.case" horiz-adv-x="608" 
d="M582 1638l184 -233q-6 -12 -25 -21l-186 215l-264 -217q-16 8 -19 23l269 233q21 6 41 0z" />
    <glyph glyph-name="dieresis.case" horiz-adv-x="669" 
d="M792.5 1491q-20.5 0 -36 15.5t-15.5 34.5t15.5 34.5t35.5 15.5q22 0 36 -15q14 -14 14 -34t-14.5 -35.5t-35 -15.5zM391.5 1491q-20.5 0 -36 15.5t-15.5 34.5t15.5 34.5t36 15.5t34.5 -15t14 -36t-14 -35t-34.5 -14z" />
    <glyph glyph-name="dotaccent.case" horiz-adv-x="249" 
d="M387.5 1493q-22.5 0 -38 15.5t-15.5 36.5t16 37t38 16.5t37 -15.5t15 -38t-15 -37t-37.5 -15z" />
    <glyph glyph-name="grave.case" horiz-adv-x="487" 
d="M643 1413l-301 193q10 25 27 34l288 -198q-2 -15 -14 -29z" />
    <glyph glyph-name="hungarumlaut.case" horiz-adv-x="702" 
d="M627 1374q-16 8 -19 23l264 289q20 -8 29 -31zM324 1374q-16 8 -19 23l264 289q20 -8 29 -31z" />
    <glyph glyph-name="macron.case" horiz-adv-x="641" 
d="M326 1495q-12 4 6 35h485q10 -18 -6 -35h-485z" />
    <glyph glyph-name="ring.case" horiz-adv-x="473" 
d="M365 1502q0 -126 119 -126q60 0 99.5 42t39.5 118q0 115 -115 115q-57 0 -100 -44.5t-43 -104.5zM478 1337q-75 0 -113.5 42t-38.5 118t57 134.5t130 58.5t112 -42t39 -122t-55.5 -134.5t-130.5 -54.5z" />
    <glyph glyph-name="tilde.case" horiz-adv-x="765" 
d="M508.5 1593q62.5 0 147.5 -48t132 -48q78 0 117 96q20 0 33 -12q-53 -123 -156 -123q-59 0 -143 48t-131 48q-82 0 -160 -100q-20 4 -29 19q51 68 89 94t100.5 26z" />
    <glyph glyph-name="IJacute" horiz-adv-x="995" 
d="M428 -33q-123 0 -195 76q10 23 29 33q74 -68 172 -68q227 0 277 279l182 1028q8 4 19 4t20 -4l-180 -1022q-58 -326 -324 -326zM168 287q-12 0 -21 4l183 1024q12 4 22 4t19 -4l-183 -1024q-8 -4 -20 -4zM705 1409q-10 14 -9 29l361 202q14 -12 14 -38zM233 1409
q-10 14 -8 29l361 202q14 -12 14 -38z" />
    <glyph glyph-name="ijacute" horiz-adv-x="872" 
d="M282 -356q80 0 154 68t99 210l182 1030q8 4 20 4t21 -4l-180 -1024q-28 -162 -118 -244t-176 -81q-86 0 -115 17q-61 35 -79 63q6 18 29 34q31 -29 45 -41q37 -32 118 -32zM108 -4q-12 0 -20 4l168 958q32 11 41 0l-168 -958q-9 -4 -21 -4zM625 1090q-10 8 -15 24
l332 260q18 -10 23 -35zM193 1090q-14 10 -15 24l332 260q16 -10 22 -35z" />
    <glyph glyph-name="slashlong" horiz-adv-x="1107" 
d="M260 -152q-29 4 -33 19l793 1231q25 0 33 -17z" />
    <glyph glyph-name="slashshort" horiz-adv-x="483" 
d="M190 594q-14 12 -12 29l365 182q16 -8 12 -29z" />
    <glyph glyph-name="stroke" horiz-adv-x="550" 
d="M233 946q-4 18 7 31h426q6 -18 -7 -31h-426z" />
    <glyph glyph-name="caronalt" horiz-adv-x="192" 
d="M334 1368q0 53 -4 78q12 6 26 6t23 -4q2 -4 2 -39q0 -96 -39 -186t-80 -133q-16 0 -16 12q39 51 63 132q25 81 25 134z" />
    <glyph glyph-name="slashlong.case" horiz-adv-x="1257" 
d="M236 -80q-23 4 -29 23l985 1452q23 -4 29 -21z" />
    <glyph glyph-name="slashshort.case" horiz-adv-x="509" 
d="M164 582q-16 8 -12 28l440 215q16 -8 12 -28z" />
    <glyph glyph-name="i.loclTRK" horiz-adv-x="411" 
d="M106.5 -4q-12.5 0 -20.5 4l170 958q23 11 41 0l-170 -958q-8 -4 -20.5 -4zM323.5 1198q-20.5 0 -36 15.5t-15.5 36t15.5 35.5t36 15t36 -15t15.5 -35.5t-15.5 -36t-36 -15.5z" />
    <glyph glyph-name="uni1EF9.ss01" horiz-adv-x="1046" 
d="M324 -348q152 0 262 93t137 239l29 163q-102 -55 -211 -75q-422 -66 -422 -260q0 -78 57.5 -119t147.5 -41zM913.5 952q12.5 0 20.5 -4l-170 -964q-31 -168 -156 -269.5t-291 -101.5q-111 0 -176 51t-65 146q0 186 315 260q-336 12 -274 362l90 516q12 4 23 4t20 -4
l-88 -497q-61 -350 266 -351q184 0 332 97l133 751q8 4 20.5 4zM490.5 1305q60.5 0 139.5 -46.5t122 -46.5q76 0 116 93q25 0 33 -13q-55 -119 -156 -118q-55 0 -132.5 46t-120.5 46q-84 -1 -158 -97q-20 4 -29 19q49 63 87 90t98.5 27z" />
    <glyph glyph-name="uni1EF9.ss02" horiz-adv-x="989" 
d="M180 881q0 -264 83 -513t202 -378q391 367 391 846q0 53 -18 110q8 4 20 4h19l8 -2q12 -61 12 -110q0 -373 -248 -705t-737 -539q-14 10 -16 35q315 133 536 330q-135 158 -215 416t-80 528q0 29 4 47h2l19 2l18 -2h4q-4 -25 -4 -69zM431 1305q60 0 139 -46.5t122 -46.5
q76 0 117 93q23 0 33 -13q-55 -119 -156 -118q-55 0 -133 46t-121 46q-84 -1 -158 -97q-20 4 -28 19q49 63 87 90t98 27z" />
    <glyph glyph-name="cent.osf" horiz-adv-x="970" 
d="M164 436q0 -154 77 -243t210 -105l151 870q-190 -16 -314 -157t-124 -365zM651 999q176 0 281 -104q-8 -18 -31 -29q-94 94 -258 95h-4l-150 -877h19q154 0 291 102q20 -12 20 -32q-160 -109 -317 -109h-19l-37 -209q-6 -2 -19 -2t-19 2l36 211q-147 15 -236 113t-89 270
q0 260 143 406t346 161l39 224q7 2 19 2t18 -2l-39 -222h6z" />
    <glyph glyph-name="Euro.osf" horiz-adv-x="1107" 
d="M766 1120q190 0 303 -98q-8 -18 -27 -33q-110 92 -282 92q-172 1 -302 -107t-186 -294h426q2 -20 -6 -39h-430q-20 -88 -22 -180h395q2 -18 -8 -39h-387q4 -180 97 -290t270 -110t300 101q16 -10 15 -35q-146 -106 -330 -106t-287 121q-102 122 -106 319h-142q-2 20 6 39
h136q2 88 22 180h-100q-2 20 6 39h104q57 200 201 320t334 120z" />
    <glyph glyph-name="uni0308.case" 
d="M155.5 1491q-20.5 0 -36 15.5t-15.5 34.5t15.5 34.5t36 15.5t35 -15t14.5 -36t-14.5 -35t-35 -14zM-245.5 1491q-20.5 0 -35 15.5t-14.5 34.5t14.5 34.5t35 15.5t35.5 -15t15 -36t-15 -35t-35.5 -14z" />
    <glyph glyph-name="uni0307.case" 
d="M151.5 1493q-22.5 0 -38 15.5t-15.5 36.5t16.5 37.5t38.5 16.5t37 -16t15 -38t-15.5 -37t-38 -15z" />
    <glyph glyph-name="uni030B.case" 
d="M-41 1374q-16 8 -18 23l264 289q20 -8 28 -31zM-344 1374q-16 8 -18 23l264 289q20 -8 28 -31z" />
    <glyph glyph-name="uni0302.case" 
d="M2 1638l184 -233q-6 -12 -24 -21l-187 215l-264 -217q-16 8 -18 23l268 233q21 6 41 0z" />
    <glyph glyph-name="uni030C.case" 
d="M-70 1389l-184 233q6 12 25 20l186 -215l264 218q16 -8 19 -23l-269 -233q-21 -6 -41 0z" />
    <glyph glyph-name="uni0306.case" 
d="M-25 1430q-94 0 -155.5 56t-61.5 156q14 6 33 7q4 -86 56.5 -133.5t130 -47.5t141 46.5t94.5 132.5q18 0 31 -7q-31 -102 -103 -156t-166 -54z" />
    <glyph glyph-name="uni030A.case" 
d="M-82 1502q0 -126 120 -126q60 0 99 42t39 118q0 115 -115 115q-57 0 -100 -44.5t-43 -104.5zM32 1337q-75 0 -114 42t-39 118t57.5 134.5t130.5 58.5t111.5 -42t38.5 -122t-55 -134.5t-130 -54.5z" />
    <glyph glyph-name="uni0304.case" 
d="M-283 1495q-14 5 7 35h485q10 -18 -6 -35h-486z" />
    <glyph glyph-name="uni0337.case" 
d="M-322 582q-16 8 -12 28l440 215q16 -8 13 -28z" />
    <glyph glyph-name="uni0338.case" 
d="M-961 -80q-18 4 -28 23l985 1452q23 -4 29 -21z" />
    </font>
</defs>
</svg>
