<?xml version="1.0" standalone="no"?>
<!DOCTYPE svg PUBLIC "-//W3C//DTD SVG 1.1//EN" "http://www.w3.org/Graphics/SVG/1.1/DTD/svg11.dtd" >
<svg xmlns="http://www.w3.org/2000/svg">
<metadata>
Created by FontPrep 20130207 at Tue Aug  2 15:13:12 2016
 By Tina Muller
Copyright (c) 2015 by LatinoTypeTeam. All rights reserved.
</metadata>
<defs>
<font id="f6113ebe829954afaa4e26fc54850574" horiz-adv-x='1024' >
  <font-face 
    font-family="Branding-BlackItalic"
    font-weight="900"
    font-style="italic"
    font-stretch="normal"
    units-per-em="2048"
    panose-1="0 0 10 0 0 0 0 0 0 0"
    ascent="1577"
    descent="-471"
    x-height="971"
    cap-height="1325"
    bbox="-1339 -537 2742.05 1874"
    underline-thickness="102"
    underline-position="-102"
    slope="-10"
    unicode-range="U+0020-FB02"
  />
<missing-glyph horiz-adv-x="778" 
d="M381 184l-344 346l344 344l346 -344z" />
    <glyph glyph-name="fi" unicode="fi" horiz-adv-x="1243" 
d="M874 -14q-98 0 -186 14l129 727l-260 2l-127 -729q-84 -14 -181 -14t-190 14l129 729h-108v29q0 96 43 217h115q117 393 528 393q172 0 305 -53q-8 -70 -47 -148t-82 -116q-74 25 -168 24q-139 0 -170 -100h627l-174 -975q-85 -14 -183 -14z" />
    <glyph glyph-name="fl" unicode="fl" horiz-adv-x="1400" 
d="M1034 -33q-172 0 -230 94t-26 279l127 719q-49 6 -119 6t-111 -27q-42 -27 -61 -90h146v-49q0 -119 -53 -252h-148l-115 -647q-80 -14 -180 -14t-188 14l114 647h-114q-2 8 -2 54q0 121 37 212l16 35h119q113 420 626 420q274 0 443 -76l-164 -925q-12 -66 29 -66
q24 1 51 21q102 -92 92 -271q-117 -84 -289 -84z" />
    <glyph glyph-name=".notdef" horiz-adv-x="778" 
d="M381 184l-344 346l344 344l346 -344z" />
    <glyph glyph-name=".null" 
 />
    <glyph glyph-name="nonmarkingreturn" horiz-adv-x="681" 
 />
    <glyph glyph-name="space" unicode=" " horiz-adv-x="372" 
 />
    <glyph glyph-name="exclam" unicode="!" horiz-adv-x="548" 
d="M397 124q0 -80 -57 -138t-138 -58q-80 0 -138 58t-58 138q0 81 57 138t139 57t138 -57q57 -57 57 -138zM250 436q-57 0 -103 15q12 530 68 852q185 81 379 2q-57 -313 -232 -850q-55 -19 -112 -19z" />
    <glyph glyph-name="quotedbl" unicode="&#x22;" horiz-adv-x="724" 
d="M592 870q-23 0 -84 7l24 481q68 20 137 20t136 -20l-146 -479q-44 -9 -67 -9zM252 870q-23 0 -84 7l25 481q68 20 136 20t136 -20l-146 -479q-44 -9 -67 -9z" />
    <glyph glyph-name="numbersign" unicode="#" horiz-adv-x="1277" 
d="M711 475l90 209h-203l-90 -209h203zM1323 1260l-127 -297h88q-18 -158 -121 -279h-88l-88 -209h92q-18 -158 -121 -278h-92l-125 -293q-160 -25 -276 0l127 293h-203l-127 -293q-160 -25 -276 0l127 293h-121q10 170 121 278h118l91 209h-125q10 170 120 279h125l127 297
q141 18 277 0l-127 -297h203l127 297q139 18 274 0z" />
    <glyph glyph-name="dollar" unicode="$" horiz-adv-x="1120" 
d="M457 911q0 -29 60 -51q61 -22 147 -48t172 -62t146 -109q60 -72 60 -172q0 -178 -114 -291t-322 -139l-26 -156q-76 -16 -154 -16t-147 16l28 164q-209 33 -319 125q16 84 64 155t116 107q135 -104 416 -104q131 0 131 71q-1 33 -61 55t-145 41t-171 52t-147 106
q-60 74 -60 183q1 160 105 268t280 145l29 166q161 34 301 0l-29 -157q201 -29 301 -111q-16 -82 -60 -155t-112 -109q-168 86 -368 86q-121 -1 -121 -60z" />
    <glyph glyph-name="percent" unicode="%" horiz-adv-x="1542" 
d="M1102 137q57 0 89 45t32 109q0 117 -99 117q-59 0 -92 -44t-33 -110q1 -117 103 -117zM1440 297q0 -139 -98 -241t-250 -103q-152 0 -230 78t-78 217t98 240q98 102 250 102t230 -77t78 -216zM444 872q59 0 92 44q32 44 31 110q0 117 -98 117q-61 0 -93 -44t-32 -110
q0 -117 100 -117zM435 688q-153 0 -231 78t-77 217q0 139 98 241t251 101q153 0 231 -77q77 -77 77 -216q0 -140 -98 -242t-251 -102zM90 -96l1139 1431q115 20 221 0l-1139 -1431q-110 -14 -221 0z" />
    <glyph glyph-name="ampersand" unicode="&#x26;" horiz-adv-x="1245" 
d="M434 395q0 -45 28 -73t90 -27q62 0 118 16l41 234h-111q-166 -2 -166 -150zM1249 737q0 -100 -57 -192h-156l-78 -436q-174 -139 -481 -140q-113 0 -209 29q-96 28 -170 108t-73 203q0 289 262 391q-102 80 -103 224q0 184 140 305t386 121q244 0 359 -115
q-15 -80 -71 -154t-124 -114q-100 55 -178 55t-116 -33q-39 -33 -39 -92q0 -78 112 -80h584q12 -29 12 -80z" />
    <glyph glyph-name="quotesingle" unicode="'" horiz-adv-x="385" 
d="M252 870q-23 0 -84 7l25 481q68 20 136 20t136 -20l-146 -479q-44 -9 -67 -9z" />
    <glyph glyph-name="parenleft" unicode="(" horiz-adv-x="585" 
d="M332 154q0 -244 63 -478q-33 -42 -118 -70t-138 -24q-115 296 -115 640t112 642q110 298 333 590q133 -14 199 -113q-336 -573 -336 -1187z" />
    <glyph glyph-name="parenright" unicode=")" horiz-adv-x="583" 
d="M543 817q0 -344 -110 -643t-333 -592q-147 8 -211 105q350 580 351 1198q0 233 -66 475q35 41 119 71t137 23q113 -293 113 -637z" />
    <glyph glyph-name="asterisk" unicode="*" horiz-adv-x="811" 
d="M664 1137v-15l167 -69q-16 -143 -149 -209l-119 139l-14 -6l-17 -180q-137 -31 -243 77l96 160l-8 13l-184 -43q-72 123 0 256l188 -46l6 9l-100 163q96 106 245 80l15 -188q12 -4 14 -4l123 141q131 -55 152 -207z" />
    <glyph glyph-name="plus" unicode="+" horiz-adv-x="966" 
d="M909 598q6 -115 -41 -225h-309l-57 -330q-115 -27 -221 0l57 330h-309q-10 109 39 225h311l57 330q117 27 221 0l-57 -330h309z" />
    <glyph glyph-name="comma" unicode="," horiz-adv-x="460" 
d="M47 -365q-43 2 -85 28t-56 58q43 70 62 106q55 105 57 263q0 70 -13 119q62 25 158 23t145 -31q6 -31 7 -74q0 -127 -84 -265t-191 -227z" />
    <glyph glyph-name="hyphen" unicode="-" horiz-adv-x="706" 
d="M74 484q0 64 45 161h489q4 -37 4 -101t-43 -149h-489q-6 25 -6 89z" />
    <glyph glyph-name="period" unicode="." horiz-adv-x="538" 
d="M215 -39q-87 -1 -151 63t-64 153t63 153t151 63q88 0 152 -63q64 -62 64 -152t-64 -154t-151 -63z" />
    <glyph glyph-name="slash" unicode="/" horiz-adv-x="1189" 
d="M21 -389q-69 0 -140 10l1104 1741q77 10 143 10t154 -10l-1104 -1741q-88 -10 -157 -10z" />
    <glyph glyph-name="zero" unicode="0" horiz-adv-x="1320" 
d="M633 285q82 0 139 56t83 143q46 154 46 298q0 246 -166 246q-72 0 -126 -38q-96 -68 -127 -200q-31 -133 -31 -253q0 -252 182 -252zM580 -33q-256 1 -382 149t-126 388t79 432t239 311q161 119 378 119q258 0 385 -154t127 -401q0 -351 -172 -591q-84 -118 -220 -186
t-308 -67z" />
    <glyph glyph-name="one" unicode="1" horiz-adv-x="882" 
d="M738 1360q75 0 151 -14l-240 -1346q-102 -16 -188 -16t-180 16l165 942l-241 -92q-55 47 -83 131t-22 176q60 25 162 68t135 55t93 35t116 34q57 11 132 11z" />
    <glyph glyph-name="two" unicode="2" horiz-adv-x="1163" 
d="M715 909q0 104 -123 105q-102 0 -260 -129q-168 49 -215 233q197 248 520 248q213 0 342 -103t129 -273t-121 -314q-121 -145 -358 -314l-72 -43l82 9l416 2q18 -70 0 -164t-58 -166h-974q-4 29 -5 59q0 164 148 291q393 332 471 409t78 150z" />
    <glyph glyph-name="three" unicode="3" horiz-adv-x="1132" 
d="M1049 507q-1 -142 -53 -251t-140 -171q-179 -126 -410 -126q-172 0 -288 50t-172 114q53 182 184 283q131 -104 283 -105q96 0 152 47q57 47 57 126t-46 118t-151 39h-172q-2 6 -2 18q0 53 49 103l244 258h-424q-12 182 55 321h922q0 -47 -5 -80q-13 -85 -94 -170
l-227 -229q94 -25 166 -114t72 -231z" />
    <glyph glyph-name="four" unicode="4" horiz-adv-x="1191" 
d="M1139 520v-31q0 -139 -47 -296h-166l-35 -193q-88 -16 -169 -16t-175 16l35 193h-570q-55 190 56 391l464 794q178 -6 316 -149l-381 -658q-14 -29 -14 -51h186l53 305q197 31 344 0l-53 -305h156z" />
    <glyph glyph-name="five" unicode="5" horiz-adv-x="1118" 
d="M451 -39q-170 0 -283 42t-166 95q14 80 66 164q51 84 114 131q117 -98 287 -98q94 0 140 41t46 110q0 121 -157 121q-76 0 -222 -25t-176 5l125 784h871q0 -172 -54 -319h-546l-27 -162q68 27 156 27q213 -1 317 -95t105 -262q0 -258 -162 -408t-434 -151z" />
    <glyph glyph-name="six" unicode="6" horiz-adv-x="1157" 
d="M571 268q70 0 119 46t49 130q0 143 -133 144q-90 0 -188 -58q-2 -14 -2 -43q-1 -219 155 -219zM766 868q150 0 240 -92q92 -92 92 -276q0 -244 -162 -391t-395 -147t-362 129q-128 130 -128 339t79 384t214 295q283 251 678 292q35 -41 45 -138t-6 -198
q-420 -33 -565 -262q120 65 270 65z" />
    <glyph glyph-name="seven" unicode="7" horiz-adv-x="1044" 
d="M1133 1333q8 -72 -16 -161t-66 -156l-689 -1065q-184 20 -288 151l579 904h-530q-6 156 57 327h953z" />
    <glyph glyph-name="eight" unicode="8" horiz-adv-x="1185" 
d="M543 231q172 0 172 123q0 57 -71 99q-28 17 -62 35t-88 49q-98 -94 -99 -185q1 -121 148 -121zM682 1098q-74 0 -114 -33t-40 -82q0 -74 134 -133q8 -4 47 -23q106 84 106 174q0 97 -133 97zM1087 432q1 -233 -169 -352t-402 -119t-363 78q-132 78 -133 233
q0 233 252 414q-106 102 -106 248q0 186 141 309t375 123t358 -87q125 -87 125 -228q0 -220 -215 -361q137 -113 137 -258z" />
    <glyph glyph-name="nine" unicode="9" horiz-adv-x="1169" 
d="M606 735q70 0 156 43v25q0 229 -144 231q-68 2 -112 -43t-45 -113q0 -68 37 -106q38 -37 108 -37zM642 1366q240 0 367 -142q126 -142 126 -384q0 -889 -1010 -883q-21 49 -21 132t35 183q227 4 335 35t160 78t83 123q-94 -72 -256 -72t-264 104t-103 294q0 244 154 388
t394 144z" />
    <glyph glyph-name="colon" unicode=":" horiz-adv-x="583" 
d="M221 -51q-91 1 -155 65t-64 154t65 155t155 65t154 -66q64 -64 64 -154t-64 -155q-65 -64 -155 -64zM332 575q-90 0 -155 65t-65 156q0 92 66 156q64 64 154 64t154 -65t65 -155q-1 -90 -65 -156q-64 -65 -154 -65z" />
    <glyph glyph-name="semicolon" unicode=";" horiz-adv-x="563" 
d="M371 127q-1 -127 -85 -265t-190 -227q-43 2 -85 28t-56 58q43 66 63 105q54 106 56 264q0 70 -13 119q63 25 159 23t145 -31q6 -31 6 -74zM315 575q-91 0 -155 65t-64 156q0 92 65 156t155 64t154 -65q65 -65 65 -155t-65 -156q-65 -65 -155 -65z" />
    <glyph glyph-name="less" unicode="&#x3c;" horiz-adv-x="1122" 
d="M31 362q0 174 36 246q3 8 15 39l14 31l932 301q68 -127 35 -313l-676 -154l-108 -27l714 -229q-25 -166 -145 -285l-815 332q-2 11 -2 59z" />
    <glyph glyph-name="equal" unicode="=" horiz-adv-x="1058" 
d="M37 158v26q0 88 41 199h840v-27q0 -88 -39 -198h-842zM989 791v-27q0 -88 -39 -199h-839l-2 27q0 88 41 199h839z" />
    <glyph glyph-name="greater" unicode="&#x3e;" horiz-adv-x="1120" 
d="M1065 618q0 -141 -68 -323l-931 -324q-82 119 -46 285l687 205l108 28l-723 177q35 188 150 313l823 -301v-60z" />
    <glyph glyph-name="question" unicode="?" horiz-adv-x="950" 
d="M388 -72q-81 0 -138 58t-57 138q0 81 57 138t138 57t138 -57q58 -57 58 -138q0 -80 -58 -138t-138 -58zM412 379q-62 0 -117 8q0 106 30 182t72 116q43 40 87 72q104 76 104 169q0 51 -33 80q-33 28 -99 28t-151 -63q-143 76 -147 250q166 127 391 127q176 0 292 -92
t115 -250q0 -113 -42 -195t-103 -130t-123 -87q-155 -96 -172 -205q-42 -10 -104 -10z" />
    <glyph glyph-name="at" unicode="@" horiz-adv-x="1820" 
d="M940 723q-84 -1 -133 -55t-49 -134t30 -118q30 -37 80 -37q49 0 93 27l53 307q-45 10 -74 10zM1001 1362q349 0 557 -173t208 -484t-150 -490q-53 -63 -138 -103q-86 -40 -192 -40t-158 28t-108 97q-102 -72 -249 -72t-235 92t-87 254q0 221 152 366q153 144 377 144
t372 -80h2l-84 -475q-18 -100 71 -100q61 0 105 72q43 72 43 262t-121 317t-386 127t-449 -150q-91 -74 -144 -196t-53 -279q0 -251 123 -371t317 -120q115 0 221 37q27 -35 44 -106t5 -132q-119 -53 -294 -53q-305 0 -503 186t-198 502q0 221 79 402q149 341 517 475
q170 63 356 63z" />
    <glyph glyph-name="A" unicode="A" horiz-adv-x="1261" 
d="M502 502h231l-35 225l-18 127l-59 -127zM58.5 -8q-107.5 0 -175.5 22l699 1301q76 12 186 12t182 -12l228 -1301q-217 -38 -369 -14l-33 211h-426l-110 -211q-74 -8 -181.5 -8z" />
    <glyph glyph-name="B" unicode="B" horiz-adv-x="1167" 
d="M506 248q207 0 207 164q0 106 -144 106h-98l-49 -268q29 -2 84 -2zM770 946q0 98 -131 98q-47 0 -78 -2l-41 -243h78q172 0 172 147zM442 -43q-233 0 -432 43l228 1292q209 43 426 43q477 0 477 -317q0 -262 -254 -354q201 -72 200.5 -267.5t-154 -317.5t-491.5 -122z
" />
    <glyph glyph-name="C" unicode="C" horiz-adv-x="1148" 
d="M625 -33q-268 0 -418 153.5t-150 409.5q0 360 218.5 598t555.5 238q250 0 390 -129q-31 -86 -99.5 -166t-150.5 -123q-74 66 -185 66q-141 0 -231 -121t-90 -309q0 -127 59.5 -199t174 -72t210.5 76q152 -98 154 -299q-170 -123 -438 -123z" />
    <glyph glyph-name="D" unicode="D" horiz-adv-x="1335" 
d="M530 319q176 0 268.5 119t92.5 281q0 281 -252 280q-53 0 -82 -2l-119 -675q31 -3 92 -3zM657 1346q317 0 483.5 -147.5t166.5 -420.5q0 -373 -230.5 -589t-627.5 -216q-262 0 -437 27l168 946h-2l66 365q151 35 413 35z" />
    <glyph glyph-name="E" unicode="E" horiz-adv-x="1069" 
d="M1042 989h-487l-31 -166h437q10 -193 -54 -307h-436l-35 -190h508q10 -199 -57 -326h-875l232 1315h858q16 -183 -60 -326z" />
    <glyph glyph-name="F" unicode="F" horiz-adv-x="1030" 
d="M192.5 -16q-86.5 0 -180.5 16l232 1315h846q4 -117 -7.5 -172.5t-52.5 -159.5h-477l-41 -238h426q6 -104 -6 -166.5t-51 -158.5h-426l-74 -420q-102 -16 -188.5 -16z" />
    <glyph glyph-name="G" unicode="G" horiz-adv-x="1263" 
d="M666 -35q-297 0 -454 149.5t-157 401.5q0 362 218.5 606t562.5 244q279 0 421 -111q-25 -90 -85 -176t-134 -129q-84 63 -237.5 63.5t-245.5 -121.5t-92 -314q0 -266 242 -267q43 0 86 6l51 289q178 33 356 0l-96 -547q-193 -94 -436 -94z" />
    <glyph glyph-name="H" unicode="H" horiz-adv-x="1341" 
d="M1173.5 1325q98.5 0 186.5 -14l-232 -1311q-80 -14 -179 -14t-187 14l84 477h-381l-84 -477q-84 -14 -182.5 -14t-186.5 14l230 1311q84 14 182 14t186 -14l-86 -496h381l86 496q84 14 182.5 14z" />
    <glyph glyph-name="I" unicode="I" horiz-adv-x="591" 
d="M200 -14q-99 0 -188 14l230 1311q84 14 182 14t186 -14l-231 -1311q-80 -14 -179 -14z" />
    <glyph glyph-name="J" unicode="J" horiz-adv-x="825" 
d="M200 -66q-204 0 -278 82q0 82 40 173.5t99 138.5q57 -47 147.5 -47t110.5 104l164 926q84 14 182.5 14t186.5 -14l-172 -979q-33 -188 -154.5 -293t-325.5 -105z" />
    <glyph glyph-name="K" unicode="K" horiz-adv-x="1286" 
d="M198.5 -14q-98.5 0 -186.5 14l232 1311q80 14 179 14t187 -14l-80 -461q229 176 443 469q88 6 207 6t221 -12q-266 -371 -598 -643q131 -250 475 -652q-111 -27 -252 -26.5t-207 8.5q-182 211 -307 453q-18 -12 -59 -37l-72 -416q-84 -14 -182.5 -14z" />
    <glyph glyph-name="L" unicode="L" horiz-adv-x="976" 
d="M899 332q0 -203 -59 -332h-828l232 1315q102 16 188 16t180 -16l-174 -983h461z" />
    <glyph glyph-name="M" unicode="M" horiz-adv-x="1587" 
d="M1420 1325q99 0 186 -14l-232 -1311q-86 -14 -166 -14t-168 14l95 545l43 198l-91 -196l-215 -438q-157 -22 -303 0l-73 438l-25 194l-27 -196l-94 -545q-86 -14 -168 -14t-170 14l232 1311q82 14 185.5 14t203.5 -14l137 -758l8 -88l33 88l393 758q117 14 216 14z" />
    <glyph glyph-name="N" unicode="N" horiz-adv-x="1363" 
d="M1203 1325q91 0 179 -14l-229 -1307q-176 -31 -362 -16l-265 655l-28 76l-11 -111l-106 -608q-115 -14 -180 -14t-189 14l230 1305q154 41 362 18l287 -760l10 113l113 635q98 14 189 14z" />
    <glyph glyph-name="O" unicode="O" horiz-adv-x="1415" 
d="M684 309q141 0 219 119t78 315q0 268 -215 269q-141 0 -220 -118t-79 -316q0 -269 217 -269zM643 -39q-268 0 -425 150.5t-157 423.5q0 375 209 600t537 225q268 0 423.5 -149.5t155.5 -422.5q0 -375 -207.5 -601t-535.5 -226z" />
    <glyph glyph-name="P" unicode="P" horiz-adv-x="1191" 
d="M594 682q125 0 184.5 64.5t59.5 156.5q0 143 -181 144q-61 0 -92 -3l-63 -362h92zM692 1354q528 0 529 -387q0 -287 -190.5 -444.5t-491.5 -157.5h-95l-63 -365q-84 -14 -182.5 -14t-186.5 14l176 995h-4l60 316q219 43 448 43z" />
    <glyph glyph-name="Q" unicode="Q" horiz-adv-x="1415" 
d="M467 578q0 -268 217 -269q141 0 219 119t78 315q0 268 -215 269q-141 0 -220 -117.5t-79 -316.5zM61 535q0 375 209 600t537 225q268 0 423.5 -149.5t155.5 -407t-90 -441.5t-252 -288q158 -94 236 -289q-102 -129 -324 -133q-106 309 -333 309q-258 6 -410 156.5
t-152 417.5z" />
    <glyph glyph-name="R" unicode="R" horiz-adv-x="1228" 
d="M623 725q92 0 139 46t47 128q0 131 -147 131q-68 0 -103 -2l-53 -303h117zM1194 981q0 -180 -89 -308t-247 -192q160 -293 301 -467q-104 -29 -317 -28q-53 0 -76 2q-160 229 -250 438h-61l-76 -426q-84 -14 -182.5 -14t-186.5 14l228 1294q219 43 452 43q504 0 504 -356
z" />
    <glyph glyph-name="S" unicode="S" horiz-adv-x="1132" 
d="M483 -33q-354 0 -520 158q20 96 76.5 177t132.5 120q57 -51 154.5 -84t193.5 -33t128 19.5t32 56.5t-40 59.5t-100.5 37t-130 43t-130 65.5t-100.5 112.5t-40 180.5q0 209 160 340t420 131q164 0 282.5 -42t172.5 -96q-20 -90 -75 -169.5t-132 -122.5q-121 86 -291 86
t-170 -66q0 -52 138 -83t266 -111q62 -38 101.5 -116.5t39.5 -183.5q0 -213 -157 -346t-411 -133z" />
    <glyph glyph-name="T" unicode="T" horiz-adv-x="1105" 
d="M1198 1315q0 -195 -57 -326h-330l-174 -989q-102 -16 -188 -16t-181 16l174 989h-329q0 195 57 326h1028z" />
    <glyph glyph-name="U" unicode="U" horiz-adv-x="1320" 
d="M588 -39q-251 0 -380.5 108.5t-129.5 317.5q0 72 14 143l137 781q84 14 181.5 14t185.5 -14l-135 -772q-6 -37 -6 -66q0 -84 44 -129t128 -45t146.5 61.5t82.5 178.5l135 772q84 14 179 14t184 -14l-135 -766q-47 -279 -213.5 -431.5t-417.5 -152.5z" />
    <glyph glyph-name="V" unicode="V" horiz-adv-x="1253" 
d="M1073 1327q225 0 291 -24q-176 -655 -657 -1299q-74 -14 -189 -14t-203 14q-174 639 -188 1299q189 33 410 20q-4 -510 57 -979q281 502 391 979q41 4 88 4z" />
    <glyph glyph-name="W" unicode="W" horiz-adv-x="1947" 
d="M490 -10q-120 0 -216 14q-147 573 -131 1299q196 34 412 20q-41 -528 8 -997q258 535 344 952q104 16 192.5 16t186.5 -16q0 -551 45 -952q215 451 350 997q37 4 84 4q225 0 291 -24q-287 -866 -586 -1299q-82 -14 -195.5 -14t-201.5 14q-57 260 -57 649v62
q-8 -24 -8 -33q-82 -328 -324 -678q-74 -14 -194 -14z" />
    <glyph glyph-name="X" unicode="X" horiz-adv-x="1263" 
d="M936 -14q-100 0 -186 12l-156 387l-283 -387q-90 -12 -204.5 -12t-217.5 20l517 658l-279 643q230 39 451 14l139 -393l252 393q160 24 415 -12l-487 -654l289 -649q-150 -20 -250 -20z" />
    <glyph glyph-name="Y" unicode="Y" horiz-adv-x="1249" 
d="M524.5 -14q-98.5 0 -186.5 14l88 494l-320 813q220 39 441 14l135 -479l70 112l247 367q159 25 398 -12l-606 -836l-84 -473q-84 -14 -182.5 -14z" />
    <glyph glyph-name="Z" unicode="Z" horiz-adv-x="1171" 
d="M1077 330q0 -166 -57 -330h-1053q-4 16 -4 45q0 102 107 234l516 643l57 65l-508 -2q-8 147 58 330h1026q2 -8 2 -43q-1 -105 -105 -236l-502 -626l-79 -80h542z" />
    <glyph glyph-name="bracketleft" unicode="[" horiz-adv-x="647" 
d="M711 1200h-193l-239 -1364h190q6 -125 -43 -250h-477l330 1864h475q8 -37 -8 -125t-35 -125z" />
    <glyph glyph-name="backslash" unicode="\" horiz-adv-x="1173" 
d="M828 -389q-66 0 -154 10l-498 1741q92 10 159 10t138 -10l498 -1741q-77 -10 -143 -10z" />
    <glyph glyph-name="bracketright" unicode="]" horiz-adv-x="647" 
d="M205 1450h475l-328 -1864h-477q-8 37 8 125t37 125h191l239 1364h-190q-6 119 45 250z" />
    <glyph glyph-name="asciicircum" unicode="^" horiz-adv-x="1263" 
d="M346 561q-154 43 -254 164l531 702q166 23 331 0l297 -743q-160 -86 -327 -119l-197 498z" />
    <glyph glyph-name="underscore" unicode="_" horiz-adv-x="866" 
d="M-135 -196q0 60 47 147h827q2 -15 2 -77t-41 -153h-827q-8 23 -8 83z" />
    <glyph glyph-name="grave" unicode="`" horiz-adv-x="661" 
d="M702 1051l-452 235q55 182 207 260l348 -364q-35 -86 -103 -131z" />
    <glyph glyph-name="a" unicode="a" horiz-adv-x="1134" 
d="M395 410q0 -137 123 -138q76 0 121 62l61 348q-33 8 -79 8q-94 0 -160 -71.5t-66 -208.5zM662.5 1004q269.5 0 449.5 -99l-164 -915q-121 -25 -239 0l-25 92q-131 -119 -303 -119t-267.5 106.5t-95.5 292.5q0 291 187.5 466.5t457 175.5z" />
    <glyph glyph-name="b" unicode="b" horiz-adv-x="1140" 
d="M492 270q100 0 160.5 73t60.5 166q0 183 -150 183q-51 0 -92 -10l-70 -401q44 -11 91 -11zM639 1004q205 0 328 -106.5t123 -307.5q0 -285 -185.5 -456t-498.5 -171q-256 0 -412 88l225 1288q191 31 369 0l-62 -346q58 11 113 11z" />
    <glyph glyph-name="c" unicode="c" horiz-adv-x="927" 
d="M476 -37q-216 0 -334.5 109.5t-118.5 306.5q0 285 163.5 458t413.5 173q111 0 197 -33t129 -80q-20 -70 -74.5 -137.5t-120.5 -104.5q-53 49 -138 49.5t-140.5 -73.5t-55.5 -199q0 -168 140 -168q80 0 149 68q141 -61 162 -232q-156 -137 -372 -137z" />
    <glyph glyph-name="d" unicode="d" horiz-adv-x="1140" 
d="M395 468.5q0 -97.5 46 -148t128 -50.5q33 0 66 6l72 408q-37 10 -80 10q-96 0 -164 -64t-68 -161.5zM1009.5 1354q98.5 0 182.5 -15l-227 -1288q-190 -88 -442.5 -88t-377.5 111.5t-125 318.5q0 279 185.5 445t449.5 166q66 0 107 -9l61 344q88 15 186.5 15z" />
    <glyph glyph-name="e" unicode="e" horiz-adv-x="1064" 
d="M569 739q-117 0 -153 -157q51 -10 139 -17q104 0 104 92q0 35 -22.5 58.5t-67.5 23.5zM527.5 -37q-254.5 0 -378.5 111.5t-124 322.5q0 262 158.5 434.5t408.5 172.5q201 0 311.5 -87.5t110.5 -230.5q0 -90 -39 -155.5t-103 -99.5q-120 -64 -274 -64q-94 0 -201 22
q2 -86 42 -122t149.5 -35.5t242.5 96.5q125 -82 121 -230q-170 -135 -424.5 -135z" />
    <glyph glyph-name="f" unicode="f" horiz-adv-x="763" 
d="M737 1368q137 0 250 -51q-12 -74 -53 -153t-82 -115q-43 25 -113 24q-106 0 -125 -117l-2 -6h183q6 -154 -52 -301h-182l-115 -649q-84 -14 -183 -14t-187 14l114 649h-114q-14 178 53 301h117q45 213 159.5 315.5t331.5 102.5z" />
    <glyph glyph-name="g" unicode="g" horiz-adv-x="1128" 
d="M561 305q37 0 70 6l67 385q-37 12 -84 13q-82 0 -147.5 -65.5t-65.5 -170.5q0 -168 160 -168zM670.5 1010q269.5 0 433.5 -107l-146 -829q-45 -254 -207.5 -374t-394.5 -120q-324 0 -452 189q20 76 82.5 139t148.5 90q88 -133 253 -133t187 131l5 29q-57 -10 -123 -11
q-190 0 -310 107.5t-120 294.5q0 283 187 438.5t456.5 155.5z" />
    <glyph glyph-name="h" unicode="h" horiz-adv-x="1120" 
d="M690 1010q201 0 298 -105.5t67 -275.5l-111 -629q-88 -14 -186.5 -14t-182.5 14l97 541q25 139 -88 139q-61 0 -111 -31l-4 2l-115 -651q-84 -14 -182 -14t-186 14l235 1339q85 15 189 15t180 -15l-62 -354q74 25 162 25z" />
    <glyph glyph-name="i" unicode="i" horiz-adv-x="538" 
d="M170 -14q-98 0 -186 14l174 975q84 14 182 14t184 -14l-172 -975q-84 -14 -182 -14zM395 1081q-88 0 -149.5 62.5t-61.5 150.5t61.5 149.5t149.5 61.5t149.5 -61.5t61.5 -149.5t-61.5 -150.5t-149.5 -62.5z" />
    <glyph glyph-name="j" unicode="j" horiz-adv-x="559" 
d="M-68 -410q-162 0 -251 76q0 72 40.5 146.5t98.5 111.5q31 -31 86 -30q78 0 98 114l170 967q84 14 181 14t190 -14l-168 -948q-39 -223 -138.5 -330t-306.5 -107zM403.5 1081q-88.5 0 -149.5 62.5t-61 150.5t61 149.5t149.5 61.5t149.5 -61.5t61 -149.5t-61 -150.5
t-149.5 -62.5z" />
    <glyph glyph-name="k" unicode="k" horiz-adv-x="1177" 
d="M1122 715q0 -233 -207 -377l144 -322q-90 -29 -233.5 -28.5t-192.5 6.5l-117 289q-23 57 -10 110q115 8 175 54.5t60 121.5q0 115 -159 115q-49 0 -111 -14l-119 -670q-84 -14 -181 -14t-185 14l235 1339q187 31 369 0l-62 -348q92 16 181 17q195 0 304 -76t109 -217z
" />
    <glyph glyph-name="l" unicode="l" horiz-adv-x="643" 
d="M299 -33q-274 0 -274 221q0 70 14 152l176 999q208 31 369 0l-172 -972q-4 -20 -4 -35q0 -31 32 -31q14 0 27 12q104 -94 94 -276q-104 -70 -262 -70z" />
    <glyph glyph-name="m" unicode="m" horiz-adv-x="1718" 
d="M1281.5 1012q181.5 0 278.5 -81t97 -226q0 -51 -8 -95l-107 -608q-88 -16 -189 -16t-182 16l97 541q4 29 4 43q0 96 -105 96q-51 0 -106 -20q0 -27 -6 -54l-107 -608q-92 -14 -189 -14t-181 14l96 541q4 33 4 43q0 96 -105 96q-59 0 -104 -16l-115 -664q-88 -14 -186 -14
t-182 14l157 903q70 37 211.5 72t317.5 35t276 -68q152 70 333.5 70z" />
    <glyph glyph-name="n" unicode="n" horiz-adv-x="1120" 
d="M639 1010q211 0 315.5 -85t104.5 -239q0 -43 -10 -100l-103 -586q-92 -14 -190 -14t-178 14l94 539q4 29 4 49q0 92 -101 92q-53 0 -106 -14l-117 -666q-88 -14 -186 -14t-182 14l159 903q207 107 496 107z" />
    <glyph glyph-name="o" unicode="o" horiz-adv-x="1122" 
d="M524 266q86 0 129 80t43 199q0 162 -125 162q-82 0 -127 -79t-49 -194q0 -168 129 -168zM500 -39q-221 0 -347 114.5t-126 323.5q0 276 154.5 444.5t394.5 168.5t364.5 -116t124.5 -325q0 -276 -152.5 -443t-412.5 -167z" />
    <glyph glyph-name="p" unicode="p" horiz-adv-x="1142" 
d="M515 279q79 0 137.5 65.5t58.5 158.5q0 179 -162 179q-35 0 -80 -10l-68 -385q35 -8 114 -8zM584.5 1004q236.5 0 369.5 -110t133 -325q0 -279 -157.5 -443.5t-429.5 -164.5q-90 0 -154 14l-61 -350q-86 -14 -185.5 -14t-183.5 14l227 1278q205 101 441.5 101z" />
    <glyph glyph-name="q" unicode="q" horiz-adv-x="1140" 
d="M543.5 279q60.5 0 95.5 8l68 389q-39 12 -82 12q-96 0 -162 -61.5t-66 -158.5t43 -143t103.5 -46zM704.5 -389q-98.5 0 -182.5 14l62 344q-49 -6 -109 -6q-201 0 -328 108.5t-127 311.5q0 152 55.5 273.5t148.5 195.5q191 152 466 152t426 -101l-225 -1278
q-88 -14 -186.5 -14z" />
    <glyph glyph-name="r" unicode="r" horiz-adv-x="731" 
d="M513.5 1014q203.5 0 274.5 -41q-16 -180 -129 -305q-35 14 -91 14t-101 -27l-115 -655q-88 -14 -186 -14t-182 14l159 903q167 111 370.5 111z" />
    <glyph glyph-name="s" unicode="s" horiz-adv-x="978" 
d="M360 -39q-141 0 -250.5 38t-160.5 89q49 168 170 242q137 -100 287 -101q102 0 102 47q0 27 -44 46.5t-106.5 37t-124 45t-105.5 89t-44 151.5q6 170 148.5 264.5t336.5 94.5q266 0 412 -97q-51 -178 -160 -250q-45 29 -127 52.5t-158 23.5t-77 -47q0 -23 44 -38
t106.5 -31.5t125 -43t106.5 -90t44 -155.5q0 -166 -132.5 -266.5t-392.5 -100.5z" />
    <glyph glyph-name="t" unicode="t" horiz-adv-x="915" 
d="M39 653q0 148 53 303h172l45 254q208 31 369 0l-45 -254h274l2 -49q0 -102 -55 -254h-274l-45 -256q-6 -23 -7 -51q0 -68 76 -67q49 0 105 40q53 -33 90 -101t37 -140q-143 -111 -365 -111q-147 0 -235.5 66.5t-88.5 212.5q0 49 9 96l55 311h-172z" />
    <glyph glyph-name="u" unicode="u" horiz-adv-x="1114" 
d="M918 977q98 0 182 -14l-160 -912q-55 -29 -195.5 -58.5t-326 -29.5t-284.5 82t-99 246q0 59 12 131l96 541q88 14 186.5 14t184.5 -14l-94 -531q-8 -46 -8 -78q0 -76 112 -75q41 0 88 10l119 674q89 14 187 14z" />
    <glyph glyph-name="v" unicode="v" horiz-adv-x="1075" 
d="M1071 866q0 -231 -132 -456.5t-339 -409.5q-98 -16 -207.5 -16t-191.5 16q-125 436 -127 952q111 29 222 29t185 -8q-25 -334 -2 -621q2 -27 2 -80l31 60q86 145 128 268t42 279q0 47 -10 92q78 14 186.5 14.5t202.5 -22.5q10 -27 10 -97z" />
    <glyph glyph-name="w" unicode="w" horiz-adv-x="1675" 
d="M1669 866q0 -227 -123 -455.5t-317 -410.5q-96 -16 -194.5 -16t-164.5 16q-61 133 -98 254q-94 -135 -205 -254q-84 -16 -176 -16t-158 16q-90 231 -123.5 448.5t-37.5 503.5q111 29 222 29t185 -8q-20 -358 10 -621q0 -6 3.5 -35.5t5.5 -46.5q2 4 39.5 70.5t87 216.5
t57.5 295q-2 33 -2 100q111 29 222 29t185 -8q-25 -393 0 -621q6 -68 7 -82q12 27 48.5 89.5t87 216t50.5 303.5q0 70 -8 94q47 8 161.5 8t225.5 -18q10 -16 10 -97z" />
    <glyph glyph-name="x" unicode="x" horiz-adv-x="1099" 
d="M818 -12q-159 0 -224 8l-115 229l-176 -229q-82 -10 -209 -8t-196 16l434 492l-264 454q80 33 297 33q70 0 114 -6l115 -236l176 236q94 10 221 1.5t172 -28.5l-422 -485l269 -461q-33 -16 -192 -16z" />
    <glyph glyph-name="y" unicode="y" horiz-adv-x="1122" 
d="M920 977q98 0 184 -14l-166 -963q-37 -207 -189.5 -313.5t-392.5 -106.5q-162 0 -285.5 50.5t-181.5 117.5q51 160 191 229q117 -117 289 -116.5t198 166.5l8 45q-78 -20 -135 -21q-240 0 -330 109.5t-51 322.5l86 480q88 14 186.5 14t182.5 -14l-78 -443
q-14 -82 6.5 -117.5t88 -35.5t100.5 24l102 572q89 14 187 14z" />
    <glyph glyph-name="z" unicode="z" horiz-adv-x="980" 
d="M617 252q81 0 186 57q100 -113 100 -276q-172 -68 -333.5 -68t-297.5 70l-51 -58q-248 0 -248 136q0 57 41 100l357 391l80 74h-367q-29 139 51 293h803q2 -8 2 -37q0 -139 -76 -223l-387 -441q59 -18 140 -18z" />
    <glyph glyph-name="braceleft" unicode="{" horiz-adv-x="745" 
d="M743 1200q-123 0 -135 -80l-65 -377q-27 -150 -170 -225q115 -76 90 -225l-68 -377q-8 -41 18 -60t89 -20h67q2 -125 -43 -250h-204q-143 0 -196 92q-52 92 -26 238l60 336q20 125 -101 125h-67q-6 37 -6 89t18 116t41 98h111q78 0 98 104l59 336q25 146 110 238t226 92
h205q2 -125 -43 -250h-68z" />
    <glyph glyph-name="bar" unicode="|" horiz-adv-x="466" 
d="M-47 -381l326 1843q125 35 225 0l-326 -1843q-50 -20 -114 -19t-111 19z" />
    <glyph glyph-name="braceright" unicode="}" horiz-adv-x="749" 
d="M621 377q-123 0 -144 -125l-59 -336q-27 -146 -112 -238t-226 -92h-205q-2 125 43 250h70q121 0 135 80l65 377q23 147 168 225q-115 76 -88 225l68 377q6 40 -20 60t-89 20h-67q-4 127 45 250h203q141 0 194 -92t29 -238l-60 -336q-18 -104 60 -104h110q9 -18 9 -102
t-62 -201h-67z" />
    <glyph glyph-name="asciitilde" unicode="~" horiz-adv-x="1099" 
d="M372 666q96 0 187 -38q90 -38 122 -38q31 0 63 24t49 62q154 0 241 -84q-41 -127 -138 -202q-98 -75 -192 -75t-186 37t-121 37q-68 0 -121 -98q-59 0 -130 20t-113 64q49 137 146 214t193 77z" />
    <glyph glyph-name="uni00A0" unicode="&#xa0;" horiz-adv-x="372" 
 />
    <glyph glyph-name="exclamdown" unicode="&#xa1;" horiz-adv-x="536" 
d="M117 -350q-102 0 -189 39q55 319 232 848q55 18 106 18t109 -14q-16 -553 -70 -852q-86 -39 -188 -39zM308 670q-81 0 -138 56t-57 138t57 140t138 57q81 0 138 -57q58 -58 58 -140t-58 -138t-138 -56z" />
    <glyph glyph-name="cent" unicode="&#xa2;" horiz-adv-x="1003" 
d="M687 1341q79 0 144 -16l-36 -207q121 -29 178 -90q-19 -68 -75 -134t-120 -101q-51 47 -139 47t-145 -72t-58 -193q0 -164 148 -163q77 -1 149 65q145 -59 162 -223q-123 -104 -274 -127l-33 -186q-156 -35 -301 0l37 206q-262 88 -263 377q0 231 119 389t314 205l36 207
q78 16 157 16z" />
    <glyph glyph-name="sterling" unicode="&#xa3;" horiz-adv-x="1163" 
d="M1049 340q0 -170 -60 -340h-969q0 124 82 256t109 268h-139q-18 121 34 242h130q2 29 2 88q0 222 135 368t370 146q173 0 277 -57t176 -162q-76 -145 -248 -213q-51 76 -168 76q-80 0 -137 -52t-57 -147v-47h221q20 -123 -35 -242h-197q-13 -81 -27 -115t-16 -40
q-2 -7 -5 -15t-5 -14h527z" />
    <glyph glyph-name="currency" unicode="&#xa4;" horiz-adv-x="1361" 
d="M535 638q1 -87 41 -129t113 -42t120 51q47 52 47 138t-41 128t-111 41q-70 0 -119 -50q-50 -50 -50 -137zM674 117q-116 0 -199 30l-119 -122q-162 80 -237 223l106 112q-49 98 -49 240t72 272l-121 117q33 66 95 129t136 105l117 -117q123 70 241 70t206 -31l106 110
q164 -84 238 -223l-99 -104q47 -98 47 -238t-71 -272l119 -117q-68 -143 -230 -231l-119 114q-123 -67 -239 -67z" />
    <glyph glyph-name="yen" unicode="&#xa5;" horiz-adv-x="1382" 
d="M1130 653v-18q0 -61 -26 -131h-244l-18 -107h243v-18q0 -61 -26 -131h-244l-43 -248q-80 -14 -179 -14t-187 14l43 248h-242v20q0 55 26 129h242l19 107h-242v20q0 55 27 129h190l-303 654q220 39 440 14l123 -326l33 -102l69 102l238 326q162 26 399 -12l-518 -656h180z
" />
    <glyph glyph-name="brokenbar" unicode="&#xa6;" horiz-adv-x="464" 
d="M-49 -381l133 746q119 33 225 0l-131 -746q-48 -20 -114 -19t-113 19zM137 678l139 786q119 33 226 0l-137 -786q-49 -20 -115 -19t-113 19z" />
    <glyph glyph-name="section" unicode="&#xa7;" horiz-adv-x="1249" 
d="M506 -293q-309 0 -467 187q29 96 101 168t169 100q84 -111 221 -111q106 0 185 74q78 74 78 181t-74 196l-131 155q88 158 254 220l153 -177q147 -158 147 -400t-182 -417q-182 -176 -454 -176zM752 1380q290 0 450 -186q-30 -96 -102 -168t-170 -100q-84 111 -221 110
q-106 0 -184 -73q-77 -73 -77 -183t74 -194l131 -156q-92 -158 -254 -219l-153 176q-148 153 -148 397t182 420t472 176z" />
    <glyph glyph-name="dieresis" unicode="&#xa8;" horiz-adv-x="899" 
d="M915.5 1108q-71.5 0 -123 51t-51.5 123t51.5 123t123 51t123 -51t51.5 -123t-51.5 -123t-123 -51zM436.5 1108q-71.5 0 -123 51t-51.5 123t51.5 123t123 51t122.5 -51t51 -123t-51 -123t-122.5 -51z" />
    <glyph glyph-name="copyright" unicode="&#xa9;" horiz-adv-x="1548" 
d="M758 217q-168 0 -275 97q-106 97 -106 268q0 215 137 348t340 133q86 0 161 -29t105 -63q-41 -117 -159 -187q-41 50 -123 50t-136 -60t-53 -166q0 -170 154 -170q59 0 145 56q88 -53 99 -191q-121 -86 -289 -86zM766 78q223 0 377 168t153 444q0 224 -134 360t-358 136
t-378 -168t-154 -445q0 -223 136 -359t358 -136zM1499 719q0 -365 -219 -599q-218 -234 -534 -235q-316 1 -495 183t-179 475q0 365 220 601t536 234q316 0 494 -183q177 -183 177 -476z" />
    <glyph glyph-name="ordfeminine" unicode="&#xaa;" horiz-adv-x="788" 
d="M385 899q0 -49 57 -49q27 0 52 8l18 105q-20 6 -49 6q-78 0 -78 -70zM539 1382q315 0 264 -299l-58 -329h-6q-182 -63 -364 -64q-266 0 -266 178q0 120 91 182t238 58q55 0 99 -12l2 16q5 31 -13 51q-18 21 -94 21t-164 -56q-72 49 -69 156q45 34 136 66t204 32z" />
    <glyph glyph-name="guillemotleft" unicode="&#xab;" horiz-adv-x="962" 
d="M686 133l-262 383l364 383q106 -14 146 -82l-193 -297l88 -307q-53 -68 -143 -80zM299 133l-262 383l364 383q106 -14 146 -82l-193 -297l88 -307q-53 -68 -143 -80z" />
    <glyph glyph-name="registered" unicode="&#xae;" horiz-adv-x="1548" 
d="M858 1079q-35 0 -104 -4l-29 -160q43 -4 125 -4q109 0 108 95q0 73 -100 73zM546 432q-68 0 -114 4q138 -147 366 -147t382 168t153 444q0 223 -134 359t-358 137q-224 0 -378 -168t-154 -445q0 -201 111 -333l139 792q143 29 311 29q313 0 314 -242q0 -213 -195 -285
l119 -303q-57 -10 -125 -10t-94 2l-111 283l-88 4l-49 -283q-27 -6 -95 -6zM866 1589q316 0 493 -183t177 -476q0 -365 -219 -599q-219 -235 -535 -235t-494 182q-179 182 -179 476q0 365 220 600q221 235 537 235z" />
    <glyph glyph-name="macron" unicode="&#xaf;" horiz-adv-x="782" 
d="M242 1214q0 100 53 205h670v-53q0 -104 -50 -217h-667q-6 25 -6 65z" />
    <glyph glyph-name="degree" unicode="&#xb0;" horiz-adv-x="716" 
d="M455 1014q47 0 81 33t34 79t-34 81q-34 34 -81 34t-81 -34t-34 -81q0 -48 34 -80t81 -32zM455 813q-131 0 -224 92q-92 92 -92 222q0 131 92 223q91 92 223 92t223 -92t91 -222t-91 -223q-91 -92 -222 -92z" />
    <glyph glyph-name="plusminus" unicode="&#xb1;" horiz-adv-x="1015" 
d="M10 135h842q6 -111 -39 -225h-842q-6 114 39 225zM958 741q6 -113 -38 -225h-310l-47 -268q-117 -27 -221 0l47 268h-311q-6 117 41 225h309l47 269q117 27 221 0l-47 -269h309z" />
    <glyph glyph-name="acute" unicode="&#xb4;" horiz-adv-x="665" 
d="M322 1051q-74 47 -93 129l381 374q147 -84 197 -264z" />
    <glyph glyph-name="paragraph" unicode="&#xb6;" horiz-adv-x="1300" 
d="M457 270q84 0 161 -16l-114 -641q-62 -21 -164 -21t-166 21l113 641q86 16 170 16zM655 682q125 0 193 2l63 354q-81 8 -195 8t-175 -54q-61 -56 -62 -140q0 -170 176 -170zM795 1354q283 0 489 -43l-299 -1698q-84 -14 -170 -14t-156 14l134 754q-68 -2 -193 -2
q-231 0 -367 111q-135 112 -135 325q0 257 180 405t517 148z" />
    <glyph glyph-name="periodcentered" unicode="&#xb7;" horiz-adv-x="489" 
d="M264 514q-76 0 -130 54t-54 132t54 131t130 53t130 -52q54 -54 54 -132t-54 -132t-130 -54z" />
    <glyph glyph-name="cedilla" unicode="&#xb8;" horiz-adv-x="522" 
d="M127 -477q-68 0 -131.5 18.5t-87.5 44.5q12 102 98 162q35 -29 77 -29q87 0 87 70q0 55 -113 59l93 175h188l-49 -97q156 -27 155 -145q0 -133 -96 -195.5t-221 -62.5z" />
    <glyph glyph-name="ordmasculine" unicode="&#xba;" horiz-adv-x="817" 
d="M475 899q47 0 76 51t29 137t-74 87q-51 0 -79 -50t-28 -127q0 -98 76 -98zM456 690q-162 0 -248 77q-85 77 -85 212q0 186 121 296q120 109 282 109t246 -76t84 -212q0 -190 -119 -298t-281 -108z" />
    <glyph glyph-name="guillemotright" unicode="&#xbb;" horiz-adv-x="966" 
d="M549 133q-111 14 -150 82l193 297l-88 307q53 68 143 80l262 -381zM162 133q-111 14 -150 82l193 297l-88 307q53 68 143 80l262 -381z" />
    <glyph glyph-name="onequarter" unicode="&#xbc;" horiz-adv-x="1636" 
d="M1532 309q0 -114 -41 -219h-82l-16 -96q-68 -10 -124 -10t-124 10l16 96h-360q-51 96 33 238l299 501q129 -2 225 -75l-225 -406q-10 -16 -15 -39h82l25 146q59 8 129 8t121 -8l-27 -146h84zM362 1077l-165 -57q-59 86 -37 205q193 74 292 103t212 5l-140 -796
q-150 -19 -258 0zM1260 1403q131 18 262 0l-1188 -1499q-147 -25 -262 0z" />
    <glyph glyph-name="onehalf" unicode="&#xbd;" horiz-adv-x="1640" 
d="M866 35q0 96 86 172q51 45 171 143t136 128q15 30 15 50q0 50 -52 50t-122 -80q-123 29 -170 131q131 178 346 178q127 0 206 -59q79 -60 79 -162t-67 -186t-191 -169l-52 -24l72 8h199q18 -96 -37 -215h-617q-2 8 -2 35zM362 1077l-165 -57q-59 86 -37 205
q193 74 292 103t212 5l-140 -796q-150 -19 -258 0zM1245 1403q131 18 262 0l-1188 -1499q-147 -25 -262 0z" />
    <glyph glyph-name="threequarters" unicode="&#xbe;" horiz-adv-x="1703" 
d="M1352 -16q-55 0 -127 10l16 96h-358q-51 96 32 238l299 501q131 -2 228 -59l-223 -422q-12 -25 -15 -39h76l27 146q59 8 129 8t118 -8l-24 -146h84q-10 -126 -41 -219h-82l-16 -96q-68 -10 -123 -10zM752 850q0 -172 -117 -261t-291 -89t-264 104q43 121 139 176
q70 -61 152 -61q47 -1 78 25t30 71q0 82 -98 82h-86q-2 2 -2 14q0 39 33 66l114 139h-268q-4 129 39 215h602q-8 -94 -68 -151l-135 -146q54 -12 98 -58t44 -126zM1348 1403q131 18 262 0l-1188 -1499q-147 -25 -262 0z" />
    <glyph glyph-name="questiondown" unicode="&#xbf;" horiz-adv-x="942" 
d="M369 -356q-176 0 -292 90t-116 250q0 114 41 196t102 130q62 48 124 87q155 97 175 205q61 10 123 10t117 -8q0 -102 -33 -176t-78 -115t-91 -73q-113 -80 -111 -168q0 -115 125 -115q80 0 157 63q143 -80 150 -249q-162 -127 -393 -127zM536 670q-81 0 -139 56
q-57 56 -57 138t57 140t139 57q82 0 138 -57q57 -58 57 -140t-57 -138t-138 -56z" />
    <glyph glyph-name="Agrave" unicode="&#xc0;" horiz-adv-x="1261" 
d="M502 502h231l-35 225l-18 127l-59 -127zM58.5 -8q-107.5 0 -175.5 22l699 1301q76 12 186 12t182 -12l228 -1301q-217 -38 -369 -14l-33 211h-426l-110 -211q-74 -8 -181.5 -8zM1094 1530q-20 -94 -88 -158l-514 193q39 201 184 284z" />
    <glyph glyph-name="Aacute" unicode="&#xc1;" horiz-adv-x="1261" 
d="M502 502h231l-35 225l-18 127l-59 -127zM58.5 -8q-107.5 0 -175.5 22l699 1301q76 12 186 12t182 -12l228 -1301q-217 -38 -369 -14l-33 211h-426l-110 -211q-74 -8 -181.5 -8zM1096 1559l-527 -193q-66 66 -84 158l461 327q138 -108 150 -292z" />
    <glyph glyph-name="Acircumflex" unicode="&#xc2;" horiz-adv-x="1261" 
d="M502 502h231l-35 225l-18 127l-59 -127zM767.5 1327q110.5 0 182.5 -12l228 -1301q-217 -38 -369 -14l-33 211h-426l-110 -211q-74 -8 -181.5 -8t-175.5 22l699 1301q75 12 185.5 12zM514 1409q-92 57 -106 166l335 227q98 20 193 0l258 -227q-39 -113 -137 -166
l-248 162z" />
    <glyph glyph-name="Atilde" unicode="&#xc3;" horiz-adv-x="1261" 
d="M502 502h231l-35 225l-18 127l-59 -127zM767.5 1327q110.5 0 182.5 -12l228 -1301q-217 -38 -369 -14l-33 211h-426l-110 -211q-74 -8 -181.5 -8t-175.5 22l699 1301q75 12 185.5 12zM950 1436q-70 0 -159 36.5t-125 36.5q-80 0 -103 -90q-68 0 -130 22.5t-95 61.5
q25 131 120 208t216 77q76 0 164 -38t114 -38q81 0 97 92q154 0 235 -69q-27 -145 -119 -222t-215 -77z" />
    <glyph glyph-name="Adieresis" unicode="&#xc4;" horiz-adv-x="1261" 
d="M502 502h231l-35 225l-18 127l-59 -127zM767.5 1327q110.5 0 182.5 -12l228 -1301q-217 -38 -369 -14l-33 211h-426l-110 -211q-74 -8 -181.5 -8t-175.5 22l699 1301q75 12 185.5 12zM1048 1450q-73 0 -124.5 52t-51.5 125t51.5 124t124.5 51t125 -51t52 -124t-52 -125
t-125 -52zM554 1450q-73 0 -124 52t-51 125t51 124t124 51t125 -51t52 -124t-52 -125t-125 -52z" />
    <glyph glyph-name="Aring" unicode="&#xc5;" horiz-adv-x="1261" 
d="M502 502h231l-35 225l-18 127l-59 -127zM58.5 -8q-107.5 0 -175.5 22l699 1301q76 12 186 12t182 -12l228 -1301q-217 -38 -369 -14l-33 211h-426l-110 -211q-74 -8 -181.5 -8zM812 1708q-38 0 -59.5 -26.5t-21.5 -63.5t20.5 -58.5t55.5 -21.5q84 0 84 94
q0 33 -20.5 54.5t-58.5 21.5zM803 1368q-117 0 -186.5 58.5t-69.5 174t81 194.5t192.5 79t183 -57.5t71.5 -174t-77.5 -195.5t-194.5 -79z" />
    <glyph glyph-name="AE" unicode="&#xc6;" horiz-adv-x="1822" 
d="M735 682h193l45 254l24 113l-75 -113zM49 -8q-113 0 -180 22l936 1303l1050 -2q6 -113 -5 -168.5t-52 -157.5h-448l-41 -231h393q6 -84 -4 -138.5t-41 -132.5h-397l-29 -161h467q6 -115 -6.5 -180.5t-51.5 -145.5h-835l74 412h-340l-301 -412q-76 -8 -189 -8z" />
    <glyph glyph-name="Ccedilla" unicode="&#xc7;" horiz-adv-x="1148" 
d="M786 1014q-141 0 -231 -121t-90 -309q0 -127 59.5 -199t174 -72t210.5 76q152 -98 154 -299q-137 -100 -344 -119l-23 -45q156 -27 156 -145q0 -133 -96.5 -195.5t-220.5 -62.5q-68 0 -130.5 18.5t-89.5 44.5q12 102 99 162q35 -29 77 -29q87 0 87 70q0 55 -113 59
l65 125q-225 27 -349 176.5t-124 380.5q0 360 218.5 598t555.5 238q250 0 390 -129q-31 -86 -99.5 -166t-150.5 -123q-74 66 -185 66z" />
    <glyph glyph-name="Egrave" unicode="&#xc8;" horiz-adv-x="1069" 
d="M1042 989h-487l-31 -166h437q10 -193 -54 -307h-436l-35 -190h508q10 -199 -57 -326h-875l232 1315h858q16 -183 -60 -326zM1010 1530q-20 -94 -88 -158l-514 193q39 201 184 284z" />
    <glyph glyph-name="Eacute" unicode="&#xc9;" horiz-adv-x="1069" 
d="M1042 989h-487l-31 -166h437q10 -193 -54 -307h-436l-35 -190h508q10 -199 -57 -326h-875l232 1315h858q16 -183 -60 -326zM1010 1559l-527 -193q-66 66 -84 158l461 327q138 -108 150 -292z" />
    <glyph glyph-name="Ecircumflex" unicode="&#xca;" horiz-adv-x="1069" 
d="M244 1315h858q16 -182 -60 -326h-487l-31 -166h437q10 -193 -54 -307h-436l-35 -190h508q10 -199 -57 -326h-875zM428 1409q-92 57 -106 166l335 227q98 20 193 0l258 -227q-39 -113 -137 -166l-248 162z" />
    <glyph glyph-name="Edieresis" unicode="&#xcb;" horiz-adv-x="1069" 
d="M244 1315h858q16 -182 -60 -326h-487l-31 -166h437q10 -193 -54 -307h-436l-35 -190h508q10 -199 -57 -326h-875zM964 1450q-73 0 -124.5 52t-51.5 125t51.5 124t124.5 51t125 -51t52 -124t-52 -125t-125 -52zM470 1450q-73 0 -124 52t-51 125t51 124t124 51t125 -51
t52 -124t-52 -125t-125 -52z" />
    <glyph glyph-name="Igrave" unicode="&#xcc;" horiz-adv-x="591" 
d="M200 -14q-99 0 -188 14l230 1311q84 14 182 14t186 -14l-231 -1311q-80 -14 -179 -14zM668 1372l-514 193q39 201 184 284l418 -319q-20 -95 -88 -158z" />
    <glyph glyph-name="Iacute" unicode="&#xcd;" horiz-adv-x="591" 
d="M200 -14q-99 0 -188 14l230 1311q84 14 182 14t186 -14l-231 -1311q-80 -14 -179 -14zM231 1366q-66 66 -84 158l461 327q137 -109 150 -292z" />
    <glyph glyph-name="Icircumflex" unicode="&#xce;" horiz-adv-x="591" 
d="M200 -14q-99 0 -188 14l230 1311q84 14 182 14t186 -14l-231 -1311q-80 -14 -179 -14zM590 1804l244 -268q-35 -90 -136 -137l-229 174l-260 -174q-78 43 -100 135l315 270q84 14 166 0z" />
    <glyph glyph-name="Idieresis" unicode="&#xcf;" horiz-adv-x="591" 
d="M200 -14q-99 0 -188 14l230 1311q84 14 182 14t186 -14l-231 -1311q-80 -14 -179 -14zM690 1450q-74 0 -125 52t-51 125t51 124t125 51t125 -51t51 -124t-51 -125t-125 -52zM237.5 1450q-73.5 0 -125 52t-51.5 125t51.5 124t125 51t125 -51t51.5 -124t-51.5 -125
t-125 -52z" />
    <glyph glyph-name="Eth" unicode="&#xd0;" horiz-adv-x="1335" 
d="M530 319q176 0 268.5 119t92.5 281q0 281 -252 280q-53 0 -82 -2l-43 -239h168q12 -113 -27 -215h-178l-39 -221q31 -3 92 -3zM657 1346q317 0 483.5 -147.5t166.5 -420.5q0 -373 -230.5 -589t-627.5 -216q-262 0 -437 27l97 543h-146q-18 94 27 215h155l35 188h-2
l66 365q151 35 413 35z" />
    <glyph glyph-name="Ntilde" unicode="&#xd1;" horiz-adv-x="1363" 
d="M1203 1325q91 0 179 -14l-229 -1307q-176 -31 -362 -16l-265 655l-28 76l-11 -111l-106 -608q-115 -14 -180 -14t-189 14l230 1305q154 41 362 18l287 -760l10 113l113 635q98 14 189 14zM731 1788q76 0 164 -38t115 -38q80 0 96 92q154 0 235 -69q-27 -145 -119 -222
t-214 -77q-70 0 -159 36.5t-126 36.5q-79 0 -102 -90q-68 0 -130.5 22.5t-95.5 61.5q25 131 120 208t216 77z" />
    <glyph glyph-name="Ograve" unicode="&#xd2;" horiz-adv-x="1415" 
d="M684 309q141 0 219 119t78 315q0 268 -215 269q-141 0 -220 -118t-79 -316q0 -269 217 -269zM643 -39q-268 0 -425 150.5t-157 423.5q0 375 209 600t537 225q268 0 423.5 -149.5t155.5 -422.5q0 -375 -207.5 -601t-535.5 -226zM1034 1372l-514 193q39 201 185 284
l417 -319q-20 -95 -88 -158z" />
    <glyph glyph-name="Oacute" unicode="&#xd3;" horiz-adv-x="1415" 
d="M684 309q141 0 219 119t78 315q0 268 -215 269q-141 0 -220 -118t-79 -316q0 -269 217 -269zM643 -39q-268 0 -425 150.5t-157 423.5q0 375 209 600t537 225q268 0 423.5 -149.5t155.5 -422.5q0 -375 -207.5 -601t-535.5 -226zM598 1366q-66 66 -84 158l461 327
q137 -109 149 -292z" />
    <glyph glyph-name="Ocircumflex" unicode="&#xd4;" horiz-adv-x="1415" 
d="M684 309q141 0 219 119t78 315q0 268 -215 269q-141 0 -220 -118t-79 -316q0 -269 217 -269zM643 -39q-268 0 -425 150.5t-157 423.5q0 375 209 600t537 225q268 0 423.5 -149.5t155.5 -422.5q0 -375 -207.5 -601t-535.5 -226zM965 1802l258 -227q-39 -113 -138 -166
l-247 162l-295 -162q-92 57 -107 166l336 227q99 20 193 0z" />
    <glyph glyph-name="Otilde" unicode="&#xd5;" horiz-adv-x="1415" 
d="M684 309q141 0 219 119t78 315q0 268 -215 269q-141 0 -220 -118t-79 -316q0 -269 217 -269zM643 -39q-268 0 -425 150.5t-157 423.5q0 375 209 600t537 225q268 0 423.5 -149.5t155.5 -422.5q0 -375 -207.5 -601t-535.5 -226zM702 1788q76 0 164 -38t115 -38q80 0 96 92
q154 0 236 -69q-27 -145 -119 -222t-215 -77q-70 0 -159 36.5t-126 36.5q-79 0 -102 -90q-68 0 -130.5 22.5t-94.5 61.5q25 131 120 208t215 77z" />
    <glyph glyph-name="Odieresis" unicode="&#xd6;" horiz-adv-x="1415" 
d="M684 309q141 0 219 119t78 315q0 268 -215 269q-141 0 -220 -118t-79 -316q0 -269 217 -269zM643 -39q-268 0 -425 150.5t-157 423.5q0 375 209 600t537 225q268 0 423.5 -149.5t155.5 -422.5q0 -375 -207.5 -601t-535.5 -226zM1076 1450q-73 0 -124 52t-51 125t51.5 124
t124 51t124.5 -51t52 -124t-52 -125t-125 -52zM583 1450q-73 0 -124 52t-51 125t51 124t124 51t125 -51t52 -124t-52 -125t-125 -52z" />
    <glyph glyph-name="multiply" unicode="&#xd7;" horiz-adv-x="878" 
d="M840 719l-262 -234l180 -233q-76 -98 -185 -158l-178 230l-258 -230q-88 61 -127 158l262 233l-180 234q76 98 184 158l177 -230l258 230q86 -58 129 -158z" />
    <glyph glyph-name="Oslash" unicode="&#xd8;" horiz-adv-x="1415" 
d="M684 309q141 0 219 119t78 315q0 268 -215 269q-141 0 -220 -118t-79 -316q0 -269 217 -269zM1386 788q0 -375 -207.5 -601t-535.5 -226q-80 0 -162 16l-129 -192q-197 33 -282 203l112 164q-121 150 -121 383q0 375 209 600t537 225q100 0 182 -21l127 191
q189 -39 283 -199l-119 -178q106 -141 106 -365z" />
    <glyph glyph-name="Ugrave" unicode="&#xd9;" horiz-adv-x="1320" 
d="M588 -39q-251 0 -380.5 108.5t-129.5 317.5q0 72 14 143l137 781q84 14 181.5 14t185.5 -14l-135 -772q-6 -37 -6 -66q0 -84 44 -129t128 -45t146.5 61.5t82.5 178.5l135 772q84 14 179 14t184 -14l-135 -766q-47 -279 -213.5 -431.5t-417.5 -152.5zM1040 1372l-514 193
q39 201 185 284l417 -319q-20 -95 -88 -158z" />
    <glyph glyph-name="Uacute" unicode="&#xda;" horiz-adv-x="1320" 
d="M588 -39q-251 0 -380.5 108.5t-129.5 317.5q0 72 14 143l137 781q84 14 181.5 14t185.5 -14l-135 -772q-6 -37 -6 -66q0 -84 44 -129t128 -45t146.5 61.5t82.5 178.5l135 772q84 14 179 14t184 -14l-135 -766q-47 -279 -213.5 -431.5t-417.5 -152.5zM604 1366
q-66 66 -84 158l461 327q137 -109 149 -292z" />
    <glyph glyph-name="Ucircumflex" unicode="&#xdb;" horiz-adv-x="1320" 
d="M588 -39q-251 0 -380.5 108.5t-129.5 317.5q0 72 14 143l137 781q84 14 181.5 14t185.5 -14l-135 -772q-6 -37 -6 -66q0 -84 44 -129t128 -45t146.5 61.5t82.5 178.5l135 772q84 14 179 14t184 -14l-135 -766q-47 -279 -213.5 -431.5t-417.5 -152.5zM971 1802l258 -227
q-39 -113 -137 -166l-248 162l-295 -162q-92 57 -107 166l336 227q99 20 193 0z" />
    <glyph glyph-name="Udieresis" unicode="&#xdc;" horiz-adv-x="1320" 
d="M588 -39q-251 0 -380.5 108.5t-129.5 317.5q0 72 14 143l137 781q84 14 181.5 14t185.5 -14l-135 -772q-6 -37 -6 -66q0 -84 44 -129t128 -45t146.5 61.5t82.5 178.5l135 772q84 14 179 14t184 -14l-135 -766q-47 -279 -213.5 -431.5t-417.5 -152.5zM1082 1450
q-73 0 -124 52t-51 125t51.5 124t124 51t125 -51t52.5 -124t-52.5 -125t-125.5 -52zM589 1450q-73 0 -124 52t-51 125t51 124t124 51t125 -51t52 -124t-52 -125t-125 -52z" />
    <glyph glyph-name="Yacute" unicode="&#xdd;" horiz-adv-x="1249" 
d="M524.5 -14q-98.5 0 -186.5 14l88 494l-320 813q220 39 441 14l135 -479l70 112l247 367q159 25 398 -12l-606 -836l-84 -473q-84 -14 -182.5 -14zM1081 1559l-526 -193q-66 66 -84 158l461 327q137 -108 149 -292z" />
    <glyph glyph-name="Thorn" unicode="&#xde;" horiz-adv-x="1136" 
d="M541 496q109 0 158 58t49 128q0 138 -152 137q-14 0 -72 -4l-55 -319h72zM631 1126q500 0 499 -370q0 -274 -184 -426t-463 -152q-45 0 -71 2l-31 -180q-84 -14 -182.5 -14t-186.5 14l133 748h-4l103 563q84 14 182 14t186 -14l-32 -185h51z" />
    <glyph glyph-name="germandbls" unicode="&#xdf;" horiz-adv-x="1300" 
d="M774 -39q-123 0 -216 38t-136 89q51 162 178 229q104 -79 184 -79t78 47q0 55 -147 130q-55 28 -102 85q-46 57 -46 136t35 138t84 91t97 58q48 25 83 57t35 75q0 86 -129 86q-96 -1 -163 -59t-83 -148l-168 -934q-84 -14 -182 -14t-190 14l159 899q96 543 641 543
q220 0 356 -97t136 -260q0 -93 -36 -157t-86 -94t-101 -53q-51 -21 -87 -43t-36 -47t31 -49t75 -52t86 -65q43 -36 74 -94t31 -128q0 -145 -115 -243t-340 -99z" />
    <glyph glyph-name="agrave" unicode="&#xe0;" horiz-adv-x="1134" 
d="M395 410q0 -137 123 -138q76 0 121 62l61 348q-33 8 -79 8q-94 0 -160 -71.5t-66 -208.5zM662.5 1004q269.5 0 449.5 -99l-164 -915q-121 -25 -239 0l-25 92q-131 -119 -303 -119t-267.5 106.5t-95.5 292.5q0 291 187.5 466.5t457 175.5zM977 1182q-35 -86 -103 -131
l-452 235q55 182 207 260z" />
    <glyph glyph-name="aacute" unicode="&#xe1;" horiz-adv-x="1134" 
d="M395 410q0 -137 123 -138q76 0 121 62l61 348q-33 8 -79 8q-94 0 -160 -71.5t-66 -208.5zM662.5 1004q269.5 0 449.5 -99l-164 -915q-121 -25 -239 0l-25 92q-131 -119 -303 -119t-267.5 106.5t-95.5 292.5q0 291 187.5 466.5t457 175.5zM543 1051q-74 47 -92 129
l380 374q147 -84 197 -264z" />
    <glyph glyph-name="acircumflex" unicode="&#xe2;" horiz-adv-x="1134" 
d="M395 410q0 -137 123 -138q76 0 121 62l61 348q-33 8 -79 8q-94 0 -160 -71.5t-66 -208.5zM662.5 1004q269.5 0 449.5 -99l-164 -915q-121 -25 -239 0l-25 92q-131 -119 -303 -119t-267.5 106.5t-95.5 292.5q0 291 187.5 466.5t457 175.5zM444 1065q-92 41 -108 137
l338 311q80 16 162 0l264 -303q-41 -100 -144 -145l-221 180z" />
    <glyph glyph-name="atilde" unicode="&#xe3;" horiz-adv-x="1134" 
d="M395 410q0 -137 123 -138q76 0 121 62l61 348q-33 8 -79 8q-94 0 -160 -71.5t-66 -208.5zM18 362q0 291 187.5 466.5t457 175.5t449.5 -99l-164 -915q-121 -25 -239 0l-25 92q-131 -119 -303 -119t-267.5 106.5t-95.5 292.5zM854 1403q66 0 100 88q152 0 234 -88
q-90 -272 -309 -273q-82 -2 -157 36t-112 38q-69 0 -106 -98q-59 0 -129 22.5t-99 65.5q41 135 120 210t175.5 76t172 -38t110.5 -39z" />
    <glyph glyph-name="adieresis" unicode="&#xe4;" horiz-adv-x="1134" 
d="M395 410q0 -137 123 -138q76 0 121 62l61 348q-33 8 -79 8q-94 0 -160 -71.5t-66 -208.5zM18 362q0 291 187.5 466.5t457 175.5t449.5 -99l-164 -915q-121 -25 -239 0l-25 92q-131 -119 -303 -119t-267.5 106.5t-95.5 292.5zM970.5 1108q-71.5 0 -122.5 51t-51 123
t51 123t122.5 51t123 -51t51.5 -123t-51.5 -123t-123 -51zM491.5 1108q-71.5 0 -123 51t-51.5 123t51.5 123t123 51t123 -51t51.5 -123t-51.5 -123t-123 -51z" />
    <glyph glyph-name="aring" unicode="&#xe5;" horiz-adv-x="1134" 
d="M395 410q0 -137 123 -138q76 0 121 62l61 348q-33 8 -79 8q-94 0 -160 -71.5t-66 -208.5zM662.5 1004q269.5 0 449.5 -99l-164 -915q-121 -25 -239 0l-25 92q-131 -119 -303 -119t-267.5 106.5t-95.5 292.5q0 291 187.5 466.5t457 175.5zM735 1386q-37 0 -59.5 -25.5
t-22.5 -63.5t21.5 -59t54.5 -21q84 0 84 94q0 35 -20.5 55t-57.5 20zM725 1049q-117 0 -186.5 58t-69.5 174t81 194.5t192.5 78.5t183 -58t71.5 -175t-77.5 -194.5t-194.5 -77.5z" />
    <glyph glyph-name="ae" unicode="&#xe6;" horiz-adv-x="1718" 
d="M498 272q156 0 196 195q14 111 62 207q-59 16 -137 16t-151 -69.5t-73 -194.5q0 -72 27 -113t76 -41zM1219 578q104 0 104 81q0 66 -82 66q-121 0 -164 -135q74 -12 142 -12zM379 -37q-168 0 -264.5 107.5t-96.5 291.5q0 287 189.5 464.5t464.5 177.5q205 0 346 -64
q123 63 287.5 63.5t267 -82.5t102.5 -212q0 -98 -40 -170q-39 -72 -111 -109q-135 -70 -328 -70q-74 0 -139 11q0 -15 4 -19q25 -96 199 -96q80 0 231 82q123 -92 98 -254q-184 -121 -449 -121t-384 176q-80 -104 -169 -140t-208 -36z" />
    <glyph glyph-name="ccedilla" unicode="&#xe7;" horiz-adv-x="927" 
d="M662 -219q0 -133 -96.5 -195.5t-221.5 -62.5q-68 0 -130 18.5t-89 44.5q12 102 98 162q35 -29 77 -29q87 0 87 70q0 55 -113 59l68 127q-152 31 -235.5 135.5t-83.5 268.5q0 285 163.5 458t413.5 173q111 0 197 -33t129 -80q-20 -70 -74.5 -137.5t-120.5 -104.5
q-53 49 -138 49.5t-140.5 -73.5t-55.5 -199q0 -168 140 -168q80 0 149 68q142 -62 162 -232q-139 -121 -322 -135l-20 -39q156 -27 156 -145z" />
    <glyph glyph-name="egrave" unicode="&#xe8;" horiz-adv-x="1064" 
d="M569 739q-117 0 -153 -157q51 -10 139 -17q104 0 104 92q0 35 -22.5 58.5t-67.5 23.5zM527.5 -37q-254.5 0 -378.5 111.5t-124 322.5q0 262 158.5 434.5t408.5 172.5q201 0 311.5 -87.5t110.5 -230.5q0 -90 -39 -155.5t-103 -99.5q-120 -64 -274 -64q-94 0 -201 22
q2 -86 42 -122t149.5 -35.5t242.5 96.5q125 -82 121 -230q-170 -135 -424.5 -135zM879 1182q-35 -86 -103 -131l-452 235q55 182 206 260z" />
    <glyph glyph-name="eacute" unicode="&#xe9;" horiz-adv-x="1064" 
d="M569 739q-117 0 -153 -157q51 -10 139 -17q104 0 104 92q0 35 -22.5 58.5t-67.5 23.5zM527.5 -37q-254.5 0 -378.5 111.5t-124 322.5q0 262 158.5 434.5t408.5 172.5q201 0 311.5 -87.5t110.5 -230.5q0 -90 -39 -155.5t-103 -99.5q-120 -64 -274 -64q-94 0 -201 22
q2 -86 42 -122t149.5 -35.5t242.5 96.5q125 -82 121 -230q-170 -135 -424.5 -135zM444 1051q-74 47 -92 129l381 374q147 -84 197 -264z" />
    <glyph glyph-name="ecircumflex" unicode="&#xea;" horiz-adv-x="1064" 
d="M569 739q-117 0 -153 -157q51 -10 139 -17q104 0 104 92q0 35 -22.5 58.5t-67.5 23.5zM527.5 -37q-254.5 0 -378.5 111.5t-124 322.5q0 262 158.5 434.5t408.5 172.5q201 0 311.5 -87.5t110.5 -230.5q0 -90 -39 -155.5t-103 -99.5q-120 -64 -274 -64q-94 0 -201 22
q2 -86 42 -122t149.5 -35.5t242.5 96.5q125 -82 121 -230q-170 -135 -424.5 -135zM346 1065q-92 41 -108 137l337 311q82 16 162 0l264 -303q-41 -100 -143 -145l-221 180z" />
    <glyph glyph-name="edieresis" unicode="&#xeb;" horiz-adv-x="1064" 
d="M659 657q0 35 -22.5 58.5t-67.5 23.5q-116 1 -153 -157q51 -10 139 -17q104 0 104 92zM1014 686q0 -90 -39 -155.5t-103 -99.5q-120 -64 -274 -64q-94 0 -201 22q2 -86 42 -122t149.5 -36t242.5 97q125 -82 121 -230q-170 -135 -424.5 -135t-378.5 111.5t-124 322.5
q0 262 158.5 434.5t408.5 172.5q201 0 311.5 -87.5t110.5 -230.5zM872.5 1108q-71.5 0 -123 51t-51.5 123t51.5 123t123 51t123 -51t51.5 -123t-51.5 -123t-123 -51zM393.5 1108q-71.5 0 -123 51t-51.5 123t51.5 123t123 51t122.5 -51t51 -123t-51 -123t-122.5 -51z" />
    <glyph glyph-name="igrave" unicode="&#xec;" horiz-adv-x="538" 
d="M170 -14q-98 0 -186 14l174 975q84 14 182 14t184 -14l-172 -975q-84 -14 -182 -14zM541 1051l-453 235q55 182 207 260l348 -364q-34 -86 -102 -131z" />
    <glyph glyph-name="iacute" unicode="&#xed;" horiz-adv-x="538" 
d="M170 -14q-98 0 -186 14l174 975q84 14 182 14t184 -14l-172 -975q-84 -14 -182 -14zM209 1051q-74 47 -92 129l381 374q147 -84 196 -264z" />
    <glyph glyph-name="icircumflex" unicode="&#xee;" horiz-adv-x="538" 
d="M170 -14q-98 0 -186 14l174 975q84 14 182 14t184 -14l-172 -975q-84 -14 -182 -14zM506 1513l235 -311q-39 -88 -145 -137l-197 172l-252 -172q-90 51 -112 135l321 313q72 16 150 0z" />
    <glyph glyph-name="idieresis" unicode="&#xef;" horiz-adv-x="538" 
d="M170 -14q-98 0 -186 14l174 975q84 14 182 14t184 -14l-172 -975q-84 -14 -182 -14zM604 1108q-72 0 -123 51t-51 123t51 123t123 51t122 -51t50 -123t-50 -123t-122 -51zM166 1108q-72 0 -123 51t-51 123t51 123t123 51t122 -51t50 -123t-50 -123t-122 -51z" />
    <glyph glyph-name="eth" unicode="&#xf0;" horiz-adv-x="1069" 
d="M506 264q68 0 106 60t37 153q0 137 -123 137q-68 0 -110 -57t-41 -139q0 -154 131 -154zM488 -37q-472 0 -472 414q0 225 152 366t369 142q41 0 88 -11q-52 89 -117 140l-113 -96q-35 16 -69 58t-47 83l57 49q-59 18 -125 31q10 207 113 299q168 -35 280 -101l125 109
q88 -51 117 -141l-90 -78q250 -229 250 -687q0 -278 -142 -428q-144 -150 -376 -149z" />
    <glyph glyph-name="ntilde" unicode="&#xf1;" horiz-adv-x="1120" 
d="M639 1010q211 0 315.5 -85t104.5 -239q0 -43 -10 -100l-103 -586q-92 -14 -190 -14t-178 14l94 539q4 29 4 49q0 92 -101 92q-53 0 -106 -14l-117 -666q-88 -14 -186 -14t-182 14l159 903q207 107 496 107zM784 1403q66 0 101 88q152 0 233 -88q-90 -272 -309 -273
q-82 -2 -156.5 36t-111.5 38q-70 0 -107 -98q-59 0 -128.5 22.5t-98.5 65.5q41 135 120 210t175 76t172 -38t110 -39z" />
    <glyph glyph-name="ograve" unicode="&#xf2;" horiz-adv-x="1122" 
d="M524 266q86 0 129 80t43 199q0 162 -125 162q-82 0 -127 -79t-49 -194q0 -168 129 -168zM500 -39q-221 0 -347 114.5t-126 323.5q0 276 154.5 444.5t394.5 168.5t364.5 -116t124.5 -325q0 -276 -152.5 -443t-412.5 -167zM776 1051l-452 235q55 182 206 260l349 -364
q-35 -86 -103 -131z" />
    <glyph glyph-name="oacute" unicode="&#xf3;" horiz-adv-x="1122" 
d="M524 266q86 0 129 80t43 199q0 162 -125 162q-82 0 -127 -79t-49 -194q0 -168 129 -168zM500 -39q-221 0 -347 114.5t-126 323.5q0 276 154.5 444.5t394.5 168.5t364.5 -116t124.5 -325q0 -276 -152.5 -443t-412.5 -167zM444 1051q-74 47 -92 129l381 374
q147 -84 197 -264z" />
    <glyph glyph-name="ocircumflex" unicode="&#xf4;" horiz-adv-x="1122" 
d="M524 266q86 0 129 80t43 199q0 162 -125 162q-82 0 -127 -79t-49 -194q0 -168 129 -168zM500 -39q-221 0 -347 114.5t-126 323.5q0 276 154.5 444.5t394.5 168.5t364.5 -116t124.5 -325q0 -276 -152.5 -443t-412.5 -167zM737 1513l264 -303q-41 -100 -143 -145l-221 180
l-291 -180q-92 41 -108 137l337 311q82 16 162 0z" />
    <glyph glyph-name="otilde" unicode="&#xf5;" horiz-adv-x="1122" 
d="M524 266q86 0 129 80t43 199q0 162 -125 162q-82 0 -127 -79t-49 -194q0 -168 129 -168zM500 -39q-221 0 -347 114.5t-126 323.5q0 276 154.5 444.5t394 168.5t364.5 -116t125 -325q0 -276 -152.5 -443t-412.5 -167zM756 1403q66 0 100 88q152 0 234 -88
q-90 -272 -310 -273q-82 -2 -156.5 36t-111.5 38q-69 0 -106 -98q-59 0 -129 22.5t-99 65.5q41 135 120 210t175 76t172 -38t111 -39z" />
    <glyph glyph-name="odieresis" unicode="&#xf6;" horiz-adv-x="1122" 
d="M524 266q86 0 129 80t43 199q0 162 -125 162q-82 0 -127 -79t-49 -194q0 -168 129 -168zM500 -39q-221 0 -347 114.5t-126 323.5q0 276 154.5 444.5t394.5 168.5t364.5 -116t124.5 -325q0 -276 -152.5 -443t-412.5 -167zM872.5 1108q-71.5 0 -123 51t-51.5 123t51.5 123
t123 51t123 -51t51.5 -123t-51.5 -123t-123 -51zM393.5 1108q-71.5 0 -123 51t-51.5 123t51.5 123t123 51t122.5 -51t51 -123t-51 -123t-122.5 -51z" />
    <glyph glyph-name="divide" unicode="&#xf7;" horiz-adv-x="942" 
d="M417 -10q-75 0 -127 52t-52 127t52 128t127 53t127 -53t52 -128t-52 -127t-127 -52zM31 389v39q0 74 37 164h817v-37q0 -72 -37 -166h-817zM515 637q-75 0 -128 52t-53 127t53 128t128 53t127 -53t52 -128t-52 -127t-127 -52z" />
    <glyph glyph-name="oslash" unicode="&#xf8;" horiz-adv-x="1122" 
d="M524 266q86 0 129 80t43 199q0 162 -125 162q-82 0 -127 -79t-49 -194q0 -168 129 -168zM1065 571q0 -276 -152.5 -443t-412.5 -167q-63 0 -111 8l-110 -162q-164 27 -236 168l84 125q-100 117 -100 299q0 276 154.5 444.5t408.5 168.5q80 0 143 -15l101 152
q163 -29 237 -170l-88 -129q82 -111 82 -279z" />
    <glyph glyph-name="ugrave" unicode="&#xf9;" horiz-adv-x="1114" 
d="M918 977q98 0 182 -14l-160 -912q-55 -29 -195.5 -58.5t-326 -29.5t-284.5 82t-99 246q0 59 12 131l96 541q88 14 186.5 14t184.5 -14l-94 -531q-8 -46 -8 -78q0 -76 112 -75q41 0 88 10l119 674q89 14 187 14zM909 1182q-35 -86 -102 -131l-453 235q55 182 207 260z" />
    <glyph glyph-name="uacute" unicode="&#xfa;" horiz-adv-x="1114" 
d="M918 977q98 0 182 -14l-160 -912q-55 -29 -195.5 -58.5t-326 -29.5t-284.5 82t-99 246q0 59 12 131l96 541q88 14 186.5 14t184.5 -14l-94 -531q-8 -46 -8 -78q0 -76 112 -75q41 0 88 10l119 674q89 14 187 14zM475 1051q-74 47 -92 129l381 374q147 -84 197 -264z" />
    <glyph glyph-name="ucircumflex" unicode="&#xfb;" horiz-adv-x="1114" 
d="M918 977q98 0 182 -14l-160 -912q-55 -29 -195.5 -58.5t-326 -29.5t-284.5 82t-99 246q0 59 12 131l96 541q88 14 186.5 14t184.5 -14l-94 -531q-8 -46 -8 -78q0 -76 112 -75q41 0 88 10l119 674q89 14 187 14zM377 1065q-92 41 -109 137l338 311q80 16 162 0l264 -303
q-41 -100 -143 -145l-221 180z" />
    <glyph glyph-name="udieresis" unicode="&#xfc;" horiz-adv-x="1114" 
d="M918 977q98 0 182 -14l-160 -912q-55 -29 -195.5 -58.5t-326 -29.5t-284.5 82t-99 246q0 59 12 131l96 541q88 14 186.5 14t184.5 -14l-94 -531q-8 -46 -8 -78q0 -76 112 -75q41 0 88 10l119 674q89 14 187 14zM903 1108q-72 0 -123 51t-51 123t51 123t123 51t123 -51
t51 -123t-51 -123t-123 -51zM424 1108q-72 0 -123 51t-51 123t51 123t123 51t123 -51t51 -123t-51 -123t-123 -51z" />
    <glyph glyph-name="yacute" unicode="&#xfd;" horiz-adv-x="1122" 
d="M920 977q98 0 184 -14l-166 -963q-37 -207 -189.5 -313.5t-392.5 -106.5q-162 0 -285.5 50.5t-181.5 117.5q51 160 191 229q117 -117 289 -116.5t198 166.5l8 45q-78 -20 -135 -21q-240 0 -330 109.5t-51 322.5l86 480q88 14 186.5 14t182.5 -14l-78 -443
q-14 -82 6.5 -117.5t88 -35.5t100.5 24l102 572q89 14 187 14zM459 1051q-74 47 -92 129l381 374q147 -84 196 -264z" />
    <glyph glyph-name="thorn" unicode="&#xfe;" horiz-adv-x="1157" 
d="M526 279q82 0 140.5 65.5t58.5 158.5q0 179 -162 179q-47 0 -92 -12l-65 -381q38 -10 120 -10zM612 1004q223 0 356.5 -110t133.5 -325q0 -279 -158 -443.5t-430 -164.5q-100 0 -164 16l-61 -352q-88 -14 -187.5 -14t-183.5 14l303 1714q182 32 369 0l-60 -338q27 3 82 3
z" />
    <glyph glyph-name="ydieresis" unicode="&#xff;" horiz-adv-x="1122" 
d="M920 977q98 0 184 -14l-166 -963q-37 -207 -189.5 -313.5t-392.5 -106.5q-162 0 -285.5 50.5t-181.5 117.5q51 160 191 229q117 -117 289 -116.5t198 166.5l8 45q-78 -20 -135 -21q-240 0 -330 109.5t-51 322.5l86 480q88 14 186.5 14t182.5 -14l-78 -443
q-14 -82 6.5 -117.5t88 -35.5t100.5 24l102 572q89 14 187 14zM886.5 1108q-71.5 0 -122.5 51t-51 123t51 123t122.5 51t123 -51t51.5 -123t-51.5 -123t-123 -51zM407.5 1108q-71.5 0 -123 51t-51.5 123t51.5 123t123 51t123 -51t51.5 -123t-51.5 -123t-123 -51z" />
    <glyph glyph-name="Amacron" unicode="&#x100;" horiz-adv-x="1261" 
d="M502 502h231l-35 225l-18 127l-59 -127zM58.5 -8q-107.5 0 -175.5 22l699 1301q76 12 186 12t182 -12l228 -1301q-217 -38 -369 -14l-33 211h-426l-110 -211q-74 -8 -181.5 -8zM1126 1491h-667q-12 49 0 114.5t43 123.5h665q12 -123 -41 -238z" />
    <glyph glyph-name="amacron" unicode="&#x101;" horiz-adv-x="1134" 
d="M395 410q0 -137 123 -138q76 0 121 62l61 348q-33 8 -79 8q-94 0 -160 -71.5t-66 -208.5zM662.5 1004q269.5 0 449.5 -99l-164 -915q-121 -25 -239 0l-25 92q-131 -119 -303 -119t-267.5 106.5t-95.5 292.5q0 291 187.5 466.5t457 175.5zM371 1214q0 100 53 205h670v-53
q-1 -104 -50 -217h-667q-6 25 -6 65z" />
    <glyph glyph-name="Abreve" unicode="&#x102;" horiz-adv-x="1261" 
d="M502 502h231l-35 225l-18 127l-59 -127zM767.5 1327q110.5 0 182.5 -12l228 -1301q-217 -38 -369 -14l-33 211h-426l-110 -211q-74 -8 -181.5 -8t-175.5 22l699 1301q75 12 185.5 12zM770.5 1405q-185.5 0 -282.5 108.5t-68 253.5q94 37 209 29q16 -143 174 -143
q61 0 121.5 32.5t87.5 110.5q123 14 190 -29q-25 -150 -135.5 -256t-296 -106z" />
    <glyph glyph-name="abreve" unicode="&#x103;" horiz-adv-x="1134" 
d="M395 410q0 -137 123 -138q76 0 121 62l61 348q-33 8 -79 8q-94 0 -160 -71.5t-66 -208.5zM18 362q0 291 187.5 466.5t457 175.5t449.5 -99l-164 -915q-121 -25 -239 0l-25 92q-131 -119 -303 -119t-267.5 106.5t-95.5 292.5zM685 1079q-181 0 -270 114t-77 259
q96 41 211 29q8 -76 60.5 -114t111.5 -38q160 0 203 152q129 14 204 -31q-14 -139 -138 -255t-305 -116z" />
    <glyph glyph-name="Aogonek" unicode="&#x104;" horiz-adv-x="1261" 
d="M502 502h231l-35 225l-18 127l-59 -127zM852 -451q-102 0 -162.5 51.5t-60.5 137.5t55 155.5t125 106.5l-33 211h-426l-110 -211q-74 -8 -181.5 -8t-175.5 22l699 1301q76 12 186 12t182 -12l228 -1301q-166 -41 -225.5 -79.5t-59.5 -84.5q0 -27 19.5 -42t50.5 -15t92 41
q90 -49 94 -170q-123 -115 -297 -115z" />
    <glyph glyph-name="aogonek" unicode="&#x105;" horiz-adv-x="1134" 
d="M395 410q0 -137 123 -138q76 0 121 62l61 348q-33 8 -79 8q-94 0 -160 -71.5t-66 -208.5zM948 -10q-102 -68 -102 -132.5t72 -64.5q34 0 81 33q88 -57 88 -172q-117 -104 -282 -105q-98 0 -159.5 49.5t-61.5 133.5q0 43 8 66.5t12 36.5t14.5 30.5t16.5 28t19.5 28
t17.5 23.5t19.5 23.5t17.5 21.5l-25 92q-131 -119 -303 -119t-267.5 106.5t-95.5 292.5q0 291 187.5 466.5t457 175.5t449.5 -99z" />
    <glyph glyph-name="Cacute" unicode="&#x106;" horiz-adv-x="1148" 
d="M625 -33q-268 0 -418 153.5t-150 409.5q0 360 218.5 598t555.5 238q250 0 390 -129q-31 -86 -99.5 -166t-150.5 -123q-74 66 -185 66q-141 0 -231 -121t-90 -309q0 -127 59.5 -199t174 -72t210.5 76q152 -98 154 -299q-170 -123 -438 -123zM598 1366q-66 66 -84 158
l461 327q137 -109 149 -292z" />
    <glyph glyph-name="cacute" unicode="&#x107;" horiz-adv-x="927" 
d="M476 -37q-216 0 -334.5 109.5t-118.5 306.5q0 285 163.5 458t413.5 173q111 0 197 -33t129 -80q-20 -70 -74.5 -137.5t-120.5 -104.5q-53 49 -138 49.5t-140.5 -73.5t-55.5 -199q0 -168 140 -168q80 0 149 68q141 -61 162 -232q-156 -137 -372 -137zM434 1051
q-74 47 -92 129l381 374q147 -84 197 -264z" />
    <glyph glyph-name="Cdotaccent" unicode="&#x10a;" horiz-adv-x="1148" 
d="M625 -33q-268 0 -418 153.5t-150 409.5q0 360 218.5 598t555.5 238q250 0 390 -129q-31 -86 -99.5 -166t-150.5 -123q-74 66 -185 66q-141 0 -231 -121t-90 -309q0 -127 59.5 -199t174 -72t210.5 76q152 -98 154 -299q-170 -123 -438 -123zM843 1411q-87 0 -148.5 61.5
t-61.5 149.5t61.5 148.5t148.5 60.5t148.5 -60.5t61.5 -148.5t-61.5 -149.5t-148.5 -61.5z" />
    <glyph glyph-name="cdotaccent" unicode="&#x10b;" horiz-adv-x="927" 
d="M476 -37q-216 0 -334.5 109.5t-118.5 306.5q0 285 163.5 458t413.5 173q111 0 197 -33t129 -80q-20 -70 -74.5 -137.5t-120.5 -104.5q-53 49 -138 49.5t-140.5 -73.5t-55.5 -199q0 -168 140 -168q80 0 149 68q141 -61 162 -232q-156 -137 -372 -137zM620.5 1081
q-88.5 0 -149.5 62.5t-61 150.5t61 149.5t149.5 61.5t149.5 -61.5t61 -149.5t-61 -150.5t-149.5 -62.5z" />
    <glyph glyph-name="Ccaron" unicode="&#x10c;" horiz-adv-x="1148" 
d="M625 -33q-268 0 -418 153.5t-150 409.5q0 360 218.5 598t555.5 238q250 0 390 -129q-31 -86 -99.5 -166t-150.5 -123q-74 66 -185 66q-141 0 -231 -121t-90 -309q0 -127 59.5 -199t174 -72t210.5 76q152 -98 154 -299q-170 -123 -438 -123zM694 1436l-258 229
q39 113 137 166l248 -162l295 164q88 -57 105 -168l-334 -229q-101 -20 -193 0z" />
    <glyph glyph-name="ccaron" unicode="&#x10d;" horiz-adv-x="927" 
d="M476 -37q-216 0 -334.5 109.5t-118.5 306.5q0 285 163.5 458t413.5 173q111 0 197 -33t129 -80q-20 -70 -74.5 -137.5t-120.5 -104.5q-53 49 -138 49.5t-140.5 -73.5t-55.5 -199q0 -168 140 -168q80 0 149 68q141 -61 162 -232q-156 -137 -372 -137zM496 1073l-269 303
q41 98 148 146l223 -183l289 183q96 -43 108 -138l-338 -311q-79 -14 -161 0z" />
    <glyph glyph-name="Dcaron" unicode="&#x10e;" horiz-adv-x="1335" 
d="M530 319q176 0 268.5 119t92.5 281q0 281 -252 280q-53 0 -82 -2l-119 -675q31 -3 92 -3zM657 1346q317 0 483.5 -147.5t166.5 -420.5q0 -373 -230.5 -589t-627.5 -216q-262 0 -437 27l168 946h-2l66 365q151 35 413 35zM788 1436q-100 -20 -192 0l-258 229
q39 113 137 166l248 -162l295 164q88 -57 104 -168z" />
    <glyph glyph-name="dcaron" unicode="&#x10f;" horiz-adv-x="1140" 
d="M395 468.5q0 -97.5 46 -148t128 -50.5q33 0 66 6l72 408q-37 10 -80 10q-96 0 -164 -64t-68 -161.5zM522.5 -37q-252.5 0 -377.5 111.5t-125 318.5q0 279 185.5 445t449.5 166q66 0 107 -9l61 344q195 31 369 0l-227 -1288q-190 -88 -442.5 -88zM1469 1479q85 0 135 -31
v-33q0 -145 -72 -267t-164 -192q-37 0 -71.5 21.5t-47.5 50.5q27 53 41 85q36 84 35.5 189t-8.5 144q67 33 152 33z" />
    <glyph glyph-name="Dcroat" unicode="&#x110;" horiz-adv-x="1335" 
d="M530 319q176 0 268.5 119t92.5 281q0 281 -252 280q-53 0 -82 -2l-43 -239h168q12 -113 -27 -215h-178l-39 -221q31 -3 92 -3zM657 1346q317 0 483.5 -147.5t166.5 -420.5q0 -373 -230.5 -589t-627.5 -216q-262 0 -437 27l97 543h-146q-18 94 27 215h155l35 188h-2
l66 365q151 35 413 35z" />
    <glyph glyph-name="dcroat" unicode="&#x111;" horiz-adv-x="1140" 
d="M395 468.5q0 -97.5 46 -148t128 -50.5q33 0 66 6l72 408q-37 10 -80 10q-96 0 -164 -64t-68 -161.5zM522.5 -37q-252.5 0 -377.5 111.5t-125 318.5q0 279 185.5 445t449.5 166q66 0 107 -9l14 82h-184q-18 86 26 197h193l12 65q195 31 369 0l-12 -65h131
q12 -102 -27 -197h-139l-180 -1026q-190 -88 -442.5 -88z" />
    <glyph glyph-name="Emacron" unicode="&#x112;" horiz-adv-x="1069" 
d="M1042 989h-487l-31 -166h437q10 -193 -54 -307h-436l-35 -190h508q10 -199 -57 -326h-875l232 1315h858q16 -183 -60 -326zM1040 1491h-667q-12 49 0 114.5t43 123.5h665q12 -123 -41 -238z" />
    <glyph glyph-name="emacron" unicode="&#x113;" horiz-adv-x="1064" 
d="M569 739q-117 0 -153 -157q51 -10 139 -17q104 0 104 92q0 35 -22.5 58.5t-67.5 23.5zM527.5 -37q-254.5 0 -378.5 111.5t-124 322.5q0 262 158.5 434.5t408.5 172.5q201 0 311.5 -87.5t110.5 -230.5q0 -90 -39 -155.5t-103 -99.5q-120 -64 -274 -64q-94 0 -201 22
q2 -86 42 -122t149.5 -35.5t242.5 96.5q125 -82 121 -230q-170 -135 -424.5 -135zM995 1419v-53q0 -104 -49 -217h-667q-6 25 -7 65q0 100 54 205h669z" />
    <glyph glyph-name="Edotaccent" unicode="&#x116;" horiz-adv-x="1069" 
d="M1042 989h-487l-31 -166h437q10 -193 -54 -307h-436l-35 -190h508q10 -199 -57 -326h-875l232 1315h858q16 -183 -60 -326zM730 1411q-87 0 -148.5 61.5t-61.5 149.5t61.5 148.5t148.5 60.5t148.5 -60.5t61.5 -148.5t-61.5 -149.5t-148.5 -61.5z" />
    <glyph glyph-name="edotaccent" unicode="&#x117;" horiz-adv-x="1064" 
d="M569 739q-117 0 -153 -157q51 -10 139 -17q104 0 104 92q0 35 -22.5 58.5t-67.5 23.5zM527.5 -37q-254.5 0 -378.5 111.5t-124 322.5q0 262 158.5 434.5t408.5 172.5q201 0 311.5 -87.5t110.5 -230.5q0 -90 -39 -155.5t-103 -99.5q-120 -64 -274 -64q-94 0 -201 22
q2 -86 42 -122t149.5 -35.5t242.5 96.5q125 -82 121 -230q-170 -135 -424.5 -135zM631 1081q-88 0 -149.5 62.5t-61.5 150.5t61.5 149.5t149.5 61.5t149.5 -61.5t61.5 -149.5t-61.5 -150.5t-149.5 -62.5z" />
    <glyph glyph-name="Eogonek" unicode="&#x118;" horiz-adv-x="1069" 
d="M713 -143q0 -63 65 -64q35 0 96 41q41 -27 66 -75t14 -105q-117 -104 -282 -105q-98 0 -159.5 49.5t-61.5 130.5t59 154.5t149 116.5h-647l232 1315h858q16 -183 -60 -326h-487l-31 -166h437q10 -193 -54 -307h-436l-35 -190h508q10 -199 -57 -326q-174 -53 -174 -143z
" />
    <glyph glyph-name="eogonek" unicode="&#x119;" horiz-adv-x="1064" 
d="M569 739q-117 0 -153 -157q51 -10 139 -17q104 0 104 92q0 35 -22.5 58.5t-67.5 23.5zM702 -141q0 -66 68 -66q39 0 74 33q86 -47 104 -172q-96 -104 -266 -105q-106 0 -174 49.5t-68 133.5q0 117 107 231h-43q-231 0 -355 111.5t-124 322.5q0 262 158.5 434.5
t408.5 172.5q201 0 311.5 -87.5t110.5 -230.5q0 -90 -39 -155.5t-103 -99.5q-120 -64 -274 -64q-94 0 -201 22q2 -86 42 -122t149.5 -35.5t242.5 96.5q125 -82 121 -230q-45 -35 -90 -57q-160 -94 -160 -182z" />
    <glyph glyph-name="Ecaron" unicode="&#x11a;" horiz-adv-x="1069" 
d="M244 1315h858q16 -182 -60 -326h-487l-31 -166h437q10 -193 -54 -307h-436l-35 -190h508q10 -199 -57 -326h-875zM774 1436q-100 -20 -192 0l-258 229q39 113 137 166l248 -162l295 164q88 -57 104 -168z" />
    <glyph glyph-name="ecaron" unicode="&#x11b;" horiz-adv-x="1064" 
d="M569 739q-117 0 -153 -157q51 -10 139 -17q104 0 104 92q0 35 -22.5 58.5t-67.5 23.5zM527.5 -37q-254.5 0 -378.5 111.5t-124 322.5q0 262 158.5 434.5t408.5 172.5q201 0 311.5 -87.5t110.5 -230.5q0 -90 -39 -155.5t-103 -99.5q-120 -64 -274 -64q-94 0 -201 22
q2 -86 42 -122t149.5 -35.5t242.5 96.5q125 -82 121 -230q-170 -135 -424.5 -135zM668 1073q-80 -14 -162 0l-268 303q41 98 147 146l223 -183l289 183q96 -43 109 -138z" />
    <glyph glyph-name="Gbreve" unicode="&#x11e;" horiz-adv-x="1263" 
d="M666 -35q-297 0 -454 149.5t-157 401.5q0 362 218.5 606t562.5 244q279 0 421 -111q-25 -90 -85 -176t-134 -129q-84 63 -237.5 63.5t-245.5 -121.5t-92 -314q0 -266 242 -267q43 0 86 6l51 289q178 33 356 0l-96 -547q-193 -94 -436 -94zM807.5 1405
q-185.5 0 -282.5 108.5t-68 253.5q94 37 209 29q16 -143 174 -143q61 0 121.5 32.5t87.5 110.5q123 14 190 -29q-25 -150 -135.5 -256t-296 -106z" />
    <glyph glyph-name="gbreve" unicode="&#x11f;" horiz-adv-x="1128" 
d="M561 305q37 0 70 6l67 385q-37 12 -84 13q-82 0 -147.5 -65.5t-65.5 -170.5q0 -168 160 -168zM670.5 1010q269.5 0 433.5 -107l-146 -829q-45 -254 -207.5 -374t-394.5 -120q-324 0 -452 189q20 76 82.5 139t148.5 90q88 -133 253 -133t187 131l5 29q-57 -10 -123 -11
q-190 0 -310 107.5t-120 294.5q0 283 187 438.5t456.5 155.5zM646 1079q-181 0 -270 114t-77 259q96 41 211 29q8 -76 60.5 -114t111.5 -38q160 0 203 152q129 14 205 -31q-14 -139 -138.5 -255t-305.5 -116z" />
    <glyph glyph-name="Gdotaccent" unicode="&#x120;" horiz-adv-x="1263" 
d="M666 -35q-297 0 -454 149.5t-157 401.5q0 362 218.5 606t562.5 244q279 0 421 -111q-25 -90 -85 -176t-134 -129q-84 63 -237.5 63.5t-245.5 -121.5t-92 -314q0 -266 242 -267q43 0 86 6l51 289q178 33 356 0l-96 -547q-193 -94 -436 -94zM851 1411q-87 0 -148.5 61.5
t-61.5 149.5t61.5 148.5t148.5 60.5t148.5 -60.5t61.5 -148.5t-61.5 -149.5t-148.5 -61.5z" />
    <glyph glyph-name="gdotaccent" unicode="&#x121;" horiz-adv-x="1128" 
d="M561 305q37 0 70 6l67 385q-37 12 -84 13q-82 0 -147.5 -65.5t-65.5 -170.5q0 -168 160 -168zM670.5 1010q269.5 0 433.5 -107l-146 -829q-45 -254 -207.5 -374t-394.5 -120q-324 0 -452 189q20 76 82.5 139t148.5 90q88 -133 253 -133t187 131l5 29q-57 -10 -123 -11
q-190 0 -310 107.5t-120 294.5q0 283 187 438.5t456.5 155.5zM690 1081q-88 0 -149.5 62.5t-61.5 150.5t61.5 149.5t149.5 61.5t149.5 -61.5t61.5 -149.5t-61.5 -150.5t-149.5 -62.5z" />
    <glyph glyph-name="Gcommaaccent" unicode="&#x122;" horiz-adv-x="1263" 
d="M498 -182q0 56 -2 76q63 29 144 28.5t132 -26.5q-14 -159 -77.5 -267t-145.5 -166q-98 0 -133 82q82 141 82 273zM666 -35q-297 0 -454 149.5t-157 401.5q0 362 218.5 606t562.5 244q279 0 421 -111q-25 -90 -85 -176t-134 -129q-84 63 -237.5 63.5t-245.5 -121.5
t-92 -314q0 -266 242 -267q43 0 86 6l51 289q178 33 356 0l-96 -547q-193 -94 -436 -94z" />
    <glyph glyph-name="gcommaaccent" unicode="&#x123;" horiz-adv-x="1128" 
d="M561 305q37 0 70 6l67 385q-37 12 -84 13q-82 0 -147.5 -65.5t-65.5 -170.5q0 -168 160 -168zM670.5 1010q269.5 0 433.5 -107l-146 -829q-45 -254 -207.5 -374t-394.5 -120q-324 0 -452 189q20 76 82.5 139t148.5 90q88 -133 253 -133t187 131l5 29q-57 -10 -123 -11
q-190 0 -310 107.5t-120 294.5q0 283 187 438.5t456.5 155.5zM639 1044q-82 0 -129 27q0 2 6 64q18 115 75.5 213t139.5 155q98 0 133 -82q-43 -78 -62.5 -135t-19.5 -125t2 -88q-63 -29 -145 -29z" />
    <glyph glyph-name="Hbar" unicode="&#x126;" horiz-adv-x="1341" 
d="M905 815l15 84h-381l-15 -84h381zM1497 1061q0 -76 -41 -162h-168l-160 -899q-80 -14 -179 -14t-187 14l84 477h-381l-84 -477q-84 -14 -182.5 -14t-186.5 14l158 899h-143q-9 23 -9 81t45 136h144l35 195q84 14 182 14t186 -14l-35 -195h381l35 195q84 14 182.5 14
t186.5 -14l-35 -195h168q4 -28 4 -55z" />
    <glyph glyph-name="hbar" unicode="&#x127;" horiz-adv-x="1120" 
d="M690 1010q201 0 298 -105.5t67 -275.5l-111 -629q-88 -14 -186.5 -14t-182.5 14l97 541q25 139 -88 139q-61 0 -111 -31l-4 2l-115 -651q-84 -14 -182 -14t-186 14l188 1077h-115q-18 86 27 197h123l12 65q85 15 189 15t180 -15l-12 -65h200q12 -102 -26 -197h-209
l-15 -92q74 25 162 25z" />
    <glyph glyph-name="Itilde" unicode="&#x128;" horiz-adv-x="591" 
d="M200 -14q-99 0 -188 14l230 1311q84 14 182 14t186 -14l-231 -1311q-80 -14 -179 -14zM338 1788q63 0 138 -38t99 -38q66 0 101 92q147 0 225 -84q-41 -127 -128 -205.5t-167 -78.5t-152.5 36.5t-84.5 36.5q-72 0 -103 -90q-59 0 -128.5 21.5t-96.5 62.5q37 131 120 208
t177 77z" />
    <glyph glyph-name="itilde" unicode="&#x129;" horiz-adv-x="538" 
d="M170 -14q-98 0 -186 14l174 975q84 14 182 14t184 -14l-172 -975q-84 -14 -182 -14zM268 1487q57 0 119 -38t92 -38q76 0 101 86q147 0 225 -84q-35 -129 -116 -203.5t-169 -74.5q-53 0 -116.5 36.5t-94.5 36.5q-71 0 -106 -96q-59 0 -129 21.5t-97 62.5q37 133 119 212
t172 79z" />
    <glyph glyph-name="Imacron" unicode="&#x12a;" horiz-adv-x="591" 
d="M200 -14q-99 0 -188 14l230 1311q84 14 182 14t186 -14l-231 -1311q-80 -14 -179 -14zM152 1491q-12 47 -2 114.5t38 123.5h600q12 -117 -36 -238h-600z" />
    <glyph glyph-name="imacron" unicode="&#x12b;" horiz-adv-x="538" 
d="M170 -14q-98 0 -186 14l174 975q84 14 182 14t184 -14l-172 -975q-84 -14 -182 -14zM100 1241.5q0 76.5 41 177.5h535q2 -12 2 -82.5t-39 -187.5h-535q-4 16 -4 92.5z" />
    <glyph glyph-name="Iogonek" unicode="&#x12e;" horiz-adv-x="591" 
d="M131 -141q0 -66 73 -66q34 0 87 35q96 -51 100 -176q-119 -102 -282 -103q-106 0 -173 55.5t-67 145.5q0 141 143 250l230 1311q84 14 182 14t186 -14l-231 -1311q-23 -4 -64 -8q-184 -33 -184 -133z" />
    <glyph glyph-name="iogonek" unicode="&#x12f;" horiz-adv-x="538" 
d="M177 -207q34 0 87 35q96 -51 101 -176q-119 -102 -283 -103q-106 0 -173 55.5t-67 145.5q0 139 142 250l174 975q84 14 182 14t184 -14l-172 -975q-20 -4 -30 -4q-217 -37 -218 -137q0 -66 73 -66zM395 1505q88 0 149.5 -61.5t61.5 -149.5t-61.5 -150.5t-149.5 -62.5
t-150.5 62.5t-62.5 150.5t62.5 149.5t150.5 61.5z" />
    <glyph glyph-name="Idotaccent" unicode="&#x130;" horiz-adv-x="591" 
d="M200 -14q-99 0 -188 14l230 1311q84 14 182 14t186 -14l-231 -1311q-80 -14 -179 -14zM476 1411q-87 0 -148.5 61.5t-61.5 149.5t61.5 148.5t148.5 60.5t148.5 -60.5t61.5 -148.5t-61.5 -149.5t-148.5 -61.5z" />
    <glyph glyph-name="dotlessi" unicode="&#x131;" horiz-adv-x="538" 
d="M170 -14q-98 0 -186 14l174 975q84 14 182 14t184 -14l-172 -975q-84 -14 -182 -14z" />
    <glyph glyph-name="IJ" unicode="&#x132;" horiz-adv-x="1222" 
d="M571 -66q-209 0 -299 101q16 96 76 180t139 125q45 -59 121 -59q90 0 111 104l164 926q84 14 182 14t186 -14l-161 -916q-34 -201 -172 -331t-347 -130zM258 393q-98 0 -186 15l157 903q85 14 183 14t186 -14l-158 -903q-84 -15 -182 -15z" />
    <glyph glyph-name="ij" unicode="&#x133;" horiz-adv-x="1097" 
d="M471 -410q-162 0 -252 76q0 72 41 146.5t98 111.5q31 -31 86 -30q78 0 99 114l170 967q84 14 181 14t189 -14l-168 -948q-39 -223 -138 -330t-306 -107zM170 -14q-98 0 -186 14l174 975q84 14 182 14t184 -14l-172 -975q-84 -14 -182 -14zM942 1081q-88 0 -149.5 62.5
t-61.5 150.5t61.5 149.5t149.5 61.5t149.5 -61.5t61.5 -149.5t-61.5 -150.5t-149.5 -62.5zM395 1081q-88 0 -149.5 62.5t-61.5 150.5t61.5 149.5t149.5 61.5t149.5 -61.5t61.5 -149.5t-61.5 -150.5t-149.5 -62.5z" />
    <glyph glyph-name="Kcommaaccent" unicode="&#x136;" horiz-adv-x="1286" 
d="M399 -182q0 56 -2 76q63 29 144.5 28.5t132.5 -26.5q-14 -159 -78 -267t-145 -166q-98 0 -134 82q82 141 82 273zM198.5 -14q-98.5 0 -186.5 14l232 1311q80 14 179 14t187 -14l-80 -461q229 176 443 469q88 6 207 6t221 -12q-266 -371 -598 -643q131 -250 475 -652
q-111 -27 -252 -26.5t-207 8.5q-182 211 -307 453q-18 -12 -59 -37l-72 -416q-84 -14 -182.5 -14z" />
    <glyph glyph-name="kcommaaccent" unicode="&#x137;" horiz-adv-x="1177" 
d="M315 -182q0 56 -2 76q63 29 144.5 28.5t132.5 -26.5q-14 -159 -77.5 -267t-145.5 -166q-98 0 -134 82q82 141 82 273zM1122 715q0 -233 -207 -377l144 -322q-90 -29 -233.5 -28.5t-192.5 6.5l-117 289q-23 57 -10 110q115 8 175 54.5t60 121.5q0 115 -159 115
q-49 0 -111 -14l-119 -670q-84 -14 -181 -14t-185 14l235 1339q187 31 369 0l-62 -348q92 16 181 17q195 0 304 -76t109 -217z" />
    <glyph glyph-name="kgreenlandic" unicode="&#x138;" horiz-adv-x="1128" 
d="M172 -14q-98 0 -186 14l170 963q84 14 182 14t186 -14l-55 -314q184 137 297 316q61 6 193.5 5.5t232.5 -14.5q-223 -303 -447 -481l312 -463q-72 -29 -226.5 -28.5t-214.5 6.5l-184 286q-10 -6 -31 -14l-47 -262q-84 -14 -182 -14z" />
    <glyph glyph-name="Lacute" unicode="&#x139;" horiz-adv-x="976" 
d="M899 332q0 -203 -59 -332h-828l232 1315q102 16 188 16t180 -16l-174 -983h461zM805 1559l-526 -193q-66 66 -84 158l460 327q138 -108 150 -292z" />
    <glyph glyph-name="lacute" unicode="&#x13a;" horiz-adv-x="643" 
d="M299 -33q-274 0 -274 221q0 70 14 152l176 999q208 31 369 0l-172 -972q-4 -20 -4 -35q0 -31 32 -31q14 0 27 12q104 -94 94 -276q-104 -70 -262 -70zM211 1366q-66 66 -84 158l461 327q137 -109 149 -292z" />
    <glyph glyph-name="Lcommaaccent" unicode="&#x13b;" horiz-adv-x="976" 
d="M311 -182q0 56 -2 76q63 29 144.5 28.5t132.5 -26.5q-14 -159 -78 -267t-146 -166q-98 0 -133 82q82 141 82 273zM899 332q0 -203 -59 -332h-828l232 1315q102 16 188 16t180 -16l-174 -983h461z" />
    <glyph glyph-name="lcommaaccent" unicode="&#x13c;" horiz-adv-x="643" 
d="M117 -182q0 55 -2 76q63 29 144 28.5t132 -26.5q-14 -159 -77.5 -267.5t-145.5 -165.5q-98 0 -133 82q82 141 82 273zM299 -33q-274 0 -274 221q0 70 14 152l176 999q208 31 369 0l-172 -972q-4 -20 -4 -35q0 -31 32 -31q14 0 27 12q104 -94 94 -276q-104 -70 -262 -70z
" />
    <glyph glyph-name="Lcaron" unicode="&#x13d;" horiz-adv-x="976" 
d="M899 332q0 -203 -59 -332h-828l232 1315q102 16 188 16t180 -16l-174 -983h461zM937 1479q85 0 134 -31v-33q0 -145 -71.5 -267t-163.5 -192q-37 0 -72 21.5t-47 50.5q27 53 40 85q36 89 36 191.5t-9 141.5q68 33 153 33z" />
    <glyph glyph-name="lcaron" unicode="&#x13e;" horiz-adv-x="643" 
d="M299 -33q-274 0 -274 221q0 70 14 152l176 999q208 31 369 0l-172 -972q-4 -20 -4 -35q0 -31 32 -31q14 0 27 12q104 -94 94 -276q-104 -70 -262 -70zM702 1335.5q0 71.5 -8 110.5q68 33 153 33t134 -31v-33q0 -145 -72 -267t-164 -192q-37 0 -71.5 21.5t-46.5 50.5
q27 53 40 85t24 91.5t11 131z" />
    <glyph glyph-name="Ldot" unicode="&#x13f;" horiz-adv-x="991" 
d="M803 885q78 0 131 -53.5t53 -131t-54 -132t-131 -54.5t-131.5 54.5t-54.5 131t54.5 131t132.5 54.5zM899 332q0 -203 -59 -332h-828l232 1315q102 16 188 16t180 -16l-174 -983h461z" />
    <glyph glyph-name="ldot" unicode="&#x140;" horiz-adv-x="776" 
d="M665.5 514q-75.5 0 -130 54.5t-54.5 132t54.5 131t130 53.5t130 -53.5t54.5 -131t-54.5 -132t-130 -54.5zM299 -33q-274 0 -274 221q0 70 14 152l176 999q208 31 369 0l-172 -972q-4 -20 -4 -35q0 -31 32 -31q14 0 27 12q104 -94 94 -276q-104 -70 -262 -70z" />
    <glyph glyph-name="Lslash" unicode="&#x141;" horiz-adv-x="976" 
d="M899 332q0 -203 -59 -332h-828l84 477l-88 -45q-47 27 -72.5 80t-15.5 100l219 111l105 592q102 16 188 16t180 -16l-69 -387l98 49q90 -76 80 -182l-221 -113l-62 -350h461z" />
    <glyph glyph-name="lslash" unicode="&#x142;" horiz-adv-x="643" 
d="M408 332q0 -31 32 -31q14 0 27 12q104 -94 94 -276q-104 -70 -262 -70q-274 0 -274 221q0 70 14 152l35 195l-97 -48q-45 27 -69.5 78t-13.5 97l221 108l100 569q208 31 369 0l-66 -370l74 37q86 -78 76 -179l-191 -94l-65 -366q-4 -20 -4 -35z" />
    <glyph glyph-name="Nacute" unicode="&#x143;" horiz-adv-x="1363" 
d="M1203 1325q91 0 179 -14l-229 -1307q-176 -31 -362 -16l-265 655l-28 76l-11 -111l-106 -608q-115 -14 -180 -14t-189 14l230 1305q154 41 362 18l287 -760l10 113l113 635q98 14 189 14zM1153 1559l-526 -193q-66 66 -84 158l461 327q137 -108 149 -292z" />
    <glyph glyph-name="nacute" unicode="&#x144;" horiz-adv-x="1120" 
d="M639 1010q211 0 315.5 -85t104.5 -239q0 -43 -10 -100l-103 -586q-92 -14 -190 -14t-178 14l94 539q4 29 4 49q0 92 -101 92q-53 0 -106 -14l-117 -666q-88 -14 -186 -14t-182 14l159 903q207 107 496 107zM473 1051q-74 47 -92 129l381 374q147 -84 196 -264z" />
    <glyph glyph-name="Ncommaaccent" unicode="&#x145;" horiz-adv-x="1363" 
d="M436 -182q0 56 -2 76q63 29 144.5 28.5t132.5 -26.5q-14 -157 -78 -266t-146 -167q-98 0 -133 82q82 141 82 273zM1203 1325q91 0 179 -14l-229 -1307q-176 -31 -362 -16l-265 655l-28 76l-11 -111l-106 -608q-115 -14 -180 -14t-189 14l230 1305q154 41 362 18l287 -760
l10 113l113 635q98 14 189 14z" />
    <glyph glyph-name="ncommaaccent" unicode="&#x146;" horiz-adv-x="1120" 
d="M309 -182q0 56 -2 76q63 29 144.5 28.5t132.5 -26.5q-14 -157 -78 -266t-146 -167q-98 0 -133 82q82 141 82 273zM639 1010q211 0 315.5 -85t104.5 -239q0 -43 -10 -100l-103 -586q-92 -14 -190 -14t-178 14l94 539q4 29 4 49q0 92 -101 92q-53 0 -106 -14l-117 -666
q-88 -14 -186 -14t-182 14l159 903q207 107 496 107z" />
    <glyph glyph-name="Ncaron" unicode="&#x147;" horiz-adv-x="1363" 
d="M1203 1325q91 0 179 -14l-229 -1307q-176 -31 -362 -16l-265 655l-28 76l-11 -111l-106 -608q-115 -14 -180 -14t-189 14l230 1305q154 41 362 18l287 -760l10 113l113 635q98 14 189 14zM915 1436q-100 -20 -192 0l-258 229q39 113 137 166l248 -162l295 164
q88 -57 104 -168z" />
    <glyph glyph-name="ncaron" unicode="&#x148;" horiz-adv-x="1120" 
d="M639 1010q211 0 315.5 -85t104.5 -239q0 -43 -10 -100l-103 -586q-92 -14 -190 -14t-178 14l94 539q4 29 4 49q0 92 -101 92q-53 0 -106 -14l-117 -666q-88 -14 -186 -14t-182 14l159 903q207 107 496 107zM696 1073q-80 -14 -161 0l-269 303q41 98 148 146l223 -183
l289 183q96 -43 108 -138z" />
    <glyph glyph-name="napostrophe" unicode="&#x149;" horiz-adv-x="1288" 
d="M807 1010q211 0 315.5 -85t104.5 -239q0 -43 -10 -100l-103 -586q-92 -14 -190 -14t-179 14l95 539q4 29 4 49q0 92 -101 92q-53 0 -106 -14l-117 -666q-88 -14 -186 -14t-182 14l159 903q207 107 496 107zM459 1348q0 -137 -79 -272.5t-187 -213.5q-39 2 -74 21.5
t-47 52.5q111 182 110 338q0 84 -14 125q70 37 160 37t127 -19q4 -28 4 -69z" />
    <glyph glyph-name="Eng" unicode="&#x14a;" horiz-adv-x="1363" 
d="M618 -469q-98 0 -178 28.5t-118 71.5q16 96 76.5 180.5t138.5 125.5q49 -59 120 -60q92 0 113 107l6 39l-250 620l-28 76l-11 -111l-106 -608q-115 -14 -180 -14t-189 14l230 1305q154 41 362 18l287 -760l10 113l113 635q98 14 189 14t179 -14l-229 -1307l-12 -2l-2 -10
q-35 -201 -172.5 -331t-348.5 -130z" />
    <glyph glyph-name="eng" unicode="&#x14b;" horiz-adv-x="1120" 
d="M639 1010q211 0 315.5 -85t104.5 -239q0 -43 -10 -100l-109 -621q-33 -190 -171 -304q-139 -114 -317 -114t-272 95q8 70 60.5 139t121.5 108q38 -41 92 -41t81.5 36t42.5 114l94 541q4 29 4 51q0 90 -101 90q-53 0 -106 -14l-117 -666q-88 -14 -186 -14t-182 14l159 903
q207 107 496 107z" />
    <glyph glyph-name="Omacron" unicode="&#x14c;" horiz-adv-x="1415" 
d="M684 309q141 0 219 119t78 315q0 268 -215 269q-141 0 -220 -118t-79 -316q0 -269 217 -269zM643 -39q-268 0 -425 150.5t-157 423.5q0 375 209 600t537 225q268 0 423.5 -149.5t155.5 -422.5q0 -375 -207.5 -601t-535.5 -226zM487 1491q-12 49 0.5 114.5t42.5 123.5h666
q12 -123 -41 -238h-668z" />
    <glyph glyph-name="omacron" unicode="&#x14d;" horiz-adv-x="1122" 
d="M524 266q86 0 129 80t43 199q0 162 -125 162q-82 0 -127 -79t-49 -194q0 -168 129 -168zM500 -39q-221 0 -347 114.5t-126 323.5q0 276 154.5 444.5t394 168.5t364.5 -116t125 -325q0 -276 -152.5 -443t-412.5 -167zM995 1419v-53q0 -104 -49 -217h-667q-6 25 -7 65
q0 100 54 205h669z" />
    <glyph glyph-name="Ohungarumlaut" unicode="&#x150;" horiz-adv-x="1415" 
d="M684 309q141 0 219 119t78 315q0 268 -215 269q-141 0 -220 -118t-79 -316q0 -269 217 -269zM643 -39q-268 0 -425 150.5t-157 423.5q0 375 209 600t537 225q268 0 423.5 -149.5t155.5 -422.5q0 -375 -207.5 -601t-535.5 -226zM516 1368q-78 23 -119 102l269 369
q156 -16 188 -164zM936 1366q-82 23 -119 100l260 375q158 -16 193 -162z" />
    <glyph glyph-name="ohungarumlaut" unicode="&#x151;" horiz-adv-x="1122" 
d="M524 266q86 0 129 80t43 199q0 162 -125 162q-82 0 -127 -79t-49 -194q0 -168 129 -168zM500 -39q-221 0 -347 114.5t-126 323.5q0 276 154.5 444.5t394.5 168.5t364.5 -116t124.5 -325q0 -276 -152.5 -443t-412.5 -167zM696 1053q-78 37 -114 125l288 368
q158 -49 187 -203zM324 1051q-78 35 -121 118l276 379q76 -20 128 -71.5t69 -122.5z" />
    <glyph glyph-name="OE" unicode="&#x152;" horiz-adv-x="1699" 
d="M463 582q0 -117 58.5 -184.5t160.5 -67.5q39 0 76 6l114 653q-45 4 -69 4q-160 0 -250 -107t-90 -304zM1735 1315v-51q0 -100 -11.5 -143.5t-15.5 -56.5t-17.5 -43t-13.5 -32h-436l-29 -162h381v-53q-1 -139 -33 -211q-4 -10 -13 -31.5t-11 -25.5h-381l-33 -180h455
q2 -8 2 -53.5t-3 -83t-11.5 -68.5t-13.5 -46.5t-17 -42t-14 -32.5h-719q-100 -18 -197 -18q-246 0 -396.5 150.5t-150.5 402.5q0 362 228.5 584t578.5 222q106 1 215 -26h656z" />
    <glyph glyph-name="oe" unicode="&#x153;" horiz-adv-x="1705" 
d="M514 266q146 0 162 250q14 190 -117 191q-70 0 -111.5 -68t-49.5 -170q-14 -203 116 -203zM1208 725q-106 0 -143 -137q66 -10 123 -10q106 0 106 81q0 25 -22.5 45.5t-63.5 20.5zM1200.5 -37q-241.5 0 -373.5 127q-137 -127 -344 -127t-331.5 119t-124.5 336
q0 266 157.5 429t409.5 163q207 0 315 -138q147 131 348 132q385 0 385 -332q0 -110 -72 -182q-130 -130 -423 -130q-45 0 -100 9q6 -66 44.5 -95.5t116.5 -29.5q138 0 273 90q61 -41 89.5 -106.5t16.5 -137.5q-145 -127 -386.5 -127z" />
    <glyph glyph-name="Racute" unicode="&#x154;" horiz-adv-x="1228" 
d="M623 725q92 0 139 46t47 128q0 131 -147 131q-68 0 -103 -2l-53 -303h117zM1194 981q0 -180 -89 -308t-247 -192q160 -293 301 -467q-104 -29 -317 -28q-53 0 -76 2q-160 229 -250 438h-61l-76 -426q-84 -14 -182.5 -14t-186.5 14l228 1294q219 43 452 43q504 0 504 -356
zM1051 1559l-527 -193q-66 66 -84 158l461 327q138 -108 150 -292z" />
    <glyph glyph-name="racute" unicode="&#x155;" horiz-adv-x="731" 
d="M513 1014q204 0 275 -41q-16 -180 -129 -305q-35 14 -91 14t-101 -27l-115 -655q-88 -14 -186 -14t-182 14l159 903q166 111 370 111zM346 1051q-74 47 -92 129l381 374q147 -84 196 -264z" />
    <glyph glyph-name="Rcommaaccent" unicode="&#x156;" horiz-adv-x="1228" 
d="M412 -182q0 56 -2 76q63 29 144 28.5t132 -26.5q-14 -159 -77.5 -267t-145.5 -166q-98 0 -133 82q82 141 82 273zM623 725q92 0 139 46t47 128q0 131 -147 131q-68 0 -103 -2l-53 -303h117zM1194 981q0 -180 -89 -308t-247 -192q160 -293 301 -467q-104 -29 -317 -28
q-53 0 -76 2q-160 229 -250 438h-61l-76 -426q-84 -14 -182.5 -14t-186.5 14l228 1294q219 43 452 43q504 0 504 -356z" />
    <glyph glyph-name="rcommaaccent" unicode="&#x157;" horiz-adv-x="731" 
d="M20 -106q63 29 144.5 28.5t132.5 -26.5q-14 -159 -77.5 -267t-145.5 -166q-98 0 -133 82q43 78 67.5 150t11.5 199zM513.5 1014q203.5 0 274.5 -41q-16 -180 -129 -305q-35 14 -91 14t-101 -27l-115 -655q-88 -14 -186 -14t-182 14l159 903q167 111 370.5 111z" />
    <glyph glyph-name="Rcaron" unicode="&#x158;" horiz-adv-x="1228" 
d="M623 725q92 0 139 46t47 128q0 131 -147 131q-68 0 -103 -2l-53 -303h117zM1194 981q0 -180 -89 -308t-247 -192q160 -293 301 -467q-104 -29 -317 -28q-53 0 -76 2q-160 229 -250 438h-61l-76 -426q-84 -14 -182.5 -14t-186.5 14l228 1294q219 43 452 43q504 0 504 -356
zM813 1436q-100 -20 -192 0l-259 229q39 113 138 166l248 -162l294 164q88 -57 105 -168z" />
    <glyph glyph-name="rcaron" unicode="&#x159;" horiz-adv-x="731" 
d="M513 1014q204 0 275 -41q-16 -180 -129 -305q-35 14 -91 14t-101 -27l-115 -655q-88 -14 -186 -14t-182 14l159 903q166 111 370 111zM569 1073q-80 -14 -161 0l-269 303q41 98 148 146l223 -183l289 183q96 -43 108 -138z" />
    <glyph glyph-name="Sacute" unicode="&#x15a;" horiz-adv-x="1132" 
d="M483 -33q-354 0 -520 158q20 96 76.5 177t132.5 120q57 -51 154.5 -84t193.5 -33t128 19.5t32 56.5t-40 59.5t-100.5 37t-130 43t-130 65.5t-100.5 112.5t-40 180.5q0 209 160 340t420 131q164 0 282.5 -42t172.5 -96q-20 -90 -75 -169.5t-132 -122.5q-121 86 -291 86
t-170 -66q0 -52 138 -83t266 -111q62 -38 101.5 -116.5t39.5 -183.5q0 -213 -157 -346t-411 -133zM553 1366q-66 66 -84 158l461 327q137 -109 149 -292z" />
    <glyph glyph-name="sacute" unicode="&#x15b;" horiz-adv-x="978" 
d="M360 -39q-141 0 -250.5 38t-160.5 89q49 168 170 242q137 -100 287 -101q102 0 102 47q0 27 -44 46.5t-106.5 37t-124 45t-105.5 89t-44 151.5q6 170 148.5 264.5t336.5 94.5q266 0 412 -97q-51 -178 -160 -250q-45 29 -127 52.5t-158 23.5t-77 -47q0 -23 44 -38
t106.5 -31.5t125 -43t106.5 -90t44 -155.5q0 -166 -132.5 -266.5t-392.5 -100.5zM457 1051q-74 47 -92 129l380 374q147 -84 197 -264z" />
    <glyph glyph-name="Scedilla" unicode="&#x15e;" horiz-adv-x="1132" 
d="M506 940q0 -52 138 -83t266 -111q62 -38 101.5 -116.5t39.5 -183.5q0 -197 -133.5 -324.5t-354.5 -150.5l-22 -45q156 -27 155 -145q0 -133 -96 -195.5t-221 -62.5q-68 0 -130.5 18.5t-88.5 44.5q12 102 98 162q35 -29 77 -29q87 0 87 70q0 55 -113 59l66 123
q-272 23 -412 154q20 96 76.5 177t132.5 120q57 -51 154.5 -84t193.5 -33t128 19.5t32 56.5t-40 59.5t-100.5 37t-130 43t-130 65.5t-100.5 112.5t-40 180.5q0 209 160 340t420 131q164 0 282.5 -42t172.5 -96q-20 -90 -75 -169.5t-132 -122.5q-121 86 -291 86t-170 -66z
" />
    <glyph glyph-name="scedilla" unicode="&#x15f;" horiz-adv-x="978" 
d="M459 686q0 -23 44 -38t106.5 -31.5t125 -43t106.5 -90t44 -155.5q0 -147 -105.5 -244.5t-316.5 -118.5l-21 -39q156 -27 156 -145q0 -133 -96 -195.5t-221 -62.5q-68 0 -130.5 18.5t-89.5 44.5q12 102 99 162q35 -29 77 -29q87 0 87 70q0 55 -113 59l61 117
q-219 23 -323 123q49 168 170 242q137 -100 287 -101q102 0 102 47q0 27 -44 46.5t-106.5 37t-124 45t-105.5 89t-44 151.5q6 170 148.5 264.5t336.5 94.5q266 0 412 -97q-51 -178 -160 -250q-45 29 -127 52.5t-158.5 23.5t-76.5 -47z" />
    <glyph glyph-name="Scaron" unicode="&#x160;" horiz-adv-x="1132" 
d="M483 -33q-354 0 -520 158q20 96 76.5 177t132.5 120q57 -51 154.5 -84t193.5 -33t128 19.5t32 56.5t-40 59.5t-100.5 37t-130 43t-130 65.5t-100.5 112.5t-40 180.5q0 209 160 340t420 131q164 0 282.5 -42t172.5 -96q-20 -90 -75 -169.5t-132 -122.5q-121 86 -291 86
t-170 -66q0 -52 138 -83t266 -111q62 -38 101.5 -116.5t39.5 -183.5q0 -213 -157 -346t-411 -133zM649 1436l-258 229q39 113 137 166l248 -162l295 164q88 -57 105 -168l-334 -229q-101 -20 -193 0z" />
    <glyph glyph-name="scaron" unicode="&#x161;" horiz-adv-x="978" 
d="M360 -39q-141 0 -250.5 38t-160.5 89q49 168 170 242q137 -100 287 -101q102 0 102 47q0 27 -44 46.5t-106.5 37t-124 45t-105.5 89t-44 151.5q6 170 148.5 264.5t336.5 94.5q266 0 412 -97q-51 -178 -160 -250q-45 29 -127 52.5t-158 23.5t-77 -47q0 -23 44 -38
t106.5 -31.5t125 -43t106.5 -90t44 -155.5q0 -166 -132.5 -266.5t-392.5 -100.5zM518 1073l-268 303q41 98 147 146l224 -183l288 183q96 -43 109 -138l-338 -311q-80 -14 -162 0z" />
    <glyph glyph-name="uni0162" unicode="&#x162;" horiz-adv-x="1105" 
d="M676 -219q0 -133 -96.5 -195.5t-221.5 -62.5q-68 0 -130 18.5t-89 44.5q12 102 99 162q35 -29 77 -29q86 0 86 70q0 55 -112 59l73 140q-47 2 -94 12l174 989h-329q0 195 57 326h1028q0 -195 -57 -326h-330l-174 -989q-57 -8 -84 -10l-33 -64q156 -27 156 -145z" />
    <glyph glyph-name="uni0163" unicode="&#x163;" horiz-adv-x="915" 
d="M39 653q0 148 53 303h172l45 254q208 31 369 0l-45 -254h274l2 -49q0 -102 -55 -254h-274l-45 -256q-6 -23 -7 -51q0 -68 76 -67q49 0 105 40q53 -33 90 -101t37 -140q-113 -86 -277 -105l-24 -47q156 -27 155 -145q0 -133 -96 -195.5t-221 -62.5q-68 0 -130.5 18.5
t-88.5 44.5q12 102 98 162q35 -29 77 -29q87 0 87 70q0 55 -113 59l68 127q-223 41 -224 271q0 49 9 96l55 311h-172z" />
    <glyph glyph-name="Tcaron" unicode="&#x164;" horiz-adv-x="1105" 
d="M1198 1315q0 -195 -57 -326h-330l-174 -989q-102 -16 -188 -16t-181 16l174 989h-329q0 195 57 326h1028zM782 1436q-100 -20 -192 0l-258 229q39 113 137 166l248 -162l295 164q88 -57 104 -168z" />
    <glyph glyph-name="tcaron" unicode="&#x165;" horiz-adv-x="915" 
d="M39 653q0 148 53 303h172l45 254q208 31 369 0l-45 -254h274l2 -49q0 -102 -55 -254h-274l-45 -256q-6 -23 -7 -51q0 -68 76 -67q49 0 105 40q53 -33 90 -101t37 -140q-143 -111 -365 -111q-147 0 -235.5 66.5t-88.5 212.5q0 49 9 96l55 311h-172zM1013 1479
q85 0 134 -31v-33q0 -145 -71.5 -267t-164.5 -192q-37 0 -71.5 21.5t-46.5 50.5q27 53 51 112t24 163t-8 143q68 33 153 33z" />
    <glyph glyph-name="Tbar" unicode="&#x166;" horiz-adv-x="1105" 
d="M449 -16q-86 0 -181 16l84 473h-159q-18 94 26 215h170l53 301h-329q0 195 57 326h1028q0 -195 -57 -326h-330l-53 -301h153q12 -113 -26 -215h-164l-84 -473q-102 -16 -188 -16z" />
    <glyph glyph-name="tbar" unicode="&#x167;" horiz-adv-x="915" 
d="M39 653q0 148 53 303h172l45 254q208 31 369 0l-45 -254h274l2 -49q0 -102 -55 -254h-274l-15 -80h185q12 -102 -27 -196h-193q-2 -8 -2 -31q0 -68 76 -67q49 0 105 40q53 -33 90 -101t37 -140q-143 -111 -365 -111q-147 0 -235.5 66.5t-88.5 212.5q0 49 9 96l6 35h-131
q-18 86 26 196h140l14 80h-172z" />
    <glyph glyph-name="Utilde" unicode="&#x168;" horiz-adv-x="1320" 
d="M588 -39q-251 0 -380.5 108.5t-129.5 317.5q0 72 14 143l137 781q84 14 181.5 14t185.5 -14l-135 -772q-6 -37 -6 -66q0 -84 44 -129t128 -45t146.5 61.5t82.5 178.5l135 772q84 14 179 14t184 -14l-135 -766q-47 -279 -213.5 -431.5t-417.5 -152.5zM709 1788
q76 0 164 -38t114 -38q80 0 96 92q154 0 236 -69q-27 -145 -119 -222t-215 -77q-70 0 -159 36.5t-126 36.5q-79 0 -102 -90q-68 0 -130 22.5t-95 61.5q25 131 120 208t216 77z" />
    <glyph glyph-name="utilde" unicode="&#x169;" horiz-adv-x="1114" 
d="M917.5 977q98.5 0 182.5 -14l-160 -912q-55 -29 -195.5 -58.5t-326 -29.5t-284.5 82t-99 246q0 59 12 131l96 541q88 14 186.5 14t184.5 -14l-94 -531q-8 -46 -8 -78q0 -76 112 -75q41 0 88 10l119 674q88 14 186.5 14zM786 1403q66 0 101 88q152 0 233 -88
q-90 -272 -309 -273q-82 -2 -156.5 36t-111.5 38q-70 0 -107 -98q-59 0 -128.5 22.5t-98.5 65.5q41 135 120 210t175 76t172 -38t110 -39z" />
    <glyph glyph-name="Umacron" unicode="&#x16a;" horiz-adv-x="1320" 
d="M588 -39q-251 0 -380.5 108.5t-129.5 317.5q0 72 14 143l137 781q84 14 181.5 14t185.5 -14l-135 -772q-6 -37 -6 -66q0 -84 44 -129t128 -45t146.5 61.5t82.5 178.5l135 772q84 14 179 14t184 -14l-135 -766q-47 -279 -213.5 -431.5t-417.5 -152.5zM494 1491
q-12 49 0 114.5t43 123.5h665q12 -123 -41 -238h-667z" />
    <glyph glyph-name="umacron" unicode="&#x16b;" horiz-adv-x="1114" 
d="M918 977q98 0 182 -14l-160 -912q-55 -29 -195.5 -58.5t-326 -29.5t-284.5 82t-99 246q0 59 12 131l96 541q88 14 186.5 14t184.5 -14l-94 -531q-8 -46 -8 -78q0 -76 112 -75q41 0 88 10l119 674q89 14 187 14zM303 1214q0 100 53 205h670v-53q0 -104 -49 -217h-668
q-6 25 -6 65z" />
    <glyph glyph-name="Uring" unicode="&#x16e;" horiz-adv-x="1320" 
d="M588 -39q-251 0 -380.5 108.5t-129.5 317.5q0 72 14 143l137 781q84 14 181.5 14t185.5 -14l-135 -772q-6 -37 -6 -66q0 -84 44 -129t128 -45t146.5 61.5t82.5 178.5l135 772q84 14 179 14t184 -14l-135 -766q-47 -279 -213.5 -431.5t-417.5 -152.5zM842 1538q84 0 84 94
q0 33 -20.5 54.5t-58.5 21.5t-59.5 -26.5t-21.5 -63.5t20.5 -58.5t55.5 -21.5zM837 1368q-117 0 -186 58.5t-69 174t80.5 194.5t192.5 79t183.5 -57.5t71.5 -174t-78 -195.5t-195 -79z" />
    <glyph glyph-name="uring" unicode="&#x16f;" horiz-adv-x="1114" 
d="M918 977q98 0 182 -14l-160 -912q-55 -29 -195.5 -58.5t-326 -29.5t-284.5 82t-99 246q0 59 12 131l96 541q88 14 186.5 14t184.5 -14l-94 -531q-8 -46 -8 -78q0 -76 112 -75q41 0 88 10l119 674q89 14 187 14zM668 1386q-37 0 -59.5 -25.5t-22.5 -63.5t21.5 -59
t54.5 -21q84 0 83 94q0 35 -20 55t-57 20zM657 1049q-117 0 -186.5 58t-69.5 174t81 194.5t193 78.5t183.5 -58t71.5 -175t-78 -194.5t-195 -77.5z" />
    <glyph glyph-name="Uhungarumlaut" unicode="&#x170;" horiz-adv-x="1320" 
d="M588 -39q-251 0 -380.5 108.5t-129.5 317.5q0 72 14 143l137 781q84 14 181.5 14t185.5 -14l-135 -772q-6 -37 -6 -66q0 -84 44 -129t128 -45t146.5 61.5t82.5 178.5l135 772q84 14 179 14t184 -14l-135 -766q-47 -279 -213.5 -431.5t-417.5 -152.5zM522 1368
q-78 23 -119 102l269 369q156 -16 188 -164zM942 1366q-82 23 -119 100l260 375q158 -16 193 -162z" />
    <glyph glyph-name="uhungarumlaut" unicode="&#x171;" horiz-adv-x="1114" 
d="M918 977q98 0 182 -14l-160 -912q-55 -29 -195.5 -58.5t-326 -29.5t-284.5 82t-99 246q0 59 12 131l96 541q88 14 186.5 14t184.5 -14l-94 -531q-8 -46 -8 -78q0 -76 112 -75q41 0 88 10l119 674q89 14 187 14zM727 1053q-78 37 -115 125l289 368q158 -49 186 -203z
M354 1051q-78 35 -121 118l277 379q76 -20 128 -71.5t69 -122.5z" />
    <glyph glyph-name="Uogonek" unicode="&#x172;" horiz-adv-x="1320" 
d="M1170 1325q95 0 184 -14l-135 -766q-59 -348 -295 -494h4q-176 -100 -176 -192q0 -66 67 -66q39 0 74 33q86 -47 104 -172q-96 -104 -266 -105q-106 0 -174 49.5t-68 133.5q0 117 105 229h-19q-238 0 -367.5 108.5t-129.5 317.5q0 72 14 143l137 781q84 14 181.5 14
t185.5 -14l-135 -772q-6 -37 -6 -66q0 -84 44 -129t128 -45t146.5 61.5t82.5 178.5l135 772q84 14 179 14z" />
    <glyph glyph-name="uogonek" unicode="&#x173;" horiz-adv-x="1114" 
d="M500 -268q0 123 114 241q-88 -10 -170 -10q-211 0 -310 82t-99 246q0 59 12 131l96 541q88 14 186.5 14t184.5 -14l-94 -531q-8 -46 -8 -78q0 -76 112 -75q41 0 88 10l119 674q88 14 186.5 14t182.5 -14l-160 -912l-12 -6q-166 -98 -166 -186q0 -66 67 -66q39 0 74 33
q86 -47 105 -172q-96 -104 -267 -105q-106 0 -173.5 49.5t-67.5 133.5z" />
    <glyph glyph-name="Wcircumflex" unicode="&#x174;" horiz-adv-x="1947" 
d="M490 -10q-120 0 -216 14q-147 573 -131 1299q196 34 412 20q-41 -528 8 -997q258 535 344 952q104 16 192.5 16t186.5 -16q0 -551 45 -952q215 451 350 997q37 4 84 4q225 0 291 -24q-287 -866 -586 -1299q-82 -14 -195.5 -14t-201.5 14q-57 260 -57 649v62
q-8 -24 -8 -33q-82 -328 -324 -678q-74 -14 -194 -14zM856 1409q-92 57 -106 166l335 227q98 20 193 0l258 -227q-39 -113 -137 -166l-248 162z" />
    <glyph glyph-name="wcircumflex" unicode="&#x175;" horiz-adv-x="1675" 
d="M1669 866q0 -227 -123 -455.5t-317 -410.5q-96 -16 -194.5 -16t-164.5 16q-61 133 -98 254q-94 -135 -205 -254q-84 -16 -176 -16t-158 16q-90 231 -123.5 448.5t-37.5 503.5q111 29 222 29t185 -8q-20 -358 10 -621q0 -6 3.5 -35.5t5.5 -46.5q2 4 39.5 70.5t87 216.5
t57.5 295q-2 33 -2 100q111 29 222 29t185 -8q-25 -393 0 -621q6 -68 7 -82q12 27 48.5 89.5t87 216t50.5 303.5q0 70 -8 94q47 8 161.5 8t225.5 -18q10 -16 10 -97zM666 1065q-92 41 -109 137l338 311q80 16 162 0l264 -303q-41 -100 -143 -145l-222 180z" />
    <glyph glyph-name="Ycircumflex" unicode="&#x176;" horiz-adv-x="1249" 
d="M524.5 -14q-98.5 0 -186.5 14l88 494l-320 813q220 39 441 14l135 -479l70 112l247 367q159 25 398 -12l-606 -836l-84 -473q-84 -14 -182.5 -14zM500 1409q-92 57 -107 166l336 227q98 20 193 0l258 -227q-39 -113 -138 -166l-247 162z" />
    <glyph glyph-name="ycircumflex" unicode="&#x177;" horiz-adv-x="1122" 
d="M920 977q98 0 184 -14l-166 -963q-37 -207 -189.5 -313.5t-392.5 -106.5q-162 0 -285.5 50.5t-181.5 117.5q51 160 191 229q117 -117 289 -116.5t198 166.5l8 45q-78 -20 -135 -21q-240 0 -330 109.5t-51 322.5l86 480q88 14 186.5 14t182.5 -14l-78 -443
q-14 -82 6.5 -117.5t88 -35.5t100.5 24l102 572q89 14 187 14zM360 1065q-92 41 -108 137l338 311q80 16 162 0l264 -303q-41 -100 -144 -145l-221 180z" />
    <glyph glyph-name="Ydieresis" unicode="&#x178;" horiz-adv-x="1249" 
d="M524.5 -14q-98.5 0 -186.5 14l88 494l-320 813q220 39 441 14l135 -479l70 112l247 367q159 25 398 -12l-606 -836l-84 -473q-84 -14 -182.5 -14zM1033 1450q-73 0 -124 52t-51 125t51.5 124t124 51t124.5 -51t52 -124t-52 -125t-125 -52zM540 1450q-73 0 -124 52
t-51 125t51 124t124 51t125 -51t52 -124t-52 -125t-125 -52z" />
    <glyph glyph-name="Zacute" unicode="&#x179;" horiz-adv-x="1171" 
d="M1077 330q0 -166 -57 -330h-1053q-4 16 -4 45q0 102 107 234l516 643l57 65l-508 -2q-8 147 58 330h1026q2 -8 2 -43q-1 -105 -105 -236l-502 -626l-79 -80h542zM1020 1559l-526 -193q-66 66 -84 158l460 327q138 -108 150 -292z" />
    <glyph glyph-name="zacute" unicode="&#x17a;" horiz-adv-x="980" 
d="M617 252q81 0 186 57q100 -113 100 -276q-172 -68 -333.5 -68t-297.5 70l-51 -58q-248 0 -248 136q0 57 41 100l357 391l80 74h-367q-29 139 51 293h803q2 -8 2 -37q0 -139 -76 -223l-387 -441q59 -18 140 -18zM397 1051q-74 47 -92 129l381 374q147 -84 197 -264z" />
    <glyph glyph-name="Zdotaccent" unicode="&#x17b;" horiz-adv-x="1171" 
d="M1077 330q0 -166 -57 -330h-1053q-4 16 -4 45q0 102 107 234l516 643l57 65l-508 -2q-8 147 58 330h1026q2 -8 2 -43q-1 -105 -105 -236l-502 -626l-79 -80h542zM738 1411q-87 0 -148.5 61.5t-61.5 149.5t61.5 148.5t148.5 60.5t148.5 -60.5t61.5 -148.5t-61.5 -149.5
t-148.5 -61.5z" />
    <glyph glyph-name="zdotaccent" unicode="&#x17c;" horiz-adv-x="980" 
d="M617 252q81 0 186 57q100 -113 100 -276q-172 -68 -333.5 -68t-297.5 70l-51 -58q-248 0 -248 136q0 57 41 100l357 391l80 74h-367q-29 139 51 293h803q2 -8 2 -37q0 -139 -76 -223l-387 -441q59 -18 140 -18zM584 1081q-88 0 -149.5 62.5t-61.5 150.5t61.5 149.5
t149.5 61.5t149.5 -61.5t61.5 -149.5t-61.5 -150.5t-149.5 -62.5z" />
    <glyph glyph-name="Zcaron" unicode="&#x17d;" horiz-adv-x="1171" 
d="M1077 330q0 -166 -57 -330h-1053q-4 16 -4 45q0 102 107 234l516 643l57 65l-508 -2q-8 147 58 330h1026q2 -8 2 -43q-1 -105 -105 -236l-502 -626l-79 -80h542zM782 1436q-100 -20 -192 0l-258 229q39 113 137 166l248 -162l295 164q88 -57 104 -168z" />
    <glyph glyph-name="zcaron" unicode="&#x17e;" horiz-adv-x="980" 
d="M940 934q0 -139 -76 -223l-387 -441q59 -18 140 -18t186 57q100 -113 100 -276q-171 -68 -333 -68t-298 70l-51 -58q-248 0 -248 136q0 57 41 100l357 391l80 74h-367q-29 139 51 293h803q2 -8 2 -37zM621 1073q-80 -14 -162 0l-269 303q41 98 148 146l223 -183l289 183
q96 -43 108 -138z" />
    <glyph glyph-name="uni01EA" unicode="&#x1ea;" horiz-adv-x="1415" 
d="M467 578q0 -268 217 -269q141 0 219 119t78 315q0 268 -215 269q-141 0 -220 -117.5t-79 -316.5zM1386 796q0 -264 -101 -455t-279 -290h2q-176 -100 -177 -192q0 -66 68 -66q39 0 74 33q86 -47 104 -172q-96 -104 -266 -105q-106 0 -174 49.5t-68 133.5q0 117 105 229
h-31q-268 0 -425 150.5t-157 423.5q0 375 209 600t537 225q268 0 423.5 -150t155.5 -414z" />
    <glyph glyph-name="uni01EB" unicode="&#x1eb;" horiz-adv-x="1122" 
d="M524 266q86 0 129 80t43 199q0 162 -125 162q-82 0 -127 -79t-49 -194q0 -168 129 -168zM682 -207q39 0 74 33q86 -47 104 -172q-96 -104 -266 -105q-106 0 -174 49.5t-68 133.5q0 119 105 231q-203 10 -316.5 124t-113.5 312q0 276 154.5 444.5t394 168.5t364.5 -116
t125 -328t-95 -363.5t-265 -210.5q-90 -74 -90.5 -137.5t67.5 -63.5z" />
    <glyph glyph-name="AEacute" unicode="&#x1fc;" horiz-adv-x="1822" 
d="M735 682h193l45 254l24 113l-75 -113zM49 -8q-113 0 -180 22l936 1303l1050 -2q6 -113 -5 -168.5t-52 -157.5h-448l-41 -231h393q6 -84 -4 -138.5t-41 -132.5h-397l-29 -161h467q6 -115 -6.5 -180.5t-51.5 -145.5h-835l74 412h-340l-301 -412q-76 -8 -189 -8zM1550 1559
l-526 -193q-66 66 -84 158l461 327q137 -108 149 -292z" />
    <glyph glyph-name="aeacute" unicode="&#x1fd;" horiz-adv-x="1718" 
d="M498 272q156 0 196 195q14 111 62 207q-59 16 -137 16t-151 -69.5t-73 -194.5q0 -72 27 -113t76 -41zM1219 578q104 0 104 81q0 66 -82 66q-121 0 -164 -135q74 -12 142 -12zM379 -37q-168 0 -264.5 107.5t-96.5 291.5q0 287 189.5 464.5t464.5 177.5q205 0 346 -64
q123 63 287.5 63.5t267 -82.5t102.5 -212q0 -98 -40 -170q-39 -72 -111 -109q-135 -70 -328 -70q-74 0 -139 11q0 -15 4 -19q25 -96 199 -96q80 0 231 82q123 -92 98 -254q-184 -121 -449 -121t-384 176q-80 -104 -169 -140t-208 -36zM811 1051q-74 47 -92 129l381 374
q147 -84 196 -264z" />
    <glyph glyph-name="Oslashacute" unicode="&#x1fe;" horiz-adv-x="1415" 
d="M684 309q141 0 219 119t78 315q0 268 -215 269q-141 0 -220 -118t-79 -316q0 -269 217 -269zM1386 788q0 -375 -207.5 -601t-535.5 -226q-80 0 -162 16l-129 -192q-197 33 -282 203l112 164q-121 150 -121 383q0 375 209 600t537 225q100 0 182 -21l127 191
q189 -39 283 -199l-119 -178q106 -141 106 -365zM1124 1559l-526 -193q-66 66 -84 158l461 327q137 -108 149 -292z" />
    <glyph glyph-name="oslashacute" unicode="&#x1ff;" horiz-adv-x="1122" 
d="M524 266q86 0 129 80t43 199q0 162 -125 162q-82 0 -127 -79t-49 -194q0 -168 129 -168zM1065 571q0 -276 -152.5 -443t-412.5 -167q-63 0 -111 8l-110 -162q-164 27 -236 168l84 125q-100 117 -100 299q0 276 154.5 444.5t408.5 168.5q80 0 143 -15l101 152
q163 -29 237 -170l-88 -129q82 -111 82 -279zM410 1051q-74 47 -93 129l381 374q147 -84 197 -264z" />
    <glyph glyph-name="Scommaaccent" unicode="&#x218;" horiz-adv-x="1132" 
d="M322 -182q0 55 -3 76q63 29 144.5 28.5t132.5 -26.5q-14 -159 -77.5 -267.5t-145.5 -165.5q-98 0 -133 82q82 141 82 273zM483 -33q-354 0 -520 158q20 96 76.5 177t132.5 120q57 -51 154.5 -84t193.5 -33t128 19.5t32 56.5t-40 59.5t-100.5 37t-130 43t-130 65.5
t-100.5 112.5t-40 180.5q0 209 160 340t420 131q164 0 282.5 -42t172.5 -96q-20 -90 -75 -169.5t-132 -122.5q-121 86 -291 86t-170 -66q0 -52 138 -83t266 -111q62 -38 101.5 -116.5t39.5 -183.5q0 -213 -157 -346t-411 -133z" />
    <glyph glyph-name="scommaaccent" unicode="&#x219;" horiz-adv-x="978" 
d="M223 -182q0 55 -2 76q63 29 144.5 28.5t132.5 -26.5q-14 -157 -78 -266.5t-146 -166.5q-98 0 -133 82q82 141 82 273zM360 -39q-141 0 -250.5 38t-160.5 89q49 168 170 242q137 -100 287 -101q102 0 102 47q0 27 -44 46.5t-106.5 37t-124 45t-105.5 89t-44 151.5
q6 170 148.5 264.5t336.5 94.5q266 0 412 -97q-51 -178 -160 -250q-45 29 -127 52.5t-158.5 23.5t-76.5 -47q0 -23 44 -38t106.5 -31.5t125 -43t106.5 -90t44 -155.5q0 -166 -132.5 -266.5t-392.5 -100.5z" />
    <glyph glyph-name="uni021A" unicode="&#x21a;" horiz-adv-x="1105" 
d="M301 -182q0 56 -2 76q63 29 144 28.5t132 -26.5q-14 -159 -77.5 -267t-145.5 -166q-98 0 -133 82q82 141 82 273zM1198 1315q0 -195 -57 -326h-330l-174 -989q-102 -16 -188 -16t-181 16l174 989h-329q0 195 57 326h1028z" />
    <glyph glyph-name="uni021B" unicode="&#x21b;" horiz-adv-x="915" 
d="M315 -182q0 56 -2 76q63 29 144.5 28.5t132.5 -26.5q-14 -159 -77.5 -267t-145.5 -166q-98 0 -134 82q82 141 82 273zM39 653q0 148 53 303h172l45 254q208 31 369 0l-45 -254h274l2 -49q0 -102 -55 -254h-274l-45 -256q-6 -23 -7 -51q0 -68 76 -67q49 0 105 40
q53 -33 90 -101t37 -140q-143 -111 -365 -111q-147 0 -235.5 66.5t-88.5 212.5q0 49 9 96l55 311h-172z" />
    <glyph glyph-name="circumflex" unicode="&#x2c6;" horiz-adv-x="880" 
d="M770 1513l264 -303q-41 -100 -143 -145l-221 180l-291 -180q-92 41 -109 137l338 311q82 16 162 0z" />
    <glyph glyph-name="caron" unicode="&#x2c7;" horiz-adv-x="868" 
d="M557 1073l-268 303q41 98 147 146l223 -183l289 183q96 -43 109 -138l-338 -311q-80 -14 -162 0z" />
    <glyph glyph-name="breve" unicode="&#x2d8;" horiz-adv-x="923" 
d="M673 1079q-181 0 -270.5 114t-76.5 259q96 41 211 29q8 -76 60 -114t112 -38q160 0 202 152q129 14 205 -31q-14 -139 -138 -255t-305 -116z" />
    <glyph glyph-name="dotaccent" unicode="&#x2d9;" horiz-adv-x="622" 
d="M534.5 1081q-88.5 0 -149.5 62.5t-61 150.5t61 149.5t149.5 61.5t149.5 -61.5t61 -149.5t-61 -150.5t-149.5 -62.5z" />
    <glyph glyph-name="ring" unicode="&#x2da;" horiz-adv-x="595" 
d="M524 1217q84 0 84 94q0 35 -20.5 55t-57.5 20t-59 -25.5t-22 -63.5t21 -59t54 -21zM520 1049q-117 0 -186.5 58t-69.5 174t81 194.5t193 78.5t183.5 -58t71.5 -175t-78 -194.5t-195 -77.5z" />
    <glyph glyph-name="ogonek" unicode="&#x2db;" horiz-adv-x="544" 
d="M209 -451q-106 -1 -174 49t-68 140t65 175t146 138h228q-176 -100 -177 -192q0 -66 68 -66q39 0 74 33q86 -47 104 -172q-96 -105 -266 -105z" />
    <glyph glyph-name="tilde" unicode="&#x2dc;" horiz-adv-x="956" 
d="M829 1403q66 0 101 88q152 0 233 -88q-90 -272 -309 -273q-82 -2 -156.5 36t-111.5 38q-70 0 -107 -98q-59 0 -128.5 22.5t-98.5 65.5q41 135 120 210t175 76t172 -38t110 -39z" />
    <glyph glyph-name="hungarumlaut" unicode="&#x2dd;" horiz-adv-x="815" 
d="M698 1053q-78 37 -114 125l288 368q158 -49 187 -203zM326 1051q-78 35 -121 118l276 379q76 -20 128.5 -71.5t68.5 -122.5z" />
    <glyph glyph-name="gravecomb" unicode="&#x300;" 
d="M39 1051l-453 235q55 182 207 260l348 -364q-34 -86 -102 -131z" />
    <glyph glyph-name="acutecomb" unicode="&#x301;" 
d="M-301 1051q-74 47 -92 129l381 374q147 -84 196 -264z" />
    <glyph glyph-name="uni0302" unicode="&#x302;" 
d="M-111 1513l265 -303q-41 -100 -144 -145l-221 180l-291 -180q-92 41 -108 137l338 311q79 16 161 0z" />
    <glyph glyph-name="tildecomb" unicode="&#x303;" 
d="M-129 1403q66 0 100 88q152 0 234 -88q-90 -272 -309 -273q-82 -2 -157 36t-112 38q-69 0 -106 -98q-59 0 -129 22.5t-99 65.5q41 135 120 210t175.5 76t172 -38t110.5 -39z" />
    <glyph glyph-name="uni0304" unicode="&#x304;" 
d="M188 1419v-53q0 -104 -49 -217h-667q-6 25 -7 65q0 100 54 205h669z" />
    <glyph glyph-name="uni0306" unicode="&#x306;" 
d="M-253 1079q-181 0 -270 114t-77 259q96 41 211 29q8 -76 60.5 -114t111.5 -38q160 0 203 152q129 14 204 -31q-14 -139 -138 -255t-305 -116z" />
    <glyph glyph-name="uni0307" unicode="&#x307;" 
d="M-86 1081q-88 0 -149.5 62.5t-61.5 150.5t61.5 149.5t149.5 61.5t149.5 -61.5t61.5 -149.5t-61.5 -150.5t-149.5 -62.5z" />
    <glyph glyph-name="uni0308" unicode="&#x308;" 
d="M16.5 1108q-71.5 0 -123 51t-51.5 123t51.5 123t123 51t122.5 -51t51 -123t-51 -123t-122.5 -51zM-463 1108q-72 0 -123 51t-51 123t51 123t123 51t123 -51t51 -123t-51 -123t-123 -51z" />
    <glyph glyph-name="uni030A" unicode="&#x30a;" 
d="M-53 1217q84 0 84 94q0 35 -20.5 55t-57.5 20t-59.5 -25.5t-22.5 -63.5t21.5 -59t54.5 -21zM-57 1049q-117 0 -186.5 58t-69.5 174t80.5 194.5t192.5 78.5t183.5 -58t71.5 -175t-77.5 -194.5t-194.5 -77.5z" />
    <glyph glyph-name="uni030B" unicode="&#x30b;" 
d="M-193 1053q-78 37 -114 125l289 368q158 -49 186 -203zM-565 1051q-78 35 -121 118l276 379q76 -20 128.5 -71.5t68.5 -122.5z" />
    <glyph glyph-name="uni030C" unicode="&#x30c;" 
d="M-322 1073l-268 303q41 98 148 146l223 -183l289 183q96 -43 108 -138l-338 -311q-80 -14 -162 0z" />
    <glyph glyph-name="uni0326" unicode="&#x326;" 
d="M-379 -182q0 55 -2 76q63 29 144 28.5t133 -26.5q-14 -157 -78 -266.5t-146 -166.5q-98 0 -133 82q82 141 82 273z" />
    <glyph glyph-name="uni0327" unicode="&#x327;" 
d="M-432 -477q-68 0 -131.5 18.5t-87.5 44.5q12 102 98 162q35 -29 77 -29q87 0 87 70q0 55 -113 59l92 175h189l-49 -97q156 -27 155 -145q0 -133 -96 -195.5t-221 -62.5z" />
    <glyph glyph-name="uni0328" unicode="&#x328;" 
d="M-381 -451q-106 0 -174 49.5t-68 139.5t64.5 175t146.5 138h228q-176 -100 -176 -192q0 -66 67 -66q39 0 74 33q86 -47 104 -172q-96 -105 -266 -105z" />
    <glyph glyph-name="uni0335" unicode="&#x335;" 
d="M-606 852q-18 86 26 197h693q12 -102 -27 -197h-692z" />
    <glyph glyph-name="uni0336" unicode="&#x336;" 
d="M-1339 941.5q0 58.5 45 135.5h1429q4 -29 4 -55q0 -76 -41 -162h-1429q-8 23 -8 81.5z" />
    <glyph glyph-name="uni0337" unicode="&#x337;" 
d="M-588 524q-45 27 -69.5 78t-14.5 96l699 344q86 -78 75 -178z" />
    <glyph glyph-name="uni0338" unicode="&#x338;" 
d="M-872 -162q-80 12 -109 90l799 1186q78 -12 108 -82z" />
    <glyph glyph-name="Wgrave" unicode="&#x1e80;" horiz-adv-x="1947" 
d="M490 -10q-120 0 -216 14q-147 573 -131 1299q196 34 412 20q-41 -528 8 -997q258 535 344 952q104 16 192.5 16t186.5 -16q0 -551 45 -952q215 451 350 997q37 4 84 4q225 0 291 -24q-287 -866 -586 -1299q-82 -14 -195.5 -14t-201.5 14q-57 260 -57 649v62
q-8 -24 -8 -33q-82 -328 -324 -678q-74 -14 -194 -14zM1436 1530q-20 -94 -88 -158l-514 193q39 201 184 284z" />
    <glyph glyph-name="wgrave" unicode="&#x1e81;" horiz-adv-x="1675" 
d="M1669 866q0 -227 -123 -455.5t-317 -410.5q-96 -16 -194.5 -16t-164.5 16q-61 133 -98 254q-94 -135 -205 -254q-84 -16 -176 -16t-158 16q-90 231 -123.5 448.5t-37.5 503.5q111 29 222 29t185 -8q-20 -358 10 -621q0 -6 3.5 -35.5t5.5 -46.5q2 4 39.5 70.5t87 216.5
t57.5 295q-2 33 -2 100q111 29 222 29t185 -8q-25 -393 0 -621q6 -68 7 -82q12 27 48.5 89.5t87 216t50.5 303.5q0 70 -8 94q47 8 161.5 8t225.5 -18q10 -16 10 -97zM1198 1182q-35 -86 -102 -131l-453 235q55 182 207 260z" />
    <glyph glyph-name="Wacute" unicode="&#x1e82;" horiz-adv-x="1947" 
d="M490 -10q-120 0 -216 14q-147 573 -131 1299q196 34 412 20q-41 -528 8 -997q258 535 344 952q104 16 192.5 16t186.5 -16q0 -551 45 -952q215 451 350 997q37 4 84 4q225 0 291 -24q-287 -866 -586 -1299q-82 -14 -195.5 -14t-201.5 14q-57 260 -57 649v62
q-8 -24 -8 -33q-82 -328 -324 -678q-74 -14 -194 -14zM1438 1559l-527 -193q-66 66 -84 158l461 327q138 -108 150 -292z" />
    <glyph glyph-name="wacute" unicode="&#x1e83;" horiz-adv-x="1675" 
d="M1669 866q0 -227 -123 -455.5t-317 -410.5q-96 -16 -194.5 -16t-164.5 16q-61 133 -98 254q-94 -135 -205 -254q-84 -16 -176 -16t-158 16q-90 231 -123.5 448.5t-37.5 503.5q111 29 222 29t185 -8q-20 -358 10 -621q0 -6 3.5 -35.5t5.5 -46.5q2 4 39.5 70.5t87 216.5
t57.5 295q-2 33 -2 100q111 29 222 29t185 -8q-25 -393 0 -621q6 -68 7 -82q12 27 48.5 89.5t87 216t50.5 303.5q0 70 -8 94q47 8 161.5 8t225.5 -18q10 -16 10 -97zM764 1051q-74 47 -92 129l381 374q147 -84 196 -264z" />
    <glyph glyph-name="Wdieresis" unicode="&#x1e84;" horiz-adv-x="1947" 
d="M490 -10q-120 0 -216 14q-147 573 -131 1299q196 34 412 20q-41 -528 8 -997q258 535 344 952q104 16 192.5 16t186.5 -16q0 -551 45 -952q215 451 350 997q37 4 84 4q225 0 291 -24q-287 -866 -586 -1299q-82 -14 -195.5 -14t-201.5 14q-57 260 -57 649v62
q-8 -24 -8 -33q-82 -328 -324 -678q-74 -14 -194 -14zM1390 1450q-73 0 -124.5 52t-51.5 125t51.5 124t124.5 51t125 -51t52 -124t-52 -125t-125 -52zM896 1450q-73 0 -124 52t-51 125t51 124t124 51t125 -51t52 -124t-52 -125t-125 -52z" />
    <glyph glyph-name="wdieresis" unicode="&#x1e85;" horiz-adv-x="1675" 
d="M1669 866q0 -227 -123 -455.5t-317 -410.5q-96 -16 -194.5 -16t-164.5 16q-61 133 -98 254q-94 -135 -205 -254q-84 -16 -176 -16t-158 16q-90 231 -123.5 448.5t-37.5 503.5q111 29 222 29t185 -8q-20 -358 10 -621q0 -6 3.5 -35.5t5.5 -46.5q2 4 39.5 70.5t87 216.5
t57.5 295q-2 33 -2 100q111 29 222 29t185 -8q-25 -393 0 -621q6 -68 7 -82q12 27 48.5 89.5t87 216t50.5 303.5q0 70 -8 94q47 8 161.5 8t225.5 -18q10 -16 10 -97zM1192 1108q-72 0 -123 51t-51 123t51 123t123 51t123 -51t51 -123t-51 -123t-123 -51zM712.5 1108
q-71.5 0 -122.5 51t-51 123t51 123t122.5 51t123 -51t51.5 -123t-51.5 -123t-123 -51z" />
    <glyph glyph-name="uni1E9E" unicode="&#x1e9e;" horiz-adv-x="1396" 
d="M1325 444q0 -213 -145.5 -345t-354.5 -132q-123 0 -224 42t-136 93q23 90 81 169t140 124q84 -96 195 -96q27 0 45 17.5t18 45.5t-18.5 51t-96 90.5t-112.5 121.5t-35 125q0 154 143 239q-90 -10 -157 -10q-125 0 -158 -178l-139 -801q-84 -14 -182.5 -14t-186.5 14
l152 862q35 199 170 326t344 127h637v-39q0 -143 -62 -305q-149 0 -151 -89q0 -44 56 -100q56 -58 72 -76t48 -62q56 -79 57 -200z" />
    <glyph glyph-name="Ygrave" unicode="&#x1ef2;" horiz-adv-x="1249" 
d="M524.5 -14q-98.5 0 -186.5 14l88 494l-320 813q220 39 441 14l135 -479l70 112l247 367q159 25 398 -12l-606 -836l-84 -473q-84 -14 -182.5 -14zM1079 1530q-20 -94 -88 -158l-514 193q39 201 185 284z" />
    <glyph glyph-name="ygrave" unicode="&#x1ef3;" horiz-adv-x="1122" 
d="M920 977q98 0 184 -14l-166 -963q-37 -207 -189.5 -313.5t-392.5 -106.5q-162 0 -285.5 50.5t-181.5 117.5q51 160 191 229q117 -117 289 -116.5t198 166.5l8 45q-78 -20 -135 -21q-240 0 -330 109.5t-51 322.5l86 480q88 14 186.5 14t182.5 -14l-78 -443
q-14 -82 6.5 -117.5t88 -35.5t100.5 24l102 572q89 14 187 14zM893 1182q-35 -86 -102 -131l-453 235q55 182 207 260z" />
    <glyph glyph-name="uni1EF8" unicode="&#x1ef8;" horiz-adv-x="1249" 
d="M524.5 -14q-98.5 0 -186.5 14l88 494l-320 813q220 39 441 14l135 -479l70 112l247 367q159 25 398 -12l-606 -836l-84 -473q-84 -14 -182.5 -14zM659 1788q76 0 164 -38t115 -38q80 0 96 92q154 0 236 -69q-27 -145 -119 -222t-215 -77q-70 0 -159 36.5t-126 36.5
q-79 0 -102 -90q-68 0 -130.5 22.5t-94.5 61.5q25 131 120 208t215 77z" />
    <glyph glyph-name="uni1EF9" unicode="&#x1ef9;" horiz-adv-x="1122" 
d="M919.5 977q98.5 0 184.5 -14l-166 -963q-37 -207 -189.5 -313.5t-392.5 -106.5q-162 0 -285.5 50.5t-181.5 117.5q51 160 191 229q117 -117 289 -116.5t198 166.5l8 45q-78 -20 -135 -21q-240 0 -330 109.5t-51 322.5l86 480q88 14 186.5 14t182.5 -14l-78 -443
q-14 -82 6.5 -117.5t88 -35.5t100.5 24l102 572q88 14 186.5 14zM770 1403q66 0 100 88q152 0 234 -88q-90 -272 -309 -273q-82 -2 -157 36t-112 38q-69 0 -106 -98q-59 0 -129 22.5t-98 65.5q41 135 119.5 210t175 76t172 -38t110.5 -39z" />
    <glyph glyph-name="endash" unicode="&#x2013;" horiz-adv-x="1083" 
d="M76 486q0 60 47 147h862l2 -55q0 -88 -43 -175h-860q-8 23 -8 83z" />
    <glyph glyph-name="emdash" unicode="&#x2014;" horiz-adv-x="2056" 
d="M76 465q0 82 47 168h1835q2 -15 2 -79t-43 -151h-1835q-6 25 -6 62z" />
    <glyph glyph-name="quoteleft" unicode="&#x2018;" horiz-adv-x="436" 
d="M266 862q-87 0 -131 19q-4 29 -4 69q0 138 79 274t187 212q39 -2 74 -22t47 -52q-111 -182 -110 -338q0 -84 14 -125q-69 -37 -156 -37z" />
    <glyph glyph-name="quoteright" unicode="&#x2019;" horiz-adv-x="423" 
d="M373 1436q90 0 127 -19q4 -29 4 -69q0 -136 -78 -272t-188 -214q-39 2 -74 22t-47 52q111 182 110 338q0 84 -14 125q70 37 160 37z" />
    <glyph glyph-name="quotesinglbase" unicode="&#x201a;" horiz-adv-x="436" 
d="M29 119q0 74 -15 123q70 37 160 37t125 -19q4 -14 4 -70q1 -137 -77 -273t-187 -212q-39 1 -75 21t-46 53q111 186 111 340z" />
    <glyph glyph-name="quotedblleft" unicode="&#x201c;" horiz-adv-x="808" 
d="M641 862q-88 0 -131 19q-4 14 -4 69q0 138 79 274t187 212q39 -2 74 -22t47 -52q-113 -184 -113 -338q0 -74 15 -125q-66 -37 -154 -37zM266 862q-87 0 -131 19q-4 29 -4 69q0 136 79 272t187 214q39 -2 74 -22t47 -52q-111 -186 -110 -338q0 -84 14 -125
q-69 -37 -156 -37z" />
    <glyph glyph-name="quotedblright" unicode="&#x201d;" horiz-adv-x="798" 
d="M748 1436q90 0 126 -19q4 -29 5 -69q0 -134 -79 -270t-188 -216q-40 2 -74 22t-46 52q111 186 110 340q0 82 -14 123q70 37 160 37zM372 1436q91 0 128 -19q4 -14 4 -69q0 -136 -78 -272t-188 -214q-39 2 -74 22t-47 52q113 184 112 338q0 74 -14 125q66 37 157 37z" />
    <glyph glyph-name="quotedblbase" unicode="&#x201e;" horiz-adv-x="811" 
d="M546 279q91 0 128 -19q4 -14 4 -70q0 -137 -78 -273t-188 -212q-39 1 -74 21t-47 53q113 184 112 338q0 76 -14 125q66 37 157 37zM29 117q0 76 -15 125q70 37 160 37t127 -19q4 -29 4 -70q-1 -135 -79 -271t-187 -214q-39 1 -74 21t-47 53q111 184 111 338z" />
    <glyph glyph-name="dagger" unicode="&#x2020;" horiz-adv-x="1042" 
d="M1059 1114q0 -115 -60 -270l-268 26l-215 -1228q-68 -18 -157 -18t-154 18l217 1228l-279 -26v51q0 123 60 276l268 -26l59 340q78 16 158 16t152 -16l-60 -340l277 26q2 -10 2 -57z" />
    <glyph glyph-name="daggerdbl" unicode="&#x2021;" horiz-adv-x="1042" 
d="M907 221q0 -115 -59 -270l-266 26l-60 -335q-68 -18 -156 -18t-155 18l59 335l-278 -26v51q0 123 59 277l268 -27l109 618l-278 -26v51q0 123 59 276l268 -26l60 340q77 16 157 16t152 -16l-60 -340l277 26q2 -10 2 -57q0 -114 -59 -270l-269 26l-108 -618l276 27
q2 -10 2 -58z" />
    <glyph glyph-name="bullet" unicode="&#x2022;" horiz-adv-x="722" 
d="M356 287q-106 1 -181 75t-75 180t75 181q75 74 181 74t182 -74t74 -180q0 -106 -74 -182q-76 -74 -182 -74z" />
    <glyph glyph-name="ellipsis" unicode="&#x2026;" horiz-adv-x="1280" 
d="M982 -41q-75 0 -128 52t-53 128t53 129q53 54 128 54t128 -54t53 -129q0 -76 -53 -128t-128 -52zM579 -41q-75 0 -128 52t-54 128t53 129q54 54 129 54t128 -54t53 -129q0 -76 -53 -128t-128 -52zM175 -41q-75 0 -128 52t-53 128t53 129q53 54 128 54t128 -54t53 -129
q0 -76 -53 -128t-128 -52z" />
    <glyph glyph-name="perthousand" unicode="&#x2030;" horiz-adv-x="2295" 
d="M1860 137q57 0 89 45t31 109q0 117 -98 117q-59 0 -92 -44t-33 -110q1 -117 103 -117zM1102 137q57 0 89 45t32 109q0 117 -99 117q-59 0 -92 -44t-33 -110q1 -117 103 -117zM2198 297q0 -139 -98 -241t-251 -103q-151 0 -229 78t-78 217t98 240q98 102 250 102t230 -77
t78 -216zM1440 297q0 -139 -98 -241t-250 -103q-152 0 -230 78t-78 217t98 240q98 102 250 102t230 -77t78 -216zM444 872q59 0 92 44q32 44 31 110q0 117 -98 117q-61 0 -93 -44t-32 -110q0 -117 100 -117zM435 688q-153 0 -231 78t-77 217q0 139 98 241t251 101
q153 0 231 -77q77 -77 77 -216q0 -140 -98 -242t-251 -102zM92 -96l1139 1431q113 20 221 0l-1139 -1431q-110 -14 -221 0z" />
    <glyph glyph-name="guilsinglleft" unicode="&#x2039;" horiz-adv-x="575" 
d="M299 133l-262 383l364 383q106 -14 146 -82l-193 -297l88 -307q-53 -68 -143 -80z" />
    <glyph glyph-name="guilsinglright" unicode="&#x203a;" horiz-adv-x="577" 
d="M150 133q-102 14 -138 82l193 297l-88 307q53 68 143 80l262 -381z" />
    <glyph glyph-name="fraction" unicode="&#x2044;" horiz-adv-x="1142" 
d="M-117 -96l1186 1499q135 18 262 0l-1188 -1499q-143 -23 -260 0z" />
    <glyph glyph-name="Euro" unicode="&#x20ac;" horiz-adv-x="1286" 
d="M913 1014q-147 0 -221 -150h250v-20q0 -55 -27 -129h-270q-8 -55 -12 -115h209v-20q0 -55 -27 -129h-168q39 -137 174 -138q98 0 174 72q150 -100 150 -297q-161 -121 -399 -121t-367 124t-148 360h-194v20q0 53 26 129h166q2 41 15 115h-105v18q0 66 27 131h117
q80 226 256 364q175 138 409 138t375 -104q-29 -92 -95 -179q-67 -86 -149 -127q-57 58 -166 58z" />
    <glyph glyph-name="trademark" unicode="&#x2122;" horiz-adv-x="1617" 
d="M788 1346q0 -125 -38 -201h-168l-90 -518q-86 -9 -127 -9t-119 9l90 518h-166v22q0 123 39 201h579v-22zM1512 1374q66 0 133 -8l-132 -739q-63 -6 -112 -6t-115 6l39 215l35 114l-68 -114l-86 -156q-49 -6 -83 -6t-81 6l-38 156l-29 104l-4 -104l-37 -215
q-62 -6 -112 -6t-117 6l131 739q74 8 137 8t119 -8l86 -336l4 -47l18 47l189 336q57 8 123 8z" />
    <glyph glyph-name="minus" unicode="&#x2212;" horiz-adv-x="1062" 
d="M76 446q0 62 41 156h841v-43q0 -84 -40 -182h-840q-2 7 -2 69z" />
    <glyph glyph-name="approxequal" unicode="&#x2248;" horiz-adv-x="989" 
d="M296 414q75 0 169 -41t150 -41t128 82q35 -10 70 -46t45 -85q-121 -182 -285 -183q-67 0 -165 41t-138 41q-70 0 -131 -80q-39 12 -75 50t-44 79q53 87 127 135t149 48zM368 817q75 0 169 -41t148 -41t130 82q35 -8 70 -44t45 -87q-121 -182 -285 -182q-68 0 -166 41
t-137 41q-74 0 -133 -80q-39 12 -74 49t-43 80q53 84 127 133t149 49z" />
    <glyph glyph-name="notequal" unicode="&#x2260;" horiz-adv-x="1058" 
d="M989 791v-27q0 -88 -39 -199h-280l-138 -182h386v-27q0 -88 -39 -198h-514l-191 -252q-82 12 -106 88l125 164h-156v26q0 88 41 199h284l138 182h-389l-2 27q0 88 41 199h522l162 215q80 -14 108 -80l-102 -135h149z" />
    <glyph glyph-name="dotlessj" unicode="&#xf6be;" horiz-adv-x="559" 
d="M-68 -410q-162 0 -251 76q0 72 40 147q41 75 99 111q31 -31 86 -30q78 0 98 114l170 967q84 14 181 14t190 -14l-168 -948q-39 -223 -139 -330t-306 -107z" />
    <glyph glyph-name="uniF8FF" unicode="&#xf8ff;" horiz-adv-x="2822" 
d="M2236 31q8 0 9 8q0 4 -9 4h-12l-2 -12h14zM2222 23v-19h-8v47h22q16 0 19 -12q2 -16 -14 -16l12 -19h-12l-9 19h-10zM2198 18q6 -29 34 -28q41 0 36 37t-34 36q-42 0 -36 -45zM2187 18q-4 25 9 40q13 16 45 16t36 -32q8 -62 -45 -62q-41 -1 -45 38zM1403 147q35 0 56 28
t15 62t-36 33q-59 0 -43 -90q2 -23 8 -33zM1925 223h78q6 55 -33 56q-45 0 -45 -56zM1982 -10q-233 0 -266 198q-23 138 43 224t203 86q186 -1 219 -187q8 -61 -6 -123h-242q23 -36 94 -36t111 24l-2 -153q-47 -33 -154 -33zM1532 498q57 0 96 -44t51 -124q27 -162 -40 -251
t-228 -89q4 -55 0 -80h-231q6 348 30 577h152q14 -86 10 -155q35 166 160 166zM832 -102q-94 0 -150 34l4 170q41 -33 135 -32q41 0 74 15t33 42q-35 -23 -97 -23q-172 0 -172 170v27h-106l4 -133q8 -8 31 -8t33 10l-3 -150q-39 -31 -133 -30q-137 0 -153 108q-4 27 6 203
h-35l4 164l228 59l-3 -37h345l-5 -243q0 -55 29 -56q33 0 33 56l4 243h203q6 -43 8 -51q42 -221 -9 -384q-34 -108 -163 -141q-51 -13 -145 -13zM2501 821q-53 0 -41 -71q6 -43 39 -43q25 0 37 21t7 57t-42 36zM823 821q-55 0 -43 -71q6 -43 41 -43q56 0 47 75q-6 39 -45 39
zM2494 543q-199 0 -229 196q-24 95 22 203q19 47 76 79t146 32q196 0 227 -193q22 -145 -36 -231t-206 -86zM2005 553q0 94 4 142t1 78t-25 30q-33 0 -37 -60l2 -190h-221q10 381 28 489h156q10 -113 8 -155q4 43 27 85q42 79 128 80q86 2 118 -50t32 -166l2 -283h-223z
M743 543q-145 0 -172 172q-25 154 41 246t224 92q240 0 235 -240l-4 -260h-162l-12 125q-29 -135 -150 -135zM1384 713q24 0 33 10l-4 -152q-25 -31 -131 -30q-139 0 -158 108q-3 46 3 124q7 77 8 81h-43l4 162l231 61l2 -35h346q18 -141 11 -489h-230q2 186 12 301h-118
l2 -133q8 -8 32 -8zM532 553h-231q6 352 29 643h194q12 -465 8 -643zM1578 1321q50 0 83 -30t40 -83t-29 -96t-86 -43t-83 31t-41 83t29 95t87 43z" />
    <glyph glyph-name="A.ss01" horiz-adv-x="1247" 
d="M479 516h269q-25 213 -41 320l-19 71l-41 -71q-90 -154 -168 -320zM74.5 -8q-107.5 0 -174.5 22q276 676 678 1301q76 12 185 12t181 -12q162 -608 209 -1301q-220 -38 -371 -14q-2 72 -10 211h-430l-86 -211q-74 -8 -181.5 -8z" />
    <glyph glyph-name="Aacute.ss01" horiz-adv-x="1247" 
d="M479 516h269q-25 213 -41 320l-19 71l-41 -71q-90 -154 -168 -320zM74.5 -8q-107.5 0 -174.5 22q276 676 678 1301q76 12 185 12t181 -12q162 -608 209 -1301q-220 -38 -371 -14q-2 72 -10 211h-430l-86 -211q-74 -8 -181.5 -8zM1083 1559l-526 -193q-66 66 -84 158
l461 327q137 -108 149 -292z" />
    <glyph glyph-name="Abreve.ss01" horiz-adv-x="1247" 
d="M479 516h269q-25 213 -41 320l-19 71l-41 -71q-90 -154 -168 -320zM762.5 1327q109.5 0 181.5 -12q162 -608 209 -1301q-220 -38 -371 -14q-2 72 -10 211h-430l-86 -211q-74 -8 -181.5 -8t-174.5 22q276 676 678 1301q75 12 184.5 12zM758.5 1405q-185.5 0 -282.5 108.5
t-68 253.5q94 37 208 29q16 -143 175 -143q61 0 121.5 32.5t86.5 110.5q123 14 191 -29q-25 -150 -135.5 -256t-296 -106z" />
    <glyph glyph-name="Acircumflex.ss01" horiz-adv-x="1247" 
d="M479 516h269q-25 213 -41 320l-19 71l-41 -71q-90 -154 -168 -320zM762.5 1327q109.5 0 181.5 -12q162 -608 209 -1301q-220 -38 -371 -14q-2 72 -10 211h-430l-86 -211q-74 -8 -181.5 -8t-174.5 22q276 676 678 1301q75 12 184.5 12zM502 1409q-92 57 -107 166l336 227
q98 20 193 0l258 -227q-39 -113 -138 -166l-247 162z" />
    <glyph glyph-name="Adieresis.ss01" horiz-adv-x="1247" 
d="M479 516h269q-25 213 -41 320l-19 71l-41 -71q-90 -154 -168 -320zM762.5 1327q109.5 0 181.5 -12q162 -608 209 -1301q-220 -38 -371 -14q-2 72 -10 211h-430l-86 -211q-74 -8 -181.5 -8t-174.5 22q276 676 678 1301q75 12 184.5 12zM1035 1802q73 0 125 -51t52 -124
t-52 -125t-125 -52t-124 52t-51 125t51 124t124 51zM542 1450q-73 0 -124 52t-51 125t51 124t124 51t125 -51t52 -124t-52 -125t-125 -52z" />
    <glyph glyph-name="Agrave.ss01" horiz-adv-x="1247" 
d="M479 516h269q-25 213 -41 320l-19 71l-41 -71q-90 -154 -168 -320zM74.5 -8q-107.5 0 -174.5 22q276 676 678 1301q76 12 185 12t181 -12q162 -608 209 -1301q-220 -38 -371 -14q-2 72 -10 211h-430l-86 -211q-74 -8 -181.5 -8zM1081 1530q-20 -94 -88 -158l-514 193
q39 201 185 284z" />
    <glyph glyph-name="Amacron.ss01" horiz-adv-x="1247" 
d="M479 516h269q-25 213 -41 320l-19 71l-41 -71q-90 -154 -168 -320zM762.5 1327q109.5 0 181.5 -12q162 -608 209 -1301q-220 -38 -371 -14q-2 72 -10 211h-430l-86 -211q-74 -8 -181.5 -8t-174.5 22q276 676 678 1301q75 12 184.5 12zM1114 1491h-668q-12 49 0.5 114.5
t42.5 123.5h666q12 -123 -41 -238z" />
    <glyph glyph-name="Aogonek.ss01" horiz-adv-x="1247" 
d="M479 516h269q-25 213 -41 320l-19 71l-41 -71q-90 -154 -168 -320zM827 -451q-104 0 -164.5 49.5t-60.5 135.5t55.5 157.5t124.5 108.5q-2 72 -10 211h-430l-86 -211q-74 -8 -181.5 -8t-174.5 22q276 676 678 1301q76 12 185 12t181 -12q162 -608 209 -1301
q-166 -41 -226.5 -79.5t-60.5 -84.5q0 -27 19.5 -42t52.5 -15t90 41q94 -51 94 -170q-123 -115 -295 -115z" />
    <glyph glyph-name="Aring.ss01" horiz-adv-x="1247" 
d="M479 516h269q-25 213 -41 320l-19 71l-41 -71q-90 -154 -168 -320zM74.5 -8q-107.5 0 -174.5 22q276 676 678 1301q76 12 185 12t181 -12q162 -608 209 -1301q-220 -38 -371 -14q-2 72 -10 211h-430l-86 -211q-74 -8 -181.5 -8zM800 1708q-38 0 -59.5 -26.5t-21.5 -63.5
t20.5 -58.5t55.5 -21.5q84 0 84 94q0 33 -20.5 54.5t-58.5 21.5zM790 1368q-117 0 -186 58.5t-69 174t80.5 194.5t192.5 79t183.5 -57.5t71.5 -174t-78 -195.5t-195 -79z" />
    <glyph glyph-name="Atilde.ss01" horiz-adv-x="1247" 
d="M479 516h269q-25 213 -41 320l-19 71l-41 -71q-90 -154 -168 -320zM762.5 1327q109.5 0 181.5 -12q162 -608 209 -1301q-220 -38 -371 -14q-2 72 -10 211h-430l-86 -211q-74 -8 -181.5 -8t-174.5 22q276 676 678 1301q75 12 184.5 12zM938 1436q-70 0 -159 36.5
t-126 36.5q-80 0 -102 -90q-68 0 -130.5 22.5t-94.5 61.5q25 131 120 208t216 77q76 0 163.5 -38t114.5 -38q80 0 96 92q154 0 236 -69q-27 -145 -119 -222t-215 -77z" />
    <glyph glyph-name="E.ss01" horiz-adv-x="1021" 
d="M662 1022q-57 0 -96.5 -33t-39.5 -84t36 -69.5t116 -20.5h104q12 -27 12.5 -101.5t-57.5 -170.5h-102q-215 -2 -215 -144q0 -47 33.5 -75.5t101.5 -28.5q117 0 248 88q61 -35 96 -108.5t39 -165.5q-178 -139 -483 -140q-163 0 -295 72q-68 37 -109 106.5t-41 161.5
q0 285 275 391q-113 84 -113 230q0 182 140.5 301t390 119t372.5 -115q-16 -78 -71.5 -152.5t-124.5 -115.5q-106 55 -217 55z" />
    <glyph glyph-name="Eacute.ss01" horiz-adv-x="1021" 
d="M662 1022q-57 0 -96.5 -33t-39.5 -84t36 -69.5t116 -20.5h104q12 -27 12.5 -101.5t-57.5 -170.5h-102q-215 -2 -215 -144q0 -47 33.5 -75.5t101.5 -28.5q117 0 248 88q61 -35 96 -108.5t39 -165.5q-178 -139 -483 -140q-163 0 -295 72q-68 37 -109 106.5t-41 161.5
q0 285 275 391q-113 84 -113 230q0 182 140.5 301t390 119t372.5 -115q-16 -78 -71.5 -152.5t-124.5 -115.5q-106 55 -217 55zM1010 1559l-527 -193q-66 66 -84 158l461 327q138 -108 150 -292z" />
    <glyph glyph-name="Ecaron.ss01" horiz-adv-x="1021" 
d="M172 930q0 182 140.5 301t390 119t372.5 -115q-16 -78 -71.5 -152.5t-124.5 -115.5q-106 55 -217 55q-57 0 -96.5 -33t-39.5 -84t36 -69.5t116 -20.5h104q12 -27 12.5 -101.5t-57.5 -170.5h-102q-215 -2 -215 -144q0 -47 33.5 -75.5t101.5 -28.5q117 0 248 88
q61 -35 96 -108.5t39 -165.5q-178 -139 -483 -140q-163 0 -295 72q-68 37 -109 106.5t-41 161.5q0 285 275 391q-113 85 -113 230zM772 1436q-100 -20 -192 0l-258 229q39 113 137 166l248 -162l294 164q88 -57 105 -168z" />
    <glyph glyph-name="Ecircumflex.ss01" horiz-adv-x="1021" 
d="M172 930q0 182 140.5 301t390 119t372.5 -115q-16 -78 -71.5 -152.5t-124.5 -115.5q-106 55 -217 55q-57 0 -96.5 -33t-39.5 -84t36 -69.5t116 -20.5h104q12 -27 12.5 -101.5t-57.5 -170.5h-102q-215 -2 -215 -144q0 -47 33.5 -75.5t101.5 -28.5q117 0 248 88
q61 -35 96 -108.5t39 -165.5q-178 -139 -483 -140q-163 0 -295 72q-68 37 -109 106.5t-41 161.5q0 285 275 391q-113 85 -113 230zM428 1409q-92 57 -106 166l335 227q98 20 193 0l258 -227q-39 -113 -137 -166l-248 162z" />
    <glyph glyph-name="Edieresis.ss01" horiz-adv-x="1021" 
d="M172 930q0 182 140.5 301t390 119t372.5 -115q-16 -78 -71.5 -152.5t-124.5 -115.5q-106 55 -217 55q-57 0 -96.5 -33t-39.5 -84t36 -69.5t116 -20.5h104q12 -27 12.5 -101.5t-57.5 -170.5h-102q-215 -2 -215 -144q0 -47 33.5 -75.5t101.5 -28.5q117 0 248 88
q61 -35 96 -108.5t39 -165.5q-178 -139 -483 -140q-163 0 -295 72q-68 37 -109 106.5t-41 161.5q0 285 275 391q-113 85 -113 230zM962 1802q73 0 125 -51t52 -124t-52.5 -125t-125 -52t-124 52t-51.5 125t51.5 124t124.5 51zM468 1450q-73 0 -124 52t-51 125t51 124t124 51
t125 -51t52 -124t-52 -125t-125 -52z" />
    <glyph glyph-name="Edotaccent.ss01" horiz-adv-x="1021" 
d="M662 1022q-57 0 -96.5 -33t-39.5 -84t36 -69.5t116 -20.5h104q12 -27 12.5 -101.5t-57.5 -170.5h-102q-215 -2 -215 -144q0 -47 33.5 -75.5t101.5 -28.5q117 0 248 88q61 -35 96 -108.5t39 -165.5q-178 -139 -483 -140q-163 0 -295 72q-68 37 -109 106.5t-41 161.5
q0 285 275 391q-113 84 -113 230q0 182 140.5 301t390 119t372.5 -115q-16 -78 -71.5 -152.5t-124.5 -115.5q-106 55 -217 55zM728 1411q-87 0 -148.5 61.5t-61.5 149.5t61.5 148.5t148.5 60.5t148.5 -60.5t61.5 -148.5t-61.5 -149.5t-148.5 -61.5z" />
    <glyph glyph-name="Egrave.ss01" horiz-adv-x="1021" 
d="M662 1022q-57 0 -96.5 -33t-39.5 -84t36 -69.5t116 -20.5h104q12 -27 12.5 -101.5t-57.5 -170.5h-102q-215 -2 -215 -144q0 -47 33.5 -75.5t101.5 -28.5q117 0 248 88q61 -35 96 -108.5t39 -165.5q-178 -139 -483 -140q-163 0 -295 72q-68 37 -109 106.5t-41 161.5
q0 285 275 391q-113 84 -113 230q0 182 140.5 301t390 119t372.5 -115q-16 -78 -71.5 -152.5t-124.5 -115.5q-106 55 -217 55zM1008 1530q-20 -94 -88 -158l-514 193q39 201 184 284z" />
    <glyph glyph-name="Emacron.ss01" horiz-adv-x="1021" 
d="M172 930q0 182 140.5 301t390 119t372.5 -115q-16 -78 -71.5 -152.5t-124.5 -115.5q-106 55 -217 55q-57 0 -96.5 -33t-39.5 -84t36 -69.5t116 -20.5h104q12 -27 12.5 -101.5t-57.5 -170.5h-102q-215 -2 -215 -144q0 -47 33.5 -75.5t101.5 -28.5q117 0 248 88
q61 -35 96 -108.5t39 -165.5q-178 -139 -483 -140q-163 0 -295 72q-68 37 -109 106.5t-41 161.5q0 285 275 391q-113 85 -113 230zM1040 1491h-667q-12 49 0 114.5t43 123.5h665q12 -123 -41 -238z" />
    <glyph glyph-name="Eogonek.ss01" horiz-adv-x="1021" 
d="M662 1022q-57 0 -96.5 -33t-39.5 -84t36 -69.5t116 -20.5h104q12 -27 12 -101t-57 -171h-102q-215 -2 -215 -144q0 -47 33.5 -75.5t101.5 -28.5q117 0 248 88q61 -35 96 -108.5t39 -165.5q-41 -33 -107 -66q-164 -98 -163 -184q0 -66 67 -66q39 0 74 33q86 -47 104 -172
q-96 -104 -266 -105q-106 0 -173.5 49.5t-67.5 133.5q0 119 112 239q-20 -2 -82 -2t-135.5 17.5t-141 54.5t-108.5 106.5t-41 161.5q0 285 275 391q-113 84 -113 230q0 182 140 301t390 119t373 -115q-16 -78 -71.5 -152.5t-124.5 -115.5q-106 55 -217 55z" />
    <glyph glyph-name="Q.ss02" horiz-adv-x="1415" 
d="M467 578q0 -254 197 -269l-54 109q115 109 281 139l39 -80q51 104 51 266q0 268 -215 269q-141 0 -220 -117.5t-79 -316.5zM1386 788q0 -438 -280 -669l90 -180q-45 -53 -127 -91t-156 -49l-90 183q-82 -20 -180 -21q-268 0 -425 150.5t-157 423.5q0 375 209 600t537 225
q268 0 423.5 -150t155.5 -422z" />
    <glyph glyph-name="a.ss01" horiz-adv-x="1183" 
d="M395 424q0 -74 37 -113t95 -39t110 33l68 375q-47 10 -82 10q-96 0 -162 -67.5t-66 -198.5zM406 -37q-174 0 -281 109.5t-107 292.5q0 291 187.5 465t461 174t449.5 -93l-104 -581q-12 -76 65 -92q-16 -168 -108 -271q-197 0 -264 86q-70 -53 -137.5 -71.5t-161.5 -18.5z
" />
    <glyph glyph-name="a.ss02" horiz-adv-x="1103" 
d="M430 207q117 0 154 153l4 25h-88q-72 0 -111 -27.5t-39 -74.5q0 -76 80 -76zM627 629q0 78 -127 78q-160 0 -279 -82q-109 90 -106 231q66 51 188.5 99.5t278.5 48.5q416 0 415 -326q0 -39 -14 -137l-37 -215q-2 -9 -2 -25q0 -55 74 -70q-18 -168 -121 -270
q-123 0 -187.5 22.5t-99.5 100.5h-6q-129 -125 -334 -125q-123 0 -208 65.5t-85 194.5q0 174 135.5 267.5t360.5 93.5h148q6 30 6 49z" />
    <glyph glyph-name="a.ss03" horiz-adv-x="1050" 
d="M356 287q0 -80 113 -80q41 0 90 12l27 154q-47 12 -103 12q-127 0 -127 -98zM541 1004q526 0 442 -449l-90 -504q-246 -86 -483 -86q-426 0 -426 287q0 164 134 257t345 85q86 -2 158 -19l4 25q8 47 -27 77q-36 30 -150 30t-225 -60q-109 82 -106 254q178 103 424 103z
" />
    <glyph glyph-name="aacute.ss01" horiz-adv-x="1183" 
d="M395 424q0 -74 37 -113t95 -39t110 33l68 375q-47 10 -82 10q-96 0 -162 -67.5t-66 -198.5zM406 -37q-174 0 -281 109.5t-107 292.5q0 291 187.5 465t461 174t449.5 -93l-104 -581q-12 -76 65 -92q-16 -168 -108 -271q-197 0 -264 86q-70 -53 -137.5 -71.5t-161.5 -18.5z
M535 1051q-74 47 -93 129l381 374q147 -84 197 -264z" />
    <glyph glyph-name="aacute.ss02" horiz-adv-x="1103" 
d="M430 207q117 0 154 153l4 25h-88q-72 0 -111 -27.5t-39 -74.5q0 -76 80 -76zM627 629q0 78 -127 78q-160 0 -279 -82q-109 90 -106 231q66 51 188.5 99.5t278.5 48.5q416 0 415 -326q0 -39 -14 -137l-37 -215q-2 -9 -2 -25q0 -55 74 -70q-18 -168 -121 -270
q-123 0 -187.5 22.5t-99.5 100.5h-6q-129 -125 -334 -125q-123 0 -208 65.5t-85 194.5q0 174 135.5 267.5t360.5 93.5h148q6 30 6 49zM406 1051q-74 47 -93 129l381 374q147 -84 197 -264z" />
    <glyph glyph-name="aacute.ss03" horiz-adv-x="1050" 
d="M356 287q0 -80 113 -80q41 0 90 12l27 154q-47 12 -103 12q-127 0 -127 -98zM541 1004q526 0 442 -449l-90 -504q-246 -86 -483 -86q-426 0 -426 287q0 164 134 257t345 85q86 -2 158 -19l4 25q8 47 -27 77q-36 30 -150 30t-225 -60q-109 82 -106 254q178 103 424 103z
M418 1051q-74 47 -92 129l381 374q147 -84 196 -264z" />
    <glyph glyph-name="abreve.ss01" horiz-adv-x="1183" 
d="M395 424q0 -74 37 -113t95 -39t110 33l68 375q-47 10 -82 10q-96 0 -162 -67.5t-66 -198.5zM406 -37q-174 0 -281 109.5t-107 292.5q0 291 187.5 465t461 173.5t449.5 -92.5l-104 -581q-12 -76 65 -92q-16 -168 -108 -271q-197 0 -264 86q-70 -53 -137.5 -71.5
t-161.5 -18.5zM677 1079q-181 0 -270.5 114t-76.5 259q96 41 211 29q8 -76 60 -114t112 -38q160 0 202 152q129 14 205 -31q-14 -139 -138 -255t-305 -116z" />
    <glyph glyph-name="abreve.ss02" horiz-adv-x="1103" 
d="M430 207q117 0 154 153l4 25h-88q-72 0 -111 -27.5t-39 -74.5q0 -76 80 -76zM627 629q0 78 -127 78q-160 0 -279 -82q-109 90 -106 231q66 51 188.5 99.5t278.5 48.5q416 0 415 -326q0 -39 -14 -137l-37 -215q-2 -9 -2 -25q0 -55 74 -70q-18 -168 -121 -270
q-123 0 -187.5 22.5t-99.5 100.5h-6q-129 -125 -334 -125q-123 0 -208 65.5t-85 194.5q0 174 135.5 267.5t360.5 93.5h148q6 30 6 49zM548 1079q-181 0 -270.5 114t-76.5 259q96 41 211 29q8 -76 60 -114t112 -38q160 0 202 152q129 14 205 -31q-14 -139 -138 -255
t-305 -116z" />
    <glyph glyph-name="abreve.ss03" horiz-adv-x="1050" 
d="M356 287q0 -80 113 -80q41 0 90 12l27 154q-47 12 -103 12q-127 0 -127 -98zM541 1004q526 0 442 -449l-90 -504q-246 -86 -483 -86q-426 0 -426 287q0 164 134 257t345 85q86 -2 158 -19l4 25q8 47 -27 77t-149.5 30t-225.5 -60q-109 82 -106 254q178 103 424 103z
M560 1079q-181 0 -270 114t-77 259q96 41 211 29q8 -76 60.5 -114t111.5 -38q160 0 203 152q129 14 205 -31q-14 -139 -138.5 -255t-305.5 -116z" />
    <glyph glyph-name="acircumflex.ss01" horiz-adv-x="1183" 
d="M395 424q0 -74 37 -113t95 -39t110 33l68 375q-47 10 -82 10q-96 0 -162 -67.5t-66 -198.5zM406 -37q-174 0 -281 109.5t-107 292.5q0 291 187.5 465t461 174t449.5 -93l-104 -581q-12 -76 65 -92q-16 -168 -108 -271q-197 0 -264 86q-70 -53 -137.5 -71.5t-161.5 -18.5z
M436 1065q-92 41 -108 137l338 311q80 16 161 0l265 -303q-41 -100 -144 -145l-221 180z" />
    <glyph glyph-name="acircumflex.ss02" horiz-adv-x="1103" 
d="M430 207q117 0 154 153l4 25h-88q-72 0 -111 -27.5t-39 -74.5q0 -76 80 -76zM627 629q0 78 -127 78q-160 0 -279 -82q-109 90 -106 231q66 51 188.5 99.5t278.5 48.5q416 0 415 -326q0 -39 -14 -137l-37 -215q-2 -9 -2 -25q0 -55 74 -70q-18 -168 -121 -270
q-123 0 -187.5 22.5t-99.5 100.5h-6q-129 -125 -334 -125q-123 0 -208 65.5t-85 194.5q0 174 135.5 267.5t360.5 93.5h148q6 30 6 49zM307 1065q-92 41 -108 137l338 311q80 16 161 0l265 -303q-41 -100 -144 -145l-221 180z" />
    <glyph glyph-name="acircumflex.ss03" horiz-adv-x="1050" 
d="M356 287q0 -80 113 -80q41 0 90 12l27 154q-47 12 -103 12q-127 0 -127 -98zM541 1004q526 0 442 -449l-90 -504q-246 -86 -483 -86q-426 0 -426 287q0 164 134 257t345 85q86 -2 158 -19l4 25q8 47 -27 77q-36 30 -150 30t-225 -60q-109 82 -106 254q178 103 424 103z
M319 1065q-92 41 -108 137l338 311q82 16 162 0l264 -303q-41 -100 -144 -145l-221 180z" />
    <glyph glyph-name="adieresis.ss01" horiz-adv-x="1183" 
d="M395 424q0 -74 37 -113t95 -39t110 33l68 375q-47 10 -82 10q-96 0 -162 -67.5t-66 -198.5zM406 -37q-174 0 -281 109.5t-107 292.5q0 291 187.5 465t461 173.5t449.5 -92.5l-104 -581q-12 -76 65 -92q-16 -168 -108 -271q-197 0 -264 86q-70 -53 -137.5 -71.5
t-161.5 -18.5zM962.5 1108q-71.5 0 -123 51t-51.5 123t51.5 123t123 51t123 -51t51.5 -123t-51.5 -123t-123 -51zM483.5 1108q-71.5 0 -123 51t-51.5 123t51.5 123t123 51t122.5 -51t51 -123t-51 -123t-122.5 -51z" />
    <glyph glyph-name="adieresis.ss02" horiz-adv-x="1103" 
d="M430 207q117 0 154 153l4 25h-88q-72 0 -111 -27.5t-39 -74.5q0 -76 80 -76zM627 629q0 78 -127 78q-160 0 -279 -82q-109 90 -106 231q66 51 188.5 99.5t278.5 48.5q416 0 415 -326q0 -39 -14 -137l-37 -215q-2 -9 -2 -25q0 -55 74 -70q-18 -168 -121 -270
q-123 0 -187.5 22.5t-99.5 100.5h-6q-129 -125 -334 -125q-123 0 -208 65.5t-85 194.5q0 174 135.5 267.5t360.5 93.5h148q6 30 6 49zM833.5 1108q-71.5 0 -123 51t-51.5 123t51.5 123t123 51t123 -51t51.5 -123t-51.5 -123t-123 -51zM354.5 1108q-71.5 0 -123 51t-51.5 123
t51.5 123t123 51t122.5 -51t51 -123t-51 -123t-122.5 -51z" />
    <glyph glyph-name="adieresis.ss03" horiz-adv-x="1050" 
d="M356 287q0 -80 113 -80q41 0 90 12l27 154q-47 12 -103 12q-127 0 -127 -98zM541 1004q526 0 442 -449l-90 -504q-246 -86 -483 -86q-426 0 -426 287q0 164 134 257t345 85q86 -2 158 -19l4 25q8 47 -27 77q-36 30 -150 30t-225 -60q-109 82 -106 254q178 103 424 103z
M846 1108q-72 0 -123 51t-51 123t51 123t123 51t123 -51t51 -123t-51 -123t-123 -51zM366.5 1108q-71.5 0 -122.5 51t-51 123t51 123t122.5 51t123 -51t51.5 -123t-51.5 -123t-123 -51z" />
    <glyph glyph-name="agrave.ss01" horiz-adv-x="1183" 
d="M395 424q0 -74 37 -113t95 -39t110 33l68 375q-47 10 -82 10q-96 0 -162 -67.5t-66 -198.5zM406 -37q-174 0 -281 109.5t-107 292.5q0 291 187.5 465t461 174t449.5 -93l-104 -581q-12 -76 65 -92q-16 -168 -108 -271q-197 0 -264 86q-70 -53 -137.5 -71.5t-161.5 -18.5z
M969 1182q-35 -86 -103 -131l-452 235q55 182 207 260z" />
    <glyph glyph-name="agrave.ss02" horiz-adv-x="1103" 
d="M430 207q117 0 154 153l4 25h-88q-72 0 -111 -27.5t-39 -74.5q0 -76 80 -76zM627 629q0 78 -127 78q-160 0 -279 -82q-109 90 -106 231q66 51 188.5 99.5t278.5 48.5q416 0 415 -326q0 -39 -14 -137l-37 -215q-2 -9 -2 -25q0 -55 74 -70q-18 -168 -121 -270
q-123 0 -187.5 22.5t-99.5 100.5h-6q-129 -125 -334 -125q-123 0 -208 65.5t-85 194.5q0 174 135.5 267.5t360.5 93.5h148q6 30 6 49zM840 1182q-35 -86 -103 -131l-452 235q55 182 207 260z" />
    <glyph glyph-name="agrave.ss03" horiz-adv-x="1050" 
d="M356 287q0 -80 113 -80q41 0 90 12l27 154q-47 12 -103 12q-127 0 -127 -98zM541 1004q526 0 442 -449l-90 -504q-246 -86 -483 -86q-426 0 -426 287q0 164 134 257t345 85q86 -2 158 -19l4 25q8 47 -27 77q-36 30 -150 30t-225 -60q-109 82 -106 254q178 103 424 103z
M852 1182q-35 -86 -102 -131l-453 235q55 182 207 260z" />
    <glyph glyph-name="amacron.ss01" horiz-adv-x="1183" 
d="M395 424q0 -74 37 -113t95 -39t110 33l68 375q-47 10 -82 10q-96 0 -162 -67.5t-66 -198.5zM406 -37q-174 0 -281 109.5t-107 292.5q0 291 187.5 465t461 174t449.5 -93l-104 -581q-12 -76 65 -92q-16 -168 -108 -271q-197 0 -264 86q-70 -53 -137.5 -71.5t-161.5 -18.5z
M1085 1419v-53q0 -104 -49 -217h-667q-6 25 -7 65q0 100 54 205h669z" />
    <glyph glyph-name="amacron.ss02" horiz-adv-x="1103" 
d="M430 207q117 0 154 153l4 25h-88q-72 0 -111 -27.5t-39 -74.5q0 -76 80 -76zM627 629q0 78 -127 78q-160 0 -279 -82q-109 90 -106 231q66 51 188.5 99.5t278.5 48.5q416 0 415 -326q0 -39 -14 -137l-37 -215q-2 -9 -2 -25q0 -55 74 -70q-18 -168 -121 -270
q-123 0 -187.5 22.5t-99.5 100.5h-6q-129 -125 -334 -125q-123 0 -208 65.5t-85 194.5q0 174 135.5 267.5t360.5 93.5h148q6 30 6 49zM956 1419v-53q0 -104 -49 -217h-667q-6 25 -7 65q0 100 54 205h669z" />
    <glyph glyph-name="amacron.ss03" horiz-adv-x="1050" 
d="M356 287q0 -80 113 -80q41 0 90 12l27 154q-47 12 -103 12q-127 0 -127 -98zM541 1004q526 0 442 -449l-90 -504q-246 -86 -483 -86q-426 0 -426 287q0 164 134 257t345 85q86 -2 158 -19l4 25q8 47 -27 77t-149.5 30t-225.5 -60q-109 82 -106 254q178 103 424 103z
M246 1214q0 100 53 205h670v-53q0 -104 -49 -217h-668q-6 25 -6 65z" />
    <glyph glyph-name="aogonek.ss01" horiz-adv-x="1189" 
d="M395 424q0 -74 37 -113t95 -39t110 31l68 377q-47 10 -82 10q-96 0 -162 -68t-66 -198zM823 -154q0 -53 60 -53q45 0 102 41q41 -27 66 -75t14 -105q-117 -104 -281 -105q-100 -1 -161 49t-62 134q0 168 207 278q-43 23 -68 49q-78 -57 -146 -76t-165 -20
q-166 0 -268 110t-103 292q0 291 188 465t460 174q274 0 450 -93l-104 -581q-14 -78 71 -94q-25 -175 -84 -267q-76 0 -126 -39t-50 -84z" />
    <glyph glyph-name="aogonek.ss02" horiz-adv-x="1107" 
d="M430 207q117 0 152 151l6 27h-88q-72 0 -111 -28t-39 -74q0 -76 80 -76zM496 -268q0 162 194 270q-53 33 -61 107q-139 -150 -359 -150q-123 0 -208 66t-85 194q-1 174 135 267t361 94h148q13 67 -12 97q-26 30 -109 30q-160 0 -279 -82q-109 90 -106 231q67 51 189 99
t278 49q487 0 403 -449l-39 -229q-12 -76 72 -90q-12 -164 -84 -267q-78 0 -127 -35q-49 -34 -49 -72q0 -66 59 -69q41 0 78 37q43 -23 74 -72t30 -104q-117 -104 -280 -105q-99 -1 -161 49t-62 134z" />
    <glyph glyph-name="aogonek.ss03" horiz-adv-x="1050" 
d="M356 287q0 -80 113 -80q41 0 90 12l27 154q-47 12 -103 12q-127 0 -127 -98zM717 -141q0 -66 67 -66q39 0 74 33q86 -47 105 -172q-96 -104 -267 -105q-106 0 -173.5 49.5t-67.5 133.5q0 123 116 243q-88 -10 -161 -10q-426 0 -426 287q0 164 134 257t345 85
q86 -2 158 -19l4 25q8 47 -27 77t-149.5 30t-225.5 -60q-109 82 -106 254q178 102 424 103q526 0 442 -449l-90 -504q-176 -100 -176 -192z" />
    <glyph glyph-name="aring.ss01" horiz-adv-x="1183" 
d="M395 424q0 -74 37 -113t95 -39t110 33l68 375q-47 10 -82 10q-96 0 -162 -67.5t-66 -198.5zM406 -37q-174 0 -281 109.5t-107 292.5q0 291 187.5 465t461 174t449.5 -93l-104 -581q-12 -76 65 -92q-16 -168 -108 -271q-197 0 -264 86q-70 -53 -137.5 -71.5t-161.5 -18.5z
M727 1386q-37 0 -59.5 -25.5t-22.5 -63.5t21.5 -59t54.5 -21q84 0 84 94q0 35 -20.5 55t-57.5 20zM717 1049q-117 0 -186.5 58t-69.5 174t81 194.5t192.5 78.5t183 -58t71.5 -175t-77.5 -194.5t-194.5 -77.5z" />
    <glyph glyph-name="aring.ss02" horiz-adv-x="1103" 
d="M430 207q117 0 154 153l4 25h-88q-72 0 -111 -27.5t-39 -74.5q0 -76 80 -76zM627 629q0 78 -127 78q-160 0 -279 -82q-109 90 -106 231q66 51 188.5 99.5t278.5 48.5q416 0 415 -326q0 -39 -14 -137l-37 -215q-2 -9 -2 -25q0 -55 74 -70q-18 -168 -121 -270
q-123 0 -187.5 22.5t-99.5 100.5h-6q-129 -125 -334 -125q-123 0 -208 65.5t-85 194.5q0 174 135.5 267.5t360.5 93.5h148q6 30 6 49zM598 1386q-37 0 -59.5 -25.5t-22.5 -63.5t21.5 -59t54.5 -21q84 0 84 94q0 35 -20.5 55t-57.5 20zM588 1049q-117 0 -186.5 58t-69.5 174
t81 194.5t192.5 78.5t183 -58t71.5 -175t-77.5 -194.5t-194.5 -77.5z" />
    <glyph glyph-name="aring.ss03" horiz-adv-x="1050" 
d="M356 287q0 -80 113 -80q41 0 90 12l27 154q-47 12 -103 12q-127 0 -127 -98zM541 1004q526 0 442 -449l-90 -504q-246 -86 -483 -86q-426 0 -426 287q0 164 134 257t345 85q86 -2 158 -19l4 25q8 47 -27 77t-149.5 30t-225.5 -60q-109 82 -106 254q178 103 424 103z
M610 1386q-37 0 -59.5 -25.5t-22.5 -63.5t21.5 -59t54.5 -21q84 0 84 94q0 35 -20.5 55t-57.5 20zM600 1049q-117 0 -186.5 58t-69.5 174t81 194.5t193 78.5t183 -58t71 -175t-77.5 -194.5t-194.5 -77.5z" />
    <glyph glyph-name="atilde.ss01" horiz-adv-x="1183" 
d="M395 424q0 -74 37 -113t95 -39t110 33l68 375q-47 10 -82 10q-96 0 -162 -67.5t-66 -198.5zM406 -37q-174 0 -281 109.5t-107 292.5q0 291 187.5 465t461 173.5t449.5 -92.5l-104 -581q-12 -76 65 -92q-16 -168 -108 -271q-197 0 -264 86q-70 -53 -137.5 -71.5
t-161.5 -18.5zM846 1403q66 0 100 88q152 0 234 -88q-90 -272 -310 -273q-82 -2 -156.5 36t-111.5 38q-69 0 -106 -98q-59 0 -129 22.5t-99 65.5q41 135 120 210t175 76t172 -38t111 -39z" />
    <glyph glyph-name="atilde.ss02" horiz-adv-x="1103" 
d="M430 207q117 0 154 153l4 25h-88q-72 0 -111 -27.5t-39 -74.5q0 -76 80 -76zM627 629q0 78 -127 78q-160 0 -279 -82q-109 90 -106 231q66 51 188.5 99.5t278.5 48.5q416 0 415 -326q0 -39 -14 -137l-37 -215q-2 -9 -2 -25q0 -55 74 -70q-18 -168 -121 -270
q-123 0 -187.5 22.5t-99.5 100.5h-6q-129 -125 -334 -125q-123 0 -208 65.5t-85 194.5q0 174 135.5 267.5t360.5 93.5h148q6 30 6 49zM717 1403q66 0 100 88q152 0 234 -88q-90 -272 -310 -273q-82 -2 -156.5 36t-111.5 38q-69 0 -106 -98q-59 0 -129 22.5t-99 65.5
q41 135 120 210t175 76t172 -38t111 -39z" />
    <glyph glyph-name="atilde.ss03" horiz-adv-x="1050" 
d="M356 287q0 -80 113 -80q41 0 90 12l27 154q-47 12 -103 12q-127 0 -127 -98zM541 1004q526 0 442 -449l-90 -504q-246 -86 -483 -86q-426 0 -426 287q0 164 134 257t345 85q86 -2 158 -19l4 25q8 47 -27 77t-149.5 30t-225.5 -60q-109 82 -106 254q178 103 424 103z
M729 1403q66 0 100 88q152 0 234 -88q-90 -272 -309 -273q-82 -2 -157 36t-112 38q-69 0 -106 -98q-59 0 -129 22.5t-98 65.5q41 135 119.5 210t175 76t172 -38t110.5 -39z" />
    <glyph glyph-name="b.ss01" horiz-adv-x="1140" 
d="M496 276q88 0 154.5 70t66.5 195q0 154 -119 153q-84 0 -131 -61l-64 -348q44 -9 93 -9zM725 1004q172 0 270.5 -108t98.5 -292q0 -287 -185.5 -464t-458 -177t-456.5 88l225 1288q189 31 373 0l-70 -385q90 50 203 50z" />
    <glyph glyph-name="d.ss01" horiz-adv-x="1136" 
d="M395 426q0 -154 123 -154q74 0 119 45l63 359q-33 14 -84 14q-94 0 -157.5 -67.5t-63.5 -196.5zM1000 1354q99 0 188 -15l-240 -1349q-121 -25 -239 0l-17 96h-4q-129 -123 -300 -123t-270.5 107.5t-99.5 291.5q0 291 181.5 466.5t462.5 175.5q35 0 96 -5l59 340
q84 15 183 15z" />
    <glyph glyph-name="dcaron.ss01" horiz-adv-x="1136" 
d="M395 426q0 -154 123 -154q74 0 119 45l63 359q-33 14 -84 14q-94 0 -157.5 -67.5t-63.5 -196.5zM388 -37q-171 0 -270.5 107.5t-99.5 291.5q0 291 181.5 466.5t462.5 175.5q35 0 96 -5l59 340q187 31 371 0l-240 -1349q-121 -25 -239 0l-17 96h-4q-129 -123 -300 -123z
M1478 1479q85 0 134 -31v-33q0 -145 -72 -267t-164 -192q-37 0 -71.5 21.5t-47.5 50.5q27 53 41 85q36 84 35.5 189t-8.5 144q68 33 153 33z" />
    <glyph glyph-name="dcroat.ss01" horiz-adv-x="1136" 
d="M395 426q0 -154 123 -154q74 0 119 45l63 359q-33 14 -84 14q-94 0 -157.5 -67.5t-63.5 -196.5zM388 -37q-171 0 -270.5 107.5t-99.5 291.5q0 291 181.5 466.5t462.5 175.5q35 0 96 -5l12 78h-149q-18 86 26 197h158l12 65q187 31 371 0l-12 -65h163q12 -102 -26 -197
h-172l-193 -1087q-121 -25 -239 0l-17 96h-4q-129 -123 -300 -123z" />
    <glyph glyph-name="e.ss02" horiz-adv-x="1069" 
d="M684 631q0 102 -96 102q-119 0 -166 -145h254q8 14 8 43zM1020 633q0 -131 -41 -236h-580q4 -80 46 -113.5t147 -33.5t229 76q111 -90 111 -252q-186 -111 -421.5 -111t-358.5 113.5t-123 322.5q0 293 165.5 449t419.5 156q190 0 298 -99.5t108 -271.5z" />
    <glyph glyph-name="e.ss03" horiz-adv-x="1050" 
d="M569 596q82 0 82 70q0 59 -76 59q-114 0 -161 -129h155zM1020 691.5q0 -145.5 -101.5 -223t-285.5 -79.5l-236 -2q12 -76 56.5 -103.5t141.5 -27.5t224 72q98 -78 99 -258q-188 -106 -415 -106.5t-352.5 115.5t-125.5 320q0 266 165.5 436.5t425.5 168.5
q188 -2 296 -84.5t108 -228z" />
    <glyph glyph-name="eacute.ss02" horiz-adv-x="1069" 
d="M684 631q0 102 -96 102q-119 0 -166 -145h254q8 14 8 43zM1020 633q0 -131 -41 -236h-580q4 -80 46 -113.5t147 -33.5t229 76q111 -90 111 -252q-186 -111 -421.5 -111t-358.5 113.5t-123 322.5q0 293 165.5 449t419.5 156q190 0 298 -99.5t108 -271.5zM455 1051
q-74 47 -93 129l381 374q147 -84 197 -264z" />
    <glyph glyph-name="eacute.ss03" horiz-adv-x="1050" 
d="M569 596q82 0 82 70q0 59 -76 59q-114 0 -161 -129h155zM1020 691.5q0 -145.5 -101.5 -223t-285.5 -79.5l-236 -2q12 -76 56.5 -103.5t141.5 -27.5t224 72q98 -78 99 -258q-188 -106 -415 -106.5t-352.5 115.5t-125.5 320q0 266 165.5 436.5t425.5 168.5
q188 -2 296 -84.5t108 -228zM428 1051q-74 47 -92 129l381 374q147 -84 196 -264z" />
    <glyph glyph-name="ecaron.ss02" horiz-adv-x="1069" 
d="M684 631q0 102 -96 102q-119 0 -166 -145h254q8 14 8 43zM1020 633q0 -131 -41 -236h-580q4 -80 46 -113.5t147 -33.5t229 76q111 -90 111 -252q-186 -111 -421.5 -111t-358.5 113.5t-123 322.5q0 293 165.5 449t419.5 156q190 0 298 -99.5t108 -271.5zM678 1073
q-80 -14 -162 0l-268 303q41 98 147 146l223 -183l289 183q96 -43 109 -138z" />
    <glyph glyph-name="ecaron.ss03" horiz-adv-x="1050" 
d="M569 596q82 0 82 70q0 59 -76 59q-114 0 -161 -129h155zM1020 691.5q0 -145.5 -101.5 -223t-285.5 -79.5l-236 -2q12 -76 56.5 -103.5t141.5 -27.5t224 72q98 -78 99 -258q-188 -106 -415 -106.5t-352.5 115.5t-125.5 320q0 266 165.5 436.5t425.5 168.5
q188 -2 296 -84.5t108 -228zM651 1073q-80 -14 -162 0l-268 303q41 98 148 146l223 -183l289 183q96 -43 108 -138z" />
    <glyph glyph-name="ecircumflex.ss02" horiz-adv-x="1069" 
d="M684 631q0 102 -96 102q-119 0 -166 -145h254q8 14 8 43zM1020 633q0 -131 -41 -236h-580q4 -80 46 -113.5t147 -33.5t229 76q111 -90 111 -252q-186 -111 -421.5 -111t-358.5 113.5t-123 322.5q0 293 165.5 449t419.5 156q190 0 298 -99.5t108 -271.5zM356 1065
q-92 41 -108 137l338 311q82 16 162 0l264 -303q-41 -100 -144 -145l-221 180z" />
    <glyph glyph-name="ecircumflex.ss03" horiz-adv-x="1050" 
d="M569 596q82 0 82 70q0 59 -76 59q-114 0 -161 -129h155zM1020 691.5q0 -145.5 -101.5 -223t-285.5 -79.5l-236 -2q12 -76 56.5 -103.5t141.5 -27.5t224 72q98 -78 99 -258q-188 -106 -415 -106.5t-352.5 115.5t-125.5 320q0 266 165.5 436.5t425.5 168.5
q188 -2 296 -84.5t108 -228zM330 1065q-92 41 -109 137l338 311q80 16 162 0l264 -303q-41 -100 -143 -145l-221 180z" />
    <glyph glyph-name="edieresis.ss02" horiz-adv-x="1069" 
d="M684 631q0 102 -96 102q-119 0 -166 -145h254q8 14 8 43zM614 1004q190 0 298 -99.5t108 -271.5q0 -131 -41 -236h-580q4 -80 46 -113.5t147 -33.5t229 76q111 -90 111 -252q-186 -111 -421.5 -111t-358.5 113.5t-123 322.5q0 293 165.5 449t419.5 156zM882.5 1108
q-71.5 0 -122.5 51t-51 123t51 123t122.5 51t123 -51t51.5 -123t-51.5 -123t-123 -51zM403.5 1108q-71.5 0 -123 51t-51.5 123t51.5 123t123 51t123 -51t51.5 -123t-51.5 -123t-123 -51z" />
    <glyph glyph-name="edieresis.ss03" horiz-adv-x="1050" 
d="M569 596q82 0 82 70q0 59 -76 59q-115 0 -161 -129h155zM1020 692q0 -146 -101.5 -223.5t-285.5 -79.5l-236 -2q12 -76 56.5 -103.5t141.5 -27.5t224 72q98 -78 99 -258q-188 -106 -415 -106.5t-352.5 115.5t-125.5 320q0 266 165.5 436.5t425.5 168.5q188 -2 296 -84
t108 -228zM856 1108q-72 0 -123 51t-51 123t51 123t123 51t123 -51t51 -123t-51 -123t-123 -51zM377 1108q-72 0 -123 51t-51 123t51 123t123 51t123 -51t51 -123t-51 -123t-123 -51z" />
    <glyph glyph-name="edotaccent.ss02" horiz-adv-x="1069" 
d="M684 631q0 102 -96 102q-119 0 -166 -145h254q8 14 8 43zM1020 633q0 -131 -41 -236h-580q4 -80 46 -113.5t147 -33.5t229 76q111 -90 111 -252q-186 -111 -421.5 -111t-358.5 113.5t-123 322.5q0 293 165.5 449t419.5 156q190 0 298 -99.5t108 -271.5zM641 1081
q-88 0 -149.5 62.5t-61.5 150.5t61.5 149.5t149.5 61.5t149.5 -61.5t61.5 -149.5t-61.5 -150.5t-149.5 -62.5z" />
    <glyph glyph-name="edotaccent.ss03" horiz-adv-x="1050" 
d="M569 596q82 0 82 70q0 59 -76 59q-114 0 -161 -129h155zM1020 691.5q0 -145.5 -101.5 -223t-285.5 -79.5l-236 -2q12 -76 56.5 -103.5t141.5 -27.5t224 72q98 -78 99 -258q-188 -106 -415 -106.5t-352.5 115.5t-125.5 320q0 266 165.5 436.5t425.5 168.5
q188 -2 296 -84.5t108 -228zM614 1081q-88 0 -149.5 62.5t-61.5 150.5t61.5 149.5t149.5 61.5t149.5 -61.5t61.5 -149.5t-61.5 -150.5t-149.5 -62.5z" />
    <glyph glyph-name="egrave.ss02" horiz-adv-x="1069" 
d="M684 631q0 102 -96 102q-119 0 -166 -145h254q8 14 8 43zM1020 633q0 -131 -41 -236h-580q4 -80 46 -113.5t147 -33.5t229 76q111 -90 111 -252q-186 -111 -421.5 -111t-358.5 113.5t-123 322.5q0 293 165.5 449t419.5 156q190 0 298 -99.5t108 -271.5zM889 1182
q-35 -86 -103 -131l-452 235q55 182 207 260z" />
    <glyph glyph-name="egrave.ss03" horiz-adv-x="1050" 
d="M569 596q82 0 82 70q0 59 -76 59q-114 0 -161 -129h155zM1020 691.5q0 -145.5 -101.5 -223t-285.5 -79.5l-236 -2q12 -76 56.5 -103.5t141.5 -27.5t224 72q98 -78 99 -258q-188 -106 -415 -106.5t-352.5 115.5t-125.5 320q0 266 165.5 436.5t425.5 168.5
q188 -2 296 -84.5t108 -228zM862 1182q-35 -86 -102 -131l-453 235q55 182 207 260z" />
    <glyph glyph-name="emacron.ss02" horiz-adv-x="1069" 
d="M684 631q0 102 -96 102q-119 0 -166 -145h254q8 14 8 43zM1020 633q0 -131 -41 -236h-580q4 -80 46 -113.5t147 -33.5t229 76q111 -90 111 -252q-186 -111 -421.5 -111t-358.5 113.5t-123 322.5q0 293 165.5 449t419.5 156q190 0 298 -99.5t108 -271.5zM283 1214
q0 100 53 205h670v-53q-1 -104 -50 -217h-667q-6 25 -6 65z" />
    <glyph glyph-name="emacron.ss03" horiz-adv-x="1050" 
d="M569 596q82 0 82 70q0 59 -76 59q-114 0 -161 -129h155zM1020 691.5q0 -145.5 -101.5 -223t-285.5 -79.5l-236 -2q12 -76 56.5 -103.5t141.5 -27.5t224 72q98 -78 99 -258q-188 -106 -415 -106.5t-352.5 115.5t-125.5 320q0 266 165.5 436.5t425.5 168.5
q188 -2 296 -84.5t108 -228zM256 1214q0 100 53 205h670v-53q0 -104 -49 -217h-668q-6 25 -6 65z" />
    <glyph glyph-name="eogonek.ss02" horiz-adv-x="1069" 
d="M684 631q0 102 -96 102q-119 0 -166 -145h254q8 14 8 43zM1020 633q0 -131 -41 -236h-580q4 -80 46 -113.5t147 -33.5t229 76q111 -90 111 -252q-39 -25 -80 -41q-145 -90 -145 -174q0 -66 67 -66q39 0 74 33q86 -47 104 -172q-96 -104 -266 -105q-106 0 -174 49.5
t-68 133.5q0 119 107 233q-16 -2 -53 -2q-223 0 -346 113.5t-123 322.5q0 293 165.5 449t419.5 156q190 0 298 -99.5t108 -271.5z" />
    <glyph glyph-name="eogonek.ss03" horiz-adv-x="1050" 
d="M569 596q82 0 82 70q0 59 -76 59q-114 0 -161 -129h155zM1020 691.5q0 -145.5 -101.5 -223t-285.5 -79.5l-236 -2q12 -76 56.5 -103.5t141.5 -27.5t224 72q98 -78 99 -258q-66 -39 -148 -64q-104 -82 -104 -147.5t67 -65.5q39 0 74 33q86 -47 104 -172
q-96 -104 -266 -105q-106 0 -174 49.5t-68 133.5q0 117 107 231h-25q-209 0 -334.5 116t-125.5 320q0 266 165.5 436.5t425.5 168.5q188 -2 296 -84.5t108 -228z" />
    <glyph glyph-name="f.ss01" horiz-adv-x="768" 
d="M741 1368q147 0 248 -57q-12 -72 -52 -149t-81 -113q-43 25 -113 24q-106 0 -125 -117l-2 -6h183q6 -156 -54 -301h-180l-104 -598q-43 -246 -158 -362.5t-346 -116.5q-147 0 -248 57q10 72 51 148t82 114q43 -25 111 -24q104 0 127 117l117 665h-142q-14 147 54 301h141
q47 213 160.5 315.5t330.5 102.5z" />
    <glyph glyph-name="g.ss01" horiz-adv-x="1110" 
d="M383 -174q137 0 174 170l12 67q-68 -6 -73 -6q-96 -8 -151.5 -51t-55.5 -98q0 -82 94 -82zM582.5 709q-66.5 0 -120.5 -54.5t-54 -165.5q0 -143 145 -143q33 0 68 6l59 348q-31 9 -97.5 9zM659.5 1010q262.5 0 425.5 -107l-149 -850q-43 -240 -203 -356.5t-387 -116.5
q-168 0 -280.5 61.5t-112.5 182.5q0 197 235 299q-158 100 -157 319q0 262 183 415t445.5 153z" />
    <glyph glyph-name="g.ss02" horiz-adv-x="1087" 
d="M518 492q74 0 118 43t44 99t-12 99h-80q-84 0 -134.5 -40t-50.5 -103q0 -98 115 -98zM1010 631q0 -188 -143.5 -294t-366.5 -106q-57 0 -111 7q-6 -16 -6 -31q0 -31 56.5 -43t136 -21.5t158.5 -32t135.5 -88t56.5 -174.5q0 -336 -541 -335q-322 0 -494 102
q29 168 158 238q117 -88 340 -89q164 0 164 58q0 25 -54.5 36t-132 19t-155.5 26.5t-132 74t-54 145.5q0 115 129 196q-104 80 -105 238q0 211 159 325.5t410 114.5h125q51 0 90 25t111 108q158 -40 221 -159q-80 -133 -184 -191q29 -66 29 -149z" />
    <glyph glyph-name="g.ss03" horiz-adv-x="1093" 
d="M389 547q0 -147 127 -148q154 0 154 187q0 147 -125 147q-70 0 -113 -49t-43 -137zM995 590q0 -184 -123 -311q59 -78 60 -179q0 -252 -158 -390t-395 -138q-334 0 -471 205q20 72 86.5 133t161.5 86q88 -127 245 -127q80 0 130.5 50t50.5 114.5t-50 107.5q-16 -2 -47 -2
q-227 0 -338.5 102.5t-111.5 278.5q0 231 152.5 354t416.5 123h98q63 0 123 35t93 98q166 -42 229 -165q-63 -133 -205 -199q53 -74 53 -176z" />
    <glyph glyph-name="g.ss04" horiz-adv-x="1105" 
d="M526 492q74 0 118 43t44 99t-12 99h-80q-84 0 -134 -40t-50 -103q-1 -98 114 -98zM1018 631q0 -188 -143.5 -294t-366.5 -106h-88q-45 0 -69.5 -27.5t-24.5 -58.5q0 -61 69 -61h553v-41q0 -115 -51 -248h-580q-328 0 -327 238q0 186 174 284q-106 82 -107 240
q0 211 159 325.5t411 114.5h125q51 0 90 25t110 108q159 -40 222 -159q-80 -133 -185 -191q29 -66 29 -149z" />
    <glyph glyph-name="gbreve.ss01" horiz-adv-x="1110" 
d="M383 -174q137 0 174 170l12 67q-68 -6 -73 -6q-96 -8 -151.5 -51t-55.5 -98q0 -82 94 -82zM582.5 709q-66.5 0 -120.5 -54.5t-54 -165.5q0 -143 145 -143q33 0 68 6l59 348q-31 9 -97.5 9zM659.5 1010q262.5 0 425.5 -107l-149 -850q-43 -240 -203 -356.5t-387 -116.5
q-168 0 -280.5 61.5t-112.5 182.5q0 197 235 299q-158 100 -157 319q0 262 183 415t445.5 153zM636 1079q-181 0 -270.5 114t-76.5 259q96 41 211 29q8 -76 60 -114t112 -38q160 0 202 152q129 14 205 -31q-14 -139 -138 -255t-305 -116z" />
    <glyph glyph-name="gbreve.ss02" horiz-adv-x="1087" 
d="M518 492q74 0 118 43t44 99t-12 99h-80q-84 0 -134.5 -40t-50.5 -103q0 -98 115 -98zM1010 631q0 -188 -143.5 -294t-366.5 -106q-57 0 -111 7q-6 -16 -6 -31q0 -31 56.5 -43t136 -21.5t158.5 -32t135.5 -88t56.5 -174.5q0 -336 -541 -335q-322 0 -494 102
q29 168 158 238q117 -88 340 -89q164 0 164 58q0 25 -54.5 36t-132 19t-155.5 26.5t-132 74t-54 145.5q0 115 129 196q-104 80 -105 238q0 211 159 325.5t410 114.5h125q51 0 90 25t111 108q158 -40 221 -159q-80 -133 -184 -191q29 -66 29 -149zM585 1079
q-181 0 -270.5 114t-76.5 259q96 41 211 29q8 -76 60 -114t112 -38q160 0 202 152q129 14 205 -31q-14 -139 -138 -255t-305 -116z" />
    <glyph glyph-name="gbreve.ss03" horiz-adv-x="1093" 
d="M389 547q0 -147 127 -148q154 0 154 187q0 147 -125 147q-70 0 -113 -49t-43 -137zM995 590q0 -184 -123 -311q59 -78 60 -179q0 -252 -158 -390t-395 -138q-334 0 -471 205q20 72 86.5 133t161.5 86q88 -127 245 -127q80 0 130.5 50t50.5 114.5t-50 107.5q-16 -2 -47 -2
q-227 0 -338.5 102.5t-111.5 278.5q0 231 152.5 354t416.5 123h98q63 0 123 35t93 98q166 -42 229 -165q-63 -133 -205 -199q53 -74 53 -176zM548 1079q-181 0 -270.5 114t-76.5 259q96 41 211 29q8 -76 60 -114t112 -38q160 0 202 152q129 14 205 -31q-14 -139 -138 -255
t-305 -116z" />
    <glyph glyph-name="gbreve.ss04" horiz-adv-x="1105" 
d="M526 492q74 0 118 43t44 99t-12 99h-80q-84 0 -134 -40t-50 -103q-1 -98 114 -98zM1018 631q0 -188 -143.5 -294t-366.5 -106h-88q-45 0 -69.5 -27.5t-24.5 -58.5q0 -61 69 -61h553v-41q0 -115 -51 -248h-580q-328 0 -327 238q0 186 174 284q-106 82 -107 240
q0 211 159 325.5t411 114.5h125q51 0 90 25t110 108q159 -40 222 -159q-80 -133 -185 -191q29 -66 29 -149zM599 1079q-181 0 -270 114t-77 259q96 41 211 29q8 -76 60 -114t112 -38q160 0 203 152q129 14 204 -31q-14 -139 -138 -255t-305 -116z" />
    <glyph glyph-name="gcommaaccent.ss01" horiz-adv-x="1110" 
d="M383 -174q137 0 174 170l12 67q-68 -6 -73 -6q-96 -8 -151.5 -51t-55.5 -98q0 -82 94 -82zM582.5 709q-66.5 0 -120.5 -54.5t-54 -165.5q0 -143 145 -143q33 0 68 6l59 348q-31 9 -97.5 9zM659.5 1010q262.5 0 425.5 -107l-149 -850q-43 -240 -203 -356.5t-387 -116.5
q-168 0 -280.5 61.5t-112.5 182.5q0 197 235 299q-158 100 -157 319q0 262 183 415t445.5 153zM629 1044q-82 0 -129 27q0 2 6 64q18 115 75.5 213t139.5 155q98 0 133 -82q-43 -78 -62.5 -135t-19.5 -125t2 -88q-63 -29 -145 -29z" />
    <glyph glyph-name="gcommaaccent.ss02" horiz-adv-x="1087" 
d="M518 492q74 0 118 43t44 99t-12 99h-80q-84 0 -134.5 -40t-50.5 -103q0 -98 115 -98zM1010 631q0 -188 -143.5 -294t-366.5 -106q-57 0 -111 7q-6 -16 -6 -31q0 -31 56.5 -43t136 -21.5t158.5 -32t135.5 -88t56.5 -174.5q0 -336 -541 -335q-322 0 -494 102
q29 168 158 238q117 -88 340 -89q164 0 164 58q0 25 -54.5 36t-132 19t-155.5 26.5t-132 74t-54 145.5q0 115 129 196q-104 80 -105 238q0 211 159 325.5t410 114.5h125q51 0 90 25t111 108q158 -40 221 -159q-80 -133 -184 -191q29 -66 29 -149zM578 1044q-82 0 -129 27
q0 2 6 64q18 115 75.5 213t139.5 155q98 0 133 -82q-43 -78 -62.5 -135t-19.5 -125t2 -88q-63 -29 -145 -29z" />
    <glyph glyph-name="gcommaaccent.ss03" horiz-adv-x="1093" 
d="M389 547q0 -147 127 -148q154 0 154 187q0 147 -125 147q-70 0 -113 -49t-43 -137zM995 590q0 -184 -123 -311q59 -78 60 -179q0 -252 -158 -390t-395 -138q-334 0 -471 205q20 72 86.5 133t161.5 86q88 -127 245 -127q80 0 130.5 50t50.5 114.5t-50 107.5q-16 -2 -47 -2
q-227 0 -338.5 102.5t-111.5 278.5q0 231 152.5 354t416.5 123h98q63 0 123 35t93 98q166 -42 229 -165q-63 -133 -205 -199q53 -74 53 -176zM541 1044q-82 0 -129 27q0 2 6 64q18 115 75.5 213t139.5 155q98 0 133 -82q-43 -78 -62.5 -135t-19.5 -125t2 -88
q-63 -29 -145 -29z" />
    <glyph glyph-name="gcommaaccent.ss04" horiz-adv-x="1105" 
d="M526 492q74 0 118 43t44 99t-12 99h-80q-84 0 -134 -40t-50 -103q-1 -98 114 -98zM1018 631q0 -188 -143.5 -294t-366.5 -106h-88q-45 0 -69.5 -27.5t-24.5 -58.5q0 -61 69 -61h553v-41q0 -115 -51 -248h-580q-328 0 -327 238q0 186 174 284q-106 82 -107 240
q0 211 159 325.5t411 114.5h125q51 0 90 25t110 108q159 -40 222 -159q-80 -133 -185 -191q29 -66 29 -149zM592 1044q-82 0 -129 27q0 2 6 64q18 115 75.5 213t139.5 155q98 0 133 -82q-43 -78 -62.5 -135t-19.5 -125t2 -88q-63 -29 -145 -29z" />
    <glyph glyph-name="gdotaccent.ss01" horiz-adv-x="1110" 
d="M383 -174q137 0 174 170l12 67q-68 -6 -73 -6q-96 -8 -151.5 -51t-55.5 -98q0 -82 94 -82zM582.5 709q-66.5 0 -120.5 -54.5t-54 -165.5q0 -143 145 -143q33 0 68 6l59 348q-31 9 -97.5 9zM659.5 1010q262.5 0 425.5 -107l-149 -850q-43 -240 -203 -356.5t-387 -116.5
q-168 0 -280.5 61.5t-112.5 182.5q0 197 235 299q-158 100 -157 319q0 262 183 415t445.5 153zM680 1081q-88 0 -149.5 62.5t-61.5 150.5t61.5 149.5t149.5 61.5t149.5 -61.5t61.5 -149.5t-61.5 -150.5t-149.5 -62.5z" />
    <glyph glyph-name="gdotaccent.ss02" horiz-adv-x="1087" 
d="M518 492q74 0 118 43t44 99t-12 99h-80q-84 0 -134.5 -40t-50.5 -103q0 -98 115 -98zM1010 631q0 -188 -143.5 -294t-366.5 -106q-57 0 -111 7q-6 -16 -6 -31q0 -31 56.5 -43t136 -21.5t158.5 -32t135.5 -88t56.5 -174.5q0 -336 -541 -335q-322 0 -494 102
q29 168 158 238q117 -88 340 -89q164 0 164 58q0 25 -54.5 36t-132 19t-155.5 26.5t-132 74t-54 145.5q0 115 129 196q-104 80 -105 238q0 211 159 325.5t410 114.5h125q51 0 90 25t111 108q158 -40 221 -159q-80 -133 -184 -191q29 -66 29 -149zM629 1081
q-88 0 -149.5 62.5t-61.5 150.5t61.5 149.5t149.5 61.5t149.5 -61.5t61.5 -149.5t-61.5 -150.5t-149.5 -62.5z" />
    <glyph glyph-name="gdotaccent.ss03" horiz-adv-x="1093" 
d="M389 547q0 -147 127 -148q154 0 154 187q0 147 -125 147q-70 0 -113 -49t-43 -137zM995 590q0 -184 -123 -311q59 -78 60 -179q0 -252 -158 -390t-395 -138q-334 0 -471 205q20 72 86.5 133t161.5 86q88 -127 245 -127q80 0 130.5 50t50.5 114.5t-50 107.5q-16 -2 -47 -2
q-227 0 -338.5 102.5t-111.5 278.5q0 231 152.5 354t416.5 123h98q63 0 123 35t93 98q166 -42 229 -165q-63 -133 -205 -199q53 -74 53 -176zM592 1081q-88 0 -149.5 62.5t-61.5 150.5t61.5 149.5t149.5 61.5t149.5 -61.5t61.5 -149.5t-61.5 -150.5t-149.5 -62.5z" />
    <glyph glyph-name="gdotaccent.ss04" horiz-adv-x="1105" 
d="M526 492q74 0 118 43t44 99t-12 99h-80q-84 0 -134 -40t-50 -103q-1 -98 114 -98zM1018 631q0 -188 -143.5 -294t-366.5 -106h-88q-45 0 -69.5 -27.5t-24.5 -58.5q0 -61 69 -61h553v-41q0 -115 -51 -248h-580q-328 0 -327 238q0 186 174 284q-106 82 -107 240
q0 211 159 325.5t411 114.5h125q51 0 90 25t110 108q159 -40 222 -159q-80 -133 -185 -191q29 -66 29 -149zM643 1081q-88 0 -149.5 62.5t-61.5 150.5t61.5 149.5t149.5 61.5t149.5 -61.5t61.5 -149.5t-61.5 -150.5t-149.5 -62.5z" />
    <glyph glyph-name="k.ss01" horiz-adv-x="1173" 
d="M743 575q1 97 -113 97q-62 0 -118 -52t-76 -153l-82 -467q-84 -14 -182 -14t-186 14l235 1339q187 31 369 0l-74 -421q133 84 279.5 83.5t237.5 -75t91 -211.5q0 -233 -206 -377l141 -326q-90 -29 -233.5 -28.5t-192.5 6.5l-115 293q-23 55 -22 112q121 0 184 49.5
t63 130.5z" />
    <glyph glyph-name="k.ss02" horiz-adv-x="1144" 
d="M172 -14q-98 0 -186 14l235 1339q187 31 369 0l-123 -700q176 121 301 326q59 6 191.5 5.5t232.5 -14.5q-213 -299 -426 -479l315 -465q-82 -29 -244.5 -28.5t-218.5 6.5l-182 278q-12 -6 -37 -14l-45 -254q-84 -14 -182 -14z" />
    <glyph glyph-name="kcommaaccent.ss01" horiz-adv-x="1173" 
d="M338 -182q0 56 -2 76q63 29 144 28.5t132 -26.5q-14 -159 -77.5 -267t-145.5 -166q-98 0 -133 82q82 141 82 273zM743 575q1 97 -113 97q-62 0 -118 -52t-76 -153l-82 -467q-84 -14 -182 -14t-186 14l235 1339q187 31 369 0l-74 -421q133 84 279.5 83.5t237.5 -75
t91 -211.5q0 -233 -206 -377l141 -326q-90 -29 -233.5 -28.5t-192.5 6.5l-115 293q-23 55 -22 112q121 0 184 49.5t63 130.5z" />
    <glyph glyph-name="kcommaaccent.ss02" horiz-adv-x="1144" 
d="M297 -182q0 56 -2 76q63 29 144 28.5t132 -26.5q-14 -159 -77.5 -267t-145.5 -166q-98 0 -133 82q82 141 82 273zM172 -14q-98 0 -186 14l235 1339q187 31 369 0l-123 -700q176 121 301 326q59 6 191.5 5.5t232.5 -14.5q-213 -299 -426 -479l315 -465
q-82 -29 -244.5 -28.5t-218.5 6.5l-182 278q-12 -6 -37 -14l-45 -254q-84 -14 -182 -14z" />
    <glyph glyph-name="l.ss02" horiz-adv-x="544" 
d="M174 -14q-100 0 -188 14l235 1339q189 31 373 0l-236 -1339q-84 -14 -184 -14z" />
    <glyph glyph-name="lacute.ss02" horiz-adv-x="544" 
d="M174 -14q-100 0 -188 14l235 1339q189 31 373 0l-236 -1339q-84 -14 -184 -14zM213 1366q-66 66 -84 158l461 327q137 -109 149 -292z" />
    <glyph glyph-name="lcaron.ss02" horiz-adv-x="544" 
d="M174 -14q-100 0 -188 14l235 1339q189 31 373 0l-236 -1339q-84 -14 -184 -14zM705 1335.5q0 71.5 -9 110.5q68 33 153 33t134 -31v-33q0 -145 -71.5 -267t-163.5 -192q-37 0 -72 21.5t-47 50.5q27 53 40 85t24.5 91.5t11.5 131z" />
    <glyph glyph-name="lcommaaccent.ss02" horiz-adv-x="544" 
d="M18 -194.5q0 67.5 -2 88.5q63 29 144.5 28.5t132.5 -26.5q-14 -159 -77.5 -267.5t-145.5 -165.5q-98 0 -133 82q43 78 62 135.5t19 125zM174 -14q-100 0 -188 14l235 1339q189 31 373 0l-236 -1339q-84 -14 -184 -14z" />
    <glyph glyph-name="ldot.ss02" horiz-adv-x="837" 
d="M704.5 500q-75.5 0 -130 54t-54.5 131t53.5 131t131 54t131 -54t53.5 -131t-54.5 -131t-130 -54zM174 -14q-100 0 -188 14l235 1339q189 31 373 0l-236 -1339q-84 -14 -184 -14z" />
    <glyph glyph-name="lslash.ss02" horiz-adv-x="544" 
d="M174 -14q-100 0 -188 14l94 530l-92 -45q-45 27 -69.5 78t-14.5 96l217 107l100 573q189 31 373 0l-66 -372l74 37q86 -78 76 -179l-191 -94l-129 -731q-84 -14 -184 -14z" />
    <glyph glyph-name="p.ss01" horiz-adv-x="1136" 
d="M489 276q94 0 158 68t64 197q0 154 -123 153q-74 0 -119 -45l-63 -360q34 -13 83 -13zM718 1004q171 0 270 -108t99 -292q0 -289 -181 -465t-462 -176q-35 0 -96 4l-59 -340q-84 -14 -183.5 -14t-187.5 14l240 1350q59 12 118 12t121 -12l17 -94h6q127 121 298 121z" />
    <glyph glyph-name="q.ss01" horiz-adv-x="1138" 
d="M514 272q84 0 131 62l64 348q-43 8 -91 8q-90 0 -156.5 -69.5t-66.5 -194.5q0 -154 119 -154zM660.5 1004q271.5 0 453.5 -101l-221 -1276q-84 -14 -184 -14t-189 14l70 385q-90 -49 -203 -49q-172 0 -270.5 107.5t-98.5 291.5q0 287 185.5 464.5t457 177.5z" />
    <glyph glyph-name="v.ss01" horiz-adv-x="1112" 
d="M331.5 -37q-154.5 0 -233 61.5t-78.5 163.5q0 61 15 119l115 656q88 14 186 14t184 -14l-106 -598q-4 -25 -4 -37q0 -49 53 -49q39 0 98.5 67.5t108.5 192.5t49 232.5t-23 191.5q88 14 187.5 14t185.5 -14q25 -59 25 -151t-25 -206t-84 -231t-145 -207t-220 -147.5
t-288.5 -57.5z" />
    <glyph glyph-name="v.ss02" horiz-adv-x="1095" 
d="M914 981q112 0 216 -29q-68 -299 -178 -516t-323 -436q-89 -16 -193 -16t-180 16q-104 215 -143 424t-50 528q115 29 227 29t175 -10q-33 -344 41 -639l6 -33q12 25 18 33q150 213 191 641q81 8 193 8z" />
    <glyph glyph-name="w.ss02" horiz-adv-x="1558" 
d="M1397.5 981q97.5 0 206.5 -29q-96 -324 -195.5 -532.5t-278.5 -419.5q-82 -16 -181 -16t-175 16q-43 166 -49 307q-55 -160 -156 -307q-82 -16 -181 -16t-175 16q-82 231 -108.5 439t-32.5 513q119 29 218 29t181 -8q-27 -426 -6 -639q2 -39 0 -74q12 49 22 74
q111 289 187 633q57 14 175 14t161 -14q-39 -469 -17 -637q2 -16 2 -49q6 27 36 76t85 229t98 387q86 8 183.5 8z" />
    <glyph glyph-name="wacute.ss02" horiz-adv-x="1558" 
d="M1397.5 981q97.5 0 206.5 -29q-96 -324 -195.5 -532.5t-278.5 -419.5q-82 -16 -181 -16t-175 16q-43 166 -49 307q-55 -160 -156 -307q-82 -16 -181 -16t-175 16q-82 231 -108.5 439t-32.5 513q119 29 218 29t181 -8q-27 -426 -6 -639q2 -39 0 -74q12 49 22 74
q111 289 187 633q57 14 175 14t161 -14q-39 -469 -17 -637q2 -16 2 -49q6 27 36 76t85 229t98 387q86 8 183.5 8zM676 1051q-74 47 -92 129l381 374q147 -84 196 -264z" />
    <glyph glyph-name="wcircumflex.ss02" horiz-adv-x="1558" 
d="M1397.5 981q97.5 0 206.5 -29q-96 -324 -195.5 -532.5t-278.5 -419.5q-82 -16 -181 -16t-175 16q-43 166 -49 307q-55 -160 -156 -307q-82 -16 -181 -16t-175 16q-82 231 -108.5 439t-32.5 513q119 29 218 29t181 -8q-27 -426 -6 -639q2 -39 0 -74q12 49 22 74
q111 289 187 633q57 14 175 14t161 -14q-39 -469 -17 -637q2 -16 2 -49q6 27 36 76t85 229t98 387q86 8 183.5 8zM578 1065q-92 41 -109 137l338 311q80 16 162 0l264 -303q-41 -100 -143 -145l-222 180z" />
    <glyph glyph-name="wdieresis.ss02" horiz-adv-x="1558" 
d="M1397.5 981q97.5 0 206.5 -29q-96 -324 -195.5 -532.5t-278.5 -419.5q-82 -16 -181 -16t-175 16q-43 166 -49 307q-55 -160 -156 -307q-82 -16 -181 -16t-175 16q-82 231 -108.5 439t-32.5 513q119 29 218 29t181 -8q-27 -426 -6 -639q2 -39 0 -74q12 49 22 74
q111 289 187 633q57 14 175 14t161 -14q-39 -469 -17 -637q2 -16 2 -49q6 27 36 76t85 229t98 387q86 8 183.5 8zM1104 1108q-72 0 -123 51t-51 123t51 123t123 51t123 -51t51 -123t-51 -123t-123 -51zM624.5 1108q-71.5 0 -122.5 51t-51 123t51 123t122.5 51t123 -51
t51.5 -123t-51.5 -123t-123 -51z" />
    <glyph glyph-name="wgrave.ss02" horiz-adv-x="1558" 
d="M1397.5 981q97.5 0 206.5 -29q-96 -324 -195.5 -532.5t-278.5 -419.5q-82 -16 -181 -16t-175 16q-43 166 -49 307q-55 -160 -156 -307q-82 -16 -181 -16t-175 16q-82 231 -108.5 439t-32.5 513q119 29 218 29t181 -8q-27 -426 -6 -639q2 -39 0 -74q12 49 22 74
q111 289 187 633q57 14 175 14t161 -14q-39 -469 -17 -637q2 -16 2 -49q6 27 36 76t85 229t98 387q86 8 183.5 8zM1110 1182q-35 -86 -102 -131l-453 235q55 182 207 260z" />
    <glyph glyph-name="y.ss01" horiz-adv-x="1114" 
d="M309 -92q0 -39 23.5 -60.5t58.5 -21.5q139 0 168 170l12 65l-49 -4q-213 -14 -213 -149zM364 -420q-398 0 -397 250q0 182 211 285q-94 39 -124.5 108.5t-8.5 192.5l96 547q88 14 186.5 14t182.5 -14l-78 -445q-14 -82 7.5 -117.5t87 -35.5t102.5 24l100 574
q88 14 186.5 14t182.5 -14l-137 -787h-3l-20 -123q-41 -236 -210.5 -354.5t-363.5 -118.5z" />
    <glyph glyph-name="y.ss02" horiz-adv-x="1116" 
d="M76 748q0 88 10 204q111 29 214.5 29t188.5 -8q-12 -137 -12 -248q0 -227 64 -451q166 213 178 480q6 104 -19 219q78 8 176.5 8t200.5 -20q20 -66 21 -154q0 -383 -300 -727t-796 -541q-109 78 -115 283q219 96 365 196q-176 350 -176 730z" />
    <glyph glyph-name="yacute.ss01" horiz-adv-x="1114" 
d="M309 -92q0 -39 23.5 -60.5t58.5 -21.5q139 0 168 170l12 65l-49 -4q-213 -14 -213 -149zM364 -420q-398 0 -397 250q0 182 211 285q-94 39 -124.5 108.5t-8.5 192.5l96 547q88 14 186.5 14t182.5 -14l-78 -445q-14 -82 7.5 -117.5t87 -35.5t102.5 24l100 574
q88 14 186.5 14t182.5 -14l-137 -787h-3l-20 -123q-41 -236 -210.5 -354.5t-363.5 -118.5zM483 1051q-74 47 -92 129l381 374q147 -84 197 -264z" />
    <glyph glyph-name="yacute.ss02" horiz-adv-x="1116" 
d="M76 748q0 88 10 204q111 29 214.5 29t188.5 -8q-12 -137 -12 -248q0 -227 64 -451q166 213 178 480q6 104 -19 219q78 8 176.5 8t200.5 -20q20 -66 21 -154q0 -383 -300 -727t-796 -541q-109 78 -115 283q219 96 365 196q-176 350 -176 730zM410 1051q-74 47 -93 129
l381 374q147 -84 197 -264z" />
    <glyph glyph-name="ycircumflex.ss01" horiz-adv-x="1114" 
d="M309 -92q0 -39 23.5 -60.5t58.5 -21.5q139 0 168 170l12 65l-49 -4q-213 -14 -213 -149zM364 -420q-398 0 -397 250q0 182 211 285q-94 39 -124.5 108.5t-8.5 192.5l96 547q88 14 186.5 14t182.5 -14l-78 -445q-14 -82 7.5 -117.5t87 -35.5t102.5 24l100 574
q88 14 186.5 14t182.5 -14l-137 -787h-3l-20 -123q-41 -236 -210.5 -354.5t-363.5 -118.5zM385 1065q-92 41 -109 137l338 311q82 16 162 0l264 -303q-41 -100 -143 -145l-221 180z" />
    <glyph glyph-name="ycircumflex.ss02" horiz-adv-x="1116" 
d="M76 748q0 88 10 204q111 29 214.5 29t188.5 -8q-12 -137 -12 -248q0 -227 64 -451q166 213 178 480q6 104 -19 219q78 8 176.5 8t200.5 -20q20 -66 21 -154q0 -383 -300 -727t-796 -541q-109 78 -115 283q219 96 365 196q-176 350 -176 730zM309 1065q-92 41 -108 137
l338 311q82 16 161 0l265 -303q-41 -100 -144 -145l-221 180z" />
    <glyph glyph-name="ydieresis.ss01" horiz-adv-x="1114" 
d="M309 -92q0 -39 23.5 -60.5t58.5 -21.5q139 0 168 170l12 65l-49 -4q-213 -14 -213 -149zM364 -420q-398 0 -397 250q0 182 211 285q-94 39 -124.5 108.5t-8.5 192.5l96 547q88 14 186.5 14t182.5 -14l-78 -445q-14 -82 7.5 -117.5t87 -35.5t102.5 24l100 574
q88 14 186.5 14t182.5 -14l-137 -787h-3l-20 -123q-41 -236 -210.5 -354.5t-363.5 -118.5zM911.5 1108q-71.5 0 -123 51t-51.5 123t51.5 123t123 51t122.5 -51t51 -123t-51 -123t-122.5 -51zM432 1108q-72 0 -123 51t-51 123t51 123t123 51t123 -51t51 -123t-51 -123
t-123 -51z" />
    <glyph glyph-name="ydieresis.ss02" horiz-adv-x="1116" 
d="M76 748q0 88 10 204q111 29 214.5 29t188.5 -8q-12 -137 -12 -248q0 -227 64 -451q166 213 178 480q6 104 -19 219q78 8 176.5 8t200.5 -20q20 -66 21 -154q0 -383 -300 -727t-796 -541q-109 78 -115 283q219 96 365 196q-176 350 -176 730zM835.5 1108
q-71.5 0 -122.5 51t-51 123t51 123t122.5 51t123 -51t51.5 -123t-51.5 -123t-123 -51zM356.5 1108q-71.5 0 -123 51t-51.5 123t51.5 123t123 51t122.5 -51t51 -123t-51 -123t-122.5 -51z" />
    <glyph glyph-name="ygrave.ss01" horiz-adv-x="1114" 
d="M309 -92q0 -39 23.5 -60.5t58.5 -21.5q139 0 168 170l12 65l-49 -4q-213 -14 -213 -149zM364 -420q-398 0 -397 250q0 182 211 285q-94 39 -124.5 108.5t-8.5 192.5l96 547q88 14 186.5 14t182.5 -14l-78 -445q-14 -82 7.5 -117.5t87 -35.5t102.5 24l100 574
q88 14 186.5 14t182.5 -14l-137 -787h-3l-20 -123q-41 -236 -210.5 -354.5t-363.5 -118.5zM918 1182q-35 -86 -103 -131l-453 235q55 182 207 260z" />
    <glyph glyph-name="ygrave.ss02" horiz-adv-x="1116" 
d="M76 748q0 88 10 204q111 29 214.5 29t188.5 -8q-12 -137 -12 -248q0 -227 64 -451q166 213 178 480q6 104 -19 219q78 8 176.5 8t200.5 -20q20 -66 21 -154q0 -383 -300 -727t-796 -541q-109 78 -115 283q219 96 365 196q-176 350 -176 730zM844 1182q-35 -86 -103 -131
l-452 235q55 182 207 260z" />
    <glyph glyph-name="fi.ss01" horiz-adv-x="1249" 
d="M231 926q107 442 521 442q198 0 327 -70q-16 -74 -58 -150t-81 -110q-68 37 -148 37t-128 -35t-62 -96l-4 -18h629l-164 -926q-84 -14 -182 -14t-187 14l121 678l-260 2l-121 -680q-45 -220 -160 -324t-333 -104q-147 0 -248 57q10 72 51 148t82 114q43 -25 111 -24
q104 0 126 117l123 696h-114v29q0 94 43 217h116z" />
    <glyph glyph-name="fl.ss01" horiz-adv-x="1398" 
d="M1035 -33q-173 0 -231 94t-26 279l127 719q-53 6 -117 6q-136 0 -174 -117h148v-49q0 -119 -53 -252h-150l-115 -647q-47 -219 -160 -324q-114 -104 -333 -104q-147 0 -248 57q10 72 51 148t82 114q43 -25 111 -24q104 0 127 117l116 663h-112q-2 8 -2 54q0 127 39 212
l14 35h117q113 420 610 420q274 0 459 -76l-164 -925q-12 -66 29 -66q24 1 51 21q100 -92 90 -271q-113 -84 -286 -84z" />
    <glyph glyph-name="three.001" horiz-adv-x="1130" 
d="M1061 508q0 -400 -390 -517q-107 -32 -255 -32t-266 59t-175 138q70 176 230 270q115 -125 268 -125q92 0 145 47q54 47 54 126t-46 118t-151 39h-172q-2 6 -2 18q0 53 49 103l225 258h-425q-12 182 55 321h917q0 -70 -17 -124t-81 -126l-199 -223q96 -27 166 -116
t70 -234z" />
    <glyph glyph-name="zero.osf" horiz-adv-x="1249" 
d="M592 285q128 0 178 109q41 89 41 202q0 207 -158 207q-174 0 -212 -213q-9 -51 -9 -109q0 -196 160 -196zM547 -33q-248 0 -373 130t-125 347q0 293 173 495t468 202q250 0 378 -136t128 -358q0 -283 -176 -481t-473 -199z" />
    <glyph glyph-name="one.osf" horiz-adv-x="806" 
d="M652 1133q58 0 134 -15l-198 -1118q-102 -16 -188 -16t-181 16l127 713l-158 -64q-127 84 -127 297q197 86 248 106q52 19 109 41t117 31q59 9 117 9z" />
    <glyph glyph-name="two.osf" horiz-adv-x="1087" 
d="M973 225q0 -115 -62 -225h-917q-4 30 -4 94t43 127t160 148q299 215 361 270t62 102q0 57 -65 58q-88 0 -248 -140q-96 25 -144 76t-73 137q84 121 214 194t307 73t286 -88t108 -250q0 -285 -323 -449l-129 -65l133 18l285 2q6 -25 6 -82z" />
    <glyph glyph-name="three.osf" horiz-adv-x="1054" 
d="M414 582q198 0 198 118q0 102 -106 103q-106 0 -223 -84q-78 33 -118 86t-56 137q170 197 462 197q201 0 311 -87t109 -231q0 -241 -205 -360q141 -76 142 -256q0 -133 -56 -231t-148 -151q-177 -101 -382 -99q-301 0 -434 170q39 94 108 171q70 77 156 111
q53 -66 97 -92t112 -27q68 0 111 37t43 95t-38 85t-137 27q-16 61 -1 147t55 134z" />
    <glyph glyph-name="four.osf" horiz-adv-x="1185" 
d="M365 301h210l66 377zM647 -268q-80 0 -168 16l45 256h-579q-8 29 -8 78q0 109 114 250l619 774q94 16 211 16t174 -16l-142 -805h185q6 -139 -54 -297h-184l-45 -256q-88 -16 -168 -16z" />
    <glyph glyph-name="five.osf" horiz-adv-x="1071" 
d="M397 -274q-170 0 -293 44t-174 95q76 193 217 285q96 -90 246 -91q186 0 187 123q0 49 -26 78q-45 50 -251 62q-88 4 -246 2l138 784h831v-43q0 -125 -55 -279h-506l-27 -149q274 -8 400 -99t125 -308q0 -216 -152 -360t-414 -144z" />
    <glyph glyph-name="six.osf" horiz-adv-x="1138" 
d="M408 449q0 -89 40 -135t114 -46q73 0 119 42t46 118q0 139 -135 139q-98 0 -182 -61q-2 -18 -2 -57zM762 868q146 0 236 -94q91 -94 92 -270q0 -248 -160 -395t-401 -147t-365 124q-124 126 -123 334q0 208 83 380q158 329 529 498q174 80 359 103q45 -43 56 -145
t-9 -193q-387 -31 -547 -252q104 57 250 57z" />
    <glyph glyph-name="seven.osf" horiz-adv-x="1013" 
d="M1071 1055q0 -113 -92 -264l-674 -1065q-88 8 -173 46t-116 89l596 930h-530v45q0 121 57 272h928q4 -25 4 -53z" />
    <glyph glyph-name="eight.osf" horiz-adv-x="1116" 
d="M512 231q60 0 102 35t41 87q0 52 -31 83q-32 32 -75 56t-51 26q-111 -84 -111 -182q0 -49 32 -77q33 -28 93 -28zM762 1008q0 92 -117 92q-73 0 -109 -33t-36 -82q0 -76 127 -137h2l2 -2q131 76 131 162zM434 -39q-174 0 -296 77t-122 232q0 227 258 394
q-131 109 -131 256q-1 196 143 322t404 126q202 0 314 -84t110 -237q-2 -213 -237 -342q149 -115 149 -273t-84 -268t-209 -156q-125 -47 -299 -47z" />
    <glyph glyph-name="nine.osf" horiz-adv-x="1150" 
d="M403 657q-1 -147 155 -147q80 0 149 33v35q0 113 -40 174q-41 61 -109 63t-112 -41t-43 -117zM600 1141q232 -1 356 -143t125 -398q0 -881 -989 -874q-53 123 14 319q279 6 404 59t168 191q-106 -92 -276 -92t-267 105q-96 105 -96 300q0 233 165 383q164 150 396 150z
" />
    <glyph glyph-name="zero.tf" horiz-adv-x="1187" 
d="M446 514q0 -226 117 -229q82 -2 148 145q65 148 65 372t-119 226q-79 2 -145 -143t-66 -371zM522 -33q-227 0 -336 133t-108 377q0 391 169 640t460 249q221 0 329 -139t109 -381q0 -383 -169 -631t-454 -248z" />
    <glyph glyph-name="one.tf" horiz-adv-x="1187" 
d="M1061 319q6 -94 -7 -157t-50 -162h-936q-2 170 55 319h309l111 631l-287 -108q-43 26 -66 116t-6 187l486 196q66 15 173 15t136 -15l-180 -1022h262z" />
    <glyph glyph-name="two.tf" horiz-adv-x="1187" 
d="M12 0v51q0 174 150 299q57 50 125 106q69 56 107 89t118 98t127 120q47 54 59 92q11 37 11 72q0 37 -27 65q-28 28 -84 28t-109 -29t-124 -90q-90 31 -139 90q-48 59 -64 158q221 217 524 217q196 0 310 -91t114 -273t-108 -326q-108 -143 -355 -328l-43 -24l47 6l402 2
q27 -162 -60 -332h-981z" />
    <glyph glyph-name="three.tf" horiz-adv-x="1187" 
d="M473 -41q-168 0 -286 47t-175 107q72 188 217 293q98 -106 240 -107q104 0 159 51q54 51 54 135q0 145 -170 146h-170q-2 5 -2 39q0 65 111 184l147 162h-405q-3 20 -3 108t58 207h917q2 -127 -106 -250l-203 -223q92 -23 156 -104q63 -82 63 -224q0 -281 -175 -426
t-427 -145z" />
    <glyph glyph-name="four.tf" horiz-adv-x="1187" 
d="M1124 557v-31q0 -141 -59 -297h-141l-41 -229q-92 -16 -172 -16t-174 16l41 229h-533q-37 80 -23 165q13 85 78 227l349 753q195 -2 348 -78l-297 -675q-16 -33 -23 -64h158l47 268q193 30 346 0l-47 -268h143z" />
    <glyph glyph-name="five.tf" horiz-adv-x="1187" 
d="M485 -39q-165 0 -279 39t-163 84q76 207 215 303q100 -84 258 -84q84 0 131 40t47 101q0 117 -129 117q-73 -1 -183 -23t-146 -22t-80 14l123 801h839v-41q0 -131 -53 -278h-498l-24 -142q47 14 135 15q188 -1 284 -97t95 -270q0 -264 -154 -410t-418 -147z" />
    <glyph glyph-name="six.tf" horiz-adv-x="1187" 
d="M453 432q0 -80 35 -122q36 -42 98 -42t102 44t39 128q0 127 -121 127q-63 0 -149 -51q-4 -53 -4 -84zM772 866q166 0 251 -90t85 -264q0 -260 -165 -406t-405 -145q-240 0 -356 123t-116 327t80 381q153 334 523 504q171 80 357 105q41 -41 53 -139t-4 -199
q-197 -27 -330 -84t-208 -182q112 69 235 69z" />
    <glyph glyph-name="seven.tf" horiz-adv-x="1187" 
d="M1204 1262q0 -119 -90 -265l-653 -1069q-94 10 -181 52t-120 102l553 893h-525v39q0 139 60 301h952q4 -12 4 -53z" />
    <glyph glyph-name="eight.tf" horiz-adv-x="1187" 
d="M561 231q51 0 84 30t33 81t-25 83t-86 73l-30 22q-84 -92 -84 -184q-1 -105 108 -105zM678 1098q-45 0 -76 -27t-31 -67t27 -75q27 -36 96 -91q82 84 82 168q0 92 -98 92zM1040 410q0 -203 -138 -326t-392 -123q-442 0 -442 318q0 225 254 397q-117 113 -117 260
q0 180 137 305q138 125 358 125t326 -86t107 -242q-1 -206 -232 -360q139 -121 139 -268z" />
    <glyph glyph-name="nine.tf" horiz-adv-x="1187" 
d="M489 882q-1 -72 39 -107q40 -36 104 -36t130 25q2 27 2 84q0 190 -133 194q-61 2 -101 -43t-41 -117zM119 829q1 237 161 387t390 150t347 -134q118 -134 118 -364q0 -911 -1002 -911q-53 125 14 319q252 0 380 44t184 165q-98 -55 -215 -55q-176 0 -276 106t-101 293z
" />
    <glyph glyph-name="currency.osf" horiz-adv-x="1349" 
d="M680 719q-70 -1 -120 -51t-50 -137t41 -129t114 -42t119 52t47 137q0 86 -40 128q-41 42 -111 42zM1190 588q0 -144 -74 -275l121 -118q-68 -143 -229 -232l-123 121q-129 -74 -267 -74q-88 0 -172 27l-114 -121q-164 84 -238 225l107 111q-49 98 -49 240t73 272
l-123 119q34 66 96 129t136 104l123 -121q131 74 270 74q90 0 174 -27l103 107q164 -84 237 -223l-96 -103q45 -91 45 -235z" />
    <glyph glyph-name="dollar.osf" horiz-adv-x="1044" 
d="M428 745q0 -23 53 -35t128 -30q75 -16 151 -47t129 -106t53 -203t-97 -230t-265 -123l-37 -209q-72 -16 -151 -16t-150 16l39 220q-186 29 -289 104q35 201 153 279q135 -102 320 -103q86 0 118 16q31 16 31 55q0 38 -37 56q-38 18 -139 33t-201 66q-57 28 -95 92
t-38 155q0 135 100 233t269 128l35 202q169 35 301 0l-37 -206q158 -27 234 -95q-35 -193 -164 -272q-43 35 -121 59t-162 25q-131 -1 -131 -64z" />
    <glyph glyph-name="sterling.osf" horiz-adv-x="1046" 
d="M678 801q-47 0 -81 -30t-34 -85v-61h197q29 -100 -31 -201h-180q-6 -37 -14 -73t-9 -46h400q18 -141 -54 -305h-825q0 108 52 232t69 192h-123q-23 104 31 201h119q2 29 2 96q0 180 133 301t329 121q276 0 383 -170q-84 -166 -268 -236q-24 64 -96 64z" />
    <glyph glyph-name="yen.osf" horiz-adv-x="1269" 
d="M1040 549v-21q0 -61 -24 -129h-223l-15 -77h223v-21q0 -53 -26 -129h-223l-31 -172q-80 -14 -179 -14t-188 14l31 172h-223v18q0 61 26 132h222l14 77h-221v19q0 66 26 131h154l-248 559q147 29 256 29t182 -15l113 -368l242 368q176 34 397 -12l-426 -561h141z" />
    <glyph glyph-name="ampersand.ss01" horiz-adv-x="1798" 
d="M728 266q122 0 230 50t152 145q-289 -51 -575 -158q71 -37 193 -37zM545 723q-129 0 -133 -195q115 45 247 88q-28 107 -114 107zM680 -39q-626 0 -627 526q-1 240 147 382t388 143q172 0 274 -78t123 -232q109 23 143 29q-16 115 -114 266q139 111 352 111
q96 -158 121 -334q155 12 317 12q20 -135 -14 -278q-182 4 -305 -4q-49 -260 -269 -402t-536 -141z" />
    <glyph glyph-name="caroncomb.alt" 
d="M-61 1335.5q0 71.5 -9 110.5q68 33 153 33t134 -31v-33q0 -145 -71.5 -267t-163.5 -192q-37 0 -72 21.5t-47 50.5q27 53 40 85t24.5 91.5t11.5 131z" />
    <glyph glyph-name="gravecomb.case" 
d="M121 1372l-514 193q39 201 184 284l418 -319q-20 -95 -88 -158z" />
    <glyph glyph-name="acutecomb.case" 
d="M-324 1366q-66 66 -84 158l461 327q137 -109 150 -292z" />
    <glyph glyph-name="tildecomb.case" 
d="M-328 1788q76 0 164 -38t115 -38q80 0 96 92q154 0 236 -69q-27 -145 -119 -222t-215 -77q-70 0 -159 36.5t-126 36.5q-79 0 -102 -90q-68 0 -130.5 22.5t-95.5 61.5q25 131 120 208t216 77z" />
    <glyph glyph-name="acute.case" horiz-adv-x="708" 
d="M371 1366q-66 66 -84 158l461 327q137 -109 149 -292z" />
    <glyph glyph-name="breve.case" horiz-adv-x="923" 
d="M731.5 1405q-185.5 0 -282.5 108.5t-68 253.5q94 37 209 29q16 -143 174 -143q61 0 121.5 32.5t87.5 110.5q123 14 190 -29q-25 -150 -135.5 -256t-296 -106z" />
    <glyph glyph-name="caron.case" horiz-adv-x="897" 
d="M598 1436l-258 229q39 113 137 166l248 -162l295 164q88 -57 104 -168l-333 -229q-101 -20 -193 0z" />
    <glyph glyph-name="circumflex.case" horiz-adv-x="897" 
d="M836 1802l258 -227q-39 -113 -138 -166l-247 162l-295 -162q-92 57 -107 166l336 227q99 20 193 0z" />
    <glyph glyph-name="dieresis.case" horiz-adv-x="958" 
d="M990 1450q-73 0 -124 52t-51 125t51.5 124t124 51t124.5 -51t52 -124t-52 -125t-125 -52zM497 1450q-73 0 -124 52t-51 125t51 124t124 51t125 -51t52 -124t-52 -125t-125 -52z" />
    <glyph glyph-name="dotaccent.case" horiz-adv-x="634" 
d="M560 1411q-87 0 -148.5 61.5t-61.5 149.5t61.5 148.5t148.5 60.5t148.5 -60.5t61.5 -148.5t-61.5 -149.5t-148.5 -61.5z" />
    <glyph glyph-name="grave.case" horiz-adv-x="708" 
d="M813 1372l-514 193q39 201 184 284l418 -319q-20 -95 -88 -158z" />
    <glyph glyph-name="hungarumlaut.case" horiz-adv-x="915" 
d="M399 1368q-78 23 -118 102l268 369q156 -16 188 -164zM819 1366q-82 23 -119 100l261 375q158 -16 192 -162z" />
    <glyph glyph-name="macron.case" horiz-adv-x="794" 
d="M313 1491q-12 49 0.5 114.5t42.5 123.5h666q12 -123 -41 -238h-668z" />
    <glyph glyph-name="ring.case" horiz-adv-x="616" 
d="M582 1538q84 0 84 94q0 33 -20.5 54.5t-58.5 21.5t-59.5 -26.5t-21.5 -63.5t20.5 -58.5t55.5 -21.5zM577 1368q-117 0 -186 58.5t-69 174t80.5 194.5t192.5 79t183.5 -57.5t71.5 -174t-78 -195.5t-195 -79z" />
    <glyph glyph-name="tilde.case" horiz-adv-x="983" 
d="M627 1788q76 0 164 -38t114 -38q80 0 96 92q154 0 236 -69q-27 -145 -119 -222t-215 -77q-70 0 -159 36.5t-126 36.5q-79 0 -102 -90q-68 0 -130 22.5t-95 61.5q25 131 120 208t216 77z" />
    <glyph glyph-name="IJacute" horiz-adv-x="1193" 
d="M539 -86q-209 0 -299 100q14 96 74 180t141 125q51 -59 120 -59q92 0 113 105l166 946q84 14 182 14t187 -14l-166 -936q-35 -201 -172 -331t-346 -130zM254 375q-98 0 -186 14l161 922q85 14 183 14t186 -14l-162 -922q-84 -14 -182 -14zM889 1346q-59 51 -64 143
l475 352q129 -92 117 -287zM283 1346q-59 51 -64 143l475 352q133 -94 117 -287z" />
    <glyph glyph-name="ijacute" horiz-adv-x="1120" 
d="M446 -410q-190 0 -272 86q10 64 62 138t120 110q38 -41 92 -41t82 36t41 114l166 942q85 14 183 14t186 -14l-164 -926q-39 -219 -173 -339q-133 -120 -323 -120zM170 -14q-98 0 -184 14l172 975q86 14 184 14t184 -14l-172 -975q-86 -14 -184 -14zM784 1051
q-63 49 -73 139l444 362q141 -84 137 -278zM213 1051q-63 49 -74 139l445 362q141 -84 137 -278z" />
    <glyph glyph-name="slashlong" horiz-adv-x="1171" 
d="M301 -162q-80 12 -108 90l798 1186q78 -12 109 -82z" />
    <glyph glyph-name="slashshort" horiz-adv-x="839" 
d="M252 524q-45 27 -70 78t-14 96l698 344q86 -78 76 -178z" />
    <glyph glyph-name="stroke" horiz-adv-x="827" 
d="M219 852q-18 86 27 197h692q12 -102 -27 -197h-692z" />
    <glyph glyph-name="caronalt" horiz-adv-x="385" 
d="M470 1479q85 0 134 -31v-33q0 -145 -72 -267t-163 -192q-37 0 -72 22t-47 50q27 53 51 111t24 163q1 105 -8 144q68 33 153 33z" />
    <glyph glyph-name="slashlong.case" horiz-adv-x="1523" 
d="M385 -229q-147 16 -199 135l1119 1653q139 -23 194 -132z" />
    <glyph glyph-name="slashshort.case" horiz-adv-x="849" 
d="M252 512q-47 27 -73 80t-15 100l719 365q88 -76 82 -183z" />
    <glyph glyph-name="i.loclTRK" horiz-adv-x="538" 
d="M170 -14q-98 0 -186 14l174 975q84 14 182 14t184 -14l-172 -975q-84 -14 -182 -14zM395 1081q-88 0 -149.5 62.5t-61.5 150.5t61.5 149.5t149.5 61.5t149.5 -61.5t61.5 -149.5t-61.5 -150.5t-149.5 -62.5z" />
    <glyph glyph-name="uni1EF9.ss01" horiz-adv-x="1114" 
d="M309 -92q0 -39 23.5 -60.5t58.5 -21.5q139 0 168 170l12 65l-49 -4q-213 -14 -213 -149zM916 977q98 0 182 -14l-137 -787h-3l-20 -123q-41 -237 -210 -355q-170 -118 -364 -118q-398 0 -397 250q0 182 211 285q-94 39 -124.5 108.5t-8.5 192.5l96 547q88 14 186.5 14
t182.5 -14l-78 -445q-14 -82 7.5 -117.5t87 -35.5t102.5 24l100 574q89 14 187 14zM795 1403q66 0 100 88q152 0 233 -88q-90 -272 -309 -273q-82 -2 -156.5 36t-111.5 38q-70 0 -107 -98q-59 0 -128.5 22.5t-98.5 65.5q41 135 120 210t175 76t172 -38t111 -39z" />
    <glyph glyph-name="uni1EF9.ss02" horiz-adv-x="1116" 
d="M76 748q0 88 10 204q111 29 214.5 29t188.5 -8q-12 -137 -12 -248q0 -227 64 -451q166 213 178 480q6 104 -19 219q78 8 176.5 8t200.5 -20q20 -66 21 -154q0 -383 -300 -727t-796 -541q-109 78 -115 283q219 96 365 196q-176 350 -176 730zM719 1403q66 0 100 88
q152 0 234 -88q-90 -272 -310 -273q-82 -2 -156.5 36t-111.5 38q-69 0 -106 -98q-59 0 -129 22.5t-99 65.5q41 135 120 210t175 76t172 -38t111 -39z" />
    <glyph glyph-name="cent.osf" horiz-adv-x="1003" 
d="M433 -172q-79 0 -150 16l36 207q-262 88 -262 377q0 231 119 389t313 205l37 207q78 16 157 16t144 -16l-36 -207q121 -29 178 -90q-19 -68 -75 -134t-120 -102q-51 47 -139 47t-146 -71q-57 -72 -57 -193q0 -164 148 -164q77 0 149 66q145 -59 162 -223
q-123 -104 -275 -127l-32 -187q-72 -16 -151 -16z" />
    <glyph glyph-name="Euro.osf" horiz-adv-x="1085" 
d="M743 797q-88 0 -139 -62h141q0 -80 -26 -149h-176q-6 -37 -6 -70h137q6 -70 -27 -149h-96q31 -68 118 -68t152 47q111 -82 115 -293q-145 -90 -346 -90q-201 1 -314 105t-122 299h-136q0 78 27 149h111q2 12 5 35t5 35h-76q0 78 27 149h92q74 188 227 293
q154 104 359 105q115 0 197 -31t114 -70q-70 -170 -232 -278q-43 43 -131 43z" />
    <glyph glyph-name="uni0308.case" 
d="M56 1450q-73 0 -124 52t-51 125t51.5 124t124 51t124.5 -51t52 -124t-52 -125t-125 -52zM-437 1450q-73 0 -124 52t-51 125t51 124t124 51t125 -51t52 -124t-52 -125t-125 -52z" />
    <glyph glyph-name="uni0307.case" 
d="M-71 1411q-87 0 -148.5 61.5t-61.5 149.5t61.5 148.5t148.5 60.5t148.5 -60.5t61.5 -148.5t-61.5 -149.5t-148.5 -61.5z" />
    <glyph glyph-name="uni030B.case" 
d="M-504 1368q-78 23 -119 102l269 369q156 -16 188 -164zM-84 1366q-82 23 -119 100l260 375q158 -16 193 -162z" />
    <glyph glyph-name="uni0302.case" 
d="M-43 1802l258 -227q-39 -113 -137 -166l-248 162l-295 -162q-92 57 -106 166l335 227q99 20 193 0z" />
    <glyph glyph-name="uni030C.case" 
d="M-281 1436l-258 229q39 113 138 166l247 -162l295 164q88 -57 105 -168l-334 -229q-101 -20 -193 0z" />
    <glyph glyph-name="uni0306.case" 
d="M-189.5 1405q-185.5 0 -282.5 108.5t-69 253.5q94 37 209 29q16 -143 174 -143q61 0 122 32.5t87 110.5q123 14 191 -29q-25 -150 -135.5 -256t-296 -106z" />
    <glyph glyph-name="uni030A.case" 
d="M4 1538q84 0 84 94q0 33 -20.5 54.5t-58.5 21.5t-59.5 -26.5t-21.5 -63.5t20.5 -58.5t55.5 -21.5zM0 1368q-117 0 -186.5 58.5t-69.5 174t81 194.5t192.5 79t183 -57.5t71.5 -174t-77.5 -195.5t-194.5 -79z" />
    <glyph glyph-name="uni0304.case" 
d="M-459 1491q-12 49 0.5 114.5t42.5 123.5h666q12 -123 -41 -238h-668z" />
    <glyph glyph-name="uni0337.case" 
d="M-575 512q-47 27 -73 80t-16 100l721 365q90 -76 80 -183z" />
    <glyph glyph-name="uni0338.case" 
d="M-1071 -229q-145 16 -201 135l1118 1653q139 -23 195 -132z" />
    </font>
</defs>
</svg>
