<?xml version="1.0" encoding="utf-8"?>
<!-- Generator: Adobe Illustrator 21.1.0, SVG Export Plug-In . SVG Version: 6.00 Build 0)  -->
<svg version="1.1" id="Layer_1" xmlns="http://www.w3.org/2000/svg" xmlns:xlink="http://www.w3.org/1999/xlink" x="0px" y="0px"
	 viewBox="0 0 61 59.4" style="enable-background:new 0 0 61 59.4;" xml:space="preserve">
<style type="text/css">
	.st0{fill:#FFFFFF;}
	.st1{display:none;}
</style>
<g id="Artwork">
	<path class="st0" d="M16.6,14.9c-1.2-0.7-2.5-1-3.8-0.9c-0.1,0-0.2-0.1-0.1-0.2c0.9-1,1.8-1.9,2.9-2.7c3-2.2,6.7-3.5,10.4-3.9
		c3.8-0.3,7.6,0.2,11,1.8c1.7,0.8,3.3,1.8,4.7,3.1c0.7,0.6,1.4,1.3,2,2c0.3,0.4,0.6,0.7,0.9,1.1l0.8,1.1c2.1,3.1,3.3,6.8,3.7,10.5
		s0,7.5-0.8,11.2c-0.8,3.7-2.1,7.3-3.5,10.8c-0.7,1.8-1.5,3.5-2.3,5.2c-0.3,0.7-0.7,1.3-1,2c-0.2,0.3-0.5,0.5-0.9,0.5
		c-2.7-0.2-5.3-0.5-7.9-1.2c-0.6-0.1-0.8-0.8-0.5-1.3c0.4-0.5,0.7-1,1.1-1.5c2.1-2.9,4.1-5.8,5.9-9c1.7-3.1,3.2-6.5,4.1-10
		c0.9-3.5,1.1-7.3,0.3-10.8c-0.2-0.9-0.4-1.8-0.7-2.6c-0.3-0.9-0.6-1.7-1-2.5c-0.8-1.6-1.9-3.1-3.3-4.4c-1.4-1.2-3-2.2-4.7-2.8
		c-0.9-0.3-1.7-0.6-2.6-0.8c-0.4-0.1-0.9-0.2-1.3-0.2c-0.5-0.1-0.9-0.1-1.4-0.1c-1.8,0-3.7,0.3-5.4,1c-1.7,0.6-3.3,1.6-4.7,2.9
		c-0.5,0.4-1,0.9-1.4,1.5C17,15,16.8,15,16.6,14.9z M21.5,50.8c2.1,1.3,4.2,2.3,6.4,3.1c0.7,0.3,1.4,0.1,1.8-0.5
		c0.6-0.7,1.2-1.4,1.7-2.2c2.2-2.7,4.2-5.6,6-8.6c1.8-3,3.3-6.1,4.2-9.4c0.9-3.3,1.2-6.8,0.6-10.2c-0.3-1.7-0.8-3.4-1.5-4.9
		s-1.7-2.9-3-4.1c-1.2-1.2-2.7-2.1-4.3-2.7c-0.8-0.3-1.6-0.5-2.5-0.7c-0.8-0.2-1.7-0.3-2.5-0.3c-3.4,0-6.7,1.5-9.2,3.8
		c-0.4,0.4-0.8,0.9-1.2,1.3c-0.1,0.2-0.1,0.4,0.1,0.5c1.1,1,2.1,2.3,2.9,3.9c0,0.1,0.2,0.1,0.2,0c1.4-3.2,4.2-5.8,7.5-5.9
		c3.2-0.1,6.1,2,7.4,5.2c3.2,7.5-0.5,15.7-4.9,21.4c-2.9,3.8-6.2,7.1-9.9,9.8C21.4,50.6,21.4,50.8,21.5,50.8z M52,17.5
		C47.3,9.4,39.2,5.1,30.8,4.1c-4.2-0.5-8.4-0.2-12.4,1.4c-3.6,1.4-7.2,3.6-9.9,6.8C5,16.1,4,20.2,4,23.1c0,0.7,1,0.7,1.1,0
		c0.1-1.9,0.6-4.1,3-6.7c0.7-0.7,1.4-1.3,2.2-1.7c0.3-0.1,0.5-0.3,0.7-0.6c1.2-1.6,2.6-2.9,4.1-3.9c3.2-2.3,7.1-3.6,11-4
		C30,5.9,34,6.5,37.6,8.1c1.8,0.8,3.5,1.8,5.1,3.1c1.5,1.3,2.9,2.8,4,4.4c2.3,3.3,3.7,7.1,4.2,11.1c0.5,3.9,0.2,7.9-0.6,11.8
		s-1.9,7.6-3.4,11.2c-0.7,1.8-1.5,3.6-2.3,5.4c-0.1,0.3-0.2,0.5-0.4,0.8c-0.2,0.4,0.1,0.8,0.5,0.7c2.1-0.1,4.3-0.2,6.4-0.6
		c1.6-0.2,2.9-1.3,3.4-2.9C58.2,41.6,58.1,28.1,52,17.5z"/>
</g>
<g id="Guides" class="st1">
</g>
</svg>
